<svg width="24" height="24" viewBox="0 0 24 24" fill="none" xmlns="http://www.w3.org/2000/svg">
<path d="M12 6.98438C12.9062 6.98438 13.7344 7.21875 14.4844 7.6875C15.2656 8.125 15.875 8.73438 16.3125 9.51562C16.7812 10.2656 17.0156 11.0938 17.0156 12C17.0156 12.9062 16.7812 13.75 16.3125 14.5312C15.875 15.2812 15.2656 15.8906 14.4844 16.3594C13.7344 16.7969 12.9062 17.0156 12 17.0156C11.0938 17.0156 10.25 16.7969 9.46875 16.3594C8.71875 15.8906 8.10938 15.2812 7.64062 14.5312C7.20312 13.75 6.98438 12.9062 6.98438 12C6.98438 11.0938 7.20312 10.2656 7.64062 9.51562C8.10938 8.73438 8.71875 8.125 9.46875 7.6875C10.25 7.21875 11.0938 6.98438 12 6.98438ZM2.01562 12.9844C1.73438 12.9844 1.48438 12.8906 1.26562 12.7031C1.07812 12.5156 0.984375 12.2812 0.984375 12C0.984375 11.7188 1.07812 11.4844 1.26562 11.2969C1.48438 11.1094 1.73438 11.0156 2.01562 11.0156H3.98438C4.26562 11.0156 4.5 11.1094 4.6875 11.2969C4.90625 11.4844 5.01562 11.7188 5.01562 12C5.01562 12.2812 4.90625 12.5156 4.6875 12.7031C4.5 12.8906 4.26562 12.9844 3.98438 12.9844H2.01562ZM20.0156 12.9844C19.7344 12.9844 19.4844 12.8906 19.2656 12.7031C19.0781 12.5156 18.9844 12.2812 18.9844 12C18.9844 11.7188 19.0781 11.4844 19.2656 11.2969C19.4844 11.1094 19.7344 11.0156 20.0156 11.0156H21.9844C22.2656 11.0156 22.5 11.1094 22.6875 11.2969C22.9062 11.4844 23.0156 11.7188 23.0156 12C23.0156 12.2812 22.9062 12.5156 22.6875 12.7031C22.5 12.8906 22.2656 12.9844 21.9844 12.9844H20.0156ZM11.0156 2.01562C11.0156 1.73438 11.1094 1.5 11.2969 1.3125C11.4844 1.09375 11.7188 0.984375 12 0.984375C12.2812 0.984375 12.5156 1.09375 12.7031 1.3125C12.8906 1.5 12.9844 1.73438 12.9844 2.01562V3.98438C12.9844 4.26562 12.8906 4.51562 12.7031 4.73438C12.5156 4.92188 12.2812 5.01562 12 5.01562C11.7188 5.01562 11.4844 4.92188 11.2969 4.73438C11.1094 4.51562 11.0156 4.26562 11.0156 3.98438V2.01562ZM11.0156 20.0156C11.0156 19.7344 11.1094 19.5 11.2969 19.3125C11.4844 19.0938 11.7188 18.9844 12 18.9844C12.2812 18.9844 12.5156 19.0938 12.7031 19.3125C12.8906 19.5 12.9844 19.7344 12.9844 20.0156V21.9844C12.9844 22.2656 12.8906 22.5156 12.7031 22.7344C12.5156 22.9219 12.2812 23.0156 12 23.0156C11.7188 23.0156 11.4844 22.9219 11.2969 22.7344C11.1094 22.5156 11.0156 22.2656 11.0156 21.9844V20.0156ZM6 4.59375L7.03125 5.625C7.25 5.8125 7.34375 6.04688 7.3125 6.32812C7.3125 6.60938 7.21875 6.84375 7.03125 7.03125C6.84375 7.25 6.60938 7.35938 6.32812 7.35938C6.07812 7.35938 5.84375 7.25 5.625 7.03125L4.59375 6C4.375 5.8125 4.26562 5.57812 4.26562 5.29688C4.26562 5.01562 4.375 4.78125 4.59375 4.59375C4.78125 4.375 5.01562 4.26562 5.29688 4.26562C5.57812 4.26562 5.8125 4.375 6 4.59375ZM18.375 16.9688L19.4062 18C19.625 18.1875 19.7344 18.4219 19.7344 18.7031C19.7344 18.9844 19.625 19.2188 19.4062 19.4062C19.2188 19.625 18.9844 19.7344 18.7031 19.7344C18.4219 19.7344 18.1875 19.625 18 19.4062L16.9688 18.375C16.75 18.1875 16.6406 17.9531 16.6406 17.6719C16.6406 17.3906 16.75 17.1562 16.9688 16.9688C17.1562 16.75 17.375 16.6406 17.625 16.6406C17.9062 16.6406 18.1562 16.75 18.375 16.9688ZM19.4062 6L18.375 7.03125C18.1875 7.25 17.9531 7.35938 17.6719 7.35938C17.3906 7.32812 17.1562 7.21875 16.9688 7.03125C16.75 6.84375 16.6406 6.625 16.6406 6.375C16.6406 6.09375 16.75 5.84375 16.9688 5.625L18 4.59375C18.1875 4.375 18.4219 4.26562 18.7031 4.26562C18.9844 4.26562 19.2188 4.375 19.4062 4.59375C19.625 4.78125 19.7344 5.01562 19.7344 5.29688C19.7344 5.57812 19.625 5.8125 19.4062 6ZM7.03125 18.375L6 19.4062C5.8125 19.625 5.57812 19.7344 5.29688 19.7344C5.01562 19.7031 4.78125 19.5938 4.59375 19.4062C4.375 19.2188 4.26562 18.9844 4.26562 18.7031C4.26562 18.4219 4.375 18.1875 4.59375 18L5.625 16.9688C5.8125 16.75 6.04688 16.6406 6.32812 16.6406C6.60938 16.6406 6.84375 16.75 7.03125 16.9688C7.25 17.1562 7.35938 17.3906 7.35938 17.6719C7.35938 17.9219 7.25 18.1562 7.03125 18.375Z" fill="#E19500"/>
</svg>
