<svg width="16" height="22" viewBox="0 0 16 22" fill="none" xmlns="http://www.w3.org/2000/svg">
<path d="M8 15C7.71667 15 7.479 14.904 7.287 14.712C7.095 14.52 6.99934 14.2827 7 14V3.82505L6.1 4.72505C5.91667 4.90838 5.68733 5.00005 5.412 5.00005C5.13667 5.00005 4.89934 4.90005 4.7 4.70005C4.51667 4.50005 4.425 4.26238 4.425 3.98705C4.425 3.71172 4.51667 3.48272 4.7 3.30005L7.3 0.700049C7.38334 0.616716 7.48767 0.550049 7.613 0.500049C7.73834 0.450049 7.86734 0.425049 8 0.425049C8.13334 0.425049 8.26267 0.450049 8.388 0.500049C8.51333 0.550049 8.61734 0.616716 8.7 0.700049L11.3 3.30005C11.5 3.50005 11.6 3.74172 11.6 4.02505C11.6 4.30838 11.5 4.54172 11.3 4.72505C11.1 4.90838 10.8623 5.00005 10.587 5.00005C10.3117 5.00005 10.0827 4.90838 9.9 4.72505L9 3.82505V14C9 14.2834 8.904 14.521 8.712 14.713C8.52 14.905 8.28267 15.0007 8 15ZM2 22C1.45 22 0.979002 21.8041 0.587002 21.4121C0.195002 21.0201 -0.000664969 20.5494 1.69779e-06 20V9.00005C1.69779e-06 8.45005 0.196001 7.97905 0.588001 7.58705C0.980001 7.19505 1.45067 6.99938 2 7.00005H4C4.28334 7.00005 4.521 7.09605 4.713 7.28805C4.905 7.48005 5.00067 7.71738 5 8.00005C5 8.28338 4.904 8.52105 4.712 8.71305C4.52 8.90505 4.28267 9.00072 4 9.00005H2V20H14V9.00005H12C11.7167 9.00005 11.479 8.90405 11.287 8.71205C11.095 8.52005 10.9993 8.28272 11 8.00005C11 7.71672 11.096 7.47905 11.288 7.28705C11.48 7.09505 11.7173 6.99938 12 7.00005H14C14.55 7.00005 15.021 7.19605 15.413 7.58805C15.805 7.98005 16.0007 8.45072 16 9.00005V20C16 20.55 15.804 21.021 15.412 21.413C15.02 21.805 14.5493 22.0007 14 22H2Z" fill="white"/>
</svg>
