<svg width="14" height="20" viewBox="0 0 14 20" fill="none" xmlns="http://www.w3.org/2000/svg">
<path d="M7 0.015625C6.03125 0.015625 5.125 0.203125 4.28125 0.578125C3.4375 0.921875 2.6875 1.42188 2.03125 2.07812C1.40625 2.70312 0.90625 3.4375 0.53125 4.28125C0.1875 5.125 0.015625 6.03125 0.015625 7C0.015625 7.875 0.125 8.71875 0.34375 9.53125C0.59375 10.3438 0.953125 11.1094 1.42188 11.8281C1.89062 12.6094 2.40625 13.3438 2.96875 14.0312C3.5625 14.7188 4.09375 15.4531 4.5625 16.2344C4.8125 16.6094 5.01562 16.9844 5.17188 17.3594C5.35938 17.7031 5.54688 18.0781 5.73438 18.4844C5.82812 18.6719 5.92188 18.8906 6.01562 19.1406C6.10938 19.3594 6.23438 19.5625 6.39062 19.75C6.54688 19.9062 6.75 19.9844 7 19.9844C7.25 19.9844 7.45312 19.9062 7.60938 19.75C7.76562 19.5625 7.89062 19.3594 7.98438 19.1406C8.07812 18.8906 8.17188 18.6719 8.26562 18.4844C8.45312 18.0781 8.625 17.7031 8.78125 17.3594C8.96875 16.9844 9.1875 16.6094 9.4375 16.2344C9.90625 15.4844 10.4219 14.7656 10.9844 14.0781C11.5781 13.3594 12.1094 12.6094 12.5781 11.8281C13.0469 11.1094 13.3906 10.3438 13.6094 9.53125C13.8594 8.71875 13.9844 7.875 13.9844 7C13.9844 6.03125 13.7969 5.125 13.4219 4.28125C13.0781 3.4375 12.5781 2.70312 11.9219 2.07812C11.2969 1.42188 10.5625 0.921875 9.71875 0.578125C8.875 0.203125 7.96875 0.015625 7 0.015625ZM7 9.76562C6.3125 9.76562 5.71875 9.51562 5.21875 9.01562C4.75 8.51562 4.51562 7.92188 4.51562 7.23438C4.51562 6.54688 4.75 5.96875 5.21875 5.5C5.71875 5 6.3125 4.75 7 4.75C7.6875 4.75 8.26562 5 8.73438 5.5C9.23438 5.96875 9.48438 6.54688 9.48438 7.23438C9.48438 7.92188 9.23438 8.51562 8.73438 9.01562C8.26562 9.51562 7.6875 9.76562 7 9.76562Z" fill="#3E3E3E"/>
</svg>
