<svg width="1000" height="1000" viewBox="0 0 1000 1000" fill="none" xmlns="http://www.w3.org/2000/svg">
<g clip-path="url(#clip0_1285_44)">
<rect width="1000" height="1000" fill="white"/>
<rect width="1000" height="1000" fill="#3BA57E"/>
<rect width="1000" height="1000" fill="#FD720F"/>
<rect width="1000" height="1000" fill="url(#paint0_linear_1285_44)" fill-opacity="0.2"/>
<path d="M261.724 370.591C256.279 361.808 255.819 354.09 258.021 346.324C274.525 288.476 301.386 236.869 351.261 200.651C417.349 152.649 489.825 141.326 567.601 166.972C578.201 170.456 588.873 174.69 597.56 184.053C595.648 186.473 593.979 188.578 591.655 191.457C544.298 162.835 493.697 159.279 441.354 171.303C423.786 175.344 405.322 178.271 391.819 193.586C392.448 198.28 393.053 202.997 393.585 207.014C378.727 218.143 364.207 229.055 349.615 239.99C337.298 232.079 332.409 232.418 321.883 243.136C303.564 261.765 290.98 284.072 282.269 308.484C275.178 328.372 268.959 348.598 261.724 370.591Z" fill="white"/>
<path d="M637.921 435.2C637.916 435.278 637.91 435.356 637.904 435.433C637.904 435.437 637.904 435.44 637.904 435.444C637.5 440.921 637.165 445.474 636.736 451.694C634.804 451.291 632.948 450.904 631.101 450.519C625.459 449.342 619.902 448.183 612.522 446.655C612.304 446.609 612.085 446.564 611.864 446.518C611.919 446.48 611.975 446.442 612.03 446.404C612.192 446.293 612.353 446.183 612.514 446.074C621.911 439.688 628.933 436.832 637.921 435.2Z" fill="white"/>
<path fill-rule="evenodd" clip-rule="evenodd" d="M609.337 810.334C603.755 813.692 566.504 796.123 566.504 796.123C566.504 796.123 501.329 765.854 468.428 750.571L467.923 750.337C443.227 738.866 418.39 727.328 393.358 715.703C390.504 714.372 389.295 710.961 390.698 708.155L391.496 706.51C392.85 703.8 396.115 702.663 398.848 703.921C425.905 716.412 452.775 728.809 479.679 741.222L480.681 741.685L480.811 741.744C508.194 754.378 535.616 767.03 563.311 779.816C563.206 774.001 559.469 772.388 556.285 771.013C555.813 770.81 555.353 770.611 554.919 770.405C536.12 761.343 517.214 752.558 498.302 743.77L498.29 743.765L494.6 742.05C474.877 732.873 455.154 723.723 435.453 714.585L434.954 714.353C422.933 708.776 410.92 703.203 398.921 697.631C396.188 696.372 394.93 693.155 396.115 690.397C397.127 688.062 398.166 685.751 399.197 683.457C406.523 667.161 413.482 651.683 407.821 634.122C407.168 632.114 407.555 629.889 409.006 628.364C409.93 627.407 410.848 626.47 411.754 625.544C415.521 621.697 419.093 618.05 422.115 613.993C422.882 612.97 423.673 611.942 424.471 610.905C428.878 605.177 433.468 599.211 435.127 592.655C436.248 588.189 437.441 583.732 438.635 579.271L438.637 579.267L438.637 579.265C443.784 560.047 448.945 540.772 448.356 520.509C448.336 519.742 448.294 518.969 448.253 518.196L448.253 518.193C448.099 515.334 447.946 512.467 448.84 509.84C450.074 506.235 454.693 505.195 457.62 507.638L466.736 515.251L468.255 516.519L477.887 524.562L486.014 531.348C486.884 532.074 487.513 533.017 487.828 534.106C491.431 547.026 498.058 562.63 515.012 571.437C512.807 567.768 510.244 564.292 507.671 560.804C501.864 552.93 496.01 544.992 494.116 534.614C493.681 532.219 494.72 529.751 496.873 528.566C497.083 528.449 497.294 528.333 497.506 528.216C503.945 524.665 510.997 520.776 513.198 509.017C507.66 513.808 503.863 517.074 500.259 520.171C499.461 520.872 498.469 521.332 497.429 521.501C483.474 523.63 474.598 519.324 464.875 504.735C462.844 501.711 464.222 497.525 467.681 496.34L473.582 494.259C475.251 493.679 477.137 493.945 478.613 494.937C482.894 497.888 486.908 500.622 490.948 503.356L493.003 501.711L487.658 494.138C486.231 492.106 486.255 489.324 487.876 487.437C496.462 477.348 507.297 471.493 521.373 471.033C534.506 470.598 544.471 465.735 551.218 452.985C555.003 445.845 561.412 439.965 567.648 434.244C568.744 433.238 569.835 432.237 570.906 431.235C577.391 425.17 584.218 419.471 591.042 413.774L591.047 413.77C593.994 411.31 596.939 408.851 599.856 406.364C599.578 405.844 599.294 405.33 599.01 404.815C598.805 404.445 598.6 404.074 598.397 403.701C598.319 403.557 598.241 403.412 598.163 403.267L598.286 403.232C621.633 396.591 644.98 389.949 668.52 383.259C671.809 382.315 675.195 384.565 675.63 387.953C676.3 393.408 676.928 398.779 677.548 404.082L677.551 404.109L677.551 404.111C679.459 420.436 681.292 436.121 684.047 451.654C685.816 461.637 689.228 471.231 692.598 480.706C696.415 491.439 700.178 502.02 701.436 512.84C701.582 514.316 701.195 515.84 700.227 516.953C694.521 523.591 688.371 522.248 682.605 520.99L682.602 520.989C681.917 520.84 681.237 520.691 680.564 520.558C678.605 520.171 676.574 520.848 675.243 522.324C671.108 526.872 671.47 532.146 673.502 537.711C675.606 543.59 674.711 548.38 668.012 552.324C664.077 551.965 660.009 551.597 655.858 551.221L655.492 551.187L655.389 551.178L655.259 551.166C648.395 550.544 641.309 549.902 634.224 549.251C639.509 555.106 645.998 555.62 652.421 556.129C653.935 556.249 655.445 556.369 656.935 556.558C661.554 557.163 665.714 558.034 667.963 561.421C669.995 564.469 668.084 568.679 664.529 569.598L661.578 570.372C658.845 571.074 657.08 573.735 657.443 576.542C657.647 578.11 657.895 579.679 658.144 581.25C659.598 590.442 661.065 599.72 653.96 609.493C653.041 610.751 651.59 611.501 650.042 611.647C646.361 611.97 642.455 612.319 638.407 612.68L638.38 612.682C631.849 613.265 624.951 613.88 618.044 614.477C614.792 614.745 611.508 614.877 608.224 615.01C601.129 615.296 594.034 615.581 587.255 617.235C570.954 621.155 561.207 632.187 558.45 649.195C554.169 675.566 554.75 701.913 557.531 728.381C560.922 723.845 560.728 718.816 560.525 713.54C560.466 712.006 560.406 710.451 560.433 708.881C560.53 704.381 565.803 701.743 569.334 704.526C586.793 718.347 588.124 738.983 589.561 761.272C589.747 764.147 589.934 767.05 590.158 769.969C600.485 741.155 588.972 710.526 564.134 694.002C562.586 692.961 561.594 691.243 561.594 689.356V682.848C562.295 682.799 562.928 682.717 563.507 682.642C564.647 682.495 565.582 682.374 566.431 682.582C582.007 686.453 592.286 696.3 598.212 711.034C606.241 730.994 610.135 751.703 609.337 773.235C609.331 773.428 609.324 773.621 609.318 773.813L609.317 773.817L609.317 773.823C609.098 780.283 615.49 787.04 616.883 792.977C618.276 798.915 614.919 806.975 609.337 810.334ZM650.55 520.364C648.131 519.88 646.341 517.824 646.099 515.38C645.011 504.106 646.873 502.364 659.958 495.348C658.993 496.868 658.1 498.276 657.255 499.607L657.23 499.647C655.395 502.538 653.788 505.07 652.17 507.614C650.67 509.961 651.154 513.033 653.258 514.848L658.724 519.517C658.603 519.917 658.488 520.316 658.374 520.715C658.259 521.114 658.144 521.513 658.023 521.913L650.55 520.364ZM597.172 788.961C596.325 788.163 595.285 787.631 594.148 787.461C591.924 787.137 589.647 786.803 587.335 786.463L586.978 786.411L586.93 786.404C583.162 785.851 579.307 785.285 575.453 784.727C575.453 783.784 575.476 782.864 575.499 781.921V781.918L575.501 781.848C597.97 779.792 603.024 782.163 607.523 798.857C605.632 797.043 603.963 795.452 602.397 793.959L602.381 793.944C600.569 792.216 598.895 790.62 597.172 788.961ZM646.003 456.033C634.442 457.751 623.461 455.356 612.602 451.993C601.743 448.63 602.53 446.074 602.53 446.074C602.53 446.074 607.917 441.477 612.602 438.837C617.287 436.197 622.092 434.824 627.06 433.054C636.515 429.686 646.335 426.187 656.862 422.428C644.352 416.283 634.801 420.803 625.422 425.242C619.515 428.038 613.676 430.801 607.209 430.848C626.581 412.896 644.793 409.074 663.658 419.332C667.214 421.267 667.842 426.396 664.529 428.695C660.012 431.83 657.99 436.959 655.926 442.196C654.199 446.577 652.443 451.033 649.171 454.461C648.349 455.332 647.188 455.864 646.003 456.033Z" fill="white"/>
<path d="M252.367 348.896C250.697 345.9 250.02 344.571 249.197 343.314C248.447 342.179 247.551 341.164 244.865 337.709C241.283 351.143 240.837 351.85 237.884 363.061C226.029 373.515 216.377 382.049 207.008 390.282C217.189 338.259 236.11 268.831 290.702 205.071C345.293 141.311 432.042 119.995 510.758 125.865C563.44 129.793 611.654 148.129 639.355 167.859C627.16 170.498 614.554 173.185 599.093 176.502C599.093 176.502 562.385 151.548 510.758 148.702C425.459 144 368.289 166.972 317.098 218.549C274.748 261.219 252.367 348.896 252.367 348.896Z" fill="white"/>
<path d="M524.471 188.945C552.944 191.922 573.417 206.032 595.025 214.89C607.797 240.723 587.569 263.899 553.227 289.401C485.196 339.92 416.391 384.294 349.013 429.927C310.666 411.417 292.674 380.115 297.312 339.799C298.348 330.795 300.202 325.919 302.997 317.297C311.957 289.648 332.388 266.31 349.615 248.783C370.133 230.647 380.591 221.802 403.702 209.824C414.859 204.042 421.334 201.077 433.242 197.062C443.005 193.771 448.637 192.291 458.754 190.345C483.962 185.497 495.998 185.968 524.471 188.945Z" fill="white"/>
<path d="M362.748 451.638C378.19 439.547 388.26 432.83 407.654 419.615L407.432 420.812C398.842 467.036 390.518 511.825 374.86 557.043C362.229 552.129 351 547.747 339.215 543.172C356.035 513.435 369.16 487.398 362.748 451.638Z" fill="white"/>
<path d="M492.572 448.769C484.882 437.821 478.763 427.528 471.049 418.639C465.704 412.512 458.763 406.965 451.411 403.55C438.763 397.665 430.299 402.049 427.155 415.709C421.859 438.79 417.724 462.162 412.742 485.341C406.841 512.854 400.65 540.295 394.362 567.737C393.056 573.404 390.831 578.878 388.679 585.538C364.253 581.784 342.585 573.743 319.997 558.727C325.269 554.464 329.066 551.437 333.613 547.779C347.712 552.793 361.908 557.855 377.555 563.425C396.95 512.273 404.35 460.128 415.91 405.657C399.673 417.381 396.773 419.615 386.575 426.341C377.579 432.275 368.921 438.717 359.296 445.523C356.466 441.382 354.386 438.378 351.871 434.673C357.506 430.773 362.367 427.431 367.204 424.113C430.686 380.275 494.192 336.486 557.626 292.575C563.309 288.651 568.509 284.025 573.829 279.593C588.533 267.338 611.826 240.051 601.755 219.9C619.482 220.845 672.941 249.877 694.404 266.919C715.866 283.961 735.357 312.595 735.357 312.595C748.561 320.224 765.171 329.438 778.544 337.164C778.52 338.229 778.496 339.295 778.471 340.385C684.808 351.332 595.087 375.31 510.758 421.037C502.681 398.827 490.057 381.462 470.178 370.563L467.324 373.227C472.838 377.998 478.787 382.382 483.793 387.662C488.848 393.015 493.612 398.876 497.288 405.246C501.181 411.979 503.624 419.559 507.058 427.649C510.129 426.559 513.467 425.808 516.345 424.282C591.241 384.199 671.168 360.173 755.183 349.128L756.259 348.986C766.182 347.675 776.148 346.359 786.113 346.125C790.853 346.004 795.642 348.644 800.406 350.049L800.116 353.972C790.152 355.813 780.14 357.533 770.201 359.494C727.105 367.996 683.72 375.213 641.036 385.458C590.347 397.616 542.463 417.452 498.376 445.79C496.78 446.807 494.99 447.533 492.572 448.769Z" fill="white"/>
<path d="M403.702 631.655C403.72 638.479 405.474 642.408 405.716 647.776C405.958 653.143 403.491 664.01 400.345 671.957C397.692 678.658 394.227 682.89 391.496 690.397C389.616 695.563 388.695 699.395 385.575 703.921C381.553 709.755 373.49 714.946 373.49 714.946C373.49 714.946 365.409 718.568 358.72 718.305C351.947 718.038 351.049 714.946 346.077 712.931C329.579 706.246 316.535 712.499 302.937 698.216C306.13 687.83 305.09 677.492 297.033 669.092L269.788 664.008C269.546 659.505 269.329 655.68 269.111 651.637C277.096 642.244 284.935 632.996 294.275 622.005L305.81 609.921C301.115 597.506 302.422 592.883 312.175 586.252C318.444 581.992 325.808 576.213 332.537 571.59C349.335 580.542 359.809 583.468 379.1 588.767C384.013 589.567 386.823 590.36 391.617 588.767C395.986 585.115 431.31 421.557 431.228 415.083C431.146 408.61 440.865 402.115 451.411 408.366C468.451 418.466 473.292 425.807 491.651 454.325C532.279 429.081 560.17 413.868 593.027 404.815L594.37 407.306C594.37 407.306 578.785 419.448 576.243 421.411C572.145 424.577 567.448 428.645 563.487 432.83C558.67 437.919 553.925 440.35 550.06 445.593C540.963 457.929 535.979 469.161 511.569 467.766C504.155 467.766 498.007 471.306 490.979 476.491C485.242 480.724 483.577 491.658 478.613 489.925C471.608 487.481 460.097 493.284 459.425 497.986C458.754 502.688 447.608 504.419 444.655 509.017C441.702 513.616 444.02 528.065 442.412 540.147C440.323 555.843 439.907 565.134 433.928 579.795C429.214 598.07 428.19 597.606 421.157 608.817C415.618 617.646 403.685 625.425 403.702 631.655Z" fill="white"/>
<path d="M737.284 531.622C730.884 529.419 724.862 525.611 719.736 520.525C711.972 512.824 711.937 512.693 711.981 491.348C712.001 481.503 712.391 469.122 712.847 463.835C713.164 460.161 713.806 451.844 714.564 442.012C714.565 441.993 714.567 441.973 714.568 441.954L714.568 441.95L714.569 441.948C715.122 434.775 715.737 426.799 716.333 419.233C717.418 405.463 718.442 393.048 718.92 389.293L719.679 383.329H726.739V495.657H735.287V383.329H745.15V495.657H749.5L753.774 495.742V383.356H763.814V495.742H772.515V383.356H779.703L780.475 389.325C781.228 395.146 783.317 421.772 784.905 442.011L784.905 442.013L784.906 442.026L784.906 442.029C784.907 442.034 784.907 442.039 784.907 442.043C784.955 442.654 785.003 443.26 785.05 443.858C785.76 452.907 786.353 460.45 786.656 463.901C786.916 466.857 787.154 472.031 787.318 477.739C787.447 482.245 787.529 487.085 787.538 491.43C787.583 512.789 787.547 512.92 779.644 520.626C774.426 525.714 768.297 529.525 761.782 531.729L757.79 533.079L757.794 536.8C757.796 538.845 760.064 571.235 760.064 571.235L765.72 614.944L765.789 614.954C766.391 615.041 766.994 615.135 767.597 615.236L767.649 615.245C769.615 615.574 771.59 615.976 773.578 616.459C773.45 618.962 773.345 621.093 773.242 623.193L773.213 623.779C773.187 624.32 773.16 624.86 773.133 625.407C773.118 625.718 773.102 626.032 773.087 626.348C773.077 626.538 773.068 626.729 773.058 626.921C773.034 627.422 773.008 627.932 772.982 628.456C771.104 628.83 769.24 629.17 767.383 629.473C766.785 629.57 766.188 629.663 765.592 629.752L765.461 629.772C765.214 629.809 764.967 629.845 764.719 629.88C754.026 631.41 743.505 631.604 732.163 629.682C731.894 629.636 731.625 629.59 731.355 629.542C731.227 629.519 731.099 629.496 730.971 629.473C728.599 629.042 726.19 628.518 723.735 627.894C724.22 626.124 724.638 624.59 725.017 623.193C725.089 622.928 725.159 622.668 725.228 622.413C725.242 622.361 725.256 622.309 725.27 622.258C725.355 621.945 725.438 621.637 725.52 621.335C725.601 621.034 725.681 620.738 725.76 620.446L725.986 619.612L725.986 619.611L726 619.561L726.002 619.552C726.003 619.547 726.005 619.542 726.006 619.537C726.012 619.515 726.018 619.493 726.024 619.472C726.402 618.071 726.766 616.725 727.158 615.285L727.763 615.234L727.775 615.233C727.807 615.23 727.838 615.228 727.869 615.225C728.292 615.189 728.715 615.154 729.137 615.118C729.485 615.089 729.833 615.06 730.181 615.031C731.368 614.932 732.551 614.834 733.73 614.741L733.827 614.734L739.455 571.235C739.455 571.235 741.2 538.734 741.202 536.69L741.205 532.972L737.284 531.622Z" fill="white"/>
<path d="M765.434 637.57C765.243 640.309 765.091 642.607 764.939 644.898L764.929 645.052C764.924 645.126 764.919 645.199 764.915 645.273C764.843 646.352 764.771 647.435 764.695 648.566L764.683 648.748H732.811C732.797 648.488 732.783 648.229 732.769 647.971C732.758 647.755 732.746 647.539 732.734 647.323C732.69 646.51 732.645 645.704 732.6 644.898C732.498 643.071 732.394 641.243 732.285 639.327L732.163 637.185H765.461L765.434 637.57Z" fill="white"/>
<path d="M810.723 668.146C813.289 671.106 813.704 677.205 812.849 681.415C808.053 705.376 803.076 729.337 797.165 753.069C792.312 772.411 780.763 785.9 764.895 795.258C763.969 795.804 763.028 796.336 762.074 796.854C757.89 799.125 753.433 801.132 748.742 802.905C747.753 803.276 746.664 803.378 745.459 803.491L745.457 803.491L745.456 803.491C744.924 803.54 744.369 803.592 743.791 803.67C742.071 803.67 740.624 803.479 738.944 803.091C737.475 802.753 735.829 802.264 733.668 801.623L732.711 801.34C732.207 801.054 731.696 800.785 731.183 800.524C731.071 800.467 730.959 800.411 730.847 800.355C730.745 800.303 730.642 800.252 730.539 800.202C730.106 799.988 729.673 799.779 729.241 799.571L729.237 799.569L728.893 799.403C725.588 797.808 722.378 796.181 720.184 792.751C719.238 791.273 718.481 789.461 717.986 787.172C717.822 786.414 717.687 785.604 717.583 784.736C720.306 785.011 722.973 785.279 725.599 785.542C726.172 785.6 726.743 785.657 727.313 785.714C727.475 785.73 727.637 785.746 727.799 785.762C727.99 785.781 728.18 785.8 728.37 785.819C728.793 785.862 729.215 785.904 729.636 785.946C731.087 786.09 732.529 786.233 733.964 786.375C737.446 786.72 740.888 787.057 744.335 787.39C741.328 784.725 738.139 783.017 734.844 781.894C733.021 781.273 731.166 780.831 729.292 780.505C728.648 780.393 728.002 780.294 727.354 780.207C726.271 780.062 725.183 779.948 724.093 779.853C722.34 779.7 720.581 779.597 718.828 779.495L718.825 779.495L718.823 779.494L718.127 779.454C715.048 779.272 711.987 779.071 709.002 778.582C707.271 778.298 705.565 777.917 703.896 777.387C697.986 769.589 698.837 763.124 703.867 757.103C704.611 756.213 705.446 755.332 706.364 754.458C706.672 754.165 706.99 753.872 707.318 753.579C713.19 752.816 719.159 752.696 725.14 752.599L725.768 752.589C726.353 752.579 726.938 752.57 727.523 752.56C731.933 752.484 736.345 752.375 740.723 751.983C745.294 751.574 749.829 750.857 754.289 749.547C750.161 748.068 745.947 747.398 741.673 747.147C737.102 746.88 732.461 747.092 727.782 747.306L727.78 747.306C727.584 747.315 727.388 747.324 727.192 747.333C726.371 747.37 725.549 747.407 724.727 747.441C718.649 747.689 712.517 747.767 706.396 746.637C705.69 746.506 704.985 746.36 704.279 746.195C700.249 745.258 696.226 743.744 692.231 741.356C693.165 738.102 694.052 734.996 694.908 731.996L694.91 731.988L694.912 731.982L694.914 731.975L694.934 731.904L694.941 731.88C694.945 731.866 694.949 731.852 694.953 731.838C695.48 729.994 695.995 728.19 696.503 726.415C696.643 725.924 696.783 725.435 696.923 724.948C701.053 724.682 705.004 724.422 708.828 724.17L708.84 724.169C711.78 723.975 714.645 723.787 717.459 723.604L717.46 723.604C719.255 723.487 721.029 723.373 722.788 723.261C723.748 723.2 724.704 723.14 725.656 723.081C728.927 722.877 732.158 722.682 735.392 722.499C739.136 722.293 742.883 722.102 746.632 721.917C751.23 721.69 755.831 721.474 760.433 721.259L763.49 721.115C765.56 721.018 767.629 720.92 769.699 720.821L770.362 720.789C770.353 720.408 770.347 720.03 770.341 719.653C770.33 718.893 770.318 718.137 770.284 717.37L770.193 717.354C769.53 717.242 768.865 717.101 768.198 716.96L768.195 716.959L768.194 716.959C766.572 716.615 764.941 716.27 763.31 716.323C758.073 716.515 752.836 716.755 747.597 717.003C746.661 717.047 745.725 717.091 744.788 717.136L744.528 717.148L744.477 717.151L744.475 717.151L744.474 717.151L744.472 717.151L744.466 717.151L744.455 717.152C741.343 717.3 738.23 717.448 735.117 717.587L735.107 717.588C731.85 717.734 728.593 717.871 725.334 717.989C724.347 718.025 723.36 718.059 722.373 718.091C720.69 718.146 719.007 718.195 717.324 718.237C715.104 718.292 712.86 718.472 710.614 718.653C705.85 719.035 701.078 719.418 696.505 718.609C695.119 718.363 693.751 718.008 692.408 717.511C690.561 716.827 688.76 715.873 687.02 714.563C684.783 701.388 687.422 694.342 696.43 691.814C697.666 691.468 699.021 691.206 700.5 691.026C701.855 690.86 703.315 690.762 704.881 690.729C709.974 690.618 715.067 690.545 720.16 690.494C721.304 690.483 722.448 690.472 723.591 690.463C730.336 690.408 737.08 690.388 743.825 690.367C743.829 690.367 743.833 690.367 743.837 690.367H743.85C743.878 690.367 743.905 690.367 743.933 690.367C746.901 690.358 749.87 690.349 752.838 690.337C759.12 690.311 765.402 690.272 771.684 690.193C773.821 690.176 775.946 689.58 778.067 688.986L778.068 688.985C778.913 688.748 779.757 688.512 780.601 688.312C780.615 688.309 780.629 688.305 780.643 688.302C780.647 688.301 780.651 688.3 780.655 688.299C780.679 688.294 780.703 688.288 780.727 688.282C780.734 688.281 780.742 688.279 780.749 688.277C780.751 688.277 780.754 688.276 780.756 688.276C780.76 688.275 780.764 688.274 780.768 688.273C780.771 688.272 780.774 688.272 780.776 688.271C780.795 688.267 780.814 688.262 780.832 688.258L780.836 688.257L780.838 688.257C780.869 688.25 780.9 688.243 780.93 688.236C780.941 688.234 780.953 688.231 780.964 688.229L780.964 688.227C780.947 688.09 780.931 687.953 780.915 687.816C780.802 686.856 780.692 685.896 780.601 684.937H723.241H700.5C699.988 684.43 699.51 683.93 699.063 683.435C690.843 674.327 693.485 667.064 701.304 658.424C706.628 657.588 712.001 656.844 717.415 656.253C718.741 656.108 720.069 655.973 721.4 655.847C722.722 655.723 724.047 655.608 725.374 655.504C727.846 655.31 730.325 655.154 732.811 655.041C741.684 654.637 750.639 654.782 759.639 655.732C761.319 655.909 763 656.114 764.683 656.349C764.812 656.367 764.941 656.386 765.07 656.404C765.201 656.423 765.332 656.441 765.463 656.46C766.862 656.663 768.262 656.887 769.663 657.132C773.233 657.758 776.808 658.524 780.385 659.446C782.586 660.014 784.789 660.64 786.991 661.33C787.033 661.343 787.075 661.356 787.117 661.37C787.179 661.389 787.241 661.409 787.303 661.428C787.308 661.43 787.314 661.432 787.319 661.433L787.323 661.435C787.336 661.439 787.349 661.443 787.361 661.447C787.367 661.449 787.373 661.45 787.379 661.452C787.398 661.458 787.418 661.464 787.437 661.471C787.495 661.489 787.554 661.508 787.612 661.526C787.703 661.555 787.794 661.584 787.885 661.614C788.118 660.516 788.352 659.419 788.585 658.347C783.472 655.67 778.384 652.992 772.417 649.847L771.891 649.569L771.916 649.225C772.086 646.933 772.261 644.657 772.439 642.358L772.558 640.817L772.559 640.801L772.56 640.794L772.661 639.492C772.679 639.263 772.696 639.034 772.714 638.805C772.718 638.75 772.723 638.695 772.727 638.64C772.73 638.602 772.733 638.563 772.736 638.525C772.757 638.247 772.779 637.968 772.8 637.689C772.814 637.508 772.828 637.327 772.842 637.145C772.863 636.874 772.884 636.603 772.905 636.331L772.956 635.662C772.981 635.331 773.006 635 773.031 634.667C773.171 634.68 773.309 634.692 773.444 634.703C773.662 634.72 773.874 634.734 774.081 634.745C774.142 634.748 774.203 634.751 774.263 634.754C774.929 634.786 775.538 634.792 776.086 634.797H776.087C777.299 634.808 778.214 634.817 778.801 635.096C778.814 635.102 778.827 635.108 778.839 635.115C778.847 635.118 778.854 635.122 778.861 635.126C778.865 635.128 778.868 635.13 778.872 635.132C778.88 635.136 778.887 635.14 778.895 635.144C779.001 635.204 779.094 635.274 779.175 635.356C779.675 635.858 780.176 636.359 780.677 636.86C782.037 638.221 783.4 639.579 784.763 640.938L784.782 640.957C793.665 649.812 802.566 658.683 810.723 668.146Z" fill="white"/>
<path fill-rule="evenodd" clip-rule="evenodd" d="M780.992 624.206L780.989 624.269C780.983 624.388 780.977 624.506 780.971 624.625C780.978 624.485 780.985 624.345 780.992 624.206ZM784.906 442.029C784.907 442.034 784.907 442.039 784.907 442.043L784.906 442.029Z" fill="#D9D9D9"/>
<path d="M263.526 662.382H233.284L233.283 662.377H233.256L233.224 661.892C233.158 660.907 233.096 659.957 233.033 659.01L233.021 658.821C232.88 656.68 232.74 654.54 232.565 652.013L232.518 651.328H264.113L264.113 651.333H264.141L264.026 653.373C263.85 656.483 263.688 659.35 263.526 662.382Z" fill="white"/>
<path d="M279.438 535.333C280.541 528.038 279.844 516.448 279.844 516.448C279.844 516.448 279.577 500.515 278.603 492.098C275.71 467.089 273.252 448.553 265.48 421.684C261.288 407.193 260.107 404.014 252.816 385.192C250.978 380.444 249.783 378.103 248.816 377.944C247.74 377.723 246.946 380.183 245.869 385.021C245.749 385.559 245.625 386.126 245.498 386.723C245.469 386.857 245.431 387.059 245.385 387.327C244.262 393.801 238.207 438.751 238.207 498.507C238.207 566.648 237.21 585.128 236.253 602.884C235.994 607.683 235.738 612.428 235.505 618.087L234.884 629.734L234.753 629.749C232.228 630.042 229.69 630.447 227.131 630.992C226.361 631.155 225.59 631.332 224.816 631.521C224.948 634.121 225.054 636.302 225.161 638.481L225.161 638.484L225.161 638.493L225.162 638.505C225.205 639.396 225.248 640.287 225.294 641.206L225.351 642.377L225.382 642.986C226.315 643.173 227.245 643.351 228.173 643.52C228.279 643.54 228.385 643.559 228.492 643.578C242.789 646.154 256.478 646.46 272.138 642.454C271.255 639.208 270.607 636.794 270.003 634.54L270.001 634.536C269.63 633.15 269.274 631.825 268.89 630.404L268.863 630.402L268.862 630.399L268.284 630.35L268.254 630.348C265.715 630.132 263.198 629.918 260.695 629.73L260.538 629.719L259.714 618.648C259.524 614.696 259.343 611.053 259.175 607.69C257.899 582.04 257.434 572.675 259.998 566.533C260.763 564.701 262.77 563.006 265.046 561.085C267.107 559.345 269.388 557.42 271.166 555.038C271.396 554.73 271.619 554.432 271.835 554.143C274.255 550.917 275.849 548.791 277.37 544.775C278.506 541.778 278.797 539.755 279.204 536.932L279.205 536.926C279.277 536.423 279.353 535.896 279.438 535.333Z" fill="white"/>
<path d="M210.604 671.555C215.597 668.922 220.566 666.288 226.445 663.167C226.24 660.373 226.027 657.605 225.81 654.791L225.81 654.783L225.809 654.777L225.809 654.767L225.754 654.055C225.624 652.369 225.493 650.665 225.362 648.926L225.335 648.929C224.242 649.033 223.281 649.042 222.463 649.05C221.028 649.064 220.033 649.074 219.533 649.584C217.768 651.368 215.995 653.148 214.222 654.928L214.214 654.936L214.212 654.937C208.215 660.958 202.209 666.987 196.455 673.221L196.28 673.411C194.008 675.877 191.775 678.376 189.598 680.919C188.851 681.787 188.296 682.937 187.909 684.23L187.907 684.142C187.008 687.079 186.985 690.779 187.553 693.595C190.899 710.429 194.337 727.263 198.153 744.011C199.052 747.958 199.972 751.901 200.917 755.837C201.416 757.916 201.921 759.993 202.435 762.068C203.386 765.886 204.608 769.465 206.081 772.82C211.344 784.804 219.811 793.929 230.578 800.855C231.303 801.322 232.04 801.779 232.786 802.226C233.909 802.898 235.054 803.549 236.222 804.178C239.697 806.049 243.368 807.73 247.209 809.24C247.598 809.393 247.989 809.544 248.382 809.694C248.775 809.842 249.184 809.946 249.611 810.024C249.837 810.066 250.068 810.1 250.304 810.131C250.598 810.168 250.9 810.199 251.211 810.229C251.314 810.239 251.418 810.249 251.523 810.258L251.525 810.259C252.031 810.306 252.558 810.356 253.108 810.43C255.391 810.43 257.169 810.072 259.751 809.344C262.388 804.003 265.211 798.642 268.172 793.32L266.809 793.457C264.996 793.639 263.199 793.819 261.412 793.997C258.458 794.29 255.531 794.579 252.601 794.864C258.35 789.738 264.802 788.321 271.351 787.71C276.342 779.061 281.655 770.568 287.078 762.479C283.888 762.087 280.669 761.889 277.436 761.774C275.175 761.694 272.907 761.654 270.637 761.617L270.182 761.609L270.164 761.609C263.754 761.505 257.332 761.399 251.015 760.435C250.379 760.338 249.745 760.233 249.112 760.118L249.028 760.102C247.055 759.74 245.093 759.284 243.146 758.708C245.294 757.933 247.465 757.39 249.657 757.019C250.052 756.952 250.447 756.891 250.843 756.834C256.551 756.025 262.393 756.294 268.299 756.566C270.985 756.69 273.684 756.814 276.39 756.838C281.622 756.884 286.88 756.554 292.119 755.119C294.778 751.32 297.447 747.635 300.103 744.092L299.487 741.921L299.479 741.892C298.83 739.604 298.2 737.381 297.58 735.201L297.553 735.199L297.552 735.196C293.633 734.941 289.883 734.692 286.254 734.452L286.244 734.451L286.242 734.451L286.066 734.439C283.339 734.258 280.68 734.082 278.066 733.911C272.244 733.53 266.649 733.175 261.05 732.855C260.307 732.814 259.564 732.773 258.821 732.733C257.787 732.678 256.754 732.623 255.72 732.569C249.582 732.25 243.437 731.96 237.291 731.67L237.276 731.669L237.267 731.669L234.407 731.534L234.39 731.533C232.498 731.443 230.605 731.353 228.713 731.262L228.492 731.251L227.896 731.222C227.904 730.86 227.909 730.5 227.915 730.14C227.926 729.414 227.937 728.692 227.97 727.958C228.628 727.848 229.288 727.708 229.95 727.566L229.953 727.566C231.492 727.237 233.039 726.907 234.586 726.959C240.543 727.178 246.499 727.464 252.457 727.749C261.04 728.16 269.627 728.572 278.222 728.787C280.328 728.84 282.456 729.012 284.587 729.184L284.588 729.184C292.362 729.813 300.161 730.443 306.976 725.276C309.266 711.691 306.17 704.925 295.906 703.045C295.345 702.942 294.762 702.853 294.157 702.778C292.871 702.62 291.487 702.527 290 702.495C277.675 702.225 265.35 702.187 253.025 702.149C248.898 702.136 244.771 702.124 240.645 702.102L240.529 702.102C235.891 702.077 231.252 702.042 226.614 701.983C225.817 701.977 225.022 701.885 224.229 701.741C223.012 701.519 221.798 701.176 220.585 700.834C219.668 700.575 218.752 700.317 217.836 700.111C217.959 699.062 218.082 698.013 218.18 696.965H294.185C303.606 687.577 301.244 680.334 293.423 671.629C293.416 671.628 293.41 671.626 293.403 671.625L293.395 671.624C285.967 670.449 278.439 669.465 270.837 668.856C268.398 668.66 265.951 668.503 263.498 668.391C253.508 667.933 243.407 668.214 233.256 669.641C232.332 669.771 231.409 669.911 230.484 670.06C230.155 670.113 229.826 670.167 229.497 670.223C225.88 670.834 222.258 671.596 218.632 672.529C217.012 672.946 215.392 673.397 213.772 673.883C213.207 674.052 212.643 674.226 212.078 674.404C211.807 674.49 211.536 674.576 211.265 674.664C211.045 673.619 210.824 672.575 210.604 671.555Z" fill="white"/>
<path d="M290.963 785.314C297.678 776.389 295.194 769.292 287.716 762.561L287.69 762.558L287.688 762.556C287.485 762.53 287.281 762.504 287.078 762.479C281.655 770.568 276.342 779.061 271.351 787.71C273.164 787.541 274.984 787.434 276.799 787.327C281.639 787.043 286.441 786.76 290.963 785.314Z" fill="white"/>
<path fill-rule="evenodd" clip-rule="evenodd" d="M721.4 655.847L723.241 684.937L780.727 688.282L780.655 688.299L780.643 688.302L780.601 688.312C779.757 688.512 778.913 688.748 778.068 688.985L778.067 688.986C775.946 689.58 773.821 690.176 771.684 690.193C765.402 690.272 759.12 690.311 752.838 690.337C749.87 690.349 746.901 690.358 743.933 690.367L743.85 690.367H743.837H743.825C737.08 690.388 730.336 690.408 723.591 690.463L725.334 717.989C728.593 717.871 731.85 717.734 735.107 717.588L735.117 717.587C738.23 717.448 741.343 717.3 744.455 717.152L744.466 717.151L744.472 717.151L744.474 717.151L744.475 717.151L744.477 717.151L744.528 717.148L744.788 717.136C745.725 717.091 746.661 717.047 747.597 717.003C752.836 716.755 758.073 716.515 763.31 716.323C764.941 716.27 766.572 716.615 768.194 716.959L768.195 716.959L768.198 716.96C768.865 717.101 769.53 717.242 770.193 717.354L770.284 717.37C770.318 718.137 770.33 718.893 770.341 719.653C770.347 720.03 770.353 720.408 770.362 720.789L769.699 720.821C767.629 720.92 765.56 721.018 763.49 721.115L760.433 721.259C755.831 721.474 751.23 721.69 746.632 721.917C742.883 722.102 739.136 722.293 735.392 722.499C732.158 722.682 728.927 722.877 725.656 723.081L727.192 747.333L727.78 747.306L727.782 747.306C732.461 747.092 737.102 746.88 741.673 747.147C745.947 747.398 750.161 748.068 754.289 749.547C749.829 750.857 745.294 751.574 740.723 751.983C736.345 752.375 731.933 752.484 727.523 752.56L729.292 780.505C731.166 780.831 733.021 781.273 734.844 781.894C738.139 783.017 741.328 784.725 744.335 787.39C740.888 787.057 737.446 786.72 733.964 786.375C732.529 786.233 731.087 786.09 729.636 785.946L729.758 787.869C729.298 787.18 728.835 786.497 728.37 785.819L727.799 785.762L727.313 785.714L725.599 785.542C722.973 785.279 720.306 785.011 717.583 784.736C717.687 785.604 717.822 786.414 717.986 787.172C718.481 789.461 719.238 791.273 720.184 792.751C722.378 796.181 725.588 797.808 728.893 799.403L729.237 799.569L729.241 799.571C729.673 799.779 730.106 799.988 730.539 800.202C730.642 800.252 730.745 800.303 730.847 800.355C730.959 800.411 731.071 800.467 731.183 800.524C731.696 800.785 732.207 801.054 732.711 801.34L733.668 801.623C735.829 802.264 737.475 802.753 738.944 803.091C740.624 803.479 742.071 803.67 743.791 803.67C744.369 803.592 744.924 803.54 745.456 803.491L745.457 803.491L745.459 803.491C746.664 803.378 747.753 803.276 748.742 802.905C753.433 801.132 757.89 799.125 762.074 796.854C763.028 796.336 763.969 795.804 764.895 795.258C780.763 785.9 792.312 772.411 797.165 753.069C803.076 729.337 808.053 705.376 812.849 681.415C813.704 677.205 813.289 671.106 810.723 668.146C802.566 658.683 793.665 649.812 784.782 640.957L784.763 640.938C783.4 639.579 782.037 638.221 780.677 636.86C780.176 636.359 779.675 635.858 779.175 635.356C779.094 635.274 779.001 635.204 778.895 635.144L778.872 635.132L778.861 635.126L778.839 635.115C778.827 635.108 778.814 635.102 778.801 635.096C778.214 634.817 777.299 634.808 776.087 634.797H776.086C775.538 634.792 774.929 634.786 774.263 634.754C774.203 634.751 774.142 634.748 774.081 634.745C773.874 634.734 773.662 634.72 773.444 634.703C773.309 634.692 773.171 634.68 773.031 634.667L772.956 635.662L772.905 636.331L772.842 637.145L772.8 637.689L772.736 638.525L772.727 638.64L772.714 638.805L772.661 639.492L772.56 640.794L772.559 640.801L772.558 640.817L772.439 642.358C772.261 644.657 772.086 646.933 771.916 649.225L771.891 649.569L772.417 649.847C778.384 652.992 783.472 655.67 788.585 658.347C788.352 659.419 788.118 660.516 787.885 661.614C787.794 661.584 787.703 661.555 787.612 661.526L787.379 661.452L787.361 661.447L787.323 661.435L787.319 661.433L787.303 661.428L787.117 661.37L786.991 661.33C784.789 660.64 782.586 660.014 780.385 659.446C776.808 658.524 773.233 657.758 769.663 657.132C768.262 656.887 766.862 656.663 765.463 656.46C765.332 656.441 765.201 656.423 765.07 656.404C764.941 656.386 764.812 656.367 764.683 656.349C763 656.114 761.319 655.909 759.639 655.732C750.639 654.782 741.684 654.637 732.811 655.041C730.325 655.154 727.846 655.31 725.374 655.504C724.047 655.608 722.722 655.723 721.4 655.847ZM723.241 684.937L780.768 688.273L780.776 688.271L780.832 688.258L780.836 688.257L780.838 688.257L780.93 688.236L780.964 688.229L780.964 688.227L780.915 687.816C780.802 686.856 780.692 685.896 780.601 684.937H723.241ZM703.867 757.103C711.14 764.023 717.87 771.531 724.093 779.853C722.34 779.7 720.581 779.597 718.828 779.495L718.825 779.495L718.823 779.494L718.127 779.454C715.048 779.272 711.987 779.071 709.002 778.582C707.271 778.298 705.565 777.917 703.896 777.387C697.986 769.589 698.837 763.124 703.867 757.103ZM719.736 520.525C724.862 525.611 730.884 529.419 737.284 531.622L741.205 532.972L741.202 536.69C741.2 538.734 739.455 571.235 739.455 571.235L733.827 614.734L733.73 614.741C732.551 614.834 731.368 614.932 730.181 615.031C729.833 615.06 729.485 615.089 729.137 615.118L727.869 615.225L727.775 615.233L773.133 625.407L773.213 623.779L773.242 623.193C773.345 621.093 773.45 618.962 773.578 616.459C771.59 615.976 769.615 615.574 767.649 615.245L767.597 615.236C766.994 615.135 766.391 615.041 765.789 614.954L765.72 614.944L760.064 571.235C760.064 571.235 757.796 538.845 757.794 536.8L757.79 533.079L761.782 531.729C768.297 529.525 774.426 525.714 779.644 520.626C787.547 512.92 787.583 512.789 787.538 491.43C787.529 487.085 787.447 482.245 787.318 477.739C787.154 472.031 786.916 466.857 786.656 463.901C786.353 460.45 785.76 452.907 785.05 443.858L784.907 442.043L784.906 442.029L784.906 442.026L784.905 442.013L784.905 442.011C783.317 421.772 781.228 395.146 780.475 389.325L779.703 383.356H772.515V495.742H763.814V383.356H753.774V495.742L749.5 495.657H745.15V383.329H735.287V495.657H726.739V383.329H719.679L718.92 389.293C718.442 393.048 717.418 405.463 716.333 419.233C715.737 426.799 715.122 434.775 714.569 441.948L714.568 441.95L714.568 441.954L714.564 442.012C713.806 451.844 713.164 460.161 712.847 463.835C712.391 469.122 712.001 481.503 711.981 491.348C711.937 512.693 711.972 512.824 719.736 520.525ZM764.939 644.898C765.091 642.607 765.243 640.309 765.434 637.57L765.461 637.185H732.163L732.285 639.327C732.394 641.243 732.498 643.071 732.6 644.898C732.645 645.704 732.69 646.51 732.734 647.323L732.769 647.971L732.811 648.748H764.683L764.695 648.566C764.771 647.435 764.843 646.352 764.915 645.273L764.929 645.052L764.939 644.898ZM300.103 744.092C297.447 747.635 294.778 751.32 292.119 755.119C295.434 754.211 298.743 752.86 302.032 750.88C301.365 748.543 300.725 746.286 300.103 744.092ZM268.172 793.32C265.211 798.642 262.388 804.003 259.751 809.344C260.629 809.097 261.599 808.807 262.713 808.474L262.766 808.459L263.161 808.341L263.621 808.203C264.702 807.587 265.814 807.047 266.918 806.511L266.931 806.505L266.94 806.5C267.205 806.372 267.469 806.244 267.732 806.115C269.25 805.37 270.736 804.597 272.09 803.602C274.976 801.483 277.261 798.354 277.976 792.337L277.947 792.34L277.948 792.331C275.261 792.604 272.633 792.871 270.045 793.132L268.984 793.239L268.172 793.32Z" fill="white"/>
<path d="M611.664 817.282C605.242 821.21 571.753 804.51 571.753 804.51C571.753 804.51 497.699 770.115 460.315 752.75L454.466 750.033C441.36 743.945 431.441 739.122 421.493 734.285L421.492 734.285L421.49 734.284L421.489 734.283L421.487 734.283C411.459 729.407 401.4 724.516 388.017 718.301C362.549 727.867 354.344 723.38 346.41 719.042C340.94 716.052 335.6 713.132 324.821 714.934C321.578 718.183 318.151 721.898 314.606 725.999C314.577 726.183 314.546 726.366 314.515 726.55L314.009 729.555L311.582 731.395C310.505 732.212 309.413 732.92 308.315 733.533C307.517 734.519 306.716 735.522 305.913 736.539L305.944 736.65L306.418 738.32L306.424 738.342L306.44 738.399L306.848 739.837L306.853 739.856C307.661 742.706 308.495 745.65 309.384 748.767L310.997 754.427L305.958 757.46C305.054 758.004 304.149 758.508 303.244 758.974L303.236 758.979C303.165 759.015 303.094 759.051 303.023 759.088L302.964 759.117C301.562 759.828 300.161 760.449 298.764 760.991C298.272 761.182 297.78 761.363 297.289 761.535C297.807 762.188 298.301 762.862 298.764 763.559C300.369 765.977 301.596 768.667 302.171 771.659C303.084 776.418 302.186 781.019 299.951 785.368C299.295 786.646 298.523 787.902 297.648 789.133L297.616 789.179L297.613 789.183C297.435 789.434 297.252 789.683 297.066 789.931L295.597 791.883L293.271 792.627C290.966 793.364 288.665 793.842 286.444 794.171C286.319 794.189 286.194 794.207 286.069 794.225C285.974 794.238 285.88 794.251 285.786 794.264L285.755 794.268L285.666 794.28L285.567 794.293L285.425 794.312C285.374 794.65 285.319 794.983 285.259 795.31C285.187 795.708 285.108 796.097 285.023 796.48C284.543 798.634 283.863 800.553 283.003 802.265C281.566 805.127 279.628 807.414 277.288 809.269C276.749 809.696 276.204 810.088 275.663 810.449C274.271 811.377 272.904 812.099 271.734 812.685L271.61 812.747C271.007 813.047 270.485 813.301 270.012 813.53L270.006 813.533L270.004 813.534C269.018 814.012 268.244 814.388 267.394 814.873L266.628 815.31L265.783 815.562C265.396 815.677 265.019 815.79 264.648 815.902L264.618 815.911L264.616 815.911L264.561 815.928L264.533 815.936C263.967 816.106 263.418 816.271 262.88 816.429C260.386 817.161 258.14 817.742 255.644 817.985C249.392 830.31 358.775 777.12 472.498 845.883C586.221 914.646 754.795 862.02 743.229 811.378C739.09 811.297 735.84 810.327 731.704 809.094L731.09 808.911L730.869 808.845L730.481 808.73L729.621 808.475L728.841 808.034C727.937 807.522 727.109 807.123 726.065 806.62L726.063 806.619C725.87 806.526 725.67 806.429 725.46 806.328C725.127 806.167 724.771 805.993 724.384 805.802C722.654 804.945 720.508 803.813 718.452 802.195C714.05 798.73 711.013 793.805 709.961 786.513C707.237 786.171 704.378 785.64 701.516 784.731L699.153 783.98L697.664 782.015C693.226 776.158 691.064 769.803 692.346 763.172C693.145 759.04 695.165 755.458 697.729 752.35C694.57 751.285 691.384 749.859 688.205 747.96L683.11 744.915L684.31 740.734C657.886 721.145 625.531 705.676 586.07 686.808L584.338 685.98C594.067 690.632 597.342 695.645 601.858 702.558L601.859 702.56L601.862 702.564C602.876 704.116 603.953 705.765 605.18 707.527C613.92 728.401 617.954 739.848 617.954 770.821L617.932 771.478L617.932 771.483L617.932 771.489C617.786 775.794 618.044 779.334 620.404 783.615C622.069 786.634 623.575 790.406 623.766 795.062C624.171 804.938 618.086 813.354 611.664 817.282Z" fill="white"/>
<path fill-rule="evenodd" clip-rule="evenodd" d="M802.911 805.841C865.742 738.239 905.374 650.831 898.433 544.833C898.433 428.794 859.416 323.518 765.238 247.499C692.949 189.148 590.562 162.375 489.852 165.172C431.816 165.172 370.018 180.401 319.204 200.607C249.474 228.334 196.327 267.148 156.949 324.629C114.437 386.686 100.999 455.544 101 537.239C101.002 641.679 131.643 732.828 198.912 797.407C272.713 873.568 389.532 935 509.614 935C628.384 935 731.763 882.393 802.911 805.841ZM245.924 285.166C178.048 347.886 154.437 440.912 154.437 525.994C154.437 582.48 162.857 631.734 198.912 684.575C252.997 763.837 387.277 826.019 489.442 826.019C572.23 826.019 666.11 802.032 731.615 746.64C805.448 684.206 845.974 585.148 845.974 497.74C845.974 409.877 809.947 335.508 738.342 279.785C660.308 216.551 582.508 195.024 500.205 195.024C453.937 195.024 395.047 205.451 346.829 223.278C306.185 238.305 275.07 258.235 245.924 285.166Z" fill="#F86F0E"/>
<path d="M190.369 97.5408C184.921 86.8344 161.69 70.4822 161.69 70.4822C161.69 70.4822 202.408 38.7551 260.455 59.8424C299.012 73.8493 316.51 150.864 316.51 150.864C316.51 150.864 296.342 130.077 283.207 133.082C270.072 136.087 268.7 134.729 259.437 134.037C248.111 133.191 241.618 131.927 231.032 127.835C212.545 120.688 190.369 97.5408 190.369 97.5408Z" fill="#9BAB49"/>
<path d="M208.251 95.9965C160.025 94.3705 137.632 150.104 137.632 150.104C137.632 150.104 151.845 151.914 162.247 156.381C187.122 167.063 191.901 167.842 218.323 162.903C237.629 159.293 282.489 144.993 298.614 144.535C306.043 144.324 316.512 150.864 316.512 150.864C316.512 150.864 270.795 98.1051 208.251 95.9965Z" fill="#C1BF0A"/>
<path d="M261.658 370.72C256.216 361.935 255.757 354.215 257.958 346.447C274.45 288.584 301.293 236.965 351.135 200.737C417.178 152.724 489.606 141.398 567.33 167.05C577.922 170.535 588.587 174.77 597.269 184.136C595.358 186.556 593.69 188.661 591.368 191.541C544.042 162.912 493.476 159.355 441.168 171.382C423.611 175.424 405.159 178.352 391.665 193.671C392.294 198.365 392.899 203.084 393.431 207.102C378.582 218.234 364.072 229.148 349.49 240.087C337.181 232.173 332.296 232.512 321.776 243.233C303.47 261.867 290.895 284.18 282.189 308.598C275.103 328.49 268.888 348.722 261.658 370.72Z" fill="white"/>
<path d="M637.603 435.346C637.597 435.424 637.592 435.501 637.586 435.578C637.586 435.582 637.585 435.586 637.585 435.589C637.182 441.068 636.847 445.622 636.418 451.843C634.488 451.44 632.633 451.053 630.787 450.668C625.149 449.491 619.596 448.332 612.221 446.803C612.003 446.758 611.784 446.712 611.563 446.667C611.619 446.628 611.674 446.59 611.729 446.552C611.891 446.441 612.052 446.331 612.212 446.222C621.603 439.834 628.621 436.978 637.603 435.346Z" fill="white"/>
<path fill-rule="evenodd" clip-rule="evenodd" d="M609.038 810.573C603.46 813.933 566.233 796.359 566.233 796.359C566.233 796.359 501.102 766.082 468.223 750.796L467.719 750.561C443.04 739.087 418.219 727.547 393.204 715.919C390.352 714.588 389.143 711.176 390.545 708.369L391.343 706.723C392.696 704.013 395.959 702.875 398.69 704.134C425.729 716.628 452.58 729.028 479.466 741.444L480.468 741.907L480.598 741.967C507.962 754.604 535.366 767.259 563.043 780.048C562.938 774.231 559.203 772.618 556.021 771.243C555.549 771.039 555.09 770.841 554.656 770.634C535.87 761.57 516.977 752.783 498.077 743.993L498.065 743.988L494.377 742.272C474.668 733.093 454.958 723.941 435.271 714.8L434.772 714.568C422.759 708.99 410.754 703.416 398.763 697.842C396.031 696.583 394.775 693.365 395.959 690.606C396.97 688.271 398.008 685.96 399.039 683.665C406.36 667.364 413.314 651.882 407.657 634.318C407.005 632.309 407.391 630.083 408.841 628.558C409.765 627.601 410.682 626.663 411.588 625.738C415.352 621.889 418.922 618.241 421.941 614.184C422.708 613.16 423.499 612.132 424.295 611.095C428.7 605.365 433.287 599.397 434.945 592.84C436.064 588.373 437.257 583.914 438.451 579.453L438.452 579.448L438.452 579.447C443.596 560.224 448.754 540.944 448.165 520.676C448.145 519.909 448.103 519.136 448.062 518.362L448.062 518.359C447.908 515.499 447.755 512.632 448.649 510.004C449.881 506.398 454.498 505.358 457.422 507.802L466.533 515.416L468.051 516.685L477.676 524.73L485.797 531.518C486.667 532.244 487.296 533.187 487.61 534.276C491.211 547.199 497.834 562.808 514.776 571.616C512.573 567.946 510.011 564.47 507.44 560.981C501.637 553.105 495.787 545.165 493.894 534.785C493.459 532.389 494.498 529.92 496.649 528.735C496.859 528.618 497.07 528.502 497.282 528.385C503.716 524.833 510.764 520.943 512.964 509.181C507.429 513.973 503.634 517.24 500.033 520.337C499.235 521.039 498.244 521.499 497.205 521.668C483.259 523.798 474.389 519.49 464.673 504.898C462.643 501.873 464.02 497.686 467.477 496.501L473.374 494.419C475.042 493.839 476.927 494.105 478.401 495.097C482.679 498.049 486.691 500.784 490.728 503.519L492.782 501.873L487.441 494.298C486.015 492.266 486.039 489.483 487.658 487.595C496.238 477.504 507.066 471.648 521.133 471.188C534.257 470.752 544.215 465.888 550.958 453.135C554.74 445.993 561.145 440.112 567.376 434.389C568.472 433.383 569.562 432.382 570.632 431.379C577.113 425.313 583.936 419.612 590.755 413.914L590.76 413.91C593.705 411.45 596.648 408.99 599.563 406.502C599.285 405.982 599.001 405.467 598.717 404.953C598.513 404.582 598.308 404.211 598.105 403.838C598.027 403.694 597.949 403.549 597.871 403.404L597.994 403.37C621.325 396.726 644.657 390.083 668.181 383.391C671.468 382.448 674.852 384.698 675.287 388.086C675.956 393.543 676.583 398.915 677.203 404.22L677.206 404.247L677.206 404.248C679.112 420.577 680.944 436.266 683.698 451.804C685.465 461.789 688.875 471.385 692.243 480.863C696.057 491.599 699.817 502.182 701.075 513.005C701.22 514.481 700.834 516.006 699.867 517.119C694.165 523.758 688.018 522.415 682.256 521.157L682.254 521.156C681.569 521.007 680.89 520.858 680.217 520.725C678.259 520.337 676.229 521.015 674.9 522.491C670.767 527.041 671.129 532.316 673.16 537.882C675.262 543.763 674.368 548.554 667.673 552.499C663.741 552.14 659.676 551.771 655.528 551.395L655.161 551.362L655.059 551.353L654.929 551.341C648.069 550.719 640.989 550.077 633.908 549.425C639.19 555.281 645.674 555.796 652.093 556.305C653.606 556.425 655.115 556.544 656.603 556.734C661.22 557.339 665.377 558.21 667.625 561.598C669.655 564.647 667.746 568.858 664.193 569.777L661.244 570.552C658.513 571.253 656.749 573.915 657.111 576.723C657.316 578.291 657.564 579.86 657.812 581.432C659.265 590.626 660.731 599.907 653.631 609.682C652.712 610.941 651.262 611.691 649.715 611.836C646.037 612.16 642.134 612.509 638.089 612.87L638.061 612.872C631.535 613.455 624.641 614.071 617.739 614.668C614.489 614.936 611.207 615.068 607.926 615.2C600.836 615.486 593.745 615.772 586.971 617.426C570.681 621.347 560.94 632.382 558.185 649.394C553.907 675.772 554.487 702.125 557.267 728.6C560.655 724.063 560.462 719.032 560.259 713.756C560.2 712.221 560.14 710.665 560.167 709.095C560.264 704.594 565.533 701.956 569.061 704.739C586.509 718.564 587.839 739.205 589.275 761.499C589.461 764.375 589.648 767.279 589.871 770.199C600.192 741.377 588.687 710.74 563.865 694.212C562.318 693.171 561.327 691.453 561.327 689.566V683.056C562.028 683.007 562.66 682.925 563.239 682.85C564.378 682.702 565.312 682.581 566.161 682.79C581.726 686.662 591.998 696.511 597.92 711.249C605.944 731.213 609.835 751.928 609.038 773.466C609.031 773.658 609.025 773.851 609.018 774.044L609.018 774.048L609.018 774.054C608.799 780.515 615.187 787.274 616.579 793.213C617.97 799.151 614.616 807.214 609.038 810.573ZM650.223 520.531C647.806 520.047 646.017 517.99 645.776 515.546C644.688 504.269 646.549 502.526 659.625 495.508C658.66 497.029 657.768 498.437 656.923 499.769L656.898 499.808C655.065 502.7 653.459 505.233 651.842 507.778C650.344 510.125 650.827 513.198 652.93 515.013L658.392 519.684C658.271 520.083 658.156 520.483 658.042 520.882C657.927 521.281 657.812 521.68 657.691 522.08L650.223 520.531ZM596.88 789.196C596.035 788.397 594.995 787.865 593.859 787.695C591.637 787.371 589.361 787.036 587.051 786.697L586.694 786.645L586.646 786.638C582.88 786.084 579.028 785.518 575.176 784.961C575.176 784.017 575.199 783.096 575.223 782.154V782.15L575.224 782.081C597.678 780.024 602.73 782.396 607.225 799.093C605.335 797.279 603.667 795.688 602.103 794.195L602.086 794.179C600.276 792.452 598.602 790.855 596.88 789.196ZM645.679 456.184C634.126 457.902 623.153 455.506 612.301 452.143C601.449 448.779 602.236 446.222 602.236 446.222C602.236 446.222 607.619 441.624 612.301 438.983C616.982 436.343 621.784 434.969 626.749 433.199C636.197 429.83 646.011 426.33 656.531 422.571C644.029 416.423 634.485 420.945 625.112 425.385C619.209 428.181 613.374 430.945 606.911 430.992C626.271 413.036 644.47 409.212 663.323 419.473C666.876 421.409 667.504 426.539 664.193 428.838C659.679 431.974 657.658 437.105 655.596 442.343C653.87 446.725 652.115 451.183 648.845 454.611C648.023 455.482 646.863 456.015 645.679 456.184Z" fill="white"/>
<path d="M252.308 349.019C250.639 346.023 249.962 344.693 249.139 343.437C248.39 342.301 247.495 341.286 244.81 337.83C241.231 351.267 240.785 351.975 237.834 363.188C225.987 373.645 216.341 382.181 206.979 390.416C217.152 338.38 236.062 268.934 290.616 205.158C345.171 141.382 431.862 120.061 510.525 125.932C563.171 129.862 611.353 148.202 639.035 167.937C626.849 170.577 614.251 173.265 598.801 176.582C598.801 176.582 562.117 151.622 510.525 148.776C425.283 144.072 368.151 167.05 316.995 218.64C274.673 261.321 252.308 349.019 252.308 349.019Z" fill="white"/>
<path d="M524.229 189.028C552.683 192.006 573.142 206.12 594.736 214.98C607.499 240.819 587.284 264.001 552.966 289.51C484.98 340.042 416.221 384.427 348.888 430.071C310.568 411.557 292.588 380.247 297.222 339.921C298.257 330.914 300.11 326.037 302.903 317.413C311.858 289.757 332.274 266.413 349.49 248.882C369.995 230.741 380.446 221.893 403.54 209.913C414.691 204.129 421.161 201.163 433.061 197.148C442.817 193.855 448.445 192.375 458.556 190.429C483.747 185.579 495.775 186.051 524.229 189.028Z" fill="white"/>
<path d="M362.614 451.787C378.046 439.694 388.109 432.975 407.491 419.756L407.268 420.954C398.684 467.19 390.366 511.99 374.718 557.219C362.096 552.303 350.874 547.921 339.097 543.344C355.905 513.6 369.022 487.556 362.614 451.787Z" fill="white"/>
<path d="M492.351 448.917C484.666 437.967 478.552 427.671 470.842 418.78C465.501 412.651 458.565 407.103 451.218 403.688C438.579 397.801 430.12 402.186 426.978 415.849C421.686 438.936 417.553 462.314 412.574 485.499C406.678 513.019 400.491 540.467 394.207 567.915C392.902 573.584 390.679 579.059 388.528 585.721C364.119 581.966 342.465 573.923 319.892 558.903C325.161 554.639 328.955 551.611 333.498 547.953C347.588 552.968 361.774 558.031 377.411 563.603C396.793 512.438 404.188 460.279 415.74 405.795C399.515 417.522 396.616 419.756 386.425 426.484C377.435 432.42 368.783 438.864 359.164 445.671C356.337 441.529 354.258 438.525 351.745 434.818C357.376 430.918 362.234 427.574 367.067 424.255C430.507 380.407 493.97 336.606 557.362 292.685C563.041 288.76 568.237 284.133 573.554 279.7C588.248 267.441 611.525 240.147 601.461 219.991C619.176 220.936 672.599 249.976 694.047 267.022C715.496 284.069 734.973 312.71 734.973 312.71C748.169 320.341 764.767 329.556 778.131 337.284C778.107 338.35 778.083 339.416 778.059 340.506C684.458 351.457 594.797 375.44 510.525 421.179C502.453 398.964 489.838 381.594 469.972 370.692L467.12 373.357C472.631 378.129 478.576 382.514 483.578 387.796C488.629 393.149 493.39 399.012 497.064 405.383C500.955 412.118 503.396 419.701 506.827 427.792C509.897 426.702 513.232 425.951 516.108 424.425C590.954 384.331 670.828 360.299 754.786 349.252L755.862 349.11C765.777 347.799 775.736 346.482 785.696 346.248C790.432 346.127 795.218 348.768 799.979 350.173L799.689 354.097C789.732 355.938 779.726 357.658 769.794 359.621C726.727 368.124 683.371 375.343 640.715 385.591C590.06 397.752 542.209 417.593 498.151 445.938C496.556 446.955 494.768 447.682 492.351 448.917Z" fill="white"/>
<path d="M403.54 631.85C403.559 638.675 405.311 642.606 405.553 647.974C405.795 653.343 403.329 664.213 400.186 672.162C397.535 678.865 394.072 683.098 391.343 690.606C389.464 695.774 388.544 699.607 385.426 704.134C381.406 709.969 373.349 715.162 373.349 715.162C373.349 715.162 365.274 718.785 358.589 718.521C351.821 718.254 350.923 715.161 345.955 713.146C329.468 706.46 316.432 712.714 302.843 698.427C306.035 688.039 304.995 677.699 296.943 669.296L269.717 664.211C269.475 659.706 269.258 655.88 269.04 651.836C277.019 642.441 284.853 633.191 294.187 622.197L305.714 610.111C301.022 597.692 302.328 593.068 312.075 586.435C318.34 582.175 325.699 576.394 332.423 571.77C349.21 580.724 359.677 583.651 378.955 588.951C383.865 589.752 386.673 590.544 391.464 588.951C395.83 585.298 431.13 421.699 431.048 415.224C430.966 408.748 440.679 402.252 451.218 408.505C468.247 418.608 473.084 425.95 491.431 454.475C532.032 429.225 559.904 414.008 592.739 404.953L594.081 407.444C594.081 407.444 578.506 419.589 575.966 421.553C571.871 424.72 567.177 428.789 563.219 432.975C558.405 438.065 553.663 440.497 549.8 445.741C540.71 458.08 535.729 469.314 511.336 467.919C503.927 467.919 497.783 471.46 490.76 476.647C485.026 480.881 483.363 491.817 478.401 490.084C471.401 487.639 459.897 493.444 459.227 498.147C458.556 502.85 447.417 504.582 444.466 509.181C441.516 513.781 443.832 528.234 442.225 540.319C440.137 556.019 439.721 565.312 433.747 579.977C429.035 598.256 428.012 597.792 420.984 609.006C415.449 617.837 403.524 625.618 403.54 631.85Z" fill="white"/>
</g>
<defs>
<linearGradient id="paint0_linear_1285_44" x1="0" y1="0" x2="1000" y2="1000" gradientUnits="userSpaceOnUse">
<stop stop-color="white"/>
<stop offset="1" stop-color="white" stop-opacity="0"/>
</linearGradient>
<clipPath id="clip0_1285_44">
<rect width="1000" height="1000" fill="white"/>
</clipPath>
</defs>
</svg>
