<svg width="256" height="256" viewBox="0 0 256 256" fill="none" xmlns="http://www.w3.org/2000/svg">
<g clip-path="url(#clip0_1308_413)">
<rect width="256" height="256" fill="white"/>
<rect width="256" height="256" fill="#3BA57E"/>
<rect width="256" height="256" fill="#FD720F"/>
<rect width="256" height="256" fill="url(#paint0_linear_1308_413)" fill-opacity="0.2"/>
<path d="M67.0014 94.8714C65.6075 92.6231 65.4898 90.6472 66.0535 88.6591C70.2785 73.8499 77.155 60.6387 89.9229 51.3667C106.841 39.0784 125.395 36.1797 145.306 42.7451C148.02 43.637 150.752 44.7209 152.976 47.1178C152.486 47.7372 152.059 48.2761 151.464 49.0131C139.34 41.6859 126.387 40.7755 112.987 43.8537C108.489 44.8881 103.762 45.6375 100.306 49.5582C100.467 50.7597 100.622 51.9675 100.758 52.9957C96.9542 55.8448 93.2372 58.6381 89.5016 61.4377C86.3483 59.4124 85.0969 59.4991 82.4021 62.2429C77.7125 67.012 74.4911 72.7226 72.2609 78.9721C70.4458 84.0633 68.8537 89.2413 67.0014 94.8714Z" fill="white"/>
<path d="M163.308 111.411C163.307 111.431 163.305 111.451 163.304 111.471C163.304 111.472 163.304 111.473 163.303 111.474C163.2 112.876 163.114 114.041 163.005 115.634C162.51 115.531 162.035 115.432 161.562 115.333C160.118 115.032 158.695 114.735 156.806 114.344C156.75 114.332 156.694 114.321 156.637 114.309C156.652 114.299 156.666 114.289 156.68 114.28C156.721 114.251 156.763 114.223 156.804 114.195C159.209 112.56 161.007 111.829 163.308 111.411Z" fill="white"/>
<path fill-rule="evenodd" clip-rule="evenodd" d="M155.99 207.446C154.561 208.305 145.025 203.808 145.025 203.808C145.025 203.808 128.34 196.059 119.918 192.146L119.789 192.086C113.466 189.15 107.108 186.196 100.7 183.22C99.9692 182.879 99.6596 182.006 100.019 181.288L100.223 180.867C100.57 180.173 101.406 179.882 102.105 180.204C109.032 183.402 115.91 186.575 122.798 189.753L123.055 189.871L123.088 189.887C130.098 193.121 137.118 196.36 144.208 199.633C144.181 198.144 143.224 197.731 142.409 197.38C142.288 197.327 142.17 197.277 142.059 197.224C137.247 194.904 132.407 192.655 127.565 190.405L127.562 190.404L126.618 189.965C121.569 187.616 116.519 185.273 111.476 182.934L111.348 182.874C108.271 181.447 105.196 180.02 102.124 178.594C101.424 178.272 101.102 177.448 101.406 176.742C101.665 176.144 101.931 175.553 102.195 174.965C104.07 170.793 105.851 166.831 104.402 162.335C104.235 161.821 104.334 161.252 104.706 160.861C104.942 160.616 105.177 160.376 105.409 160.14C106.374 159.155 107.288 158.221 108.062 157.182C108.258 156.921 108.46 156.657 108.665 156.392C109.793 154.925 110.968 153.398 111.393 151.72C111.68 150.576 111.985 149.435 112.291 148.294L112.291 148.292L112.291 148.292C113.609 143.372 114.93 138.438 114.779 133.251C114.774 133.054 114.764 132.856 114.753 132.658L114.753 132.657C114.714 131.926 114.674 131.192 114.903 130.519C115.219 129.596 116.402 129.33 117.151 129.956L119.485 131.904L119.873 132.229L122.339 134.288L124.42 136.025C124.643 136.211 124.803 136.453 124.884 136.731C125.807 140.039 127.503 144.034 131.843 146.288C131.279 145.349 130.623 144.459 129.964 143.566C128.477 141.55 126.979 139.518 126.494 136.861C126.382 136.248 126.649 135.616 127.2 135.313C127.253 135.283 127.308 135.253 127.362 135.224C129.01 134.314 130.815 133.319 131.379 130.309C129.961 131.535 128.989 132.371 128.066 133.164C127.862 133.343 127.608 133.461 127.342 133.504C123.77 134.05 121.497 132.947 119.008 129.212C118.488 128.438 118.841 127.367 119.726 127.063L121.237 126.531C121.664 126.382 122.147 126.45 122.525 126.704C123.621 127.46 124.649 128.159 125.683 128.859L126.209 128.438L124.841 126.5C124.475 125.979 124.482 125.267 124.896 124.784C127.094 122.201 129.868 120.702 133.472 120.585C136.834 120.473 139.385 119.228 141.112 115.964C142.081 114.137 143.722 112.631 145.318 111.167C145.599 110.909 145.878 110.653 146.152 110.396C147.812 108.844 149.56 107.385 151.307 105.926L151.308 105.925C152.063 105.296 152.817 104.666 153.563 104.029C153.492 103.896 153.419 103.765 153.347 103.633C153.294 103.538 153.242 103.443 153.19 103.348C153.17 103.311 153.15 103.274 153.13 103.237L153.161 103.228C159.138 101.527 165.115 99.8271 171.141 98.1145C171.983 97.8729 172.85 98.4489 172.961 99.316C173.133 100.713 173.294 102.088 173.452 103.445L173.453 103.452L173.453 103.452C173.942 107.632 174.411 111.647 175.116 115.624C175.569 118.179 176.442 120.635 177.305 123.061C178.282 125.809 179.246 128.517 179.568 131.287C179.605 131.665 179.506 132.055 179.258 132.34C177.798 134.039 176.223 133.696 174.747 133.374L174.746 133.373C174.571 133.335 174.397 133.297 174.225 133.263C173.723 133.164 173.203 133.337 172.862 133.715C171.804 134.879 171.897 136.23 172.417 137.654C172.955 139.159 172.726 140.386 171.011 141.395C170.004 141.303 168.963 141.209 167.9 141.113L167.806 141.104L167.78 141.102L167.746 141.099C165.989 140.94 164.175 140.775 162.362 140.608C163.714 142.107 165.376 142.239 167.02 142.369C167.408 142.4 167.794 142.431 168.175 142.479C169.358 142.634 170.423 142.857 170.999 143.724C171.519 144.504 171.03 145.582 170.12 145.817L169.364 146.015C168.665 146.195 168.213 146.876 168.305 147.595C168.358 147.996 168.421 148.398 168.485 148.8C168.857 151.153 169.233 153.529 167.414 156.03C167.179 156.353 166.807 156.545 166.411 156.582C165.469 156.665 164.469 156.754 163.432 156.846L163.425 156.847C161.753 156.996 159.988 157.153 158.219 157.306C157.387 157.375 156.546 157.409 155.706 157.443C153.889 157.516 152.073 157.589 150.338 158.012C146.164 159.016 143.669 161.84 142.963 166.194C141.867 172.945 142.016 179.69 142.728 186.466C143.596 185.304 143.547 184.017 143.495 182.666C143.479 182.274 143.464 181.875 143.471 181.474C143.496 180.322 144.846 179.646 145.75 180.359C150.219 183.897 150.56 189.18 150.928 194.886C150.975 195.622 151.023 196.365 151.08 197.112C153.724 189.736 150.777 181.895 144.418 177.665C144.022 177.398 143.768 176.958 143.768 176.475V174.809C143.948 174.797 144.11 174.776 144.258 174.757C144.55 174.719 144.789 174.688 145.007 174.741C148.994 175.732 151.625 178.253 153.142 182.025C155.198 187.134 156.195 192.436 155.99 197.948C155.989 197.998 155.987 198.047 155.985 198.096L155.985 198.097L155.985 198.099C155.929 199.753 157.566 201.482 157.922 203.002C158.279 204.522 157.419 206.586 155.99 207.446ZM166.541 133.213C165.922 133.09 165.463 132.563 165.402 131.937C165.123 129.051 165.6 128.605 168.949 126.809C168.702 127.198 168.474 127.559 168.257 127.9L168.251 127.91C167.781 128.65 167.37 129.298 166.956 129.949C166.572 130.55 166.696 131.337 167.234 131.801L168.634 132.997C168.603 133.099 168.573 133.201 168.544 133.303C168.514 133.405 168.485 133.508 168.454 133.61L166.541 133.213ZM152.876 201.974C152.659 201.77 152.393 201.634 152.102 201.59C151.533 201.507 150.95 201.422 150.358 201.335L150.267 201.321L150.254 201.32C149.29 201.178 148.303 201.033 147.316 200.89C147.316 200.649 147.322 200.413 147.328 200.172V200.171L147.328 200.153C153.08 199.627 154.374 200.234 155.526 204.507C155.042 204.043 154.615 203.636 154.214 203.254L154.21 203.25C153.746 202.808 153.317 202.399 152.876 201.974ZM165.377 116.745C162.417 117.184 159.606 116.571 156.826 115.71C154.046 114.849 154.248 114.195 154.248 114.195C154.248 114.195 155.627 113.018 156.826 112.342C158.026 111.667 159.256 111.315 160.528 110.862C162.948 110 165.462 109.104 168.157 108.142C164.954 106.569 162.509 107.726 160.108 108.862C158.596 109.578 157.101 110.285 155.446 110.297C160.405 105.702 165.067 104.723 169.897 107.349C170.807 107.845 170.968 109.158 170.12 109.746C168.963 110.549 168.446 111.862 167.917 113.202C167.475 114.324 167.026 115.465 166.188 116.342C165.977 116.565 165.68 116.701 165.377 116.745Z" fill="white"/>
<path d="M64.6062 89.3174C64.1787 88.5505 64.0052 88.2103 63.7946 87.8886C63.6025 87.5979 63.3733 87.3382 62.6856 86.4537C61.7686 89.8926 61.6543 90.0739 60.8985 92.9438C57.8636 95.6201 55.3925 97.8048 52.9941 99.9122C55.6004 86.5945 60.4444 68.8208 74.4197 52.4983C88.3951 36.1757 110.603 30.7189 130.754 32.2215C144.241 33.2271 156.583 37.9211 163.675 42.9721C160.553 43.6477 157.326 44.3356 153.368 45.1847C153.368 45.1847 143.971 38.7964 130.754 38.0679C108.918 36.8642 94.282 42.7451 81.1772 55.9488C70.3355 66.8723 64.6062 89.3174 64.6062 89.3174Z" fill="white"/>
<path d="M134.265 48.37C141.554 49.1321 146.795 52.7443 152.327 55.012C155.596 61.6252 150.418 67.5583 141.626 74.0868C124.21 87.0198 106.596 98.3795 89.3474 110.061C79.5307 105.323 74.9248 97.3096 76.112 86.9888C76.3771 84.6836 76.8519 83.4355 77.5673 81.2282C79.8612 74.15 85.0914 68.1756 89.5016 63.6887C94.7543 59.0459 97.4316 56.7814 103.348 53.7152C106.204 52.2349 107.862 51.4758 110.91 50.4481C113.409 49.6054 114.851 49.2266 117.441 48.7285C123.894 47.4873 126.976 47.6079 134.265 48.37Z" fill="white"/>
<path d="M92.8637 115.619C96.8167 112.524 99.3948 110.805 104.36 107.422L104.303 107.728C102.104 119.561 99.9728 131.027 95.9642 142.603C92.7309 141.345 89.8561 140.223 86.8392 139.052C91.145 131.439 94.505 124.774 92.8637 115.619Z" fill="white"/>
<path d="M126.099 114.885C124.13 112.082 122.564 109.447 120.589 107.172C119.22 105.603 117.444 104.183 115.561 103.309C112.324 101.802 110.157 102.925 109.352 106.422C107.996 112.33 106.937 118.314 105.662 124.247C104.151 131.291 102.567 138.316 100.957 145.341C100.623 146.792 100.053 148.193 99.502 149.898C93.249 148.937 87.7019 146.878 81.9194 143.034C83.2691 141.943 84.2411 141.168 85.405 140.232C89.0144 141.515 92.6485 142.811 96.6541 144.237C101.619 131.142 103.514 117.793 106.473 103.848C102.317 106.85 101.574 107.422 98.9634 109.143C96.6603 110.663 94.4439 112.312 91.9799 114.054C91.2555 112.994 90.7231 112.225 90.0792 111.276C91.5217 110.278 92.7661 109.422 94.0043 108.573C110.256 97.3506 126.513 86.1405 142.752 74.8994C144.207 73.8949 145.538 72.7107 146.9 71.576C150.665 68.4387 156.627 61.4533 154.049 56.2946C158.587 56.5364 172.273 63.9688 177.767 68.3315C183.262 72.6942 188.252 80.0245 188.252 80.0245C191.632 81.9776 195.884 84.3362 199.307 86.3141C199.301 86.5869 199.295 86.8597 199.289 87.1387C175.311 89.9412 152.342 96.0795 130.754 107.786C128.686 102.1 125.455 97.6544 120.366 94.8642L119.635 95.5463C121.047 96.7677 122.57 97.89 123.851 99.2416C125.145 100.612 126.365 102.112 127.306 103.743C128.303 105.467 128.928 107.407 129.807 109.478C130.593 109.199 131.448 109.007 132.184 108.616C151.358 98.355 171.819 92.2043 193.327 89.377L193.603 89.3406C196.143 89.005 198.694 88.668 201.245 88.6082C202.459 88.5772 203.684 89.253 204.904 89.6126L204.83 90.6171C202.279 91.0883 199.716 91.5285 197.172 92.0307C186.139 94.207 175.032 96.0547 164.105 98.6774C151.129 101.79 138.871 106.868 127.584 114.122C127.176 114.383 126.718 114.569 126.099 114.885Z" fill="white"/>
<path d="M103.348 161.704C103.352 163.451 103.801 164.457 103.863 165.831C103.925 167.205 103.294 169.987 102.488 172.021C101.809 173.737 100.922 174.82 100.223 176.742C99.7419 178.064 99.506 179.045 98.7073 180.204C97.6776 181.697 95.6136 183.026 95.6136 183.026C95.6136 183.026 93.5449 183.954 91.8325 183.886C90.0986 183.818 89.8688 183.026 88.5959 182.51C84.3724 180.799 81.033 182.4 77.5519 178.743C78.3695 176.085 78.1032 173.438 76.0405 171.288L69.066 169.986C69.004 168.833 68.9483 167.854 68.8925 166.819C70.9366 164.414 72.9435 162.047 75.3344 159.233L78.2875 156.14C77.0855 152.962 77.4201 151.778 79.917 150.081C81.5218 148.99 83.4071 147.511 85.1295 146.327C89.4299 148.619 92.1113 149.368 97.0497 150.725C98.3076 150.929 99.0269 151.132 100.254 150.725C101.373 149.79 110.415 107.919 110.394 106.261C110.373 104.604 112.862 102.942 115.561 104.542C119.924 107.128 121.163 109.007 125.863 116.307C136.264 109.845 143.404 105.95 151.815 103.633L152.159 104.27C152.159 104.27 148.169 107.379 147.518 107.881C146.469 108.692 145.267 109.733 144.253 110.805C143.02 112.107 141.805 112.73 140.815 114.072C138.487 117.23 137.211 120.105 130.962 119.748C129.064 119.748 127.49 120.654 125.691 121.982C124.222 123.066 123.796 125.864 122.525 125.421C120.732 124.795 117.785 126.281 117.613 127.484C117.441 128.688 114.588 129.131 113.832 130.309C113.076 131.486 113.669 135.185 113.258 138.278C112.723 142.296 112.616 144.674 111.086 148.428C109.879 153.106 109.617 152.987 107.816 155.857C106.398 158.118 103.344 160.109 103.348 161.704Z" fill="white"/>
<path d="M188.745 136.096C187.106 135.532 185.565 134.557 184.253 133.255C182.265 131.283 182.256 131.25 182.267 125.785C182.272 123.265 182.372 120.095 182.489 118.742C182.57 117.801 182.734 115.672 182.928 113.155C182.929 113.15 182.929 113.145 182.93 113.14L182.93 113.139L182.93 113.139C183.071 111.303 183.229 109.261 183.381 107.324C183.659 103.799 183.921 100.621 184.044 99.6594L184.238 98.1324H186.045V126.888H188.234V98.1324H190.759V126.888H191.872L192.966 126.91V98.1395H195.537V126.91H197.764V98.1395H199.604L199.802 99.6673C199.995 101.158 200.529 107.974 200.936 113.155L200.936 113.156L200.936 113.159L200.936 113.16C200.936 113.161 200.936 113.162 200.936 113.163C200.949 113.32 200.961 113.475 200.973 113.628C201.155 115.944 201.307 117.876 201.384 118.759C201.451 119.516 201.512 120.84 201.554 122.302C201.587 123.455 201.608 124.694 201.61 125.806C201.621 131.274 201.612 131.308 199.589 133.28C198.253 134.583 196.684 135.559 195.016 136.123L193.995 136.469L193.995 137.421C193.996 137.945 194.577 146.236 194.577 146.236L196.024 157.426L196.042 157.428C196.196 157.451 196.351 157.475 196.505 157.501L196.518 157.503C197.022 157.587 197.527 157.69 198.036 157.814C198.003 158.454 197.976 159 197.95 159.538L197.943 159.688C197.936 159.826 197.929 159.964 197.922 160.104C197.918 160.184 197.914 160.264 197.91 160.345C197.908 160.394 197.906 160.443 197.903 160.492C197.897 160.62 197.89 160.751 197.884 160.885C197.403 160.981 196.926 161.068 196.45 161.145C196.297 161.17 196.144 161.194 195.992 161.217L195.958 161.222C195.895 161.231 195.832 161.241 195.768 161.25C193.031 161.641 190.337 161.691 187.434 161.199C187.365 161.187 187.296 161.175 187.227 161.163C187.194 161.157 187.162 161.151 187.129 161.145C186.522 161.035 185.905 160.901 185.276 160.741C185.4 160.288 185.507 159.895 185.604 159.538C185.623 159.47 185.641 159.403 185.659 159.338C185.662 159.325 185.666 159.311 185.669 159.298C185.691 159.218 185.712 159.139 185.733 159.062C185.754 158.985 185.775 158.909 185.795 158.834L185.853 158.621L185.853 158.621L185.856 158.608L185.857 158.605C185.857 158.604 185.857 158.603 185.858 158.602C185.859 158.596 185.861 158.591 185.862 158.585C185.959 158.226 186.052 157.882 186.153 157.513L186.308 157.5L186.311 157.5C186.319 157.499 186.327 157.499 186.335 157.498C186.443 157.489 186.551 157.48 186.659 157.471C186.748 157.463 186.838 157.456 186.927 157.448C187.23 157.423 187.533 157.398 187.835 157.374L187.86 157.372L189.301 146.236C189.301 146.236 189.747 137.916 189.748 137.393L189.749 136.441L188.745 136.096Z" fill="white"/>
<path d="M195.951 163.218C195.902 163.919 195.863 164.508 195.825 165.094L195.822 165.134C195.821 165.152 195.82 165.171 195.818 165.19C195.8 165.466 195.782 165.744 195.762 166.033L195.759 166.08H187.6C187.596 166.013 187.593 165.947 187.589 165.881C187.586 165.825 187.583 165.77 187.58 165.715C187.569 165.507 187.557 165.3 187.546 165.094C187.52 164.626 187.493 164.158 187.465 163.668L187.434 163.12H195.958L195.951 163.218Z" fill="white"/>
<path d="M207.545 171.046C208.202 171.803 208.308 173.365 208.089 174.443C206.862 180.577 205.588 186.711 204.075 192.786C202.832 197.737 199.876 201.191 195.813 203.586C195.576 203.726 195.335 203.862 195.091 203.995C194.02 204.576 192.879 205.09 191.678 205.544C191.425 205.639 191.146 205.665 190.838 205.694L190.837 205.694L190.837 205.694C190.701 205.707 190.559 205.72 190.411 205.74C189.97 205.74 189.6 205.691 189.17 205.592C188.794 205.505 188.372 205.38 187.819 205.216L187.574 205.143C187.445 205.07 187.314 205.001 187.183 204.934C187.154 204.92 187.126 204.905 187.097 204.891C187.071 204.878 187.044 204.865 187.018 204.852C186.907 204.797 186.797 204.744 186.686 204.691L186.685 204.69L186.597 204.648C185.751 204.239 184.929 203.823 184.367 202.944C184.125 202.566 183.931 202.102 183.805 201.516C183.763 201.322 183.728 201.115 183.701 200.893C184.399 200.963 185.081 201.032 185.754 201.099C185.9 201.114 186.046 201.128 186.192 201.143C186.234 201.147 186.275 201.151 186.317 201.155C186.366 201.16 186.414 201.165 186.463 201.17C186.571 201.181 186.679 201.192 186.787 201.202C187.159 201.239 187.528 201.276 187.895 201.312C188.786 201.4 189.668 201.487 190.55 201.572C189.78 200.89 188.964 200.453 188.12 200.165C187.654 200.006 187.179 199.893 186.699 199.809C186.534 199.781 186.369 199.756 186.203 199.733C185.925 199.696 185.647 199.667 185.368 199.643C184.919 199.603 184.469 199.577 184.02 199.551L184.019 199.551L184.019 199.551L183.841 199.54C183.052 199.494 182.269 199.443 181.505 199.317C181.062 199.245 180.625 199.147 180.197 199.011C178.685 197.015 178.902 195.36 180.19 193.819C180.38 193.591 180.594 193.365 180.829 193.142C180.908 193.066 180.99 192.991 181.073 192.917C182.577 192.721 184.105 192.691 185.636 192.666L185.797 192.663C185.946 192.661 186.096 192.658 186.246 192.656C187.375 192.636 188.504 192.608 189.625 192.508C190.795 192.403 191.956 192.22 193.098 191.884C192.041 191.506 190.963 191.334 189.869 191.27C188.698 191.201 187.51 191.256 186.312 191.311L186.312 191.311C186.262 191.313 186.211 191.315 186.161 191.317C185.951 191.327 185.741 191.336 185.53 191.345C183.974 191.409 182.405 191.429 180.838 191.139C180.657 191.106 180.476 191.068 180.296 191.026C179.264 190.786 178.234 190.399 177.211 189.787C177.45 188.954 177.677 188.159 177.897 187.391L177.897 187.389L177.898 187.388L177.898 187.386L177.903 187.368L177.905 187.362C177.906 187.358 177.907 187.354 177.908 187.351C178.043 186.879 178.175 186.417 178.305 185.963C178.341 185.837 178.377 185.712 178.412 185.587C179.47 185.519 180.481 185.452 181.46 185.388L181.463 185.388C182.216 185.338 182.949 185.29 183.67 185.243L183.67 185.243C184.129 185.213 184.583 185.184 185.034 185.155C185.28 185.14 185.524 185.124 185.768 185.109C186.605 185.057 187.433 185.007 188.26 184.96C189.219 184.907 190.178 184.858 191.138 184.811C192.315 184.753 193.493 184.698 194.671 184.642L195.454 184.606C195.983 184.581 196.513 184.556 197.043 184.53L197.213 184.522C197.211 184.425 197.209 184.328 197.208 184.231C197.205 184.037 197.202 183.843 197.193 183.647L197.17 183.643C197 183.614 196.83 183.578 196.659 183.542L196.658 183.542L196.658 183.542C196.243 183.454 195.825 183.365 195.408 183.379C194.067 183.428 192.726 183.49 191.385 183.553C191.145 183.564 190.906 183.576 190.666 183.587L190.599 183.59L190.586 183.591L190.586 183.591L190.585 183.591L190.585 183.591L190.583 183.591L190.581 183.591C189.784 183.629 188.987 183.667 188.19 183.703L188.188 183.703C187.354 183.74 186.52 183.775 185.686 183.806C185.433 183.815 185.18 183.823 184.928 183.832C184.497 183.846 184.066 183.858 183.635 183.869C183.067 183.883 182.492 183.929 181.917 183.975C180.698 184.073 179.476 184.171 178.305 183.964C177.951 183.901 177.6 183.81 177.257 183.683C176.784 183.508 176.323 183.264 175.877 182.928C175.305 179.556 175.98 177.752 178.286 177.105C178.603 177.016 178.95 176.949 179.328 176.903C179.675 176.86 180.049 176.835 180.45 176.827C181.754 176.799 183.057 176.78 184.361 176.767C184.654 176.764 184.947 176.761 185.24 176.759C186.966 176.745 188.693 176.74 190.419 176.734C190.42 176.734 190.421 176.734 190.422 176.734H190.426C190.433 176.734 190.44 176.734 190.447 176.734C191.207 176.732 191.967 176.73 192.727 176.726C194.335 176.72 195.943 176.71 197.551 176.69C198.098 176.685 198.642 176.533 199.185 176.381L199.186 176.38C199.402 176.32 199.618 176.259 199.834 176.208C199.838 176.207 199.841 176.206 199.845 176.206C199.846 176.205 199.847 176.205 199.848 176.205C199.854 176.203 199.86 176.202 199.866 176.201C199.868 176.2 199.87 176.2 199.872 176.199C199.872 176.199 199.873 176.199 199.874 176.199C199.875 176.199 199.876 176.198 199.877 176.198C199.878 176.198 199.878 176.198 199.879 176.198C199.884 176.197 199.888 176.195 199.893 176.194L199.894 176.194L199.895 176.194C199.903 176.192 199.91 176.19 199.918 176.189C199.921 176.188 199.924 176.187 199.927 176.187L199.927 176.186C199.923 176.151 199.919 176.116 199.914 176.081C199.886 175.835 199.857 175.59 199.834 175.344H185.15H179.328C179.197 175.214 179.075 175.086 178.96 174.96C176.856 172.628 177.532 170.769 179.534 168.557C180.897 168.343 182.273 168.152 183.658 168.001C183.998 167.964 184.338 167.929 184.679 167.897C185.017 167.865 185.356 167.836 185.696 167.809C186.329 167.76 186.963 167.72 187.6 167.691C189.871 167.587 192.164 167.624 194.468 167.868C194.898 167.913 195.328 167.966 195.759 168.026C195.792 168.03 195.825 168.035 195.858 168.04C195.892 168.044 195.925 168.049 195.959 168.054C196.317 168.106 196.675 168.163 197.034 168.226C197.948 168.386 198.863 168.582 199.779 168.818C200.342 168.964 200.906 169.124 201.47 169.301C201.481 169.304 201.491 169.307 201.502 169.311C201.518 169.316 201.534 169.321 201.55 169.326C201.551 169.326 201.552 169.327 201.554 169.327L201.555 169.328C201.558 169.329 201.561 169.33 201.565 169.331C201.566 169.331 201.568 169.332 201.569 169.332C201.574 169.334 201.579 169.335 201.584 169.337C201.599 169.341 201.614 169.346 201.629 169.351C201.652 169.358 201.675 169.366 201.699 169.373C201.758 169.092 201.818 168.812 201.878 168.537C200.569 167.852 199.267 167.166 197.739 166.361L197.604 166.29L197.611 166.202C197.654 165.615 197.699 165.032 197.744 164.444L197.775 164.049L197.775 164.045L197.776 164.044L197.801 163.71C197.806 163.652 197.81 163.593 197.815 163.534C197.816 163.52 197.817 163.506 197.818 163.492C197.819 163.482 197.82 163.472 197.821 163.463C197.826 163.391 197.832 163.32 197.837 163.249C197.841 163.202 197.844 163.156 197.848 163.109C197.853 163.04 197.858 162.971 197.864 162.901L197.877 162.73C197.883 162.645 197.89 162.56 197.896 162.475C197.932 162.478 197.967 162.481 198.002 162.484C198.058 162.489 198.112 162.492 198.165 162.495C198.18 162.496 198.196 162.497 198.211 162.497C198.382 162.505 198.538 162.507 198.678 162.508H198.678C198.989 162.511 199.223 162.513 199.373 162.585C199.376 162.586 199.38 162.588 199.383 162.59C199.385 162.591 199.387 162.592 199.389 162.593C199.39 162.593 199.39 162.593 199.391 162.594C199.393 162.595 199.395 162.596 199.397 162.597C199.424 162.612 199.448 162.63 199.469 162.651C199.597 162.78 199.725 162.908 199.853 163.037C200.202 163.385 200.55 163.733 200.899 164.08L200.904 164.085C203.179 166.352 205.457 168.623 207.545 171.046Z" fill="white"/>
<path fill-rule="evenodd" clip-rule="evenodd" d="M199.934 159.797L199.933 159.813C199.932 159.843 199.93 159.874 199.929 159.904C199.931 159.868 199.932 159.833 199.934 159.797ZM200.936 113.16C200.936 113.161 200.936 113.162 200.936 113.163L200.936 113.16Z" fill="#D9D9D9"/>
<path d="M67.4628 169.57H59.7208L59.7207 169.569H59.7137L59.7054 169.445C59.6886 169.192 59.6726 168.949 59.6567 168.707L59.6535 168.658C59.6175 168.11 59.5815 167.562 59.5369 166.916L59.5247 166.74H67.6132L67.6131 166.741H67.6203L67.5908 167.264C67.5458 168.06 67.5043 168.794 67.4628 169.57Z" fill="white"/>
<path d="M71.5364 137.045C71.8187 135.178 71.6403 132.211 71.6403 132.211C71.6403 132.211 71.5718 128.132 71.3224 125.977C70.5819 119.575 69.9526 114.83 67.9629 107.951C66.8899 104.242 66.5876 103.428 64.7212 98.6093C64.2504 97.394 63.9447 96.7946 63.6971 96.754C63.4215 96.6973 63.2185 97.327 62.9426 98.5657C62.9119 98.7034 62.8803 98.8486 62.8476 99.0013C62.8402 99.0357 62.8305 99.0875 62.8186 99.1561C62.5313 100.813 60.9811 112.321 60.9811 127.618C60.9811 145.062 60.726 149.793 60.4808 154.339C60.4146 155.567 60.3491 156.782 60.2895 158.23L60.1305 161.212L60.097 161.216C59.4505 161.291 58.8007 161.395 58.1458 161.534C57.9487 161.576 57.7511 161.621 57.553 161.67C57.5869 162.335 57.6141 162.894 57.6413 163.451L57.6413 163.452L57.6414 163.455L57.6416 163.457C57.6527 163.686 57.6638 163.914 57.6753 164.149L57.6901 164.449L57.6979 164.605C57.9368 164.653 58.175 164.698 58.4124 164.742C58.4396 164.746 58.4668 164.751 58.494 164.756C62.1541 165.416 65.6585 165.494 69.6676 164.468C69.4414 163.638 69.2756 163.019 69.1209 162.443L69.1205 162.441C69.0254 162.087 68.9344 161.747 68.8361 161.384L68.8292 161.383L68.829 161.382L68.6809 161.37L68.6731 161.369C68.0232 161.314 67.3788 161.259 66.738 161.211L66.698 161.208L66.487 158.374C66.4383 157.362 66.3919 156.43 66.3491 155.569C66.0224 149.002 65.9032 146.605 66.5596 145.033C66.7554 144.564 67.2693 144.13 67.852 143.638C68.3796 143.193 68.9636 142.7 69.4186 142.09C69.4775 142.011 69.5346 141.935 69.59 141.861C70.2094 141.035 70.6174 140.491 71.0069 139.463C71.2976 138.695 71.3722 138.178 71.4764 137.455L71.4766 137.453C71.4951 137.325 71.5146 137.19 71.5364 137.045Z" fill="white"/>
<path d="M53.9148 171.918C55.1931 171.244 56.465 170.57 57.97 169.771C57.9176 169.056 57.8631 168.347 57.8076 167.627L57.8075 167.625L57.8074 167.623L57.8072 167.621L57.7931 167.438C57.7599 167.007 57.7264 166.57 57.6929 166.125L57.686 166.126C57.4061 166.153 57.1601 166.155 56.9506 166.157C56.5834 166.161 56.3285 166.163 56.2006 166.294C55.7487 166.751 55.2949 167.206 54.8409 167.662L54.8388 167.664L54.8385 167.664C53.3031 169.205 51.7657 170.749 50.2927 172.345L50.248 172.393C49.6662 173.025 49.0946 173.664 48.5373 174.316C48.3461 174.538 48.204 174.832 48.105 175.163L48.1043 175.141C47.8741 175.892 47.8684 176.84 48.0138 177.56C48.8703 181.87 49.7505 186.18 50.7272 190.467C50.9574 191.478 51.193 192.487 51.4348 193.495C51.5626 194.027 51.6921 194.559 51.8234 195.09C52.0669 196.067 52.3798 196.983 52.7569 197.842C54.1042 200.91 56.2719 203.246 59.0281 205.019C59.2138 205.139 59.4023 205.256 59.5933 205.37C59.8808 205.542 60.1741 205.709 60.473 205.87C61.3627 206.349 62.3023 206.779 63.2856 207.166C63.3853 207.205 63.4854 207.244 63.586 207.282C63.6865 207.32 63.7913 207.346 63.9006 207.366C63.9584 207.377 64.0176 207.386 64.078 207.394C64.1533 207.403 64.2307 207.411 64.3102 207.419C64.3366 207.421 64.3632 207.424 64.3901 207.426L64.3906 207.426C64.52 207.439 64.6549 207.451 64.7958 207.47C65.3802 207.47 65.8353 207.379 66.4965 207.192C67.1716 205.825 67.8943 204.453 68.6522 203.09L68.3032 203.125C67.839 203.172 67.379 203.218 66.9215 203.263C66.1654 203.339 65.4161 203.412 64.6661 203.485C66.1378 202.173 67.7894 201.81 69.466 201.654C70.7437 199.44 72.1038 197.266 73.492 195.195C72.6755 195.094 71.8514 195.044 71.0238 195.014C70.4449 194.994 69.8642 194.984 69.2831 194.974L69.1667 194.972L69.1622 194.972C67.5213 194.945 65.8771 194.918 64.26 194.672C64.0973 194.647 63.935 194.62 63.7728 194.59L63.7515 194.586C63.2462 194.494 62.744 194.377 62.2456 194.23C62.7953 194.031 63.3513 193.892 63.9125 193.797C64.0134 193.78 64.1146 193.764 64.2159 193.75C65.6773 193.543 67.1729 193.612 68.6848 193.681C69.3724 193.713 70.0633 193.745 70.7561 193.751C72.0953 193.763 73.4414 193.678 74.7826 193.311C75.4633 192.338 76.1466 191.395 76.8264 190.488L76.6689 189.932L76.6667 189.925C76.5007 189.339 76.3394 188.77 76.1805 188.212L76.1737 188.211L76.1734 188.21C75.1701 188.145 74.2103 188.082 73.2812 188.02L73.2787 188.02L73.278 188.02L73.233 188.017C72.535 187.97 71.8541 187.925 71.1852 187.881C69.6945 187.784 68.2623 187.693 66.8289 187.611C66.6387 187.601 66.4485 187.59 66.2582 187.58C65.9937 187.566 65.7291 187.552 65.4645 187.538C63.8931 187.456 62.3201 187.382 60.7466 187.308L60.7428 187.308L60.7406 187.307L60.0085 187.273L60.004 187.273C59.5195 187.25 59.0351 187.227 58.5506 187.203L58.494 187.201L58.3415 187.193C58.3436 187.1 58.345 187.008 58.3464 186.916C58.3492 186.73 58.352 186.545 58.3604 186.358C58.5288 186.329 58.6979 186.293 58.8673 186.257L58.8681 186.257C59.2621 186.173 59.6581 186.089 60.0542 186.102C61.5791 186.158 63.104 186.231 64.6292 186.304C66.8265 186.409 69.0246 186.515 71.2249 186.57C71.764 186.583 72.309 186.627 72.8545 186.671L72.8547 186.671C74.8448 186.832 76.8414 186.994 78.5859 185.671C79.1724 182.193 78.3797 180.461 75.7521 179.98C75.6084 179.953 75.4592 179.931 75.3045 179.912C74.9752 179.871 74.6207 179.847 74.2403 179.839C71.085 179.77 67.9298 179.76 64.7745 179.75C63.7181 179.747 62.6616 179.744 61.6052 179.738L61.5756 179.738C60.3881 179.732 59.2007 179.723 58.0133 179.708C57.8093 179.706 57.6059 179.683 57.4028 179.646C57.0912 179.589 56.7804 179.501 56.4699 179.414C56.2351 179.348 56.0006 179.281 55.7661 179.229C55.7976 178.96 55.829 178.692 55.8542 178.423H75.3116C77.7233 176.02 77.1188 174.166 75.1164 171.937C75.1147 171.937 75.113 171.937 75.1114 171.936L75.1093 171.936C73.2077 171.635 71.2805 171.383 69.3346 171.227C68.7101 171.177 68.0838 171.137 67.4557 171.108C64.8981 170.991 62.3123 171.063 59.7137 171.428C59.4773 171.462 59.2408 171.497 59.0041 171.536C58.9199 171.549 58.8357 171.563 58.7515 171.577C57.8255 171.734 56.8981 171.929 55.97 172.168C55.5554 172.274 55.1406 172.39 54.7257 172.514C54.5812 172.558 54.4367 172.602 54.2922 172.648C54.2228 172.67 54.1535 172.692 54.0841 172.714C54.0277 172.447 53.9712 172.18 53.9148 171.918Z" fill="white"/>
<path d="M74.4867 201.041C76.2057 198.756 75.5697 196.939 73.6555 195.216L73.6489 195.215L73.6484 195.215C73.5963 195.208 73.5442 195.201 73.492 195.195C72.1038 197.266 70.7437 199.44 69.466 201.654C69.9301 201.611 70.3962 201.583 70.8608 201.556C72.0998 201.483 73.3291 201.411 74.4867 201.041Z" fill="white"/>
<path fill-rule="evenodd" clip-rule="evenodd" d="M184.679 167.897L185.15 175.344L199.866 176.201L199.848 176.205L199.845 176.206L199.834 176.208C199.618 176.259 199.402 176.32 199.186 176.38L199.185 176.381C198.642 176.533 198.098 176.685 197.551 176.69C195.943 176.71 194.335 176.72 192.727 176.726C191.967 176.73 191.207 176.732 190.447 176.734L190.426 176.734H190.422H190.419C188.693 176.74 186.966 176.745 185.24 176.759L185.686 183.806C186.52 183.775 187.354 183.74 188.188 183.703L188.19 183.703C188.987 183.667 189.784 183.629 190.581 183.591L190.583 183.591L190.585 183.591L190.585 183.591L190.586 183.591L190.586 183.591L190.599 183.59L190.666 183.587C190.906 183.576 191.145 183.564 191.385 183.553C192.726 183.49 194.067 183.428 195.408 183.379C195.825 183.365 196.243 183.454 196.658 183.542L196.658 183.542L196.659 183.542C196.83 183.578 197 183.614 197.17 183.643L197.193 183.647C197.202 183.843 197.205 184.037 197.208 184.231C197.209 184.328 197.211 184.425 197.213 184.522L197.043 184.53C196.513 184.556 195.983 184.581 195.454 184.606L194.671 184.642C193.493 184.698 192.315 184.753 191.138 184.811C190.178 184.858 189.219 184.907 188.26 184.96C187.433 185.007 186.605 185.057 185.768 185.109L186.161 191.317L186.312 191.311L186.312 191.311C187.51 191.256 188.698 191.201 189.869 191.27C190.963 191.334 192.041 191.506 193.098 191.884C191.956 192.22 190.795 192.403 189.625 192.508C188.504 192.608 187.375 192.636 186.246 192.656L186.699 199.809C187.179 199.893 187.654 200.006 188.12 200.165C188.964 200.453 189.78 200.89 190.55 201.572C189.668 201.487 188.786 201.4 187.895 201.312C187.528 201.276 187.159 201.239 186.787 201.202L186.818 201.695C186.7 201.518 186.582 201.344 186.463 201.17L186.317 201.155L186.192 201.143L185.754 201.099C185.081 201.032 184.399 200.963 183.701 200.893C183.728 201.115 183.763 201.322 183.805 201.516C183.931 202.102 184.125 202.566 184.367 202.944C184.929 203.823 185.751 204.239 186.597 204.648L186.685 204.69L186.686 204.691C186.797 204.744 186.907 204.797 187.018 204.852C187.044 204.865 187.071 204.878 187.097 204.891C187.126 204.905 187.154 204.92 187.183 204.934C187.314 205.001 187.445 205.07 187.574 205.143L187.819 205.216C188.372 205.38 188.794 205.505 189.17 205.592C189.6 205.691 189.97 205.74 190.411 205.74C190.559 205.72 190.701 205.707 190.837 205.694L190.837 205.694L190.838 205.694C191.146 205.665 191.425 205.639 191.678 205.544C192.879 205.09 194.02 204.576 195.091 203.995C195.335 203.862 195.576 203.726 195.813 203.586C199.876 201.191 202.832 197.737 204.075 192.786C205.588 186.711 206.862 180.577 208.089 174.443C208.308 173.365 208.202 171.803 207.545 171.046C205.457 168.623 203.179 166.352 200.904 164.085L200.899 164.08C200.55 163.733 200.202 163.385 199.853 163.037C199.725 162.908 199.597 162.78 199.469 162.651C199.448 162.63 199.424 162.612 199.397 162.597L199.391 162.594L199.389 162.593L199.383 162.59C199.38 162.588 199.376 162.586 199.373 162.585C199.223 162.513 198.989 162.511 198.678 162.508H198.678C198.538 162.507 198.382 162.505 198.211 162.497C198.196 162.497 198.18 162.496 198.165 162.495C198.112 162.492 198.058 162.489 198.002 162.484C197.967 162.481 197.932 162.478 197.896 162.475L197.877 162.73L197.864 162.901L197.848 163.109L197.837 163.249L197.821 163.463L197.818 163.492L197.815 163.534L197.801 163.71L197.776 164.044L197.775 164.045L197.775 164.049L197.744 164.444C197.699 165.032 197.654 165.615 197.611 166.202L197.604 166.29L197.739 166.361C199.267 167.166 200.569 167.852 201.878 168.537C201.818 168.812 201.758 169.092 201.699 169.373C201.675 169.366 201.652 169.358 201.629 169.351L201.569 169.332L201.565 169.331L201.555 169.328L201.554 169.327L201.55 169.326L201.502 169.311L201.47 169.301C200.906 169.124 200.342 168.964 199.779 168.818C198.863 168.582 197.948 168.386 197.034 168.226C196.675 168.163 196.317 168.106 195.959 168.054C195.925 168.049 195.892 168.044 195.858 168.04C195.825 168.035 195.792 168.03 195.759 168.026C195.328 167.966 194.898 167.913 194.468 167.868C192.164 167.624 189.871 167.587 187.6 167.691C186.963 167.72 186.329 167.76 185.696 167.809C185.356 167.836 185.017 167.865 184.679 167.897ZM185.15 175.344L199.877 176.198L199.879 176.198L199.893 176.194L199.894 176.194L199.895 176.194L199.918 176.189L199.927 176.187L199.927 176.186L199.914 176.081C199.886 175.835 199.857 175.59 199.834 175.344H185.15ZM180.19 193.819C182.052 195.59 183.775 197.512 185.368 199.643C184.919 199.603 184.469 199.577 184.02 199.551L184.019 199.551L184.019 199.551L183.841 199.54C183.052 199.494 182.269 199.443 181.505 199.317C181.062 199.245 180.625 199.147 180.197 199.011C178.685 197.015 178.902 195.36 180.19 193.819ZM184.253 133.255C185.565 134.557 187.106 135.532 188.745 136.096L189.749 136.441L189.748 137.393C189.747 137.916 189.301 146.236 189.301 146.236L187.86 157.372L187.835 157.374C187.533 157.398 187.23 157.423 186.927 157.448C186.838 157.456 186.748 157.463 186.659 157.471L186.335 157.498L186.311 157.5L197.922 160.104L197.943 159.688L197.95 159.538C197.976 159 198.003 158.454 198.036 157.814C197.527 157.69 197.022 157.587 196.518 157.503L196.505 157.501C196.351 157.475 196.196 157.451 196.042 157.428L196.024 157.426L194.577 146.236C194.577 146.236 193.996 137.945 193.995 137.421L193.995 136.469L195.016 136.123C196.684 135.559 198.253 134.583 199.589 133.28C201.612 131.308 201.621 131.274 201.61 125.806C201.608 124.694 201.587 123.455 201.554 122.302C201.512 120.84 201.451 119.516 201.384 118.759C201.307 117.876 201.155 115.944 200.973 113.628L200.936 113.163L200.936 113.16L200.936 113.159L200.936 113.156L200.936 113.155C200.529 107.974 199.995 101.158 199.802 99.6673L199.604 98.1395H197.764V126.91H195.537V98.1395H192.966V126.91L191.872 126.888H190.759V98.1324H188.234V126.888H186.045V98.1324H184.238L184.044 99.6594C183.921 100.621 183.659 103.799 183.381 107.324C183.229 109.261 183.071 111.303 182.93 113.139L182.93 113.139L182.93 113.14L182.928 113.155C182.734 115.672 182.57 117.801 182.489 118.742C182.372 120.095 182.272 123.265 182.267 125.785C182.256 131.25 182.265 131.283 184.253 133.255ZM195.825 165.094C195.863 164.508 195.902 163.919 195.951 163.218L195.958 163.12H187.434L187.465 163.668C187.493 164.158 187.52 164.626 187.546 165.094C187.557 165.3 187.569 165.507 187.58 165.715L187.589 165.881L187.6 166.08H195.759L195.762 166.033C195.782 165.744 195.8 165.466 195.818 165.19L195.822 165.134L195.825 165.094ZM76.8264 190.488C76.1466 191.395 75.4633 192.338 74.7826 193.311C75.6314 193.078 76.4783 192.732 77.3203 192.226C77.1497 191.627 76.9857 191.05 76.8264 190.488ZM68.6522 203.09C67.8943 204.453 67.1716 205.825 66.4965 207.192C66.7211 207.129 66.9694 207.055 67.2547 206.97L67.2682 206.966L67.3694 206.935L67.4872 206.9C67.764 206.742 68.0485 206.604 68.3311 206.467L68.3344 206.466L68.3369 206.464C68.4046 206.431 68.4722 206.399 68.5395 206.366C68.9282 206.175 69.3087 205.977 69.6553 205.722C70.394 205.18 70.9789 204.379 71.1619 202.838L71.1546 202.839L71.1548 202.837C70.467 202.907 69.7942 202.975 69.1317 203.042L68.8601 203.069L68.6522 203.09Z" fill="white"/>
<path d="M156.586 209.225C154.942 210.23 146.369 205.955 146.369 205.955C146.369 205.955 127.411 197.15 117.841 192.704L116.344 192.009C112.988 190.45 110.449 189.216 107.902 187.977L107.902 187.977L107.902 187.977L107.901 187.977L107.901 187.977C105.334 186.728 102.759 185.476 99.3326 183.885C92.8126 186.334 90.7121 185.186 88.681 184.075C87.2809 183.31 85.9137 182.562 83.1545 183.023C82.3242 183.855 81.4467 184.806 80.5394 185.856C80.5318 185.903 80.524 185.95 80.5161 185.997L80.3864 186.766L79.7651 187.237C79.4894 187.447 79.21 187.628 78.9287 187.785C78.7246 188.037 78.5196 188.294 78.3138 188.554L78.3218 188.583L78.4431 189.01L78.4447 189.016L78.4488 189.03L78.5531 189.399L78.5545 189.403C78.7614 190.133 78.9749 190.887 79.2024 191.685L79.6155 193.134L78.3254 193.91C78.0939 194.049 77.8623 194.178 77.6307 194.298L77.6285 194.299C77.6103 194.308 77.5921 194.317 77.574 194.327L77.5589 194.334C77.2 194.516 76.8414 194.675 76.4838 194.814C76.3577 194.863 76.2318 194.909 76.1061 194.953C76.2389 195.12 76.3653 195.293 76.4838 195.471C76.8945 196.09 77.2088 196.779 77.3559 197.545C77.5898 198.763 77.3597 199.941 76.7876 201.055C76.6196 201.382 76.4221 201.703 76.1982 202.018L76.1899 202.03L76.1891 202.031C76.1434 202.095 76.0967 202.159 76.0489 202.223L75.673 202.722L75.0777 202.913C74.4874 203.102 73.8983 203.224 73.3299 203.308C73.2978 203.313 73.2658 203.317 73.2338 203.322C73.2096 203.325 73.1855 203.329 73.1614 203.332L73.1533 203.333L73.1308 203.336L73.1054 203.339L73.0689 203.344C73.0559 203.431 73.0417 203.516 73.0265 203.6C73.0079 203.701 72.9878 203.801 72.966 203.899C72.8432 204.451 72.669 204.942 72.4489 205.38C72.081 206.113 71.5848 206.698 70.9858 207.173C70.8479 207.282 70.7084 207.383 70.5699 207.475C70.2135 207.713 69.8636 207.898 69.5641 208.048L69.5323 208.064C69.378 208.14 69.2443 208.205 69.1231 208.264L69.1217 208.265L69.1211 208.265C68.8689 208.387 68.6706 208.484 68.453 208.608L68.2569 208.72L68.0405 208.784C67.9416 208.814 67.8449 208.843 67.7501 208.871L67.7423 208.873L67.7418 208.874L67.7278 208.878L67.7207 208.88C67.5758 208.923 67.4351 208.966 67.2974 209.006C66.6589 209.194 66.0841 209.342 65.4451 209.404C63.8446 212.56 91.8465 198.943 120.96 216.546C150.073 234.15 193.228 220.677 190.267 207.713C189.207 207.692 188.375 207.444 187.316 207.128L187.159 207.081L187.103 207.065L187.003 207.035L186.783 206.97L186.584 206.857C186.352 206.726 186.14 206.624 185.873 206.495L185.872 206.495C185.823 206.471 185.772 206.446 185.718 206.42C185.633 206.379 185.542 206.335 185.443 206.286C185 206.066 184.45 205.776 183.924 205.362C182.797 204.475 182.019 203.214 181.75 201.347C181.053 201.26 180.321 201.124 179.588 200.891L178.983 200.699L178.602 200.196C177.466 198.697 176.912 197.07 177.241 195.372C177.445 194.315 177.963 193.398 178.619 192.602C177.81 192.329 176.994 191.964 176.181 191.478L174.876 190.699L175.184 189.628C168.419 184.613 160.136 180.653 150.034 175.823L149.591 175.611C152.081 176.802 152.92 178.085 154.076 179.855L154.076 179.856L154.077 179.857C154.336 180.254 154.612 180.676 154.926 181.127C157.164 186.471 158.196 189.401 158.196 197.331L158.191 197.499L158.191 197.5L158.191 197.501C158.153 198.603 158.22 199.51 158.824 200.606C159.25 201.379 159.635 202.344 159.684 203.536C159.788 206.064 158.23 208.219 156.586 209.225Z" fill="white"/>
<path fill-rule="evenodd" clip-rule="evenodd" d="M205.546 206.295C221.63 188.989 231.776 166.613 229.999 139.477C229.999 109.771 220.011 82.8207 195.901 63.3598C177.395 48.4221 151.184 41.5681 125.403 42.2842C110.545 42.2842 94.7252 46.1829 81.7167 51.3555C63.8658 58.4537 50.2602 68.3901 40.1794 83.1053C29.2963 98.9916 25.8561 116.62 25.8564 137.533C25.8569 164.27 33.701 187.604 50.922 204.136C69.815 223.634 99.7206 239.36 130.462 239.36C160.867 239.36 187.332 225.893 205.546 206.295ZM62.9571 73.0027C45.5807 89.0589 39.5363 112.873 39.5363 134.655C39.5363 149.115 41.6918 161.724 50.922 175.251C64.7678 195.542 99.1435 211.461 125.298 211.461C146.491 211.461 170.525 205.32 187.294 191.14C206.195 175.157 216.57 149.798 216.57 127.422C216.57 104.929 207.347 85.8902 189.016 71.625C169.039 55.4371 149.122 49.9264 128.053 49.9264C116.208 49.9264 101.132 52.5957 88.7888 57.1593C78.3837 61.0061 70.4183 66.1083 62.9571 73.0027Z" fill="#F86F0E"/>
<path d="M48.7346 24.9707C47.3399 22.2299 41.3928 18.0437 41.3928 18.0437C41.3928 18.0437 51.8165 9.92155 66.6767 15.3199C76.5472 18.9057 81.0268 38.6215 81.0268 38.6215C81.0268 38.6215 75.8637 33.3001 72.5011 34.0693C69.1386 34.8385 68.7874 34.4908 66.4161 34.3137C63.5166 34.0972 61.8543 33.7735 59.1444 32.7259C54.4117 30.8963 48.7346 24.9707 48.7346 24.9707Z" fill="#9BAB49"/>
<path d="M53.3126 24.5752C40.9667 24.1589 35.234 38.4266 35.234 38.4266C35.234 38.4266 38.8726 38.89 41.5355 40.0335C47.9036 42.7681 49.1271 42.9676 55.891 41.7032C60.8334 40.7792 72.3174 37.1184 76.4455 37.0011C78.3473 36.9471 81.0273 38.6214 81.0273 38.6214C81.0273 38.6214 69.3237 25.115 53.3126 24.5752Z" fill="#C1BF0A"/>
<path d="M66.9851 94.9043C65.5922 92.6554 65.4746 90.6791 66.0379 88.6904C70.2601 73.8775 77.1319 60.663 89.8912 51.3887C106.798 39.0973 125.34 36.1979 145.237 42.7649C147.949 43.657 150.679 44.7411 152.902 47.1387C152.413 47.7582 151.985 48.2972 151.391 49.0345C139.276 41.7055 126.331 40.7948 112.94 43.8738C108.445 44.9084 103.722 45.6581 100.267 49.5797C100.428 50.7815 100.583 51.9896 100.719 53.018C96.9179 55.8679 93.2033 58.6619 89.4703 61.4622C86.3191 59.4363 85.0686 59.5231 82.3756 62.2676C77.6891 67.0379 74.4699 72.75 72.2412 79.001C70.4273 84.0935 68.8362 89.2728 66.9851 94.9043Z" fill="white"/>
<path d="M163.227 111.449C163.226 111.468 163.224 111.488 163.223 111.508C163.223 111.509 163.223 111.51 163.223 111.511C163.119 112.913 163.034 114.079 162.924 115.672C162.43 115.569 161.955 115.47 161.482 115.371C160.039 115.07 158.617 114.773 156.729 114.382C156.674 114.37 156.617 114.358 156.561 114.347C156.575 114.337 156.589 114.327 156.604 114.317C156.645 114.289 156.686 114.261 156.727 114.233C159.131 112.598 160.928 111.866 163.227 111.449Z" fill="white"/>
<path fill-rule="evenodd" clip-rule="evenodd" d="M155.914 207.507C154.486 208.367 144.957 203.868 144.957 203.868C144.957 203.868 128.283 196.117 119.866 192.204L119.737 192.144C113.419 189.206 107.065 186.252 100.661 183.275C99.9308 182.935 99.6215 182.061 99.9803 181.342L100.185 180.921C100.531 180.227 101.366 179.936 102.065 180.258C108.987 183.457 115.861 186.631 122.744 189.81L123.001 189.928L123.034 189.943C130.039 193.179 137.055 196.418 144.14 199.692C144.113 198.203 143.157 197.79 142.342 197.438C142.221 197.386 142.104 197.335 141.993 197.282C137.183 194.962 132.347 192.713 127.509 190.462L127.505 190.461L126.561 190.022C121.516 187.672 116.47 185.329 111.43 182.989L111.302 182.93C108.227 181.502 105.154 180.075 102.084 178.648C101.385 178.325 101.063 177.501 101.366 176.795C101.625 176.197 101.891 175.606 102.155 175.018C104.029 170.845 105.809 166.882 104.361 162.385C104.194 161.871 104.293 161.301 104.664 160.911C104.901 160.666 105.135 160.426 105.367 160.189C106.331 159.204 107.245 158.27 108.018 157.231C108.214 156.969 108.416 156.706 108.62 156.44C109.748 154.973 110.922 153.446 111.347 151.767C111.633 150.623 111.939 149.482 112.244 148.34L112.245 148.339L112.245 148.338C113.561 143.417 114.882 138.482 114.731 133.293C114.726 133.097 114.715 132.899 114.705 132.701L114.705 132.7C114.665 131.968 114.626 131.234 114.855 130.561C115.17 129.638 116.352 129.372 117.101 129.997L119.433 131.947L119.822 132.271L122.286 134.331L124.365 136.069C124.588 136.254 124.748 136.496 124.829 136.775C125.751 140.083 127.446 144.079 131.784 146.334C131.219 145.394 130.564 144.504 129.906 143.611C128.42 141.595 126.922 139.562 126.438 136.905C126.326 136.292 126.592 135.66 127.143 135.356C127.197 135.326 127.251 135.296 127.305 135.267C128.952 134.357 130.756 133.361 131.32 130.35C129.903 131.577 128.931 132.413 128.009 133.206C127.805 133.386 127.551 133.504 127.285 133.547C123.715 134.092 121.444 132.99 118.957 129.254C118.437 128.479 118.79 127.408 119.675 127.104L121.185 126.571C121.611 126.423 122.094 126.491 122.472 126.745C123.567 127.501 124.594 128.201 125.627 128.901L126.153 128.479L124.786 126.54C124.421 126.02 124.427 125.308 124.841 124.824C127.038 122.241 129.81 120.742 133.411 120.624C136.771 120.513 139.32 119.267 141.046 116.003C142.014 114.174 143.654 112.669 145.249 111.204C145.53 110.946 145.809 110.69 146.083 110.433C147.742 108.88 149.488 107.421 151.234 105.962L151.235 105.961C151.989 105.331 152.743 104.701 153.489 104.065C153.418 103.931 153.345 103.8 153.272 103.668C153.22 103.573 153.168 103.478 153.116 103.383C153.096 103.346 153.076 103.309 153.056 103.272L153.087 103.263C159.06 101.562 165.033 99.8612 171.055 98.1482C171.897 97.9066 172.763 98.4827 172.874 99.35C173.046 100.747 173.206 102.122 173.365 103.48L173.365 103.487L173.366 103.488C173.854 107.668 174.322 111.684 175.027 115.662C175.48 118.218 176.353 120.675 177.215 123.101C178.191 125.849 179.154 128.559 179.476 131.329C179.513 131.707 179.414 132.097 179.167 132.382C177.707 134.082 176.134 133.738 174.658 133.416L174.658 133.416C174.482 133.378 174.309 133.34 174.136 133.305C173.635 133.206 173.115 133.38 172.775 133.758C171.717 134.922 171.81 136.273 172.33 137.698C172.868 139.203 172.639 140.43 170.925 141.44C169.919 141.348 168.878 141.253 167.816 141.157L167.722 141.149L167.696 141.146L167.663 141.143C165.907 140.984 164.094 140.82 162.281 140.653C163.633 142.152 165.293 142.284 166.937 142.414C167.324 142.445 167.71 142.475 168.091 142.524C169.273 142.679 170.337 142.902 170.913 143.769C171.432 144.55 170.944 145.628 170.034 145.863L169.279 146.061C168.58 146.241 168.128 146.922 168.221 147.641C168.274 148.043 168.337 148.444 168.401 148.847C168.773 151.2 169.148 153.576 167.33 156.079C167.095 156.401 166.724 156.593 166.328 156.63C165.386 156.713 164.387 156.802 163.351 156.895L163.345 156.895C161.674 157.045 159.909 157.202 158.142 157.355C157.31 157.424 156.47 157.457 155.63 157.491C153.815 157.564 152 157.638 150.265 158.061C146.095 159.065 143.602 161.89 142.896 166.245C141.801 172.998 141.949 179.744 142.661 186.522C143.529 185.36 143.479 184.072 143.427 182.721C143.412 182.329 143.397 181.93 143.404 181.528C143.428 180.376 144.777 179.701 145.68 180.413C150.147 183.952 150.487 189.236 150.855 194.944C150.903 195.68 150.951 196.423 151.008 197.171C153.65 189.793 150.705 181.95 144.35 177.718C143.954 177.452 143.701 177.012 143.701 176.529V174.862C143.88 174.85 144.042 174.829 144.19 174.81C144.481 174.772 144.721 174.741 144.938 174.794C148.923 175.785 151.552 178.307 153.068 182.08C155.122 187.191 156.119 192.494 155.914 198.007C155.913 198.057 155.911 198.106 155.91 198.155L155.909 198.156L155.909 198.158C155.853 199.812 157.489 201.542 157.845 203.062C158.201 204.583 157.342 206.647 155.914 207.507ZM166.458 133.256C165.839 133.132 165.381 132.605 165.319 131.98C165.041 129.093 165.517 128.647 168.865 126.85C168.618 127.239 168.389 127.6 168.173 127.941L168.167 127.951C167.697 128.691 167.286 129.34 166.872 129.991C166.489 130.592 166.613 131.379 167.151 131.843L168.549 133.039C168.518 133.141 168.489 133.244 168.459 133.346C168.43 133.448 168.401 133.55 168.37 133.652L166.458 133.256ZM152.802 202.034C152.586 201.83 152.32 201.693 152.029 201.65C151.46 201.567 150.877 201.481 150.286 201.394L150.195 201.381L150.182 201.379C149.218 201.238 148.232 201.093 147.246 200.95C147.246 200.708 147.252 200.473 147.258 200.231V200.23L147.258 200.213C153.006 199.686 154.3 200.293 155.45 204.568C154.967 204.103 154.54 203.696 154.139 203.314L154.135 203.31C153.671 202.868 153.243 202.459 152.802 202.034ZM165.295 116.783C162.337 117.223 159.528 116.61 156.75 115.749C153.972 114.887 154.173 114.233 154.173 114.233C154.173 114.233 155.551 113.056 156.75 112.38C157.948 111.704 159.178 111.352 160.449 110.899C162.867 110.036 165.38 109.141 168.073 108.178C164.872 106.604 162.429 107.762 160.029 108.899C158.518 109.614 157.025 110.322 155.37 110.334C160.326 105.737 164.985 104.758 169.811 107.385C170.721 107.881 170.882 109.194 170.034 109.783C168.879 110.585 168.361 111.899 167.833 113.24C167.392 114.362 166.942 115.503 166.105 116.38C165.895 116.603 165.598 116.74 165.295 116.783Z" fill="white"/>
<path d="M64.5915 89.3489C64.1643 88.5818 63.991 88.2415 63.7805 87.9198C63.5885 87.629 63.3595 87.3692 62.6722 86.4845C61.7559 89.9243 61.6417 90.1056 60.8863 92.9762C57.8535 95.6532 55.3841 97.8385 52.9873 99.9464C55.5918 86.6253 60.4326 68.8472 74.3985 52.5205C88.3645 36.1938 110.557 30.7357 130.695 32.2387C144.173 33.2446 156.507 37.9397 163.594 42.992C160.474 43.6677 157.249 44.3558 153.294 45.2051C153.294 45.2051 143.903 38.8153 130.695 38.0865C108.873 36.8825 94.2475 42.7649 81.1514 55.9719C70.317 66.8982 64.5915 89.3489 64.5915 89.3489Z" fill="white"/>
<path d="M134.203 48.3912C141.488 49.1535 146.725 52.7666 152.253 55.0349C155.521 61.6498 150.346 67.5843 141.56 74.1144C124.156 87.0507 106.553 98.4133 89.3161 110.098C79.5061 105.358 74.9032 97.3431 76.0896 87.0197C76.3546 84.714 76.8291 83.4655 77.5439 81.2577C79.8364 74.1777 85.063 68.2018 89.4703 63.7137C94.7194 59.0698 97.3949 56.8047 103.307 53.7378C106.162 52.2571 107.818 51.4978 110.864 50.4698C113.362 49.627 114.803 49.248 117.391 48.7498C123.84 47.5083 126.919 47.6289 134.203 48.3912Z" fill="white"/>
<path d="M92.8301 115.658C96.7805 112.562 99.3568 110.842 104.318 107.458L104.261 107.764C102.064 119.601 99.9344 131.069 95.9285 142.648C92.6974 141.39 89.8245 140.268 86.8096 139.096C91.1126 131.482 94.4703 124.814 92.8301 115.658Z" fill="white"/>
<path d="M126.043 114.923C124.075 112.12 122.51 109.484 120.536 107.208C119.169 105.639 117.393 104.218 115.513 103.344C112.277 101.837 110.112 102.96 109.307 106.457C107.952 112.368 106.894 118.352 105.62 124.288C104.11 131.333 102.526 138.36 100.918 145.386C100.584 146.838 100.015 148.239 99.4639 149.945C93.2152 148.983 87.6717 146.924 81.8932 143.079C83.2419 141.988 84.2133 141.212 85.3764 140.276C88.9834 141.56 92.6151 142.856 96.618 144.282C101.58 131.184 103.473 117.832 106.43 103.884C102.277 106.886 101.535 107.458 98.9257 109.18C96.6242 110.699 94.4092 112.349 91.9469 114.092C91.223 113.031 90.6909 112.262 90.0475 111.313C91.489 110.315 92.7326 109.459 93.97 108.609C110.211 97.3841 126.457 86.1712 142.685 74.9273C144.139 73.9226 145.469 72.738 146.831 71.6031C150.592 68.465 156.551 61.4778 153.975 56.3178C158.51 56.5596 172.186 63.9939 177.677 68.3577C183.168 72.7215 188.154 80.0537 188.154 80.0537C191.532 82.0073 195.781 84.3664 199.202 86.3448C199.196 86.6177 199.19 86.8906 199.184 87.1697C175.222 89.9729 152.269 96.1127 130.695 107.822C128.629 102.135 125.399 97.688 120.314 94.8972L119.584 95.5794C120.994 96.8011 122.516 97.9237 123.797 99.2757C125.09 100.646 126.309 102.147 127.249 103.778C128.245 105.502 128.87 107.443 129.749 109.515C130.534 109.236 131.388 109.044 132.124 108.653C151.285 98.3888 171.733 92.2366 193.226 89.4085L193.501 89.3721C196.04 89.0365 198.589 88.6994 201.139 88.6395C202.352 88.6085 203.576 89.2845 204.795 89.6442L204.721 90.6489C202.172 91.1202 199.611 91.5606 197.068 92.0629C186.043 94.2398 174.944 96.0879 164.024 98.7113C151.056 101.825 138.806 106.904 127.528 114.16C127.119 114.421 126.661 114.607 126.043 114.923Z" fill="white"/>
<path d="M103.307 161.753C103.312 163.501 103.761 164.507 103.822 165.881C103.884 167.256 103.253 170.038 102.448 172.073C101.77 173.789 100.883 174.873 100.185 176.795C99.7037 178.118 99.468 179.099 98.6698 180.258C97.6408 181.752 95.5782 183.081 95.5782 183.081C95.5782 183.081 93.5108 184.009 91.7996 183.941C90.0669 183.873 89.8372 183.081 88.5652 182.565C84.3445 180.854 81.0074 182.455 77.5286 178.797C78.3457 176.138 78.0795 173.491 76.0182 171.34L69.0484 170.038C68.9865 168.885 68.9308 167.905 68.875 166.87C70.9177 164.465 72.9233 162.097 75.3126 159.282L78.2637 156.188C77.0625 153.009 77.3968 151.825 79.8921 150.127C81.4958 149.037 83.3798 147.557 85.1011 146.373C89.3987 148.665 92.0782 149.415 97.0133 150.771C98.2704 150.976 98.9892 151.179 100.216 150.771C101.333 149.836 110.37 107.955 110.349 106.297C110.328 104.64 112.815 102.977 115.513 104.577C119.872 107.164 121.11 109.043 125.807 116.346C136.201 109.881 143.336 105.986 151.742 103.668L152.085 104.306C152.085 104.306 148.098 107.415 147.448 107.918C146.4 108.728 145.198 109.77 144.185 110.842C142.952 112.145 141.739 112.767 140.75 114.11C138.423 117.269 137.148 120.145 130.903 119.787C129.006 119.787 127.433 120.694 125.635 122.022C124.167 123.106 123.742 125.905 122.472 125.462C120.679 124.836 117.735 126.322 117.563 127.526C117.391 128.73 114.54 129.173 113.784 130.35C113.029 131.528 113.622 135.228 113.21 138.322C112.676 142.341 112.569 144.72 111.04 148.474C109.834 153.154 109.572 153.035 107.773 155.905C106.356 158.166 103.303 160.158 103.307 161.753Z" fill="white"/>
</g>
<defs>
<linearGradient id="paint0_linear_1308_413" x1="0" y1="0" x2="256" y2="256" gradientUnits="userSpaceOnUse">
<stop stop-color="white"/>
<stop offset="1" stop-color="white" stop-opacity="0"/>
</linearGradient>
<clipPath id="clip0_1308_413">
<rect width="256" height="256" fill="white"/>
</clipPath>
</defs>
</svg>
