<svg width="192" height="192" viewBox="0 0 192 192" fill="none" xmlns="http://www.w3.org/2000/svg">
<g clip-path="url(#clip0_1308_425)">
<rect width="192" height="192" fill="white"/>
<rect width="192" height="192" fill="#3BA57E"/>
<rect width="192" height="192" fill="#FD720F"/>
<rect width="192" height="192" fill="url(#paint0_linear_1308_425)" fill-opacity="0.2"/>
<path d="M50.2505 71.1532C49.2051 69.4669 49.1169 67.9851 49.5397 66.4939C52.7084 55.3871 57.8657 45.4787 67.4417 38.5247C80.1306 29.3084 94.046 27.1344 108.979 32.0584C111.014 32.7274 113.063 33.5403 114.731 35.338C114.364 35.8025 114.044 36.2067 113.597 36.7595C104.505 31.2641 94.7895 30.5812 84.7397 32.8899C81.3665 33.6657 77.8214 34.2278 75.2288 37.1682C75.3496 38.0694 75.4657 38.9753 75.568 39.7464C72.7152 41.8832 69.9274 43.9782 67.1257 46.0779C64.7608 44.5589 63.8222 44.6239 61.8011 46.6818C58.2839 50.2587 55.8679 54.5416 54.1952 59.2287C52.8339 63.0471 51.6398 66.9306 50.2505 71.1532Z" fill="white"/>
<path d="M122.481 83.5582C122.479 83.5732 122.478 83.588 122.477 83.6029C122.477 83.6036 122.477 83.6043 122.477 83.605C122.4 84.6566 122.335 85.5307 122.253 86.7249C121.882 86.6476 121.526 86.5733 121.171 86.4993C120.088 86.2734 119.021 86.0509 117.604 85.7574C117.562 85.7488 117.52 85.74 117.477 85.7313C117.488 85.7239 117.499 85.7166 117.509 85.7093C117.541 85.688 117.571 85.6668 117.602 85.6459C119.407 84.4198 120.755 83.8714 122.481 83.5582Z" fill="white"/>
<path fill-rule="evenodd" clip-rule="evenodd" d="M116.992 155.584C115.921 156.229 108.768 152.855 108.768 152.855C108.768 152.855 96.2548 147.044 89.9378 144.109L89.8409 144.064C85.0993 141.862 80.3305 139.647 75.5244 137.415C74.9764 137.159 74.7442 136.504 75.0135 135.965L75.1668 135.65C75.4268 135.129 76.0537 134.911 76.5785 135.153C81.7734 137.551 86.9323 139.931 92.0979 142.314L92.2904 142.403L92.3152 142.415C97.5728 144.84 102.838 147.27 108.155 149.724C108.135 148.608 107.418 148.298 106.806 148.034C106.716 147.995 106.627 147.957 106.544 147.917C102.935 146.178 99.3047 144.491 95.6735 142.804L95.6712 142.803L94.9627 142.473C91.1759 140.711 87.3891 138.955 83.6067 137.2L83.5108 137.156C81.2027 136.085 78.8962 135.015 76.5924 133.945C76.0677 133.703 75.8262 133.085 76.0537 132.556C76.248 132.108 76.4474 131.664 76.6455 131.224C78.0521 128.095 79.3881 125.123 78.3013 121.751C78.1759 121.366 78.2502 120.938 78.5288 120.646C78.7062 120.462 78.8824 120.282 79.0564 120.104C79.7797 119.366 80.4655 118.665 81.0457 117.886C81.1929 117.69 81.3449 117.493 81.498 117.294C82.3442 116.194 83.2255 115.048 83.544 113.789C83.7591 112.932 83.9883 112.076 84.2176 111.22L84.2179 111.219L84.2179 111.219C85.2061 107.529 86.1971 103.828 86.0841 99.9375C86.0801 99.7902 86.0722 99.6419 86.0642 99.4934L86.0642 99.4927C86.0347 98.9438 86.0052 98.3934 86.1769 97.889C86.4138 97.1969 87.3007 96.9971 87.8626 97.4663L89.613 98.9279L89.9046 99.1714L91.754 100.716L93.3142 102.019C93.4814 102.158 93.6021 102.339 93.6625 102.548C94.3544 105.029 95.6268 108.025 98.882 109.716C98.4586 109.011 97.9664 108.344 97.4725 107.674C96.3576 106.162 95.2335 104.638 94.8699 102.646C94.7863 102.186 94.986 101.712 95.3992 101.484C95.4396 101.462 95.4802 101.44 95.5208 101.417C96.7571 100.735 98.1111 99.9887 98.5337 97.7311C97.4703 98.6508 96.7413 99.2779 96.0494 99.8725C95.8961 100.007 95.7057 100.095 95.5061 100.128C92.8267 100.537 91.1224 99.7099 89.2557 96.9089C88.8656 96.3282 89.1303 95.5246 89.7943 95.297L90.9274 94.8975C91.2478 94.786 91.61 94.8371 91.8933 95.0276C92.7152 95.5943 93.4861 96.1192 94.2615 96.6441L94.6563 96.3282L93.63 94.8743C93.356 94.4841 93.3607 93.9499 93.6718 93.5876C95.3203 91.6505 97.4007 90.5264 100.103 90.4381C102.625 90.3545 104.538 89.4209 105.834 86.9729C106.56 85.602 107.791 84.4731 108.988 83.3746C109.198 83.1815 109.408 82.9893 109.614 82.7968C110.859 81.6324 112.17 80.5381 113.48 79.4444L113.481 79.4435C114.046 78.9713 114.612 78.4992 115.172 78.0216C115.119 77.9217 115.064 77.823 115.009 77.7243C114.97 77.6531 114.931 77.5819 114.892 77.5103C114.877 77.4826 114.862 77.4549 114.847 77.427L114.87 77.4203C119.353 76.1451 123.836 74.8699 128.355 73.5855C128.987 73.4043 129.637 73.8363 129.721 74.4866C129.849 75.5341 129.97 76.5653 130.089 77.5836L130.089 77.5887L130.089 77.589C130.456 80.7234 130.808 83.7349 131.337 86.7174C131.676 88.634 132.331 90.4761 132.978 92.2953C133.711 94.3561 134.434 96.3876 134.675 98.465C134.703 98.7484 134.629 99.041 134.443 99.2547C133.348 100.529 132.167 100.271 131.06 100.03L131.059 100.03C130.928 100.001 130.797 99.9725 130.668 99.9468C130.292 99.8725 129.902 100.003 129.646 100.286C128.852 101.159 128.922 102.172 129.312 103.24C129.716 104.369 129.544 105.289 128.258 106.046C127.502 105.977 126.721 105.906 125.924 105.834L125.854 105.828L125.834 105.826L125.809 105.824C124.491 105.704 123.131 105.581 121.771 105.456C122.785 106.58 124.031 106.679 125.265 106.777C125.555 106.8 125.845 106.823 126.131 106.859C127.018 106.975 127.817 107.142 128.249 107.793C128.639 108.378 128.272 109.186 127.589 109.363L127.023 109.511C126.498 109.646 126.159 110.157 126.229 110.696C126.268 110.997 126.316 111.298 126.363 111.6C126.642 113.365 126.924 115.146 125.56 117.022C125.383 117.264 125.105 117.408 124.808 117.436C124.101 117.498 123.351 117.565 122.574 117.634L122.569 117.635C121.315 117.747 119.99 117.865 118.664 117.979C118.04 118.031 117.409 118.056 116.779 118.082C115.416 118.136 114.054 118.191 112.753 118.509C109.623 119.261 107.751 121.38 107.222 124.645C106.4 129.708 106.512 134.767 107.046 139.849C107.697 138.978 107.659 138.012 107.62 136.999C107.609 136.705 107.598 136.406 107.603 136.105C107.621 135.241 108.634 134.734 109.312 135.269C112.664 137.922 112.919 141.885 113.195 146.164C113.231 146.716 113.267 147.273 113.31 147.834C115.293 142.301 113.082 136.421 108.313 133.248C108.016 133.048 107.826 132.718 107.826 132.356V131.107C107.96 131.097 108.082 131.081 108.193 131.067C108.412 131.039 108.591 131.015 108.754 131.056C111.745 131.799 113.719 133.689 114.856 136.518C116.398 140.351 117.146 144.327 116.992 148.461C116.991 148.498 116.99 148.535 116.989 148.572L116.989 148.573L116.989 148.574C116.947 149.814 118.174 151.111 118.441 152.251C118.709 153.391 118.064 154.939 116.992 155.584ZM124.905 99.9097C124.441 99.8168 124.097 99.4219 124.051 98.9528C123.842 96.7881 124.199 96.4537 126.712 95.1066C126.526 95.3984 126.355 95.6687 126.193 95.9243L126.188 95.9319C125.836 96.487 125.527 96.9732 125.216 97.4617C124.928 97.9122 125.021 98.5022 125.425 98.8506L126.475 99.7471C126.451 99.8237 126.429 99.9004 126.407 99.977C126.385 100.054 126.363 100.13 126.34 100.207L124.905 99.9097ZM114.657 151.48C114.494 151.327 114.294 151.225 114.076 151.192C113.649 151.13 113.212 151.066 112.768 151.001L112.699 150.991L112.69 150.989C111.967 150.883 111.227 150.774 110.487 150.667C110.487 150.486 110.491 150.31 110.495 150.129V150.128L110.496 150.115C114.81 149.72 115.78 150.175 116.644 153.38C116.281 153.032 115.961 152.727 115.66 152.44L115.657 152.437C115.309 152.105 114.987 151.799 114.657 151.48ZM124.032 87.5581C121.812 87.888 119.704 87.4281 117.619 86.7824C115.534 86.1367 115.685 85.6459 115.685 85.6459C115.685 85.6459 116.72 84.7634 117.619 84.2565C118.519 83.7496 119.441 83.486 120.395 83.1461C122.21 82.4994 124.096 81.8276 126.117 81.106C123.715 79.926 121.881 80.7939 120.081 81.6462C118.947 82.183 117.825 82.7136 116.584 82.7225C120.303 79.2758 123.8 78.5419 127.422 80.5114C128.105 80.883 128.225 81.8678 127.589 82.3091C126.722 82.9111 126.334 83.8959 125.937 84.9014C125.606 85.7425 125.269 86.5982 124.64 87.2562C124.483 87.4234 124.26 87.5256 124.032 87.5581Z" fill="white"/>
<path d="M48.4541 66.9877C48.1335 66.4125 48.0034 66.1573 47.8454 65.9161C47.7014 65.6981 47.5295 65.5033 47.0137 64.8399C46.326 67.4191 46.2403 67.555 45.6734 69.7075C43.3972 71.7147 41.5439 73.3532 39.7451 74.9338C41.6998 64.9455 45.3328 51.6153 55.8143 39.3733C66.2958 27.1314 82.9516 23.0388 98.0652 24.1658C108.18 24.92 117.437 28.4405 122.756 32.2287C120.414 32.7354 117.994 33.2513 115.025 33.8881C115.025 33.8881 107.977 29.097 98.0652 28.5506C81.6878 27.6478 70.711 32.0584 60.8824 41.9612C52.7511 50.1539 48.4541 66.9877 48.4541 66.9877Z" fill="white"/>
<path d="M100.698 36.2771C106.165 36.8487 110.096 39.5579 114.244 41.2586C116.697 46.2185 112.813 50.6683 106.219 55.5647C93.1572 65.2645 79.9466 73.7843 67.01 82.5456C59.6476 78.9918 56.1931 72.9818 57.0835 65.2412C57.2823 63.5124 57.6384 62.5762 58.175 60.9208C59.8954 55.6121 63.8181 51.1313 67.1257 47.7661C71.0652 44.284 73.0732 42.5857 77.5103 40.2861C79.6526 39.1758 80.8957 38.6065 83.182 37.8357C85.0565 37.2037 86.1379 36.9196 88.0803 36.546C92.9204 35.6151 95.2313 35.7056 100.698 36.2771Z" fill="white"/>
<path d="M69.6473 86.7142C72.612 84.3928 74.5456 83.1032 78.2693 80.5658L78.2266 80.7956C76.5772 89.6707 74.9791 98.2702 71.9726 106.952C69.5477 106.008 67.3916 105.167 65.1289 104.289C68.3583 98.5792 70.8783 93.5801 69.6473 86.7142Z" fill="white"/>
<path d="M94.5734 86.1633C93.0969 84.0614 91.9222 82.0851 90.4409 80.3785C89.4148 79.202 88.0822 78.1371 86.6706 77.4814C84.2422 76.3514 82.6171 77.1931 82.0134 79.8158C80.9966 84.2474 80.2026 88.7349 79.246 93.1851C78.1131 98.4678 76.9244 103.736 75.7172 109.005C75.4664 110.093 75.0392 111.144 74.626 112.423C69.9363 111.702 65.7759 110.158 61.4391 107.275C62.4513 106.457 63.1803 105.876 64.0533 105.173C66.7603 106.136 69.4859 107.108 72.4901 108.177C76.214 98.3562 77.6348 88.3443 79.8543 77.886C76.7369 80.1369 76.18 80.5658 74.222 81.8572C72.4947 82.9965 70.8324 84.2335 68.9844 85.5402C68.4411 84.745 68.0418 84.1684 67.5589 83.4569C68.6408 82.7082 69.5741 82.0665 70.5028 81.4294C82.6913 73.0125 94.8845 64.605 107.064 56.1742C108.155 55.4208 109.153 54.5326 110.175 53.6817C112.998 51.3287 117.47 46.0896 115.537 42.2206C118.94 42.4019 129.204 47.9762 133.325 51.2483C137.446 54.5203 141.188 60.018 141.188 60.018C143.723 61.4828 146.912 63.2518 149.48 64.7352C149.475 64.9398 149.471 65.1444 149.466 65.3537C131.483 67.4556 114.256 72.0593 98.0652 80.8388C96.5143 76.5746 94.0906 73.2404 90.2738 71.1478L89.7259 71.6593C90.7845 72.5754 91.9268 73.4171 92.8879 74.4309C93.8584 75.4586 94.7731 76.5839 95.4789 77.8069C96.2264 79.0997 96.6954 80.5552 97.3548 82.1083C97.9445 81.8991 98.5852 81.7549 99.1378 81.462C113.518 73.7659 128.864 69.1529 144.995 67.0324L145.201 67.0051C147.107 66.7534 149.02 66.5006 150.933 66.4558C151.843 66.4325 152.763 66.9394 153.678 67.2091L153.622 67.9624C151.709 68.3159 149.787 68.646 147.878 69.0227C139.604 70.6549 131.274 72.0407 123.078 74.0077C113.346 76.3421 104.153 80.1506 95.6878 85.5913C95.3814 85.7867 95.0378 85.9262 94.5734 86.1633Z" fill="white"/>
<path d="M77.5103 121.277C77.5138 122.588 77.8506 123.342 77.897 124.373C77.9435 125.403 77.4698 127.49 76.8658 129.015C76.3566 130.302 75.6912 131.115 75.1668 132.556C74.8059 133.548 74.629 134.284 74.03 135.153C73.2577 136.273 71.7097 137.269 71.7097 137.269C71.7097 137.269 70.1582 137.965 68.8739 137.914C67.5735 137.863 67.4011 137.269 66.4464 136.882C63.2788 135.599 60.7743 136.8 58.1634 134.057C58.7767 132.063 58.5769 130.078 57.0299 128.465L51.799 127.489C51.7525 126.625 51.7107 125.89 51.6689 125.114C53.202 123.31 54.7071 121.535 56.5003 119.425L58.7151 117.105C57.8136 114.721 58.0646 113.833 59.9373 112.56C61.1408 111.742 62.5548 110.633 63.8467 109.745C67.072 111.464 69.083 112.026 72.7868 113.043C73.7302 113.197 74.2697 113.349 75.1901 113.043C76.029 112.342 82.8111 80.9387 82.7953 79.6957C82.7796 78.4528 84.6457 77.2058 86.6706 78.4061C89.9423 80.3453 90.8716 81.7548 94.3966 87.2301C102.197 82.3833 107.552 79.4625 113.861 77.7243L114.119 78.2024C114.119 78.2024 111.126 80.5337 110.638 80.9107C109.851 81.5185 108.95 82.2996 108.189 83.1032C107.264 84.0802 106.353 84.547 105.611 85.5535C103.865 87.9222 102.908 90.0786 98.2209 89.8108C96.7974 89.8108 95.617 90.4904 94.2677 91.486C93.1661 92.2988 92.8465 94.398 91.8933 94.0654C90.5483 93.596 88.3382 94.7102 88.2092 95.613C88.0803 96.5158 85.9403 96.8482 85.3734 97.7311C84.8065 98.614 85.2514 101.388 84.9427 103.708C84.5416 106.722 84.4617 108.505 83.3138 111.32C82.4086 114.829 82.2121 114.74 80.8618 116.893C79.7983 118.588 77.5071 120.081 77.5103 121.277Z" fill="white"/>
<path d="M141.558 102.071C140.329 101.648 139.173 100.917 138.189 99.9405C136.698 98.4619 136.692 98.4367 136.7 94.3383C136.704 92.4481 136.779 90.071 136.866 89.0558C136.927 88.3505 137.05 86.7537 137.196 84.8658C137.196 84.8621 137.196 84.8584 137.197 84.8547L137.197 84.8539L137.197 84.8536C137.303 83.4763 137.421 81.9451 137.536 80.4924C137.744 77.8484 137.941 75.4648 138.032 74.7439L138.178 73.5987H139.534V95.1657H141.175V73.5987H143.068V95.1657H143.904L144.724 95.1821V73.604H146.652V95.1821H148.323V73.604H149.703L149.851 74.7499C149.995 75.8676 150.397 80.9798 150.701 84.8656L150.701 84.866L150.702 84.8686L150.702 84.8692C150.702 84.8701 150.702 84.871 150.702 84.8719C150.711 84.9892 150.72 85.1054 150.729 85.2204C150.865 86.9577 150.979 88.406 151.038 89.0685C151.087 89.6362 151.133 90.6295 151.165 91.7255C151.189 92.5907 151.205 93.5199 151.207 94.3542C151.215 98.455 151.209 98.4802 149.691 99.9597C148.689 100.937 147.513 101.668 146.262 102.092L145.495 102.351L145.496 103.065C145.496 103.458 145.932 109.677 145.932 109.677L147.018 118.069L147.031 118.071C147.147 118.088 147.262 118.106 147.378 118.125L147.388 118.127C147.766 118.19 148.145 118.267 148.527 118.36C148.502 118.84 148.482 119.249 148.462 119.653L148.457 119.765C148.451 119.869 148.446 119.973 148.441 120.078C148.438 120.137 148.435 120.198 148.432 120.258C148.43 120.295 148.429 120.331 148.427 120.368C148.422 120.465 148.417 120.563 148.412 120.663C148.052 120.735 147.694 120.8 147.337 120.858C147.222 120.877 147.108 120.895 146.993 120.912L146.968 120.916C146.921 120.923 146.873 120.93 146.826 120.937C144.773 121.23 142.753 121.268 140.575 120.898C140.523 120.89 140.472 120.881 140.42 120.872C140.395 120.867 140.371 120.863 140.346 120.858C139.891 120.776 139.428 120.675 138.957 120.555C139.05 120.215 139.13 119.921 139.203 119.653C139.217 119.602 139.23 119.552 139.243 119.503C139.246 119.493 139.249 119.483 139.252 119.473C139.268 119.413 139.284 119.354 139.299 119.296C139.315 119.238 139.33 119.181 139.346 119.125L139.389 118.965L139.389 118.965L139.392 118.955L139.392 118.953C139.392 118.953 139.393 118.952 139.393 118.951C139.394 118.947 139.395 118.942 139.396 118.938C139.469 118.669 139.539 118.411 139.614 118.134L139.73 118.125L139.732 118.124C139.739 118.124 139.745 118.123 139.751 118.123C139.832 118.116 139.913 118.109 139.994 118.102C140.061 118.097 140.128 118.091 140.194 118.085C140.422 118.066 140.649 118.048 140.876 118.03L140.894 118.028L141.975 109.677C141.975 109.677 142.31 103.437 142.31 103.044L142.311 102.33L141.558 102.071Z" fill="white"/>
<path d="M146.963 122.413C146.926 122.939 146.897 123.38 146.868 123.82L146.866 123.85C146.865 123.864 146.864 123.878 146.863 123.892C146.85 124.099 146.836 124.307 146.821 124.524L146.819 124.559H140.699C140.697 124.509 140.694 124.46 140.691 124.41C140.689 124.368 140.687 124.327 140.685 124.286C140.676 124.129 140.667 123.975 140.659 123.82C140.639 123.469 140.619 123.118 140.598 122.75L140.575 122.339H146.968L146.963 122.413Z" fill="white"/>
<path d="M155.658 128.284C156.151 128.852 156.231 130.023 156.067 130.831C155.146 135.432 154.19 140.032 153.055 144.589C152.124 148.302 149.906 150.892 146.859 152.689C146.682 152.794 146.501 152.896 146.318 152.996C145.514 153.432 144.659 153.817 143.758 154.157C143.568 154.229 143.359 154.248 143.128 154.27L143.127 154.27L143.127 154.27C143.025 154.279 142.919 154.289 142.807 154.304C142.477 154.304 142.199 154.268 141.877 154.193C141.595 154.128 141.279 154.034 140.864 153.911L140.68 153.857C140.583 153.802 140.485 153.75 140.387 153.7C140.365 153.689 140.344 153.678 140.322 153.668C140.303 153.658 140.283 153.648 140.263 153.638C140.18 153.597 140.097 153.557 140.014 153.517L140.013 153.517L139.947 153.485C139.313 153.179 138.696 152.866 138.275 152.208C138.093 151.924 137.948 151.576 137.853 151.137C137.821 150.991 137.795 150.835 137.776 150.669C138.298 150.722 138.81 150.773 139.315 150.824C139.425 150.835 139.534 150.846 139.644 150.857C139.675 150.86 139.706 150.863 139.737 150.866C139.774 150.87 139.81 150.873 139.847 150.877C139.928 150.885 140.009 150.893 140.09 150.901C140.368 150.929 140.645 150.956 140.921 150.984C141.589 151.05 142.25 151.114 142.912 151.178C142.335 150.667 141.722 150.339 141.09 150.123C140.74 150.004 140.383 149.919 140.024 149.856C139.9 149.835 139.776 149.816 139.652 149.799C139.444 149.771 139.235 149.75 139.025 149.731C138.689 149.702 138.351 149.682 138.015 149.663L138.014 149.663L138.014 149.663L137.88 149.655C137.289 149.62 136.701 149.581 136.128 149.487C135.796 149.433 135.468 149.36 135.148 149.258C134.013 147.761 134.176 146.519 135.142 145.363C135.285 145.192 135.445 145.023 135.621 144.856C135.681 144.799 135.742 144.743 135.805 144.687C136.932 144.54 138.078 144.517 139.227 144.499L139.347 144.497C139.459 144.495 139.572 144.493 139.684 144.491C140.531 144.477 141.378 144.456 142.218 144.38C143.096 144.302 143.967 144.164 144.823 143.913C144.03 143.629 143.221 143.5 142.401 143.452C141.523 143.4 140.632 143.441 139.734 143.482L139.733 143.482C139.696 143.484 139.658 143.486 139.62 143.487C139.463 143.495 139.305 143.502 139.147 143.508C137.98 143.556 136.803 143.571 135.628 143.354C135.492 143.329 135.357 143.301 135.221 143.269C134.447 143.089 133.675 142.798 132.908 142.34C133.087 141.715 133.258 141.119 133.422 140.543L133.422 140.541L133.423 140.54L133.423 140.539L133.427 140.525L133.428 140.521C133.429 140.518 133.43 140.515 133.431 140.512C133.532 140.158 133.631 139.812 133.728 139.471C133.755 139.377 133.782 139.283 133.809 139.19C134.602 139.138 135.36 139.089 136.095 139.04L136.097 139.04C136.661 139.003 137.211 138.967 137.752 138.932L137.752 138.932C138.097 138.909 138.437 138.887 138.775 138.866C138.959 138.854 139.143 138.843 139.326 138.831C139.954 138.792 140.574 138.755 141.195 138.719C141.914 138.68 142.633 138.643 143.353 138.608C144.236 138.564 145.119 138.523 146.003 138.481L146.59 138.454C146.987 138.435 147.384 138.416 147.782 138.397L147.909 138.391C147.907 138.318 147.906 138.245 147.905 138.173C147.903 138.027 147.901 137.882 147.894 137.735L147.877 137.732C147.749 137.71 147.622 137.683 147.494 137.656L147.493 137.656L147.493 137.656C147.181 137.59 146.868 137.523 146.555 137.534C145.55 137.571 144.544 137.617 143.538 137.664C143.359 137.673 143.179 137.681 142.999 137.69L142.949 137.692L142.939 137.693L142.939 137.693L142.939 137.693L142.938 137.693L142.937 137.693L142.935 137.693C142.337 137.721 141.74 137.75 141.142 137.776L141.14 137.776C140.515 137.805 139.889 137.831 139.264 137.854C139.074 137.86 138.885 137.867 138.695 137.873C138.372 137.884 138.049 137.893 137.726 137.901C137.3 137.912 136.869 137.946 136.438 137.981C135.523 138.054 134.607 138.128 133.729 137.972C133.462 137.925 133.2 137.857 132.942 137.762C132.587 137.63 132.242 137.447 131.907 137.196C131.478 134.666 131.985 133.313 133.714 132.828C133.951 132.761 134.212 132.711 134.496 132.677C134.756 132.645 135.036 132.626 135.337 132.62C136.315 132.598 137.293 132.584 138.27 132.574C138.49 132.572 138.71 132.57 138.929 132.568C140.224 132.558 141.519 132.554 142.814 132.55C142.815 132.55 142.816 132.55 142.816 132.55H142.819C142.824 132.55 142.829 132.55 142.835 132.55C143.405 132.548 143.975 132.547 144.545 132.544C145.751 132.539 146.957 132.532 148.163 132.517C148.573 132.513 148.981 132.399 149.388 132.285L149.389 132.285C149.551 132.239 149.713 132.194 149.875 132.155C149.878 132.155 149.88 132.154 149.883 132.154C149.884 132.153 149.885 132.153 149.885 132.153C149.89 132.152 149.895 132.151 149.899 132.15C149.901 132.149 149.902 132.149 149.903 132.149C149.904 132.149 149.904 132.149 149.905 132.149C149.906 132.148 149.906 132.148 149.907 132.148C149.908 132.148 149.908 132.148 149.909 132.148C149.912 132.147 149.916 132.146 149.919 132.145L149.92 132.145L149.921 132.145C149.926 132.144 149.932 132.142 149.938 132.141C149.94 132.14 149.943 132.14 149.945 132.139L149.945 132.139C149.942 132.113 149.938 132.087 149.935 132.06C149.914 131.876 149.892 131.692 149.875 131.507H138.862H134.496C134.397 131.41 134.305 131.314 134.22 131.219C132.642 129.47 133.149 128.076 134.65 126.417C135.672 126.256 136.704 126.114 137.743 126C137.998 125.972 138.253 125.946 138.508 125.922C138.762 125.898 139.017 125.876 139.271 125.856C139.746 125.819 140.222 125.789 140.699 125.767C142.403 125.69 144.122 125.718 145.85 125.9C146.173 125.934 146.496 125.974 146.819 126.019C146.844 126.022 146.868 126.026 146.893 126.029C146.918 126.033 146.943 126.036 146.969 126.04C147.237 126.079 147.506 126.122 147.775 126.169C148.46 126.289 149.147 126.436 149.834 126.613C150.256 126.722 150.679 126.843 151.102 126.975C151.11 126.977 151.118 126.98 151.126 126.983C151.138 126.986 151.15 126.99 151.162 126.994C151.163 126.994 151.164 126.994 151.165 126.995L151.166 126.995C151.168 126.996 151.171 126.997 151.173 126.997C151.174 126.998 151.175 126.998 151.176 126.998C151.18 127 151.184 127.001 151.187 127.002C151.199 127.005 151.21 127.009 151.221 127.013C151.239 127.018 151.256 127.024 151.274 127.029C151.318 126.819 151.363 126.608 151.408 126.402C150.426 125.888 149.449 125.374 148.304 124.77L148.203 124.717L148.208 124.651C148.24 124.211 148.274 123.774 148.308 123.332L148.331 123.036L148.331 123.033L148.331 123.032L148.351 122.782C148.354 122.738 148.357 122.694 148.361 122.65C148.362 122.64 148.362 122.629 148.363 122.619C148.364 122.611 148.364 122.604 148.365 122.596C148.369 122.543 148.373 122.49 148.377 122.436C148.38 122.401 148.383 122.366 148.385 122.331C148.389 122.279 148.393 122.227 148.397 122.175L148.407 122.047C148.412 121.983 148.417 121.92 148.422 121.856C148.449 121.858 148.475 121.861 148.501 121.863C148.543 121.866 148.583 121.868 148.623 121.871C148.635 121.871 148.647 121.872 148.658 121.872C148.786 121.878 148.903 121.88 149.008 121.881H149.008C149.241 121.883 149.417 121.884 149.529 121.938C149.532 121.939 149.534 121.94 149.537 121.942C149.538 121.942 149.54 121.943 149.541 121.944C149.542 121.944 149.542 121.944 149.543 121.945C149.545 121.946 149.546 121.946 149.547 121.947C149.568 121.959 149.586 121.972 149.601 121.988C149.697 122.084 149.793 122.181 149.89 122.277C150.151 122.538 150.412 122.799 150.674 123.06L150.678 123.063C152.383 124.763 154.092 126.467 155.658 128.284Z" fill="white"/>
<path fill-rule="evenodd" clip-rule="evenodd" d="M149.95 119.847L149.949 119.859C149.948 119.882 149.947 119.905 149.946 119.928C149.947 119.901 149.949 119.874 149.95 119.847ZM150.702 84.8692C150.702 84.8701 150.702 84.871 150.702 84.8719L150.702 84.8692Z" fill="#D9D9D9"/>
<path d="M50.5966 127.177H44.7901L44.79 127.176H44.7848L44.7786 127.083C44.766 126.894 44.754 126.711 44.742 126.53L44.7397 126.493C44.7127 126.082 44.6857 125.671 44.6522 125.186L44.643 125.054H50.7094L50.7093 125.055H50.7147L50.6926 125.447C50.6588 126.044 50.6277 126.595 50.5966 127.177Z" fill="white"/>
<path d="M53.6518 102.783C53.8635 101.383 53.7297 99.1577 53.7297 99.1577C53.7297 99.1577 53.6783 96.0984 53.4913 94.4823C52.9359 89.6806 52.4639 86.1218 50.9717 80.963C50.1669 78.1806 49.9402 77.5704 48.5404 73.9564C48.1873 73.0449 47.9581 72.5953 47.7723 72.5649C47.5657 72.5224 47.4134 72.9947 47.2064 73.9236C47.1834 74.0269 47.1597 74.1359 47.1352 74.2504C47.1297 74.2762 47.1224 74.315 47.1135 74.3665C46.898 75.6093 45.7354 84.2398 45.7354 95.7129C45.7354 108.796 45.544 112.344 45.3601 115.753C45.3105 116.675 45.2613 117.586 45.2166 118.672L45.0974 120.909L45.0723 120.911C44.5874 120.968 44.1001 121.045 43.6089 121.15C43.461 121.181 43.3128 121.215 43.1642 121.252C43.1897 121.751 43.2101 122.17 43.2305 122.588L43.2305 122.588L43.2306 122.59L43.2307 122.592C43.239 122.764 43.2473 122.935 43.256 123.111L43.2671 123.336L43.2729 123.453C43.4521 123.489 43.6307 123.523 43.8088 123.556C43.8292 123.559 43.8496 123.563 43.87 123.567C46.6151 124.061 49.2434 124.12 52.2502 123.351C52.0806 122.728 51.9562 122.264 51.8402 121.831L51.8399 121.83C51.7685 121.564 51.7003 121.31 51.6266 121.037L51.6214 121.037L51.6212 121.036L51.5102 121.027L51.5043 121.026C51.0169 120.985 50.5336 120.944 50.053 120.908L50.023 120.906L49.8647 118.78C49.8282 118.021 49.7934 117.322 49.7613 116.676C49.5163 111.751 49.4269 109.953 49.9192 108.774C50.0661 108.422 50.4515 108.097 50.8885 107.728C51.2842 107.394 51.7222 107.024 52.0635 106.567C52.1077 106.508 52.1505 106.451 52.192 106.395C52.6565 105.776 52.9626 105.367 53.2547 104.596C53.4727 104.021 53.5287 103.633 53.6068 103.09L53.607 103.089C53.6209 102.993 53.6355 102.892 53.6518 102.783Z" fill="white"/>
<path d="M40.4356 128.938C41.3943 128.433 42.3483 127.927 43.477 127.328C43.4377 126.791 43.3968 126.26 43.3552 125.719L43.3551 125.718L43.355 125.717L43.3549 125.715L43.3444 125.578C43.3195 125.254 43.2943 124.927 43.2692 124.593L43.264 124.594C43.0541 124.614 42.8696 124.616 42.7125 124.617C42.437 124.62 42.2459 124.622 42.1499 124.72C41.811 125.062 41.4707 125.404 41.1302 125.746L41.1286 125.747L41.1284 125.748C39.9769 126.904 38.8238 128.061 37.719 129.258L37.6855 129.294C37.2492 129.768 36.8205 130.248 36.4025 130.736C36.2591 130.903 36.1525 131.123 36.0783 131.372L36.0777 131.355C35.9051 131.919 35.9008 132.629 36.0099 133.17C36.6522 136.402 37.3124 139.634 38.0449 142.85C38.2176 143.608 38.3942 144.365 38.5756 145.12C38.6714 145.519 38.7686 145.918 38.8671 146.317C39.0497 147.05 39.2843 147.737 39.5672 148.381C40.5777 150.682 42.2034 152.434 44.2706 153.764C44.4099 153.853 44.5512 153.941 44.6945 154.027C44.9101 154.156 45.1301 154.281 45.3543 154.402C46.0215 154.761 46.7262 155.084 47.4637 155.374C47.5385 155.403 47.6136 155.432 47.689 155.461C47.7644 155.489 47.843 155.509 47.9249 155.524C47.9683 155.532 48.0127 155.539 48.058 155.545C48.1145 155.552 48.1725 155.558 48.2322 155.564C48.252 155.565 48.2719 155.567 48.2921 155.569L48.2925 155.569C48.3895 155.578 48.4907 155.588 48.5964 155.602C49.0346 155.602 49.376 155.533 49.8719 155.394C50.3782 154.368 50.9202 153.339 51.4886 152.317L51.2269 152.343C50.8788 152.378 50.5338 152.413 50.1907 152.447C49.6236 152.503 49.0616 152.559 48.4991 152.613C49.6029 151.629 50.8415 151.357 52.099 151.24C53.0573 149.579 54.0773 147.949 55.1185 146.395C54.5061 146.32 53.8881 146.282 53.2674 146.26C52.8332 146.245 52.3977 146.237 51.9618 146.23L51.8746 146.229L51.8712 146.229C50.6405 146.208 49.4073 146.188 48.1945 146.003C48.0725 145.985 47.9508 145.964 47.8291 145.942L47.8131 145.939C47.4342 145.87 47.0575 145.782 46.6837 145.672C47.096 145.523 47.513 145.419 47.9339 145.347C48.0096 145.334 48.0855 145.323 48.1615 145.312C49.2575 145.156 50.3792 145.208 51.5131 145.26C52.0288 145.284 52.547 145.308 53.0666 145.312C54.071 145.321 55.0805 145.258 56.0865 144.982C56.597 144.253 57.1095 143.546 57.6193 142.865L57.5012 142.449L57.4995 142.443C57.3751 142.004 57.2541 141.577 57.1349 141.158L57.1298 141.158L57.1296 141.157C56.3771 141.108 55.6572 141.061 54.9604 141.014L54.9585 141.014L54.958 141.014L54.9243 141.012C54.4007 140.977 53.8901 140.943 53.3884 140.911C52.2704 140.837 51.1962 140.769 50.1212 140.708C49.9785 140.7 49.8359 140.692 49.6932 140.684C49.4948 140.674 49.2964 140.663 49.0979 140.653C47.9194 140.592 46.7396 140.536 45.5595 140.48L45.5566 140.48L45.555 140.48L45.0059 140.454L45.0025 140.454C44.6392 140.437 44.2758 140.419 43.9125 140.402L43.87 140.4L43.7556 140.394C43.7572 140.325 43.7583 140.255 43.7593 140.187C43.7614 140.047 43.7635 139.908 43.7698 139.768C43.8961 139.746 44.0229 139.719 44.15 139.692L44.1506 139.692C44.4461 139.629 44.7431 139.566 45.0402 139.576C46.1838 139.618 47.3275 139.673 48.4714 139.727C50.1194 139.806 51.7679 139.885 53.4182 139.927C53.8225 139.937 54.2313 139.97 54.6404 140.003L54.6406 140.003C56.1331 140.124 57.6306 140.245 58.939 139.253C59.3788 136.644 58.7843 135.345 56.8136 134.984C56.7058 134.964 56.5939 134.947 56.4779 134.933C56.2309 134.903 55.9651 134.885 55.6797 134.879C53.3133 134.827 50.9468 134.819 48.5804 134.812C47.7881 134.81 46.9957 134.807 46.2034 134.803L46.1812 134.803C45.2906 134.798 44.4 134.792 43.5095 134.78C43.3565 134.779 43.2039 134.761 43.0516 134.734C42.8179 134.691 42.5848 134.625 42.3519 134.56C42.1759 134.51 42 134.46 41.8241 134.421C41.8477 134.219 41.8713 134.018 41.8902 133.817H56.4832C58.292 132.014 57.8386 130.624 56.3368 128.952C56.3356 128.952 56.3343 128.952 56.333 128.952L56.3315 128.951C54.9053 128.726 53.4599 128.537 52.0004 128.42C51.5321 128.382 51.0623 128.352 50.5913 128.331C48.6731 128.243 46.7338 128.297 44.7848 128.571C44.6075 128.596 44.4301 128.622 44.2526 128.651C44.1895 128.661 44.1263 128.672 44.0632 128.682C43.3686 128.8 42.6731 128.946 41.977 129.125C41.666 129.205 41.3549 129.292 41.0438 129.385C40.9354 129.418 40.8271 129.451 40.7187 129.485C40.6666 129.502 40.6146 129.518 40.5626 129.535C40.5203 129.335 40.4779 129.134 40.4356 128.938Z" fill="white"/>
<path d="M55.8645 150.78C57.1538 149.066 56.6768 147.704 55.2411 146.411L55.2362 146.411L55.2358 146.41C55.1967 146.405 55.1577 146.4 55.1185 146.395C54.0773 147.949 53.0573 149.579 52.099 151.24C52.4471 151.208 52.7966 151.187 53.1451 151.166C54.0743 151.112 54.9964 151.058 55.8645 150.78Z" fill="white"/>
<path fill-rule="evenodd" clip-rule="evenodd" d="M138.508 125.922L138.862 131.507L149.899 132.15L149.885 132.153L149.883 132.154L149.875 132.155C149.713 132.194 149.551 132.239 149.389 132.285L149.388 132.285C148.981 132.399 148.573 132.513 148.163 132.517C146.957 132.532 145.751 132.539 144.545 132.544C143.975 132.547 143.405 132.548 142.835 132.55L142.819 132.55H142.816H142.814C141.519 132.554 140.224 132.558 138.929 132.568L139.264 137.854C139.889 137.831 140.515 137.805 141.14 137.776L141.142 137.776C141.74 137.75 142.337 137.721 142.935 137.693L142.937 137.693L142.938 137.693L142.939 137.693L142.939 137.693L142.939 137.693L142.949 137.692L142.999 137.69C143.179 137.681 143.359 137.673 143.538 137.664C144.544 137.617 145.55 137.571 146.555 137.534C146.868 137.523 147.181 137.59 147.493 137.656L147.493 137.656L147.494 137.656C147.622 137.683 147.749 137.71 147.877 137.732L147.894 137.735C147.901 137.882 147.903 138.027 147.905 138.173C147.906 138.245 147.907 138.318 147.909 138.391L147.782 138.397C147.384 138.416 146.987 138.435 146.59 138.454L146.003 138.481C145.119 138.523 144.236 138.564 143.353 138.608C142.633 138.643 141.914 138.68 141.195 138.719C140.574 138.755 139.954 138.792 139.326 138.831L139.62 143.487L139.733 143.482L139.734 143.482C140.632 143.441 141.523 143.4 142.401 143.452C143.221 143.5 144.03 143.629 144.823 143.913C143.967 144.164 143.096 144.302 142.218 144.38C141.378 144.456 140.531 144.477 139.684 144.491L140.024 149.856C140.383 149.919 140.74 150.004 141.09 150.123C141.722 150.339 142.335 150.667 142.912 151.178C142.25 151.114 141.589 151.05 140.921 150.984C140.645 150.956 140.368 150.929 140.09 150.901L140.113 151.27C140.025 151.138 139.936 151.007 139.847 150.877L139.737 150.866L139.644 150.857L139.315 150.824C138.81 150.773 138.298 150.722 137.776 150.669C137.795 150.835 137.821 150.991 137.853 151.137C137.948 151.576 138.093 151.924 138.275 152.208C138.696 152.866 139.313 153.179 139.947 153.485L140.013 153.517L140.014 153.517C140.097 153.557 140.18 153.597 140.263 153.638C140.283 153.648 140.303 153.658 140.322 153.668C140.344 153.678 140.365 153.689 140.387 153.7C140.485 153.75 140.583 153.802 140.68 153.857L140.864 153.911C141.279 154.034 141.595 154.128 141.877 154.193C142.199 154.268 142.477 154.304 142.807 154.304C142.919 154.289 143.025 154.279 143.127 154.27L143.127 154.27L143.128 154.27C143.359 154.248 143.568 154.229 143.758 154.157C144.659 153.817 145.514 153.432 146.318 152.996C146.501 152.896 146.682 152.794 146.859 152.689C149.906 150.892 152.124 148.302 153.055 144.589C154.19 140.032 155.146 135.432 156.067 130.831C156.231 130.023 156.151 128.852 155.658 128.284C154.092 126.467 152.383 124.763 150.678 123.063L150.674 123.06C150.412 122.799 150.151 122.538 149.89 122.277C149.793 122.181 149.697 122.084 149.601 121.988C149.586 121.972 149.568 121.959 149.547 121.947L149.543 121.945L149.541 121.944L149.537 121.942C149.534 121.94 149.532 121.939 149.529 121.938C149.417 121.884 149.241 121.883 149.008 121.881H149.008C148.903 121.88 148.786 121.878 148.658 121.872C148.647 121.872 148.635 121.871 148.623 121.871C148.583 121.868 148.543 121.866 148.501 121.863C148.475 121.861 148.449 121.858 148.422 121.856L148.407 122.047L148.397 122.175L148.385 122.331L148.377 122.436L148.365 122.596L148.363 122.619L148.361 122.65L148.351 122.782L148.331 123.032L148.331 123.033L148.331 123.036L148.308 123.332C148.274 123.774 148.24 124.211 148.208 124.651L148.203 124.717L148.304 124.77C149.449 125.374 150.426 125.888 151.408 126.402C151.363 126.608 151.318 126.819 151.274 127.029C151.256 127.024 151.239 127.018 151.221 127.013L151.176 126.998L151.173 126.997L151.166 126.995L151.165 126.995L151.162 126.994L151.126 126.983L151.102 126.975C150.679 126.843 150.256 126.722 149.834 126.613C149.147 126.436 148.46 126.289 147.775 126.169C147.506 126.122 147.237 126.079 146.969 126.04C146.943 126.036 146.918 126.033 146.893 126.029C146.868 126.026 146.844 126.022 146.819 126.019C146.496 125.974 146.173 125.934 145.85 125.9C144.122 125.718 142.403 125.69 140.699 125.767C140.222 125.789 139.746 125.819 139.271 125.856C139.017 125.876 138.762 125.898 138.508 125.922ZM138.862 131.507L149.907 132.148L149.909 132.148L149.919 132.145L149.92 132.145L149.921 132.145L149.938 132.141L149.945 132.139L149.945 132.139L149.935 132.06C149.914 131.876 149.892 131.692 149.875 131.507H138.862ZM135.142 145.363C136.539 146.692 137.831 148.133 139.025 149.731C138.689 149.702 138.351 149.682 138.015 149.663L138.014 149.663L138.014 149.663L137.88 149.655C137.289 149.62 136.701 149.581 136.128 149.487C135.796 149.433 135.468 149.36 135.148 149.258C134.013 147.761 134.176 146.519 135.142 145.363ZM138.189 99.9405C139.173 100.917 140.329 101.648 141.558 102.071L142.311 102.33L142.31 103.044C142.31 103.437 141.975 109.677 141.975 109.677L140.894 118.028L140.876 118.03C140.649 118.048 140.422 118.066 140.194 118.085C140.128 118.091 140.061 118.097 139.994 118.102L139.751 118.123L139.732 118.124L148.441 120.078L148.457 119.765L148.462 119.653C148.482 119.249 148.502 118.84 148.527 118.36C148.145 118.267 147.766 118.19 147.388 118.127L147.378 118.125C147.262 118.106 147.147 118.088 147.031 118.071L147.018 118.069L145.932 109.677C145.932 109.677 145.496 103.458 145.496 103.065L145.495 102.351L146.262 102.092C147.513 101.668 148.689 100.937 149.691 99.9597C151.209 98.4802 151.215 98.455 151.207 94.3542C151.205 93.5199 151.189 92.5907 151.165 91.7255C151.133 90.6295 151.087 89.6362 151.038 89.0685C150.979 88.406 150.865 86.9577 150.729 85.2204L150.702 84.8719L150.702 84.8692L150.702 84.8686L150.701 84.866L150.701 84.8656C150.397 80.9798 149.995 75.8676 149.851 74.7499L149.703 73.604H148.323V95.1821H146.652V73.604H144.724V95.1821L143.904 95.1657H143.068V73.5987H141.175V95.1657H139.534V73.5987H138.178L138.032 74.7439C137.941 75.4648 137.744 77.8484 137.536 80.4924C137.421 81.9451 137.303 83.4763 137.197 84.8536L137.197 84.8539L137.197 84.8547L137.196 84.8658C137.05 86.7537 136.927 88.3505 136.866 89.0558C136.779 90.071 136.704 92.4481 136.7 94.3383C136.692 98.4367 136.698 98.4619 138.189 99.9405ZM146.868 123.82C146.897 123.38 146.926 122.939 146.963 122.413L146.968 122.339H140.575L140.598 122.75C140.619 123.118 140.639 123.469 140.659 123.82C140.667 123.975 140.676 124.129 140.685 124.286L140.691 124.41L140.699 124.559H146.819L146.821 124.524C146.836 124.307 146.85 124.099 146.863 123.892L146.866 123.85L146.868 123.82ZM57.6193 142.865C57.1095 143.546 56.597 144.253 56.0865 144.982C56.7231 144.808 57.3582 144.549 57.9897 144.169C57.8618 143.72 57.7388 143.287 57.6193 142.865ZM51.4886 152.317C50.9202 153.339 50.3782 154.368 49.8719 155.394C50.0403 155.346 50.2266 155.291 50.4405 155.227L50.4507 155.224L50.5266 155.201L50.6149 155.175C50.8225 155.056 51.0359 154.953 51.2479 154.85L51.2503 154.849L51.2522 154.848C51.3029 154.823 51.3536 154.798 51.4041 154.774C51.6956 154.631 51.981 154.482 52.241 154.291C52.795 153.884 53.2337 153.284 53.371 152.128L53.3654 152.129L53.3656 152.127C52.8498 152.18 52.3452 152.231 51.8483 152.281L51.6446 152.301L51.4886 152.317Z" fill="white"/>
<path d="M117.439 156.918C116.206 157.672 109.776 154.465 109.776 154.465C109.776 154.465 95.5578 147.862 88.3802 144.528L87.2572 144.006C84.7407 142.837 82.8362 141.911 80.9263 140.982L80.926 140.982L80.9258 140.982L80.9255 140.982L80.9252 140.982C78.9997 140.046 77.0685 139.107 74.4989 137.913C69.609 139.75 68.0336 138.889 66.5103 138.056C65.4602 137.482 64.4348 136.921 62.3654 137.267C61.7426 137.891 61.0845 138.604 60.404 139.391C60.3984 139.427 60.3925 139.462 60.3866 139.497L60.2893 140.074L59.8234 140.427C59.6165 140.584 59.407 140.72 59.1961 140.838C59.043 141.027 58.8892 141.22 58.7348 141.415L58.7409 141.436L58.8318 141.757L58.833 141.761L58.8361 141.772L58.9144 142.048L58.9154 142.052C59.0705 142.599 59.2307 143.164 59.4013 143.763L59.7112 144.85L58.7435 145.432C58.5699 145.536 58.3962 145.633 58.2226 145.723L58.2209 145.723C58.2072 145.73 58.1936 145.737 58.18 145.744L58.1687 145.75C57.8995 145.887 57.6306 146.006 57.3623 146.11C57.2678 146.147 57.1734 146.181 57.0791 146.214C57.1787 146.34 57.2735 146.469 57.3623 146.603C57.6704 147.067 57.9061 147.584 58.0164 148.158C58.1918 149.072 58.0193 149.955 57.5902 150.79C57.4642 151.036 57.3161 151.277 57.1481 151.513L57.142 151.522L57.1413 151.523C57.1071 151.571 57.072 151.619 57.0362 151.666L56.7542 152.041L56.3078 152.184C55.8651 152.326 55.4233 152.417 54.997 152.48C54.9729 152.484 54.9488 152.487 54.9249 152.491C54.9067 152.493 54.8886 152.496 54.8706 152.498L54.8645 152.499L54.8476 152.501L54.8285 152.504L54.8012 152.507C54.7914 152.572 54.7808 152.636 54.7694 152.699C54.7555 152.775 54.7403 152.85 54.724 152.924C54.6319 153.337 54.5013 153.706 54.3362 154.035C54.0603 154.584 53.6881 155.023 53.2388 155.379C53.1354 155.461 53.0308 155.536 52.9269 155.606C52.6596 155.784 52.3972 155.923 52.1726 156.035L52.1487 156.047C52.033 156.105 51.9328 156.153 51.8419 156.197L51.8408 156.198L51.8403 156.198C51.6512 156.29 51.5025 156.362 51.3393 156.455L51.1922 156.539L51.0299 156.587C50.9557 156.61 50.8832 156.631 50.8121 156.653L50.8062 156.654L50.8059 156.655L50.7954 156.658L50.79 156.659C50.6813 156.692 50.5758 156.724 50.4726 156.754C49.9937 156.895 49.5626 157.006 49.0833 157.053C47.883 159.419 68.8844 149.207 90.7192 162.409C112.554 175.612 144.92 165.507 142.7 155.784C141.905 155.769 141.281 155.582 140.487 155.346L140.369 155.31L140.326 155.298L140.252 155.276L140.087 155.227L139.937 155.142C139.764 155.044 139.605 154.967 139.404 154.871L139.404 154.87C139.367 154.853 139.328 154.834 139.288 154.815C139.224 154.784 139.156 154.75 139.081 154.714C138.749 154.549 138.337 154.332 137.942 154.021C137.097 153.356 136.514 152.41 136.312 151.01C135.789 150.944 135.24 150.843 134.691 150.668L134.237 150.524L133.951 150.147C133.099 149.022 132.684 147.802 132.93 146.529C133.084 145.735 133.471 145.048 133.964 144.451C133.357 144.246 132.745 143.972 132.135 143.608L131.157 143.023L131.387 142.221C126.314 138.459 120.102 135.489 112.525 131.867L112.192 131.708C114.06 132.601 114.689 133.563 115.556 134.891L115.557 134.891L115.557 134.892C115.752 135.19 115.959 135.506 116.194 135.845C117.872 139.853 118.647 142.05 118.647 147.997L118.643 148.123L118.643 148.124L118.643 148.125C118.615 148.952 118.664 149.632 119.117 150.454C119.437 151.033 119.726 151.758 119.763 152.651C119.841 154.548 118.672 156.164 117.439 156.918Z" fill="white"/>
<path fill-rule="evenodd" clip-rule="evenodd" d="M154.159 154.721C166.222 141.742 173.831 124.959 172.499 104.608C172.499 82.3284 165.008 62.1153 146.925 47.5196C133.046 36.3163 113.388 31.1758 94.0513 31.7129C82.9083 31.7129 71.0431 34.6369 61.2868 38.5164C47.8986 43.84 37.6944 51.2924 30.1338 62.3287C21.9715 74.2435 19.3913 87.4644 19.3916 103.15C19.392 123.202 25.275 140.703 38.1908 153.102C52.3605 167.725 74.7897 179.52 97.8454 179.52C120.649 179.52 140.498 169.419 154.159 154.721ZM47.2171 54.7518C34.1848 66.794 29.6515 84.6549 29.6515 100.991C29.6515 111.836 31.2681 121.293 38.1908 131.438C48.5751 146.657 74.3569 158.595 93.9725 158.595C109.868 158.595 127.893 153.99 140.47 143.355C154.646 131.367 162.427 112.348 162.427 95.566C162.427 78.6963 155.509 64.4174 141.761 53.7185C126.779 41.5776 111.841 37.4445 96.039 37.4445C87.1554 37.4445 75.8486 39.4465 66.5908 42.8692C58.787 45.7543 52.813 49.581 47.2171 54.7518Z" fill="#F86F0E"/>
<path d="M36.5502 18.7275C35.5042 16.6719 31.0439 13.5323 31.0439 13.5323C31.0439 13.5323 38.8617 7.44068 50.0068 11.4894C57.4097 14.1788 60.7694 28.9657 60.7694 28.9657C60.7694 28.9657 56.8971 24.9746 54.3751 25.5515C51.8532 26.1284 51.5898 25.8676 49.8114 25.7348C47.6367 25.5724 46.39 25.3297 44.3575 24.5439C40.8081 23.1718 36.5502 18.7275 36.5502 18.7275Z" fill="#9BAB49"/>
<path d="M39.9837 18.431C30.7243 18.1188 26.4248 28.8196 26.4248 28.8196C26.4248 28.8196 29.1537 29.1671 31.1509 30.0248C35.927 32.0757 36.8446 32.2254 41.9175 31.277C45.6243 30.584 54.2373 27.8384 57.3334 27.7505C58.7597 27.71 60.7698 28.9657 60.7698 28.9657C60.7698 28.9657 51.9921 18.8359 39.9837 18.431Z" fill="#C1BF0A"/>
<path d="M50.2376 71.1782C49.1929 69.4915 49.1047 68.0093 49.5272 66.5178C52.6939 55.4081 57.8477 45.4973 67.4172 38.5415C80.0976 29.323 94.0038 27.1484 108.927 32.0736C110.96 32.7427 113.008 33.5559 114.675 35.354C114.308 35.8187 113.988 36.2229 113.542 36.7759C104.455 31.2791 94.7467 30.5961 84.7036 32.9054C81.3327 33.6813 77.79 34.2435 75.1991 37.1847C75.3198 38.0862 75.4359 38.9922 75.5381 39.7635C72.6872 41.9009 69.9013 43.9965 67.1015 46.0966C64.7381 44.5773 63.8002 44.6423 61.7804 46.7007C58.2656 50.2785 55.8512 54.5625 54.1797 59.2508C52.8192 63.0701 51.6259 66.9546 50.2376 71.1782Z" fill="white"/>
<path d="M122.419 83.5864C122.418 83.6013 122.417 83.6162 122.416 83.631C122.416 83.6317 122.416 83.6325 122.416 83.6332C122.338 84.685 122.274 85.5593 122.192 86.7539C121.821 86.6766 121.465 86.6022 121.111 86.5282C120.028 86.3023 118.962 86.0797 117.546 85.7861C117.504 85.7775 117.462 85.7688 117.419 85.76C117.43 85.7526 117.441 85.7453 117.451 85.738C117.482 85.7167 117.513 85.6955 117.544 85.6746C119.347 84.4482 120.695 83.8997 122.419 83.5864Z" fill="white"/>
<path fill-rule="evenodd" clip-rule="evenodd" d="M116.935 155.63C115.864 156.275 108.716 152.901 108.716 152.901C108.716 152.901 96.211 147.088 89.8983 144.153L89.8015 144.108C85.063 141.905 80.2974 139.689 75.4945 137.456C74.9469 137.201 74.7149 136.546 74.984 136.007L75.1372 135.691C75.397 135.17 76.0235 134.952 76.5479 135.194C81.7394 137.593 86.8948 139.973 92.0569 142.357L92.2493 142.446L92.2741 142.458C97.5282 144.884 102.79 147.314 108.104 149.769C108.083 148.652 107.366 148.343 106.755 148.079C106.665 148.04 106.577 148.001 106.493 147.962C102.886 146.221 99.2589 144.534 95.6302 142.847L95.6278 142.846L94.9198 142.516C91.1356 140.754 87.3513 138.997 83.5714 137.242L83.4756 137.197C81.169 136.126 78.8641 135.056 76.5618 133.986C76.0374 133.744 75.7961 133.126 76.0235 132.596C76.2176 132.148 76.4169 131.704 76.6148 131.264C78.0206 128.134 79.3557 125.161 78.2695 121.789C78.1442 121.403 78.2185 120.976 78.4969 120.683C78.6742 120.499 78.8503 120.319 79.0242 120.142C79.747 119.403 80.4323 118.702 81.0121 117.923C81.1593 117.727 81.3111 117.529 81.4641 117.33C82.3097 116.23 83.1904 115.084 83.5087 113.825C83.7238 112.968 83.9528 112.112 84.1819 111.255L84.1822 111.254L84.1823 111.254C85.1697 107.563 86.1601 103.861 86.0471 99.9698C86.0432 99.8225 86.0352 99.6741 86.0273 99.5255L86.0272 99.5249C85.9978 98.9758 85.9683 98.4253 86.1399 97.9208C86.3766 97.2285 87.2629 97.0287 87.8245 97.498L89.5736 98.9599L89.8651 99.2035L91.7132 100.748L93.2724 102.051C93.4395 102.191 93.5601 102.372 93.6205 102.581C94.3119 105.062 95.5834 108.059 98.8365 109.75C98.4133 109.046 97.9215 108.378 97.4279 107.708C96.3137 106.196 95.1904 104.672 94.827 102.679C94.7435 102.219 94.943 101.745 95.356 101.517C95.3964 101.495 95.4369 101.472 95.4775 101.45C96.713 100.768 98.0661 100.021 98.4884 97.7628C97.4257 98.6828 96.6972 99.31 96.0057 99.9048C95.8526 100.04 95.6623 100.128 95.4628 100.16C92.7852 100.569 91.0821 99.7422 89.2166 96.9404C88.8268 96.3596 89.0913 95.5558 89.7549 95.3281L90.8872 94.9285C91.2074 94.817 91.5694 94.8681 91.8524 95.0586C92.6738 95.6255 93.4441 96.1505 94.2191 96.6756L94.6136 96.3596L93.588 94.9053C93.3142 94.515 93.3188 93.9807 93.6298 93.6183C95.2772 91.6807 97.3561 90.5563 100.057 90.468C102.577 90.3844 104.489 89.4505 105.783 87.0019C106.51 85.6307 107.739 84.5015 108.936 83.4027C109.146 83.2095 109.355 83.0173 109.561 82.8248C110.805 81.66 112.115 80.5655 113.424 79.4716L113.425 79.4707C113.991 78.9983 114.556 78.5261 115.116 78.0484C115.062 77.9485 115.008 77.8497 114.953 77.751C114.914 77.6798 114.874 77.6086 114.836 77.5369C114.821 77.5093 114.806 77.4815 114.791 77.4537L114.814 77.447C119.294 76.1714 123.773 74.8959 128.29 73.6111C128.921 73.4299 129.571 73.862 129.654 74.5125C129.783 75.5602 129.903 76.5917 130.022 77.6102L130.023 77.6153L130.023 77.6157C130.389 80.7508 130.741 83.7631 131.269 86.7463C131.609 88.6634 132.263 90.506 132.91 92.3257C133.642 94.387 134.364 96.419 134.606 98.4969C134.634 98.7804 134.559 99.0731 134.374 99.2868C133.279 100.562 132.099 100.304 130.993 100.062L130.992 100.062C130.861 100.033 130.73 100.005 130.601 99.9791C130.225 99.9048 129.835 100.035 129.58 100.318C128.787 101.192 128.856 102.205 129.246 103.273C129.65 104.402 129.478 105.322 128.193 106.08C127.438 106.011 126.657 105.94 125.861 105.868L125.79 105.861L125.771 105.86L125.746 105.857C124.429 105.738 123.069 105.615 121.71 105.49C122.724 106.614 123.969 106.713 125.201 106.811C125.492 106.834 125.781 106.857 126.067 106.893C126.954 107.009 127.752 107.176 128.183 107.827C128.573 108.412 128.207 109.221 127.524 109.397L126.958 109.546C126.434 109.681 126.095 110.192 126.165 110.731C126.204 111.032 126.252 111.333 126.299 111.635C126.578 113.4 126.86 115.182 125.496 117.059C125.32 117.301 125.042 117.445 124.745 117.473C124.039 117.535 123.289 117.602 122.512 117.671L122.507 117.671C121.254 117.783 119.931 117.902 118.605 118.016C117.981 118.068 117.351 118.093 116.721 118.118C115.36 118.173 113.998 118.228 112.698 118.546C109.57 119.299 107.7 121.417 107.171 124.684C106.35 129.748 106.461 134.808 106.995 139.891C107.645 139.02 107.608 138.054 107.569 137.041C107.558 136.746 107.546 136.448 107.551 136.146C107.57 135.282 108.582 134.776 109.259 135.31C112.609 137.964 112.864 141.927 113.14 146.208C113.176 146.76 113.212 147.318 113.255 147.878C115.236 142.344 113.027 136.462 108.261 133.289C107.964 133.089 107.774 132.759 107.774 132.397V131.147C107.909 131.137 108.03 131.122 108.141 131.107C108.36 131.079 108.539 131.056 108.702 131.096C111.691 131.839 113.663 133.73 114.8 136.56C116.341 140.393 117.088 144.37 116.935 148.505C116.933 148.542 116.932 148.579 116.931 148.616L116.931 148.617L116.931 148.618C116.889 149.859 118.115 151.157 118.382 152.297C118.65 153.437 118.006 154.985 116.935 155.63ZM124.842 99.9419C124.378 99.849 124.035 99.4541 123.988 98.9848C123.779 96.8196 124.137 96.4851 126.647 95.1376C126.462 95.4295 126.291 95.6999 126.129 95.9556L126.124 95.9632C125.772 96.5184 125.464 97.0048 125.153 97.4933C124.865 97.944 124.958 98.5341 125.362 98.8826L126.411 99.7793C126.387 99.856 126.365 99.9326 126.343 100.009C126.321 100.086 126.299 100.163 126.276 100.239L124.842 99.9419ZM114.6 151.526C114.438 151.372 114.238 151.27 114.02 151.237C113.594 151.175 113.157 151.111 112.713 151.046L112.645 151.036L112.635 151.034C111.912 150.928 111.173 150.819 110.433 150.712C110.433 150.531 110.438 150.355 110.442 150.174V150.173L110.442 150.16C114.754 149.765 115.723 150.22 116.587 153.426C116.224 153.078 115.904 152.772 115.603 152.485L115.6 152.482C115.252 152.151 114.931 151.844 114.6 151.526ZM123.97 87.5873C121.752 87.9172 119.645 87.4572 117.561 86.8114C115.477 86.1655 115.629 85.6746 115.629 85.6746C115.629 85.6746 116.662 84.7918 117.561 84.2848C118.46 83.7778 119.382 83.5141 120.335 83.1742C122.149 82.5273 124.034 81.8554 126.053 81.1335C123.653 79.9533 121.821 80.8214 120.021 81.6739C118.888 82.2108 117.767 82.7415 116.526 82.7505C120.243 79.3029 123.738 78.5688 127.357 80.5388C128.039 80.9105 128.16 81.8955 127.524 82.3369C126.658 82.9391 126.27 83.9241 125.874 84.9299C125.542 85.7712 125.205 86.6271 124.578 87.2853C124.42 87.4526 124.197 87.5548 123.97 87.5873Z" fill="white"/>
<path d="M48.4424 67.0117C48.122 66.4363 47.992 66.1811 47.8341 65.9398C47.6902 65.7218 47.5184 65.5269 47.003 64.8633C46.3157 67.4432 46.23 67.5792 45.6635 69.7321C43.3889 71.7399 41.5368 73.3788 39.7393 74.9598C41.6927 64.969 45.3232 51.6354 55.7977 39.3904C66.2721 27.1454 82.9168 23.0518 98.0202 24.179C108.128 24.9334 117.379 28.4548 122.694 32.244C120.354 32.7508 117.936 33.2669 114.969 33.9038C114.969 33.9038 107.926 29.1114 98.0202 28.5649C81.6538 27.6619 70.6844 32.0736 60.8624 41.9789C52.7366 50.1736 48.4424 67.0117 48.4424 67.0117Z" fill="white"/>
<path d="M100.651 36.2934C106.114 36.8651 110.043 39.575 114.189 41.2762C116.639 46.2373 112.758 50.6882 106.169 55.5858C93.1155 65.288 79.9138 73.81 66.9859 82.5735C59.6284 79.0189 56.1762 73.0073 57.066 65.2648C57.2647 63.5355 57.6206 62.5991 58.1567 60.9433C59.8761 55.6333 63.7961 51.1513 67.1015 47.7853C71.0383 44.3023 73.045 42.6035 77.4791 40.3033C79.62 39.1928 80.8623 38.6234 83.147 37.8523C85.0203 37.2202 86.1009 36.936 88.0421 36.5623C92.8788 35.6312 95.1882 35.7217 100.651 36.2934Z" fill="white"/>
<path d="M69.6214 86.7432C72.5841 84.4212 74.5164 83.1312 78.2376 80.5932L78.1949 80.8231C76.5466 89.7004 74.9496 98.3021 71.9452 106.986C69.5218 106.042 67.3672 105.201 65.106 104.322C68.3332 98.6112 70.8515 93.6108 69.6214 86.7432Z" fill="white"/>
<path d="M94.5308 86.1921C93.0552 84.0897 91.8813 82.1129 90.4011 80.4058C89.3756 79.229 88.0439 78.1639 86.6333 77.508C84.2065 76.3777 82.5824 77.2196 81.9792 79.843C80.963 84.2758 80.1696 88.7644 79.2137 93.2157C78.0815 98.4997 76.8936 103.77 75.6872 109.04C75.4366 110.128 75.0097 111.179 74.5967 112.458C69.9102 111.738 65.7526 110.193 61.4187 107.309C62.4302 106.491 63.1587 105.909 64.0311 105.207C66.7363 106.17 69.4601 107.142 72.4623 108.212C76.1837 98.3881 77.6036 88.3736 79.8215 77.9127C76.7062 80.1642 76.1497 80.5932 74.193 81.885C72.4669 83.0246 70.8057 84.2618 68.9589 85.5689C68.416 84.7735 68.017 84.1967 67.5344 83.485C68.6156 82.7362 69.5482 82.0943 70.4763 81.457C82.6567 73.0381 94.8417 64.6284 107.013 56.1954C108.103 55.4419 109.101 54.5535 110.122 53.7023C112.943 51.3487 117.412 46.1083 115.48 42.2383C118.881 42.4197 129.138 47.9954 133.256 51.2683C137.375 54.5412 141.114 60.0403 141.114 60.0403C143.648 61.5055 146.835 63.2748 149.401 64.7586C149.396 64.9633 149.391 65.1679 149.387 65.3772C131.415 67.4797 114.2 72.0845 98.0202 80.8663C96.4704 76.601 94.0482 73.266 90.234 71.1729L89.6865 71.6845C90.7444 72.6008 91.8859 73.4427 92.8464 74.4567C93.8162 75.4847 94.7303 76.6103 95.4356 77.8336C96.1827 79.1267 96.6513 80.5826 97.3103 82.1361C97.8995 81.9268 98.5399 81.7826 99.0921 81.4896C113.463 73.7916 128.798 69.1774 144.918 67.0564L145.125 67.0291C147.029 66.7774 148.941 66.5245 150.853 66.4796C151.762 66.4564 152.681 66.9634 153.595 67.2332L153.54 67.9867C151.628 68.3402 149.707 68.6704 147.8 69.0472C139.531 70.6798 131.207 72.0659 123.017 74.0335C113.291 76.3684 104.103 80.1779 95.6444 85.62C95.3382 85.8154 94.9948 85.9549 94.5308 86.1921Z" fill="white"/>
<path d="M77.4791 121.315C77.4826 122.626 77.8192 123.38 77.8656 124.411C77.912 125.442 77.4386 127.529 76.8351 129.055C76.3261 130.342 75.6612 131.155 75.1372 132.596C74.7765 133.589 74.5998 134.325 74.0011 135.194C73.2294 136.314 71.6824 137.311 71.6824 137.311C71.6824 137.311 70.1319 138.007 68.8485 137.956C67.5489 137.905 67.3767 137.311 66.4227 136.924C63.2572 135.64 60.7543 136.841 58.1452 134.098C58.758 132.103 58.5584 130.118 57.0125 128.505L51.7851 127.528C51.7386 126.664 51.6968 125.929 51.6551 125.153C53.1871 123.349 54.6912 121.573 56.4832 119.462L58.6965 117.141C57.7956 114.757 58.0464 113.869 59.9179 112.596C61.1206 111.778 62.5336 110.668 63.8246 109.78C67.0478 111.499 69.0574 112.061 72.7587 113.079C73.7015 113.232 74.2407 113.384 75.1605 113.079C75.9988 112.377 82.7764 80.9662 82.7606 79.7229C82.7448 78.4797 84.6097 77.2324 86.6333 78.4329C89.9027 80.3727 90.8314 81.7825 94.354 87.2592C102.149 82.4111 107.501 79.4896 113.805 77.751L114.063 78.2292C114.063 78.2292 111.073 80.5611 110.585 80.9382C109.799 81.5462 108.897 82.3275 108.137 83.1312C107.213 84.1085 106.303 84.5754 105.561 85.5822C103.816 87.9514 102.859 90.1084 98.1758 89.8405C96.7533 89.8405 95.5737 90.5203 94.2252 91.5162C93.1244 92.3292 92.805 94.4289 91.8524 94.0962C90.5083 93.6267 88.2997 94.7412 88.1709 95.6442C88.0421 96.5472 85.9035 96.8797 85.3369 97.7628C84.7704 98.6459 85.215 101.421 84.9065 103.741C84.5057 106.756 84.4258 108.54 83.2787 111.356C82.3742 114.865 82.1777 114.776 80.8284 116.929C79.7656 118.625 77.476 120.119 77.4791 121.315Z" fill="white"/>
</g>
<defs>
<linearGradient id="paint0_linear_1308_425" x1="0" y1="0" x2="192" y2="192" gradientUnits="userSpaceOnUse">
<stop stop-color="white"/>
<stop offset="1" stop-color="white" stop-opacity="0"/>
</linearGradient>
<clipPath id="clip0_1308_425">
<rect width="192" height="192" fill="white"/>
</clipPath>
</defs>
</svg>
