<svg width="512" height="512" viewBox="0 0 512 512" fill="none" xmlns="http://www.w3.org/2000/svg">
<g clip-path="url(#clip0_1308_341)">
<rect width="512" height="512" fill="white"/>
<rect width="512" height="512" fill="#3BA57E"/>
<rect width="512" height="512" fill="#FD720F"/>
<rect width="512" height="512" fill="url(#paint0_linear_1308_341)" fill-opacity="0.2"/>
<path d="M134.003 189.743C131.215 185.246 130.98 181.295 132.107 177.318C140.557 147.7 154.31 121.277 179.846 102.733C213.683 78.1568 250.791 72.3595 290.612 85.4901C296.039 87.2739 301.503 89.4417 305.951 94.2356C304.972 95.4744 304.117 96.5521 302.928 98.0262C278.681 83.3719 252.773 81.5509 225.974 87.7075C216.979 89.7762 207.525 91.2751 200.611 99.1163C200.934 101.519 201.243 103.935 201.516 105.991C193.908 111.69 186.474 117.276 179.003 122.875C172.697 118.825 170.194 118.998 164.804 124.486C155.425 134.024 148.982 145.445 144.522 157.944C140.892 168.127 137.707 178.483 134.003 189.743Z" fill="white"/>
<path d="M326.616 222.823C326.613 222.863 326.61 222.902 326.607 222.942C326.607 222.944 326.607 222.946 326.607 222.948C326.4 225.752 326.229 228.083 326.009 231.267C325.02 231.061 324.07 230.863 323.124 230.666C320.235 230.063 317.39 229.47 313.611 228.687C313.5 228.664 313.388 228.641 313.275 228.618C313.303 228.598 313.332 228.579 313.36 228.559C313.443 228.502 313.525 228.446 313.607 228.39C318.419 225.121 322.014 223.658 326.616 222.823Z" fill="white"/>
<path fill-rule="evenodd" clip-rule="evenodd" d="M311.981 414.891C309.123 416.611 290.05 407.615 290.05 407.615C290.05 407.615 256.681 392.117 239.835 384.293L239.577 384.173C226.933 378.299 214.216 372.392 201.4 366.44C199.938 365.759 199.319 364.012 200.037 362.576L200.446 361.733C201.14 360.346 202.811 359.764 204.211 360.408C218.064 366.803 231.821 373.151 245.596 379.506L246.109 379.743L246.175 379.773C260.196 386.242 274.236 392.72 288.416 399.266C288.362 396.289 286.448 395.463 284.818 394.759C284.576 394.655 284.341 394.553 284.119 394.448C274.494 389.808 264.814 385.31 255.131 380.811L255.125 380.808L253.235 379.93C243.137 375.231 233.039 370.547 222.952 365.868L222.697 365.749C216.542 362.894 210.391 360.04 204.248 357.187C202.848 356.543 202.204 354.896 202.811 353.483C203.329 352.288 203.861 351.105 204.389 349.93C208.14 341.587 211.703 333.662 208.805 324.671C208.47 323.643 208.668 322.503 209.411 321.723C209.885 321.233 210.354 320.753 210.818 320.279C212.747 318.309 214.576 316.442 216.123 314.365C216.516 313.841 216.921 313.315 217.329 312.784C219.586 309.851 221.936 306.796 222.785 303.439C223.359 301.153 223.97 298.871 224.582 296.587L224.582 296.585L224.582 296.584C227.218 286.745 229.86 276.876 229.559 266.501C229.548 266.108 229.527 265.713 229.506 265.317L229.506 265.315C229.427 263.851 229.349 262.383 229.806 261.038C230.438 259.193 232.803 258.66 234.302 259.911L238.969 263.809L239.747 264.458L244.679 268.576L248.839 272.051C249.285 272.422 249.607 272.905 249.768 273.463C251.613 280.077 255.006 288.067 263.687 292.576C262.558 290.697 261.245 288.918 259.928 287.132C256.955 283.101 253.957 279.036 252.988 273.723C252.765 272.496 253.297 271.233 254.399 270.626C254.507 270.566 254.615 270.507 254.723 270.447C258.02 268.629 261.631 266.638 262.758 260.617C259.922 263.07 257.978 264.742 256.133 266.328C255.724 266.687 255.217 266.922 254.684 267.009C247.539 268.099 242.994 265.894 238.016 258.425C236.976 256.876 237.682 254.733 239.453 254.126L242.474 253.061C243.329 252.764 244.295 252.9 245.05 253.408C247.242 254.919 249.297 256.319 251.365 257.719L252.418 256.876L249.681 252.999C248.951 251.959 248.963 250.534 249.793 249.568C254.189 244.402 259.736 241.405 266.943 241.169C273.667 240.946 278.769 238.457 282.224 231.929C284.162 228.273 287.443 225.263 290.636 222.333C291.197 221.818 291.756 221.306 292.304 220.793C295.624 217.687 299.12 214.769 302.614 211.853L302.617 211.85C304.125 210.591 305.633 209.332 307.127 208.059C306.984 207.792 306.839 207.529 306.693 207.266C306.588 207.076 306.483 206.886 306.38 206.695C306.339 206.621 306.3 206.547 306.26 206.473L306.323 206.455C318.276 203.055 330.23 199.654 342.282 196.229C343.966 195.746 345.7 196.898 345.923 198.632C346.266 201.425 346.587 204.175 346.905 206.891L346.906 206.904L346.906 206.905C347.883 215.263 348.822 223.294 350.232 231.247C351.138 236.358 352.885 241.271 354.61 246.122C356.565 251.617 358.491 257.035 359.136 262.574C359.21 263.33 359.012 264.11 358.517 264.68C355.595 268.079 352.446 267.391 349.494 266.747L349.493 266.747C349.142 266.67 348.794 266.594 348.449 266.526C347.446 266.328 346.406 266.674 345.725 267.43C343.607 269.759 343.793 272.459 344.833 275.308C345.911 278.318 345.452 280.771 342.022 282.79C340.008 282.607 337.925 282.418 335.8 282.225L335.612 282.208L335.56 282.203L335.493 282.197C331.978 281.879 328.351 281.55 324.723 281.217C327.429 284.214 330.751 284.478 334.04 284.738C334.815 284.8 335.588 284.861 336.351 284.958C338.716 285.268 340.846 285.714 341.997 287.448C343.038 289.008 342.059 291.164 340.239 291.635L338.728 292.031C337.329 292.39 336.425 293.753 336.611 295.19C336.716 295.993 336.843 296.796 336.97 297.6C337.714 302.306 338.466 307.057 334.828 312.061C334.357 312.705 333.614 313.089 332.822 313.163C330.937 313.329 328.937 313.508 326.865 313.692L326.851 313.694C323.507 313.992 319.975 314.307 316.439 314.613C314.774 314.75 313.092 314.818 311.411 314.885C307.779 315.032 304.146 315.178 300.675 316.025C292.329 318.032 287.338 323.68 285.927 332.388C283.735 345.89 284.032 359.38 285.456 372.931C287.192 370.609 287.093 368.034 286.989 365.333C286.959 364.547 286.928 363.751 286.942 362.947C286.992 360.643 289.691 359.293 291.499 360.717C300.438 367.794 301.12 378.36 301.856 389.772C301.951 391.244 302.046 392.73 302.161 394.225C307.449 379.472 301.554 363.79 288.837 355.329C288.044 354.796 287.537 353.917 287.537 352.951V349.619C287.895 349.594 288.219 349.552 288.516 349.513C289.099 349.438 289.578 349.376 290.013 349.482C297.988 351.464 303.251 356.506 306.285 364.05C310.396 374.269 312.389 384.872 311.981 395.897C311.978 395.995 311.974 396.094 311.971 396.193L311.971 396.195L311.971 396.198C311.859 399.505 315.131 402.965 315.844 406.005C316.557 409.045 314.839 413.172 311.981 414.891ZM333.082 266.427C331.843 266.179 330.927 265.126 330.803 263.875C330.246 258.103 331.199 257.211 337.899 253.618C337.405 254.397 336.947 255.117 336.515 255.799L336.502 255.819C335.563 257.3 334.74 258.596 333.911 259.899C333.144 261.1 333.391 262.673 334.469 263.602L337.267 265.993C337.205 266.198 337.146 266.402 337.088 266.606C337.029 266.811 336.97 267.015 336.908 267.22L333.082 266.427ZM305.752 403.949C305.319 403.54 304.786 403.267 304.204 403.181C303.065 403.015 301.899 402.843 300.716 402.67L300.533 402.643L300.509 402.639C298.579 402.356 296.606 402.066 294.632 401.781C294.632 401.298 294.644 400.826 294.656 400.344V400.342L294.657 400.307C306.161 399.254 308.749 400.468 311.052 409.015C310.084 408.086 309.229 407.272 308.428 406.507L308.419 406.499C307.492 405.615 306.634 404.798 305.752 403.949ZM330.754 233.489C324.834 234.369 319.213 233.143 313.653 231.421C308.093 229.699 308.496 228.39 308.496 228.39C308.496 228.39 311.254 226.037 313.653 224.685C316.051 223.333 318.511 222.63 321.055 221.724C325.896 219.999 330.924 218.208 336.314 216.284C329.909 213.137 325.019 215.451 320.216 217.724C317.192 219.156 314.202 220.57 310.891 220.594C320.81 211.403 330.134 209.446 339.793 214.698C341.614 215.689 341.936 218.315 340.239 219.492C337.926 221.097 336.891 223.723 335.834 226.405C334.95 228.648 334.051 230.929 332.376 232.684C331.955 233.13 331.36 233.403 330.754 233.489Z" fill="white"/>
<path d="M129.212 178.635C128.357 177.101 128.01 176.421 127.589 175.777C127.205 175.196 126.747 174.676 125.371 172.907C123.537 179.785 123.309 180.148 121.797 185.888C115.727 191.24 110.785 195.61 105.988 199.825C111.201 173.189 120.889 137.642 148.839 104.997C176.79 72.3514 221.206 61.4379 261.508 64.4431C288.481 66.4543 313.167 75.8422 327.35 85.9443C321.106 87.2953 314.652 88.6712 306.736 90.3694C306.736 90.3694 287.941 77.5929 261.508 76.1359C217.835 73.7285 188.564 85.4901 162.354 111.898C140.671 133.745 129.212 178.635 129.212 178.635Z" fill="white"/>
<path d="M268.53 96.74C283.108 98.2642 293.59 105.489 304.653 110.024C311.192 123.25 300.836 135.117 283.253 148.174C248.421 174.04 213.192 196.759 178.695 220.123C159.061 210.646 149.85 194.619 152.224 173.978C152.754 169.367 153.704 166.871 155.135 162.456C159.722 148.3 170.183 136.351 179.003 127.377C189.509 118.092 194.863 113.563 206.696 107.43C212.408 104.47 215.723 102.952 221.82 100.896C226.819 99.2109 229.702 98.4532 234.882 97.457C247.789 94.9746 253.951 95.2158 268.53 96.74Z" fill="white"/>
<path d="M185.727 231.239C193.633 225.049 198.79 221.609 208.719 214.843L208.605 215.456C204.207 239.123 199.946 262.055 191.928 285.206C185.462 282.69 179.712 280.447 173.678 278.104C182.29 262.879 189.01 249.548 185.727 231.239Z" fill="white"/>
<path d="M252.197 229.77C248.26 224.165 245.127 218.895 241.177 214.344C238.441 211.206 234.887 208.366 231.123 206.618C224.647 203.605 220.313 205.849 218.704 212.843C215.992 224.661 213.875 236.627 211.324 248.495C208.303 262.582 205.133 276.632 201.914 290.681C201.245 293.583 200.106 296.386 199.004 299.796C186.498 297.874 175.404 293.757 163.839 286.068C166.538 283.886 168.482 282.336 170.81 280.463C178.029 283.03 185.297 285.622 193.308 288.474C203.239 262.284 207.028 235.586 212.946 207.697C204.633 213.699 203.148 214.843 197.927 218.287C193.321 221.325 188.888 224.624 183.96 228.108C182.511 225.988 181.446 224.45 180.158 222.553C183.043 220.556 185.532 218.845 188.009 217.146C220.512 194.701 253.027 172.281 285.505 149.799C288.415 147.79 291.077 145.421 293.801 143.152C301.329 136.877 313.255 122.907 308.099 112.589C317.175 113.073 344.546 127.938 355.535 136.663C366.524 145.388 376.503 160.049 376.503 160.049C383.264 163.955 391.768 168.672 398.615 172.628C398.603 173.174 398.59 173.719 398.578 174.277C350.622 179.882 304.685 192.159 261.508 215.571C257.373 204.2 250.909 195.309 240.731 189.729L239.27 191.093C242.093 193.535 245.139 195.78 247.702 198.483C250.29 201.224 252.73 204.225 254.612 207.486C256.605 210.933 257.856 214.815 259.614 218.957C261.187 218.399 262.895 218.014 264.369 217.233C302.716 196.71 343.639 184.409 386.654 178.754L387.205 178.681C392.285 178.01 397.388 177.336 402.49 177.216C404.917 177.154 407.369 178.506 409.808 179.225L409.66 181.234C404.558 182.177 399.432 183.057 394.343 184.061C372.278 188.414 350.065 192.109 328.211 197.355C302.258 203.58 277.741 213.736 255.169 228.245C254.352 228.765 253.435 229.137 252.197 229.77Z" fill="white"/>
<path d="M206.696 323.408C206.705 326.901 207.603 328.913 207.727 331.661C207.851 334.41 206.587 339.973 204.977 344.042C203.619 347.473 201.844 349.64 200.446 353.483C199.484 356.128 199.012 358.091 197.415 360.408C195.355 363.395 191.227 366.053 191.227 366.053C191.227 366.053 187.09 367.907 183.665 367.772C180.197 367.636 179.738 366.052 177.192 365.021C168.745 361.598 162.066 364.8 155.104 357.487C156.739 352.169 156.206 346.876 152.081 342.575L138.132 339.972C138.008 337.667 137.897 335.708 137.785 333.638C141.873 328.829 145.887 324.094 150.669 318.467L156.575 312.28C154.171 305.923 154.84 303.557 159.834 300.161C163.044 297.98 166.814 295.021 170.259 292.655C178.86 297.238 184.223 298.736 194.099 301.449C196.615 301.859 198.054 302.264 200.508 301.449C202.745 299.579 220.831 215.837 220.789 212.523C220.747 209.208 225.723 205.883 231.123 209.084C239.847 214.255 242.326 218.014 251.725 232.615C272.527 219.69 286.807 211.901 303.63 207.266L304.318 208.541C304.318 208.541 296.338 214.758 295.037 215.763C292.939 217.384 290.534 219.467 288.506 221.609C286.039 224.215 283.61 225.46 281.631 228.144C276.974 234.46 274.422 240.211 261.924 239.496C258.128 239.496 254.98 241.309 251.382 243.964C248.444 246.131 247.592 251.729 245.05 250.842C241.463 249.59 235.57 252.562 235.226 254.969C234.882 257.376 229.175 258.263 227.664 260.617C226.152 262.972 227.338 270.37 226.515 276.556C225.446 284.592 225.232 289.349 222.171 296.855C219.758 306.212 219.234 305.975 215.633 311.715C212.797 316.235 206.687 320.218 206.696 323.408Z" fill="white"/>
<path d="M377.489 272.191C374.212 271.063 371.129 269.113 368.504 266.51C364.529 262.567 364.511 262.499 364.534 251.571C364.544 246.53 364.744 240.191 364.977 237.484C365.139 235.603 365.468 231.345 365.856 226.311C365.857 226.301 365.857 226.291 365.858 226.281L365.858 226.279L365.858 226.278C366.142 222.605 366.456 218.522 366.762 214.648C367.318 207.597 367.842 201.241 368.086 199.319L368.475 196.265H372.09V253.777H376.466V196.265H381.516V253.777H383.743L385.932 253.821V196.279H391.072V253.821H395.527V196.279H399.207L399.603 199.335C399.988 202.315 401.058 215.948 401.871 226.31L401.871 226.311L401.871 226.318L401.871 226.319C401.872 226.322 401.872 226.324 401.872 226.327C401.896 226.64 401.921 226.949 401.945 227.256C402.308 231.889 402.612 235.751 402.767 237.518C402.9 239.031 403.022 241.68 403.106 244.603C403.172 246.91 403.214 249.388 403.219 251.613C403.242 262.548 403.223 262.616 399.177 266.561C396.506 269.166 393.367 271.117 390.032 272.246L387.988 272.937L387.99 274.842C387.991 275.889 389.152 292.473 389.152 292.473L392.048 314.852L392.083 314.857C392.392 314.902 392.7 314.95 393.009 315.001L393.036 315.006C394.042 315.175 395.054 315.38 396.071 315.628C396.006 316.909 395.952 318 395.899 319.076L395.884 319.376C395.871 319.652 395.857 319.929 395.844 320.209C395.836 320.368 395.828 320.529 395.82 320.691C395.815 320.788 395.81 320.886 395.805 320.984C395.793 321.241 395.78 321.502 395.766 321.77C394.805 321.962 393.85 322.136 392.899 322.29C392.593 322.34 392.288 322.388 391.982 322.434L391.915 322.444C391.789 322.463 391.662 322.481 391.536 322.499C386.06 323.282 380.674 323.382 374.867 322.398C374.729 322.374 374.591 322.35 374.453 322.326C374.388 322.314 374.322 322.302 374.257 322.29C373.042 322.07 371.809 321.802 370.552 321.482C370.8 320.576 371.014 319.791 371.208 319.076C371.245 318.94 371.281 318.807 371.316 318.676C371.323 318.649 371.331 318.623 371.338 318.597C371.381 318.436 371.424 318.279 371.466 318.124C371.507 317.97 371.548 317.819 371.589 317.669L371.704 317.242L371.704 317.241L371.711 317.216L371.712 317.211C371.713 317.208 371.714 317.206 371.714 317.204C371.717 317.192 371.721 317.181 371.724 317.17C371.917 316.453 372.104 315.764 372.304 315.026L372.614 315L372.62 315C372.636 314.998 372.652 314.997 372.669 314.996C372.885 314.977 373.101 314.959 373.317 314.941C373.496 314.926 373.674 314.911 373.852 314.896C374.46 314.846 375.065 314.796 375.669 314.748L375.719 314.744L378.6 292.473C378.6 292.473 379.494 275.833 379.495 274.786L379.496 272.882L377.489 272.191Z" fill="white"/>
<path d="M391.902 326.436C391.804 327.839 391.726 329.015 391.648 330.188L391.643 330.267C391.641 330.305 391.638 330.343 391.636 330.38C391.599 330.933 391.562 331.487 391.523 332.067L391.517 332.159H375.199C375.192 332.026 375.184 331.894 375.177 331.762C375.171 331.651 375.165 331.54 375.159 331.43C375.136 331.014 375.114 330.601 375.091 330.188C375.038 329.253 374.985 328.317 374.929 327.336L374.867 326.239H391.915L391.902 326.436Z" fill="white"/>
<path d="M415.09 342.091C416.403 343.607 416.616 346.729 416.178 348.885C413.722 361.153 411.174 373.421 408.148 385.572C405.663 395.475 399.75 402.381 391.626 407.173C391.152 407.452 390.67 407.725 390.181 407.99C388.039 409.153 385.757 410.18 383.355 411.088C382.849 411.278 382.292 411.33 381.674 411.388L381.673 411.388L381.673 411.388C381.4 411.413 381.117 411.44 380.82 411.48C379.94 411.48 379.199 411.382 378.339 411.183C377.586 411.01 376.744 410.76 375.637 410.432L375.147 410.287C374.889 410.14 374.628 410.002 374.365 409.869C374.308 409.84 374.251 409.811 374.193 409.782C374.141 409.756 374.088 409.73 374.035 409.704C373.814 409.595 373.592 409.488 373.371 409.381L373.368 409.38L373.193 409.295C371.501 408.478 369.857 407.645 368.733 405.889C368.249 405.132 367.862 404.204 367.608 403.032C367.524 402.644 367.455 402.23 367.402 401.785C368.796 401.926 370.161 402.064 371.506 402.198C371.799 402.228 372.092 402.257 372.384 402.286C372.467 402.294 372.55 402.303 372.633 402.311C372.73 402.321 372.827 402.33 372.925 402.34C373.141 402.362 373.357 402.383 373.573 402.405C374.316 402.479 375.054 402.552 375.789 402.625C377.572 402.801 379.334 402.974 381.099 403.144C379.559 401.78 377.926 400.905 376.24 400.33C375.306 400.012 374.356 399.786 373.397 399.619C373.067 399.562 372.736 399.511 372.405 399.467C371.85 399.392 371.293 399.334 370.735 399.285C369.837 399.207 368.937 399.154 368.039 399.102L368.038 399.102L368.036 399.102L367.68 399.081C366.104 398.988 364.537 398.885 363.008 398.635C362.122 398.489 361.249 398.294 360.394 398.023C357.368 394.03 357.804 390.72 360.379 387.637C360.76 387.182 361.188 386.731 361.658 386.283C361.816 386.133 361.978 385.983 362.146 385.833C365.153 385.442 368.209 385.381 371.271 385.331L371.593 385.326C371.892 385.321 372.191 385.316 372.491 385.311C374.749 385.272 377.008 385.217 379.249 385.016C381.59 384.807 383.912 384.439 386.196 383.769C384.082 383.011 381.924 382.668 379.736 382.54C377.395 382.403 375.019 382.512 372.624 382.621L372.623 382.621C372.522 382.626 372.422 382.63 372.321 382.635C371.901 382.654 371.481 382.673 371.059 382.69C367.948 382.817 364.808 382.857 361.674 382.278C361.313 382.212 360.951 382.137 360.59 382.053C358.527 381.573 356.467 380.797 354.421 379.575C354.9 377.909 355.354 376.319 355.792 374.783L355.793 374.779L355.794 374.775L355.795 374.772L355.806 374.735L355.809 374.723C355.811 374.716 355.813 374.709 355.815 374.701C356.085 373.757 356.349 372.834 356.609 371.925C356.681 371.674 356.752 371.423 356.824 371.174C358.938 371.038 360.961 370.904 362.92 370.775L362.925 370.775C364.431 370.676 365.897 370.579 367.338 370.486L367.339 370.486C368.258 370.426 369.166 370.368 370.067 370.31C370.558 370.279 371.048 370.248 371.535 370.218C373.21 370.113 374.864 370.014 376.52 369.92C378.437 369.815 380.355 369.717 382.275 369.622C384.629 369.506 386.985 369.395 389.341 369.285L390.906 369.212C391.966 369.162 393.026 369.112 394.085 369.061L394.424 369.045C394.42 368.85 394.417 368.656 394.414 368.463C394.408 368.074 394.402 367.687 394.385 367.294L394.338 367.286C393.999 367.228 393.658 367.156 393.317 367.084L393.315 367.084L393.314 367.083C392.484 366.908 391.649 366.731 390.814 366.758C388.133 366.856 385.451 366.979 382.769 367.106C382.29 367.129 381.81 367.151 381.331 367.174L381.198 367.18L381.171 367.182L381.171 367.182L381.17 367.182L381.169 367.182L381.166 367.182L381.16 367.182C379.567 367.258 377.973 367.334 376.379 367.405L376.374 367.406C374.707 367.48 373.039 367.55 371.37 367.611C370.865 367.629 370.36 367.647 369.854 367.663C368.993 367.691 368.131 367.716 367.269 367.738C366.133 367.766 364.984 367.858 363.834 367.951C361.395 368.146 358.951 368.343 356.61 367.928C355.9 367.803 355.2 367.621 354.512 367.366C353.567 367.016 352.645 366.527 351.754 365.857C350.608 359.111 351.959 355.503 356.572 354.21C357.204 354.032 357.898 353.898 358.655 353.806C359.349 353.721 360.097 353.671 360.898 353.654C363.506 353.597 366.114 353.559 368.722 353.533C369.307 353.528 369.893 353.522 370.478 353.518C373.931 353.49 377.384 353.479 380.838 353.468C380.84 353.468 380.842 353.468 380.844 353.468H380.851C380.865 353.468 380.879 353.468 380.893 353.468C382.413 353.464 383.933 353.459 385.452 353.453C388.669 353.44 391.885 353.42 395.101 353.38C396.195 353.371 397.284 353.066 398.37 352.761L398.37 352.761C398.803 352.64 399.235 352.519 399.667 352.416C399.674 352.415 399.681 352.413 399.689 352.411C399.691 352.411 399.693 352.41 399.695 352.41C399.707 352.407 399.719 352.404 399.732 352.401C399.735 352.4 399.739 352.399 399.743 352.399C399.744 352.398 399.745 352.398 399.747 352.398C399.749 352.397 399.751 352.397 399.753 352.396C399.754 352.396 399.756 352.396 399.757 352.395C399.766 352.393 399.776 352.391 399.786 352.389L399.787 352.388L399.789 352.388C399.804 352.384 399.82 352.381 399.836 352.377C399.841 352.376 399.847 352.375 399.853 352.374L399.853 352.373C399.844 352.303 399.836 352.232 399.828 352.162C399.77 351.671 399.713 351.179 399.667 350.688H370.299H358.655C358.393 350.429 358.148 350.173 357.92 349.919C353.711 345.256 355.064 341.537 359.067 337.114C361.793 336.685 364.544 336.305 367.316 336.002C367.995 335.928 368.675 335.859 369.356 335.794C370.033 335.731 370.711 335.672 371.391 335.619C372.656 335.519 373.926 335.439 375.199 335.381C379.742 335.175 384.327 335.249 388.934 335.735C389.795 335.826 390.656 335.931 391.517 336.051C391.583 336.061 391.649 336.07 391.715 336.079C391.782 336.089 391.849 336.099 391.917 336.108C392.633 336.212 393.35 336.327 394.067 336.452C395.894 336.773 397.725 337.165 399.556 337.637C400.684 337.927 401.811 338.248 402.939 338.602C402.96 338.608 402.982 338.615 403.003 338.622C403.035 338.632 403.067 338.642 403.098 338.652C403.101 338.653 403.104 338.653 403.107 338.654L403.109 338.655C403.115 338.657 403.122 338.659 403.128 338.661C403.131 338.662 403.134 338.663 403.138 338.664C403.147 338.667 403.157 338.67 403.167 338.673C403.197 338.683 403.227 338.692 403.257 338.702C403.303 338.717 403.35 338.732 403.397 338.747C403.516 338.185 403.635 337.623 403.755 337.074C401.137 335.703 398.532 334.333 395.477 332.722L395.207 332.58L395.221 332.404C395.307 331.23 395.397 330.065 395.488 328.888L395.549 328.099L395.55 328.091L395.55 328.087L395.602 327.42C395.611 327.303 395.62 327.186 395.629 327.069C395.631 327.041 395.633 327.012 395.636 326.984C395.637 326.965 395.639 326.945 395.64 326.925C395.651 326.783 395.662 326.64 395.673 326.497C395.68 326.405 395.687 326.312 395.695 326.219C395.705 326.08 395.716 325.941 395.727 325.802L395.753 325.459C395.766 325.29 395.779 325.12 395.791 324.95C395.863 324.957 395.933 324.963 396.003 324.968C396.114 324.977 396.223 324.984 396.329 324.99C396.36 324.992 396.391 324.993 396.422 324.995C396.763 325.011 397.075 325.014 397.355 325.017H397.356C397.977 325.022 398.445 325.027 398.745 325.17C398.752 325.173 398.759 325.176 398.765 325.179C398.769 325.181 398.773 325.183 398.776 325.185C398.778 325.186 398.78 325.187 398.782 325.188C398.786 325.19 398.79 325.192 398.794 325.194C398.848 325.225 398.896 325.261 398.937 325.303C399.193 325.56 399.449 325.816 399.706 326.073C400.402 326.769 401.1 327.465 401.798 328.161L401.808 328.171C406.356 332.704 410.913 337.246 415.09 342.091Z" fill="white"/>
<path fill-rule="evenodd" clip-rule="evenodd" d="M399.867 319.594L399.866 319.626C399.863 319.687 399.86 319.748 399.857 319.808C399.86 319.737 399.864 319.665 399.867 319.594ZM401.871 226.319C401.872 226.322 401.872 226.324 401.872 226.327L401.871 226.319Z" fill="#D9D9D9"/>
<path d="M134.925 339.14H119.441L119.44 339.138H119.426L119.41 338.889C119.376 338.385 119.344 337.899 119.312 337.414L119.306 337.317C119.234 336.221 119.162 335.125 119.073 333.831L119.048 333.48H135.225L135.225 333.483H135.24L135.181 334.527C135.091 336.12 135.008 337.588 134.925 339.14Z" fill="white"/>
<path d="M143.072 274.091C143.636 270.356 143.28 264.422 143.28 264.422C143.28 264.422 143.143 256.264 142.644 251.955C141.163 239.15 139.904 229.66 135.925 215.903C133.779 208.483 133.174 206.856 129.441 197.219C128.5 194.788 127.888 193.589 127.393 193.508C126.842 193.395 126.436 194.654 125.884 197.131C125.823 197.407 125.76 197.697 125.694 198.003C125.68 198.071 125.66 198.175 125.636 198.312C125.062 201.626 121.961 224.641 121.961 255.236C121.961 290.125 121.451 299.586 120.961 308.677C120.828 311.134 120.697 313.564 120.578 316.461L120.26 322.424L120.193 322.432C118.9 322.582 117.601 322.79 116.291 323.068C115.896 323.152 115.501 323.242 115.105 323.339C115.173 324.671 115.227 325.787 115.282 326.903L115.282 326.904L115.282 326.909L115.282 326.915C115.304 327.371 115.327 327.827 115.35 328.298L115.379 328.897L115.395 329.209C115.873 329.305 116.349 329.396 116.824 329.483C116.878 329.493 116.933 329.503 116.987 329.513C124.307 330.831 131.316 330.988 139.334 328.937C138.882 327.275 138.55 326.039 138.241 324.885L138.24 324.883C138.05 324.173 137.868 323.495 137.671 322.768L137.657 322.766L137.657 322.765L137.361 322.74L137.345 322.738C136.045 322.628 134.757 322.519 133.475 322.423L133.395 322.417L132.973 316.748C132.876 314.725 132.783 312.86 132.697 311.138C132.044 298.005 131.805 293.21 133.118 290.065C133.51 289.127 134.538 288.26 135.703 287.276C136.758 286.385 137.926 285.399 138.836 284.18C138.954 284.022 139.068 283.87 139.179 283.722C140.418 282.07 141.234 280.981 142.013 278.925C142.594 277.391 142.743 276.355 142.952 274.91L142.952 274.907C142.989 274.649 143.028 274.379 143.072 274.091Z" fill="white"/>
<path d="M107.829 343.837C110.385 342.489 112.929 341.14 115.939 339.542C115.834 338.112 115.725 336.694 115.614 335.254L115.614 335.249L115.614 335.246L115.613 335.241L115.585 334.877C115.519 334.014 115.452 333.141 115.385 332.251L115.371 332.252C114.811 332.305 114.319 332.31 113.9 332.314C113.166 332.321 112.656 332.326 112.4 332.588C111.496 333.501 110.589 334.412 109.681 335.324L109.677 335.328L109.676 335.328C106.605 338.411 103.53 341.498 100.584 344.69L100.495 344.787C99.3314 346.05 98.1882 347.329 97.0736 348.631C96.6912 349.075 96.4071 349.664 96.209 350.326L96.2076 350.281C95.7472 351.785 95.7358 353.679 96.0267 355.121C97.7396 363.74 99.5001 372.359 101.453 380.934C101.914 382.955 102.385 384.974 102.869 386.989C103.124 388.054 103.383 389.117 103.646 390.18C104.133 392.134 104.759 393.967 105.513 395.685C108.207 401.82 112.543 406.492 118.055 410.038C118.427 410.277 118.804 410.511 119.186 410.74C119.761 411.084 120.347 411.417 120.945 411.739C122.724 412.698 124.604 413.559 126.57 414.331C126.77 414.41 126.97 414.487 127.171 414.564C127.372 414.64 127.582 414.693 127.8 414.733C127.916 414.754 128.034 414.772 128.155 414.787C128.306 414.807 128.46 414.822 128.619 414.838C128.672 414.843 128.725 414.848 128.779 414.853L128.78 414.853C129.039 414.877 129.309 414.903 129.591 414.941C130.759 414.941 131.67 414.757 132.992 414.385C134.342 411.65 135.788 408.905 137.303 406.181L136.605 406.251C135.677 406.344 134.757 406.436 133.842 406.527C132.33 406.677 130.831 406.825 129.331 406.971C132.275 404.346 135.578 403.621 138.931 403.308C141.486 398.88 144.207 394.531 146.983 390.39C145.35 390.189 143.702 390.088 142.047 390.029C140.889 389.988 139.727 389.967 138.565 389.948L138.332 389.945L138.323 389.944C135.042 389.891 131.753 389.837 128.519 389.343C128.194 389.294 127.869 389.24 127.545 389.181L127.502 389.173C126.492 388.987 125.487 388.754 124.49 388.459C125.59 388.062 126.702 387.784 127.824 387.594C128.026 387.56 128.228 387.529 128.431 387.5C131.354 387.085 134.345 387.223 137.369 387.362C138.744 387.426 140.126 387.489 141.511 387.501C144.19 387.525 146.882 387.356 149.564 386.621C150.926 384.677 152.292 382.79 153.652 380.976L153.337 379.864L153.332 379.849C153 378.678 152.678 377.54 152.36 376.423L152.346 376.422L152.346 376.421C150.339 376.29 148.42 376.163 146.561 376.04L146.556 376.039L146.555 376.039L146.465 376.033C145.069 375.941 143.707 375.851 142.369 375.763C139.388 375.568 136.524 375.386 133.657 375.222C133.276 375.201 132.896 375.18 132.515 375.16C131.986 375.132 131.457 375.104 130.928 375.076C127.785 374.913 124.639 374.764 121.492 374.615L121.485 374.615L121.48 374.615L120.016 374.546L120.007 374.545C119.038 374.499 118.069 374.453 117.1 374.407L116.987 374.401L116.682 374.386C116.686 374.201 116.689 374.016 116.692 373.832C116.697 373.461 116.703 373.091 116.72 372.715C117.057 372.659 117.395 372.587 117.734 372.515L117.735 372.514C118.523 372.346 119.315 372.177 120.108 372.203C123.157 372.316 126.207 372.462 129.258 372.608C133.652 372.819 138.048 373.029 142.449 373.14C143.527 373.167 144.617 373.255 145.708 373.343L145.709 373.343C149.689 373.665 153.682 373.988 157.171 371.342C158.344 364.386 156.758 360.922 151.503 359.96C151.216 359.907 150.917 359.861 150.608 359.823C149.949 359.742 149.24 359.694 148.48 359.678C142.169 359.54 135.859 359.52 129.548 359.501C127.435 359.494 125.322 359.488 123.209 359.477L123.15 359.477C120.775 359.464 118.4 359.446 116.026 359.416C115.618 359.413 115.211 359.366 114.805 359.292C114.181 359.178 113.56 359.003 112.939 358.828C112.469 358.695 112 358.563 111.531 358.457C111.594 357.92 111.657 357.383 111.707 356.847H150.622C155.446 352.04 154.237 348.332 150.232 343.874C150.228 343.874 150.225 343.873 150.222 343.873L150.218 343.872C146.415 343.27 142.56 342.767 138.668 342.455C137.419 342.355 136.167 342.274 134.91 342.217C129.795 341.982 124.624 342.126 119.426 342.857C118.954 342.923 118.481 342.995 118.007 343.071C117.839 343.098 117.67 343.126 117.502 343.155C115.65 343.467 113.795 343.858 111.939 344.336C111.11 344.549 110.28 344.78 109.45 345.029C109.161 345.115 108.872 345.204 108.583 345.295C108.445 345.339 108.306 345.384 108.167 345.428C108.054 344.894 107.941 344.359 107.829 343.837Z" fill="white"/>
<path d="M148.972 402.081C152.41 397.512 151.139 393.878 147.31 390.432L147.297 390.43L147.296 390.429C147.192 390.416 147.087 390.402 146.983 390.39C144.207 394.531 141.486 398.88 138.931 403.308C139.859 403.222 140.791 403.167 141.721 403.112C144.199 402.966 146.657 402.822 148.972 402.081Z" fill="white"/>
<path fill-rule="evenodd" clip-rule="evenodd" d="M369.356 335.794L370.299 350.688L399.732 352.401L399.695 352.41L399.689 352.411L399.667 352.416C399.235 352.519 398.803 352.64 398.37 352.761L398.37 352.761C397.284 353.066 396.195 353.371 395.101 353.38C391.885 353.42 388.669 353.44 385.452 353.453C383.933 353.459 382.413 353.464 380.893 353.468L380.851 353.468H380.844H380.838C377.384 353.479 373.931 353.49 370.478 353.518L371.37 367.611C373.039 367.55 374.707 367.48 376.374 367.406L376.379 367.405C377.973 367.334 379.567 367.258 381.16 367.182L381.166 367.182L381.169 367.182L381.17 367.182L381.171 367.182L381.171 367.182L381.198 367.18L381.331 367.174C381.81 367.151 382.29 367.129 382.769 367.106C385.451 366.979 388.133 366.856 390.814 366.758C391.649 366.731 392.484 366.908 393.314 367.083L393.315 367.084L393.317 367.084C393.658 367.156 393.999 367.228 394.338 367.286L394.385 367.294C394.402 367.687 394.408 368.074 394.414 368.463C394.417 368.656 394.42 368.85 394.424 369.045L394.085 369.061C393.026 369.112 391.966 369.162 390.906 369.212L389.341 369.285C386.985 369.395 384.629 369.506 382.275 369.622C380.355 369.717 378.437 369.815 376.52 369.92C374.864 370.014 373.21 370.113 371.535 370.218L372.321 382.635L372.623 382.621L372.624 382.621C375.019 382.512 377.395 382.403 379.736 382.54C381.924 382.668 384.082 383.011 386.196 383.769C383.912 384.439 381.59 384.807 379.249 385.016C377.008 385.217 374.749 385.272 372.491 385.311L373.397 399.619C374.356 399.786 375.306 400.012 376.24 400.33C377.926 400.905 379.559 401.78 381.099 403.144C379.334 402.974 377.572 402.801 375.789 402.625C375.054 402.552 374.316 402.479 373.573 402.405L373.635 403.389C373.4 403.037 373.163 402.687 372.925 402.34L372.633 402.311L372.384 402.286L371.506 402.198C370.161 402.064 368.796 401.926 367.402 401.785C367.455 402.23 367.524 402.644 367.608 403.032C367.862 404.204 368.249 405.132 368.733 405.889C369.857 407.645 371.501 408.478 373.193 409.295L373.368 409.38L373.371 409.381C373.592 409.488 373.814 409.595 374.035 409.704C374.088 409.73 374.141 409.756 374.193 409.782C374.251 409.811 374.308 409.84 374.365 409.869C374.628 410.002 374.889 410.14 375.147 410.287L375.637 410.432C376.744 410.76 377.586 411.01 378.339 411.183C379.199 411.382 379.94 411.48 380.82 411.48C381.117 411.44 381.4 411.413 381.673 411.388L381.673 411.388L381.674 411.388C382.292 411.33 382.849 411.278 383.355 411.088C385.757 410.18 388.039 409.153 390.181 407.99C390.67 407.725 391.152 407.452 391.626 407.173C399.75 402.381 405.663 395.475 408.148 385.572C411.174 373.421 413.722 361.153 416.178 348.885C416.616 346.729 416.403 343.607 415.09 342.091C410.913 337.246 406.356 332.704 401.808 328.171L401.798 328.161C401.1 327.465 400.402 326.769 399.706 326.073C399.449 325.816 399.193 325.56 398.937 325.303C398.896 325.261 398.848 325.225 398.794 325.194L398.782 325.188L398.776 325.185L398.765 325.179C398.759 325.176 398.752 325.173 398.745 325.17C398.445 325.027 397.977 325.022 397.356 325.017H397.355C397.075 325.014 396.763 325.011 396.422 324.995C396.391 324.993 396.36 324.992 396.329 324.99C396.223 324.984 396.114 324.977 396.003 324.968C395.933 324.963 395.863 324.957 395.791 324.95L395.753 325.459L395.727 325.802L395.695 326.219L395.673 326.497L395.64 326.925L395.636 326.984L395.629 327.069L395.602 327.42L395.55 328.087L395.55 328.091L395.549 328.099L395.488 328.888C395.397 330.065 395.307 331.23 395.221 332.404L395.207 332.58L395.477 332.722C398.532 334.333 401.137 335.703 403.755 337.074C403.635 337.623 403.516 338.185 403.397 338.747C403.35 338.732 403.303 338.717 403.257 338.702L403.138 338.664L403.128 338.661L403.109 338.655L403.107 338.654L403.098 338.652L403.003 338.622L402.939 338.602C401.811 338.248 400.684 337.927 399.556 337.637C397.725 337.165 395.894 336.773 394.067 336.452C393.35 336.327 392.633 336.212 391.917 336.108C391.849 336.099 391.782 336.089 391.715 336.079C391.649 336.07 391.583 336.061 391.517 336.051C390.656 335.931 389.795 335.826 388.934 335.735C384.327 335.249 379.742 335.175 375.199 335.381C373.926 335.439 372.656 335.519 371.391 335.619C370.711 335.672 370.033 335.731 369.356 335.794ZM370.299 350.688L399.753 352.396L399.757 352.395L399.786 352.389L399.787 352.388L399.789 352.388L399.836 352.377L399.853 352.374L399.853 352.373L399.828 352.162C399.77 351.671 399.713 351.179 399.667 350.688H370.299ZM360.379 387.637C364.103 391.18 367.549 395.024 370.735 399.285C369.837 399.207 368.937 399.154 368.039 399.102L368.038 399.102L368.036 399.102L367.68 399.081C366.104 398.988 364.537 398.885 363.008 398.635C362.122 398.489 361.249 398.294 360.394 398.023C357.368 394.03 357.804 390.72 360.379 387.637ZM368.504 266.51C371.129 269.113 374.212 271.063 377.489 272.191L379.496 272.882L379.495 274.786C379.494 275.833 378.6 292.473 378.6 292.473L375.719 314.744L375.669 314.748C375.065 314.796 374.46 314.846 373.852 314.896C373.674 314.911 373.496 314.926 373.317 314.941L372.669 314.996L372.62 315L395.844 320.209L395.884 319.376L395.899 319.076C395.952 318 396.006 316.909 396.071 315.628C395.054 315.38 394.042 315.175 393.036 315.006L393.009 315.001C392.7 314.95 392.392 314.902 392.083 314.857L392.048 314.852L389.152 292.473C389.152 292.473 387.991 275.889 387.99 274.842L387.988 272.937L390.032 272.246C393.367 271.117 396.506 269.166 399.177 266.561C403.223 262.616 403.242 262.548 403.219 251.613C403.214 249.388 403.172 246.91 403.106 244.603C403.022 241.68 402.9 239.031 402.767 237.518C402.612 235.751 402.308 231.889 401.945 227.256L401.872 226.327L401.871 226.319L401.871 226.318L401.871 226.311L401.871 226.31C401.058 215.948 399.988 202.315 399.603 199.335L399.207 196.279H395.527V253.821H391.072V196.279H385.932V253.821L383.743 253.777H381.516V196.265H376.466V253.777H372.09V196.265H368.475L368.086 199.319C367.842 201.241 367.318 207.597 366.762 214.648C366.456 218.522 366.142 222.605 365.858 226.278L365.858 226.279L365.858 226.281L365.856 226.311C365.468 231.345 365.139 235.603 364.977 237.484C364.744 240.191 364.544 246.53 364.534 251.571C364.511 262.499 364.529 262.567 368.504 266.51ZM391.648 330.188C391.726 329.015 391.804 327.839 391.902 326.436L391.915 326.239H374.867L374.929 327.336C374.985 328.317 375.038 329.253 375.091 330.188C375.114 330.601 375.136 331.014 375.159 331.43L375.177 331.762L375.199 332.159H391.517L391.523 332.067C391.562 331.487 391.599 330.933 391.636 330.38L391.643 330.267L391.648 330.188ZM153.652 380.976C152.292 382.79 150.926 384.677 149.564 386.621C151.262 386.156 152.956 385.465 154.64 384.451C154.298 383.255 153.97 382.099 153.652 380.976ZM137.303 406.181C135.788 408.905 134.342 411.65 132.992 414.385C133.441 414.258 133.938 414.11 134.508 413.939L134.535 413.931L134.738 413.871L134.973 413.801C135.527 413.485 136.096 413.209 136.661 412.934L136.668 412.931L136.673 412.929C136.808 412.863 136.943 412.797 137.078 412.731C137.855 412.35 138.616 411.954 139.31 411.445C140.787 410.36 141.957 408.758 142.323 405.677L142.308 405.678L142.309 405.674C140.933 405.814 139.587 405.95 138.262 406.084L137.719 406.139L137.303 406.181Z" fill="white"/>
<path d="M313.171 418.449C309.883 420.46 292.737 411.909 292.737 411.909C292.737 411.909 254.821 394.3 235.681 385.409L232.686 384.017C225.976 380.9 220.897 378.431 215.804 375.955L215.803 375.954L215.802 375.954L215.802 375.954L215.801 375.953C210.666 373.457 205.516 370.953 198.664 367.77C185.624 372.668 181.423 370.371 177.361 368.15C174.561 366.619 171.826 365.124 166.308 366.047C164.647 367.71 162.892 369.612 161.078 371.712C161.063 371.806 161.047 371.9 161.031 371.994L160.772 373.533L159.529 374.475C158.978 374.893 158.419 375.256 157.856 375.57C157.448 376.075 157.038 376.588 156.627 377.109L156.643 377.166L156.885 378.02L156.888 378.032L156.897 378.061L157.105 378.797L157.108 378.807C157.522 380.266 157.949 381.773 158.404 383.369L159.23 386.267L156.65 387.82C156.187 388.099 155.724 388.357 155.26 388.595L155.256 388.598C155.22 388.616 155.183 388.635 155.147 388.653L155.117 388.669C154.399 389.032 153.682 389.35 152.967 389.628C152.714 389.726 152.463 389.819 152.211 389.907C152.477 390.241 152.73 390.586 152.967 390.943C153.788 392.181 154.417 393.558 154.711 395.09C155.179 397.527 154.718 399.882 153.574 402.109C153.238 402.763 152.843 403.406 152.395 404.037L152.379 404.06L152.377 404.062C152.286 404.19 152.192 404.318 152.097 404.445L151.345 405.444L150.154 405.825C148.974 406.203 147.796 406.448 146.659 406.616C146.595 406.625 146.531 406.635 146.467 406.644C146.418 406.65 146.37 406.657 146.322 406.664L146.306 406.666L146.261 406.672L146.21 406.679L146.137 406.688C146.111 406.861 146.082 407.032 146.052 407.199C146.015 407.403 145.975 407.602 145.931 407.798C145.685 408.901 145.337 409.884 144.897 410.76C144.161 412.226 143.169 413.397 141.971 414.346C141.695 414.565 141.416 414.765 141.139 414.95C140.426 415.425 139.726 415.795 139.127 416.095L139.064 416.127C138.755 416.281 138.488 416.411 138.245 416.528L138.242 416.53L138.241 416.53C137.737 416.775 137.34 416.967 136.905 417.215L136.513 417.439L136.08 417.568C135.882 417.627 135.689 417.685 135.499 417.742L135.484 417.747L135.483 417.747L135.455 417.756L135.44 417.76C135.151 417.847 134.869 417.931 134.594 418.012C133.317 418.387 132.167 418.684 130.889 418.809C127.688 425.119 183.692 397.886 241.918 433.093C300.145 468.299 386.454 441.355 380.533 415.426C378.414 415.384 376.75 414.888 374.632 414.256L374.317 414.163L374.204 414.129L374.005 414.07L373.565 413.94L373.166 413.714C372.703 413.452 372.279 413.247 371.745 412.99L371.744 412.989C371.645 412.942 371.542 412.892 371.435 412.84C371.264 412.758 371.082 412.669 370.884 412.571C369.998 412.133 368.899 411.553 367.847 410.724C365.593 408.95 364.038 406.429 363.499 402.695C362.105 402.52 360.641 402.248 359.175 401.783L357.966 401.399L357.203 400.392C354.931 397.394 353.824 394.14 354.481 390.744C354.89 388.629 355.924 386.795 357.237 385.204C355.619 384.659 353.988 383.928 352.36 382.956L349.752 381.397L350.366 379.257C336.837 369.227 320.271 361.306 300.067 351.646L299.18 351.222C304.162 353.604 305.838 356.171 308.151 359.71L308.151 359.711L308.152 359.713C308.672 360.508 309.223 361.352 309.852 362.254C314.327 372.942 316.392 378.802 316.392 394.661L316.381 394.997L316.381 395L316.381 395.003C316.306 397.207 316.438 399.02 317.646 401.211C318.499 402.757 319.27 404.688 319.368 407.072C319.575 412.129 316.459 416.438 313.171 418.449Z" fill="white"/>
<path fill-rule="evenodd" clip-rule="evenodd" d="M411.091 412.591C443.26 377.979 463.552 333.226 459.998 278.955C459.998 219.543 440.021 165.641 391.802 126.72C354.79 96.8442 302.368 83.1361 250.804 84.5683C221.09 84.5683 189.449 92.3658 163.432 102.711C127.731 116.907 100.519 136.78 80.3579 166.211C58.5916 197.983 51.7112 233.239 51.7119 275.067C51.7129 328.54 67.4009 375.208 101.843 408.273C139.629 447.267 199.44 478.72 260.922 478.72C321.733 478.72 374.663 451.785 411.091 412.591ZM125.913 146.005C91.1603 178.118 79.0715 225.747 79.0715 269.309C79.0715 298.23 83.3825 323.448 101.843 350.502C129.535 391.085 198.286 422.922 250.594 422.922C292.982 422.922 341.048 410.641 374.587 382.28C412.389 350.314 433.139 299.596 433.139 254.843C433.139 209.858 414.693 171.78 378.031 143.25C338.078 110.874 298.244 99.8528 256.105 99.8528C232.415 99.8528 202.264 105.191 177.577 114.319C156.766 122.012 140.836 132.217 125.913 146.005Z" fill="#F86F0E"/>
<path d="M97.4691 49.9414C94.6799 44.4597 82.7856 36.0874 82.7856 36.0874C82.7856 36.0874 103.633 19.8431 133.353 30.6398C153.094 37.8113 162.054 77.2431 162.054 77.2431C162.054 77.2431 151.727 66.6001 145.002 68.1386C138.277 69.6771 137.575 68.9815 132.832 68.6274C127.033 68.1944 123.709 67.547 118.289 65.4518C108.823 61.7927 97.4691 49.9414 97.4691 49.9414Z" fill="#9BAB49"/>
<path d="M106.624 49.1504C81.9324 48.3179 70.467 76.8533 70.467 76.8533C70.467 76.8533 77.7443 77.78 83.0701 80.067C95.8063 85.5362 98.2531 85.9353 111.781 83.4063C121.666 81.5584 144.634 74.2368 152.89 74.0023C156.694 73.8943 162.054 77.2427 162.054 77.2427C162.054 77.2427 138.646 50.23 106.624 49.1504Z" fill="#C1BF0A"/>
<path d="M133.968 189.809C131.182 185.311 130.947 181.358 132.074 177.381C140.518 147.755 154.262 121.326 179.781 102.777C213.595 78.1945 250.678 72.3957 290.473 85.5297C295.896 87.314 301.356 89.4823 305.801 94.2774C304.823 95.5165 303.969 96.5945 302.78 98.069C278.549 83.4109 252.659 81.5895 225.878 87.7476C216.888 89.8169 207.441 91.3161 200.532 99.1593C200.854 101.563 201.164 103.979 201.436 106.036C193.834 111.736 186.405 117.324 178.939 122.924C172.636 118.873 170.135 119.046 164.749 124.535C155.376 134.076 148.938 145.5 144.48 158.002C140.853 168.187 137.67 178.546 133.968 189.809Z" fill="white"/>
<path d="M326.452 222.897C326.449 222.937 326.447 222.977 326.444 223.016C326.444 223.018 326.443 223.02 326.443 223.022C326.237 225.827 326.065 228.158 325.846 231.344C324.857 231.137 323.908 230.939 322.963 230.742C320.076 230.139 317.233 229.546 313.457 228.763C313.345 228.74 313.233 228.717 313.12 228.693C313.148 228.674 313.177 228.654 313.205 228.635C313.288 228.578 313.37 228.521 313.452 228.466C318.261 225.195 321.854 223.732 326.452 222.897Z" fill="white"/>
<path fill-rule="evenodd" clip-rule="evenodd" d="M311.827 415.013C308.971 416.733 289.911 407.736 289.911 407.736C289.911 407.736 256.564 392.234 239.73 384.407L239.472 384.287C226.836 378.413 214.128 372.504 201.32 366.55C199.86 365.869 199.241 364.122 199.959 362.685L200.367 361.842C201.06 360.455 202.731 359.872 204.129 360.517C217.973 366.914 231.721 373.262 245.486 379.62L246 379.856L246.066 379.887C260.076 386.357 274.107 392.837 288.278 399.385C288.224 396.406 286.312 395.58 284.683 394.876C284.441 394.772 284.206 394.67 283.984 394.565C274.365 389.924 264.692 385.425 255.015 380.925L255.009 380.922L253.121 380.043C243.029 375.344 232.938 370.658 222.858 365.978L222.603 365.859C216.452 363.003 210.306 360.149 204.166 357.295C202.768 356.651 202.124 355.003 202.731 353.59C203.248 352.395 203.78 351.211 204.308 350.036C208.056 341.69 211.616 333.764 208.72 324.771C208.386 323.742 208.584 322.602 209.326 321.822C209.799 321.332 210.269 320.852 210.733 320.378C212.66 318.407 214.487 316.539 216.034 314.462C216.426 313.938 216.831 313.411 217.239 312.881C219.494 309.947 221.842 306.891 222.691 303.534C223.265 301.247 223.875 298.964 224.486 296.68L224.487 296.678L224.487 296.677C227.121 286.835 229.762 276.963 229.46 266.586C229.45 266.193 229.429 265.798 229.407 265.401L229.407 265.4C229.329 263.936 229.25 262.467 229.708 261.122C230.339 259.276 232.702 258.743 234.2 259.995L238.864 263.893L239.642 264.543L244.57 268.662L248.728 272.137C249.173 272.509 249.495 272.992 249.656 273.55C251.5 280.166 254.89 288.158 263.565 292.668C262.437 290.788 261.125 289.009 259.809 287.222C256.838 283.19 253.842 279.125 252.873 273.81C252.651 272.583 253.183 271.319 254.284 270.712C254.392 270.653 254.5 270.593 254.608 270.533C257.902 268.715 261.511 266.723 262.637 260.701C259.803 263.154 257.86 264.827 256.017 266.413C255.608 266.772 255.101 267.007 254.569 267.094C247.428 268.185 242.887 265.979 237.912 258.508C236.873 256.959 237.578 254.815 239.348 254.208L242.367 253.143C243.221 252.845 244.186 252.982 244.941 253.49C247.131 255.001 249.186 256.401 251.252 257.802L252.304 256.959L249.569 253.081C248.839 252.04 248.852 250.615 249.681 249.649C254.074 244.482 259.618 241.484 266.82 241.248C273.539 241.025 278.638 238.535 282.09 232.005C284.027 228.349 287.306 225.337 290.496 222.407C291.057 221.892 291.616 221.379 292.163 220.866C295.482 217.76 298.975 214.841 302.466 211.924L302.469 211.922C303.976 210.662 305.484 209.403 306.976 208.129C306.834 207.863 306.688 207.599 306.543 207.336C306.438 207.146 306.333 206.956 306.229 206.765C306.189 206.691 306.15 206.617 306.11 206.543L306.173 206.525C318.118 203.124 330.064 199.722 342.108 196.296C343.791 195.813 345.524 196.965 345.746 198.7C346.089 201.494 346.41 204.245 346.727 206.961L346.729 206.974L346.729 206.975C347.705 215.336 348.643 223.368 350.053 231.324C350.958 236.436 352.704 241.349 354.428 246.202C356.381 251.699 358.306 257.117 358.95 262.658C359.025 263.414 358.827 264.195 358.332 264.765C355.412 268.164 352.265 267.477 349.315 266.832L349.314 266.832C348.963 266.755 348.615 266.679 348.271 266.611C347.268 266.413 346.229 266.76 345.548 267.515C343.432 269.845 343.618 272.546 344.657 275.396C345.734 278.406 345.276 280.86 341.848 282.879C339.835 282.696 337.754 282.507 335.63 282.314L335.442 282.297L335.39 282.292L335.323 282.286C331.811 281.968 328.186 281.639 324.561 281.306C327.265 284.304 330.585 284.567 333.871 284.828C334.646 284.889 335.418 284.951 336.181 285.048C338.544 285.357 340.673 285.803 341.824 287.538C342.863 289.099 341.885 291.255 340.066 291.726L338.557 292.122C337.158 292.482 336.255 293.845 336.441 295.282C336.545 296.085 336.672 296.889 336.799 297.693C337.543 302.401 338.294 307.152 334.659 312.157C334.188 312.802 333.446 313.186 332.654 313.26C330.771 313.426 328.772 313.604 326.701 313.789L326.687 313.791C323.345 314.089 319.816 314.404 316.282 314.71C314.618 314.847 312.938 314.915 311.258 314.983C307.628 315.129 303.997 315.275 300.529 316.122C292.188 318.13 287.201 323.78 285.79 332.49C283.6 345.995 283.897 359.488 285.32 373.043C287.055 370.72 286.956 368.145 286.852 365.443C286.822 364.657 286.791 363.861 286.805 363.056C286.855 360.752 289.552 359.401 291.359 360.826C300.292 367.905 300.973 378.473 301.709 389.888C301.803 391.36 301.899 392.847 302.014 394.342C307.298 379.585 301.407 363.899 288.698 355.437C287.906 354.904 287.399 354.024 287.399 353.058V349.725C287.758 349.7 288.081 349.658 288.378 349.619C288.961 349.544 289.439 349.482 289.874 349.588C297.843 351.571 303.103 356.614 306.135 364.159C310.243 374.381 312.235 384.987 311.827 396.014C311.824 396.113 311.82 396.212 311.817 396.31L311.817 396.312L311.817 396.315C311.705 399.624 314.975 403.084 315.688 406.125C316.401 409.165 314.683 413.293 311.827 415.013ZM332.914 266.512C331.676 266.264 330.76 265.211 330.637 263.959C330.08 258.186 331.033 257.294 337.727 253.7C337.234 254.479 336.777 255.2 336.344 255.882L336.332 255.902C335.393 257.382 334.571 258.679 333.743 259.982C332.976 261.184 333.223 262.758 334.3 263.687L337.096 266.078C337.034 266.283 336.976 266.487 336.917 266.691C336.858 266.896 336.799 267.1 336.737 267.305L332.914 266.512ZM305.602 404.068C305.169 403.659 304.637 403.387 304.056 403.3C302.918 403.134 301.752 402.963 300.57 402.789L300.387 402.762L300.363 402.758C298.434 402.475 296.462 402.185 294.49 401.9C294.49 401.417 294.502 400.945 294.514 400.463V400.461L294.515 400.425C306.011 399.372 308.597 400.586 310.899 409.136C309.931 408.207 309.077 407.392 308.276 406.628L308.268 406.62C307.341 405.735 306.484 404.918 305.602 404.068ZM330.587 233.566C324.672 234.446 319.054 233.219 313.498 231.497C307.941 229.775 308.344 228.466 308.344 228.466C308.344 228.466 311.101 226.112 313.498 224.76C315.895 223.407 318.353 222.704 320.895 221.798C325.733 220.073 330.757 218.281 336.144 216.356C329.743 213.209 324.856 215.524 320.057 217.797C317.035 219.229 314.047 220.644 310.738 220.668C320.65 211.474 329.968 209.517 339.621 214.77C341.44 215.761 341.762 218.388 340.066 219.565C337.755 221.171 336.721 223.798 335.665 226.48C334.781 228.723 333.882 231.006 332.208 232.761C331.788 233.207 331.194 233.479 330.587 233.566Z" fill="white"/>
<path d="M129.181 178.698C128.327 177.164 127.98 176.483 127.559 175.84C127.175 175.258 126.717 174.738 125.343 172.969C123.51 179.849 123.281 180.211 121.771 185.952C115.705 191.306 110.766 195.677 105.973 199.893C111.182 173.251 120.863 137.694 148.795 105.041C176.727 72.3877 221.113 61.4714 261.388 64.4774C288.343 66.4891 313.012 75.8794 327.186 85.984C320.946 87.3354 314.496 88.7116 306.586 90.4102C306.586 90.4102 287.803 77.6305 261.388 76.1731C217.745 73.7651 188.493 85.5297 162.301 111.944C140.632 133.796 129.181 178.698 129.181 178.698Z" fill="white"/>
<path d="M268.405 96.7824C282.973 98.307 293.448 105.533 304.504 110.07C311.039 123.3 300.689 135.169 283.118 148.229C248.309 174.101 213.105 196.827 178.63 220.196C159.01 210.717 149.804 194.686 152.177 174.039C152.707 169.428 153.656 166.931 155.086 162.515C159.671 148.355 170.124 136.404 178.939 127.427C189.437 118.14 194.788 113.609 206.612 107.476C212.321 104.514 215.634 102.996 221.727 100.94C226.722 99.2539 229.604 98.4961 234.78 97.4996C247.678 95.0166 253.836 95.2579 268.405 96.7824Z" fill="white"/>
<path d="M185.658 231.315C193.559 225.123 198.712 221.683 208.635 214.915L208.521 215.528C204.126 239.201 199.867 262.139 191.855 285.296C185.393 282.779 179.647 280.535 173.617 278.192C182.223 262.963 188.939 249.629 185.658 231.315Z" fill="white"/>
<path d="M252.083 229.846C248.149 224.239 245.018 218.968 241.071 214.416C238.336 211.277 234.785 208.437 231.023 206.688C224.552 203.674 220.221 205.919 218.613 212.915C215.903 224.735 213.787 236.705 211.238 248.575C208.219 262.666 205.051 276.719 201.834 290.773C201.166 293.675 200.027 296.478 198.926 299.889C186.428 297.967 175.342 293.849 163.784 286.158C166.482 283.975 168.425 282.425 170.751 280.552C177.965 283.119 185.228 285.712 193.234 288.565C203.158 262.368 206.944 235.663 212.859 207.767C204.551 213.771 203.067 214.915 197.849 218.36C193.246 221.399 188.817 224.698 183.892 228.184C182.444 226.063 181.38 224.525 180.093 222.627C182.976 220.63 185.463 218.918 187.938 217.219C220.419 194.768 252.912 172.342 285.369 149.855C288.277 147.845 290.937 145.476 293.659 143.206C301.182 136.93 313.1 122.956 307.948 112.636C317.018 113.119 344.37 127.988 355.352 136.715C366.333 145.443 376.306 160.107 376.306 160.107C383.062 164.015 391.56 168.733 398.403 172.69C398.391 173.235 398.378 173.781 398.366 174.339C350.442 179.946 304.536 192.225 261.388 215.644C257.256 204.269 250.797 195.376 240.625 189.794L239.165 191.159C241.986 193.602 245.03 195.847 247.592 198.551C250.178 201.293 252.616 204.294 254.496 207.556C256.488 211.005 257.738 214.887 259.495 219.03C261.067 218.472 262.774 218.087 264.247 217.306C302.568 196.778 343.463 184.473 386.45 178.817L387.001 178.744C392.078 178.073 397.177 177.399 402.276 177.279C404.701 177.217 407.151 178.569 409.589 179.288L409.44 181.298C404.342 182.24 399.22 183.121 394.134 184.126C372.084 188.48 349.885 192.176 328.046 197.423C302.11 203.649 277.61 213.808 255.053 228.32C254.236 228.841 253.321 229.213 252.083 229.846Z" fill="white"/>
<path d="M206.612 323.507C206.622 327.002 207.519 329.014 207.643 331.763C207.767 334.512 206.504 340.077 204.895 344.147C203.538 347.579 201.764 349.746 200.367 353.59C199.405 356.236 198.934 358.199 197.338 360.517C195.28 363.504 191.154 366.163 191.154 366.163C191.154 366.163 187.02 368.018 183.597 367.883C180.132 367.746 179.672 366.163 177.128 365.131C168.687 361.707 162.013 364.91 155.055 357.595C156.689 352.276 156.157 346.982 152.035 342.679L138.095 340.076C137.971 337.77 137.86 335.811 137.748 333.74C141.834 328.93 145.845 324.194 150.623 318.565L156.525 312.377C154.123 306.018 154.792 303.651 159.782 300.255C162.99 298.073 166.758 295.114 170.2 292.746C178.795 297.33 184.154 298.829 194.025 301.543C196.539 301.953 197.976 302.359 200.429 301.543C202.665 299.673 220.738 215.91 220.696 212.594C220.654 209.279 225.627 205.953 231.023 209.154C239.742 214.327 242.218 218.087 251.612 232.691C272.4 219.763 286.67 211.972 303.482 207.336L304.169 208.611C304.169 208.611 296.195 214.83 294.894 215.835C292.798 217.457 290.394 219.54 288.368 221.683C285.903 224.289 283.475 225.534 281.497 228.219C276.843 234.537 274.293 240.289 261.803 239.575C258.01 239.575 254.864 241.388 251.269 244.043C248.333 246.211 247.481 251.81 244.941 250.923C241.357 249.671 235.467 252.643 235.124 255.051C234.78 257.459 229.077 258.346 227.566 260.701C226.056 263.056 227.241 270.456 226.419 276.643C225.35 284.682 225.137 289.44 222.078 296.948C219.666 306.307 219.142 306.07 215.544 311.811C212.71 316.333 206.604 320.316 206.612 323.507Z" fill="white"/>
</g>
<defs>
<linearGradient id="paint0_linear_1308_341" x1="0" y1="0" x2="512" y2="512" gradientUnits="userSpaceOnUse">
<stop stop-color="white"/>
<stop offset="1" stop-color="white" stop-opacity="0"/>
</linearGradient>
<clipPath id="clip0_1308_341">
<rect width="512" height="512" fill="white"/>
</clipPath>
</defs>
</svg>
