<svg width="384" height="384" viewBox="0 0 384 384" fill="none" xmlns="http://www.w3.org/2000/svg">
<g clip-path="url(#clip0_1308_401)">
<rect width="384" height="384" fill="white"/>
<rect width="384" height="384" fill="#3BA57E"/>
<rect width="384" height="384" fill="#FD720F"/>
<rect width="384" height="384" fill="url(#paint0_linear_1308_401)" fill-opacity="0.2"/>
<path d="M100.502 142.307C98.4113 138.935 98.2347 135.971 99.0803 132.989C105.418 110.775 115.732 90.9583 134.884 77.0503C160.262 58.6178 188.093 54.2698 217.959 64.1178C222.029 65.4557 226.127 67.0815 229.463 70.677C228.729 71.606 228.088 72.4143 227.196 73.5199C209.01 62.5292 189.58 61.1635 169.48 65.7809C162.734 67.3324 155.644 68.4565 150.459 74.3375C150.7 76.1398 150.932 77.9515 151.137 79.4937C145.431 83.7674 139.856 87.9575 134.252 92.1568C129.523 89.1188 127.645 89.2489 123.603 93.3646C116.569 100.518 111.737 109.084 108.391 118.458C105.669 126.095 103.281 133.862 100.502 142.307Z" fill="white"/>
<path d="M244.962 167.117C244.96 167.147 244.958 167.177 244.955 167.207C244.955 167.208 244.955 167.21 244.955 167.211C244.8 169.314 244.672 171.062 244.507 173.451C243.765 173.296 243.052 173.148 242.343 173C240.176 172.548 238.043 172.103 235.209 171.516C235.125 171.499 235.041 171.481 234.956 171.463C234.977 171.449 234.999 171.434 235.02 171.42C235.082 171.377 235.144 171.335 235.205 171.293C238.814 168.841 241.511 167.744 244.962 167.117Z" fill="white"/>
<path fill-rule="evenodd" clip-rule="evenodd" d="M233.986 311.169C231.842 312.458 217.538 305.712 217.538 305.712C217.538 305.712 192.511 294.088 179.877 288.22L179.683 288.13C170.2 283.725 160.662 279.295 151.05 274.83C149.954 274.319 149.489 273.01 150.028 271.932L150.335 271.3C150.855 270.26 152.108 269.823 153.158 270.306C163.548 275.103 173.866 279.863 184.197 284.63L184.582 284.807L184.631 284.83C195.147 289.682 205.677 294.54 216.312 299.45C216.271 297.217 214.836 296.597 213.614 296.07C213.432 295.991 213.256 295.915 213.089 295.836C205.87 292.356 198.61 288.983 191.348 285.608L191.343 285.606L189.926 284.948C182.353 281.424 174.779 277.91 167.214 274.401L167.023 274.312C162.406 272.17 157.793 270.031 153.186 267.891C152.136 267.408 151.653 266.172 152.108 265.113C152.497 264.216 152.896 263.329 153.292 262.448C156.105 256.19 158.777 250.247 156.604 243.503C156.353 242.732 156.501 241.878 157.059 241.292C157.413 240.925 157.766 240.565 158.114 240.209C159.56 238.732 160.932 237.332 162.092 235.774C162.387 235.381 162.691 234.986 162.997 234.588C164.689 232.388 166.452 230.097 167.089 227.58C167.519 225.865 167.978 224.153 168.436 222.441L168.437 222.439L168.437 222.438C170.413 215.059 172.395 207.657 172.169 199.876C172.161 199.581 172.145 199.285 172.129 198.988L172.129 198.986C172.07 197.889 172.011 196.788 172.355 195.779C172.829 194.395 174.602 193.995 175.726 194.934L179.227 197.857L179.81 198.344L183.509 201.432L186.629 204.038C186.964 204.317 187.205 204.679 187.326 205.097C188.71 210.058 191.255 216.051 197.765 219.432C196.918 218.023 195.934 216.689 194.946 215.349C192.716 212.326 190.468 209.278 189.741 205.292C189.574 204.373 189.973 203.425 190.799 202.97C190.88 202.925 190.961 202.88 191.043 202.835C193.515 201.472 196.223 199.978 197.068 195.463C194.942 197.303 193.484 198.557 192.1 199.746C191.793 200.015 191.412 200.192 191.013 200.257C185.654 201.075 182.246 199.421 178.512 193.819C177.732 192.657 178.262 191.05 179.59 190.595L181.856 189.796C182.497 189.573 183.221 189.675 183.788 190.056C185.431 191.19 186.973 192.239 188.524 193.289L189.313 192.657L187.261 189.75C186.713 188.969 186.722 187.901 187.345 187.176C190.642 183.302 194.802 181.054 200.208 180.877C205.251 180.71 209.077 178.843 211.668 173.947C213.121 171.205 215.582 168.947 217.977 166.75C218.398 166.364 218.817 165.98 219.228 165.595C221.718 163.266 224.34 161.077 226.96 158.89L226.962 158.888C228.094 157.944 229.225 156.999 230.345 156.044C230.238 155.844 230.129 155.647 230.02 155.45C229.941 155.307 229.862 155.165 229.785 155.022C229.755 154.966 229.725 154.911 229.695 154.855L229.742 154.842C238.707 152.291 247.672 149.741 256.712 147.172C257.975 146.81 259.275 147.674 259.442 148.974C259.699 151.069 259.941 153.132 260.179 155.168L260.18 155.178L260.18 155.179C260.912 161.448 261.616 167.471 262.674 173.436C263.354 177.269 264.664 180.953 265.958 184.592C267.423 188.713 268.868 192.776 269.352 196.931C269.408 197.498 269.259 198.083 268.887 198.51C266.696 201.059 264.335 200.544 262.12 200.061L262.119 200.06C261.856 200.003 261.595 199.946 261.337 199.895C260.585 199.746 259.804 200.006 259.294 200.573C257.706 202.319 257.845 204.345 258.625 206.481C259.433 208.739 259.089 210.579 256.517 212.093C255.006 211.955 253.444 211.814 251.85 211.669L251.709 211.656L251.67 211.653L251.62 211.648C248.984 211.409 246.263 211.163 243.542 210.913C245.572 213.161 248.063 213.359 250.53 213.554C251.111 213.6 251.691 213.646 252.263 213.719C254.037 213.951 255.634 214.285 256.498 215.586C257.278 216.757 256.545 218.373 255.179 218.726L254.046 219.023C252.997 219.293 252.319 220.315 252.458 221.392C252.537 221.995 252.632 222.597 252.727 223.2C253.286 226.73 253.849 230.293 251.121 234.046C250.768 234.529 250.211 234.817 249.616 234.873C248.203 234.997 246.703 235.131 245.149 235.27L245.138 235.271C242.63 235.494 239.981 235.73 237.329 235.96C236.08 236.063 234.819 236.113 233.558 236.164C230.834 236.274 228.109 236.384 225.506 237.019C219.247 238.524 215.504 242.76 214.445 249.291C212.801 259.418 213.024 269.535 214.092 279.699C215.394 277.957 215.32 276.026 215.242 274C215.219 273.411 215.196 272.813 215.207 272.211C215.244 270.483 217.268 269.47 218.624 270.538C225.329 275.846 225.84 283.77 226.392 292.329C226.463 293.433 226.535 294.548 226.621 295.669C230.586 284.604 226.166 272.842 216.628 266.497C216.033 266.098 215.652 265.438 215.652 264.713V262.214C215.922 262.195 216.164 262.164 216.387 262.135C216.825 262.078 217.184 262.032 217.51 262.112C223.491 263.598 227.438 267.38 229.713 273.037C232.797 280.702 234.292 288.654 233.986 296.923C233.983 296.997 233.981 297.071 233.978 297.145L233.978 297.146L233.978 297.149C233.894 299.629 236.348 302.224 236.883 304.504C237.418 306.784 236.129 309.879 233.986 311.169ZM249.811 199.82C248.883 199.635 248.195 198.845 248.102 197.906C247.684 193.577 248.4 192.908 253.424 190.214C253.054 190.798 252.71 191.338 252.386 191.85L252.376 191.865C251.672 192.975 251.055 193.947 250.433 194.924C249.858 195.825 250.043 197.005 250.851 197.702L252.95 199.495C252.904 199.648 252.86 199.802 252.816 199.955C252.772 200.108 252.727 200.262 252.681 200.415L249.811 199.82ZM229.314 302.962C228.989 302.655 228.59 302.451 228.153 302.386C227.299 302.261 226.425 302.133 225.537 302.002L225.4 301.982L225.382 301.98C223.934 301.767 222.454 301.55 220.974 301.336C220.974 300.974 220.983 300.62 220.992 300.258V300.257L220.993 300.23C229.621 299.441 231.562 300.351 233.289 306.761C232.563 306.065 231.922 305.454 231.321 304.881L231.314 304.875C230.619 304.212 229.976 303.599 229.314 302.962ZM248.065 175.117C243.626 175.777 239.409 174.857 235.239 173.566C231.069 172.274 231.372 171.293 231.372 171.293C231.372 171.293 233.44 169.528 235.239 168.514C237.038 167.5 238.884 166.973 240.791 166.293C244.422 165 248.193 163.656 252.235 162.213C247.431 159.853 243.764 161.589 240.162 163.293C237.894 164.367 235.652 165.428 233.168 165.446C240.607 158.553 247.601 157.085 254.845 161.024C256.21 161.767 256.452 163.737 255.179 164.619C253.445 165.823 252.669 167.793 251.876 169.804C251.213 171.486 250.538 173.197 249.282 174.513C248.966 174.848 248.52 175.052 248.065 175.117Z" fill="white"/>
<path d="M96.9093 133.976C96.268 132.826 96.0078 132.316 95.6918 131.833C95.4037 131.397 95.0599 131.007 94.0284 129.681C92.653 134.839 92.4815 135.111 91.3477 139.416C86.7954 143.43 83.0888 146.707 79.4912 149.869C83.4006 129.892 90.6666 103.231 111.63 78.7476C132.593 54.2638 165.904 46.0786 196.131 48.3325C216.361 49.841 234.875 56.8819 245.512 64.4584C240.83 65.4717 235.989 66.5037 230.052 67.7773C230.052 67.7773 215.956 58.1949 196.131 57.1021C163.376 55.2966 141.423 64.1178 121.766 83.9234C105.503 100.309 96.9093 133.976 96.9093 133.976Z" fill="white"/>
<path d="M201.397 72.5553C212.331 73.6984 220.192 79.1167 228.49 82.5183C233.394 92.4381 225.627 101.338 212.439 111.13C186.315 130.53 159.894 147.57 134.021 165.092C119.296 157.985 112.387 145.965 114.168 130.483C114.566 127.026 115.278 125.153 116.351 121.843C119.792 111.225 127.637 102.264 134.252 95.5333C142.131 88.569 146.147 85.1723 155.022 80.5731C159.306 78.3526 161.792 77.214 166.365 75.6723C170.114 74.4084 172.277 73.8402 176.162 73.093C185.842 71.2312 190.464 71.4121 201.397 72.5553Z" fill="white"/>
<path d="M139.296 173.429C145.225 168.787 149.092 166.207 156.54 161.132L156.454 161.592C153.155 179.342 149.959 196.541 143.946 213.905C139.096 212.018 134.784 210.335 130.259 208.578C136.717 197.159 141.758 187.161 139.296 173.429Z" fill="white"/>
<path d="M189.148 172.328C186.195 168.124 183.845 164.171 180.883 160.758C178.831 158.405 176.165 156.275 173.342 154.964C168.485 152.704 165.235 154.387 164.028 159.633C161.994 168.496 160.406 177.471 158.493 186.371C156.227 196.937 153.85 207.474 151.435 218.011C150.934 220.188 150.079 222.289 149.253 224.847C139.874 223.406 131.553 220.318 122.879 214.552C124.904 212.915 126.362 211.752 128.107 210.348C133.522 212.273 138.973 214.217 144.981 216.356C152.429 196.713 155.271 176.69 159.71 155.773C153.475 160.275 152.361 161.133 148.445 163.715C144.99 165.994 141.666 168.468 137.97 171.081C136.883 169.491 136.085 168.338 135.119 166.915C137.283 165.417 139.149 164.134 141.007 162.86C165.384 146.026 189.77 129.211 214.129 112.349C216.311 110.843 218.308 109.066 220.351 107.364C225.997 102.658 234.941 92.1801 231.074 84.4421C237.881 84.8048 258.41 95.9534 266.651 102.497C274.893 109.042 282.377 120.037 282.377 120.037C287.448 122.967 293.826 126.505 298.961 129.471C298.952 129.881 298.943 130.29 298.933 130.708C262.967 134.912 228.514 144.119 196.131 161.679C193.03 153.15 188.182 146.482 180.549 142.297L179.453 143.32C181.57 145.152 183.855 146.835 185.777 148.863C187.718 150.918 189.547 153.169 190.959 155.615C192.454 158.2 193.392 161.111 194.71 164.218C195.89 163.799 197.171 163.511 198.277 162.925C227.037 147.533 257.729 138.307 289.99 134.066L290.404 134.011C294.214 133.508 298.041 133.002 301.868 132.913C303.688 132.866 305.527 133.88 307.356 134.419L307.245 135.926C303.419 136.633 299.574 137.293 295.757 138.046C279.209 141.311 262.549 144.082 246.158 148.016C226.693 152.685 208.306 160.302 191.377 171.184C190.764 171.574 190.077 171.853 189.148 172.328Z" fill="white"/>
<path d="M155.022 242.556C155.029 245.176 155.702 246.685 155.795 248.746C155.888 250.807 154.941 254.98 153.733 258.032C152.714 260.605 151.383 262.23 150.335 265.113C149.613 267.097 149.259 268.568 148.061 270.306C146.516 272.546 143.42 274.54 143.42 274.54C143.42 274.54 140.317 275.931 137.749 275.829C135.148 275.727 134.803 274.54 132.894 273.766C126.559 271.199 121.55 273.6 116.328 268.115C117.554 264.127 117.155 260.158 114.061 256.932L103.599 254.979C103.506 253.25 103.422 251.781 103.339 250.229C106.405 246.622 109.415 243.071 113.002 238.85L117.431 234.21C115.628 229.443 116.13 227.668 119.876 225.121C122.283 223.486 125.111 221.266 127.694 219.491C134.145 222.928 138.167 224.052 145.574 226.087C147.461 226.394 148.54 226.699 150.381 226.087C152.059 224.685 165.623 161.878 165.592 159.392C165.56 156.907 169.292 154.413 173.342 156.813C179.886 160.692 181.744 163.51 188.794 174.461C204.395 164.767 215.106 158.926 227.723 155.45L228.238 156.406C228.238 156.406 222.254 161.068 221.278 161.822C219.704 163.038 217.9 164.6 216.379 166.207C214.53 168.161 212.707 169.095 211.223 171.108C207.73 175.845 205.816 180.158 196.443 179.623C193.596 179.623 191.235 180.982 188.536 182.973C186.333 184.599 185.694 188.797 183.788 188.132C181.098 187.193 176.677 189.421 176.419 191.227C176.162 193.032 171.882 193.697 170.748 195.463C169.614 197.229 170.504 202.778 169.886 207.417C169.084 213.444 168.924 217.012 166.629 222.642C164.818 229.659 164.425 229.481 161.725 233.786C159.598 237.177 155.015 240.164 155.022 242.556Z" fill="white"/>
<path d="M283.117 204.144C280.66 203.298 278.347 201.835 276.379 199.882C273.398 196.925 273.384 196.875 273.401 188.678C273.409 184.898 273.558 180.143 273.734 178.113C273.855 176.702 274.102 173.509 274.393 169.733C274.393 169.726 274.394 169.718 274.394 169.711L274.395 169.709L274.395 169.709C274.607 166.954 274.843 163.892 275.072 160.986C275.489 155.698 275.882 150.931 276.065 149.489L276.357 147.199H279.068V190.333H282.351V147.199H286.138V190.333H287.808L289.45 190.366V147.209H293.305V190.366H296.646V147.209H299.406L299.703 149.501C299.992 151.737 300.794 161.961 301.404 169.733L301.404 169.734L301.404 169.739L301.404 169.74C301.404 169.742 301.405 169.743 301.405 169.745C301.423 169.98 301.441 170.212 301.459 170.442C301.732 173.917 301.96 176.813 302.076 178.139C302.176 179.274 302.268 181.26 302.33 183.453C302.38 185.183 302.411 187.041 302.415 188.71C302.432 196.911 302.418 196.962 299.384 199.921C297.38 201.875 295.026 203.338 292.525 204.185L290.992 204.703L290.993 206.132C290.994 206.917 291.865 219.355 291.865 219.355L294.037 236.139L294.063 236.143C294.294 236.176 294.526 236.213 294.758 236.251L294.778 236.255C295.532 236.381 296.291 236.535 297.054 236.721C297.005 237.682 296.965 238.5 296.925 239.307L296.914 239.532C296.904 239.739 296.894 239.947 296.883 240.157C296.878 240.276 296.872 240.397 296.866 240.518C296.862 240.591 296.858 240.664 296.855 240.738C296.845 240.931 296.835 241.127 296.825 241.328C296.104 241.471 295.388 241.602 294.675 241.718C294.446 241.755 294.216 241.791 293.987 241.826L293.937 241.833C293.842 241.847 293.747 241.861 293.653 241.875C289.546 242.462 285.506 242.537 281.151 241.798C281.048 241.781 280.944 241.763 280.841 241.745C280.792 241.736 280.742 241.727 280.693 241.718C279.782 241.553 278.857 241.351 277.914 241.112C278.101 240.432 278.261 239.843 278.407 239.307C278.434 239.205 278.461 239.105 278.488 239.007C278.493 238.987 278.499 238.967 278.504 238.948C278.537 238.827 278.569 238.709 278.6 238.593C278.631 238.478 278.662 238.364 278.692 238.252L278.779 237.932L278.779 237.931L278.784 237.912L278.785 237.908C278.786 237.907 278.786 237.905 278.787 237.903C278.789 237.894 278.791 237.886 278.793 237.878C278.939 237.34 279.078 236.823 279.229 236.27L279.461 236.25L279.466 236.25C279.478 236.249 279.49 236.248 279.502 236.247C279.665 236.233 279.827 236.22 279.989 236.206C280.123 236.195 280.256 236.184 280.39 236.172C280.846 236.134 281.3 236.097 281.753 236.061L281.79 236.058L283.951 219.355C283.951 219.355 284.621 206.875 284.622 206.09L284.623 204.662L283.117 204.144Z" fill="white"/>
<path d="M293.927 244.827C293.854 245.879 293.795 246.762 293.737 247.641L293.733 247.701C293.731 247.729 293.729 247.757 293.727 247.785C293.7 248.2 293.672 248.616 293.643 249.05L293.639 249.12H281.4C281.394 249.02 281.389 248.921 281.384 248.822C281.379 248.738 281.375 248.655 281.37 248.573C281.353 248.26 281.336 247.951 281.319 247.641C281.28 246.94 281.24 246.238 281.198 245.502L281.151 244.68H293.937L293.927 244.827Z" fill="white"/>
<path d="M311.318 256.569C312.303 257.705 312.463 260.047 312.134 261.664C310.293 270.865 308.381 280.066 306.112 289.179C304.248 296.606 299.813 301.786 293.72 305.38C293.364 305.589 293.003 305.794 292.637 305.993C291.03 306.865 289.318 307.635 287.517 308.316C287.137 308.459 286.719 308.498 286.256 308.541L286.256 308.541L286.255 308.541C286.051 308.56 285.838 308.58 285.616 308.61C284.956 308.61 284.4 308.536 283.755 308.388C283.191 308.258 282.558 308.07 281.729 307.824L281.361 307.715C281.168 307.605 280.972 307.502 280.775 307.402C280.732 307.38 280.689 307.358 280.646 307.337C280.606 307.317 280.567 307.298 280.527 307.278C280.361 307.196 280.195 307.116 280.029 307.036L280.027 307.035L279.895 306.972C278.626 306.359 277.394 305.734 276.551 304.417C276.188 303.85 275.897 303.154 275.707 302.275C275.644 301.984 275.592 301.672 275.552 301.339C276.598 301.445 277.622 301.548 278.63 301.649C278.85 301.671 279.07 301.693 279.288 301.715C279.351 301.721 279.413 301.727 279.475 301.733C279.548 301.741 279.621 301.748 279.694 301.755C279.857 301.771 280.019 301.788 280.181 301.804C280.738 301.859 281.291 301.914 281.842 301.969C283.179 302.101 284.501 302.23 285.825 302.358C284.67 301.335 283.445 300.679 282.181 300.248C281.48 300.009 280.768 299.84 280.048 299.714C279.801 299.671 279.553 299.634 279.304 299.6C278.888 299.544 278.47 299.5 278.052 299.464C277.379 299.405 276.703 299.366 276.03 299.327L276.029 299.327L276.028 299.327L275.761 299.311C274.579 299.241 273.403 299.164 272.257 298.976C271.592 298.867 270.937 298.721 270.296 298.517C268.027 295.523 268.354 293.04 270.285 290.728C270.571 290.386 270.891 290.048 271.244 289.713C271.362 289.6 271.485 289.487 271.61 289.375C273.865 289.082 276.157 289.036 278.454 288.999L278.695 288.995C278.92 288.991 279.144 288.987 279.369 288.984C281.063 288.954 282.757 288.913 284.438 288.762C286.193 288.605 287.935 288.33 289.647 287.827C288.062 287.259 286.444 287.001 284.803 286.905C283.047 286.802 281.265 286.884 279.469 286.966L279.468 286.966C279.393 286.97 279.317 286.973 279.242 286.976C278.927 286.991 278.611 287.005 278.295 287.018C275.961 287.113 273.607 287.143 271.256 286.709C270.985 286.659 270.714 286.603 270.443 286.54C268.896 286.18 267.351 285.598 265.817 284.681C266.176 283.432 266.516 282.239 266.845 281.087L266.846 281.084L266.846 281.082L266.847 281.079L266.855 281.052L266.858 281.043C266.859 281.037 266.861 281.032 266.862 281.026C267.064 280.318 267.262 279.625 267.457 278.944C267.511 278.755 267.565 278.568 267.619 278.381C269.204 278.278 270.722 278.179 272.19 278.082L272.195 278.082C273.324 278.007 274.424 277.935 275.505 277.865L275.505 277.865C276.194 277.82 276.875 277.776 277.551 277.733C277.919 277.71 278.287 277.686 278.652 277.664C279.908 277.585 281.149 277.511 282.391 277.44C283.828 277.361 285.267 277.288 286.707 277.217C288.473 277.13 290.239 277.047 292.006 276.964L293.18 276.909C293.975 276.872 294.77 276.834 295.565 276.796L295.819 276.784C295.816 276.637 295.814 276.492 295.811 276.347C295.807 276.056 295.802 275.765 295.789 275.471L295.754 275.465C295.5 275.421 295.244 275.367 294.988 275.313L294.987 275.313L294.987 275.313C294.364 275.181 293.738 275.048 293.111 275.069C291.1 275.143 289.089 275.235 287.078 275.33C286.718 275.347 286.359 275.364 285.999 275.381L285.899 275.386L285.879 275.387L285.879 275.387L285.878 275.387L285.877 275.387L285.875 275.387L285.871 275.387C284.676 275.444 283.481 275.501 282.285 275.554L282.281 275.554C281.031 275.61 279.78 275.663 278.528 275.709C278.15 275.722 277.771 275.735 277.392 275.748C276.745 275.769 276.099 275.788 275.453 275.804C274.6 275.825 273.738 275.894 272.876 275.963C271.047 276.11 269.214 276.257 267.458 275.946C266.926 275.852 266.401 275.716 265.885 275.525C265.176 275.262 264.484 274.896 263.816 274.393C262.957 269.334 263.97 266.628 267.43 265.657C267.904 265.524 268.424 265.424 268.992 265.354C269.513 265.291 270.073 265.253 270.675 265.241C272.63 265.198 274.586 265.17 276.542 265.15C276.981 265.146 277.42 265.142 277.859 265.138C280.449 265.117 283.039 265.11 285.629 265.102C285.631 265.102 285.632 265.102 285.634 265.102H285.639C285.649 265.102 285.66 265.102 285.67 265.101C286.81 265.098 287.95 265.095 289.09 265.09C291.502 265.08 293.915 265.065 296.327 265.035C297.147 265.028 297.963 264.799 298.778 264.571L298.778 264.571C299.103 264.48 299.427 264.389 299.751 264.312C299.756 264.311 299.762 264.31 299.767 264.309C299.769 264.308 299.77 264.308 299.772 264.308C299.781 264.305 299.79 264.303 299.8 264.301C299.802 264.3 299.805 264.3 299.808 264.299C299.809 264.299 299.81 264.299 299.811 264.299C299.812 264.298 299.814 264.298 299.815 264.297C299.816 264.297 299.817 264.297 299.818 264.297C299.826 264.295 299.833 264.293 299.84 264.292L299.841 264.291L299.842 264.291C299.854 264.289 299.866 264.286 299.877 264.283C299.882 264.282 299.886 264.281 299.89 264.28L299.89 264.28C299.884 264.227 299.878 264.174 299.872 264.122C299.828 263.753 299.786 263.385 299.751 263.016H277.725H268.992C268.796 262.822 268.612 262.63 268.44 262.44C265.284 258.942 266.298 256.153 269.301 252.835C271.345 252.514 273.409 252.229 275.488 252.002C275.997 251.946 276.507 251.894 277.018 251.846C277.526 251.798 278.034 251.754 278.544 251.714C279.493 251.64 280.445 251.58 281.4 251.536C284.807 251.381 288.246 251.437 291.702 251.802C292.347 251.87 292.992 251.949 293.639 252.039C293.688 252.046 293.738 252.053 293.787 252.06C293.838 252.067 293.888 252.074 293.938 252.081C294.475 252.159 295.013 252.245 295.551 252.339C296.922 252.58 298.294 252.874 299.668 253.228C300.513 253.446 301.359 253.687 302.205 253.951C302.221 253.956 302.237 253.961 302.253 253.967C302.277 253.974 302.301 253.982 302.325 253.989C302.327 253.99 302.329 253.99 302.331 253.991L302.332 253.992C302.337 253.993 302.342 253.995 302.347 253.996C302.349 253.997 302.352 253.998 302.354 253.998C302.361 254.001 302.369 254.003 302.376 254.005C302.398 254.012 302.421 254.02 302.443 254.027C302.478 254.038 302.513 254.049 302.548 254.06C302.638 253.639 302.727 253.218 302.817 252.806C300.854 251.778 298.9 250.75 296.608 249.542L296.406 249.435L296.416 249.303C296.481 248.423 296.548 247.549 296.617 246.666L296.663 246.074L296.663 246.068L296.663 246.066L296.702 245.566C296.709 245.478 296.716 245.39 296.722 245.302C296.724 245.281 296.726 245.26 296.727 245.238C296.729 245.224 296.73 245.209 296.731 245.194C296.739 245.087 296.747 244.98 296.756 244.873C296.761 244.804 296.766 244.734 296.772 244.664C296.78 244.56 296.788 244.456 296.796 244.352L296.815 244.095C296.825 243.968 296.835 243.841 296.844 243.713C296.898 243.718 296.951 243.722 297.003 243.727C297.086 243.733 297.168 243.738 297.247 243.743C297.271 243.744 297.294 243.745 297.317 243.746C297.573 243.758 297.807 243.761 298.017 243.763H298.018C298.483 243.767 298.835 243.77 299.06 243.877C299.065 243.88 299.07 243.882 299.075 243.885C299.077 243.886 299.08 243.888 299.083 243.889C299.084 243.89 299.086 243.89 299.087 243.891C299.09 243.893 299.093 243.894 299.096 243.896C299.137 243.919 299.172 243.946 299.204 243.977C299.396 244.17 299.588 244.363 299.78 244.555C300.302 245.077 300.826 245.599 301.349 246.121L301.357 246.128C304.768 249.528 308.185 252.935 311.318 256.569Z" fill="white"/>
<path fill-rule="evenodd" clip-rule="evenodd" d="M299.901 239.696L299.9 239.72C299.898 239.765 299.895 239.811 299.893 239.856C299.896 239.803 299.898 239.749 299.901 239.696ZM301.404 169.74C301.404 169.742 301.405 169.743 301.405 169.745L301.404 169.74Z" fill="#D9D9D9"/>
<path d="M101.194 254.355H89.5812L89.5811 254.353H89.5705L89.5581 254.167C89.5329 253.789 89.509 253.424 89.4851 253.061L89.4803 252.988C89.4263 252.166 89.3723 251.344 89.3053 250.374L89.2871 250.11H101.42L101.42 250.112H101.43L101.386 250.896C101.319 252.09 101.256 253.191 101.194 254.355Z" fill="white"/>
<path d="M107.305 205.568C107.728 202.767 107.46 198.317 107.46 198.317C107.46 198.317 107.358 192.198 106.984 188.966C105.873 179.363 104.929 172.245 101.944 161.927C100.335 156.363 99.8814 155.142 97.0818 147.914C96.3757 146.091 95.9171 145.192 95.5456 145.131C95.1323 145.046 94.8277 145.991 94.4138 147.849C94.3678 148.055 94.3204 148.273 94.2714 148.502C94.2604 148.554 94.2458 148.631 94.2279 148.734C93.797 151.22 91.4717 168.481 91.4717 191.427C91.4717 217.594 91.089 224.69 90.7213 231.508C90.6219 233.351 90.5236 235.173 90.4343 237.346L90.1957 241.819L90.1455 241.824C89.1757 241.937 88.2011 242.092 87.2187 242.301C86.923 242.364 86.6267 242.432 86.3295 242.505C86.3804 243.503 86.4212 244.341 86.4619 245.177L86.462 245.178L86.4621 245.182L86.4623 245.186C86.479 245.529 86.4957 245.871 86.513 246.224L86.5352 246.673L86.5468 246.907C86.9053 246.979 87.2625 247.048 87.6186 247.112C87.6595 247.12 87.7003 247.127 87.7411 247.135C93.2312 248.124 98.4878 248.241 104.501 246.703C104.162 245.457 103.913 244.529 103.681 243.664L103.681 243.662C103.538 243.13 103.402 242.621 103.254 242.076L103.244 242.075L103.243 242.074L103.021 242.055L103.01 242.054C102.035 241.971 101.068 241.889 100.107 241.817L100.047 241.813L99.7305 237.561C99.6574 236.044 99.5879 234.645 99.5236 233.354C99.0337 223.504 98.8548 219.908 99.8394 217.549C100.133 216.846 100.904 216.195 101.778 215.457C102.569 214.789 103.445 214.05 104.128 213.135C104.216 213.017 104.302 212.903 104.385 212.792C105.314 211.553 105.926 210.736 106.51 209.194C106.946 208.043 107.058 207.267 107.215 206.182L107.215 206.18C107.243 205.987 107.272 205.785 107.305 205.568Z" fill="white"/>
<path d="M80.8722 257.878C82.7896 256.867 84.6975 255.855 86.955 254.657C86.8765 253.584 86.7946 252.521 86.7115 251.44L86.7112 251.437L86.711 251.435L86.7107 251.431L86.6897 251.158C86.6399 250.51 86.5896 249.856 86.5394 249.188L86.5289 249.189C86.1091 249.229 85.7401 249.233 85.4259 249.236C84.875 249.241 84.4927 249.245 84.3008 249.441C83.623 250.126 82.9424 250.809 82.2614 251.493L82.2583 251.496L82.2578 251.497C79.9547 253.808 77.6486 256.124 75.439 258.518L75.3719 258.59C74.4993 259.537 73.6419 260.497 72.8059 261.474C72.5191 261.807 72.3061 262.248 72.1575 262.745L72.1565 262.711C71.8111 263.839 71.8026 265.26 72.0207 266.341C73.3054 272.805 74.6258 279.27 76.0908 285.701C76.4361 287.217 76.7895 288.73 77.1523 290.242C77.3439 291.04 77.5381 291.838 77.7351 292.635C78.1004 294.101 78.5697 295.475 79.1354 296.764C81.1563 301.365 84.4078 304.869 88.5421 307.529C88.8208 307.708 89.1034 307.884 89.39 308.055C89.8212 308.314 90.2611 308.563 90.7096 308.805C92.044 309.523 93.4534 310.169 94.9284 310.749C95.0779 310.808 95.2281 310.866 95.379 310.923C95.5298 310.98 95.6869 311.02 95.8509 311.05C95.9377 311.066 96.0264 311.079 96.117 311.091C96.23 311.105 96.346 311.117 96.4653 311.129C96.5049 311.132 96.5449 311.136 96.5852 311.14L96.586 311.14C96.78 311.158 96.9824 311.177 97.1937 311.206C98.0702 311.206 98.753 311.068 99.7448 310.789C100.757 308.738 101.841 306.679 102.978 304.636L102.455 304.688C101.759 304.758 101.069 304.827 100.382 304.895C99.2481 305.008 98.1242 305.119 96.9991 305.228C99.2068 303.26 101.684 302.716 104.199 302.481C106.115 299.16 108.156 295.899 110.238 292.792C109.013 292.642 107.777 292.566 106.536 292.522C105.667 292.491 104.796 292.476 103.925 292.462L103.75 292.459L103.743 292.459C101.282 292.418 98.8156 292.378 96.39 292.008C96.1459 291.971 95.9025 291.93 95.6592 291.886L95.6272 291.88C94.8694 291.741 94.116 291.566 93.3683 291.345C94.193 291.047 95.0269 290.838 95.8687 290.696C96.0202 290.67 96.1719 290.647 96.3239 290.625C98.516 290.314 100.759 290.418 103.027 290.522C104.059 290.569 105.095 290.617 106.134 290.626C108.143 290.644 110.162 290.518 112.174 289.966C113.195 288.508 114.22 287.093 115.24 285.732L115.003 284.898L115 284.887C114.751 284.009 114.509 283.155 114.271 282.318L114.261 282.317L114.26 282.316C112.755 282.218 111.315 282.122 109.922 282.03L109.918 282.03L109.917 282.03L109.85 282.025C108.802 281.956 107.781 281.888 106.778 281.822C104.542 281.676 102.393 281.54 100.243 281.417C99.958 281.401 99.6727 281.386 99.3874 281.37C98.9905 281.349 98.5937 281.328 98.1967 281.307C95.8397 281.185 93.4802 281.073 91.1199 280.962L91.1142 280.962L91.111 280.961L90.0127 280.91L90.006 280.909C89.2793 280.875 88.5526 280.84 87.8259 280.805L87.7411 280.801L87.5123 280.79C87.5154 280.651 87.5175 280.512 87.5196 280.375C87.5238 280.096 87.528 279.818 87.5406 279.537C87.7933 279.494 88.0468 279.44 88.3009 279.386L88.3022 279.386C88.8931 279.26 89.4872 279.133 90.0814 279.153C92.3686 279.237 94.6559 279.347 96.9439 279.456C100.24 279.614 103.537 279.772 106.837 279.855C107.646 279.875 108.464 279.941 109.282 280.007L109.282 280.007C112.267 280.249 115.262 280.491 117.879 278.507C118.759 273.29 117.57 270.692 113.628 269.97C113.413 269.93 113.189 269.896 112.957 269.868C112.463 269.807 111.931 269.771 111.36 269.759C106.628 269.655 101.895 269.64 97.1618 269.626C95.5771 269.621 93.9924 269.616 92.4078 269.608L92.3634 269.608C90.5822 269.598 88.8011 269.585 87.0199 269.562C86.714 269.56 86.4089 269.524 86.1042 269.469C85.6368 269.384 85.1705 269.252 84.7048 269.121C84.3527 269.022 84.0009 268.922 83.6491 268.843C83.6963 268.44 83.7436 268.038 83.7813 267.635H112.967C116.585 264.03 115.678 261.249 112.675 257.906C112.672 257.906 112.67 257.905 112.667 257.905L112.664 257.904C109.812 257.453 106.921 257.075 104.002 256.841C103.065 256.766 102.126 256.706 101.184 256.663C97.3472 256.487 93.4685 256.595 89.5705 257.143C89.2159 257.193 88.8611 257.246 88.5062 257.304C88.3799 257.324 88.2536 257.345 88.1273 257.366C86.7383 257.601 85.3472 257.894 83.955 258.252C83.333 258.412 82.7109 258.585 82.0886 258.772C81.8718 258.837 81.6551 258.903 81.4383 258.972C81.3343 259.005 81.2302 259.038 81.1262 259.071C81.0415 258.671 80.9568 258.27 80.8722 257.878Z" fill="white"/>
<path d="M111.73 301.561C114.309 298.134 113.355 295.409 110.483 292.824L110.473 292.823L110.473 292.822C110.394 292.812 110.316 292.802 110.238 292.792C108.156 295.899 106.115 299.16 104.199 302.481C104.895 302.416 105.594 302.375 106.291 302.334C108.15 302.225 109.994 302.117 111.73 301.561Z" fill="white"/>
<path fill-rule="evenodd" clip-rule="evenodd" d="M277.018 251.846L277.725 263.016L299.8 264.301L299.772 264.308L299.767 264.309L299.751 264.312C299.427 264.389 299.103 264.48 298.778 264.571L298.778 264.571C297.963 264.799 297.147 265.028 296.327 265.035C293.915 265.065 291.502 265.08 289.09 265.09C287.95 265.095 286.81 265.098 285.67 265.101L285.639 265.102H285.634H285.629C283.039 265.11 280.449 265.117 277.859 265.138L278.528 275.709C279.78 275.663 281.031 275.61 282.281 275.554L282.285 275.554C283.481 275.501 284.676 275.444 285.871 275.387L285.875 275.387L285.877 275.387L285.878 275.387L285.879 275.387L285.879 275.387L285.899 275.386L285.999 275.381C286.359 275.364 286.718 275.347 287.078 275.33C289.089 275.235 291.1 275.143 293.111 275.069C293.738 275.048 294.364 275.181 294.987 275.313L294.987 275.313L294.988 275.313C295.244 275.367 295.5 275.421 295.754 275.465L295.789 275.471C295.802 275.765 295.807 276.056 295.811 276.347C295.814 276.492 295.816 276.637 295.819 276.784L295.565 276.796C294.77 276.834 293.975 276.872 293.18 276.909L292.006 276.964C290.239 277.047 288.473 277.13 286.707 277.217C285.267 277.288 283.828 277.361 282.391 277.44C281.149 277.511 279.908 277.585 278.652 277.664L279.242 286.976L279.468 286.966L279.469 286.966C281.265 286.884 283.047 286.802 284.803 286.905C286.444 287.001 288.062 287.259 289.647 287.827C287.935 288.33 286.193 288.605 284.438 288.762C282.757 288.913 281.063 288.954 279.369 288.984L280.048 299.714C280.768 299.84 281.48 300.009 282.181 300.248C283.445 300.679 284.67 301.335 285.825 302.358C284.501 302.23 283.179 302.101 281.842 301.969C281.291 301.914 280.738 301.859 280.181 301.804L280.227 302.542C280.051 302.278 279.873 302.016 279.694 301.755L279.475 301.733L279.288 301.715L278.63 301.649C277.622 301.548 276.598 301.445 275.552 301.339C275.592 301.672 275.644 301.984 275.707 302.275C275.897 303.154 276.188 303.85 276.551 304.417C277.394 305.734 278.626 306.359 279.895 306.972L280.027 307.035L280.029 307.036C280.195 307.116 280.361 307.196 280.527 307.278C280.567 307.298 280.606 307.317 280.646 307.337C280.689 307.358 280.732 307.38 280.775 307.402C280.972 307.502 281.168 307.605 281.361 307.715L281.729 307.824C282.558 308.07 283.191 308.258 283.755 308.388C284.4 308.536 284.956 308.61 285.616 308.61C285.838 308.58 286.051 308.56 286.255 308.541L286.256 308.541L286.256 308.541C286.719 308.498 287.137 308.459 287.517 308.316C289.318 307.635 291.03 306.865 292.637 305.993C293.003 305.794 293.364 305.589 293.72 305.38C299.813 301.786 304.248 296.606 306.112 289.179C308.381 280.066 310.293 270.865 312.134 261.664C312.463 260.047 312.303 257.705 311.318 256.569C308.185 252.935 304.768 249.528 301.357 246.128L301.349 246.121C300.826 245.599 300.302 245.077 299.78 244.555C299.588 244.363 299.396 244.17 299.204 243.977C299.172 243.946 299.137 243.919 299.096 243.896L299.087 243.891L299.083 243.889L299.075 243.885C299.07 243.882 299.065 243.88 299.06 243.877C298.835 243.77 298.483 243.767 298.018 243.763H298.017C297.807 243.761 297.573 243.758 297.317 243.746C297.294 243.745 297.271 243.744 297.247 243.743C297.168 243.738 297.086 243.733 297.003 243.727C296.951 243.722 296.898 243.718 296.844 243.713L296.815 244.095L296.796 244.352L296.772 244.664L296.756 244.873L296.731 245.194L296.727 245.238L296.722 245.302L296.702 245.566L296.663 246.066L296.663 246.068L296.663 246.074L296.617 246.666C296.548 247.549 296.481 248.423 296.416 249.303L296.406 249.435L296.608 249.542C298.9 250.75 300.854 251.778 302.817 252.806C302.727 253.218 302.638 253.639 302.548 254.06C302.513 254.049 302.478 254.038 302.443 254.027L302.354 253.998L302.347 253.996L302.332 253.992L302.331 253.991L302.325 253.989L302.253 253.967L302.205 253.951C301.359 253.687 300.513 253.446 299.668 253.228C298.294 252.874 296.922 252.58 295.551 252.339C295.013 252.245 294.475 252.159 293.938 252.081C293.888 252.074 293.838 252.067 293.787 252.06C293.738 252.053 293.688 252.046 293.639 252.039C292.992 251.949 292.347 251.87 291.702 251.802C288.246 251.437 284.807 251.381 281.4 251.536C280.445 251.58 279.493 251.64 278.544 251.714C278.034 251.754 277.526 251.798 277.018 251.846ZM277.725 263.016L299.815 264.297L299.818 264.297L299.84 264.292L299.841 264.291L299.842 264.291L299.877 264.283L299.89 264.28L299.89 264.28L299.872 264.122C299.828 263.753 299.786 263.385 299.751 263.016H277.725ZM270.285 290.728C273.078 293.385 275.662 296.268 278.052 299.464C277.379 299.405 276.703 299.366 276.03 299.327L276.029 299.327L276.028 299.327L275.761 299.311C274.579 299.241 273.403 299.164 272.257 298.976C271.592 298.867 270.937 298.721 270.296 298.517C268.027 295.523 268.354 293.04 270.285 290.728ZM276.379 199.882C278.347 201.835 280.66 203.298 283.117 204.144L284.623 204.662L284.622 206.09C284.621 206.875 283.951 219.355 283.951 219.355L281.79 236.058L281.753 236.061C281.3 236.097 280.846 236.134 280.39 236.172C280.256 236.184 280.123 236.195 279.989 236.206L279.502 236.247L279.466 236.25L296.883 240.157L296.914 239.532L296.925 239.307C296.965 238.5 297.005 237.682 297.054 236.721C296.291 236.535 295.532 236.381 294.778 236.255L294.758 236.251C294.526 236.213 294.294 236.176 294.063 236.143L294.037 236.139L291.865 219.355C291.865 219.355 290.994 206.917 290.993 206.132L290.992 204.703L292.525 204.185C295.026 203.338 297.38 201.875 299.384 199.921C302.418 196.962 302.432 196.911 302.415 188.71C302.411 187.041 302.38 185.183 302.33 183.453C302.268 181.26 302.176 179.274 302.076 178.139C301.96 176.813 301.732 173.917 301.459 170.442L301.405 169.745L301.404 169.74L301.404 169.739L301.404 169.734L301.404 169.733C300.794 161.961 299.992 151.737 299.703 149.501L299.406 147.209H296.646V190.366H293.305V147.209H289.45V190.366L287.808 190.333H286.138V147.199H282.351V190.333H279.068V147.199H276.357L276.065 149.489C275.882 150.931 275.489 155.698 275.072 160.986C274.843 163.892 274.607 166.954 274.395 169.709L274.395 169.709L274.394 169.711L274.393 169.733C274.102 173.509 273.855 176.702 273.734 178.113C273.558 180.143 273.409 184.898 273.401 188.678C273.384 196.875 273.398 196.925 276.379 199.882ZM293.737 247.641C293.795 246.762 293.854 245.879 293.927 244.827L293.937 244.68H281.151L281.198 245.502C281.24 246.238 281.28 246.94 281.319 247.641C281.336 247.951 281.353 248.26 281.37 248.573L281.384 248.822L281.4 249.12H293.639L293.643 249.05C293.672 248.616 293.7 248.2 293.727 247.785L293.733 247.701L293.737 247.641ZM115.24 285.732C114.22 287.093 113.195 288.508 112.174 289.966C113.447 289.618 114.717 289.099 115.98 288.339C115.725 287.441 115.479 286.575 115.24 285.732ZM102.978 304.636C101.841 306.679 100.757 308.738 99.7448 310.789C100.082 310.694 100.454 310.583 100.882 310.455L100.902 310.449L101.054 310.403L101.231 310.351C101.646 310.114 102.073 309.907 102.497 309.701L102.502 309.698L102.505 309.697C102.607 309.647 102.708 309.598 102.809 309.549C103.392 309.263 103.963 308.966 104.483 308.584C105.591 307.77 106.468 306.569 106.743 304.258L106.732 304.259L106.732 304.256C105.701 304.361 104.691 304.463 103.697 304.563L103.29 304.604L102.978 304.636Z" fill="white"/>
<path d="M234.879 313.837C232.413 315.345 219.554 308.932 219.554 308.932C219.554 308.932 191.117 295.725 176.761 289.057L174.515 288.013C169.482 285.675 165.673 283.824 161.853 281.966L161.853 281.966L161.853 281.966L161.852 281.965L161.851 281.965C158 280.093 154.138 278.215 148.999 275.828C139.219 279.501 136.068 277.779 133.022 276.113C130.921 274.965 128.871 273.843 124.732 274.535C123.486 275.783 122.17 277.21 120.809 278.784C120.798 278.855 120.786 278.925 120.774 278.996L120.58 280.15L119.648 280.856C119.234 281.17 118.815 281.442 118.393 281.677C118.087 282.056 117.779 282.441 117.471 282.832L117.483 282.874L117.665 283.515L117.667 283.524L117.673 283.546L117.83 284.098L117.832 284.105C118.142 285.2 118.462 286.33 118.804 287.527L119.423 289.701L117.488 290.865C117.141 291.074 116.793 291.268 116.446 291.447L116.443 291.448C116.415 291.462 116.388 291.476 116.361 291.49L116.338 291.502C115.8 291.775 115.262 292.013 114.726 292.221C114.537 292.295 114.348 292.364 114.159 292.43C114.358 292.681 114.548 292.94 114.726 293.207C115.342 294.136 115.813 295.169 116.034 296.318C116.385 298.145 116.04 299.912 115.181 301.582C114.929 302.073 114.633 302.555 114.297 303.028L114.285 303.045L114.284 303.047C114.215 303.143 114.145 303.239 114.073 303.334L113.509 304.084L112.617 304.369C111.731 304.653 110.848 304.836 109.995 304.962C109.947 304.969 109.899 304.976 109.851 304.983C109.814 304.988 109.778 304.993 109.742 304.998L109.73 305L109.696 305.004L109.658 305.009L109.603 305.016C109.584 305.146 109.563 305.274 109.54 305.4C109.512 305.552 109.482 305.702 109.449 305.849C109.265 306.676 109.004 307.413 108.673 308.071C108.121 309.169 107.377 310.048 106.479 310.76C106.272 310.924 106.063 311.074 105.855 311.213C105.32 311.569 104.795 311.847 104.346 312.072L104.298 312.096C104.067 312.211 103.866 312.308 103.685 312.396L103.682 312.397L103.682 312.398C103.303 312.581 103.006 312.726 102.679 312.912L102.385 313.08L102.061 313.176C101.912 313.221 101.767 313.264 101.625 313.307L101.613 313.31L101.613 313.311L101.592 313.317L101.581 313.32C101.364 313.385 101.153 313.449 100.946 313.509C99.9883 313.791 99.1262 314.014 98.1676 314.107C95.7669 318.84 137.77 298.415 181.439 324.82C225.109 351.225 289.842 331.016 285.4 311.57C283.811 311.539 282.563 311.166 280.975 310.693L280.739 310.622L280.654 310.597L280.505 310.553L280.175 310.455L279.875 310.286C279.528 310.089 279.21 309.936 278.809 309.743L278.809 309.742C278.734 309.707 278.657 309.67 278.577 309.631C278.449 309.569 278.312 309.502 278.164 309.429C277.499 309.1 276.675 308.665 275.886 308.043C274.195 306.713 273.029 304.822 272.625 302.021C271.579 301.89 270.482 301.687 269.382 301.337L268.475 301.049L267.903 300.295C266.199 298.045 265.369 295.605 265.861 293.059C266.168 291.472 266.944 290.097 267.928 288.903C266.715 288.494 265.492 287.946 264.271 287.217L262.314 286.048L262.775 284.443C252.628 276.92 240.204 270.98 225.051 263.735L224.386 263.417C228.122 265.203 229.379 267.128 231.114 269.783L231.114 269.784L231.115 269.785C231.505 270.381 231.918 271.014 232.389 271.691C235.746 279.707 237.295 284.102 237.295 295.996L237.286 296.248L237.286 296.25L237.286 296.252C237.23 297.905 237.329 299.265 238.235 300.909C238.875 302.068 239.453 303.517 239.526 305.304C239.682 309.097 237.345 312.329 234.879 313.837Z" fill="white"/>
<path fill-rule="evenodd" clip-rule="evenodd" d="M308.318 309.443C332.445 283.484 347.664 249.919 344.998 209.216C344.998 164.657 330.016 124.231 293.852 95.0397C266.093 72.6331 226.776 62.3521 188.104 63.4262C165.818 63.4262 142.087 69.2743 122.575 77.0333C95.7982 87.6805 75.3898 102.585 60.2687 124.658C43.944 148.487 38.7836 174.929 38.7842 206.3C38.7849 246.405 50.5509 281.406 76.3826 306.205C104.722 335.45 149.58 359.04 195.692 359.04C241.3 359.04 280.997 338.839 308.318 309.443ZM94.4351 109.504C68.3705 133.588 59.3039 169.31 59.3039 201.982C59.3039 223.672 62.5371 242.586 76.3826 262.877C97.1512 293.314 148.715 317.191 187.946 317.191C219.737 317.191 255.786 307.98 280.94 286.71C309.292 262.735 324.854 224.697 324.854 191.132C324.854 157.393 311.02 128.835 283.523 107.438C253.559 83.1557 223.683 74.8896 192.079 74.8896C174.312 74.8896 151.698 78.8935 133.183 85.7389C117.575 91.5092 105.627 99.1625 94.4351 109.504Z" fill="#F86F0E"/>
<path d="M73.1023 37.4561C71.0104 33.3448 62.0897 27.0656 62.0897 27.0656C62.0897 27.0656 77.7253 14.8823 100.016 22.9799C114.821 28.3585 121.541 57.9323 121.541 57.9323C121.541 57.9323 113.796 49.9501 108.752 51.104C103.708 52.2578 103.182 51.7362 99.6247 51.4706C95.2753 51.1458 92.782 50.6603 88.717 49.0888C81.6181 46.3445 73.1023 37.4561 73.1023 37.4561Z" fill="#9BAB49"/>
<path d="M79.9684 36.863C61.4496 36.2386 52.8505 57.6402 52.8505 57.6402C52.8505 57.6402 58.3084 58.3352 62.3028 60.0505C71.855 64.1524 73.6901 64.4517 83.836 62.555C91.2496 61.169 108.476 55.6778 114.668 55.502C117.52 55.4209 121.54 57.9323 121.54 57.9323C121.54 57.9323 103.985 37.6727 79.9684 36.863Z" fill="#C1BF0A"/>
<path d="M100.476 142.356C98.3868 138.983 98.2104 136.019 99.0555 133.036C105.389 110.816 115.696 90.9945 134.835 77.083C160.196 58.6459 188.008 54.2968 217.855 64.1473C221.922 65.4855 226.017 67.1117 229.351 70.7081C228.617 71.6374 227.977 72.4459 227.085 73.5517C208.912 62.5582 189.494 61.1922 169.408 65.8107C162.666 67.3627 155.581 68.4871 150.399 74.3695C150.641 76.1723 150.873 77.9844 151.077 79.5271C145.375 83.8018 139.804 87.9929 134.204 92.1933C129.477 89.1545 127.601 89.2846 123.562 93.4014C116.532 100.557 111.703 109.125 108.36 118.502C105.639 126.14 103.253 133.909 100.476 142.356Z" fill="white"/>
<path d="M244.839 167.173C244.837 167.203 244.835 167.232 244.833 167.262C244.833 167.263 244.833 167.265 244.832 167.266C244.678 169.37 244.549 171.119 244.384 173.508C243.643 173.353 242.931 173.204 242.222 173.056C240.057 172.605 237.924 172.159 235.092 171.572C235.009 171.555 234.925 171.538 234.84 171.52C234.861 171.505 234.883 171.491 234.904 171.476C234.966 171.433 235.028 171.391 235.089 171.349C238.695 168.896 241.39 167.799 244.839 167.173Z" fill="white"/>
<path fill-rule="evenodd" clip-rule="evenodd" d="M233.87 311.26C231.728 312.55 217.433 305.802 217.433 305.802C217.433 305.802 192.423 294.175 179.797 288.306L179.604 288.216C170.127 283.809 160.596 279.378 150.99 274.913C149.895 274.402 149.431 273.092 149.969 272.014L150.275 271.382C150.795 270.341 152.048 269.904 153.097 270.387C163.48 275.185 173.791 279.947 184.115 284.715L184.5 284.892L184.549 284.915C195.057 289.768 205.58 294.628 216.208 299.538C216.168 297.305 214.734 296.685 213.512 296.157C213.331 296.079 213.154 296.003 212.988 295.924C205.774 292.443 198.519 289.069 191.261 285.693L191.257 285.691L189.841 285.033C182.272 281.508 174.704 277.993 167.144 274.483L166.952 274.394C162.339 272.252 157.729 270.112 153.125 267.971C152.076 267.488 151.593 266.252 152.048 265.193C152.436 264.296 152.835 263.409 153.231 262.527C156.042 256.268 158.712 250.323 156.54 243.578C156.289 242.807 156.438 241.952 156.995 241.366C157.349 240.999 157.702 240.639 158.049 240.283C159.495 238.806 160.866 237.405 162.025 235.847C162.32 235.454 162.623 235.059 162.929 234.66C164.62 232.46 166.382 230.169 167.018 227.65C167.448 225.935 167.906 224.223 168.365 222.51L168.365 222.508L168.365 222.508C170.34 215.126 172.321 207.723 172.095 199.94C172.087 199.645 172.071 199.348 172.056 199.051L172.055 199.05C171.997 197.952 171.938 196.851 172.281 195.842C172.754 194.457 174.527 194.057 175.65 194.996L179.148 197.92L179.731 198.407L183.427 201.496L186.546 204.103C186.88 204.382 187.121 204.744 187.242 205.162C188.625 210.124 191.168 216.118 197.674 219.501C196.828 218.091 195.844 216.756 194.857 215.417C192.628 212.392 190.382 209.343 189.655 205.357C189.488 204.437 189.887 203.489 190.713 203.034C190.794 202.989 190.875 202.945 190.956 202.9C193.427 201.536 196.133 200.042 196.978 195.526C194.852 197.366 193.395 198.62 192.012 199.81C191.706 200.079 191.326 200.256 190.927 200.321C185.571 201.138 182.165 199.484 178.434 193.881C177.655 192.719 178.184 191.112 179.511 190.656L181.775 189.857C182.416 189.634 183.14 189.736 183.706 190.117C185.349 191.251 186.889 192.301 188.439 193.351L189.228 192.719L187.177 189.811C186.629 189.03 186.639 187.961 187.26 187.237C190.555 183.361 194.713 181.113 200.115 180.936C205.154 180.769 208.978 178.901 211.568 174.004C213.02 171.261 215.479 169.003 217.872 166.805C218.293 166.419 218.712 166.035 219.123 165.65C221.611 163.32 224.231 161.131 226.85 158.943L226.852 158.941C227.982 157.997 229.113 157.052 230.232 156.097C230.125 155.897 230.016 155.699 229.907 155.502C229.829 155.36 229.75 155.217 229.672 155.074C229.642 155.019 229.612 154.963 229.582 154.907L229.629 154.894C238.589 152.343 247.548 149.792 256.581 147.222C257.843 146.86 259.143 147.724 259.31 149.025C259.567 151.12 259.808 153.183 260.046 155.22L260.047 155.231L260.047 155.231C260.779 161.502 261.482 167.526 262.54 173.493C263.218 177.327 264.528 181.012 265.821 184.651C267.286 188.774 268.73 192.838 269.213 196.994C269.268 197.561 269.12 198.146 268.749 198.574C266.559 201.123 264.199 200.608 261.986 200.124L261.985 200.124C261.722 200.067 261.461 200.01 261.203 199.958C260.451 199.81 259.672 200.07 259.161 200.637C257.574 202.384 257.713 204.409 258.493 206.547C259.3 208.805 258.957 210.645 256.386 212.16C254.876 212.022 253.315 211.88 251.722 211.736L251.582 211.723L251.542 211.719L251.492 211.715C248.858 211.476 246.139 211.229 243.421 210.979C245.449 213.228 247.939 213.426 250.404 213.621C250.984 213.667 251.564 213.713 252.135 213.786C253.908 214.018 255.505 214.353 256.368 215.654C257.147 216.824 256.414 218.441 255.05 218.794L253.917 219.092C252.869 219.361 252.191 220.384 252.33 221.461C252.409 222.064 252.504 222.666 252.6 223.27C253.157 226.8 253.72 230.364 250.994 234.118C250.641 234.601 250.084 234.889 249.49 234.945C248.078 235.07 246.579 235.203 245.026 235.342L245.015 235.343C242.509 235.567 239.862 235.803 237.211 236.032C235.963 236.135 234.703 236.186 233.443 236.237C230.721 236.347 227.998 236.457 225.397 237.092C219.141 238.597 215.401 242.835 214.343 249.367C212.7 259.496 212.923 269.616 213.99 279.782C215.291 278.04 215.217 276.108 215.139 274.082C215.116 273.493 215.093 272.895 215.104 272.292C215.141 270.564 217.164 269.551 218.519 270.62C225.219 275.929 225.73 283.855 226.281 292.416C226.353 293.52 226.424 294.635 226.51 295.756C230.473 284.689 226.056 272.924 216.524 266.577C215.93 266.178 215.549 265.518 215.549 264.793V262.293C215.818 262.275 216.061 262.243 216.283 262.214C216.721 262.158 217.079 262.111 217.406 262.191C223.383 263.678 227.327 267.46 229.601 273.119C232.682 280.786 234.177 288.74 233.87 297.011C233.868 297.085 233.865 297.159 233.863 297.233L233.863 297.234L233.863 297.237C233.779 299.718 236.232 302.313 236.766 304.594C237.3 306.874 236.012 309.97 233.87 311.26ZM249.685 199.884C248.757 199.698 248.07 198.908 247.978 197.97C247.56 193.639 248.275 192.97 253.296 190.275C252.925 190.859 252.583 191.4 252.258 191.911L252.249 191.926C251.545 193.037 250.928 194.01 250.307 194.987C249.732 195.888 249.917 197.068 250.725 197.765L252.822 199.559C252.776 199.712 252.732 199.865 252.688 200.019C252.644 200.172 252.6 200.325 252.553 200.479L249.685 199.884ZM229.202 303.051C228.877 302.744 228.478 302.54 228.042 302.475C227.188 302.35 226.314 302.222 225.427 302.092L225.29 302.072L225.272 302.069C223.826 301.856 222.347 301.639 220.867 301.425C220.867 301.063 220.876 300.709 220.885 300.347V300.346L220.886 300.319C229.508 299.529 231.448 300.44 233.174 306.852C232.448 306.155 231.808 305.544 231.207 304.971L231.201 304.965C230.506 304.301 229.863 303.688 229.202 303.051ZM247.94 175.175C243.504 175.834 239.29 174.914 235.123 173.623C230.956 172.331 231.258 171.349 231.258 171.349C231.258 171.349 233.325 169.584 235.123 168.57C236.921 167.556 238.765 167.028 240.672 166.348C244.3 165.055 248.068 163.711 252.108 162.267C247.307 159.907 243.642 161.643 240.043 163.348C237.776 164.422 235.535 165.483 233.053 165.501C240.488 158.606 247.476 157.138 254.716 161.078C256.08 161.821 256.321 163.791 255.05 164.674C253.316 165.878 252.541 167.848 251.749 169.86C251.086 171.542 250.412 173.254 249.156 174.571C248.841 174.905 248.395 175.11 247.94 175.175Z" fill="white"/>
<path d="M96.8858 134.023C96.245 132.873 95.985 132.362 95.6692 131.88C95.3813 131.444 95.0377 131.054 94.0069 129.727C92.6324 134.886 92.4611 135.158 91.328 139.464C86.7788 143.48 83.0747 146.758 79.4795 149.92C83.3863 129.938 90.6474 103.271 111.596 78.7808C132.545 54.2907 165.835 46.1036 196.041 48.358C216.257 49.8668 234.759 56.9095 245.389 64.488C240.71 65.5015 235.872 66.5337 229.939 67.8076C229.939 67.8076 215.853 58.2229 196.041 57.1298C163.308 55.3238 141.37 64.1473 121.726 83.9579C105.474 100.347 96.8858 134.023 96.8858 134.023Z" fill="white"/>
<path d="M201.304 72.5868C212.23 73.7303 220.086 79.1499 228.378 82.5523C233.279 92.4746 225.517 101.376 212.339 111.172C186.232 130.576 159.829 147.62 133.973 165.147C119.258 158.038 112.353 146.015 114.133 130.53C114.53 127.071 115.242 125.198 116.314 121.887C119.753 111.267 127.593 102.303 134.204 95.5706C142.078 88.6046 146.091 85.2071 154.959 80.6067C159.241 78.3856 161.726 77.2467 166.295 75.7047C170.041 74.4404 172.203 73.8721 176.085 73.1247C185.759 71.2624 190.377 71.4434 201.304 72.5868Z" fill="white"/>
<path d="M139.244 173.486C145.169 168.842 149.034 166.262 156.476 161.186L156.391 161.646C153.094 179.401 149.9 196.604 143.891 213.972C139.045 212.085 134.735 210.402 130.213 208.644C136.667 197.222 141.704 187.222 139.244 173.486Z" fill="white"/>
<path d="M189.063 172.384C186.111 168.179 183.764 164.226 180.803 160.812C178.752 158.458 176.089 156.328 173.268 155.016C168.414 152.755 165.166 154.439 163.959 159.686C161.927 168.552 160.34 177.529 158.428 186.431C156.164 196.999 153.788 207.539 151.375 218.079C150.874 220.256 150.02 222.359 149.194 224.917C139.821 223.475 131.506 220.387 122.838 214.619C124.861 212.982 126.318 211.819 128.063 210.414C133.474 212.34 138.921 214.284 144.925 216.424C152.368 196.776 155.208 176.747 159.644 155.825C153.413 160.328 152.3 161.186 148.387 163.77C144.935 166.049 141.612 168.524 137.919 171.138C136.833 169.547 136.035 168.393 135.07 166.97C137.232 165.472 139.097 164.189 140.954 162.914C165.314 146.076 189.684 129.257 214.027 112.391C216.207 110.884 218.203 109.107 220.244 107.405C225.887 102.697 234.825 92.2166 230.961 84.4767C237.763 84.8395 258.278 95.9909 266.514 102.537C274.75 109.082 282.23 120.081 282.23 120.081C287.297 123.011 293.67 126.55 298.802 129.517C298.793 129.927 298.784 130.336 298.774 130.754C262.832 134.959 228.402 144.169 196.041 161.733C192.942 153.202 188.097 146.532 180.469 142.346L179.374 143.369C181.49 145.202 183.773 146.885 185.694 148.913C187.633 150.969 189.462 153.221 190.872 155.667C192.366 158.253 193.304 161.165 194.621 164.272C195.8 163.854 197.081 163.565 198.185 162.979C226.926 147.583 257.598 138.355 289.837 134.113L290.251 134.058C294.058 133.555 297.883 133.049 301.707 132.959C303.526 132.913 305.363 133.927 307.191 134.466L307.08 135.973C303.257 136.68 299.415 137.341 295.6 138.094C279.063 141.36 262.414 144.132 246.034 148.067C226.583 152.737 208.208 160.356 191.29 171.24C190.677 171.631 189.991 171.91 189.063 172.384Z" fill="white"/>
<path d="M154.959 242.63C154.966 245.251 155.639 246.761 155.732 248.822C155.825 250.884 154.878 255.058 153.671 258.11C152.653 260.684 151.323 262.31 150.275 265.193C149.554 267.177 149.2 268.649 148.003 270.387C146.46 272.628 143.366 274.622 143.366 274.622C143.366 274.622 140.265 276.013 137.698 275.912C135.099 275.81 134.754 274.622 132.846 273.848C126.515 271.281 121.51 273.682 116.291 268.196C117.517 264.207 117.118 260.236 114.026 257.01L103.571 255.057C103.478 253.327 103.395 251.858 103.311 250.305C106.375 246.697 109.383 243.145 112.967 238.924L117.394 234.283C115.592 229.514 116.094 227.738 119.837 225.191C122.242 223.555 125.068 221.335 127.65 219.56C134.097 222.998 138.116 224.122 145.518 226.157C147.404 226.465 148.482 226.769 150.322 226.157C151.999 224.755 165.554 161.932 165.522 159.446C165.491 156.959 169.22 154.465 173.268 156.866C179.806 160.745 181.664 163.565 188.709 174.518C204.3 164.822 215.003 158.979 227.611 155.502L228.127 156.458C228.127 156.458 222.146 161.122 221.171 161.876C219.598 163.092 217.796 164.655 216.276 166.262C214.427 168.217 212.606 169.151 211.123 171.164C207.632 175.903 205.72 180.217 196.353 179.681C193.508 179.681 191.148 181.041 188.451 183.032C186.25 184.658 185.611 188.858 183.706 188.192C181.018 187.253 176.6 189.482 176.343 191.288C176.085 193.094 171.808 193.759 170.675 195.526C169.542 197.292 170.431 202.842 169.814 207.483C169.012 213.511 168.853 217.08 166.558 222.711C164.749 229.73 164.356 229.552 161.658 233.858C159.532 237.25 154.953 240.237 154.959 242.63Z" fill="white"/>
</g>
<defs>
<linearGradient id="paint0_linear_1308_401" x1="0" y1="0" x2="384" y2="384" gradientUnits="userSpaceOnUse">
<stop stop-color="white"/>
<stop offset="1" stop-color="white" stop-opacity="0"/>
</linearGradient>
<clipPath id="clip0_1308_401">
<rect width="384" height="384" fill="white"/>
</clipPath>
</defs>
</svg>
