<svg width="144" height="144" viewBox="0 0 144 144" fill="none" xmlns="http://www.w3.org/2000/svg">
<g clip-path="url(#clip0_1308_437)">
<rect width="144" height="144" fill="white"/>
<rect width="144" height="144" fill="#3BA57E"/>
<rect width="144" height="144" fill="#FD720F"/>
<rect width="144" height="144" fill="url(#paint0_linear_1308_437)" fill-opacity="0.2"/>
<path d="M37.6886 53.365C36.9046 52.1003 36.8384 50.9889 37.1555 49.8706C39.532 41.5404 43.4 34.1091 50.582 28.8936C60.0987 21.9814 70.5353 20.3509 81.735 24.0439C83.2613 24.5456 84.7981 25.1553 86.0491 26.5036C85.7738 26.852 85.5334 27.1551 85.1988 27.5697C78.3793 23.4482 71.0928 22.9361 63.5555 24.6676C61.0256 25.2494 58.3668 25.671 56.4223 27.8763C56.5129 28.5522 56.6 29.2316 56.6767 29.8099C54.5371 31.4125 52.4463 32.9838 50.345 34.5586C48.5713 33.4193 47.8674 33.4681 46.3516 35.0115C43.7136 37.6941 41.9016 40.9063 40.6471 44.4217C39.6261 47.2855 38.7306 50.1981 37.6886 53.365Z" fill="white"/>
<path d="M91.8611 62.6688C91.8603 62.68 91.8595 62.6911 91.8587 62.7023C91.8586 62.7028 91.8586 62.7033 91.8585 62.7039C91.8005 63.4926 91.7522 64.1481 91.6904 65.0438C91.4122 64.9858 91.1449 64.9301 90.879 64.8746C90.0665 64.7052 89.2663 64.5383 88.2036 64.3182C88.1722 64.3117 88.1407 64.3052 88.1088 64.2986C88.1169 64.2931 88.1249 64.2876 88.1328 64.2821C88.1561 64.2661 88.1793 64.2502 88.2024 64.2346C89.5556 63.315 90.5669 62.9037 91.8611 62.6688Z" fill="white"/>
<path fill-rule="evenodd" clip-rule="evenodd" d="M87.745 116.688C86.9412 117.172 81.577 114.642 81.577 114.642C81.577 114.642 72.1918 110.283 67.4541 108.082L67.3814 108.048C63.8252 106.397 60.2486 104.735 56.644 103.061C56.233 102.87 56.0589 102.378 56.2609 101.974L56.3758 101.737C56.5709 101.347 57.041 101.183 57.4346 101.365C61.3308 103.163 65.2 104.948 69.0742 106.736L69.2186 106.803L69.2372 106.811C73.1804 108.63 77.1291 110.452 81.1173 112.293C81.1021 111.456 80.5639 111.224 80.1055 111.026C80.0375 110.997 79.9713 110.968 79.9088 110.938C77.2017 109.633 74.4793 108.368 71.7559 107.103L71.7541 107.102L71.2228 106.855C68.3827 105.534 65.5426 104.216 62.7057 102.9L62.6338 102.867C60.9028 102.064 59.1729 101.261 57.445 100.459C57.0515 100.278 56.8704 99.8142 57.041 99.4171C57.1867 99.0809 57.3363 98.7481 57.4848 98.4178C58.5398 96.0711 59.5418 93.8422 58.7267 91.3136C58.6326 91.0244 58.6884 90.7039 58.8973 90.4844C59.0304 90.3466 59.1625 90.2116 59.2931 90.0783C59.8355 89.5243 60.3499 88.9991 60.785 88.415C60.8954 88.2677 61.0094 88.1195 61.1242 87.9703C61.7589 87.1454 62.4198 86.2863 62.6587 85.3422C62.8201 84.6991 62.992 84.0573 63.164 83.415L63.1641 83.4143L63.1642 83.4142C63.9053 80.6467 64.6486 77.8711 64.5638 74.9533C64.5608 74.8428 64.5548 74.7315 64.5489 74.6202L64.5488 74.6197C64.5268 74.208 64.5046 73.7952 64.6334 73.4169C64.8111 72.8978 65.4763 72.748 65.8977 73.0998L67.2104 74.196L67.4292 74.3787L68.8162 75.5369L69.9864 76.5141C70.1118 76.6186 70.2023 76.7544 70.2476 76.9112C70.7665 78.7716 71.7208 81.0187 74.1622 82.2868C73.8447 81.7585 73.4756 81.258 73.1051 80.7557C72.2689 79.6219 71.4259 78.4788 71.1531 76.9844C71.0904 76.6395 71.2402 76.2841 71.5502 76.1134C71.5804 76.0967 71.6108 76.0799 71.6413 76.0631C72.5685 75.5517 73.5841 74.9916 73.901 73.2984C73.1035 73.9882 72.5567 74.4586 72.0377 74.9045C71.9228 75.0055 71.78 75.0717 71.6303 75.0961C69.6207 75.4027 68.3426 74.7826 66.9425 72.6818C66.6499 72.2463 66.8485 71.6436 67.3465 71.4729L68.1963 71.1733C68.4366 71.0897 68.7082 71.128 68.9207 71.2708C69.5371 71.6959 70.1153 72.0895 70.6969 72.4832L70.9929 72.2463L70.2232 71.1558C70.0178 70.8632 70.0212 70.4626 70.2546 70.1908C71.491 68.738 73.0512 67.8949 75.0782 67.8287C76.9693 67.766 78.4042 67.0658 79.3759 65.2298C79.9209 64.2016 80.8437 63.3549 81.7417 62.5311C81.8996 62.3862 82.0567 62.2421 82.2109 62.0978C83.1447 61.2244 84.1279 60.4037 85.1105 59.5835L85.1113 59.5828C85.5355 59.2286 85.9597 58.8745 86.3797 58.5163C86.3397 58.4414 86.2987 58.3674 86.2578 58.2934C86.2283 58.24 86.1988 58.1866 86.1696 58.1328C86.1583 58.1121 86.1471 58.0913 86.1359 58.0704L86.1536 58.0654C89.5155 57.109 92.8775 56.1526 96.2673 55.1892C96.7409 55.0534 97.2285 55.3774 97.2912 55.8651C97.3877 56.6507 97.4781 57.4241 97.5673 58.1878L97.5677 58.1916L97.5678 58.1919C97.8425 60.5427 98.1064 62.8013 98.5032 65.0381C98.7579 66.4756 99.2493 67.8572 99.7345 69.2216C100.284 70.7672 100.826 72.2909 101.007 73.8489C101.028 74.0614 100.972 74.2809 100.833 74.4412C100.011 75.397 99.1258 75.2037 98.2955 75.0225L98.2951 75.0224C98.1965 75.0008 98.0986 74.9795 98.0017 74.9602C97.7196 74.9045 97.427 75.002 97.2355 75.2146C96.6399 75.8695 96.6922 76.629 96.9847 77.4303C97.2877 78.2769 97.1588 78.9667 96.1941 79.5346C95.6275 79.4829 95.0418 79.4299 94.444 79.3757L94.3912 79.3709L94.3765 79.3696L94.3577 79.3679C93.3693 79.2783 92.349 79.1859 91.3287 79.0921C92.0898 79.9352 93.0242 80.0092 93.9491 80.0825C94.1671 80.0998 94.3845 80.117 94.599 80.1443C95.2642 80.2314 95.8633 80.3568 96.1872 80.8445C96.4797 81.2835 96.2046 81.8897 95.6926 82.0221L95.2677 82.1335C94.8742 82.2346 94.6199 82.6178 94.6722 83.0219C94.7017 83.2478 94.7374 83.4737 94.7732 83.6999C94.9825 85.0235 95.1938 86.3597 94.1706 87.767C94.0383 87.9481 93.8293 88.0561 93.6064 88.077C93.0765 88.1237 92.514 88.1738 91.9311 88.2258L91.9272 88.2262C90.9867 88.3101 89.9934 88.3987 88.9988 88.4847C88.5304 88.5232 88.0576 88.5423 87.5848 88.5613C86.5631 88.6025 85.5414 88.6437 84.5652 88.8818C82.2178 89.4462 80.8143 91.0349 80.4172 93.484C79.8008 97.2814 79.8844 101.075 80.2849 104.887C80.7732 104.234 80.7453 103.509 80.7161 102.75C80.7075 102.529 80.6989 102.305 80.7028 102.079C80.7168 101.431 81.476 101.051 81.9845 101.452C84.4986 103.442 84.6902 106.414 84.8972 109.623C84.9239 110.037 84.9509 110.455 84.9831 110.876C86.4703 106.726 84.8125 102.316 81.2357 99.9362C81.0128 99.7863 80.87 99.539 80.87 99.2672V98.3301C80.971 98.323 81.062 98.3112 81.1455 98.3004C81.3096 98.2792 81.4442 98.2617 81.5666 98.2918C83.8094 98.8492 85.2896 100.267 86.1429 102.389C87.2992 105.263 87.8599 108.245 87.745 111.346C87.7441 111.374 87.7431 111.401 87.7422 111.429L87.7422 111.43L87.7421 111.43C87.7106 112.361 88.631 113.334 88.8316 114.189C89.0321 115.044 88.5487 116.204 87.745 116.688ZM93.6796 74.9324C93.3313 74.8627 93.0736 74.5666 93.0388 74.2147C92.882 72.5912 93.1502 72.3404 95.0344 71.33C94.8954 71.5489 94.7668 71.7516 94.6451 71.9434L94.6415 71.9491C94.3774 72.3654 94.146 72.7301 93.9129 73.0964C93.697 73.4343 93.7666 73.8768 94.0696 74.138L94.8567 74.8104C94.8393 74.8679 94.8228 74.9254 94.8062 74.9829C94.7897 75.0404 94.7732 75.0979 94.7557 75.1553L93.6796 74.9324ZM85.9931 113.61C85.8712 113.495 85.7215 113.419 85.5578 113.394C85.2375 113.348 84.9096 113.3 84.5767 113.251L84.5253 113.243L84.5184 113.242C83.9758 113.162 83.4207 113.081 82.8656 113.001C82.8656 112.865 82.8689 112.732 82.8723 112.597V112.596L82.8726 112.586C86.1081 112.29 86.836 112.631 87.4838 115.035C87.2114 114.774 86.9711 114.545 86.7456 114.33L86.7433 114.328C86.4824 114.079 86.2413 113.849 85.9931 113.61ZM93.0248 65.6687C91.3601 65.9161 89.7789 65.5712 88.2151 65.0869C86.6514 64.6027 86.7648 64.2346 86.7648 64.2346C86.7648 64.2346 87.5405 63.5726 88.2151 63.1925C88.8898 62.8123 89.5817 62.6146 90.2972 62.3597C91.6586 61.8747 93.0727 61.3709 94.5886 60.8296C92.7871 59.9447 91.4118 60.5956 90.0612 61.2348C89.2106 61.6373 88.3698 62.0353 87.4385 62.042C90.2282 59.457 92.8507 58.9065 95.5672 60.3837C96.0792 60.6624 96.1697 61.401 95.6926 61.7319C95.0422 62.1834 94.751 62.922 94.4538 63.6761C94.2052 64.307 93.9522 64.9487 93.4811 65.4423C93.3626 65.5677 93.1955 65.6443 93.0248 65.6687Z" fill="white"/>
<path d="M36.3413 50.2409C36.1009 49.8095 36.0033 49.6181 35.8848 49.4372C35.7768 49.2737 35.6478 49.1276 35.261 48.63C34.7452 50.5645 34.6809 50.6664 34.2558 52.2807C32.5487 53.7862 31.1587 55.0151 29.8096 56.2005C31.2756 48.7093 34.0003 38.7116 41.8615 29.5301C49.7226 20.3487 62.2145 17.2792 73.5496 18.1245C81.1357 18.6901 88.0786 21.3305 92.0675 24.1717C90.3115 24.5517 88.4962 24.9386 86.2698 25.4162C86.2698 25.4162 80.9838 21.8229 73.5496 21.4131C61.2665 20.736 53.034 24.0439 45.6625 31.471C39.5641 37.6155 36.3413 50.2409 36.3413 50.2409Z" fill="white"/>
<path d="M75.5243 27.208C79.6244 27.6367 82.5724 29.6685 85.6841 30.9441C87.5233 34.664 84.6104 38.0014 79.6652 41.6737C69.8687 48.9485 59.9607 55.3383 50.2583 61.9094C44.7364 59.244 42.1455 54.7365 42.8133 48.9311C42.9625 47.6344 43.2296 46.9323 43.6319 45.6907C44.9223 41.7092 47.8643 38.3486 50.345 35.8247C53.2996 33.2131 54.8056 31.9394 58.1335 30.2147C59.7402 29.382 60.6725 28.955 62.3873 28.3769C63.7931 27.9029 64.6041 27.6898 66.061 27.4096C69.691 26.7115 71.4242 26.7793 75.5243 27.208Z" fill="white"/>
<path d="M52.2362 65.0358C54.4598 63.2947 55.9099 62.3275 58.7027 60.4244L58.6706 60.5968C57.4336 67.2532 56.2351 73.7028 53.9802 80.2141C52.1615 79.5065 50.5444 78.8755 48.8474 78.2167C51.2694 73.9345 53.1594 70.1852 52.2362 65.0358Z" fill="white"/>
<path d="M70.9308 64.6226C69.8234 63.0462 68.9423 61.564 67.8314 60.284C67.0618 59.4016 66.0624 58.6029 65.0037 58.1112C63.1824 57.2637 61.9635 57.8949 61.5108 59.862C60.7481 63.1857 60.1526 66.5513 59.4353 69.889C58.5855 73.851 57.694 77.8025 56.7886 81.754C56.6005 82.5701 56.2802 83.3583 55.9702 84.3174C52.4529 83.7768 49.3327 82.6189 46.0801 80.4566C46.8392 79.8428 47.386 79.4068 48.0407 78.8802C50.0709 79.6021 52.1151 80.331 54.3683 81.1332C57.1612 73.7673 58.2269 66.2583 59.8915 58.4146C57.5534 60.1028 57.1358 60.4244 55.6673 61.3931C54.3718 62.2475 53.1251 63.1752 51.739 64.1553C51.3316 63.5589 51.0321 63.1264 50.6699 62.5928C51.4813 62.0313 52.1813 61.55 52.8778 61.0722C62.0192 54.7595 71.1641 48.4539 80.2986 42.1307C81.117 41.5657 81.8657 40.8996 82.6318 40.2614C84.7492 38.4966 88.1033 34.5673 86.6532 31.6655C89.2058 31.8016 96.9039 35.9823 99.9946 38.4363C103.085 40.8903 105.892 45.0136 105.892 45.0136C107.793 46.1123 110.185 47.439 112.111 48.5515C112.107 48.705 112.104 48.8584 112.1 49.0154C98.6128 50.5918 85.6929 54.0446 73.5496 60.6293C72.3865 57.4311 70.5686 54.9304 67.7061 53.361L67.2951 53.7446C68.0891 54.4317 68.9458 55.063 69.6667 55.8233C70.3945 56.594 71.0806 57.438 71.6099 58.3553C72.1706 59.3249 72.5223 60.4165 73.0168 61.5814C73.4591 61.4244 73.9396 61.3163 74.3541 61.0966C85.1392 55.3245 96.6487 51.8648 108.747 50.2744L108.902 50.2539C110.331 50.0652 111.766 49.8756 113.201 49.8419C113.883 49.8245 114.573 50.2047 115.259 50.407L115.217 50.972C113.782 51.237 112.341 51.4846 110.909 51.7671C104.704 52.9913 98.4561 54.0306 92.3096 55.5059C85.0104 57.2567 78.1151 60.1131 71.7666 64.1936C71.5368 64.3401 71.2791 64.4447 70.9308 64.6226Z" fill="white"/>
<path d="M58.1335 90.9582C58.1361 91.9409 58.3887 92.5067 58.4235 93.2796C58.4583 94.0525 58.1031 95.6173 57.6501 96.7617C57.2681 97.7267 56.7691 98.3361 56.3758 99.4171C56.1052 100.161 55.9725 100.713 55.5232 101.365C54.944 102.205 53.783 102.952 53.783 102.952C53.783 102.952 52.6194 103.474 51.6561 103.436C50.6808 103.397 50.5516 102.952 49.8356 102.662C47.4598 101.699 45.5814 102.6 43.6233 100.543C44.0832 99.0474 43.9334 97.5588 42.7732 96.3491L38.85 95.617C38.8151 94.9686 38.7838 94.4178 38.7524 93.8356C39.9022 92.483 41.0311 91.1513 42.376 89.5686L44.0371 87.8286C43.3609 86.0408 43.5491 85.3751 44.9537 84.4202C45.8564 83.8068 46.9168 82.9746 47.8857 82.3089C50.3047 83.5979 51.813 84.0193 54.5908 84.7824C55.2984 84.8976 55.703 85.0117 56.3933 84.7824C57.0225 84.2566 62.1091 60.7041 62.0972 59.7719C62.0854 58.8397 63.485 57.9045 65.0037 58.8047C67.4574 60.2591 68.1544 61.3162 70.7982 65.4227C76.6486 61.7876 80.6649 59.597 85.3964 58.2934L85.5897 58.6519C85.5897 58.6519 83.3455 60.4004 82.9794 60.6832C82.3893 61.139 81.713 61.7249 81.1426 62.3275C80.4489 63.0603 79.7657 63.4104 79.209 64.1653C77.8992 65.9418 77.1815 67.5591 73.6664 67.3582C72.5988 67.3582 71.7135 67.868 70.7015 68.6147C69.8753 69.2242 69.6356 70.7986 68.9207 70.5492C67.9119 70.1972 66.2543 71.0328 66.1577 71.7099C66.061 72.3869 64.456 72.6363 64.0308 73.2984C63.6056 73.9606 63.9393 76.0413 63.7077 77.7811C63.4069 80.0413 63.347 81.3792 62.4861 83.4904C61.8072 86.1219 61.6598 86.0552 60.6471 87.6696C59.8495 88.941 58.1311 90.0611 58.1335 90.9582Z" fill="white"/>
<path d="M106.169 76.5535C105.247 76.2363 104.38 75.6879 103.642 74.9556C102.524 73.8466 102.519 73.8277 102.526 70.754C102.528 69.3363 102.585 67.5535 102.65 66.7921C102.696 66.2631 102.788 65.0655 102.897 63.6496C102.898 63.6469 102.898 63.6441 102.898 63.6413L102.898 63.6407L102.898 63.6404C102.978 62.6075 103.066 61.459 103.152 60.3695C103.308 58.3866 103.456 56.5988 103.525 56.0582L103.634 55.1993H104.651V71.3745H105.882V55.1993H107.302V71.3745H107.928L108.544 71.3868V55.2032H109.989V71.3868H111.242V55.2032H112.277L112.389 56.0627C112.497 56.901 112.798 60.7351 113.027 63.6495L113.027 63.6498L113.027 63.6517L113.027 63.6521C113.027 63.6528 113.027 63.6535 113.027 63.6542C113.034 63.7422 113.041 63.8293 113.047 63.9155C113.15 65.2185 113.235 66.3048 113.279 66.8016C113.316 67.2274 113.35 67.9724 113.374 68.7944C113.393 69.4433 113.404 70.1401 113.406 70.7659C113.412 73.8415 113.407 73.8604 112.269 74.97C111.518 75.7028 110.635 76.2515 109.697 76.5689L109.122 76.7634L109.123 77.2991C109.123 77.5937 109.449 82.2578 109.449 82.2578L110.264 88.5518L110.274 88.5533C110.361 88.5659 110.447 88.5794 110.534 88.5939L110.542 88.5952C110.825 88.6426 111.109 88.7004 111.395 88.77C111.377 89.1304 111.362 89.4373 111.347 89.7398L111.343 89.8242C111.339 89.902 111.335 89.9798 111.331 90.0585C111.329 90.1034 111.327 90.1485 111.325 90.1941C111.323 90.2214 111.322 90.2489 111.321 90.2765C111.317 90.3487 111.313 90.4222 111.31 90.4976C111.039 90.5515 110.771 90.6005 110.503 90.644C110.417 90.658 110.331 90.6714 110.245 90.6843L110.227 90.6871C110.191 90.6924 110.155 90.6976 110.12 90.7027C108.58 90.923 107.065 90.9509 105.432 90.6741C105.393 90.6676 105.354 90.6608 105.315 90.6539C105.297 90.6506 105.279 90.6473 105.26 90.644C104.918 90.5819 104.572 90.5065 104.218 90.4167C104.288 90.1618 104.348 89.9409 104.403 89.7398C104.413 89.7016 104.423 89.6642 104.433 89.6274C104.435 89.6199 104.437 89.6125 104.439 89.6051C104.451 89.5599 104.463 89.5157 104.475 89.4722C104.487 89.4289 104.498 89.3863 104.51 89.3442L104.542 89.2241L104.542 89.2239L104.544 89.2167L104.545 89.2154C104.545 89.2147 104.545 89.214 104.545 89.2133C104.546 89.2101 104.547 89.207 104.548 89.2038C104.602 89.0021 104.655 88.8083 104.711 88.601L104.798 88.5936L104.8 88.5935C104.804 88.5931 104.809 88.5927 104.813 88.5923C104.874 88.5872 104.935 88.5821 104.996 88.577C105.046 88.5727 105.096 88.5685 105.146 88.5644C105.317 88.5501 105.488 88.5361 105.657 88.5227L105.671 88.5216L106.482 82.2578C106.482 82.2578 106.733 77.5777 106.733 77.2833L106.734 76.7479L106.169 76.5535Z" fill="white"/>
<path d="M110.223 91.81C110.195 92.2044 110.173 92.5354 110.151 92.8652L110.15 92.8875C110.149 92.8981 110.149 92.9086 110.148 92.9192C110.138 93.0747 110.127 93.2306 110.116 93.3935L110.115 93.4196H105.525C105.523 93.3822 105.521 93.3449 105.519 93.3078C105.517 93.2766 105.516 93.2455 105.514 93.2144C105.508 93.0973 105.501 92.9813 105.495 92.8652C105.48 92.6021 105.465 92.3389 105.449 92.063L105.432 91.7546H110.227L110.223 91.81Z" fill="white"/>
<path d="M116.744 96.213C117.114 96.6392 117.174 97.5174 117.05 98.1237C116.36 101.574 115.643 105.025 114.792 108.442C114.093 111.227 112.43 113.17 110.145 114.517C110.012 114.596 109.876 114.672 109.739 114.747C109.136 115.074 108.495 115.363 107.819 115.618C107.677 115.672 107.52 115.686 107.346 115.703L107.346 115.703L107.346 115.703C107.269 115.71 107.189 115.717 107.106 115.728C106.859 115.728 106.65 115.701 106.408 115.645C106.197 115.596 105.96 115.526 105.648 115.434L105.511 115.393C105.438 115.352 105.365 115.313 105.291 115.275C105.275 115.267 105.258 115.259 105.242 115.251C105.227 115.244 105.213 115.236 105.198 115.229C105.136 115.198 105.073 115.168 105.011 115.138L105.01 115.138L104.961 115.114C104.485 114.884 104.023 114.65 103.707 114.156C103.57 113.943 103.461 113.682 103.39 113.353C103.367 113.244 103.347 113.127 103.332 113.002C103.724 113.042 104.108 113.08 104.486 113.118C104.569 113.126 104.651 113.135 104.733 113.143C104.757 113.145 104.78 113.147 104.803 113.15C104.831 113.152 104.858 113.155 104.885 113.158C104.946 113.164 105.007 113.17 105.068 113.176C105.277 113.197 105.484 113.218 105.691 113.238C106.192 113.288 106.688 113.336 107.184 113.384C106.751 113 106.292 112.754 105.818 112.593C105.555 112.503 105.288 112.44 105.018 112.393C104.925 112.376 104.832 112.362 104.739 112.35C104.583 112.329 104.427 112.312 104.27 112.299C104.017 112.277 103.764 112.262 103.511 112.247L103.511 112.247L103.511 112.247L103.41 112.241C102.967 112.215 102.526 112.186 102.096 112.116C101.847 112.075 101.602 112.02 101.361 111.944C100.51 110.821 100.633 109.89 101.357 109.023C101.464 108.895 101.584 108.768 101.717 108.642C101.761 108.6 101.807 108.557 101.854 108.515C102.7 108.405 103.559 108.388 104.42 108.374L104.511 108.373C104.595 108.371 104.679 108.37 104.763 108.369C105.399 108.358 106.034 108.342 106.664 108.286C107.323 108.227 107.976 108.123 108.618 107.935C108.023 107.722 107.417 107.625 106.801 107.589C106.143 107.551 105.475 107.581 104.801 107.612L104.801 107.612C104.772 107.613 104.744 107.615 104.716 107.616C104.598 107.621 104.479 107.627 104.361 107.631C103.486 107.667 102.603 107.678 101.721 107.516C101.62 107.497 101.518 107.476 101.416 107.452C100.836 107.317 100.257 107.099 99.6814 106.755C99.816 106.287 99.9436 105.839 100.067 105.407L100.067 105.406L100.068 105.405L100.068 105.404L100.071 105.394L100.072 105.391C100.072 105.389 100.073 105.387 100.073 105.385C100.149 105.119 100.223 104.859 100.297 104.604C100.317 104.533 100.337 104.463 100.357 104.393C100.952 104.354 101.521 104.317 102.072 104.28L102.073 104.28C102.496 104.252 102.909 104.225 103.314 104.199L103.314 104.199C103.573 104.182 103.828 104.166 104.082 104.15C104.22 104.141 104.358 104.132 104.495 104.124C104.966 104.094 105.431 104.066 105.897 104.04C106.436 104.01 106.975 103.983 107.515 103.956C108.177 103.923 108.84 103.892 109.503 103.861L109.943 103.841C110.241 103.827 110.539 103.812 110.837 103.798L110.932 103.794C110.931 103.739 110.93 103.684 110.929 103.63C110.928 103.521 110.926 103.412 110.921 103.301L110.908 103.299C110.813 103.283 110.717 103.262 110.621 103.242L110.62 103.242L110.62 103.242C110.387 103.193 110.152 103.143 109.917 103.151C109.163 103.178 108.409 103.213 107.654 103.248C107.519 103.255 107.385 103.261 107.25 103.268L107.212 103.269L107.205 103.27L107.205 103.27L107.204 103.27L107.204 103.27L107.203 103.27L107.202 103.27C106.754 103.291 106.305 103.312 105.857 103.333L105.856 103.333C105.387 103.354 104.918 103.373 104.448 103.39C104.306 103.396 104.164 103.4 104.022 103.405C103.78 103.413 103.537 103.42 103.295 103.426C102.975 103.434 102.652 103.46 102.329 103.486C101.643 103.541 100.955 103.596 100.297 103.48C100.097 103.444 99.9004 103.393 99.7069 103.321C99.441 103.223 99.1817 103.086 98.9311 102.897C98.6089 101 98.9889 99.9851 100.286 99.6212C100.464 99.5713 100.659 99.5337 100.872 99.5076C101.067 99.4838 101.278 99.4697 101.503 99.4649C102.236 99.449 102.97 99.4384 103.703 99.4311C103.868 99.4294 104.033 99.428 104.197 99.4266C105.169 99.4187 106.14 99.4158 107.111 99.4128C107.112 99.4128 107.112 99.4128 107.113 99.4128H107.115C107.119 99.4128 107.123 99.4128 107.127 99.4128C107.554 99.4114 107.981 99.4101 108.409 99.4084C109.313 99.4047 110.218 99.3992 111.123 99.3878C111.43 99.3852 111.736 99.2995 112.042 99.2139L112.042 99.2138C112.164 99.1797 112.285 99.1456 112.407 99.1169C112.409 99.1164 112.411 99.1159 112.413 99.1154C112.413 99.1153 112.414 99.1152 112.415 99.115C112.418 99.1142 112.422 99.1134 112.425 99.1126C112.426 99.1124 112.427 99.1121 112.428 99.1119C112.428 99.1118 112.429 99.1117 112.429 99.1116C112.43 99.1115 112.43 99.1114 112.431 99.1112C112.431 99.1111 112.432 99.1111 112.432 99.111C112.435 99.1104 112.437 99.1097 112.44 99.1091L112.441 99.109L112.441 99.1089C112.445 99.1079 112.45 99.1069 112.454 99.1059C112.456 99.1056 112.457 99.1052 112.459 99.1048L112.459 99.1047C112.457 99.0849 112.454 99.0651 112.452 99.0454C112.436 98.9072 112.42 98.769 112.407 98.6308H104.147H100.872C100.799 98.5579 100.73 98.4859 100.665 98.4146C99.4817 97.103 99.8621 96.0572 100.988 94.813C101.755 94.6926 102.528 94.5855 103.308 94.5004C103.499 94.4795 103.69 94.46 103.882 94.442C104.072 94.424 104.263 94.4075 104.454 94.3925C104.81 94.3646 105.167 94.3421 105.525 94.3258C106.803 94.2676 108.092 94.2886 109.388 94.4253C109.63 94.4509 109.872 94.4804 110.115 94.5143C110.133 94.5169 110.152 94.5195 110.17 94.5221C110.189 94.5248 110.208 94.5275 110.227 94.5302C110.428 94.5595 110.63 94.5917 110.832 94.627C111.346 94.7171 111.861 94.8273 112.376 94.9602C112.693 95.0419 113.01 95.1322 113.327 95.2315C113.333 95.2334 113.339 95.2353 113.345 95.2371C113.354 95.24 113.363 95.2428 113.372 95.2456C113.373 95.2458 113.373 95.2461 113.374 95.2463L113.375 95.2465C113.377 95.2471 113.378 95.2477 113.38 95.2483C113.381 95.2485 113.382 95.2488 113.383 95.2491C113.386 95.2499 113.388 95.2508 113.391 95.2517C113.4 95.2544 113.408 95.257 113.416 95.2597C113.429 95.2639 113.443 95.2681 113.456 95.2723C113.489 95.1143 113.523 94.9563 113.556 94.8019C112.82 94.4164 112.088 94.0308 111.228 93.5779L111.153 93.5379L111.156 93.4883C111.181 93.1583 111.206 92.8305 111.231 92.4996L111.249 92.2776L111.249 92.2753L111.249 92.2743L111.263 92.0868C111.266 92.0538 111.268 92.0209 111.271 91.9878C111.272 91.9799 111.272 91.972 111.273 91.9641C111.273 91.9586 111.274 91.953 111.274 91.9475C111.277 91.9075 111.28 91.8674 111.283 91.8272C111.285 91.8011 111.287 91.775 111.289 91.7488C111.292 91.7098 111.295 91.6708 111.298 91.6316L111.306 91.5352C111.309 91.4876 111.313 91.4399 111.317 91.392C111.337 91.3939 111.357 91.3956 111.376 91.3972C111.408 91.3996 111.438 91.4016 111.468 91.4032C111.477 91.4037 111.485 91.4041 111.494 91.4045C111.59 91.4091 111.678 91.4099 111.757 91.4107H111.757C111.931 91.4123 112.063 91.4136 112.148 91.4537C112.149 91.4546 112.151 91.4555 112.153 91.4564C112.154 91.457 112.155 91.4575 112.156 91.4581C112.157 91.4583 112.157 91.4586 112.158 91.4589C112.159 91.4595 112.16 91.4601 112.161 91.4607C112.176 91.4693 112.19 91.4793 112.201 91.4912C112.273 91.5634 112.346 91.6357 112.418 91.7078C112.613 91.9037 112.81 92.0993 113.006 92.295L113.009 92.2977C114.288 93.5728 115.57 94.8503 116.744 96.213Z" fill="white"/>
<path fill-rule="evenodd" clip-rule="evenodd" d="M112.463 89.8856L112.463 89.8947C112.462 89.9118 112.461 89.9288 112.46 89.9459C112.461 89.9258 112.462 89.9057 112.463 89.8856ZM113.027 63.6521C113.027 63.6528 113.027 63.6535 113.027 63.6542L113.027 63.6521Z" fill="#D9D9D9"/>
<path d="M37.9479 95.383H33.5931L33.593 95.3822H33.5891L33.5844 95.3124C33.575 95.1705 33.566 95.0338 33.557 94.8974L33.5552 94.8701C33.535 94.5619 33.5147 94.2536 33.4896 93.8898L33.4828 93.7911H38.0325L38.0325 93.7918H38.0365L38.0199 94.0856C37.9946 94.5335 37.9713 94.9463 37.9479 95.383Z" fill="white"/>
<path d="M40.2393 77.0878C40.3981 76.0374 40.2978 74.3685 40.2978 74.3685C40.2978 74.3685 40.2592 72.074 40.119 70.862C39.7024 67.2607 39.3484 64.5916 38.2293 60.7225C37.6257 58.6357 37.4556 58.178 36.4058 55.4675C36.141 54.7839 35.969 54.4467 35.8297 54.4239C35.6747 54.392 35.5605 54.7462 35.4053 55.443C35.3881 55.5204 35.3703 55.6021 35.3519 55.688C35.3478 55.7074 35.3423 55.7365 35.3356 55.7751C35.174 56.7072 34.302 63.1801 34.302 71.7849C34.302 81.5973 34.1585 84.2584 34.0206 86.8153C33.9833 87.5062 33.9465 88.1896 33.913 89.0044L33.8235 90.6816L33.8047 90.6838C33.441 90.7259 33.0755 90.7844 32.7071 90.8627C32.5963 90.8863 32.4851 90.9117 32.3737 90.939C32.3928 91.3134 32.4081 91.6274 32.4233 91.9412L32.4234 91.9416L32.4234 91.943L32.4235 91.9446C32.4297 92.0729 32.436 92.2012 32.4425 92.3337L32.4508 92.5022L32.4552 92.5898C32.5896 92.6168 32.7235 92.6425 32.8571 92.6669C32.8724 92.6697 32.8877 92.6724 32.903 92.6752C34.9618 93.0461 36.933 93.0902 39.1881 92.5133C39.0609 92.0459 38.9677 91.6982 38.8806 91.3737L38.8804 91.3731C38.8269 91.1735 38.7757 90.9827 38.7204 90.7782L38.7165 90.7778L38.7164 90.7774L38.6331 90.7704L38.6288 90.77C38.2632 90.7389 37.9007 90.7081 37.5402 90.6811L37.5177 90.6794L37.399 89.0853C37.3717 88.5162 37.3456 87.9916 37.3215 87.5073C37.1377 83.8136 37.0707 82.4651 37.4399 81.5806C37.55 81.3169 37.8391 81.0728 38.1669 80.7962C38.4637 80.5456 38.7922 80.2683 39.0481 79.9254C39.0812 79.881 39.1134 79.8381 39.1445 79.7966C39.4929 79.3319 39.7224 79.0258 39.9415 78.4475C40.105 78.0159 40.147 77.7247 40.2056 77.3181L40.2057 77.3173C40.2161 77.2449 40.2271 77.1689 40.2393 77.0878Z" fill="white"/>
<path d="M30.3272 96.7039C31.0462 96.3247 31.7617 95.9455 32.6082 95.496C32.5788 95.0937 32.5481 94.695 32.5169 94.2898L32.5168 94.2887L32.5168 94.2878L32.5167 94.2864L32.5088 94.1839C32.4901 93.9411 32.4712 93.6956 32.4524 93.4453L32.4485 93.4457C32.291 93.4607 32.1527 93.462 32.0348 93.4632C31.8283 93.4652 31.6849 93.4665 31.6129 93.5401C31.3588 93.797 31.1035 94.0532 30.8482 94.3095L30.847 94.3107L30.8468 94.3109C29.9831 95.1779 29.1183 96.046 28.2898 96.9438L28.2646 96.9711C27.9374 97.3262 27.6158 97.6861 27.3023 98.0523C27.1948 98.1773 27.1149 98.3428 27.0592 98.529L27.0588 98.5164C26.9293 98.9393 26.9261 99.4721 27.0079 99.8776C27.4897 102.302 27.9848 104.726 28.5342 107.137C28.6637 107.706 28.7962 108.274 28.9322 108.841C29.0041 109.14 29.0769 109.439 29.1508 109.738C29.2878 110.288 29.4637 110.803 29.6759 111.286C30.4337 113.012 31.653 114.326 33.2034 115.323C33.3079 115.39 33.4139 115.456 33.5214 115.52C33.6831 115.617 33.848 115.711 34.0162 115.802C34.5166 116.071 35.0452 116.313 35.5983 116.53C35.6543 116.553 35.7107 116.574 35.7672 116.596C35.8238 116.617 35.8827 116.632 35.9442 116.643C35.9767 116.649 36.01 116.654 36.044 116.659C36.0864 116.664 36.1299 116.669 36.1746 116.673C36.1895 116.674 36.2044 116.676 36.2196 116.677L36.2199 116.677C36.2926 116.684 36.3685 116.691 36.4478 116.702C36.7765 116.702 37.0325 116.65 37.4044 116.546C37.7841 115.776 38.1907 115.004 38.617 114.238L38.4207 114.258C38.1596 114.284 37.9008 114.31 37.6435 114.335C37.2182 114.378 36.7967 114.419 36.3748 114.46C37.2027 113.722 38.1316 113.518 39.0748 113.43C39.7934 112.185 40.5585 110.962 41.3394 109.797C40.8801 109.74 40.4166 109.712 39.951 109.695C39.6254 109.684 39.2988 109.678 38.9719 109.673L38.9064 109.672L38.9039 109.672C37.9808 109.657 37.056 109.641 36.1464 109.503C36.0548 109.489 35.9636 109.474 35.8723 109.457L35.8603 109.455C35.5761 109.402 35.2936 109.337 35.0132 109.254C35.3225 109.142 35.6352 109.064 35.9509 109.011C36.0077 109.001 36.0646 108.992 36.1216 108.984C36.9436 108.868 37.7849 108.906 38.6353 108.945C39.0221 108.963 39.4107 108.981 39.8004 108.985C40.5537 108.991 41.3109 108.944 42.0653 108.737C42.4482 108.19 42.8326 107.659 43.215 107.149L43.1264 106.837L43.1251 106.832C43.0318 106.503 42.941 106.183 42.8517 105.869L42.8478 105.869L42.8477 105.868C42.2833 105.831 41.7434 105.796 41.2208 105.761L41.2194 105.761L41.219 105.761L41.1937 105.759C40.801 105.733 40.4181 105.708 40.0418 105.683C39.2033 105.628 38.3977 105.577 37.5914 105.531C37.4844 105.525 37.3774 105.519 37.2704 105.514C37.1216 105.506 36.9728 105.498 36.8239 105.49C35.94 105.444 35.0552 105.402 34.1701 105.36L34.1679 105.36L34.1667 105.36L33.7549 105.341L33.7524 105.341C33.4799 105.328 33.2074 105.315 32.9348 105.302L32.903 105.3L32.8172 105.296C32.8184 105.244 32.8192 105.192 32.82 105.14C32.8215 105.036 32.8231 104.932 32.8278 104.826C32.9226 104.81 33.0177 104.79 33.113 104.77L33.1134 104.769C33.335 104.722 33.5578 104.675 33.7806 104.682C34.6384 104.714 35.4961 104.755 36.3541 104.796C37.59 104.855 38.8265 104.914 40.0641 104.945C40.3674 104.953 40.6739 104.978 40.9808 105.002L40.9809 105.002C42.1003 105.093 43.2234 105.184 44.2047 104.44C44.5346 102.483 44.0887 101.509 42.6107 101.238C42.5299 101.224 42.4459 101.211 42.3589 101.2C42.1737 101.177 41.9743 101.164 41.7603 101.159C39.9855 101.12 38.2106 101.115 36.4358 101.109C35.8415 101.108 35.2473 101.106 34.653 101.103L34.6364 101.103C33.9685 101.099 33.3005 101.094 32.6326 101.086C32.5179 101.085 32.4034 101.071 32.2892 101.051C32.1139 101.019 31.9391 100.969 31.7644 100.92C31.6324 100.883 31.5005 100.846 31.3685 100.816C31.3863 100.665 31.404 100.514 31.4181 100.363H42.3629C43.7195 99.011 43.3794 97.9681 42.2531 96.7145C42.2522 96.7143 42.2512 96.7141 42.2503 96.7139L42.2491 96.7137C41.1795 96.5445 40.0954 96.4029 39.0008 96.3152C38.6496 96.287 38.2972 96.2644 37.9439 96.2482C36.5053 96.1822 35.0508 96.2227 33.5891 96.4283C33.4561 96.447 33.323 96.4671 33.1899 96.4885C33.1426 96.4962 33.0952 96.504 33.0479 96.512C32.527 96.6 32.0053 96.7098 31.4833 96.8442C31.25 96.9042 31.0167 96.9691 30.7833 97.0391C30.7021 97.0635 30.6208 97.0885 30.5395 97.1141C30.5005 97.1264 30.4615 97.1389 30.4224 97.1515C30.3907 97.0011 30.3589 96.8508 30.3272 96.7039Z" fill="white"/>
<path d="M41.8989 113.085C42.8658 111.8 42.5081 110.778 41.4313 109.809L41.4276 109.808L41.4273 109.808C41.398 109.804 41.3687 109.8 41.3394 109.797C40.5585 110.962 39.7934 112.185 39.0748 113.43C39.3358 113.406 39.598 113.39 39.8593 113.375C40.5563 113.334 41.2478 113.293 41.8989 113.085Z" fill="white"/>
<path fill-rule="evenodd" clip-rule="evenodd" d="M103.882 94.442L104.147 98.6308L112.425 99.1126L112.415 99.115L112.413 99.1154L112.407 99.1169C112.285 99.1456 112.164 99.1797 112.042 99.2138L112.042 99.2139C111.736 99.2995 111.43 99.3852 111.123 99.3878C110.218 99.3992 109.313 99.4047 108.409 99.4084C107.981 99.4101 107.554 99.4114 107.127 99.4128L107.115 99.4128H107.113H107.111C106.14 99.4158 105.169 99.4187 104.197 99.4266L104.448 103.39C104.918 103.373 105.387 103.354 105.856 103.333L105.857 103.333C106.305 103.312 106.754 103.291 107.202 103.27L107.203 103.27L107.204 103.27L107.204 103.27L107.205 103.27L107.205 103.27L107.212 103.269L107.25 103.268C107.385 103.261 107.519 103.255 107.654 103.248C108.409 103.213 109.163 103.178 109.917 103.151C110.152 103.143 110.387 103.193 110.62 103.242L110.62 103.242L110.621 103.242C110.717 103.262 110.813 103.283 110.908 103.299L110.921 103.301C110.926 103.412 110.928 103.521 110.929 103.63C110.93 103.684 110.931 103.739 110.932 103.794L110.837 103.798C110.539 103.812 110.241 103.827 109.943 103.841L109.503 103.861C108.84 103.892 108.177 103.923 107.515 103.956C106.975 103.983 106.436 104.01 105.897 104.04C105.431 104.066 104.966 104.094 104.495 104.124L104.716 107.616L104.801 107.612L104.801 107.612C105.475 107.581 106.143 107.551 106.801 107.589C107.417 107.625 108.023 107.722 108.618 107.935C107.976 108.123 107.323 108.227 106.664 108.286C106.034 108.342 105.399 108.358 104.763 108.369L105.018 112.393C105.288 112.44 105.555 112.503 105.818 112.593C106.292 112.754 106.751 113 107.184 113.384C106.688 113.336 106.192 113.288 105.691 113.238C105.484 113.218 105.277 113.197 105.068 113.176L105.085 113.453C105.019 113.354 104.953 113.256 104.885 113.158L104.803 113.15L104.733 113.143L104.486 113.118C104.108 113.08 103.724 113.042 103.332 113.002C103.347 113.127 103.367 113.244 103.39 113.353C103.461 113.682 103.57 113.943 103.707 114.156C104.023 114.65 104.485 114.884 104.961 115.114L105.01 115.138L105.011 115.138C105.073 115.168 105.136 115.198 105.198 115.229C105.213 115.236 105.227 115.244 105.242 115.251C105.258 115.259 105.275 115.267 105.291 115.275C105.365 115.313 105.438 115.352 105.511 115.393L105.648 115.434C105.96 115.526 106.197 115.596 106.408 115.645C106.65 115.701 106.859 115.728 107.106 115.728C107.189 115.717 107.269 115.71 107.346 115.703L107.346 115.703L107.346 115.703C107.52 115.686 107.677 115.672 107.819 115.618C108.495 115.363 109.136 115.074 109.739 114.747C109.876 114.672 110.012 114.596 110.145 114.517C112.43 113.17 114.093 111.227 114.792 108.442C115.643 105.025 116.36 101.574 117.05 98.1237C117.174 97.5174 117.114 96.6392 116.744 96.213C115.57 94.8503 114.288 93.5728 113.009 92.2977L113.006 92.295C112.81 92.0993 112.613 91.9037 112.418 91.7078C112.346 91.6357 112.273 91.5634 112.201 91.4912C112.19 91.4793 112.176 91.4693 112.161 91.4607L112.158 91.4589L112.156 91.4581L112.153 91.4564C112.151 91.4555 112.149 91.4546 112.148 91.4537C112.063 91.4136 111.931 91.4123 111.757 91.4107H111.757C111.678 91.4099 111.59 91.4091 111.494 91.4045C111.485 91.4041 111.477 91.4037 111.468 91.4032C111.438 91.4016 111.408 91.3996 111.376 91.3972C111.357 91.3956 111.337 91.3939 111.317 91.392L111.306 91.5352L111.298 91.6316L111.289 91.7488L111.283 91.8272L111.274 91.9475L111.273 91.9641L111.271 91.9878L111.263 92.0868L111.249 92.2743L111.249 92.2753L111.249 92.2776L111.231 92.4996C111.206 92.8305 111.181 93.1583 111.156 93.4883L111.153 93.5379L111.228 93.5779C112.088 94.0308 112.82 94.4164 113.556 94.8019C113.523 94.9563 113.489 95.1143 113.456 95.2723C113.443 95.2681 113.429 95.2639 113.416 95.2597L113.383 95.2491L113.38 95.2483L113.375 95.2465L113.374 95.2463L113.372 95.2456L113.345 95.2371L113.327 95.2315C113.01 95.1322 112.693 95.0419 112.376 94.9602C111.861 94.8273 111.346 94.7171 110.832 94.627C110.63 94.5917 110.428 94.5595 110.227 94.5302C110.208 94.5275 110.189 94.5248 110.17 94.5221C110.152 94.5195 110.133 94.5169 110.115 94.5143C109.872 94.4804 109.63 94.4509 109.388 94.4253C108.092 94.2886 106.803 94.2676 105.525 94.3258C105.167 94.3421 104.81 94.3646 104.454 94.3925C104.263 94.4075 104.072 94.424 103.882 94.442ZM104.147 98.6308L112.431 99.1112L112.432 99.111L112.44 99.1091L112.441 99.109L112.441 99.1089L112.454 99.1059L112.459 99.1048L112.459 99.1047L112.452 99.0454C112.436 98.9072 112.42 98.769 112.407 98.6308H104.147ZM101.357 109.023C102.404 110.019 103.374 111.1 104.27 112.299C104.017 112.277 103.764 112.262 103.511 112.247L103.511 112.247L103.511 112.247L103.41 112.241C102.967 112.215 102.526 112.186 102.096 112.116C101.847 112.075 101.602 112.02 101.361 111.944C100.51 110.821 100.633 109.89 101.357 109.023ZM103.642 74.9556C104.38 75.6879 105.247 76.2363 106.169 76.5535L106.734 76.7479L106.733 77.2833C106.733 77.5777 106.482 82.2578 106.482 82.2578L105.671 88.5216L105.657 88.5227C105.488 88.5361 105.317 88.5501 105.146 88.5644C105.096 88.5685 105.046 88.5727 104.996 88.577L104.813 88.5923L104.8 88.5935L111.331 90.0585L111.343 89.8242L111.347 89.7398C111.362 89.4373 111.377 89.1304 111.395 88.77C111.109 88.7004 110.825 88.6426 110.542 88.5952L110.534 88.5939C110.447 88.5794 110.361 88.5659 110.274 88.5533L110.264 88.5518L109.449 82.2578C109.449 82.2578 109.123 77.5937 109.123 77.2991L109.122 76.7634L109.697 76.5689C110.635 76.2515 111.518 75.7028 112.269 74.97C113.407 73.8604 113.412 73.8415 113.406 70.7659C113.404 70.1401 113.393 69.4433 113.374 68.7944C113.35 67.9724 113.316 67.2274 113.279 66.8016C113.235 66.3048 113.15 65.2185 113.047 63.9155L113.027 63.6542L113.027 63.6521L113.027 63.6517L113.027 63.6498L113.027 63.6495C112.798 60.7351 112.497 56.901 112.389 56.0627L112.277 55.2032H111.242V71.3868H109.989V55.2032H108.544V71.3868L107.928 71.3745H107.302V55.1993H105.882V71.3745H104.651V55.1993H103.634L103.525 56.0582C103.456 56.5988 103.308 58.3866 103.152 60.3695C103.066 61.459 102.978 62.6075 102.898 63.6404L102.898 63.6407L102.898 63.6413L102.897 63.6496C102.788 65.0655 102.696 66.2631 102.65 66.7921C102.585 67.5535 102.528 69.3363 102.526 70.754C102.519 73.8277 102.524 73.8466 103.642 74.9556ZM110.151 92.8652C110.173 92.5354 110.195 92.2044 110.223 91.81L110.227 91.7546H105.432L105.449 92.063C105.465 92.3389 105.48 92.6021 105.495 92.8652C105.501 92.9813 105.508 93.0973 105.514 93.2144L105.519 93.3078L105.525 93.4196H110.115L110.116 93.3935C110.127 93.2306 110.138 93.0747 110.148 92.9192L110.15 92.8875L110.151 92.8652ZM43.215 107.149C42.8326 107.659 42.4482 108.19 42.0653 108.737C42.5428 108.606 43.0192 108.412 43.4928 108.127C43.3968 107.79 43.3046 107.465 43.215 107.149ZM38.617 114.238C38.1907 115.004 37.7841 115.776 37.4044 116.546C37.5307 116.51 37.6704 116.468 37.8309 116.42L37.8385 116.418L37.8954 116.401L37.9617 116.381C38.1173 116.292 38.2774 116.215 38.4364 116.138L38.4382 116.137L38.4396 116.136C38.4777 116.117 38.5157 116.099 38.5536 116.08C38.7722 115.973 38.9863 115.862 39.1812 115.719C39.5967 115.413 39.9258 114.963 40.0287 114.096L40.0246 114.097L40.0247 114.096C39.6378 114.135 39.2594 114.173 38.8867 114.211L38.7339 114.226L38.617 114.238Z" fill="white"/>
<path d="M88.0798 117.689C87.1551 118.254 82.3327 115.849 82.3327 115.849C82.3327 115.849 71.6688 110.897 66.2856 108.396L65.4434 108.005C63.556 107.128 62.1277 106.434 60.6952 105.737L60.695 105.737L60.6948 105.737L60.6946 105.737L60.6944 105.737C59.2503 105.034 57.8019 104.33 55.8747 103.435C52.2072 104.813 51.0257 104.167 49.8832 103.542C49.0956 103.111 48.3266 102.691 46.7745 102.95C46.3075 103.418 45.8139 103.953 45.3035 104.544C45.2993 104.57 45.2949 104.597 45.2904 104.623L45.2175 105.056L44.868 105.321C44.7129 105.438 44.5557 105.54 44.3975 105.629C44.2827 105.771 44.1674 105.915 44.0516 106.062L44.0562 106.078L44.1243 106.318L44.1253 106.321L44.1276 106.329L44.1863 106.536L44.187 106.539C44.3034 106.95 44.4235 107.373 44.5515 107.822L44.7839 108.637L44.0581 109.074C43.9279 109.153 43.7976 109.225 43.6674 109.292L43.6661 109.293C43.6559 109.298 43.6457 109.303 43.6355 109.309L43.627 109.313C43.4251 109.415 43.2234 109.505 43.0222 109.583C42.9513 109.61 42.8805 109.636 42.8098 109.661C42.8845 109.755 42.9556 109.852 43.0222 109.952C43.2533 110.301 43.4301 110.688 43.5128 111.119C43.6444 111.804 43.515 112.467 43.1932 113.093C43.0987 113.277 42.9876 113.458 42.8616 113.635L42.857 113.642L42.8565 113.642C42.8308 113.678 42.8045 113.714 42.7777 113.75L42.5662 114.031L42.2313 114.138C41.8993 114.244 41.5679 114.313 41.2482 114.361C41.2302 114.363 41.2121 114.366 41.1941 114.368C41.1805 114.37 41.167 114.372 41.1534 114.374L41.1489 114.375L41.1362 114.376L41.1219 114.378L41.1014 114.381C41.094 114.43 41.0861 114.477 41.0775 114.525C41.0671 114.582 41.0557 114.638 41.0435 114.693C40.9744 115.003 40.8764 115.28 40.7526 115.526C40.5457 115.938 40.2666 116.268 39.9296 116.535C39.8521 116.596 39.7736 116.653 39.6957 116.705C39.4952 116.838 39.2984 116.942 39.1299 117.027L39.112 117.036C39.0252 117.079 38.9501 117.115 38.8819 117.148L38.8811 117.149L38.8807 117.149C38.7389 117.218 38.6274 117.272 38.5049 117.342L38.3946 117.405L38.2729 117.441C38.2173 117.457 38.1629 117.474 38.1096 117.49L38.1052 117.491L38.1049 117.491L38.097 117.494L38.093 117.495C38.0115 117.519 37.9324 117.543 37.8549 117.566C37.4957 117.671 37.1724 117.755 36.813 117.79C35.9127 119.565 51.6638 111.905 68.0399 121.807C84.4161 131.709 108.691 124.131 107.025 116.838C106.429 116.827 105.961 116.687 105.366 116.509L105.277 116.483L105.245 116.474L105.189 116.457L105.066 116.42L104.953 116.357C104.823 116.283 104.704 116.226 104.554 116.153L104.553 116.153C104.526 116.14 104.497 116.126 104.466 116.111C104.419 116.088 104.367 116.063 104.312 116.035C104.062 115.912 103.753 115.749 103.457 115.516C102.823 115.017 102.386 114.308 102.235 113.258C101.842 113.209 101.431 113.132 101.018 113.001L100.678 112.893L100.464 112.61C99.8247 111.767 99.5134 110.852 99.6981 109.897C99.8131 109.302 100.104 108.786 100.473 108.338C100.018 108.185 99.5595 107.98 99.1018 107.706L98.368 107.268L98.5409 106.666C94.7358 103.845 90.0767 101.617 84.3942 98.9003L84.1449 98.7811C85.5458 99.451 86.0174 100.173 86.6678 101.168L86.6679 101.169L86.6683 101.169C86.8144 101.393 86.9695 101.63 87.1461 101.884C88.4047 104.89 88.9856 106.538 88.9856 110.998L88.9825 111.093L88.9825 111.093L88.9824 111.094C88.9614 111.714 88.9986 112.224 89.3384 112.84C89.5781 113.275 89.795 113.818 89.8225 114.489C89.8809 115.911 89.0046 117.123 88.0798 117.689Z" fill="white"/>
<path fill-rule="evenodd" clip-rule="evenodd" d="M115.619 116.041C124.667 106.307 130.374 93.7198 129.374 78.4561C129.374 61.7465 123.756 46.5867 110.194 35.6399C99.7847 27.2375 85.0409 23.3821 70.5387 23.7849C62.1814 23.7849 53.2826 25.9779 45.9653 28.8875C35.9242 32.8803 28.2711 38.4695 22.6006 46.7468C16.4789 55.6829 14.5437 65.5985 14.5439 77.3626C14.5442 92.402 18.9565 105.527 28.6433 114.827C39.2706 125.794 56.0925 134.64 73.3843 134.64C90.4873 134.64 105.374 127.065 115.619 116.041ZM35.413 41.0641C25.6388 50.0957 22.2388 63.4914 22.2388 75.7432C22.2388 83.8772 23.4513 90.9699 28.6433 98.5789C36.4316 109.993 55.7679 118.947 70.4796 118.947C82.4011 118.947 95.9198 115.493 105.352 107.516C115.984 98.5258 121.82 84.2614 121.82 71.6747C121.82 59.0225 116.632 48.3133 106.321 40.2892C95.0844 31.1835 83.8811 28.0836 72.0295 28.0836C65.3668 28.0836 56.8867 29.5851 49.9434 32.1521C44.0905 34.316 39.61 37.186 35.413 41.0641Z" fill="#F86F0E"/>
<path d="M27.4131 14.046C26.6286 12.5043 23.2834 10.1496 23.2834 10.1496C23.2834 10.1496 29.1467 5.58087 37.5056 8.61745C43.0578 10.6344 45.5775 21.7246 45.5775 21.7246C45.5775 21.7246 42.6733 18.7313 40.7818 19.164C38.8904 19.5967 38.6928 19.4011 37.359 19.3015C35.728 19.1797 34.793 18.9976 33.2686 18.4083C30.6065 17.3792 27.4131 14.046 27.4131 14.046Z" fill="#9BAB49"/>
<path d="M29.9883 13.8235C23.0437 13.5894 19.8191 21.615 19.8191 21.615C19.8191 21.615 21.8658 21.8756 23.3637 22.5188C26.9457 24.057 27.6339 24.1693 31.4386 23.458C34.2187 22.9383 40.6785 20.8791 43.0005 20.8131C44.0703 20.7827 45.5778 21.7245 45.5778 21.7245C45.5778 21.7245 38.9945 14.1272 29.9883 13.8235Z" fill="#C1BF0A"/>
<path d="M37.6785 53.3837C36.8949 52.1187 36.8288 51.007 37.1457 49.8884C39.5206 41.5561 43.386 34.1229 50.5632 28.9061C60.0735 21.9922 70.5031 20.3613 81.6953 24.0552C83.2206 24.5571 84.7563 25.1669 86.0065 26.5155C85.7314 26.864 85.4911 27.1672 85.1568 27.5819C78.3418 23.4593 71.0603 22.9471 63.5279 24.679C60.9998 25.261 58.3427 25.6827 56.3996 27.8886C56.4901 28.5646 56.5772 29.2442 56.6538 29.8226C54.5156 31.4257 52.4262 32.9973 50.3264 34.5725C48.5538 33.4329 47.8504 33.4817 46.3356 35.0255C43.6994 37.7088 41.8886 40.9219 40.635 44.4381C39.6147 47.3026 38.7197 50.2159 37.6785 53.3837Z" fill="white"/>
<path d="M91.8146 62.6898C91.8138 62.701 91.813 62.7122 91.8122 62.7233C91.8121 62.7238 91.8121 62.7243 91.812 62.7249C91.754 63.5138 91.7058 64.1695 91.644 65.0654C91.366 65.0074 91.0989 64.9517 90.8331 64.8962C90.0212 64.7267 89.2216 64.5598 88.1595 64.3396C88.1282 64.3331 88.0966 64.3266 88.0649 64.32C88.0729 64.3145 88.0808 64.309 88.0888 64.3035C88.1121 64.2875 88.1353 64.2716 88.1584 64.2559C89.5106 63.3362 90.5212 62.9248 91.8146 62.6898Z" fill="white"/>
<path fill-rule="evenodd" clip-rule="evenodd" d="M87.7012 116.723C86.898 117.206 81.5374 114.676 81.5374 114.676C81.5374 114.676 72.1585 110.316 67.4239 108.115L67.3513 108.081C63.7975 106.429 60.2233 104.767 56.6211 103.092C56.2104 102.901 56.0364 102.409 56.2383 102.005L56.3531 101.768C56.548 101.378 57.0179 101.214 57.4112 101.395C61.3048 103.194 65.1714 104.98 69.0429 106.768L69.1872 106.835L69.2058 106.843C73.1464 108.663 77.0925 110.485 81.078 112.327C81.0628 111.489 80.525 111.257 80.0668 111.059C79.9989 111.03 79.9327 111.001 79.8703 110.971C77.165 109.666 74.4444 108.401 71.7229 107.135L71.7211 107.134L71.1901 106.887C68.3519 105.565 65.5137 104.248 62.6788 102.931L62.6069 102.898C60.877 102.095 59.1483 101.292 57.4216 100.489C57.0283 100.308 56.8473 99.8446 57.0179 99.4473C57.1635 99.111 57.313 98.7782 57.4614 98.4478C58.5157 96.1005 59.517 93.8711 58.7024 91.3418C58.6084 91.0525 58.6641 90.7319 58.8729 90.5124C59.0059 90.3745 59.138 90.2395 59.2684 90.1062C59.8105 89.5521 60.3245 89.0267 60.7593 88.4425C60.8697 88.2951 60.9836 88.1469 61.0983 87.9977C61.7326 87.1725 62.3931 86.3132 62.6318 85.3689C62.7931 84.7257 62.9648 84.0837 63.1367 83.4412L63.1369 83.4406L63.1369 83.4404C63.8775 80.6723 64.6203 77.896 64.5356 74.9774C64.5326 74.8669 64.5267 74.7556 64.5207 74.6442L64.5207 74.6437C64.4986 74.2319 64.4765 73.819 64.6052 73.4406C64.7827 72.9214 65.4475 72.7715 65.8686 73.1235L67.1805 74.2199L67.3991 74.4026L68.7852 75.5611L69.9546 76.5385C70.0799 76.6431 70.1704 76.779 70.2156 76.9358C70.7342 78.7967 71.6878 81.0443 74.1276 82.3128C73.8102 81.7843 73.4414 81.2837 73.0712 80.7812C72.2355 79.6472 71.3931 78.5038 71.1205 77.009C71.0579 76.664 71.2075 76.3085 71.5173 76.1378C71.5475 76.121 71.5779 76.1043 71.6084 76.0874C72.535 75.576 73.5498 75.0157 73.8666 73.3221C73.0695 74.0121 72.5231 74.4825 72.0045 74.9286C71.8897 75.0296 71.747 75.0959 71.5973 75.1202C69.5891 75.4269 68.3118 74.8066 66.9127 72.7053C66.6203 72.2697 66.8187 71.6669 67.3164 71.4961L68.1656 71.1964C68.4058 71.1128 68.6773 71.1511 68.8896 71.294C69.5056 71.7191 70.0833 72.1129 70.6646 72.5067L70.9604 72.2697L70.1912 71.179C69.9859 70.8863 69.9894 70.4855 70.2226 70.2137C71.4581 68.7606 73.0173 67.9172 75.0429 67.851C76.9328 67.7883 78.3667 67.0879 79.3378 65.2514C79.8824 64.223 80.8046 63.3761 81.702 62.5521C81.8598 62.4072 82.0168 62.263 82.1708 62.1186C83.1041 61.245 84.0866 60.4241 85.0685 59.6037L85.0693 59.603C85.4933 59.2488 85.9171 58.8946 86.3369 58.5363C86.2969 58.4614 86.256 58.3873 86.2151 58.3133C86.1856 58.2599 86.1561 58.2064 86.1269 58.1527C86.1156 58.1319 86.1044 58.1111 86.0933 58.0902L86.1109 58.0852C89.4706 57.1286 92.8303 56.1719 96.2178 55.2083C96.6911 55.0724 97.1784 55.3965 97.2411 55.8844C97.3374 56.6702 97.4278 57.4438 97.517 58.2077L97.5174 58.2115L97.5174 58.2117C97.792 60.5631 98.0557 62.8223 98.4522 65.0597C98.7068 66.4976 99.1978 67.8795 99.6827 69.2443C100.232 70.7903 100.773 72.3143 100.955 73.8727C100.976 74.0853 100.92 74.3048 100.781 74.4651C99.9595 75.4212 99.0744 75.2278 98.2447 75.0466L98.2443 75.0465C98.1457 75.0249 98.0479 75.0036 97.951 74.9843C97.6691 74.9286 97.3768 75.0261 97.1854 75.2387C96.5902 75.8939 96.6424 76.6535 96.9348 77.455C97.2376 78.3018 97.1088 78.9918 96.1447 79.5598C95.5785 79.5082 94.9932 79.4551 94.3958 79.4009L94.343 79.3961L94.3283 79.3948L94.3095 79.3931C93.3218 79.3035 92.3022 79.211 91.2826 79.1173C92.0431 79.9605 92.9769 80.0346 93.9012 80.1079C94.119 80.1252 94.3363 80.1424 94.5507 80.1696C95.2154 80.2568 95.8141 80.3822 96.1377 80.8701C96.4301 81.3092 96.1552 81.9155 95.6435 82.0479L95.2189 82.1594C94.8256 82.2605 94.5716 82.6438 94.6238 83.0481C94.6532 83.2739 94.6889 83.4999 94.7247 83.7262C94.9339 85.0502 95.1451 86.3866 94.1226 87.7943C93.9903 87.9755 93.7815 88.0835 93.5588 88.1044C93.0292 88.1511 92.467 88.2013 91.8845 88.2533L91.8806 88.2536C90.9408 88.3375 89.9481 88.4262 88.9542 88.5121C88.4862 88.5507 88.0137 88.5698 87.5411 88.5888C86.5201 88.63 85.4991 88.6712 84.5236 88.9094C82.1778 89.4739 80.7752 91.063 80.3784 93.5128C79.7624 97.3112 79.8459 101.106 80.2462 104.918C80.7342 104.265 80.7063 103.541 80.677 102.781C80.6685 102.56 80.6599 102.336 80.6638 102.11C80.6777 101.461 81.4365 101.082 81.9446 101.482C84.457 103.473 84.6485 106.446 84.8554 109.656C84.8821 110.07 84.909 110.488 84.9412 110.909C86.4274 106.758 84.7707 102.347 81.1963 99.9665C80.9736 99.8167 80.8309 99.5693 80.8309 99.2975V98.3601C80.9318 98.353 81.0228 98.3412 81.1062 98.3304C81.2702 98.3091 81.4047 98.2917 81.527 98.3217C83.7683 98.8793 85.2475 100.298 86.1002 102.42C87.2557 105.295 87.8161 108.278 87.7012 111.379C87.7003 111.407 87.6994 111.435 87.6984 111.462L87.6984 111.463L87.6984 111.464C87.6669 112.394 88.5867 113.367 88.7871 114.223C88.9875 115.078 88.5045 116.239 87.7012 116.723ZM93.6318 74.9565C93.2838 74.8868 93.0263 74.5906 92.9915 74.2386C92.8348 72.6147 93.1028 72.3638 94.9857 71.3532C94.8469 71.5722 94.7183 71.7749 94.5968 71.9667L94.5931 71.9724C94.3292 72.3888 94.0979 72.7536 93.865 73.12C93.6493 73.458 93.7189 73.9006 94.0217 74.1619L94.8082 74.8345C94.7908 74.892 94.7743 74.9495 94.7578 75.007C94.7412 75.0645 94.7247 75.122 94.7073 75.1795L93.6318 74.9565ZM85.9506 113.644C85.8288 113.529 85.6791 113.453 85.5155 113.428C85.1955 113.381 84.8677 113.333 84.5351 113.284L84.4837 113.277L84.4768 113.276C83.9345 113.196 83.3798 113.115 82.8251 113.034C82.8251 112.898 82.8285 112.766 82.8319 112.63V112.63L82.8321 112.62C86.0654 112.323 86.7928 112.665 87.4402 115.069C87.168 114.808 86.9279 114.579 86.7026 114.364L86.7002 114.362C86.4395 114.113 86.1985 113.883 85.9506 113.644ZM92.9775 65.6905C91.3139 65.9379 89.7338 65.5929 88.1711 65.1085C86.6084 64.6242 86.7217 64.2559 86.7217 64.2559C86.7217 64.2559 87.4969 63.5939 88.1711 63.2136C88.8452 62.8334 89.5367 62.6356 90.2517 62.3806C91.6122 61.8955 93.0254 61.3915 94.5402 60.8502C92.74 59.965 91.3656 60.616 90.0159 61.2554C89.1659 61.6581 88.3256 62.0561 87.3949 62.0629C90.1828 59.4772 92.8035 58.9266 95.5182 60.4041C96.0299 60.6829 96.1203 61.4217 95.6435 61.7527C94.9935 62.2043 94.7026 62.9431 94.4056 63.6974C94.1571 64.3284 93.9043 64.9703 93.4335 65.464C93.3151 65.5894 93.1481 65.6661 92.9775 65.6905Z" fill="white"/>
<path d="M36.3321 50.2588C36.0918 49.8272 35.9943 49.6358 35.8758 49.4549C35.7679 49.2913 35.639 49.1452 35.2525 48.6475C34.737 50.5824 34.6728 50.6844 34.2479 52.2991C32.5419 53.8049 31.1529 55.0341 29.8047 56.2199C31.2697 48.7268 33.9926 38.7265 41.8485 29.5428C49.7043 20.359 62.1878 17.2888 73.5154 18.1343C81.0964 18.7001 88.0346 21.3411 92.0209 24.183C90.266 24.5631 88.452 24.9501 86.2271 25.4279C86.2271 25.4279 80.9446 21.8336 73.5154 21.4237C61.2406 20.7464 53.0135 24.0552 45.647 31.4842C39.5527 37.6302 36.3321 50.2588 36.3321 50.2588Z" fill="white"/>
<path d="M75.4887 27.2201C79.5861 27.6488 82.5322 29.6812 85.6417 30.9571C87.4797 34.678 84.5687 38.0162 79.6268 41.6894C69.8369 48.966 59.9356 55.3575 50.2397 61.9302C44.7215 59.2641 42.1324 54.7555 42.7997 48.9486C42.9488 47.6516 43.2157 46.9494 43.6178 45.7075C44.9073 41.7249 47.8473 38.3635 50.3264 35.839C53.279 33.2267 54.784 31.9526 58.1096 30.2275C59.7152 29.3946 60.6469 28.9675 62.3605 28.3893C63.7654 27.9152 64.5759 27.702 66.0318 27.4218C69.6594 26.7234 71.3914 26.7913 75.4887 27.2201Z" fill="white"/>
<path d="M52.2163 65.0574C54.4383 63.3159 55.8875 62.3484 58.6784 60.4449L58.6464 60.6173C57.4102 67.2753 56.2124 73.7266 53.9591 80.2395C52.1416 79.5317 50.5256 78.9006 48.8297 78.2416C51.2501 73.9584 53.1389 70.2081 52.2163 65.0574Z" fill="white"/>
<path d="M70.8983 64.6441C69.7917 63.0673 68.9112 61.5847 67.8011 60.3044C67.0319 59.4218 66.0332 58.6229 64.9752 58.131C63.1551 57.2833 61.9371 57.9147 61.4847 59.8823C60.7225 63.2068 60.1274 66.5733 59.4105 69.9118C58.5614 73.8748 57.6704 77.8273 56.7656 81.7798C56.5777 82.5961 56.2575 83.3845 55.9478 84.3439C52.4329 83.8031 49.3147 82.6449 46.0643 80.4821C46.8229 79.8681 47.3693 79.432 48.0236 78.9052C50.0525 79.6274 52.0953 80.3565 54.3469 81.1588C57.138 73.791 58.2029 66.2802 59.8664 58.4345C57.5299 60.1232 57.1125 60.4449 55.645 61.4137C54.3504 62.2684 53.1045 63.1964 51.7194 64.1766C51.3123 63.5801 51.013 63.1475 50.651 62.6138C51.4619 62.0521 52.1614 61.5707 52.8574 61.0928C61.9927 54.7785 71.1315 48.4713 80.2598 42.1466C81.0777 41.5814 81.8259 40.9151 82.5915 40.2767C84.7074 38.5115 88.0593 34.5812 86.6101 31.6787C89.1611 31.8148 96.8541 35.9966 99.9426 38.4512C103.031 40.9059 105.836 45.0302 105.836 45.0302C107.736 46.1291 110.126 47.4561 112.051 48.569C112.047 48.7225 112.044 48.876 112.04 49.0329C98.5618 50.6098 85.6506 54.0634 73.5154 60.6497C72.353 57.4508 70.5364 54.9495 67.6758 53.3796L67.2651 53.7634C68.0586 54.4506 68.9147 55.0821 69.6351 55.8426C70.3624 56.6135 71.048 57.4577 71.577 58.3752C72.1373 59.345 72.4888 60.4369 72.9829 61.6021C73.4249 61.4451 73.9052 61.337 74.3193 61.1172C85.0972 55.3437 96.599 51.8831 108.689 50.2923L108.844 50.2718C110.272 50.083 111.706 49.8934 113.14 49.8597C113.822 49.8423 114.511 50.2225 115.197 50.4249L115.155 50.99C113.721 51.2551 112.28 51.5028 110.85 51.7854C104.648 53.0099 98.4052 54.0494 92.2628 55.5251C84.9684 57.2763 78.0778 60.1334 71.7336 64.215C71.5039 64.3615 71.2464 64.4662 70.8983 64.6441Z" fill="white"/>
<path d="M58.1096 90.9863C58.1122 91.9692 58.3646 92.5352 58.3994 93.3083C58.4342 94.0814 58.0792 95.6466 57.6265 96.7913C57.2448 97.7565 56.7461 98.3661 56.3531 99.4473C56.0826 100.191 55.9501 100.743 55.5011 101.395C54.9223 102.236 53.7621 102.983 53.7621 102.983C53.7621 102.983 52.5992 103.505 51.6366 103.467C50.662 103.429 50.5328 102.983 49.8172 102.693C47.4431 101.73 45.566 102.631 43.6092 100.573C44.0688 99.0776 43.9191 97.5886 42.7596 96.3786L38.839 95.6463C38.8042 94.9977 38.7729 94.4468 38.7415 93.8645C39.8906 92.5115 41.0187 91.1795 42.3627 89.5963L44.0226 87.8559C43.347 86.0677 43.535 85.4018 44.9387 84.4467C45.8407 83.8332 46.9005 83.0007 47.8687 82.3349C50.2861 83.6242 51.7933 84.0457 54.5693 84.8089C55.2764 84.9242 55.6808 85.0383 56.3706 84.8089C56.9994 84.283 62.0825 60.7246 62.0707 59.7922C62.0589 58.8597 63.4575 57.9243 64.9752 58.8247C67.4273 60.2795 68.1238 61.3368 70.7658 65.4444C76.6123 61.8083 80.6259 59.6172 85.3542 58.3133L85.5474 58.6719C85.5474 58.6719 83.3047 60.4208 82.9389 60.7037C82.3492 61.1596 81.6733 61.7456 81.1033 62.3484C80.4101 63.0814 79.7273 63.4316 79.171 64.1867C77.862 65.9636 77.1448 67.5813 73.6321 67.3804C72.5652 67.3804 71.6805 67.8903 70.6692 68.6371C69.8435 69.2469 69.604 70.8217 68.8896 70.5721C67.8815 70.2201 66.225 71.0559 66.1284 71.7331C66.0318 72.4104 64.4278 72.6598 64.0029 73.3221C63.578 73.9844 63.9115 76.0657 63.6801 77.8059C63.3795 80.0667 63.3196 81.4049 62.4593 83.5167C61.7809 86.1488 61.6336 86.0821 60.6215 87.6968C59.8244 88.9686 58.1072 90.089 58.1096 90.9863Z" fill="white"/>
</g>
<defs>
<linearGradient id="paint0_linear_1308_437" x1="0" y1="0" x2="144" y2="144" gradientUnits="userSpaceOnUse">
<stop stop-color="white"/>
<stop offset="1" stop-color="white" stop-opacity="0"/>
</linearGradient>
<clipPath id="clip0_1308_437">
<rect width="144" height="144" fill="white"/>
</clipPath>
</defs>
</svg>
