<svg width="20" height="18" viewBox="0 0 20 18" fill="none" xmlns="http://www.w3.org/2000/svg">
<path d="M16 8.01562H19.9844V9.98438H16V8.01562ZM13.9844 14.625C14.2031 14.3438 14.4062 14.0781 14.5938 13.8281C14.8125 13.5469 15.0156 13.2656 15.2031 12.9844C15.6719 13.3594 16.1875 13.7656 16.75 14.2031C17.3438 14.6406 17.8906 15.0469 18.3906 15.4219C18.2031 15.6719 18 15.9375 17.7812 16.2188C17.5938 16.4688 17.4062 16.7344 17.2188 17.0156C16.7188 16.6406 16.1719 16.2344 15.5781 15.7969C15.0156 15.3594 14.4844 14.9688 13.9844 14.625ZM18.3906 2.57812C17.8906 2.95312 17.3438 3.35938 16.75 3.79688C16.1875 4.23437 15.6719 4.64062 15.2031 5.01562C15.0156 4.73438 14.8125 4.46875 14.5938 4.21875C14.4062 3.9375 14.2031 3.67187 13.9844 3.42188C14.4844 3.04688 15.0156 2.64062 15.5781 2.20312C16.1719 1.76563 16.7188 1.35938 17.2188 0.984375C17.4062 1.26562 17.5938 1.54688 17.7812 1.82812C18 2.07812 18.2031 2.32813 18.3906 2.57812ZM1.98438 6H6.01562L10.9844 3V15L6.01562 12H4.98438V15.9844H3.01562V12H1.98438C1.45312 12 0.984375 11.8125 0.578125 11.4375C0.203125 11.0312 0.015625 10.5469 0.015625 9.98438V8.01562C0.015625 7.45312 0.203125 6.98438 0.578125 6.60938C0.984375 6.20312 1.45312 6 1.98438 6ZM13.5156 9C13.5156 9.65625 13.375 10.2812 13.0938 10.875C12.8125 11.4375 12.4531 11.9219 12.0156 12.3281V5.67188C12.4531 6.07812 12.8125 6.57812 13.0938 7.17188C13.375 7.73438 13.5156 8.34375 13.5156 9Z" fill="#FD720F"/>
</svg>
