<svg width="758" height="790" viewBox="0 0 758 790" fill="none" xmlns="http://www.w3.org/2000/svg">
<path d="M39.6828 681.971C46.6152 681.971 53.409 682.941 60.0641 684.882C66.7192 686.685 72.7504 689.735 78.1577 694.033L76.4939 706.719C71.0866 705.194 66.2339 703.877 61.9358 702.768C57.6378 701.659 52.8544 701.104 47.5858 701.104C42.5944 701.104 38.5736 702.005 35.5234 703.808C32.6118 705.471 30.3934 708.73 28.8683 713.582C27.4818 718.435 26.7885 725.506 26.7885 734.795C26.7885 743.669 27.4818 750.532 28.8683 755.385C30.2548 760.099 32.4038 763.426 35.3154 765.367C38.227 767.17 42.0398 768.071 46.7539 768.071C50.4974 768.071 53.8249 767.655 56.7365 766.823C59.6482 765.853 62.6291 764.466 65.6794 762.664C68.7296 760.723 72.2651 758.296 76.2859 755.385L78.3656 769.527C73.6516 774.934 67.8284 779.579 60.896 783.461C54.1022 787.204 46.1993 789.076 37.1872 789.076C24.1542 789.076 14.8648 784.501 9.31889 775.35C3.77296 766.061 1 752.612 1 735.003C1 721.555 2.38648 711.017 5.15944 703.392C8.07105 695.627 12.3691 690.151 18.0537 686.962C23.8769 683.634 31.0866 681.971 39.6828 681.971ZM98.7469 641V786.581H78.9896L76.2859 768.279L73.5823 766.199V697.984L74.8301 695.073C74.2755 691.052 73.9289 687.031 73.7903 683.01C73.6516 678.851 73.5823 674.622 73.5823 670.324V641H98.7469Z" fill="black"/>
<path d="M172.767 681.971C189.266 681.971 201.121 684.882 208.33 690.705C215.54 696.39 219.214 704.847 219.353 716.078C219.492 725.367 217.273 732.438 212.698 737.291C208.261 742.005 200.843 744.362 190.445 744.362H132.213V728.764H183.582C188.296 728.764 191.277 727.516 192.525 725.021C193.911 722.525 194.604 719.475 194.604 715.87C194.466 710.185 192.802 706.234 189.613 704.016C186.563 701.797 181.294 700.688 173.807 700.688C167.291 700.688 162.23 701.589 158.625 703.392C155.02 705.194 152.455 708.452 150.93 713.166C149.544 717.88 148.85 724.674 148.85 733.548C148.85 742.976 149.752 750.255 151.554 755.385C153.356 760.515 156.337 764.05 160.497 765.991C164.656 767.794 170.202 768.695 177.135 768.695C182.265 768.695 188.157 768.487 194.812 768.071C201.606 767.655 208.122 767.1 214.362 766.407L216.857 782.421C213.114 783.946 208.816 785.194 203.963 786.165C199.11 787.135 194.05 787.828 188.781 788.244C183.651 788.799 178.798 789.076 174.223 789.076C161.745 789.076 151.693 787.274 144.067 783.669C136.58 779.925 131.103 774.102 127.637 766.199C124.31 758.296 122.646 748.106 122.646 735.627C122.646 722.179 124.31 711.572 127.637 703.808C131.103 695.905 136.511 690.289 143.859 686.962C151.346 683.634 160.982 681.971 172.767 681.971Z" fill="black"/>
<path d="M338.906 684.466L303.759 780.549C303.066 782.352 301.956 783.808 300.431 784.917C299.045 786.026 297.312 786.581 295.232 786.581H273.187C271.246 786.581 269.513 786.026 267.988 784.917C266.462 783.808 265.353 782.352 264.66 780.549L229.513 684.466H256.341L277.762 751.433C278.733 754.483 279.634 757.603 280.466 760.792C281.298 763.842 282.06 766.823 282.754 769.735H285.457C286.428 766.685 287.329 763.634 288.161 760.584C289.131 757.534 290.033 754.483 290.864 751.433L312.286 684.466H338.906Z" fill="black"/>
<path d="M482.985 681.971C491.997 681.971 498.86 684.397 503.574 689.25C508.427 693.964 510.854 700.896 510.854 710.047V786.581H485.897V717.742C485.758 712.612 484.718 708.938 482.777 706.719C480.836 704.362 477.439 703.184 472.587 703.184C469.675 703.184 466.833 703.669 464.06 704.639C461.425 705.471 458.445 706.858 455.117 708.799C451.789 710.74 447.769 713.305 443.055 716.494L441.599 701.312C448.67 694.795 455.464 689.943 461.98 686.754C468.635 683.565 475.637 681.971 482.985 681.971ZM375.88 684.466L378.375 704.432L380.871 707.343V786.581H355.706V684.466H375.88ZM417.89 681.971C426.763 681.971 433.557 684.328 438.271 689.042C442.985 693.756 445.342 700.757 445.342 710.047V786.581H421.218V717.742C421.218 712.334 420.108 708.591 417.89 706.511C415.672 704.293 412.344 703.184 407.907 703.184C405.134 703.184 402.361 703.6 399.588 704.432C396.815 705.263 393.765 706.65 390.438 708.591C387.11 710.532 382.951 713.166 377.959 716.494L376.504 701.312C383.436 694.795 390.23 689.943 396.885 686.754C403.54 683.565 410.542 681.971 417.89 681.971Z" fill="black"/>
<path d="M584.664 681.971C597.143 681.971 607.056 683.704 614.404 687.17C621.891 690.636 627.229 696.321 630.418 704.224C633.746 712.127 635.409 722.594 635.409 735.627C635.409 748.66 633.746 759.128 630.418 767.031C627.229 774.795 621.891 780.48 614.404 784.085C607.056 787.551 597.143 789.284 584.664 789.284C572.463 789.284 562.619 787.551 555.132 784.085C547.784 780.48 542.446 774.795 539.118 767.031C535.791 759.128 534.127 748.66 534.127 735.627C534.127 722.594 535.791 712.127 539.118 704.224C542.446 696.321 547.784 690.636 555.132 687.17C562.619 683.704 572.463 681.971 584.664 681.971ZM584.664 701.104C578.564 701.104 573.711 702.144 570.106 704.224C566.64 706.165 564.144 709.631 562.619 714.622C561.094 719.613 560.331 726.615 560.331 735.627C560.331 744.64 561.094 751.641 562.619 756.633C564.144 761.624 566.64 765.09 570.106 767.031C573.711 768.972 578.564 769.943 584.664 769.943C590.903 769.943 595.825 768.972 599.43 767.031C603.035 765.09 605.531 761.624 606.917 756.633C608.442 751.641 609.205 744.64 609.205 735.627C609.205 726.615 608.442 719.613 606.917 714.622C605.531 709.631 603.035 706.165 599.43 704.224C595.825 702.144 590.903 701.104 584.664 701.104Z" fill="black"/>
<path d="M719.446 681.971C732.479 681.971 741.977 686.061 747.939 694.241C753.9 702.421 756.881 716.009 756.881 735.003C756.881 743.184 756.119 750.601 754.594 757.256C753.207 763.912 750.711 769.665 747.107 774.518C743.64 779.232 738.788 782.837 732.549 785.333C726.309 787.828 718.337 789.076 708.632 789.076C705.166 789.076 701.214 788.938 696.777 788.66C692.341 788.383 687.835 787.898 683.259 787.204C678.684 786.511 674.247 785.749 669.949 784.917C665.79 783.946 662.046 782.768 658.718 781.381L678.892 765.991C681.942 766.962 685.131 767.794 688.458 768.487C691.925 769.042 695.322 769.458 698.649 769.735C702.115 769.873 705.304 769.943 708.216 769.943C713.762 769.804 718.129 768.695 721.318 766.615C724.646 764.536 727.072 761 728.597 756.009C730.122 750.879 730.885 743.877 730.885 735.003C730.885 726.685 730.261 720.168 729.013 715.454C727.904 710.601 725.824 707.205 722.774 705.263C719.724 703.322 715.356 702.352 709.672 702.352C704.68 702.352 700.036 703.53 695.738 705.887C691.578 708.244 686.725 711.433 681.18 715.454L679.516 701.936C683.259 697.915 687.211 694.38 691.37 691.329C695.668 688.279 700.174 685.991 704.888 684.466C709.741 682.802 714.594 681.971 719.446 681.971ZM683.883 641L684.091 676.355C684.091 680.792 683.883 685.09 683.467 689.25C683.19 693.27 682.497 697.222 681.387 701.104L683.883 704.016V782.629L658.718 781.381V641H683.883Z" fill="black"/>
<path fill-rule="evenodd" clip-rule="evenodd" d="M412.902 197.68L403.215 601H371.731L224 371.954V1H253.062L412.902 197.68ZM381.419 202.66L257.906 45.8133L255.484 371.954L371.731 551.208L381.419 202.66Z" fill="#2452A9"/>
<path fill-rule="evenodd" clip-rule="evenodd" d="M534 165.315L529.156 439.174H497.673L395.956 282.25V28.3857H419.935L534 165.315ZM500.094 167.805L424.633 76V268.188L500.094 386.892V167.805Z" fill="#2452A9"/>
<path fill-rule="evenodd" clip-rule="evenodd" d="M475.874 185.231L471.03 526.31H438.615L313.612 329.63V15.9368H342.301L475.874 185.231ZM446.812 189.126L345.095 63.2397V329.63L438.615 460.375L446.812 189.126Z" fill="#2452A9"/>
<path d="M60.0641 684.882L59.9941 685.122L59.9987 685.123L60.0641 684.882ZM78.1577 694.033L78.4056 694.065L78.4239 693.925L78.3132 693.837L78.1577 694.033ZM76.4939 706.719L76.426 706.96L76.7042 707.038L76.7418 706.752L76.4939 706.719ZM61.9358 702.768L61.9983 702.526L61.9983 702.526L61.9358 702.768ZM35.5234 703.808L35.6474 704.025L35.6506 704.023L35.5234 703.808ZM28.8683 713.582L28.6297 713.507L28.6279 713.514L28.8683 713.582ZM28.8683 755.385L28.6279 755.453L28.6284 755.455L28.8683 755.385ZM35.3154 765.367L35.1767 765.576L35.1838 765.58L35.3154 765.367ZM56.7365 766.823L56.8053 767.064L56.8156 767.06L56.7365 766.823ZM65.6794 762.664L65.8066 762.879L65.8136 762.875L65.6794 762.664ZM76.2859 755.385L76.5333 755.348L76.4733 754.94L76.1393 755.182L76.2859 755.385ZM78.3656 769.527L78.5541 769.691L78.6297 769.604L78.613 769.49L78.3656 769.527ZM60.896 783.461L61.0166 783.68L61.0181 783.679L60.896 783.461ZM9.31889 775.35L9.10423 775.478L9.10509 775.48L9.31889 775.35ZM5.15944 703.392L4.92535 703.304L4.9245 703.306L5.15944 703.392ZM18.0537 686.962L18.176 687.18L18.1778 687.179L18.0537 686.962ZM98.7469 641H98.9969V640.75H98.7469V641ZM98.7469 786.581V786.831H98.9969V786.581H98.7469ZM78.9896 786.581L78.7422 786.617L78.7738 786.831H78.9896V786.581ZM76.2859 768.279L76.5332 768.242L76.5185 768.142L76.4384 768.081L76.2859 768.279ZM73.5823 766.199H73.3323V766.322L73.4299 766.397L73.5823 766.199ZM73.5823 697.984L73.3525 697.886L73.3323 697.933V697.984H73.5823ZM74.8301 695.073L75.0599 695.171L75.0873 695.107L75.0778 695.039L74.8301 695.073ZM73.7903 683.01L73.5404 683.019L73.5404 683.019L73.7903 683.01ZM73.5823 641V640.75H73.3323V641H73.5823ZM208.33 690.705L208.173 690.9L208.176 690.902L208.33 690.705ZM219.353 716.078L219.103 716.081L219.103 716.082L219.353 716.078ZM212.698 737.291L212.516 737.12L212.516 737.12L212.698 737.291ZM132.213 744.362H131.963V744.612H132.213V744.362ZM132.213 728.764V728.514H131.963V728.764H132.213ZM192.525 725.021L192.306 724.899L192.301 724.909L192.525 725.021ZM194.604 715.87H194.854L194.854 715.864L194.604 715.87ZM189.613 704.016L189.466 704.218L189.47 704.221L189.613 704.016ZM158.625 703.392L158.737 703.615L158.737 703.615L158.625 703.392ZM150.93 713.166L150.692 713.089L150.69 713.096L150.93 713.166ZM151.554 755.385L151.318 755.468L151.318 755.468L151.554 755.385ZM160.497 765.991L160.391 766.218L160.397 766.221L160.497 765.991ZM194.812 768.071L194.797 767.822L194.797 767.822L194.812 768.071ZM214.362 766.407L214.609 766.369L214.572 766.132L214.334 766.159L214.362 766.407ZM216.857 782.421L216.952 782.653L217.135 782.578L217.104 782.383L216.857 782.421ZM203.963 786.165L203.914 785.919L203.914 785.919L203.963 786.165ZM188.781 788.244L188.761 787.995L188.754 787.996L188.781 788.244ZM144.067 783.669L143.955 783.893L143.96 783.895L144.067 783.669ZM127.637 766.199L127.407 766.296L127.408 766.3L127.637 766.199ZM127.637 703.808L127.408 703.707L127.407 703.709L127.637 703.808ZM143.859 686.962L143.757 686.733L143.756 686.734L143.859 686.962ZM338.906 684.466L339.141 684.552L339.264 684.216H338.906V684.466ZM303.759 780.549L303.992 780.639L303.994 780.635L303.759 780.549ZM300.431 784.917L300.284 784.714L300.275 784.722L300.431 784.917ZM267.988 784.917L268.135 784.715L268.135 784.715L267.988 784.917ZM264.66 780.549L264.425 780.635L264.427 780.639L264.66 780.549ZM229.513 684.466V684.216H229.155L229.278 684.552L229.513 684.466ZM256.341 684.466L256.579 684.39L256.524 684.216H256.341V684.466ZM277.762 751.433L278 751.357L278 751.357L277.762 751.433ZM280.466 760.792L280.224 760.855L280.225 760.858L280.466 760.792ZM282.754 769.735L282.51 769.793L282.556 769.985H282.754V769.735ZM285.457 769.735V769.985H285.64L285.695 769.811L285.457 769.735ZM288.161 760.584L287.922 760.508L287.92 760.518L288.161 760.584ZM290.864 751.433L290.626 751.357L290.623 751.367L290.864 751.433ZM312.286 684.466V684.216H312.103L312.047 684.39L312.286 684.466ZM503.574 689.25L503.395 689.424L503.4 689.429L503.574 689.25ZM510.854 786.581V786.831H511.104V786.581H510.854ZM485.897 786.581H485.647V786.831H485.897V786.581ZM485.897 717.742H486.147L486.147 717.735L485.897 717.742ZM482.777 706.719L482.584 706.878L482.589 706.884L482.777 706.719ZM464.06 704.639L464.135 704.878L464.142 704.875L464.06 704.639ZM455.117 708.799L454.991 708.583L454.991 708.583L455.117 708.799ZM443.055 716.494L442.806 716.518L442.846 716.937L443.195 716.701L443.055 716.494ZM441.599 701.312L441.429 701.128L441.338 701.212L441.35 701.336L441.599 701.312ZM461.98 686.754L461.872 686.528L461.87 686.529L461.98 686.754ZM375.88 684.466L376.128 684.435L376.1 684.216H375.88V684.466ZM378.375 704.432L378.127 704.463L378.137 704.537L378.185 704.594L378.375 704.432ZM380.871 707.343H381.121V707.251L381.061 707.18L380.871 707.343ZM380.871 786.581V786.831H381.121V786.581H380.871ZM355.706 786.581H355.456V786.831H355.706V786.581ZM355.706 684.466V684.216H355.456V684.466H355.706ZM438.271 689.042L438.448 688.865L438.271 689.042ZM445.342 786.581V786.831H445.592V786.581H445.342ZM421.218 786.581H420.968V786.831H421.218V786.581ZM417.89 706.511L417.713 706.688L417.719 706.694L417.89 706.511ZM399.588 704.432L399.66 704.671L399.66 704.671L399.588 704.432ZM390.438 708.591L390.564 708.807L390.564 708.807L390.438 708.591ZM377.959 716.494L377.71 716.518L377.75 716.934L378.098 716.702L377.959 716.494ZM376.504 701.312L376.332 701.13L376.243 701.214L376.255 701.336L376.504 701.312ZM396.885 686.754L396.777 686.528L396.777 686.528L396.885 686.754ZM614.404 687.17L614.298 687.396L614.299 687.397L614.404 687.17ZM630.418 704.224L630.186 704.317L630.188 704.321L630.418 704.224ZM630.418 767.031L630.188 766.934L630.187 766.936L630.418 767.031ZM614.404 784.085L614.511 784.311L614.513 784.31L614.404 784.085ZM555.132 784.085L555.022 784.309L555.027 784.312L555.132 784.085ZM539.118 767.031L538.888 767.128L538.888 767.13L539.118 767.031ZM539.118 704.224L538.888 704.127L538.888 704.127L539.118 704.224ZM555.132 687.17L555.027 686.943L555.025 686.944L555.132 687.17ZM570.106 704.224L570.228 704.442L570.231 704.44L570.106 704.224ZM562.619 714.622L562.858 714.695L562.858 714.695L562.619 714.622ZM562.619 756.633L562.858 756.56L562.858 756.56L562.619 756.633ZM570.106 767.031L569.984 767.249L569.988 767.251L570.106 767.031ZM599.43 767.031L599.549 767.251L599.549 767.251L599.43 767.031ZM606.917 756.633L606.678 756.559L606.676 756.566L606.917 756.633ZM606.917 714.622L606.676 714.689L606.678 714.695L606.917 714.622ZM599.43 704.224L599.305 704.44L599.312 704.444L599.43 704.224ZM747.939 694.241L748.141 694.094L748.141 694.094L747.939 694.241ZM754.594 757.256L754.35 757.201L754.349 757.205L754.594 757.256ZM747.107 774.518L746.906 774.369L746.905 774.37L747.107 774.518ZM732.549 785.333L732.641 785.565L732.641 785.565L732.549 785.333ZM696.777 788.66L696.762 788.91L696.762 788.91L696.777 788.66ZM683.259 787.204L683.297 786.957L683.297 786.957L683.259 787.204ZM669.949 784.917L669.892 785.16L669.902 785.162L669.949 784.917ZM658.718 781.381H658.468V781.548L658.622 781.612L658.718 781.381ZM678.892 765.991L678.968 765.753L678.844 765.714L678.74 765.793L678.892 765.991ZM688.458 768.487L688.407 768.732L688.419 768.734L688.458 768.487ZM698.649 769.735L698.628 769.984L698.639 769.985L698.649 769.735ZM708.216 769.943V770.193L708.222 770.193L708.216 769.943ZM721.318 766.615L721.186 766.403L721.182 766.406L721.318 766.615ZM728.597 756.009L728.836 756.082L728.837 756.08L728.597 756.009ZM729.013 715.454L728.769 715.51L728.771 715.518L729.013 715.454ZM722.774 705.263L722.908 705.053L722.908 705.053L722.774 705.263ZM695.738 705.887L695.617 705.668L695.614 705.67L695.738 705.887ZM681.18 715.454L680.931 715.485L680.983 715.905L681.326 715.656L681.18 715.454ZM679.516 701.936L679.333 701.765L679.253 701.851L679.268 701.966L679.516 701.936ZM691.37 691.329L691.225 691.125L691.222 691.128L691.37 691.329ZM704.888 684.466L704.965 684.704L704.969 684.703L704.888 684.466ZM683.883 641L684.133 640.999L684.132 640.75H683.883V641ZM684.091 676.355H684.341L684.341 676.354L684.091 676.355ZM683.467 689.25L683.218 689.225L683.218 689.232L683.467 689.25ZM681.387 701.104L681.147 701.035L681.11 701.165L681.198 701.267L681.387 701.104ZM683.883 704.016H684.133V703.923L684.073 703.853L683.883 704.016ZM683.883 782.629L683.871 782.879L684.133 782.892V782.629H683.883ZM658.718 641V640.75H658.468V641H658.718ZM224 1V0.75C223.862 0.75 223.75 0.861929 223.75 1H224ZM412.902 197.68L413.152 197.686C413.154 197.627 413.134 197.569 413.096 197.523L412.902 197.68ZM403.215 601V601.25C403.351 601.25 403.462 601.142 403.465 601.006L403.215 601ZM224 371.954H223.75C223.75 372.002 223.764 372.049 223.79 372.09L224 371.954ZM253.062 1L253.256 0.84233C253.208 0.783915 253.137 0.75 253.062 0.75V1ZM371.731 601L371.521 601.136C371.567 601.207 371.646 601.25 371.731 601.25V601ZM257.906 45.8133L258.102 45.6586C258.036 45.5752 257.925 45.5424 257.825 45.5768C257.724 45.6111 257.656 45.7052 257.656 45.8114L257.906 45.8133ZM381.419 202.66L381.669 202.667C381.67 202.608 381.651 202.551 381.615 202.505L381.419 202.66ZM371.731 551.208L371.522 551.344C371.581 551.435 371.694 551.478 371.799 551.448C371.904 551.419 371.978 551.324 371.981 551.214L371.731 551.208ZM255.484 371.954L255.234 371.952C255.233 372.001 255.247 372.049 255.274 372.09L255.484 371.954ZM395.956 28.3857V28.1357C395.818 28.1357 395.706 28.2476 395.706 28.3857H395.956ZM534 165.315L534.25 165.32C534.251 165.26 534.23 165.201 534.192 165.155L534 165.315ZM529.156 439.174V439.424C529.293 439.424 529.404 439.315 529.406 439.178L529.156 439.174ZM395.956 282.25H395.706C395.706 282.298 395.72 282.345 395.746 282.386L395.956 282.25ZM419.935 28.3857L420.127 28.2257C420.08 28.1687 420.009 28.1357 419.935 28.1357V28.3857ZM497.673 439.174L497.463 439.31C497.509 439.381 497.588 439.424 497.673 439.424V439.174ZM424.633 76L424.826 75.8413C424.759 75.7597 424.648 75.729 424.549 75.7646C424.449 75.8002 424.383 75.8944 424.383 76H424.633ZM500.094 167.805H500.344C500.344 167.747 500.324 167.691 500.288 167.646L500.094 167.805ZM500.094 386.892L499.883 387.026C499.943 387.12 500.058 387.163 500.164 387.132C500.271 387.101 500.344 387.003 500.344 386.892H500.094ZM424.633 268.188H424.383C424.383 268.235 424.397 268.282 424.422 268.322L424.633 268.188ZM313.612 15.9368V15.6868C313.474 15.6868 313.362 15.7988 313.362 15.9368H313.612ZM475.874 185.231L476.124 185.235C476.125 185.178 476.106 185.122 476.07 185.077L475.874 185.231ZM471.03 526.31V526.56C471.167 526.56 471.278 526.45 471.28 526.314L471.03 526.31ZM313.612 329.63H313.362C313.362 329.677 313.375 329.724 313.401 329.764L313.612 329.63ZM342.301 15.9368L342.497 15.782C342.45 15.7219 342.377 15.6868 342.301 15.6868V15.9368ZM438.615 526.31L438.404 526.444C438.45 526.517 438.53 526.56 438.615 526.56V526.31ZM345.095 63.2397L345.29 63.0826C345.223 63.0002 345.112 62.9687 345.012 63.004C344.912 63.0393 344.845 63.1338 344.845 63.2397H345.095ZM446.812 189.126L447.062 189.134C447.064 189.074 447.044 189.015 447.006 188.969L446.812 189.126ZM438.615 460.375L438.412 460.52C438.474 460.608 438.585 460.645 438.688 460.614C438.79 460.583 438.862 460.49 438.865 460.383L438.615 460.375ZM345.095 329.63H344.845C344.845 329.682 344.862 329.733 344.892 329.775L345.095 329.63ZM39.6828 682.221C46.5915 682.221 53.3617 683.188 59.9941 685.122L60.1341 684.642C53.4562 682.694 46.6389 681.721 39.6828 681.721V682.221ZM59.9987 685.123C66.6209 686.917 72.6214 689.952 78.0021 694.229L78.3132 693.837C72.8794 689.518 66.8175 686.452 60.1295 684.641L59.9987 685.123ZM77.9098 694L76.246 706.687L76.7418 706.752L78.4056 694.065L77.9098 694ZM76.5618 706.479C71.1531 704.953 66.2986 703.635 61.9983 702.526L61.8734 703.01C66.1693 704.118 71.0201 705.435 76.426 706.96L76.5618 706.479ZM61.9983 702.526C57.6764 701.41 52.8717 700.854 47.5858 700.854V701.354C52.8371 701.354 57.5991 701.907 61.8734 703.01L61.9983 702.526ZM47.5858 700.854C42.5671 700.854 38.4976 701.76 35.3962 703.592L35.6506 704.023C38.6497 702.251 42.6218 701.354 47.5858 701.354V700.854ZM35.3993 703.591C32.4107 705.298 30.1643 708.625 28.6298 713.507L29.1068 713.657C30.6225 708.834 32.8129 705.644 35.6474 704.025L35.3993 703.591ZM28.6279 713.514C27.2318 718.4 26.5385 725.499 26.5385 734.795H27.0385C27.0385 725.513 27.7318 718.47 29.1087 713.651L28.6279 713.514ZM26.5385 734.795C26.5385 743.677 27.232 750.568 28.6279 755.453L29.1087 755.316C27.7316 750.496 27.0385 743.66 27.0385 734.795H26.5385ZM28.6284 755.455C30.0249 760.203 32.1998 763.591 35.1767 765.575L35.4541 765.159C32.6078 763.262 30.4847 759.994 29.1081 755.314L28.6284 755.455ZM35.1838 765.58C38.1472 767.414 42.0102 768.321 46.7539 768.321V767.821C42.0695 767.821 38.3069 766.925 35.447 765.155L35.1838 765.58ZM46.7539 768.321C50.5154 768.321 53.8667 767.903 56.8052 767.064L56.6679 766.583C53.7831 767.407 50.4794 767.821 46.7539 767.821V768.321ZM56.8156 767.06C59.7463 766.083 62.7433 764.689 65.8065 762.879L65.5522 762.449C62.5149 764.243 59.55 765.622 56.6575 766.586L56.8156 767.06ZM65.8136 762.875C68.8693 760.93 72.4091 758.501 76.4326 755.587L76.1393 755.182C72.1212 758.092 68.5899 760.515 65.5451 762.453L65.8136 762.875ZM76.0386 755.421L78.1183 769.563L78.613 769.49L76.5333 755.348L76.0386 755.421ZM78.1772 769.363C73.4839 774.746 67.6839 779.373 60.7738 783.243L61.0181 783.679C67.9729 779.784 73.8193 775.122 78.5541 769.691L78.1772 769.363ZM60.7753 783.242C54.0241 786.962 46.164 788.826 37.1872 788.826V789.326C46.2346 789.326 54.1803 787.447 61.0166 783.68L60.7753 783.242ZM37.1872 788.826C24.2195 788.826 15.0229 784.279 9.53269 775.22L9.10509 775.48C14.7067 784.722 24.089 789.326 37.1872 789.326V788.826ZM9.53354 775.222C4.02101 765.988 1.25 752.592 1.25 735.003H0.75C0.75 752.631 3.52492 766.133 9.10423 775.478L9.53354 775.222ZM1.25 735.003C1.25 721.567 2.6358 711.063 5.39439 703.477L4.9245 703.306C2.13716 710.971 0.75 721.542 0.75 735.003H1.25ZM5.39353 703.479C8.2902 695.755 12.5556 690.333 18.176 687.18L17.9314 686.744C12.1826 689.969 7.85191 695.5 4.92536 703.304L5.39353 703.479ZM18.1778 687.179C23.954 683.878 31.1181 682.221 39.6828 682.221V681.721C31.0551 681.721 23.7999 683.39 17.9297 686.745L18.1778 687.179ZM98.4969 641V786.581H98.9969V641H98.4969ZM98.7469 786.331H78.9896V786.831H98.7469V786.331ZM79.2369 786.544L76.5332 768.242L76.0386 768.316L78.7422 786.617L79.2369 786.544ZM76.4384 768.081L73.7347 766.001L73.4299 766.397L76.1335 768.477L76.4384 768.081ZM73.8323 766.199V697.984H73.3323V766.199H73.8323ZM73.8121 698.083L75.0599 695.171L74.6003 694.974L73.3525 697.886L73.8121 698.083ZM75.0778 695.039C74.5244 691.026 74.1785 687.014 74.0401 683.002L73.5404 683.019C73.6794 687.048 74.0267 691.078 74.5825 695.107L75.0778 695.039ZM74.0401 683.002C73.9016 678.845 73.8323 674.62 73.8323 670.324H73.3323C73.3323 674.625 73.4017 678.856 73.5404 683.019L74.0401 683.002ZM73.8323 670.324V641H73.3323V670.324H73.8323ZM73.5823 641.25H98.7469V640.75H73.5823V641.25ZM172.767 682.221C189.249 682.221 201.031 685.131 208.173 690.9L208.487 690.511C201.21 684.633 189.284 681.721 172.767 681.721V682.221ZM208.176 690.902C215.313 696.529 218.965 704.907 219.103 716.081L219.603 716.075C219.464 704.787 215.767 696.251 208.485 690.509L208.176 690.902ZM219.103 716.082C219.241 725.332 217.032 732.33 212.516 737.12L212.88 737.463C217.515 732.547 219.742 725.403 219.603 716.074L219.103 716.082ZM212.516 737.12C208.148 741.76 200.815 744.112 190.445 744.112V744.612C200.872 744.612 208.374 742.25 212.88 737.462L212.516 737.12ZM190.445 744.112H132.213V744.612H190.445V744.112ZM132.463 744.362V728.764H131.963V744.362H132.463ZM132.213 729.014H183.582V728.514H132.213V729.014ZM183.582 729.014C188.321 729.014 191.434 727.761 192.748 725.133L192.301 724.909C191.119 727.272 188.27 728.514 183.582 728.514V729.014ZM192.743 725.142C194.155 722.601 194.854 719.506 194.854 715.87H194.354C194.354 719.443 193.667 722.449 192.306 724.899L192.743 725.142ZM194.854 715.864C194.715 710.139 193.036 706.093 189.756 703.81L189.47 704.221C192.567 706.375 194.217 710.232 194.354 715.876L194.854 715.864ZM189.76 703.813C186.642 701.546 181.303 700.438 173.807 700.438V700.938C181.285 700.938 186.484 702.049 189.466 704.218L189.76 703.813ZM173.807 700.438C167.273 700.438 162.168 701.341 158.513 703.168L158.737 703.615C162.292 701.838 167.308 700.938 173.807 700.938V700.438ZM158.513 703.168C154.835 705.007 152.233 708.327 150.692 713.089L151.168 713.243C152.677 708.578 155.205 705.381 158.737 703.615L158.513 703.168ZM150.69 713.096C149.294 717.844 148.6 724.666 148.6 733.548H149.1C149.1 724.682 149.794 717.917 151.17 713.237L150.69 713.096ZM148.6 733.548C148.6 742.986 149.502 750.298 151.318 755.468L151.79 755.302C150.001 750.211 149.1 742.965 149.1 733.548H148.6ZM151.318 755.468C153.138 760.648 156.16 764.243 160.391 766.218L160.603 765.765C156.515 763.857 153.574 760.381 151.79 755.302L151.318 755.468ZM160.397 766.221C164.6 768.042 170.184 768.945 177.135 768.945V768.445C170.22 768.445 164.712 767.545 160.596 765.762L160.397 766.221ZM177.135 768.945C182.271 768.945 188.169 768.737 194.828 768.321L194.797 767.822C188.145 768.237 182.258 768.445 177.135 768.445V768.945ZM194.827 768.321C201.625 767.904 208.146 767.349 214.389 766.656L214.334 766.159C208.099 766.852 201.587 767.406 194.797 767.822L194.827 768.321ZM214.115 766.446L216.61 782.46L217.104 782.383L214.609 766.369L214.115 766.446ZM216.763 782.19C213.037 783.708 208.754 784.951 203.914 785.919L204.012 786.41C208.877 785.437 213.191 784.185 216.952 782.653L216.763 782.19ZM203.914 785.919C199.072 786.888 194.021 787.58 188.761 787.995L188.801 788.494C194.078 788.077 199.149 787.382 204.012 786.41L203.914 785.919ZM188.754 787.996C183.632 788.55 178.788 788.826 174.223 788.826V789.326C178.808 789.326 183.67 789.048 188.808 788.493L188.754 787.996ZM174.223 788.826C161.765 788.826 151.754 787.026 144.174 783.443L143.96 783.895C151.631 787.521 161.724 789.326 174.223 789.326V788.826ZM144.179 783.445C136.746 779.729 131.31 773.95 127.866 766.099L127.408 766.3C130.897 774.254 136.414 780.122 143.955 783.893L144.179 783.445ZM127.868 766.102C124.557 758.241 122.896 748.086 122.896 735.627H122.396C122.396 748.125 124.062 758.352 127.407 766.296L127.868 766.102ZM122.896 735.627C122.896 722.195 124.558 711.626 127.867 703.906L127.407 703.709C124.061 711.518 122.396 722.162 122.396 735.627H122.896ZM127.866 703.908C131.309 696.057 136.674 690.49 143.962 687.19L143.756 686.734C136.347 690.089 130.897 695.752 127.408 703.707L127.866 703.908ZM143.961 687.19C151.405 683.882 161.003 682.221 172.767 682.221V681.721C160.961 681.721 151.287 683.387 143.757 686.733L143.961 687.19ZM338.671 684.38L303.524 780.463L303.994 780.635L339.141 684.552L338.671 684.38ZM303.525 780.46C302.849 782.218 301.769 783.634 300.284 784.715L300.578 785.119C302.143 783.981 303.282 782.485 303.992 780.639L303.525 780.46ZM300.275 784.722C298.94 785.789 297.265 786.331 295.232 786.331V786.831C297.358 786.831 299.149 786.262 300.587 785.112L300.275 784.722ZM295.232 786.331H273.187V786.831H295.232V786.331ZM273.187 786.331C271.297 786.331 269.616 785.792 268.135 784.715L267.84 785.119C269.41 786.26 271.195 786.831 273.187 786.831V786.331ZM268.135 784.715C266.649 783.634 265.57 782.218 264.893 780.46L264.427 780.639C265.137 782.485 266.275 783.981 267.84 785.119L268.135 784.715ZM264.895 780.463L229.747 684.38L229.278 684.552L264.425 780.635L264.895 780.463ZM229.513 684.716H256.341V684.216H229.513V684.716ZM256.103 684.542L277.524 751.509L278 751.357L256.579 684.39L256.103 684.542ZM277.524 751.509C278.493 754.555 279.393 757.67 280.224 760.855L280.708 760.729C279.875 757.536 278.972 754.412 278 751.357L277.524 751.509ZM280.225 760.858C281.056 763.906 281.818 766.884 282.51 769.793L282.997 769.677C282.303 766.763 281.54 763.779 280.707 760.726L280.225 760.858ZM282.754 769.985H285.457V769.485H282.754V769.985ZM285.695 769.811C286.667 766.757 287.569 763.703 288.402 760.65L287.92 760.518C287.089 763.565 286.188 766.612 285.219 769.659L285.695 769.811ZM288.399 760.66C289.371 757.606 290.273 754.553 291.106 751.499L290.623 751.367C289.792 754.414 288.892 757.461 287.923 760.508L288.399 760.66ZM291.103 751.509L312.524 684.542L312.047 684.39L290.626 751.357L291.103 751.509ZM312.286 684.716H338.906V684.216H312.286V684.716ZM482.985 682.221C491.953 682.221 498.742 684.634 503.395 689.424L503.754 689.075C498.979 684.16 492.042 681.721 482.985 681.721V682.221ZM503.4 689.429C508.189 694.081 510.604 700.939 510.604 710.047H511.104C511.104 700.853 508.665 693.846 503.749 689.07L503.4 689.429ZM510.604 710.047V786.581H511.104V710.047H510.604ZM510.854 786.331H485.897V786.831H510.854V786.331ZM486.147 786.581V717.742H485.647V786.581H486.147ZM486.147 717.735C486.008 712.586 484.964 708.839 482.965 706.555L482.589 706.884C484.472 709.036 485.509 712.638 485.647 717.749L486.147 717.735ZM482.97 706.56C480.96 704.119 477.47 702.934 472.587 702.934V703.434C477.408 703.434 480.713 704.606 482.584 706.878L482.97 706.56ZM472.587 702.934C469.647 702.934 466.776 703.424 463.977 704.404L464.142 704.875C466.889 703.914 469.703 703.434 472.587 703.434V702.934ZM463.985 704.401C461.327 705.24 458.329 706.636 454.991 708.583L455.243 709.015C458.56 707.08 461.524 705.702 464.135 704.878L463.985 704.401ZM454.991 708.583C451.657 710.528 447.631 713.096 442.915 716.287L443.195 716.701C447.906 713.514 451.922 710.952 455.243 709.015L454.991 708.583ZM443.303 716.47L441.848 701.288L441.35 701.336L442.806 716.518L443.303 716.47ZM441.768 701.496C448.827 694.991 455.601 690.154 462.09 686.978L461.87 686.529C455.326 689.732 448.513 694.6 441.429 701.128L441.768 701.496ZM462.088 686.979C468.71 683.807 475.674 682.221 482.985 682.221V681.721C475.599 681.721 468.561 683.323 461.872 686.528L462.088 686.979ZM375.632 684.497L378.127 704.463L378.623 704.401L376.128 684.435L375.632 684.497ZM378.185 704.594L380.681 707.506L381.061 707.18L378.565 704.269L378.185 704.594ZM380.621 707.343V786.581H381.121V707.343H380.621ZM380.871 786.331H355.706V786.831H380.871V786.331ZM355.956 786.581V684.466H355.456V786.581H355.956ZM355.706 684.716H375.88V684.216H355.706V684.716ZM417.89 682.221C426.72 682.221 433.441 684.565 438.094 689.218L438.448 688.865C433.673 684.09 426.807 681.721 417.89 681.721V682.221ZM438.094 689.218C442.746 693.87 445.092 700.797 445.092 710.047H445.592C445.592 700.718 443.225 693.642 438.448 688.865L438.094 689.218ZM445.092 710.047V786.581H445.592V710.047H445.092ZM445.342 786.331H421.218V786.831H445.342V786.331ZM421.468 786.581V717.742H420.968V786.581H421.468ZM421.468 717.742C421.468 712.315 420.357 708.482 418.061 706.329L417.719 706.694C419.859 708.7 420.968 712.354 420.968 717.742H421.468ZM418.067 706.334C415.785 704.053 412.383 702.934 407.907 702.934V703.434C412.306 703.434 415.558 704.533 417.713 706.688L418.067 706.334ZM407.907 702.934C405.109 702.934 402.312 703.353 399.517 704.192L399.66 704.671C402.411 703.846 405.16 703.434 407.907 703.434V702.934ZM399.517 704.192C396.72 705.031 393.651 706.427 390.312 708.375L390.564 708.807C393.879 706.873 396.911 705.496 399.66 704.671L399.517 704.192ZM390.312 708.375C386.978 710.32 382.814 712.957 377.821 716.286L378.098 716.702C383.087 713.376 387.242 710.744 390.564 708.807L390.312 708.375ZM378.208 716.47L376.752 701.288L376.255 701.336L377.71 716.518L378.208 716.47ZM376.675 701.494C383.594 694.99 390.366 690.154 396.993 686.979L396.777 686.528C390.093 689.731 383.278 694.601 376.332 701.13L376.675 701.494ZM396.993 686.979C403.614 683.807 410.579 682.221 417.89 682.221V681.721C410.504 681.721 403.465 683.323 396.777 686.528L396.993 686.979ZM584.664 682.221C597.123 682.221 606.996 683.952 614.298 687.396L614.511 686.944C607.116 683.456 597.162 681.721 584.664 681.721V682.221ZM614.299 687.397C621.726 690.835 627.02 696.471 630.186 704.317L630.65 704.13C627.438 696.17 622.056 690.437 614.509 686.943L614.299 687.397ZM630.188 704.321C633.497 712.181 635.159 722.612 635.159 735.627H635.659C635.659 722.577 633.994 712.072 630.648 704.127L630.188 704.321ZM635.159 735.627C635.159 748.643 633.497 759.074 630.188 766.934L630.648 767.128C633.994 759.183 635.659 748.678 635.659 735.627H635.159ZM630.187 766.936C627.021 774.644 621.726 780.282 614.296 783.86L614.513 784.31C622.056 780.678 627.437 774.947 630.649 767.126L630.187 766.936ZM614.298 783.859C606.996 787.303 597.123 789.034 584.664 789.034V789.534C597.162 789.534 607.116 787.799 614.511 784.311L614.298 783.859ZM584.664 789.034C572.484 789.034 562.679 787.303 555.237 783.858L555.027 784.312C562.559 787.799 572.443 789.534 584.664 789.534V789.034ZM555.242 783.86C547.949 780.283 542.653 774.644 539.348 766.933L538.888 767.13C542.239 774.947 547.618 780.677 555.022 784.309L555.242 783.86ZM539.349 766.934C536.039 759.074 534.377 748.643 534.377 735.627H533.877C533.877 748.678 535.542 759.183 538.888 767.128L539.349 766.934ZM534.377 735.627C534.377 722.612 536.039 712.181 539.349 704.321L538.888 704.127C535.542 712.072 533.877 722.577 533.877 735.627H534.377ZM539.349 704.321C542.654 696.471 547.949 690.834 555.239 687.396L555.025 686.944C547.618 690.438 542.238 696.17 538.888 704.127L539.349 704.321ZM555.237 687.397C562.679 683.951 572.484 682.221 584.664 682.221V681.721C572.443 681.721 562.559 683.456 555.027 686.943L555.237 687.397ZM584.664 700.854C578.539 700.854 573.638 701.897 569.981 704.007L570.231 704.44C573.784 702.39 578.588 701.354 584.664 701.354V700.854ZM569.984 704.005C566.446 705.987 563.918 709.516 562.38 714.549L562.858 714.695C564.371 709.746 566.834 706.342 570.228 704.442L569.984 704.005ZM562.38 714.549C560.844 719.575 560.081 726.606 560.081 735.627H560.581C560.581 726.625 561.344 719.652 562.858 714.695L562.38 714.549ZM560.081 735.627C560.081 744.649 560.844 751.679 562.38 756.706L562.858 756.56C561.344 751.603 560.581 744.63 560.581 735.627H560.081ZM562.38 756.706C563.918 761.739 566.446 765.268 569.984 767.249L570.228 766.813C566.834 764.912 564.371 761.509 562.858 756.56L562.38 756.706ZM569.988 767.251C573.642 769.219 578.541 770.193 584.664 770.193V769.693C578.586 769.693 573.78 768.725 570.225 766.811L569.988 767.251ZM584.664 770.193C590.925 770.193 595.893 769.22 599.549 767.251L599.312 766.811C595.757 768.725 590.882 769.693 584.664 769.693V770.193ZM599.549 767.251C603.228 765.27 605.758 761.738 607.158 756.699L606.676 756.566C605.303 761.51 602.842 764.91 599.312 766.811L599.549 767.251ZM607.156 756.706C608.692 751.679 609.455 744.649 609.455 735.627H608.955C608.955 744.63 608.193 751.603 606.678 756.56L607.156 756.706ZM609.455 735.627C609.455 726.606 608.692 719.575 607.156 714.549L606.678 714.695C608.193 719.652 608.955 726.625 608.955 735.627H609.455ZM607.158 714.555C605.758 709.517 603.228 705.985 599.549 704.003L599.312 704.444C602.842 706.344 605.303 709.745 606.676 714.689L607.158 714.555ZM599.555 704.007C595.898 701.897 590.927 700.854 584.664 700.854V701.354C590.88 701.354 595.753 702.391 599.305 704.44L599.555 704.007ZM719.446 682.221C732.425 682.221 741.835 686.291 747.737 694.388L748.141 694.094C742.119 685.831 732.534 681.721 719.446 681.721V682.221ZM747.737 694.388C753.65 702.502 756.631 716.022 756.631 735.003H757.131C757.131 715.996 754.151 702.34 748.141 694.094L747.737 694.388ZM756.631 735.003C756.631 743.168 755.87 750.567 754.35 757.201L754.837 757.312C756.367 750.636 757.131 743.199 757.131 735.003H756.631ZM754.349 757.205C752.969 763.83 750.487 769.549 746.906 774.369L747.307 774.667C750.936 769.782 753.445 763.994 754.838 757.307L754.349 757.205ZM746.905 774.37C743.471 779.041 738.658 782.62 732.456 785.101L732.641 785.565C738.917 783.054 743.81 779.423 747.308 774.666L746.905 774.37ZM732.456 785.101C726.256 787.58 718.318 788.826 708.632 788.826V789.326C718.356 789.326 726.363 788.076 732.641 785.565L732.456 785.101ZM708.632 788.826C705.172 788.826 701.226 788.688 696.793 788.411L696.762 788.91C701.202 789.187 705.159 789.326 708.632 789.326V788.826ZM696.793 788.411C692.364 788.134 687.865 787.649 683.297 786.957L683.222 787.452C687.804 788.146 692.317 788.632 696.762 788.91L696.793 788.411ZM683.297 786.957C678.724 786.265 674.291 785.503 669.997 784.671L669.902 785.162C674.203 785.995 678.643 786.758 683.222 787.452L683.297 786.957ZM670.006 784.673C665.857 783.705 662.127 782.531 658.815 781.15L658.622 781.612C661.965 783.005 665.722 784.187 669.892 785.16L670.006 784.673ZM658.87 781.58L679.043 766.19L678.74 765.793L658.567 781.182L658.87 781.58ZM678.816 766.23C681.875 767.203 685.072 768.037 688.408 768.732L688.509 768.242C685.19 767.551 682.009 766.721 678.968 765.753L678.816 766.23ZM688.419 768.734C691.891 769.289 695.294 769.706 698.628 769.984L698.67 769.486C695.349 769.209 691.958 768.794 688.498 768.24L688.419 768.734ZM698.639 769.985C702.108 770.123 705.3 770.193 708.216 770.193V769.693C705.308 769.693 702.123 769.624 698.659 769.485L698.639 769.985ZM708.222 770.193C713.794 770.053 718.213 768.939 721.455 766.825L721.182 766.406C718.045 768.451 713.729 769.555 708.21 769.693L708.222 770.193ZM721.451 766.827C724.844 764.706 727.299 761.111 728.836 756.082L728.358 755.936C726.845 760.889 724.447 764.365 721.186 766.403L721.451 766.827ZM728.837 756.08C730.372 750.917 731.135 743.887 731.135 735.003H730.635C730.635 743.866 729.873 750.841 728.357 755.937L728.837 756.08ZM731.135 735.003C731.135 726.676 730.511 720.135 729.255 715.39L728.771 715.518C730.011 720.202 730.635 726.693 730.635 735.003H731.135ZM729.257 715.398C728.139 710.506 726.032 707.04 722.908 705.053L722.64 705.474C725.616 707.369 727.669 710.697 728.769 715.51L729.257 715.398ZM722.908 705.053C719.801 703.075 715.379 702.102 709.672 702.102V702.602C715.334 702.602 719.646 703.57 722.64 705.474L722.908 705.053ZM709.672 702.102C704.639 702.102 699.953 703.291 695.617 705.668L695.858 706.107C700.118 703.77 704.722 702.602 709.672 702.602V702.102ZM695.614 705.67C691.444 708.033 686.583 711.227 681.033 715.252L681.326 715.656C686.868 711.639 691.712 708.456 695.861 706.105L695.614 705.67ZM681.428 715.424L679.764 701.905L679.268 701.966L680.931 715.485L681.428 715.424ZM679.699 702.106C683.432 698.096 687.372 694.571 691.518 691.531L691.222 691.128C687.049 694.188 683.086 697.734 679.333 701.765L679.699 702.106ZM691.515 691.533C695.793 688.497 700.277 686.221 704.965 684.704L704.811 684.228C700.072 685.762 695.543 688.061 691.225 691.125L691.515 691.533ZM704.969 684.703C709.797 683.047 714.623 682.221 719.446 682.221V681.721C714.565 681.721 709.685 682.557 704.807 684.23L704.969 684.703ZM683.633 641.001L683.841 676.357L684.341 676.354L684.133 640.999L683.633 641.001ZM683.841 676.355C683.841 680.784 683.634 685.074 683.218 689.225L683.716 689.274C684.133 685.106 684.341 680.8 684.341 676.355H683.841ZM683.218 689.232C682.942 693.236 682.251 697.17 681.147 701.035L681.628 701.173C682.742 697.274 683.438 693.305 683.717 689.267L683.218 689.232ZM681.198 701.267L683.693 704.178L684.073 703.853L681.577 700.941L681.198 701.267ZM683.633 704.016V782.629H684.133V704.016H683.633ZM683.895 782.379L658.731 781.132L658.706 781.631L683.871 782.879L683.895 782.379ZM658.968 781.381V641H658.468V781.381H658.968ZM658.718 641.25H683.883V640.75H658.718V641.25ZM412.652 197.674L402.965 600.994L403.465 601.006L413.152 197.686L412.652 197.674ZM224.25 371.954V1H223.75V371.954H224.25ZM224 1.25H253.062V0.75H224V1.25ZM252.868 1.15767L412.708 197.838L413.096 197.523L253.256 0.84233L252.868 1.15767ZM403.215 600.75H371.731V601.25H403.215V600.75ZM371.941 600.864L224.21 371.819L223.79 372.09L371.521 601.136L371.941 600.864ZM257.709 45.9679L381.222 202.814L381.615 202.505L258.102 45.6586L257.709 45.9679ZM381.169 202.653L371.481 551.201L371.981 551.214L381.669 202.667L381.169 202.653ZM371.941 551.071L255.693 371.818L255.274 372.09L371.522 551.344L371.941 551.071ZM255.734 371.956L258.156 45.8151L257.656 45.8114L255.234 371.952L255.734 371.956ZM533.75 165.311L528.906 439.17L529.406 439.178L534.25 165.32L533.75 165.311ZM396.206 282.25V28.3857H395.706V282.25H396.206ZM395.956 28.6357H419.935V28.1357H395.956V28.6357ZM419.743 28.5457L533.808 165.475L534.192 165.155L420.127 28.2257L419.743 28.5457ZM529.156 438.924H497.673V439.424H529.156V438.924ZM497.882 439.038L396.166 282.114L395.746 282.386L497.463 439.31L497.882 439.038ZM424.44 76.1587L499.901 167.964L500.288 167.646L424.826 75.8413L424.44 76.1587ZM499.844 167.805V386.892H500.344V167.805H499.844ZM500.305 386.758L424.844 268.053L424.422 268.322L499.883 387.026L500.305 386.758ZM424.883 268.188V76H424.383V268.188H424.883ZM475.624 185.228L470.78 526.307L471.28 526.314L476.124 185.235L475.624 185.228ZM313.862 329.63V15.9368H313.362V329.63H313.862ZM313.612 16.1868H342.301V15.6868H313.612V16.1868ZM342.105 16.0917L475.678 185.386L476.07 185.077L342.497 15.782L342.105 16.0917ZM471.03 526.06H438.615V526.56H471.03V526.06ZM438.826 526.176L313.823 329.496L313.401 329.764L438.404 526.444L438.826 526.176ZM344.901 63.3968L446.618 189.283L447.006 188.969L345.29 63.0826L344.901 63.3968ZM446.562 189.118L438.365 460.367L438.865 460.383L447.062 189.134L446.562 189.118ZM438.818 460.23L345.299 329.484L344.892 329.775L438.412 460.52L438.818 460.23ZM345.345 329.63V63.2397H344.845V329.63H345.345Z" fill="white"/>
</svg>
