<svg width="20" height="20" viewBox="0 0 20 20" fill="none" xmlns="http://www.w3.org/2000/svg">
<path d="M15.0156 10C15.0156 10.2812 14.9062 10.5156 14.6875 10.7031C14.5 10.8906 14.2656 10.9844 13.9844 10.9844H4L0.015625 15.0156V1C0.015625 0.71875 0.109375 0.484375 0.296875 0.296875C0.484375 0.109375 0.71875 0.015625 1 0.015625H13.9844C14.2656 0.015625 14.5 0.109375 14.6875 0.296875C14.9062 0.484375 15.0156 0.71875 15.0156 1V10ZM19 4C19.2812 4 19.5156 4.09375 19.7031 4.28125C19.8906 4.46875 19.9844 4.70312 19.9844 4.98438V19.9844L16 16H4.98438C4.70312 16 4.46875 15.9062 4.28125 15.7188C4.09375 15.5312 4 15.2969 4 15.0156V13H16.9844V4H19Z" fill="#353637"/>
</svg>
