<svg width="155" height="37" viewBox="0 0 155 37" fill="none" xmlns="http://www.w3.org/2000/svg">
<g clip-path="url(#clip0_1315_326)">
<path d="M36.8066 27.8547V12.2228L44.176 12.2227C45.4564 12.2227 46.5059 12.4014 47.3248 12.7587C48.1436 13.116 48.7465 13.6296 49.1336 14.2995C49.5356 14.9546 49.7365 15.7362 49.7365 16.6443C49.7365 17.1803 49.6323 17.6567 49.4239 18.0735C49.2304 18.4755 48.9847 18.8105 48.687 19.0784C48.4041 19.3464 48.1361 19.54 47.883 19.6591C48.4488 19.927 48.9475 20.3662 49.3792 20.9766C49.8259 21.587 50.0492 22.3016 50.0492 23.1204C50.0492 24.103 49.8259 24.9516 49.3792 25.6662C48.9475 26.3659 48.3073 26.9093 47.4587 27.2964C46.625 27.6686 45.5978 27.8547 44.377 27.8547H36.8066ZM40.804 24.9516H43.9304C44.5706 24.9516 45.0544 24.7655 45.3819 24.3933C45.7095 24.0211 45.8732 23.5968 45.8732 23.1204C45.8732 22.5994 45.702 22.1602 45.3596 21.8029C45.0321 21.4456 44.5557 21.2669 43.9304 21.2669H40.804V24.9516ZM40.804 18.4308H43.7294C44.3398 18.4308 44.7939 18.2745 45.0916 17.9619C45.4043 17.6492 45.5606 17.2473 45.5606 16.756C45.5606 16.2796 45.4043 15.8925 45.0916 15.5948C44.7939 15.2821 44.3398 15.1258 43.7294 15.1258H40.804V18.4308Z" fill="#353637"/>
<path d="M49.7154 27.8547C49.5963 27.8547 49.023 27.8547 49.023 27.8547L49.2687 27.1847L54.5166 12.848L54.7563 12.2227H55.3875H58.6926H59.3209L59.5635 12.848L64.7891 27.1847C64.8188 27.2443 65.0221 27.8547 65.0221 27.8547H64.3424H61.5957H61.063L60.8811 27.3857L60.0101 25.1079H54.0477C54.0477 25.1079 53.2288 27.2964 53.1991 27.3857C53.1693 27.475 53.0363 27.8547 53.0363 27.8547H52.4621H49.7154ZM54.9632 21.8922H59.1169L57.0177 15.9967L54.9632 21.8922Z" fill="#353637"/>
<path d="M65.7378 27.8988L64.5811 24.6556V12.8251C64.5811 12.6613 64.5811 12.2668 64.5811 12.2668C64.5811 12.2668 64.9756 12.2668 65.1393 12.2668H67.5065C67.7596 12.2668 68.0091 12.2668 68.0091 12.2668C68.0091 12.2668 68.236 12.6316 68.2657 12.6911L73.7146 21.2887V12.8251C73.7146 12.6613 73.7146 12.2668 73.7146 12.2668C73.7146 12.2668 74.1091 12.2668 74.2729 12.2668H76.9526C77.1164 12.2668 77.5109 12.2668 77.5109 12.2668C77.5109 12.2668 77.5109 12.6613 77.5109 12.8251V27.3405C77.5109 27.4894 77.5109 27.8988 77.5109 27.8988C77.5109 27.8988 77.1164 27.8988 76.9526 27.8988H74.5632C74.325 27.8988 74.0952 27.8988 74.0952 27.8988C74.0952 27.8988 73.856 27.5191 73.8262 27.4745L68.3774 19.2119V27.3405C68.3774 27.5043 68.3774 27.8988 68.3774 27.8988H65.7378Z" fill="#353637"/>
<path d="M78.8687 27.8547C78.7049 27.8547 78.3104 27.8547 78.3104 27.8547C78.3104 27.8547 78.3104 27.4602 78.3104 27.2964V12.781C78.3104 12.6172 78.3104 12.2227 78.3104 12.2227C78.3104 12.2227 78.7049 12.2227 78.8687 12.2227H84.6748C86.1338 12.2227 87.3769 12.4609 88.4042 12.9373C89.4314 13.3988 90.2205 14.0837 90.7713 14.9918C91.3221 15.8851 91.6199 16.9942 91.6646 18.3192C91.6794 18.9742 91.6869 19.5474 91.6869 20.0387C91.6869 20.53 91.6794 21.0957 91.6646 21.7359C91.605 23.1204 91.3072 24.2668 90.7713 25.1749C90.2502 26.0831 89.4835 26.7604 88.4712 27.2071C87.4737 27.6388 86.2455 27.8547 84.7865 27.8547H78.8687ZM82.3077 24.639H84.6748C85.315 24.639 85.8435 24.5422 86.2604 24.3487C86.6921 24.1402 87.0122 23.8201 87.2206 23.3884C87.4439 22.9567 87.563 22.3909 87.5779 21.6912C87.6077 21.2595 87.6226 20.8724 87.6226 20.53C87.6375 20.1876 87.6375 19.8452 87.6226 19.5027C87.6226 19.1603 87.6077 18.7807 87.5779 18.3638C87.5481 17.3515 87.2802 16.6145 86.774 16.153C86.2827 15.6766 85.5458 15.4384 84.5632 15.4384H82.3077V24.639Z" fill="#353637"/>
<path d="M92.9295 27.8547C92.7657 27.8547 92.3712 27.8547 92.3712 27.8547C92.3712 27.8547 92.3712 27.4602 92.3712 27.2964V12.781C92.3712 12.6172 92.3712 12.2227 92.3712 12.2227C92.3712 12.2227 92.7657 12.2227 92.9295 12.2227L102.938 12.2227L103.917 13.6079V14.8801C103.917 15.0439 103.917 15.4384 103.917 15.4384C103.917 15.4384 103.522 15.4384 103.358 15.4384H96.2346V18.4532H102.867C103.031 18.4532 103.425 18.4532 103.425 18.4532C103.425 18.4532 103.425 18.87 103.425 19.0338V20.9766C103.425 21.1255 103.425 21.5349 103.425 21.5349C103.425 21.5349 103.031 21.5349 102.867 21.5349H96.2346V24.639H103.978V27.8547H92.9295Z" fill="#353637"/>
<path d="M107.9 27.8547C107.14 27.8547 103.978 27.8547 103.978 27.8547V24.639C103.978 24.639 108.892 24.8981 109.643 24.1477C110.134 23.6564 110.477 22.9418 110.67 22.0039L112.032 15.5501H108.426H107.9L105.512 12.2227L116.32 12.2227C116.484 12.2227 116.603 12.2748 116.677 12.379C116.767 12.4832 116.796 12.6172 116.767 12.781L114.779 22.1155C114.526 23.4107 114.087 24.505 113.462 25.3982C112.851 26.2766 112.047 26.9465 111.05 27.408C110.067 27.8547 109.329 27.8547 107.9 27.8547Z" fill="#353637"/>
<path d="M121.554 14.7233L116.175 27.8164C116.114 27.9995 116.007 28.1445 115.854 28.2513C115.701 28.3581 115.541 28.4115 115.373 28.4115C115.083 28.4115 114.87 28.3352 114.732 28.1826C114.595 28.03 114.526 27.8469 114.526 27.6332C114.511 27.5264 114.526 27.412 114.572 27.2899L120.501 12.8692C120.577 12.6556 120.692 12.503 120.844 12.4114C121.012 12.3046 121.195 12.2588 121.393 12.2741C121.592 12.2741 121.767 12.3275 121.92 12.4343C122.088 12.5411 122.202 12.6861 122.263 12.8692L128.169 27.1526C128.215 27.2746 128.238 27.3967 128.238 27.5188C128.238 27.7935 128.146 28.0147 127.963 28.1826C127.78 28.3352 127.574 28.4115 127.345 28.4115C127.162 28.4115 126.994 28.3581 126.841 28.2513C126.689 28.1445 126.574 27.9919 126.498 27.7935L121.05 14.7004L121.554 14.7233ZM117.319 24.0853L118.097 22.2999H124.896L125.239 24.0853H117.319ZM135.117 16.3485C136.155 16.3485 137.086 16.6079 137.91 17.1267C138.734 17.6456 139.382 18.3628 139.856 19.2784C140.344 20.194 140.588 21.2469 140.588 22.4372C140.588 23.6122 140.344 24.6652 139.856 25.596C139.382 26.5116 138.734 27.2365 137.91 27.7706C137.101 28.2894 136.185 28.5488 135.163 28.5488C134.598 28.5488 134.064 28.4649 133.561 28.2971C133.072 28.1139 132.622 27.885 132.21 27.6104C131.813 27.3204 131.478 27 131.203 26.649C130.928 26.2827 130.73 25.9241 130.608 25.5731L131.112 25.2527V32.0052C131.112 32.2647 131.028 32.4859 130.86 32.669C130.692 32.8522 130.471 32.9437 130.196 32.9437C129.937 32.9437 129.715 32.8522 129.532 32.669C129.364 32.5012 129.28 32.2799 129.28 32.0052V17.3785C129.28 17.1191 129.364 16.9055 129.532 16.7376C129.715 16.5545 129.937 16.4629 130.196 16.4629C130.471 16.4629 130.692 16.5545 130.86 16.7376C131.028 16.9055 131.112 17.1191 131.112 17.3785V19.4157L130.768 19.2326C130.875 18.8511 131.058 18.4849 131.318 18.1339C131.592 17.7829 131.92 17.4777 132.302 17.2183C132.699 16.9436 133.133 16.73 133.607 16.5774C134.095 16.4248 134.598 16.3485 135.117 16.3485ZM134.911 18.0423C134.148 18.0423 133.469 18.2331 132.874 18.6146C132.294 18.9961 131.836 19.5149 131.501 20.1711C131.18 20.8273 131.02 21.5827 131.02 22.4372C131.02 23.2765 131.18 24.0319 131.501 24.7033C131.836 25.3748 132.294 25.9012 132.874 26.2827C133.469 26.6642 134.148 26.855 134.911 26.855C135.674 26.855 136.346 26.6642 136.926 26.2827C137.505 25.9012 137.963 25.3748 138.299 24.7033C138.635 24.0319 138.803 23.2765 138.803 22.4372C138.803 21.5827 138.635 20.8273 138.299 20.1711C137.963 19.5149 137.505 18.9961 136.926 18.6146C136.346 18.2331 135.674 18.0423 134.911 18.0423ZM148.033 16.3485C149.071 16.3485 150.002 16.6079 150.826 17.1267C151.65 17.6456 152.298 18.3628 152.771 19.2784C153.26 20.194 153.504 21.2469 153.504 22.4372C153.504 23.6122 153.26 24.6652 152.771 25.596C152.298 26.5116 151.65 27.2365 150.826 27.7706C150.017 28.2894 149.101 28.5488 148.079 28.5488C147.514 28.5488 146.98 28.4649 146.477 28.2971C145.988 28.1139 145.538 27.885 145.126 27.6104C144.729 27.3204 144.394 27 144.119 26.649C143.844 26.2827 143.646 25.9241 143.524 25.5731L144.027 25.2527V32.0052C144.027 32.2647 143.943 32.4859 143.776 32.669C143.608 32.8522 143.386 32.9437 143.112 32.9437C142.852 32.9437 142.631 32.8522 142.448 32.669C142.28 32.5012 142.196 32.2799 142.196 32.0052V17.3785C142.196 17.1191 142.28 16.9055 142.448 16.7376C142.631 16.5545 142.852 16.4629 143.112 16.4629C143.386 16.4629 143.608 16.5545 143.776 16.7376C143.943 16.9055 144.027 17.1191 144.027 17.3785V19.4157L143.684 19.2326C143.791 18.8511 143.974 18.4849 144.233 18.1339C144.508 17.7829 144.836 17.4777 145.218 17.2183C145.614 16.9436 146.049 16.73 146.522 16.5774C147.011 16.4248 147.514 16.3485 148.033 16.3485ZM147.827 18.0423C147.064 18.0423 146.385 18.2331 145.79 18.6146C145.21 18.9961 144.752 19.5149 144.417 20.1711C144.096 20.8273 143.936 21.5827 143.936 22.4372C143.936 23.2765 144.096 24.0319 144.417 24.7033C144.752 25.3748 145.21 25.9012 145.79 26.2827C146.385 26.6642 147.064 26.855 147.827 26.855C148.59 26.855 149.262 26.6642 149.841 26.2827C150.421 25.9012 150.879 25.3748 151.215 24.7033C151.551 24.0319 151.718 23.2765 151.718 22.4372C151.718 21.5827 151.551 20.8273 151.215 20.1711C150.879 19.5149 150.421 18.9961 149.841 18.6146C149.262 18.2331 148.59 18.0423 147.827 18.0423Z" fill="#353637"/>
<path d="M6.42275 13.4502C6.20518 13.0993 6.18681 12.7908 6.2748 12.4805C6.93429 10.1689 8.00765 8.10674 10.0006 6.65946C12.6415 4.74134 15.5376 4.28888 18.6455 5.31368C19.0691 5.4529 19.4955 5.62209 19.8427 5.99623C19.7663 6.09291 19.6995 6.17703 19.6067 6.29207C17.7143 5.14836 15.6923 5.00624 13.6007 5.48674C12.8987 5.64819 12.1609 5.76517 11.6213 6.37715C11.6464 6.56471 11.6706 6.75323 11.6919 6.91372C11.0982 7.35845 10.518 7.79447 9.93486 8.23146C9.44267 7.91532 9.24733 7.92885 8.82669 8.35714C8.09468 9.10157 7.59184 9.99295 7.24373 10.9684C6.9604 11.7631 6.71188 12.5714 6.42275 13.4502Z" fill="#353637"/>
<path d="M21.4555 16.032C21.4553 16.0351 21.455 16.0382 21.4548 16.0413C21.4548 16.0414 21.4548 16.0416 21.4548 16.0417C21.4387 16.2606 21.4253 16.4425 21.4081 16.691C21.3309 16.675 21.2567 16.6595 21.1829 16.6441C20.9575 16.5971 20.7354 16.5508 20.4405 16.4897C20.4318 16.4879 20.4231 16.4861 20.4142 16.4842C20.4165 16.4827 20.4187 16.4812 20.4209 16.4797C20.4274 16.4752 20.4338 16.4708 20.4402 16.4665C20.8157 16.2113 21.0963 16.0972 21.4555 16.032Z" fill="#353637"/>
<path fill-rule="evenodd" clip-rule="evenodd" d="M20.3133 31.0222C20.0902 31.1564 18.6017 30.4543 18.6017 30.4543C18.6017 30.4543 15.9973 29.2448 14.6826 28.6341L14.6624 28.6247C13.6756 28.1663 12.6831 27.7053 11.6828 27.2408C11.5688 27.1876 11.5205 27.0513 11.5765 26.9391L11.6084 26.8734C11.6625 26.7651 11.793 26.7197 11.9022 26.77C12.9834 27.2691 14.0571 27.7645 15.1322 28.2605L15.1722 28.279L15.1774 28.2814C16.2716 28.7862 17.3674 29.2918 18.4741 29.8027C18.4699 29.5703 18.3205 29.5059 18.1933 29.451C18.1745 29.4428 18.1561 29.4349 18.1387 29.4266C17.3875 29.0645 16.6321 28.7135 15.8763 28.3623L15.8758 28.3621L15.7284 28.2936C14.9403 27.9269 14.1521 27.5613 13.3649 27.1961L13.345 27.1868C12.8646 26.964 12.3846 26.7413 11.9051 26.5186C11.7959 26.4683 11.7456 26.3398 11.793 26.2295C11.8334 26.1362 11.8749 26.0439 11.9161 25.9522C12.2089 25.301 12.487 24.6825 12.2608 23.9808C12.2347 23.9006 12.2501 23.8117 12.3081 23.7507C12.345 23.7125 12.3817 23.675 12.4179 23.6381C12.5685 23.4843 12.7112 23.3386 12.8319 23.1765C12.8626 23.1356 12.8942 23.0945 12.9261 23.0531C13.1022 22.8242 13.2856 22.5858 13.3519 22.3238C13.3967 22.1453 13.4444 21.9672 13.4921 21.789L13.4921 21.7888L13.4922 21.7888C13.6978 21.0208 13.9041 20.2506 13.8805 19.4409C13.8797 19.4102 13.8781 19.3794 13.8764 19.3485L13.8764 19.3483C13.8703 19.2341 13.8641 19.1195 13.8999 19.0146C13.9492 18.8705 14.1337 18.8289 14.2507 18.9266L14.615 19.2308L14.6757 19.2815L15.0606 19.6028L15.3853 19.874C15.4201 19.903 15.4452 19.9407 15.4578 19.9842C15.6018 20.5005 15.8666 21.124 16.5441 21.4759C16.456 21.3293 16.3535 21.1904 16.2507 21.0511C16.0187 20.7364 15.7847 20.4192 15.7091 20.0045C15.6917 19.9088 15.7332 19.8102 15.8192 19.7628C15.8276 19.7582 15.8361 19.7535 15.8445 19.7489C16.1018 19.607 16.3836 19.4515 16.4716 18.9817C16.2503 19.1731 16.0985 19.3036 15.9545 19.4274C15.9227 19.4554 15.883 19.4738 15.8415 19.4805C15.2838 19.5656 14.9291 19.3935 14.5406 18.8106C14.4594 18.6897 14.5145 18.5225 14.6527 18.4751L14.8885 18.392C14.9552 18.3688 15.0306 18.3794 15.0896 18.419C15.2606 18.537 15.4211 18.6462 15.5825 18.7555L15.6646 18.6897L15.451 18.3871C15.394 18.3059 15.395 18.1947 15.4597 18.1193C15.8028 17.7162 16.2358 17.4822 16.7983 17.4639C17.323 17.4465 17.7212 17.2521 17.9909 16.7426C18.1421 16.4573 18.3982 16.2224 18.6474 15.9938C18.6912 15.9536 18.7348 15.9136 18.7776 15.8735C19.0367 15.6312 19.3095 15.4034 19.5822 15.1758L19.5824 15.1756C19.7001 15.0773 19.8178 14.9791 19.9344 14.8797C19.9233 14.8589 19.9119 14.8384 19.9006 14.8178C19.8924 14.803 19.8842 14.7882 19.8761 14.7733C19.873 14.7675 19.8699 14.7617 19.8668 14.7559L19.8717 14.7545C20.8046 14.4891 21.7375 14.2237 22.6782 13.9564C22.8096 13.9187 22.9449 14.0086 22.9623 14.144C22.9891 14.362 23.0142 14.5766 23.0389 14.7885L23.0391 14.7896L23.0391 14.7896C23.1153 15.442 23.1885 16.0688 23.2986 16.6895C23.3693 17.0884 23.5057 17.4717 23.6403 17.8504C23.7929 18.2793 23.9432 18.7021 23.9935 19.1344C23.9993 19.1934 23.9839 19.2543 23.9452 19.2988C23.7172 19.564 23.4714 19.5104 23.241 19.4601L23.2409 19.4601C23.2135 19.4541 23.1864 19.4482 23.1595 19.4428C23.0812 19.4274 23 19.4544 22.9469 19.5134C22.7816 19.6952 22.7961 19.9059 22.8773 20.1283C22.9613 20.3632 22.9256 20.5546 22.6579 20.7122C22.5007 20.6979 22.3381 20.6831 22.1722 20.6681L22.1576 20.6668L22.1535 20.6664L22.1483 20.6659C21.874 20.6411 21.5909 20.6154 21.3077 20.5894C21.5189 20.8234 21.7782 20.8439 22.0349 20.8642C22.0954 20.869 22.1557 20.8738 22.2152 20.8814C22.3998 20.9056 22.5661 20.9404 22.6559 21.0757C22.7371 21.1975 22.6608 21.3657 22.5187 21.4025L22.4008 21.4334C22.2916 21.4614 22.221 21.5678 22.2355 21.6799C22.2437 21.7426 22.2536 21.8053 22.2636 21.8681C22.3217 22.2354 22.3803 22.6061 22.0964 22.9967C22.0596 23.0469 22.0017 23.0769 21.9398 23.0827C21.7927 23.0957 21.6366 23.1096 21.4749 23.124L21.4738 23.1241C21.2128 23.1474 20.9372 23.172 20.6612 23.1958C20.5312 23.2065 20.4 23.2118 20.2688 23.2171C19.9853 23.2285 19.7018 23.2399 19.4309 23.306C18.7795 23.4627 18.39 23.9035 18.2798 24.5831C18.1088 25.6369 18.132 26.6897 18.2431 27.7474C18.3786 27.5661 18.3709 27.3652 18.3628 27.1544C18.3604 27.093 18.358 27.0309 18.3591 26.9681C18.363 26.7883 18.5736 26.683 18.7147 26.7941C19.4124 27.3464 19.4656 28.171 19.523 29.0617C19.5304 29.1766 19.5379 29.2926 19.5469 29.4092C19.9595 28.2578 19.4995 27.0339 18.507 26.3736C18.4451 26.332 18.4055 26.2634 18.4055 26.188V25.9279C18.4335 25.926 18.4588 25.9227 18.4819 25.9197C18.5275 25.9138 18.5648 25.9089 18.5988 25.9173C19.2212 26.072 19.6319 26.4654 19.8687 27.0542C20.1896 27.8518 20.3452 28.6793 20.3133 29.5397C20.313 29.5474 20.3127 29.5551 20.3125 29.5628L20.3125 29.563L20.3125 29.5632C20.3037 29.8214 20.5591 30.0914 20.6148 30.3286C20.6704 30.5659 20.5363 30.888 20.3133 31.0222ZM21.9601 19.4351C21.8635 19.4158 21.7919 19.3336 21.7823 19.2359C21.7388 18.7854 21.8132 18.7158 22.3361 18.4355C22.2975 18.4962 22.2618 18.5525 22.228 18.6057L22.227 18.6072C22.1537 18.7228 22.0895 18.824 22.0249 18.9256C21.9649 19.0194 21.9843 19.1422 22.0683 19.2147L22.2868 19.4013C22.2819 19.4172 22.2773 19.4332 22.2727 19.4491C22.2682 19.4651 22.2636 19.481 22.2587 19.497L21.9601 19.4351ZM19.8271 30.1681C19.7933 30.1362 19.7517 30.115 19.7063 30.1082C19.6175 30.0953 19.5264 30.0819 19.4341 30.0683L19.4198 30.0662L19.4179 30.066C19.2673 30.0438 19.1133 30.0212 18.9593 29.999C18.9593 29.9613 18.9602 29.9245 18.9611 29.8868V29.8867L18.9612 29.8839C19.859 29.8017 20.061 29.8965 20.2408 30.5636C20.1652 30.4911 20.0985 30.4275 20.036 30.3679L20.0353 30.3672C19.9629 30.2982 19.896 30.2344 19.8271 30.1681ZM21.7784 16.8645C21.3164 16.9331 20.8777 16.8374 20.4437 16.703C20.0098 16.5686 20.0413 16.4665 20.0413 16.4665C20.0413 16.4665 20.2565 16.2828 20.4437 16.1773C20.6309 16.0718 20.8229 16.0169 21.0215 15.9462C21.3993 15.8116 21.7917 15.6718 22.2123 15.5216C21.7125 15.276 21.3308 15.4567 20.956 15.634C20.72 15.7458 20.4866 15.8562 20.2282 15.8581C21.0023 15.1407 21.7301 14.988 22.4839 15.3979C22.626 15.4752 22.6511 15.6802 22.5187 15.772C22.3382 15.8973 22.2574 16.1023 22.175 16.3115C22.1059 16.4866 22.0358 16.6647 21.905 16.8016C21.8722 16.8364 21.8258 16.8577 21.7784 16.8645Z" fill="#353637"/>
<path d="M6.04888 12.5833C5.98215 12.4636 5.95507 12.4105 5.92219 12.3602C5.89221 12.3149 5.85643 12.2743 5.74909 12.1363C5.60596 12.6731 5.58812 12.7013 5.47013 13.1493C4.99642 13.5671 4.6107 13.9081 4.23633 14.237C4.64315 12.1582 5.39926 9.38391 7.5807 6.83608C9.76214 4.28825 13.2286 3.43649 16.3741 3.67104C18.4792 3.82801 20.4058 4.56069 21.5128 5.34912C21.0255 5.45457 20.5217 5.56195 19.9039 5.69449C19.9039 5.69449 18.4371 4.69733 16.3741 4.58361C12.9656 4.39573 10.681 5.31368 8.63549 7.37468C6.94318 9.07976 6.04888 12.5833 6.04888 12.5833Z" fill="#353637"/>
<path d="M16.9221 6.19169C18.0598 6.31065 18.8779 6.87449 19.7414 7.22846C20.2517 8.26073 19.4434 9.18683 18.0711 10.2059C15.3526 12.2246 12.6032 13.9978 9.91079 15.8212C8.37849 15.0816 7.65953 13.8308 7.84484 12.2198C7.88623 11.86 7.96034 11.6651 8.072 11.3206C8.43008 10.2157 9.24647 9.28319 9.93486 8.58282C10.7548 7.85811 11.1727 7.50464 12.0961 7.02604C12.542 6.79497 12.8007 6.67648 13.2766 6.51606C13.6667 6.38453 13.8917 6.3254 14.296 6.24765C15.3033 6.05391 15.7843 6.07273 16.9221 6.19169Z" fill="#353637"/>
<path d="M10.4597 16.6888C11.0767 16.2057 11.4791 15.9373 12.2541 15.4092L12.2452 15.457C11.9019 17.3041 11.5693 19.0939 10.9436 20.9008C10.4389 20.7044 9.9902 20.5293 9.51928 20.3465C10.1914 19.1582 10.7159 18.1178 10.4597 16.6888Z" fill="#353637"/>
<path d="M15.6474 16.5742C15.3401 16.1367 15.0956 15.7254 14.7873 15.3702C14.5737 15.1253 14.2964 14.9037 14.0026 14.7673C13.4972 14.5321 13.159 14.7072 13.0333 15.2531C12.8217 16.1754 12.6565 17.1094 12.4574 18.0356C12.2216 19.135 11.9742 20.2315 11.7229 21.3281C11.6708 21.5545 11.5819 21.7733 11.4958 22.0394C10.5198 21.8894 9.65394 21.5681 8.75135 20.9681C8.96202 20.7977 9.11374 20.6767 9.29542 20.5306C9.85881 20.7309 10.4261 20.9332 11.0513 21.1558C11.8263 19.1118 12.1221 17.0281 12.584 14.8515C11.9352 15.3199 11.8193 15.4092 11.4118 15.678C11.0523 15.9151 10.7063 16.1725 10.3217 16.4445C10.2086 16.279 10.1255 16.159 10.025 16.0109C10.2502 15.8551 10.4444 15.7215 10.6377 15.5889C13.1744 13.8372 15.7121 12.0874 18.2469 10.3327C18.474 10.1759 18.6818 9.99109 18.8944 9.81398C19.4819 9.32426 20.4127 8.23389 20.0103 7.42865C20.7186 7.4664 22.8549 8.62654 23.7125 9.30753C24.5701 9.98852 25.349 11.1327 25.349 11.1327C25.8766 11.4376 26.5403 11.8057 27.0747 12.1145C27.0738 12.1571 27.0728 12.1996 27.0718 12.2432C23.3291 12.6806 19.7438 13.6388 16.3741 15.466C16.0513 14.5785 15.5469 13.8846 14.7525 13.4491L14.6385 13.5556C14.8588 13.7462 15.0965 13.9214 15.2966 14.1324C15.4986 14.3463 15.6889 14.5805 15.8358 14.835C15.9914 15.1041 16.089 15.407 16.2262 15.7302C16.349 15.6867 16.4823 15.6567 16.5973 15.5957C19.5902 13.994 22.784 13.0339 26.1412 12.5926L26.1842 12.5869C26.5807 12.5345 26.979 12.4819 27.3772 12.4726C27.5666 12.4677 27.7579 12.5732 27.9483 12.6294L27.9367 12.7861C27.5386 12.8597 27.1385 12.9284 26.7413 13.0068C25.0192 13.3465 23.2856 13.6349 21.5799 14.0443C19.5544 14.5301 17.641 15.3228 15.8793 16.4551C15.8155 16.4958 15.744 16.5248 15.6474 16.5742Z" fill="#353637"/>
<path d="M12.0961 23.8822C12.0969 24.1549 12.167 24.3119 12.1766 24.5264C12.1863 24.7409 12.0877 25.1751 11.962 25.4927C11.856 25.7605 11.7175 25.9296 11.6084 26.2295C11.5333 26.436 11.4965 26.5891 11.3718 26.77C11.2111 27.0031 10.8889 27.2105 10.8889 27.2105C10.8889 27.2105 10.566 27.3553 10.2987 27.3447C10.0281 27.3341 9.99218 27.2105 9.79349 27.13C9.13423 26.8629 8.61298 27.1127 8.06961 26.542C8.19723 26.127 8.15566 25.7139 7.8337 25.3782L6.74502 25.175C6.73535 24.9951 6.72665 24.8423 6.71795 24.6807C7.03701 24.3054 7.35027 23.9358 7.72348 23.4966L8.18443 23.0138C7.9968 22.5177 8.04903 22.3329 8.43879 22.0679C8.68928 21.8977 8.98355 21.6668 9.25242 21.4821C9.92368 21.8398 10.3422 21.9567 11.1131 22.1685C11.3094 22.2004 11.4217 22.2321 11.6132 22.1685C11.7879 22.0225 13.1994 15.4868 13.1961 15.2281C13.1928 14.9694 13.5812 14.7099 14.0026 14.9597C14.6835 15.3633 14.8769 15.6566 15.6106 16.7962C17.2341 15.7874 18.3486 15.1796 19.6615 14.8178L19.7152 14.9173C19.7152 14.9173 19.0924 15.4025 18.9908 15.481C18.8271 15.6075 18.6394 15.77 18.4811 15.9373C18.2886 16.1406 18.099 16.2378 17.9446 16.4473C17.5811 16.9402 17.3819 17.389 16.4065 17.3333C16.1102 17.3333 15.8646 17.4747 15.5837 17.6819C15.3545 17.8511 15.288 18.288 15.0896 18.2188C14.8096 18.1211 14.3497 18.353 14.3228 18.5409C14.296 18.7287 13.8506 18.7979 13.7326 18.9817C13.6146 19.1654 13.7072 19.7428 13.643 20.2256C13.5595 20.8528 13.5429 21.2241 13.304 21.8099C13.1156 22.5402 13.0747 22.5217 12.7937 22.9696C12.5723 23.3225 12.0955 23.6333 12.0961 23.8822Z" fill="#353637"/>
<path d="M25.4257 19.885C25.17 19.7969 24.9293 19.6448 24.7245 19.4415C24.4143 19.1338 24.4129 19.1286 24.4146 18.2756C24.4154 17.8822 24.431 17.3875 24.4492 17.1762C24.4619 17.0294 24.4875 16.6971 24.5178 16.3042C24.5179 16.3034 24.518 16.3026 24.518 16.3018L24.518 16.3017L24.518 16.3016C24.5401 16.015 24.5647 15.6963 24.5885 15.3939C24.6319 14.8437 24.6728 14.3476 24.6919 14.1975L24.7222 13.9592H25.0044V18.4478H25.3459V13.9592H25.7401V18.4478H25.9139L26.0847 18.4512V13.9603H26.4859V18.4512H26.8336V13.9603H27.1208L27.1516 14.1988C27.1817 14.4314 27.2652 15.4954 27.3286 16.3041L27.3286 16.3042L27.3287 16.3047L27.3287 16.3049C27.3287 16.305 27.3287 16.3052 27.3287 16.3054C27.3307 16.3298 27.3326 16.354 27.3344 16.3779C27.3628 16.7395 27.3865 17.0409 27.3986 17.1788C27.409 17.297 27.4185 17.5037 27.4251 17.7318C27.4302 17.9119 27.4335 18.1053 27.4339 18.2789C27.4356 19.1324 27.4342 19.1376 27.1184 19.4455C26.9099 19.6489 26.665 19.8011 26.4047 19.8892L26.2452 19.9432L26.2453 20.0918C26.2454 20.1736 26.336 21.4679 26.336 21.4679L26.562 23.2145L26.5648 23.2149C26.5888 23.2184 26.6129 23.2221 26.637 23.2261L26.6391 23.2265C26.7177 23.2397 26.7966 23.2557 26.876 23.275C26.8709 23.375 26.8667 23.4602 26.8626 23.5441L26.8614 23.5675C26.8604 23.5891 26.8593 23.6107 26.8582 23.6326C26.8576 23.645 26.857 23.6575 26.8564 23.6702C26.856 23.6778 26.8556 23.6854 26.8553 23.6931C26.8543 23.7131 26.8533 23.7335 26.8522 23.7544C26.7772 23.7694 26.7027 23.7829 26.6285 23.795C26.6046 23.7989 26.5807 23.8026 26.5569 23.8062L26.5517 23.807C26.5418 23.8085 26.5319 23.8099 26.522 23.8113C26.0947 23.8724 25.6743 23.8802 25.2211 23.8034C25.2104 23.8016 25.1996 23.7997 25.1888 23.7978C25.1837 23.7969 25.1786 23.796 25.1735 23.795C25.0787 23.7778 24.9824 23.7569 24.8843 23.732C24.9037 23.6612 24.9204 23.5999 24.9355 23.5441C24.9384 23.5335 24.9412 23.5231 24.944 23.5129C24.9445 23.5108 24.9451 23.5088 24.9457 23.5067C24.9491 23.4942 24.9524 23.4819 24.9556 23.4699C24.9589 23.4578 24.9621 23.446 24.9652 23.4343L24.9743 23.401L24.9743 23.4009L24.9748 23.399L24.9749 23.3986C24.975 23.3984 24.975 23.3982 24.9751 23.398C24.9753 23.3971 24.9755 23.3963 24.9758 23.3954C24.9909 23.3394 25.0054 23.2856 25.0211 23.2281L25.0453 23.2261L25.0458 23.226C25.047 23.2259 25.0483 23.2258 25.0495 23.2257C25.0664 23.2243 25.0833 23.2228 25.1002 23.2214C25.1141 23.2203 25.128 23.2191 25.1419 23.2179C25.1893 23.214 25.2366 23.2101 25.2837 23.2064L25.2876 23.2061L25.5125 21.4679C25.5125 21.4679 25.5822 20.1692 25.5823 20.0875L25.5824 19.9389L25.4257 19.885Z" fill="#353637"/>
<path d="M26.5506 24.1186C26.543 24.228 26.5369 24.3199 26.5308 24.4114L26.5304 24.4176C26.5302 24.4205 26.53 24.4235 26.5298 24.4264C26.527 24.4695 26.5241 24.5128 26.5211 24.558L26.5206 24.5653H25.247C25.2464 24.5549 25.2459 24.5445 25.2453 24.5342C25.2449 24.5256 25.2444 24.5169 25.2439 24.5083C25.2421 24.4758 25.2404 24.4436 25.2386 24.4114C25.2345 24.3384 25.2303 24.2654 25.226 24.1888L25.2211 24.1032H26.5517L26.5506 24.1186Z" fill="#353637"/>
<path d="M28.3603 25.3404C28.4629 25.4587 28.4795 25.7024 28.4453 25.8706C28.2536 26.8281 28.0547 27.7856 27.8186 28.7339C27.6246 29.5068 27.1632 30.0458 26.5291 30.4198C26.4921 30.4416 26.4545 30.4628 26.4163 30.4835C26.2491 30.5743 26.071 30.6545 25.8836 30.7253C25.8441 30.7402 25.8006 30.7442 25.7524 30.7487L25.7523 30.7487L25.7523 30.7487C25.731 30.7507 25.7089 30.7528 25.6857 30.7559C25.617 30.7559 25.5592 30.7483 25.4921 30.7328C25.4333 30.7192 25.3676 30.6997 25.2812 30.6741L25.243 30.6628C25.2228 30.6514 25.2025 30.6406 25.1819 30.6302C25.1775 30.6279 25.173 30.6257 25.1685 30.6234C25.1644 30.6214 25.1603 30.6193 25.1562 30.6173C25.1389 30.6088 25.1216 30.6004 25.1043 30.5921L25.1042 30.592L25.0904 30.5854C24.9584 30.5216 24.8301 30.4566 24.7424 30.3196C24.7046 30.2605 24.6744 30.1881 24.6546 30.0966C24.648 30.0663 24.6426 30.034 24.6385 29.9993C24.7473 30.0103 24.8539 30.021 24.9588 30.0315C24.9817 30.0338 25.0045 30.0361 25.0273 30.0384C25.0338 30.039 25.0403 30.0397 25.0467 30.0403C25.0543 30.0411 25.0619 30.0418 25.0695 30.0426C25.0864 30.0443 25.1033 30.046 25.1201 30.0476C25.1781 30.0534 25.2357 30.0591 25.2931 30.0648C25.4322 30.0786 25.5698 30.092 25.7075 30.1054C25.5873 29.9989 25.4599 29.9306 25.3282 29.8857C25.2554 29.8609 25.1813 29.8432 25.1064 29.8302C25.0806 29.8257 25.0548 29.8218 25.0289 29.8183C24.9856 29.8125 24.9422 29.808 24.8986 29.8042C24.8286 29.7981 24.7583 29.794 24.6882 29.7899L24.6881 29.7899L24.688 29.7898L24.6602 29.7882C24.5372 29.781 24.4149 29.7729 24.2956 29.7534C24.2264 29.742 24.1583 29.7268 24.0915 29.7056C23.8554 29.394 23.8894 29.1357 24.0904 28.8951C24.1201 28.8595 24.1535 28.8243 24.1902 28.7894C24.2025 28.7777 24.2152 28.766 24.2283 28.7543C24.4629 28.7238 24.7015 28.719 24.9405 28.7151L24.9656 28.7147C24.9889 28.7143 25.0123 28.7139 25.0357 28.7135C25.2119 28.7105 25.3882 28.7062 25.5631 28.6905C25.7458 28.6742 25.927 28.6455 26.1053 28.5932C25.9403 28.534 25.7719 28.5073 25.6011 28.4973C25.4184 28.4866 25.233 28.495 25.046 28.5036L25.046 28.5036C25.0381 28.504 25.0303 28.5043 25.0224 28.5047C24.9897 28.5062 24.9568 28.5076 24.9239 28.509C24.6811 28.5189 24.4361 28.522 24.1915 28.4769C24.1633 28.4716 24.1351 28.4658 24.1069 28.4592C23.9458 28.4218 23.7851 28.3613 23.6254 28.2659C23.6627 28.1358 23.6982 28.0117 23.7324 27.8918L23.7325 27.8915L23.7326 27.8913L23.7326 27.891L23.7335 27.8882L23.7337 27.8872C23.7339 27.8866 23.734 27.8861 23.7342 27.8855C23.7552 27.8118 23.7758 27.7397 23.7961 27.6688C23.8017 27.6492 23.8073 27.6297 23.8129 27.6102C23.9779 27.5996 24.1358 27.5892 24.2887 27.5791L24.2891 27.5791C24.4066 27.5713 24.5211 27.5638 24.6335 27.5565L24.6336 27.5565C24.7053 27.5518 24.7762 27.5473 24.8465 27.5428C24.8848 27.5404 24.923 27.538 24.9611 27.5356C25.0918 27.5274 25.2209 27.5197 25.3501 27.5123C25.4997 27.5041 25.6495 27.4964 25.7993 27.4891C25.983 27.48 26.1669 27.4714 26.3508 27.4628L26.4729 27.457C26.5556 27.4531 26.6383 27.4492 26.721 27.4453L26.7475 27.444C26.7472 27.4288 26.7469 27.4137 26.7467 27.3986C26.7462 27.3682 26.7458 27.338 26.7444 27.3074L26.7408 27.3068C26.7143 27.3023 26.6877 27.2966 26.6611 27.291L26.6609 27.291L26.6609 27.2909C26.5961 27.2772 26.5309 27.2634 26.4657 27.2656C26.2565 27.2732 26.0472 27.2828 25.8379 27.2927C25.8004 27.2945 25.763 27.2962 25.7256 27.298L25.7152 27.2985L25.7132 27.2986L25.7131 27.2986L25.713 27.2986L25.713 27.2986L25.7127 27.2986L25.7123 27.2987C25.5879 27.3046 25.4635 27.3105 25.3391 27.3161L25.3388 27.3161C25.2086 27.3219 25.0784 27.3274 24.9482 27.3321C24.9088 27.3336 24.8693 27.3349 24.8299 27.3362C24.7627 27.3384 24.6954 27.3404 24.6281 27.342C24.5394 27.3442 24.4498 27.3514 24.36 27.3586C24.1697 27.3739 23.9789 27.3892 23.7962 27.3569C23.7408 27.3471 23.6862 27.3329 23.6325 27.313C23.5587 27.2857 23.4867 27.2475 23.4172 27.1952C23.3278 26.6687 23.4332 26.3872 23.7932 26.2862C23.8426 26.2723 23.8968 26.2619 23.9559 26.2547C24.01 26.248 24.0683 26.2441 24.1309 26.2428C24.3344 26.2384 24.538 26.2355 24.7415 26.2334C24.7872 26.233 24.8329 26.2326 24.8786 26.2322C25.1481 26.23 25.4176 26.2292 25.6871 26.2283C25.6873 26.2283 25.6874 26.2283 25.6876 26.2283H25.6881C25.6892 26.2283 25.6903 26.2283 25.6914 26.2283C25.81 26.228 25.9286 26.2276 26.0473 26.2271C26.2983 26.2261 26.5493 26.2246 26.8003 26.2214C26.8857 26.2207 26.9706 26.1969 27.0554 26.1731L27.0555 26.1731C27.0892 26.1637 27.1229 26.1542 27.1567 26.1462C27.1572 26.1461 27.1578 26.146 27.1583 26.1458C27.1585 26.1458 27.1587 26.1458 27.1588 26.1457C27.1598 26.1455 27.1608 26.1453 27.1617 26.145C27.162 26.145 27.1623 26.1449 27.1626 26.1448C27.1627 26.1448 27.1628 26.1448 27.1629 26.1448C27.163 26.1447 27.1632 26.1447 27.1634 26.1447C27.1635 26.1446 27.1636 26.1446 27.1637 26.1446C27.1644 26.1444 27.1652 26.1443 27.1659 26.1441L27.166 26.144L27.1661 26.144C27.1674 26.1437 27.1686 26.1435 27.1698 26.1432C27.1703 26.1431 27.1707 26.143 27.1712 26.1429L27.1712 26.1428C27.1705 26.1374 27.1699 26.1319 27.1692 26.1264C27.1647 26.0881 27.1603 26.0497 27.1567 26.0114H24.8646H23.9559C23.9354 25.9911 23.9163 25.9711 23.8984 25.9514C23.57 25.5874 23.6755 25.2972 23.988 24.9519C24.2007 24.9185 24.4154 24.8888 24.6318 24.8652C24.6848 24.8594 24.7378 24.854 24.791 24.849C24.8438 24.844 24.8968 24.8394 24.9498 24.8352C25.0486 24.8275 25.1477 24.8212 25.247 24.8167C25.6015 24.8006 25.9594 24.8064 26.319 24.8443C26.3862 24.8514 26.4533 24.8596 26.5206 24.869C26.5257 24.8697 26.5309 24.8705 26.5361 24.8712C26.5413 24.8719 26.5465 24.8727 26.5518 24.8735C26.6077 24.8816 26.6636 24.8905 26.7196 24.9003C26.8622 24.9253 27.0051 24.9559 27.148 24.9928C27.236 25.0154 27.324 25.0405 27.412 25.068C27.4137 25.0686 27.4154 25.0691 27.417 25.0696C27.4195 25.0704 27.422 25.0712 27.4245 25.072C27.4247 25.072 27.4249 25.0721 27.4251 25.0722L27.4253 25.0722C27.4258 25.0724 27.4263 25.0725 27.4268 25.0727C27.427 25.0728 27.4273 25.0729 27.4275 25.0729C27.4283 25.0732 27.4291 25.0734 27.4298 25.0737C27.4322 25.0744 27.4345 25.0751 27.4368 25.0759C27.4405 25.077 27.4441 25.0782 27.4477 25.0794C27.4571 25.0355 27.4664 24.9917 27.4757 24.9488C27.2714 24.8419 27.0681 24.7349 26.8296 24.6092L26.8086 24.5981L26.8096 24.5843C26.8164 24.4928 26.8234 24.4018 26.8305 24.3099L26.8353 24.2483L26.8353 24.2477L26.8353 24.2474L26.8394 24.1954C26.8401 24.1863 26.8408 24.1771 26.8415 24.1679C26.8417 24.1658 26.8418 24.1636 26.842 24.1614C26.8421 24.1598 26.8423 24.1583 26.8424 24.1567C26.8432 24.1456 26.8441 24.1345 26.8449 24.1234C26.8455 24.1161 26.8461 24.1089 26.8466 24.1016C26.8475 24.0908 26.8483 24.08 26.8491 24.0691L26.8512 24.0423C26.8522 24.0291 26.8532 24.0159 26.8542 24.0026C26.8598 24.0031 26.8653 24.0036 26.8707 24.004C26.8794 24.0047 26.8878 24.0053 26.8961 24.0057C26.8986 24.0058 26.901 24.006 26.9034 24.0061C26.93 24.0073 26.9543 24.0076 26.9762 24.0078H26.9763C27.0247 24.0082 27.0613 24.0086 27.0847 24.0197C27.0852 24.02 27.0858 24.0202 27.0863 24.0205C27.0866 24.0206 27.0869 24.0208 27.0871 24.0209C27.0873 24.021 27.0874 24.0211 27.0876 24.0212C27.0879 24.0213 27.0882 24.0215 27.0885 24.0217C27.0927 24.024 27.0964 24.0268 27.0997 24.0301C27.1197 24.0502 27.1397 24.0702 27.1597 24.0902C27.214 24.1446 27.2685 24.1989 27.323 24.2532L27.3237 24.2539C27.6787 24.6078 28.0344 24.9623 28.3603 25.3404Z" fill="#353637"/>
<path fill-rule="evenodd" clip-rule="evenodd" d="M27.1723 23.5846L27.1722 23.5871C27.1719 23.5918 27.1717 23.5966 27.1715 23.6013C27.1717 23.5957 27.172 23.5901 27.1723 23.5846ZM27.3287 16.3049C27.3287 16.305 27.3287 16.3052 27.3287 16.3054L27.3287 16.3049Z" fill="#353637"/>
<path d="M6.49452 25.1101H5.28605L5.28604 25.1099H5.28494L5.28365 25.0905C5.28103 25.0511 5.27854 25.0132 5.27605 24.9753L5.27555 24.9678C5.26993 24.8822 5.26431 24.7967 5.25734 24.6957L5.25544 24.6683H6.51799L6.51798 24.6685H6.5191L6.5145 24.7501C6.50747 24.8743 6.501 24.9889 6.49452 25.1101Z" fill="#353637"/>
<path d="M7.13038 20.0332C7.17444 19.7417 7.14659 19.2786 7.14659 19.2786C7.14659 19.2786 7.1359 18.6419 7.09698 18.3056C6.98139 17.3062 6.88316 16.5655 6.57259 15.4919C6.40509 14.9128 6.35791 14.7858 6.06657 14.0336C5.9931 13.8439 5.94538 13.7504 5.90672 13.744C5.86371 13.7352 5.83201 13.8335 5.78894 14.0268C5.78416 14.0483 5.77923 14.071 5.77412 14.0948C5.77297 14.1002 5.77146 14.1083 5.7696 14.119C5.72475 14.3777 5.48278 16.1739 5.48278 18.5617C5.48278 21.2846 5.44296 22.023 5.40469 22.7326C5.39435 22.9243 5.38412 23.1139 5.37483 23.34L5.35 23.8055L5.34478 23.8061C5.24386 23.8178 5.14244 23.834 5.04021 23.8557C5.00944 23.8623 4.9786 23.8693 4.94767 23.8769C4.95297 23.9808 4.95721 24.0679 4.96145 24.155L4.96146 24.1551L4.96148 24.1555L4.9615 24.1559C4.96323 24.1915 4.96497 24.2272 4.96677 24.2639L4.96908 24.3107L4.97029 24.335C5.00759 24.3425 5.04476 24.3496 5.08183 24.3564C5.08607 24.3571 5.09032 24.3579 5.09456 24.3587C5.66587 24.4616 6.21288 24.4738 6.83867 24.3138C6.80337 24.1841 6.77749 24.0876 6.75333 23.9975L6.75328 23.9973C6.73843 23.942 6.72422 23.889 6.70888 23.8323L6.7078 23.8322L6.70777 23.8321L6.68465 23.8301L6.68344 23.83C6.582 23.8214 6.48141 23.8128 6.38138 23.8053L6.37514 23.8049L6.3422 23.3625C6.3346 23.2046 6.32736 23.059 6.32068 22.9246C6.26969 21.8996 6.25108 21.5254 6.35354 21.28C6.3841 21.2068 6.46432 21.1391 6.55527 21.0623C6.63763 20.9928 6.72879 20.9158 6.79981 20.8206C6.80901 20.8083 6.81792 20.7964 6.82657 20.7849C6.92324 20.656 6.98694 20.571 7.04773 20.4105C7.09311 20.2908 7.10475 20.21 7.12101 20.0971L7.12104 20.0969C7.12394 20.0768 7.12697 20.0557 7.13038 20.0332Z" fill="#353637"/>
<path d="M4.37978 25.4766C4.57931 25.3714 4.77785 25.2662 5.01276 25.1414C5.00459 25.0298 4.99608 24.9192 4.98742 24.8067L4.9874 24.8064L4.98738 24.8062L4.98735 24.8058L4.98516 24.7773C4.97997 24.71 4.97475 24.6419 4.96952 24.5724L4.96843 24.5725C4.92474 24.5767 4.88634 24.577 4.85365 24.5773C4.79632 24.5779 4.75654 24.5783 4.73657 24.5987C4.66604 24.67 4.5952 24.7411 4.52434 24.8122L4.52402 24.8125L4.52396 24.8126C4.28431 25.0532 4.04433 25.2941 3.8144 25.5432L3.80741 25.5508C3.7166 25.6493 3.62738 25.7492 3.54039 25.8508C3.51055 25.8855 3.48838 25.9314 3.47292 25.9831L3.47281 25.9796C3.43687 26.097 3.43598 26.2448 3.45868 26.3573C3.59237 27.03 3.72977 27.7027 3.88222 28.3719C3.91816 28.5297 3.95493 28.6872 3.99268 28.8445C4.01262 28.9276 4.03283 29.0106 4.05333 29.0935C4.09134 29.2461 4.14017 29.3891 4.19905 29.5232C4.40934 30.002 4.7477 30.3667 5.17792 30.6434C5.20692 30.6621 5.23634 30.6803 5.26616 30.6982C5.31102 30.7251 5.35681 30.751 5.40347 30.7762C5.54233 30.851 5.689 30.9182 5.84249 30.9785C5.85805 30.9846 5.87368 30.9906 5.88938 30.9966C5.90507 31.0025 5.92142 31.0067 5.93848 31.0098C5.94752 31.0115 5.95675 31.0128 5.96618 31.0141C5.97794 31.0156 5.99001 31.0168 6.00242 31.018C6.00654 31.0184 6.0107 31.0188 6.0149 31.0192L6.01498 31.0192C6.03517 31.0211 6.05624 31.0231 6.07822 31.026C6.16944 31.026 6.24049 31.0117 6.34369 30.9826C6.44907 30.7692 6.56187 30.555 6.68017 30.3423L6.6257 30.3478C6.55325 30.3551 6.48145 30.3623 6.41003 30.3693C6.29201 30.3811 6.17505 30.3926 6.05797 30.404C6.2877 30.1992 6.5455 30.1425 6.80721 30.1181C7.00664 29.7725 7.21894 29.4331 7.43564 29.1099C7.30818 29.0942 7.17955 29.0863 7.05037 29.0818C6.96001 29.0785 6.86937 29.077 6.77866 29.0755L6.76049 29.0752L6.75979 29.0752C6.50365 29.071 6.247 29.0668 5.99459 29.0283C5.96919 29.0244 5.94386 29.0202 5.91854 29.0156L5.91521 29.015C5.83635 29.0005 5.75795 28.9822 5.68015 28.9592C5.76596 28.9283 5.85275 28.9066 5.94034 28.8917C5.9561 28.8891 5.97189 28.8866 5.98771 28.8844C6.21582 28.852 6.44927 28.8628 6.68527 28.8736C6.79259 28.8786 6.90044 28.8835 7.00858 28.8845C7.21762 28.8863 7.42773 28.8732 7.63709 28.8158C7.74333 28.664 7.85 28.5168 7.95611 28.3752L7.93152 28.2884L7.93118 28.2873C7.90527 28.1958 7.88009 28.107 7.85529 28.0199L7.85422 28.0198L7.85418 28.0197C7.69757 28.0095 7.54775 27.9996 7.40272 27.99L7.40233 27.9899L7.40223 27.9899L7.39521 27.9895C7.28625 27.9822 7.17998 27.9752 7.07555 27.9684C6.84288 27.9531 6.61932 27.9389 6.39557 27.9261C6.36588 27.9245 6.33619 27.9229 6.3065 27.9213C6.2652 27.9191 6.22391 27.9169 6.1826 27.9147C5.93732 27.902 5.69179 27.8904 5.44618 27.8788L5.44558 27.8788L5.44524 27.8787L5.33096 27.8733L5.33025 27.8733C5.25464 27.8697 5.17902 27.8661 5.10339 27.8625L5.09457 27.8621L5.07076 27.8609C5.07108 27.8464 5.0713 27.832 5.07152 27.8177C5.07195 27.7887 5.07239 27.7598 5.0737 27.7305C5.1 27.7261 5.12638 27.7205 5.15282 27.7148L5.15295 27.7148C5.21445 27.7017 5.27627 27.6885 5.3381 27.6905C5.57612 27.6993 5.81414 27.7107 6.05222 27.7221C6.39519 27.7386 6.7383 27.755 7.08175 27.7636C7.16591 27.7657 7.25098 27.7726 7.33612 27.7795L7.33616 27.7795C7.64679 27.8046 7.95845 27.8298 8.23076 27.6233C8.3223 27.0804 8.19856 26.8101 7.78842 26.735C7.76599 26.7308 7.7427 26.7273 7.71854 26.7243C7.66715 26.718 7.61182 26.7142 7.55244 26.713C7.05992 26.7022 6.56741 26.7007 6.0749 26.6992C5.91 26.6986 5.74509 26.6981 5.58019 26.6973L5.57557 26.6973C5.39022 26.6963 5.20487 26.6949 5.01952 26.6925C4.98769 26.6923 4.95593 26.6886 4.92423 26.6829C4.87559 26.674 4.82707 26.6603 4.77861 26.6466C4.74197 26.6363 4.70536 26.6259 4.66875 26.6177C4.67367 26.5758 4.67858 26.5339 4.68251 26.492H7.71965C8.0961 26.1168 8.00174 25.8274 7.68918 25.4796C7.68893 25.4795 7.68866 25.4795 7.6884 25.4794L7.68807 25.4794C7.39126 25.4324 7.09044 25.3931 6.78669 25.3688C6.68922 25.3609 6.59145 25.3547 6.49341 25.3502C6.0942 25.3319 5.69057 25.3431 5.28494 25.4002C5.24804 25.4053 5.21112 25.4109 5.17419 25.4169C5.16105 25.419 5.1479 25.4212 5.13476 25.4234C4.99021 25.4478 4.84545 25.4783 4.70058 25.5156C4.63586 25.5322 4.57111 25.5502 4.50636 25.5697C4.4838 25.5764 4.46125 25.5834 4.43869 25.5905C4.42786 25.5939 4.41704 25.5974 4.40621 25.6008C4.3974 25.5591 4.38859 25.5174 4.37978 25.4766Z" fill="#353637"/>
<path d="M7.59089 30.0224C7.85922 29.6657 7.75995 29.3821 7.46115 29.1132L7.46012 29.1131L7.46004 29.113C7.45191 29.1119 7.44378 29.1109 7.43564 29.1099C7.21894 29.4331 7.00664 29.7725 6.80721 30.1181C6.87965 30.1114 6.95239 30.1071 7.02493 30.1029C7.21832 30.0915 7.41021 30.0802 7.59089 30.0224Z" fill="#353637"/>
<path fill-rule="evenodd" clip-rule="evenodd" d="M24.791 24.849L24.8646 26.0114L27.1617 26.145L27.1588 26.1457L27.1583 26.1458L27.1567 26.1462C27.1229 26.1542 27.0892 26.1637 27.0555 26.1731L27.0554 26.1731C26.9706 26.1969 26.8857 26.2207 26.8003 26.2214C26.5493 26.2246 26.2983 26.2261 26.0473 26.2271C25.9286 26.2276 25.81 26.228 25.6914 26.2283L25.6881 26.2283H25.6876H25.6871C25.4176 26.2292 25.1481 26.23 24.8786 26.2322L24.9482 27.3321C25.0784 27.3274 25.2086 27.3219 25.3388 27.3161L25.3391 27.3161C25.4635 27.3105 25.5879 27.3046 25.7123 27.2987L25.7127 27.2986L25.713 27.2986L25.713 27.2986L25.7131 27.2986L25.7132 27.2986L25.7152 27.2985L25.7256 27.298C25.763 27.2962 25.8004 27.2945 25.8379 27.2927C26.0472 27.2828 26.2565 27.2732 26.4657 27.2656C26.5309 27.2634 26.5961 27.2772 26.6609 27.2909L26.6609 27.291L26.6611 27.291C26.6877 27.2966 26.7143 27.3023 26.7408 27.3068L26.7444 27.3074C26.7458 27.338 26.7462 27.3682 26.7467 27.3986C26.7469 27.4137 26.7472 27.4288 26.7475 27.444L26.721 27.4453C26.6383 27.4492 26.5556 27.4531 26.4729 27.457L26.3508 27.4628C26.1669 27.4714 25.983 27.48 25.7993 27.4891C25.6495 27.4964 25.4997 27.5041 25.3501 27.5123C25.2209 27.5197 25.0918 27.5274 24.9611 27.5356L25.0224 28.5047L25.046 28.5036L25.046 28.5036C25.233 28.495 25.4184 28.4866 25.6011 28.4973C25.7719 28.5073 25.9403 28.534 26.1053 28.5932C25.927 28.6455 25.7458 28.6742 25.5631 28.6905C25.3882 28.7062 25.2119 28.7105 25.0357 28.7135L25.1064 29.8302C25.1813 29.8432 25.2554 29.8609 25.3282 29.8857C25.4599 29.9306 25.5873 29.9989 25.7075 30.1054C25.5698 30.092 25.4322 30.0786 25.2931 30.0648C25.2357 30.0591 25.1781 30.0534 25.1201 30.0476L25.125 30.1245C25.1066 30.097 25.0881 30.0697 25.0695 30.0426L25.0467 30.0403L25.0273 30.0384L24.9588 30.0315C24.8539 30.021 24.7473 30.0103 24.6385 29.9993C24.6426 30.034 24.648 30.0663 24.6546 30.0966C24.6744 30.1881 24.7046 30.2605 24.7424 30.3196C24.8301 30.4566 24.9584 30.5216 25.0904 30.5854L25.1042 30.592L25.1043 30.5921C25.1216 30.6004 25.1389 30.6088 25.1562 30.6173C25.1603 30.6193 25.1644 30.6214 25.1685 30.6234C25.173 30.6257 25.1775 30.6279 25.1819 30.6302C25.2025 30.6406 25.2228 30.6514 25.243 30.6628L25.2812 30.6741C25.3676 30.6997 25.4333 30.7192 25.4921 30.7328C25.5592 30.7483 25.617 30.7559 25.6857 30.7559C25.7089 30.7528 25.731 30.7507 25.7523 30.7487L25.7523 30.7487L25.7524 30.7487C25.8006 30.7442 25.8441 30.7402 25.8836 30.7253C26.071 30.6545 26.2491 30.5743 26.4163 30.4835C26.4545 30.4628 26.4921 30.4416 26.5291 30.4198C27.1632 30.0458 27.6246 29.5068 27.8186 28.7339C28.0547 27.7856 28.2536 26.8281 28.4453 25.8706C28.4795 25.7024 28.4629 25.4587 28.3603 25.3404C28.0344 24.9623 27.6787 24.6078 27.3237 24.2539L27.323 24.2532C27.2685 24.1989 27.214 24.1446 27.1597 24.0902C27.1397 24.0702 27.1197 24.0502 27.0997 24.0301C27.0964 24.0268 27.0927 24.024 27.0885 24.0217L27.0876 24.0212L27.0871 24.0209L27.0863 24.0205C27.0858 24.0202 27.0852 24.02 27.0847 24.0197C27.0613 24.0086 27.0247 24.0082 26.9763 24.0078H26.9762C26.9543 24.0076 26.93 24.0073 26.9034 24.0061C26.901 24.006 26.8986 24.0058 26.8961 24.0057C26.8878 24.0053 26.8794 24.0047 26.8707 24.004C26.8653 24.0036 26.8598 24.0031 26.8542 24.0026L26.8512 24.0423L26.8491 24.0691L26.8466 24.1016L26.8449 24.1234L26.8424 24.1567L26.842 24.1614L26.8415 24.1679L26.8394 24.1954L26.8353 24.2474L26.8353 24.2477L26.8353 24.2483L26.8305 24.3099C26.8234 24.4018 26.8164 24.4928 26.8096 24.5843L26.8086 24.5981L26.8296 24.6092C27.0681 24.7349 27.2714 24.8419 27.4757 24.9488C27.4664 24.9917 27.4571 25.0355 27.4477 25.0794C27.4441 25.0782 27.4405 25.077 27.4368 25.0759L27.4275 25.0729L27.4268 25.0727L27.4253 25.0722L27.4251 25.0722L27.4245 25.072L27.417 25.0696L27.412 25.068C27.324 25.0405 27.236 25.0154 27.148 24.9928C27.0051 24.9559 26.8622 24.9253 26.7196 24.9003C26.6636 24.8905 26.6077 24.8816 26.5518 24.8735C26.5465 24.8727 26.5413 24.8719 26.5361 24.8712C26.5309 24.8705 26.5257 24.8697 26.5206 24.869C26.4533 24.8596 26.3862 24.8514 26.319 24.8443C25.9594 24.8064 25.6015 24.8006 25.247 24.8167C25.1477 24.8212 25.0486 24.8275 24.9498 24.8352C24.8968 24.8394 24.8438 24.844 24.791 24.849ZM24.8646 26.0114L27.1634 26.1447L27.1637 26.1446L27.1659 26.1441L27.166 26.144L27.1661 26.144L27.1698 26.1432L27.1712 26.1429L27.1712 26.1428L27.1692 26.1264C27.1647 26.0881 27.1603 26.0497 27.1567 26.0114H24.8646ZM24.0904 28.8951C24.381 29.1716 24.65 29.4716 24.8986 29.8042C24.8286 29.7981 24.7583 29.794 24.6882 29.7899L24.6881 29.7899L24.688 29.7898L24.6602 29.7882C24.5372 29.781 24.4149 29.7729 24.2956 29.7534C24.2264 29.742 24.1583 29.7268 24.0915 29.7056C23.8554 29.394 23.8894 29.1357 24.0904 28.8951ZM24.7245 19.4415C24.9293 19.6448 25.17 19.7969 25.4257 19.885L25.5824 19.9389L25.5823 20.0875C25.5822 20.1692 25.5125 21.4679 25.5125 21.4679L25.2876 23.2061L25.2837 23.2064C25.2366 23.2101 25.1893 23.214 25.1419 23.2179C25.128 23.2191 25.1141 23.2203 25.1002 23.2214L25.0495 23.2257L25.0458 23.226L26.8582 23.6326L26.8614 23.5675L26.8626 23.5441C26.8667 23.4602 26.8709 23.375 26.876 23.275C26.7966 23.2557 26.7177 23.2397 26.6391 23.2265L26.637 23.2261C26.6129 23.2221 26.5888 23.2184 26.5648 23.2149L26.562 23.2145L26.336 21.4679C26.336 21.4679 26.2454 20.1736 26.2453 20.0918L26.2452 19.9432L26.4047 19.8892C26.665 19.8011 26.9099 19.6489 27.1184 19.4455C27.4342 19.1376 27.4356 19.1324 27.4339 18.2789C27.4335 18.1053 27.4302 17.9119 27.4251 17.7318C27.4185 17.5037 27.409 17.297 27.3986 17.1788C27.3865 17.0409 27.3628 16.7395 27.3344 16.3779L27.3287 16.3054L27.3287 16.3049L27.3287 16.3047L27.3286 16.3042L27.3286 16.3041C27.2652 15.4954 27.1817 14.4314 27.1516 14.1988L27.1208 13.9603H26.8336V18.4512H26.4859V13.9603H26.0847V18.4512L25.9139 18.4478H25.7401V13.9592H25.3459V18.4478H25.0044V13.9592H24.7222L24.6919 14.1975C24.6728 14.3476 24.6319 14.8437 24.5885 15.3939C24.5647 15.6963 24.5401 16.015 24.518 16.3016L24.518 16.3017L24.518 16.3018L24.5178 16.3042C24.4875 16.6971 24.4619 17.0294 24.4492 17.1762C24.431 17.3875 24.4154 17.8822 24.4146 18.2756C24.4129 19.1286 24.4143 19.1338 24.7245 19.4415ZM26.5308 24.4114C26.5369 24.3199 26.543 24.228 26.5506 24.1186L26.5517 24.1032H25.2211L25.226 24.1888C25.2303 24.2654 25.2345 24.3384 25.2386 24.4114C25.2404 24.4436 25.2421 24.4758 25.2439 24.5083L25.2453 24.5342L25.247 24.5653H26.5206L26.5211 24.558C26.5241 24.5128 26.527 24.4695 26.5298 24.4264L26.5304 24.4176L26.5308 24.4114ZM7.95611 28.3752C7.85 28.5168 7.74333 28.664 7.63709 28.8158C7.76958 28.7795 7.90177 28.7255 8.0332 28.6464C8.00657 28.553 7.98097 28.4629 7.95611 28.3752ZM6.68017 30.3423C6.56187 30.555 6.44907 30.7692 6.34369 30.9826C6.37875 30.9728 6.41751 30.9612 6.46204 30.9479L6.46414 30.9473L6.47995 30.9425L6.49833 30.937C6.54153 30.9124 6.58594 30.8908 6.63006 30.8694L6.63057 30.8692L6.63096 30.869C6.64153 30.8639 6.65207 30.8587 6.66258 30.8536C6.72325 30.8238 6.78265 30.7929 6.83676 30.7532C6.95205 30.6685 7.04336 30.5435 7.07192 30.303L7.07078 30.3031L7.07082 30.3028C6.96345 30.3137 6.85843 30.3244 6.75502 30.3348L6.71263 30.3391L6.68017 30.3423Z" fill="#353637"/>
<path d="M20.406 31.2998C20.1494 31.4568 18.8112 30.7895 18.8112 30.7895C18.8112 30.7895 15.852 29.4151 14.3582 28.7211L14.1244 28.6126C13.6007 28.3693 13.2043 28.1766 12.8068 27.9833L12.8068 27.9833L12.8067 27.9833L12.8067 27.9832L12.8066 27.9832C12.4059 27.7884 12.0039 27.5929 11.4691 27.3446C10.4514 27.7268 10.1236 27.5475 9.80652 27.3742C9.58797 27.2547 9.37457 27.138 8.94387 27.21C8.81427 27.3399 8.6773 27.4883 8.53567 27.6522C8.53449 27.6595 8.53328 27.6669 8.53204 27.6742L8.5118 27.7943L8.41482 27.8678C8.37178 27.9005 8.32817 27.9288 8.28426 27.9533C8.25241 27.9927 8.2204 28.0327 8.18827 28.0734L8.18954 28.0778L8.20845 28.1445L8.20871 28.1454L8.20935 28.1477L8.22564 28.2051L8.22586 28.2059C8.25814 28.3198 8.29148 28.4374 8.32699 28.562L8.39147 28.7882L8.19008 28.9094C8.15395 28.9311 8.1178 28.9512 8.08166 28.9699L8.08131 28.97C8.07847 28.9715 8.07563 28.973 8.07279 28.9744L8.07045 28.9756C8.01443 29.004 7.95845 29.0288 7.90263 29.0505C7.88295 29.0581 7.8633 29.0653 7.84367 29.0722C7.8644 29.0983 7.88414 29.1252 7.90263 29.1531C7.96674 29.2497 8.01579 29.3572 8.03875 29.4768C8.07526 29.6669 8.03936 29.8508 7.95006 30.0246C7.92383 30.0756 7.893 30.1258 7.85804 30.175L7.85676 30.1768L7.85662 30.177C7.8495 30.187 7.84221 30.197 7.83475 30.2069L7.77606 30.2849L7.68314 30.3146C7.59101 30.3441 7.49906 30.3632 7.41034 30.3763C7.40532 30.377 7.40032 30.3778 7.39533 30.3785C7.39156 30.379 7.38779 30.3795 7.38403 30.38L7.38277 30.3802L7.37925 30.3807L7.37528 30.3812L7.36958 30.382C7.36755 30.3955 7.36535 30.4088 7.36297 30.4218C7.36007 30.4377 7.35693 30.4533 7.35353 30.4686C7.33436 30.5547 7.30717 30.6313 7.27281 30.6998C7.21539 30.8141 7.13793 30.9055 7.04443 30.9796C7.02291 30.9967 7.00113 31.0123 6.97951 31.0268C6.92388 31.0639 6.86926 31.0927 6.82251 31.1161L6.81755 31.1186C6.79347 31.1306 6.7726 31.1407 6.75369 31.1499L6.75346 31.15L6.75336 31.1501C6.714 31.1692 6.68306 31.1842 6.64908 31.2036L6.61847 31.221L6.58469 31.2311C6.56926 31.2357 6.55417 31.2402 6.53937 31.2447L6.53814 31.245L6.53808 31.2451L6.53589 31.2457L6.53477 31.2461C6.51216 31.2528 6.4902 31.2594 6.46871 31.2657C6.36903 31.295 6.27932 31.3182 6.17957 31.3279C5.92975 31.8204 10.3006 29.695 14.845 32.4427C19.3893 35.1905 26.1255 33.0875 25.6633 31.0639C25.4979 31.0607 25.368 31.0219 25.2028 30.9726L25.1782 30.9653L25.1694 30.9627L25.1539 30.9581L25.1195 30.9479L25.0884 30.9303C25.0522 30.9098 25.0191 30.8939 24.9774 30.8738L24.9774 30.8737C24.9696 30.87 24.9616 30.8662 24.9532 30.8621C24.9399 30.8557 24.9257 30.8487 24.9103 30.8411C24.8411 30.8069 24.7553 30.7616 24.6732 30.697C24.4973 30.5585 24.3759 30.3617 24.3339 30.0703C24.2251 30.0567 24.1108 30.0354 23.9964 29.9991L23.902 29.9691L23.8425 29.8906C23.6652 29.6565 23.5788 29.4026 23.63 29.1376C23.662 28.9725 23.7427 28.8294 23.8451 28.7052C23.7189 28.6626 23.5916 28.6056 23.4646 28.5297L23.2609 28.4081L23.3089 28.241C22.253 27.4582 20.9601 26.8401 19.3833 26.0861L19.3141 26.053C19.7028 26.2389 19.8337 26.4393 20.0142 26.7155L20.0142 26.7156L20.0143 26.7157C20.0548 26.7778 20.0979 26.8437 20.1469 26.9141C20.4962 27.7482 20.6574 28.2056 20.6574 29.4433L20.6565 29.4695L20.6565 29.4697L20.6565 29.47C20.6506 29.642 20.661 29.7834 20.7553 29.9545C20.8218 30.0752 20.882 30.2259 20.8896 30.4119C20.9058 30.8066 20.6626 31.1429 20.406 31.2998Z" fill="#353637"/>
<path fill-rule="evenodd" clip-rule="evenodd" d="M28.0481 30.8427C30.5588 28.1414 32.1425 24.6486 31.8651 20.4129C31.8651 15.7761 30.3061 11.5693 26.5427 8.53155C23.6541 6.19989 19.5627 5.13003 15.5384 5.24181C13.2193 5.24181 10.7499 5.85037 8.71936 6.65778C5.93297 7.76575 3.80924 9.31675 2.23571 11.6137C0.536935 14.0934 -5.84626e-05 16.845 4.77379e-09 20.1095C7.47503e-05 24.2829 1.22447 27.9251 3.91255 30.5057C6.8616 33.5491 11.5296 36.0039 16.3281 36.0039C21.0741 36.0039 25.2051 33.9017 28.0481 30.8427ZM5.79112 10.0367C3.0788 12.543 2.13532 16.2603 2.13532 19.6601C2.13532 21.9173 2.47177 23.8855 3.91255 25.997C6.07377 29.1643 11.4395 31.649 15.522 31.649C18.8302 31.649 22.5816 30.6905 25.1992 28.4771C28.1495 25.9822 29.7689 22.0239 29.7689 18.5311C29.7689 15.0202 28.3293 12.0484 25.468 9.8217C22.3498 7.29489 19.2409 6.4347 15.9521 6.4347C14.1032 6.4347 11.75 6.85136 9.82326 7.5637C8.1991 8.16416 6.95577 8.96058 5.79112 10.0367Z" fill="#353637"/>
<path d="M3.57165 2.53898C3.35396 2.11115 2.42566 1.45772 2.42566 1.45772C2.42566 1.45772 4.05273 0.189919 6.37228 1.03256C7.913 1.59227 8.61223 4.66977 8.61223 4.66977C8.61223 4.66977 7.80631 3.83913 7.28144 3.9592C6.75656 4.07927 6.70174 4.02499 6.33161 3.99735C5.87901 3.96356 5.61955 3.91303 5.19654 3.7495C4.45782 3.46392 3.57165 2.53898 3.57165 2.53898Z" fill="#353637"/>
<path d="M4.28548 2.47729C2.35838 2.41231 1.46355 4.6394 1.46355 4.6394C1.46355 4.6394 2.03151 4.71172 2.44717 4.89021C3.44118 5.31706 3.63215 5.34821 4.68794 5.15083C5.45942 5.00661 7.25198 4.43519 7.89635 4.41689C8.19321 4.40845 8.61154 4.66979 8.61154 4.66979C8.61154 4.66979 6.78469 2.56155 4.28548 2.47729Z" fill="#353637"/>
<path d="M6.41933 13.4556C6.2019 13.1046 6.18354 12.7961 6.27148 12.4857C6.93053 10.1735 8.00317 8.1108 9.9948 6.66315C12.6339 4.74455 15.5281 4.29197 18.6339 5.31703C19.0572 5.45628 19.4833 5.62551 19.8302 5.99976C19.7539 6.09646 19.6872 6.18059 19.5945 6.29567C17.7033 5.15167 15.6827 5.00952 13.5925 5.49013C12.8909 5.65163 12.1536 5.76864 11.6144 6.38077C11.6395 6.56837 11.6637 6.75695 11.6849 6.91747C11.0916 7.36231 10.5118 7.79844 9.92909 8.23554C9.43722 7.91932 9.24202 7.93286 8.82166 8.36126C8.09014 9.10588 7.58764 9.99748 7.23976 10.9732C6.95662 11.7681 6.70827 12.5766 6.41933 13.4556Z" fill="#353637"/>
<path d="M21.442 16.038C21.4418 16.0411 21.4415 16.0442 21.4413 16.0473C21.4413 16.0475 21.4413 16.0476 21.4413 16.0478C21.4252 16.2667 21.4118 16.4486 21.3946 16.6973C21.3175 16.6812 21.2434 16.6657 21.1696 16.6503C20.9443 16.6033 20.7224 16.5569 20.4277 16.4958C20.419 16.494 20.4103 16.4922 20.4014 16.4904C20.4037 16.4889 20.4059 16.4873 20.4081 16.4858C20.4145 16.4814 20.421 16.477 20.4274 16.4726C20.8026 16.2174 21.0831 16.1032 21.442 16.038Z" fill="#353637"/>
<path fill-rule="evenodd" clip-rule="evenodd" d="M20.3005 31.032C20.0776 31.1662 18.5901 30.464 18.5901 30.464C18.5901 30.464 15.9875 29.2541 14.6736 28.6433L14.6535 28.6339C13.6673 28.1754 12.6755 27.7143 11.6759 27.2496C11.5619 27.1964 11.5136 27.0601 11.5696 26.9479L11.6015 26.8822C11.6556 26.7739 11.786 26.7284 11.8951 26.7787C12.9756 27.278 14.0485 27.7735 15.1229 28.2696L15.1629 28.2881L15.1681 28.2905C16.2616 28.7955 17.3566 29.3012 18.4626 29.8122C18.4584 29.5798 18.3091 29.5153 18.182 29.4604C18.1632 29.4522 18.1448 29.4443 18.1275 29.436C17.3767 29.0738 16.6218 28.7227 15.8666 28.3715L15.8661 28.3712L15.7187 28.3027C14.9311 27.9359 14.1435 27.5702 13.3569 27.2049L13.3369 27.1957C12.8569 26.9728 12.3772 26.75 11.898 26.5273C11.7889 26.477 11.7386 26.3484 11.786 26.2381C11.8264 26.1448 11.8679 26.0525 11.909 25.9608C12.2016 25.3094 12.4795 24.6908 12.2534 23.9889C12.2273 23.9086 12.2428 23.8197 12.3007 23.7587C12.3376 23.7205 12.3743 23.683 12.4105 23.646C12.5609 23.4922 12.7035 23.3465 12.8242 23.1843C12.8548 23.1434 12.8864 23.1023 12.9183 23.0609C13.0943 22.8319 13.2776 22.5935 13.3438 22.3314C13.3886 22.1529 13.4362 21.9748 13.4839 21.7965L13.484 21.7963L13.484 21.7963C13.6895 21.0281 13.8956 20.2577 13.8721 19.4478C13.8713 19.4171 13.8696 19.3862 13.868 19.3553L13.868 19.3552C13.8619 19.2409 13.8557 19.1263 13.8914 19.0213C13.9407 18.8773 14.1252 18.8357 14.242 18.9333L14.6061 19.2376L14.6667 19.2883L15.0514 19.6098L15.3759 19.881C15.4106 19.91 15.4357 19.9477 15.4483 19.9913C15.5922 20.5076 15.8568 21.1314 16.5339 21.4834C16.4458 21.3367 16.3435 21.1978 16.2407 21.0584C16.0088 20.7437 15.775 20.4264 15.6994 20.0116C15.682 19.9158 15.7236 19.8172 15.8095 19.7698C15.8179 19.7652 15.8263 19.7605 15.8348 19.7558C16.0919 19.6139 16.3735 19.4584 16.4614 18.9885C16.2403 19.1799 16.0886 19.3105 15.9447 19.4343C15.9129 19.4623 15.8733 19.4807 15.8317 19.4874C15.2745 19.5725 14.92 19.4004 14.5318 18.8173C14.4506 18.6964 14.5057 18.5291 14.6438 18.4818L14.8794 18.3986C14.9461 18.3754 15.0214 18.386 15.0803 18.4257C15.2513 18.5436 15.4116 18.6529 15.5729 18.7622L15.655 18.6964L15.4415 18.3938C15.3846 18.3125 15.3855 18.2013 15.4502 18.1259C15.7931 17.7227 16.2258 17.4886 16.7879 17.4703C17.3123 17.4529 17.7102 17.2585 17.9797 16.7489C18.1308 16.4635 18.3867 16.2285 18.6357 15.9998C18.6795 15.9596 18.7231 15.9196 18.7659 15.8795C19.0248 15.6371 19.2975 15.4093 19.5699 15.1816L19.5702 15.1815C19.6878 15.0831 19.8054 14.9849 19.9219 14.8854C19.9108 14.8647 19.8995 14.8441 19.8881 14.8236C19.8799 14.8087 19.8718 14.7939 19.8637 14.779C19.8605 14.7732 19.8574 14.7675 19.8543 14.7617L19.8592 14.7603C20.7915 14.4948 21.7238 14.2293 22.6639 13.9619C22.7952 13.9242 22.9304 14.0142 22.9478 14.1495C22.9746 14.3676 22.9996 14.5823 23.0244 14.7943L23.0245 14.7953L23.0245 14.7954C23.1007 15.4479 23.1739 16.0748 23.2839 16.6957C23.3545 17.0947 23.4908 17.4782 23.6254 17.8569C23.7778 18.2859 23.928 18.7088 23.9783 19.1413C23.9841 19.2002 23.9687 19.2612 23.93 19.3057C23.7022 19.571 23.4566 19.5173 23.2263 19.467L23.2262 19.467C23.1988 19.461 23.1717 19.4551 23.1448 19.4497C23.0666 19.4343 22.9855 19.4613 22.9324 19.5203C22.7672 19.7021 22.7817 19.9129 22.8628 20.1353C22.9468 20.3703 22.9111 20.5618 22.6436 20.7194C22.4864 20.7051 22.324 20.6904 22.1583 20.6753L22.1436 20.674L22.1395 20.6736L22.1343 20.6731C21.8602 20.6483 21.5773 20.6226 21.2943 20.5966C21.5054 20.8306 21.7645 20.8512 22.021 20.8715C22.0814 20.8763 22.1417 20.8811 22.2012 20.8886C22.3857 20.9128 22.5518 20.9476 22.6416 21.083C22.7228 21.2049 22.6465 21.3731 22.5045 21.4099L22.3867 21.4408C22.2775 21.4689 22.207 21.5752 22.2215 21.6874C22.2297 21.7501 22.2396 21.8128 22.2495 21.8756C22.3076 22.243 22.3662 22.6138 22.0824 23.0045C22.0457 23.0547 21.9878 23.0847 21.926 23.0905C21.779 23.1035 21.623 23.1174 21.4614 23.1318L21.4603 23.1319C21.1995 23.1552 20.924 23.1798 20.6482 23.2037C20.5183 23.2144 20.3872 23.2197 20.2561 23.225C19.9728 23.2364 19.6894 23.2478 19.4187 23.3139C18.7678 23.4706 18.3786 23.9115 18.2685 24.5913C18.0975 25.6454 18.1207 26.6984 18.2318 27.7564C18.3672 27.5751 18.3594 27.374 18.3513 27.1632C18.349 27.1019 18.3466 27.0397 18.3477 26.9769C18.3515 26.7971 18.5621 26.6917 18.7031 26.8029C19.4003 27.3553 19.4534 28.1801 19.5108 29.071C19.5182 29.1859 19.5257 29.302 19.5346 29.4186C19.947 28.2669 19.4873 27.0427 18.4954 26.3822C18.4336 26.3406 18.394 26.272 18.394 26.1966V25.9364C18.422 25.9345 18.4473 25.9312 18.4704 25.9282C18.5159 25.9223 18.5532 25.9175 18.5872 25.9258C19.2092 26.0805 19.6196 26.4741 19.8563 27.063C20.1769 27.8608 20.3324 28.6885 20.3005 29.5492C20.3003 29.5569 20.3 29.5646 20.2997 29.5723L20.2997 29.5724L20.2997 29.5727C20.291 29.8309 20.5462 30.101 20.6019 30.3383C20.6575 30.5756 20.5234 30.8977 20.3005 31.032ZM21.9463 19.442C21.8497 19.4227 21.7782 19.3405 21.7686 19.2428C21.7251 18.7922 21.7995 18.7225 22.322 18.4421C22.2834 18.5029 22.2478 18.5591 22.214 18.6123L22.213 18.6139C22.1398 18.7295 22.0756 18.8307 22.011 18.9324C21.9511 19.0262 21.9704 19.149 22.0544 19.2215L22.2727 19.4082C22.2679 19.4241 22.2633 19.4401 22.2587 19.456C22.2541 19.472 22.2495 19.4879 22.2447 19.5039L21.9463 19.442ZM19.8147 30.1777C19.7809 30.1458 19.7394 30.1246 19.694 30.1178C19.6052 30.1048 19.5142 30.0915 19.4219 30.0779L19.4077 30.0758L19.4058 30.0755C19.2553 30.0534 19.1014 30.0308 18.9474 30.0085C18.9474 29.9708 18.9483 29.934 18.9493 29.8964V29.8962L18.9494 29.8934C19.8466 29.8112 20.0484 29.906 20.2281 30.5733C20.1526 30.5008 20.0859 30.4372 20.0234 30.3775L20.0227 30.3769C19.9504 30.3079 19.8835 30.244 19.8147 30.1777ZM21.7647 16.8707C21.303 16.9394 20.8646 16.8436 20.4309 16.7092C19.9973 16.5748 20.0287 16.4726 20.0287 16.4726C20.0287 16.4726 20.2438 16.2889 20.4309 16.1834C20.618 16.0779 20.8099 16.023 21.0083 15.9522C21.3858 15.8176 21.778 15.6778 22.1983 15.5275C21.6988 15.2819 21.3174 15.4626 20.9428 15.64C20.707 15.7517 20.4738 15.8622 20.2155 15.8641C20.9891 15.1465 21.7164 14.9937 22.4697 15.4038C22.6117 15.4811 22.6368 15.6861 22.5045 15.778C22.3241 15.9033 22.2434 16.1083 22.161 16.3176C22.092 16.4927 22.0219 16.6709 21.8912 16.8079C21.8584 16.8427 21.812 16.8639 21.7647 16.8707Z" fill="#353637"/>
<path d="M6.04571 12.5885C5.97903 12.4687 5.95197 12.4156 5.91911 12.3654C5.88915 12.32 5.85339 12.2794 5.74612 12.1413C5.60309 12.6783 5.58526 12.7066 5.46735 13.1546C4.99395 13.5725 4.60849 13.9136 4.23438 14.2426C4.64092 12.1633 5.39652 9.38828 7.5765 6.83981C9.75648 4.29134 13.2206 3.43937 16.364 3.67397C18.4677 3.83098 20.393 4.56386 21.4992 5.35248C21.0123 5.45796 20.5089 5.56537 19.8915 5.69793C19.8915 5.69793 18.4256 4.70053 16.364 4.58678C12.9578 4.39885 10.6748 5.31703 8.63058 7.37855C6.93941 9.08406 6.04571 12.5885 6.04571 12.5885Z" fill="#353637"/>
<path d="M16.9116 6.19526C18.0486 6.31425 18.8661 6.87823 19.729 7.23229C20.239 8.26482 19.4313 9.19116 18.0599 10.2105C15.3432 12.2297 12.5956 14.0033 9.90503 15.8272C8.37376 15.0874 7.65528 13.8363 7.84047 12.2249C7.88183 11.865 7.95589 11.6701 8.06748 11.3255C8.42531 10.2203 9.24115 9.28754 9.92909 8.58699C10.7484 7.8621 11.1661 7.50854 12.0889 7.02982C12.5345 6.79869 12.793 6.68018 13.2685 6.51971C13.6584 6.38815 13.8833 6.32901 14.2873 6.25123C15.294 6.05744 15.7746 6.07628 16.9116 6.19526Z" fill="#353637"/>
<path d="M10.4535 16.695C11.0702 16.2118 11.4723 15.9433 12.2468 15.4151L12.2379 15.4629C11.8948 17.3105 11.5625 19.1007 10.9372 20.908C10.4328 20.7116 9.98439 20.5365 9.51378 20.3536C10.1854 19.165 10.7096 18.1243 10.4535 16.695Z" fill="#353637"/>
<path d="M15.6378 16.5803C15.3307 16.1428 15.0863 15.7314 14.7783 15.3761C14.5648 15.1312 14.2877 14.9095 13.9941 14.773C13.489 14.5377 13.151 14.713 13.0255 15.2589C12.814 16.1815 12.6489 17.1157 12.4499 18.0421C12.2143 19.1418 11.9671 20.2386 11.716 21.3355C11.6638 21.562 11.575 21.7808 11.489 22.047C10.5136 21.8969 9.64835 21.5755 8.74637 20.9753C8.95689 20.805 9.10851 20.684 9.29007 20.5378C9.85309 20.7382 10.42 20.9405 11.0448 21.1631C11.8193 19.1186 12.1148 17.0344 12.5764 14.8572C11.9281 15.3258 11.8122 15.4151 11.405 15.6839C11.0458 15.9211 10.7 16.1786 10.3157 16.4506C10.2027 16.2851 10.1196 16.165 10.0192 16.0169C10.2442 15.8611 10.4383 15.7275 10.6315 15.5949C13.1665 13.8427 15.7025 12.0924 18.2356 10.3373C18.4625 10.1805 18.6701 9.99561 18.8826 9.81846C19.4698 9.32862 20.3999 8.23797 19.9978 7.43254C20.7056 7.47029 22.8404 8.63073 23.6975 9.31188C24.5545 9.99304 25.3329 11.1375 25.3329 11.1375C25.8602 11.4425 26.5234 11.8107 27.0574 12.1195C27.0565 12.1621 27.0555 12.2047 27.0545 12.2483C23.3143 12.6858 19.7315 13.6442 16.364 15.4719C16.0414 14.5842 15.5373 13.8901 14.7435 13.4545L14.6296 13.561C14.8497 13.7517 15.0873 13.9269 15.2872 14.1379C15.489 14.3519 15.6793 14.5861 15.8261 14.8407C15.9816 15.1099 16.0791 15.4129 16.2162 15.7362C16.3389 15.6926 16.4722 15.6626 16.5871 15.6016C19.5779 13.9995 22.7696 13.0392 26.1246 12.5978L26.1675 12.5921C26.5638 12.5397 26.9617 12.4871 27.3597 12.4777C27.549 12.4729 27.7402 12.5784 27.9304 12.6345L27.9189 12.7914C27.521 12.8649 27.1212 12.9337 26.7243 13.0121C25.0033 13.3519 23.2708 13.6404 21.5663 14.0498C19.5422 14.5358 17.6301 15.3286 15.8695 16.4613C15.8058 16.5019 15.7343 16.531 15.6378 16.5803Z" fill="#353637"/>
<path d="M12.0889 23.8902C12.0896 24.163 12.1597 24.3201 12.1693 24.5346C12.179 24.7491 12.0805 25.1835 11.9549 25.5011C11.849 25.769 11.7106 25.9381 11.6015 26.2381C11.5264 26.4446 11.4897 26.5978 11.3651 26.7787C11.2044 27.0119 10.8825 27.2194 10.8825 27.2194C10.8825 27.2194 10.5598 27.3642 10.2927 27.3536C10.0222 27.3429 9.98636 27.2194 9.78781 27.1388C9.12899 26.8717 8.60809 27.1216 8.06508 26.5507C8.19262 26.1355 8.15108 25.7224 7.82933 25.3866L6.74138 25.1834C6.73172 25.0034 6.72303 24.8505 6.71433 24.6889C7.03318 24.3135 7.34623 23.9438 7.71918 23.5045L8.17983 23.0216C7.99233 22.5253 8.04452 22.3406 8.43401 22.0755C8.68434 21.9053 8.97842 21.6743 9.2471 21.4895C9.91791 21.8473 10.3362 21.9642 11.1065 22.176C11.3027 22.208 11.4149 22.2397 11.6063 22.176C11.7808 22.0301 13.1914 15.4927 13.1881 15.234C13.1848 14.9752 13.573 14.7156 13.9941 14.9655C14.6746 15.3692 14.8678 15.6626 15.601 16.8024C17.2234 15.7934 18.3371 15.1854 19.6492 14.8236L19.7028 14.9231C19.7028 14.9231 19.0805 15.4084 18.979 15.4869C18.8153 15.6134 18.6278 15.776 18.4696 15.9433C18.2773 16.1467 18.0878 16.2439 17.9334 16.4534C17.5702 16.9465 17.3711 17.3954 16.3964 17.3397C16.1003 17.3397 15.8548 17.4811 15.5742 17.6884C15.3451 17.8576 15.2786 18.2946 15.0803 18.2254C14.8006 18.1277 14.3409 18.3596 14.3141 18.5475C14.2873 18.7355 13.8422 18.8047 13.7243 18.9885C13.6064 19.1723 13.6989 19.7498 13.6347 20.2327C13.5513 20.8601 13.5347 21.2314 13.296 21.8174C13.1077 22.5479 13.0668 22.5293 12.786 22.9774C12.5648 23.3303 12.0883 23.6412 12.0889 23.8902Z" fill="#353637"/>
</g>
<defs>
<clipPath id="clip0_1315_326">
<rect width="154.828" height="37" fill="white"/>
</clipPath>
</defs>
</svg>
