<svg width="18" height="18" viewBox="0 0 18 18" fill="none" xmlns="http://www.w3.org/2000/svg">
<path d="M11.0156 0H18V6.98438H15.9844V3.42188L6.1875 13.2188L4.78125 11.8125L14.5781 2.01562H11.0156V0ZM15.9844 15.9844V9H18V15.9844C18 16.5156 17.7969 16.9844 17.3906 17.3906C16.9844 17.7969 16.5156 18 15.9844 18H2.01562C1.45312 18 0.96875 17.8125 0.5625 17.4375C0.1875 17.0312 0 16.5469 0 15.9844V2.01562C0 1.45312 0.1875 0.984375 0.5625 0.609375C0.96875 0.203125 1.45312 0 2.01562 0H9V2.01562H2.01562V15.9844H15.9844Z" fill="#FD720F"/>
</svg>
