<svg width="182" height="43" viewBox="0 0 182 43" fill="none" xmlns="http://www.w3.org/2000/svg">
<path d="M7.42774 15.5153C7.16924 15.0983 7.14741 14.7319 7.25196 14.3632C8.03549 11.6168 9.31073 9.16679 11.6786 7.44729C14.8161 5.16841 18.257 4.63084 21.9494 5.84839C22.4527 6.0138 22.9593 6.21481 23.3717 6.65933C23.281 6.77419 23.2017 6.87412 23.0914 7.01081C20.8431 5.65198 18.4408 5.48313 15.9558 6.054C15.1217 6.24582 14.2451 6.38481 13.6041 7.11189C13.6339 7.33472 13.6627 7.55871 13.6879 7.74938C12.9825 8.27775 12.2932 8.79579 11.6004 9.31497C11.0157 8.93936 10.7836 8.95545 10.2838 9.46429C9.41413 10.3487 8.81672 11.4078 8.40313 12.5667C8.06651 13.5109 7.77125 14.4712 7.42774 15.5153Z" fill="white"/>
<path d="M25.2879 18.5827C25.2877 18.5864 25.2874 18.59 25.2871 18.5937C25.2871 18.5939 25.2871 18.594 25.2871 18.5942C25.2679 18.8543 25.252 19.0704 25.2316 19.3657C25.1399 19.3466 25.0518 19.3282 24.9641 19.3099C24.6963 19.254 24.4324 19.199 24.0821 19.1265C24.0717 19.1243 24.0613 19.1222 24.0508 19.12C24.0535 19.1182 24.0561 19.1164 24.0587 19.1145C24.0664 19.1093 24.0741 19.1041 24.0817 19.0989C24.5278 18.7957 24.8612 18.6601 25.2879 18.5827Z" fill="white"/>
<path fill-rule="evenodd" clip-rule="evenodd" d="M23.9309 36.3923C23.6659 36.5517 21.8973 35.7176 21.8973 35.7176C21.8973 35.7176 18.8031 34.2806 17.2411 33.555L17.2172 33.5439C16.0447 32.9993 14.8656 32.4516 13.6771 31.8997C13.5417 31.8365 13.4842 31.6746 13.5508 31.5413L13.5887 31.4632C13.653 31.3346 13.808 31.2806 13.9378 31.3403C15.2223 31.9333 16.498 32.5219 17.7753 33.1112L17.8229 33.1332L17.829 33.136C19.129 33.7358 20.4309 34.3365 21.7458 34.9435C21.7408 34.6674 21.5633 34.5908 21.4122 34.5256C21.3898 34.5159 21.3679 34.5065 21.3473 34.4967C20.4548 34.0664 19.5573 33.6494 18.6594 33.2322L18.6588 33.2319L18.4836 33.1505C17.5473 32.7148 16.6109 32.2804 15.6756 31.8466L15.6519 31.8356C15.0812 31.5708 14.5109 31.3062 13.9412 31.0417C13.8115 30.9819 13.7518 30.8292 13.808 30.6982C13.8561 30.5874 13.9054 30.4777 13.9544 30.3688C14.3022 29.5951 14.6325 28.8603 14.3638 28.0266C14.3328 27.9313 14.3512 27.8256 14.4201 27.7532C14.4639 27.7078 14.5075 27.6633 14.5505 27.6193C14.7294 27.4367 14.8989 27.2635 15.0424 27.0709C15.0788 27.0224 15.1164 26.9735 15.1542 26.9243C15.3635 26.6524 15.5814 26.3691 15.6601 26.0579C15.7134 25.8459 15.77 25.6343 15.8267 25.4225L15.8268 25.4223L15.8268 25.4222C16.0711 24.5098 16.3162 23.5947 16.2882 22.6327C16.2873 22.5963 16.2853 22.5596 16.2833 22.5229L16.2833 22.5228C16.276 22.387 16.2687 22.2509 16.3112 22.1262C16.3698 21.9551 16.5891 21.9057 16.728 22.0217L17.1608 22.3831L17.2329 22.4433L17.6902 22.8252L18.076 23.1473C18.1174 23.1818 18.1472 23.2266 18.1621 23.2783C18.3332 23.8916 18.6478 24.6325 19.4528 25.0506C19.3481 24.8764 19.2264 24.7114 19.1042 24.5458C18.8285 24.172 18.5506 23.7951 18.4607 23.3024C18.44 23.1887 18.4894 23.0715 18.5916 23.0152C18.6016 23.0097 18.6116 23.0042 18.6216 22.9986C18.9273 22.83 19.2621 22.6454 19.3666 22.0872C19.1037 22.3146 18.9234 22.4696 18.7523 22.6167C18.7144 22.65 18.6674 22.6718 18.618 22.6798C17.9555 22.7809 17.5341 22.5765 17.0725 21.8839C16.976 21.7403 17.0415 21.5416 17.2057 21.4853L17.4858 21.3865C17.5651 21.3589 17.6546 21.3716 17.7247 21.4187C17.9279 21.5588 18.1185 21.6886 18.3103 21.8184L18.4079 21.7403L18.1541 21.3808C18.0864 21.2843 18.0875 21.1522 18.1644 21.0626C18.5721 20.5836 19.0865 20.3057 19.7547 20.2838C20.3782 20.2632 20.8513 20.0323 21.1717 19.427C21.3513 19.088 21.6556 18.8089 21.9516 18.5373C22.0037 18.4895 22.0555 18.442 22.1063 18.3944C22.4142 18.1065 22.7383 17.8359 23.0623 17.5655L23.0626 17.5652C23.2024 17.4485 23.3423 17.3317 23.4808 17.2136C23.4676 17.1889 23.4541 17.1645 23.4406 17.1401C23.4308 17.1225 23.4211 17.1049 23.4115 17.0872C23.4078 17.0804 23.4041 17.0735 23.4004 17.0666L23.4062 17.065C24.5146 16.7496 25.623 16.4343 26.7406 16.1167C26.8967 16.0719 27.0575 16.1787 27.0782 16.3395C27.11 16.5985 27.1398 16.8535 27.1692 17.1053L27.1693 17.1066L27.1694 17.1067C27.2599 17.8817 27.3469 18.6264 27.4778 19.3638C27.5617 19.8377 27.7237 20.2932 27.8837 20.7431C28.0649 21.2526 28.2436 21.755 28.3033 22.2686C28.3102 22.3387 28.2919 22.4111 28.2459 22.4639C27.975 22.779 27.683 22.7153 27.4093 22.6556L27.4092 22.6555C27.3766 22.6484 27.3444 22.6414 27.3124 22.635C27.2194 22.6167 27.123 22.6488 27.0598 22.7189C26.8635 22.9348 26.8807 23.1852 26.9771 23.4494C27.077 23.7285 27.0345 23.9559 26.7165 24.1432C26.5297 24.1261 26.3366 24.1086 26.1395 24.0908L26.1221 24.0892L26.1172 24.0888L26.111 24.0882C25.7851 24.0587 25.4488 24.0282 25.1124 23.9973C25.3633 24.2752 25.6714 24.2996 25.9763 24.3238C26.0482 24.3295 26.1199 24.3352 26.1906 24.3442C26.4099 24.3729 26.6074 24.4142 26.7142 24.575C26.8106 24.7198 26.7199 24.9196 26.5511 24.9633L26.411 25C26.2813 25.0333 26.1975 25.1597 26.2147 25.2929C26.2244 25.3674 26.2362 25.4418 26.248 25.5164C26.317 25.9528 26.3867 26.3933 26.0494 26.8573C26.0057 26.917 25.9368 26.9526 25.8633 26.9595C25.6886 26.9749 25.5032 26.9915 25.311 27.0086L25.3097 27.0087C24.9996 27.0364 24.6721 27.0656 24.3442 27.0939C24.1898 27.1066 24.0339 27.1129 23.878 27.1192C23.5412 27.1328 23.2044 27.1463 22.8825 27.2249C22.1086 27.4109 21.6459 27.9347 21.515 28.7422C21.3117 29.9941 21.3393 31.245 21.4713 32.5015C21.6323 32.2862 21.6231 32.0474 21.6135 31.797C21.6107 31.7241 21.6078 31.6503 21.6091 31.5758C21.6137 31.3621 21.864 31.2369 22.0317 31.369C22.8606 32.0252 22.9237 33.0049 22.992 34.0631C23.0008 34.1996 23.0097 34.3374 23.0203 34.476C23.5106 33.108 22.964 31.6539 21.7848 30.8694C21.7113 30.82 21.6642 30.7384 21.6642 30.6488V30.3399C21.6975 30.3375 21.7276 30.3337 21.7551 30.3301C21.8092 30.3231 21.8536 30.3173 21.8939 30.3272C22.6334 30.511 23.1214 30.9785 23.4027 31.678C23.7839 32.6256 23.9688 33.6088 23.9309 34.631C23.9306 34.6402 23.9303 34.6493 23.9299 34.6585L23.9299 34.6587L23.9299 34.6589C23.9195 34.9656 24.223 35.2864 24.2891 35.5683C24.3552 35.8502 24.1959 36.2329 23.9309 36.3923ZM25.8875 22.6259C25.7726 22.6029 25.6877 22.5053 25.6762 22.3892C25.6245 21.854 25.7129 21.7713 26.3341 21.4382C26.2883 21.5104 26.2459 21.5772 26.2058 21.6404L26.2046 21.6423C26.1175 21.7795 26.0412 21.8998 25.9644 22.0205C25.8932 22.132 25.9162 22.2778 26.0161 22.364L26.2756 22.5857C26.2698 22.6046 26.2644 22.6236 26.2589 22.6425C26.2535 22.6615 26.248 22.6804 26.2423 22.6994L25.8875 22.6259ZM23.3533 35.3776C23.3131 35.3397 23.2637 35.3145 23.2098 35.3064C23.1042 35.291 22.9961 35.2752 22.8863 35.2591L22.8694 35.2566L22.8671 35.2562C22.6882 35.23 22.5052 35.2031 22.3222 35.1766C22.3222 35.1318 22.3233 35.0882 22.3244 35.0434V35.0432L22.3245 35.04C23.3912 34.9423 23.6312 35.0549 23.8447 35.8474C23.755 35.7613 23.6757 35.6858 23.6014 35.6149L23.6006 35.6142C23.5146 35.5322 23.4351 35.4564 23.3533 35.3776ZM25.6716 19.5717C25.1227 19.6533 24.6014 19.5396 24.0859 19.3799C23.5703 19.2202 23.6077 19.0989 23.6077 19.0989C23.6077 19.0989 23.8635 18.8807 24.0859 18.7553C24.3083 18.63 24.5364 18.5648 24.7723 18.4808C25.2211 18.3208 25.6874 18.1547 26.1871 17.9763C25.5932 17.6845 25.1398 17.8991 24.6945 18.1099C24.4141 18.2426 24.1369 18.3738 23.8298 18.376C24.7496 17.5238 25.6142 17.3423 26.5098 17.8293C26.6786 17.9212 26.7084 18.1647 26.5511 18.2738C26.3367 18.4226 26.2407 18.6662 26.1427 18.9148C26.0607 19.1228 25.9773 19.3343 25.822 19.4971C25.783 19.5384 25.7278 19.5637 25.6716 19.5717Z" fill="white"/>
<path d="M6.98354 14.4853C6.90426 14.3431 6.87209 14.28 6.83303 14.2203C6.79741 14.1664 6.7549 14.1182 6.62737 13.9542C6.45732 14.592 6.43612 14.6256 6.29595 15.1578C5.73313 15.6541 5.27486 16.0593 4.83008 16.4501C5.31342 13.9803 6.21174 10.6842 8.80348 7.65714C11.3952 4.63009 15.5137 3.61813 19.2508 3.89679C21.7519 4.08328 24.0409 4.95378 25.356 5.8905C24.777 6.01578 24.1785 6.14336 23.4445 6.30082C23.4445 6.30082 21.7018 5.11612 19.2508 4.98101C15.2012 4.75779 12.487 5.84839 10.0567 8.29704C8.04606 10.3228 6.98354 14.4853 6.98354 14.4853Z" fill="white"/>
<path d="M19.9018 6.89155C21.2536 7.03288 22.2255 7.70277 23.2514 8.12331C23.8578 9.34974 22.8974 10.45 21.267 11.6608C18.0372 14.0592 14.7706 16.1659 11.5718 18.3323C9.75132 17.4535 8.89714 15.9675 9.1173 14.0535C9.16648 13.626 9.25453 13.3945 9.38719 12.9851C9.81262 11.6725 10.7826 10.5645 11.6004 9.73241C12.5745 8.8714 13.0711 8.45145 14.1682 7.88282C14.6979 7.60829 15.0053 7.46752 15.5707 7.27692C16.0342 7.12066 16.3015 7.05041 16.7818 6.95803C17.9786 6.72785 18.55 6.75022 19.9018 6.89155Z" fill="white"/>
<path d="M12.2239 19.363C12.957 18.789 13.4351 18.4701 14.3559 17.8427L14.3453 17.8996C13.9375 20.0941 13.5423 22.2205 12.7989 24.3672C12.1993 24.1339 11.6662 23.9259 11.1067 23.7087C11.9052 22.2969 12.5283 21.0608 12.2239 19.363Z" fill="white"/>
<path d="M18.3874 19.2268C18.0223 18.7071 17.7318 18.2184 17.3656 17.7964C17.1118 17.5055 16.7823 17.2422 16.4333 17.0801C15.8328 16.8006 15.431 17.0088 15.2817 17.6573C15.0303 18.7531 14.8339 19.8627 14.5974 20.9631C14.3173 22.2693 14.0233 23.5721 13.7248 24.8749C13.6628 25.1439 13.5572 25.4038 13.455 25.72C12.2954 25.5418 11.2667 25.16 10.1943 24.4471C10.4446 24.2448 10.6249 24.101 10.8407 23.9274C11.5101 24.1654 12.184 24.4057 12.9269 24.6702C13.8477 22.2417 14.199 19.7661 14.7478 17.1801C13.977 17.7367 13.8393 17.8427 13.3551 18.1621C12.928 18.4438 12.517 18.7496 12.06 19.0727C11.9257 18.8761 11.827 18.7335 11.7076 18.5576C11.9751 18.3725 12.2058 18.2138 12.4355 18.0563C15.4493 15.975 18.4643 13.8961 21.4759 11.8115C21.7457 11.6252 21.9925 11.4056 22.2451 11.1951C22.9432 10.6133 24.049 9.31785 23.5709 8.36117C24.4125 8.40601 26.9505 9.78436 27.9694 10.5934C28.9884 11.4025 29.9137 12.7619 29.9137 12.7619C30.5406 13.1241 31.3291 13.5615 31.9641 13.9283C31.9629 13.9789 31.9618 14.0295 31.9606 14.0812C27.5139 14.601 23.2543 15.7393 19.2508 17.9102C18.8673 16.8558 18.268 16.0314 17.3242 15.514L17.1887 15.6404C17.4505 15.867 17.7329 16.0751 17.9706 16.3258C18.2106 16.5799 18.4368 16.8581 18.6113 17.1605C18.7961 17.4802 18.9121 17.8401 19.0751 18.2241C19.2209 18.1724 19.3794 18.1368 19.516 18.0643C23.0718 16.1613 26.8663 15.0207 30.855 14.4963L30.9061 14.4896C31.3771 14.4274 31.8503 14.3649 32.3234 14.3538C32.5485 14.348 32.7758 14.4734 33.002 14.54L32.9882 14.7263C32.5152 14.8137 32.0398 14.8953 31.5679 14.9885C29.522 15.3921 27.4622 15.7347 25.4358 16.2211C23.0293 16.7983 20.756 17.7401 18.6629 19.0854C18.5872 19.1337 18.5022 19.1682 18.3874 19.2268Z" fill="white"/>
<path d="M14.1682 27.9094C14.1691 28.2334 14.2524 28.42 14.2638 28.6748C14.2753 28.9296 14.1582 29.4455 14.0089 29.8228C13.8829 30.1409 13.7184 30.3419 13.5887 30.6982C13.4995 30.9435 13.4558 31.1255 13.3076 31.3403C13.1167 31.6173 12.7339 31.8637 12.7339 31.8637C12.7339 31.8637 12.3503 32.0357 12.0327 32.0232C11.7112 32.0105 11.6685 31.8637 11.4325 31.7681C10.6492 31.4507 10.0299 31.7476 9.38435 31.0694C9.53598 30.5764 9.48658 30.0856 9.10406 29.6868L7.81062 29.4454C7.79913 29.2316 7.7888 29.05 7.77846 28.8581C8.15753 28.4121 8.52971 27.9731 8.97311 27.4513L9.52076 26.8776C9.29784 26.2882 9.35989 26.0687 9.82296 25.7539C10.1206 25.5517 10.4702 25.2773 10.7896 25.0578C11.5871 25.4828 12.0844 25.6217 13.0002 25.8733C13.2335 25.9113 13.3669 25.9489 13.5945 25.8733C13.8019 25.7 15.4789 17.9349 15.475 17.6276C15.4711 17.3202 15.9326 17.0119 16.4333 17.3087C17.2422 17.7882 17.472 18.1367 18.3437 19.4906C20.2725 18.2921 21.5966 17.5699 23.1565 17.1401L23.2203 17.2583C23.2203 17.2583 22.4804 17.8348 22.3597 17.928C22.1652 18.0783 21.9422 18.2715 21.7541 18.4701C21.5254 18.7117 21.3002 18.8272 21.1166 19.076C20.6848 19.6617 20.4482 20.1949 19.2893 20.1287C18.9373 20.1287 18.6454 20.2968 18.3118 20.543C18.0394 20.7439 17.9604 21.263 17.7247 21.1807C17.3921 21.0647 16.8456 21.3402 16.8137 21.5634C16.7818 21.7866 16.2527 21.8689 16.1125 22.0872C15.9723 22.3055 16.0823 22.9915 16.006 23.5651C15.9068 24.3102 15.8871 24.7513 15.6032 25.4474C15.3794 26.315 15.3308 26.293 14.9969 26.8252C14.734 27.2444 14.1674 27.6137 14.1682 27.9094Z" fill="white"/>
<path d="M30.0047 23.1604C29.7008 23.0558 29.415 22.875 29.1716 22.6336C28.803 22.268 28.8014 22.2617 28.8035 21.2484C28.8044 20.781 28.8229 20.1932 28.8446 19.9422C28.8596 19.7678 28.8901 19.3729 28.926 18.9061C28.9261 18.9052 28.9262 18.9043 28.9263 18.9034L28.9263 18.9032L28.9263 18.9031C28.9525 18.5625 28.9817 18.1839 29.01 17.8247C29.0616 17.1709 29.1102 16.5815 29.1329 16.4033L29.1689 16.1201H29.5041V21.4529H29.9099V16.1201H30.3782V21.4529H30.5846L30.7876 21.457V16.1214H31.2642V21.457H31.6773V16.1214H32.0186L32.0552 16.4048C32.091 16.6811 32.1902 17.9452 32.2655 18.9061L32.2655 18.9062L32.2656 18.9068L32.2656 18.9069C32.2656 18.9072 32.2656 18.9074 32.2656 18.9076C32.2679 18.9366 32.2702 18.9654 32.2724 18.9938C32.3061 19.4234 32.3343 19.7815 32.3487 19.9453C32.361 20.0857 32.3723 20.3313 32.3801 20.6023C32.3862 20.8162 32.3901 21.046 32.3905 21.2523C32.3927 22.2663 32.391 22.2725 32.0158 22.6383C31.7681 22.8799 31.477 23.0608 31.1678 23.1655L30.9783 23.2296L30.9784 23.4062C30.9785 23.5033 31.0862 25.041 31.0862 25.041L31.3547 27.1161L31.358 27.1166C31.3866 27.1208 31.4152 27.1252 31.4438 27.13L31.4463 27.1304C31.5396 27.1461 31.6334 27.1651 31.7278 27.1881C31.7217 27.3069 31.7167 27.4081 31.7118 27.5078L31.7105 27.5356C31.7092 27.5613 31.7079 27.5869 31.7067 27.6129C31.7059 27.6277 31.7052 27.6426 31.7045 27.6576C31.704 27.6666 31.7036 27.6756 31.7031 27.6848C31.7019 27.7086 31.7007 27.7328 31.6995 27.7576C31.6103 27.7754 31.5218 27.7916 31.4337 27.8059C31.4053 27.8105 31.3769 27.815 31.3486 27.8192L31.3424 27.8201C31.3307 27.8219 31.319 27.8236 31.3072 27.8253C30.7995 27.8979 30.3 27.9071 29.7616 27.8158C29.7488 27.8137 29.736 27.8115 29.7232 27.8092C29.7172 27.8081 29.7111 27.807 29.705 27.8059C29.5924 27.7854 29.478 27.7606 29.3615 27.731C29.3845 27.6469 29.4043 27.5741 29.4223 27.5078C29.4257 27.4952 29.4291 27.4829 29.4324 27.4707C29.433 27.4683 29.4337 27.4658 29.4343 27.4634C29.4384 27.4485 29.4423 27.4339 29.4462 27.4196C29.4501 27.4053 29.4539 27.3913 29.4576 27.3774L29.4683 27.3378L29.4683 27.3377L29.469 27.3353L29.4691 27.3349C29.4692 27.3347 29.4692 27.3344 29.4693 27.3342C29.4696 27.3332 29.4698 27.3321 29.4701 27.3311C29.4881 27.2646 29.5054 27.2007 29.524 27.1323L29.5527 27.1299L29.5533 27.1299C29.5548 27.1298 29.5563 27.1296 29.5577 27.1295C29.5778 27.1278 29.5979 27.1261 29.6179 27.1244C29.6345 27.123 29.651 27.1217 29.6675 27.1203C29.7239 27.1156 29.78 27.111 29.836 27.1065L29.8406 27.1062L30.1078 25.041C30.1078 25.041 30.1906 23.4981 30.1907 23.401L30.1909 23.2245L30.0047 23.1604Z" fill="white"/>
<path d="M31.3412 28.1903C31.3321 28.3204 31.3249 28.4295 31.3177 28.5382L31.3172 28.5456C31.3169 28.5491 31.3167 28.5526 31.3165 28.556C31.3131 28.6073 31.3097 28.6587 31.3061 28.7124L31.3055 28.721H29.7924C29.7917 28.7087 29.791 28.6964 29.7904 28.6841C29.7898 28.6739 29.7893 28.6636 29.7887 28.6534C29.7866 28.6148 29.7845 28.5765 29.7823 28.5382C29.7775 28.4515 29.7726 28.3647 29.7674 28.2737L29.7616 28.1721H31.3424L31.3412 28.1903Z" fill="white"/>
<path d="M33.4913 29.642C33.6131 29.7825 33.6328 30.072 33.5922 30.2719C33.3645 31.4095 33.1282 32.547 32.8476 33.6737C32.6172 34.592 32.0689 35.2324 31.3156 35.6767C31.2716 35.7026 31.2269 35.7278 31.1816 35.7524C30.983 35.8603 30.7714 35.9555 30.5487 36.0397C30.5017 36.0573 30.45 36.0622 30.3928 36.0675L30.3927 36.0675L30.3927 36.0675C30.3674 36.0699 30.3411 36.0723 30.3136 36.076C30.232 36.076 30.1633 36.0669 30.0835 36.0486C30.0138 36.0325 29.9356 36.0093 29.833 35.9789L29.7876 35.9654C29.7637 35.9518 29.7394 35.939 29.7151 35.9267C29.7098 35.924 29.7044 35.9213 29.6991 35.9186C29.6942 35.9162 29.6894 35.9138 29.6845 35.9114C29.6639 35.9012 29.6434 35.8913 29.6229 35.8814L29.6227 35.8813L29.6063 35.8735C29.4494 35.7977 29.2971 35.7205 29.1929 35.5576C29.148 35.4875 29.112 35.4014 29.0885 35.2928C29.0807 35.2568 29.0743 35.2183 29.0694 35.1771C29.1987 35.1902 29.3253 35.2029 29.45 35.2154C29.4772 35.2181 29.5043 35.2208 29.5313 35.2235C29.539 35.2243 29.5467 35.2251 29.5544 35.2259C29.5635 35.2268 29.5725 35.2277 29.5815 35.2286C29.6016 35.2306 29.6216 35.2326 29.6416 35.2346C29.7105 35.2414 29.779 35.2482 29.8471 35.2549C30.0124 35.2713 30.1758 35.2873 30.3395 35.3031C30.1967 35.1766 30.0453 35.0955 29.8889 35.0422C29.8023 35.0127 29.7142 34.9917 29.6253 34.9762C29.5947 34.9709 29.564 34.9663 29.5333 34.9621C29.4818 34.9552 29.4302 34.9498 29.3784 34.9453C29.2952 34.938 29.2117 34.9332 29.1285 34.9283L29.1284 34.9283L29.1282 34.9283L29.0952 34.9263C28.949 34.9177 28.8037 34.9082 28.662 34.885C28.5798 34.8715 28.4988 34.8534 28.4196 34.8282C28.139 34.458 28.1794 34.1511 28.4182 33.8652C28.4535 33.823 28.4932 33.7812 28.5368 33.7397C28.5514 33.7257 28.5665 33.7118 28.582 33.6979C28.8608 33.6617 29.1442 33.656 29.4282 33.6514L29.458 33.6509C29.4857 33.6505 29.5135 33.65 29.5413 33.6495C29.7507 33.6459 29.9601 33.6408 30.168 33.6222C30.385 33.6028 30.6003 33.5687 30.812 33.5065C30.616 33.4363 30.416 33.4045 30.2131 33.3926C29.996 33.3799 29.7757 33.3899 29.5536 33.4001L29.5535 33.4001C29.5442 33.4005 29.5349 33.401 29.5256 33.4014C29.4866 33.4032 29.4476 33.4049 29.4085 33.4065C29.12 33.4183 28.8289 33.422 28.5383 33.3683C28.5048 33.3621 28.4713 33.3552 28.4378 33.3474C28.2464 33.3029 28.0555 33.231 27.8658 33.1176C27.9101 32.9631 27.9522 32.8157 27.9929 32.6733L27.993 32.6729L27.9931 32.6726L27.9932 32.6722L27.9941 32.6689L27.9945 32.6678C27.9946 32.6671 27.9948 32.6664 27.995 32.6657C28.02 32.5782 28.0445 32.4926 28.0686 32.4083C28.0753 32.385 28.0819 32.3618 28.0885 32.3387C28.2846 32.326 28.4722 32.3137 28.6538 32.3017L28.6543 32.3017C28.7939 32.2925 28.9299 32.2835 29.0635 32.2748L29.0636 32.2748C29.1488 32.2693 29.233 32.2639 29.3165 32.2586C29.3621 32.2557 29.4075 32.2528 29.4527 32.25C29.6079 32.2403 29.7614 32.2311 29.9149 32.2224C30.0926 32.2126 30.2705 32.2035 30.4485 32.1947C30.6668 32.184 30.8852 32.1737 31.1037 32.1635L31.2488 32.1567C31.3471 32.1521 31.4454 32.1474 31.5436 32.1427L31.5751 32.1412C31.5747 32.1231 31.5744 32.1052 31.5741 32.0873C31.5736 32.0512 31.573 32.0153 31.5714 31.9789L31.5671 31.9781C31.5356 31.9728 31.504 31.9661 31.4724 31.9594L31.4722 31.9594L31.4722 31.9594C31.3952 31.9431 31.3177 31.9267 31.2403 31.9292C30.9917 31.9383 30.743 31.9497 30.4943 31.9614C30.4499 31.9635 30.4054 31.9657 30.361 31.9678L30.3486 31.9684L30.3462 31.9685L30.3461 31.9685L30.346 31.9685L30.346 31.9685L30.3457 31.9685L30.3452 31.9685C30.1974 31.9756 30.0496 31.9826 29.9018 31.9892L29.9014 31.9892C29.7467 31.9962 29.5921 32.0027 29.4374 32.0083C29.3905 32.01 29.3437 32.0116 29.2968 32.0131C29.2169 32.0157 29.137 32.0181 29.0571 32.0201C28.9517 32.0227 28.8452 32.0312 28.7385 32.0398C28.5124 32.0579 28.2858 32.0761 28.0687 32.0377C28.0029 32.0261 27.938 32.0092 27.8742 31.9856C27.7865 31.9531 27.701 31.9078 27.6184 31.8456C27.5122 31.2201 27.6375 30.8856 28.0652 30.7656C28.1238 30.7492 28.1882 30.7368 28.2584 30.7282C28.3227 30.7203 28.392 30.7157 28.4664 30.7141C28.7082 30.7088 28.95 30.7053 29.1918 30.7029C29.2461 30.7024 29.3003 30.7019 29.3546 30.7015C29.6748 30.6989 29.995 30.6979 30.3152 30.6969C30.3154 30.6969 30.3156 30.6969 30.3158 30.6969H30.3164C30.3177 30.6969 30.319 30.6969 30.3204 30.6969C30.4613 30.6965 30.6022 30.696 30.7431 30.6955C31.0414 30.6943 31.3396 30.6924 31.6378 30.6887C31.7393 30.6878 31.8402 30.6595 31.9409 30.6313L31.941 30.6313C31.9811 30.6201 32.0211 30.6088 32.0612 30.5993C32.0619 30.5992 32.0625 30.599 32.0632 30.5989C32.0634 30.5988 32.0636 30.5988 32.0638 30.5987C32.0649 30.5985 32.0661 30.5982 32.0672 30.5979C32.0675 30.5979 32.0679 30.5978 32.0682 30.5977C32.0683 30.5977 32.0685 30.5976 32.0686 30.5976C32.0688 30.5976 32.069 30.5975 32.0692 30.5975C32.0693 30.5975 32.0694 30.5974 32.0695 30.5974C32.0704 30.5972 32.0713 30.597 32.0722 30.5968L32.0724 30.5968L32.0725 30.5967C32.0739 30.5964 32.0754 30.5961 32.0768 30.5957C32.0774 30.5956 32.0779 30.5955 32.0784 30.5954L32.0784 30.5953C32.0777 30.5888 32.0769 30.5823 32.0761 30.5758C32.0708 30.5302 32.0655 30.4846 32.0612 30.4391H29.338H28.2584C28.2341 30.4151 28.2113 30.3913 28.1901 30.3678C27.7999 29.9354 27.9253 29.5906 28.2965 29.1804C28.5493 29.1407 28.8044 29.1054 29.0614 29.0773C29.1244 29.0705 29.1874 29.064 29.2506 29.0581C29.3134 29.0521 29.3763 29.0467 29.4393 29.0418C29.5566 29.0326 29.6743 29.0251 29.7924 29.0198C30.2136 29.0006 30.6388 29.0075 31.066 29.0526C31.1458 29.061 31.2256 29.0707 31.3055 29.0819C31.3116 29.0828 31.3177 29.0836 31.3239 29.0845C31.3301 29.0854 31.3363 29.0863 31.3425 29.0872C31.4089 29.0968 31.4754 29.1074 31.5419 29.1191C31.7114 29.1488 31.8811 29.1851 32.0509 29.2289C32.1555 29.2559 32.26 29.2856 32.3646 29.3184C32.3666 29.319 32.3686 29.3196 32.3705 29.3202C32.3735 29.3212 32.3764 29.3221 32.3794 29.323C32.3796 29.3231 32.3799 29.3232 32.3801 29.3233L32.3803 29.3233C32.3809 29.3235 32.3815 29.3237 32.3822 29.3239C32.3824 29.324 32.3827 29.3241 32.383 29.3242C32.3839 29.3245 32.3848 29.3247 32.3857 29.325C32.3885 29.3259 32.3913 29.3268 32.3941 29.3277C32.3984 29.3291 32.4027 29.3304 32.407 29.3318C32.4181 29.2797 32.4292 29.2276 32.4403 29.1768C32.1975 29.0496 31.956 28.9225 31.6727 28.7732L31.6477 28.76L31.6489 28.7437C31.6569 28.6349 31.6653 28.5268 31.6737 28.4177L31.6794 28.3445L31.6794 28.3437L31.6795 28.3434L31.6842 28.2816C31.6851 28.2707 31.6859 28.2599 31.6868 28.249C31.687 28.2464 31.6872 28.2438 31.6874 28.2412C31.6875 28.2393 31.6877 28.2375 31.6878 28.2357C31.6888 28.2225 31.6898 28.2093 31.6909 28.196C31.6915 28.1874 31.6922 28.1788 31.6929 28.1702C31.6938 28.1573 31.6948 28.1444 31.6958 28.1315L31.6982 28.0997C31.6994 28.0841 31.7006 28.0683 31.7018 28.0525C31.7085 28.0532 31.715 28.0537 31.7214 28.0542C31.7318 28.055 31.7418 28.0557 31.7516 28.0562C31.7546 28.0564 31.7574 28.0565 31.7603 28.0567C31.7919 28.0582 31.8208 28.0584 31.8468 28.0587H31.8469C31.9045 28.0592 31.9479 28.0596 31.9757 28.0729C31.9764 28.0732 31.977 28.0735 31.9776 28.0738C31.9779 28.0739 31.9783 28.0741 31.9786 28.0743C31.9788 28.0744 31.9789 28.0745 31.9791 28.0746C31.9795 28.0748 31.9798 28.075 31.9802 28.0752C31.9852 28.078 31.9897 28.0813 31.9935 28.0852C32.0173 28.109 32.041 28.1329 32.0648 28.1567C32.1294 28.2212 32.1941 28.2857 32.2588 28.3502L32.2597 28.3511C32.6814 28.7715 33.104 29.1927 33.4913 29.642Z" fill="white"/>
<path fill-rule="evenodd" clip-rule="evenodd" d="M32.0798 27.5559L32.0796 27.5589C32.0793 27.5645 32.0791 27.5701 32.0788 27.5758C32.0791 27.5691 32.0794 27.5625 32.0798 27.5559ZM32.2656 18.9069C32.2656 18.9072 32.2656 18.9074 32.2656 18.9076L32.2656 18.9069Z" fill="#D9D9D9"/>
<path d="M7.51279 29.3683H6.07703L6.07701 29.3681H6.07571L6.07418 29.345C6.07107 29.2983 6.0681 29.2532 6.06515 29.2082L6.06456 29.1992C6.05788 29.0976 6.05121 28.996 6.04292 28.876L6.04067 28.8435H7.54068L7.54067 28.8437H7.542L7.53653 28.9406C7.52818 29.0882 7.52049 29.2243 7.51279 29.3683Z" fill="white"/>
<path d="M8.26825 23.3366C8.3206 22.9902 8.28751 22.44 8.28751 22.44C8.28751 22.44 8.27481 21.6836 8.22857 21.284C8.09123 20.0967 7.97453 19.2167 7.60555 17.9411C7.40654 17.2531 7.35049 17.1022 7.00436 16.2085C6.91706 15.9832 6.86037 15.872 6.81444 15.8645C6.76334 15.854 6.72568 15.9707 6.67451 16.2004C6.66882 16.226 6.66296 16.2529 6.6569 16.2812C6.65554 16.2876 6.65373 16.2972 6.65153 16.3099C6.59825 16.6173 6.31076 18.7513 6.31076 21.5882C6.31076 24.8233 6.26345 25.7006 6.21798 26.5436C6.2057 26.7714 6.19355 26.9967 6.1825 27.2654L6.15301 27.8183L6.1468 27.819C6.0269 27.8329 5.90641 27.8522 5.78495 27.878C5.74839 27.8858 5.71175 27.8942 5.67501 27.9032C5.6813 28.0266 5.68634 28.1301 5.69138 28.2336L5.69139 28.2337L5.69141 28.2342L5.69144 28.2347C5.69349 28.277 5.69555 28.3193 5.6977 28.363L5.70044 28.4185L5.70188 28.4474C5.7462 28.4563 5.79036 28.4648 5.83439 28.4728C5.83944 28.4738 5.84448 28.4747 5.84953 28.4756C6.52829 28.5979 7.17819 28.6124 7.92168 28.4222C7.87974 28.2681 7.84899 28.1535 7.82029 28.0465L7.82023 28.0463C7.80258 27.9805 7.7857 27.9176 7.76747 27.8501L7.76619 27.85L7.76615 27.8499L7.73869 27.8476L7.73725 27.8475C7.61673 27.8372 7.49722 27.8271 7.37838 27.8182L7.37096 27.8176L7.33183 27.292C7.3228 27.1044 7.3142 26.9314 7.30626 26.7718C7.24568 25.554 7.22356 25.1094 7.3453 24.8178C7.38161 24.7308 7.47692 24.6504 7.58497 24.5592C7.68282 24.4766 7.79113 24.3852 7.8755 24.2721C7.88643 24.2574 7.89702 24.2433 7.9073 24.2296C8.02215 24.0764 8.09783 23.9755 8.17006 23.7848C8.22397 23.6426 8.2378 23.5465 8.25712 23.4125L8.25716 23.4122C8.2606 23.3884 8.26421 23.3633 8.26825 23.3366Z" fill="white"/>
<path d="M5.0003 29.8038C5.23736 29.6788 5.47325 29.5538 5.75234 29.4056C5.74263 29.2729 5.73252 29.1415 5.72223 29.0079L5.7222 29.0075L5.72218 29.0072L5.72215 29.0068L5.71954 28.973C5.71338 28.8929 5.70717 28.812 5.70096 28.7295L5.69967 28.7296C5.64777 28.7346 5.60214 28.735 5.5633 28.7354C5.49519 28.736 5.44793 28.7365 5.4242 28.7607C5.3404 28.8454 5.25624 28.9299 5.17206 29.0144L5.17167 29.0148L5.1716 29.0149C4.88687 29.3007 4.60175 29.5869 4.32858 29.8829L4.32028 29.8919C4.21239 30.009 4.10639 30.1276 4.00303 30.2484C3.96758 30.2896 3.94124 30.3441 3.92287 30.4055L3.92274 30.4014C3.88005 30.5408 3.87899 30.7165 3.90596 30.8501C4.06479 31.6494 4.22804 32.4486 4.40916 33.2437C4.45185 33.4311 4.49554 33.6182 4.54039 33.8051C4.56408 33.9038 4.58809 34.0024 4.61246 34.101C4.65761 34.2822 4.71563 34.4521 4.78558 34.6114C5.03542 35.1804 5.43742 35.6136 5.94856 35.9424C5.98302 35.9645 6.01796 35.9862 6.0534 36.0075C6.1067 36.0394 6.16109 36.0703 6.21654 36.1001C6.38152 36.189 6.55577 36.2688 6.73812 36.3405C6.75661 36.3477 6.77518 36.3549 6.79384 36.362C6.81248 36.3691 6.8319 36.374 6.85218 36.3777C6.86291 36.3797 6.87387 36.3813 6.88509 36.3827C6.89905 36.3845 6.9134 36.386 6.92814 36.3874C6.93304 36.3879 6.93798 36.3883 6.94296 36.3888L6.94306 36.3888C6.96705 36.3911 6.99208 36.3934 7.0182 36.397C7.12657 36.397 7.21098 36.38 7.3336 36.3454C7.45879 36.0918 7.59282 35.8373 7.73337 35.5847L7.66865 35.5912C7.58257 35.5998 7.49726 35.6083 7.41242 35.6168C7.27219 35.6307 7.13324 35.6444 6.99414 35.658C7.26708 35.4146 7.57336 35.3473 7.8843 35.3183C8.12123 34.9077 8.37347 34.5045 8.63093 34.1204C8.47949 34.1018 8.32667 34.0924 8.17319 34.087C8.06583 34.0832 7.95814 34.0813 7.85038 34.0795L7.82879 34.0792L7.82796 34.0792C7.52364 34.0742 7.21872 34.0692 6.91884 34.0234C6.88866 34.0188 6.85856 34.0138 6.82848 34.0084L6.82452 34.0076C6.73083 33.9904 6.63768 33.9688 6.54525 33.9414C6.64721 33.9046 6.75031 33.8789 6.85438 33.8612C6.87311 33.8581 6.89187 33.8551 6.91066 33.8525C7.18168 33.8141 7.45903 33.8268 7.73942 33.8397C7.86693 33.8456 7.99507 33.8515 8.12355 33.8526C8.3719 33.8548 8.62153 33.8392 8.87026 33.771C8.99649 33.5907 9.12322 33.4158 9.24929 33.2475L9.22007 33.1445L9.21967 33.1431C9.18889 33.0345 9.15897 32.9289 9.12951 32.8254L9.12824 32.8253L9.12819 32.8252C8.94212 32.8131 8.76412 32.8013 8.59182 32.7898L8.59135 32.7898L8.59123 32.7898L8.58289 32.7893C8.45343 32.7807 8.32718 32.7723 8.20311 32.7642C7.92667 32.7461 7.66107 32.7292 7.39523 32.714C7.35996 32.7121 7.32469 32.7102 7.28941 32.7083C7.24035 32.7056 7.19128 32.703 7.1422 32.7005C6.8508 32.6853 6.55908 32.6716 6.26727 32.6578L6.26656 32.6577L6.26616 32.6577L6.13038 32.6513L6.12955 32.6513C6.03971 32.647 5.94986 32.6427 5.86002 32.6384L5.84953 32.6379L5.82124 32.6365C5.82163 32.6193 5.82189 32.6022 5.82214 32.5852C5.82266 32.5507 5.82318 32.5164 5.82474 32.4816C5.85598 32.4764 5.88733 32.4697 5.91874 32.463L5.9189 32.4629C5.99196 32.4474 6.06541 32.4317 6.13887 32.4341C6.42166 32.4445 6.70444 32.4581 6.98731 32.4716C7.39479 32.4912 7.80243 32.5107 8.21048 32.5209C8.31047 32.5234 8.41153 32.5316 8.51269 32.5398L8.51274 32.5398C8.88179 32.5696 9.25207 32.5996 9.57559 32.3542C9.68435 31.7093 9.53734 31.388 9.05006 31.2988C9.02341 31.2939 8.99574 31.2897 8.96704 31.2861C8.90598 31.2786 8.84024 31.2742 8.76969 31.2727C8.18454 31.2599 7.5994 31.2581 7.01425 31.2563C6.81833 31.2557 6.62241 31.2551 6.42649 31.254L6.42101 31.254C6.20079 31.2529 5.98058 31.2512 5.76037 31.2484C5.72255 31.2481 5.68482 31.2437 5.64715 31.2369C5.58937 31.2264 5.53172 31.2101 5.47414 31.1938C5.43061 31.1816 5.38712 31.1693 5.34362 31.1595C5.34946 31.1097 5.3553 31.0599 5.35997 31.0101H8.96836C9.41561 30.5644 9.30351 30.2206 8.93216 29.8073C8.93186 29.8072 8.93154 29.8072 8.93123 29.8071L8.93084 29.8071C8.5782 29.7513 8.2208 29.7046 7.85991 29.6756C7.74411 29.6664 7.62795 29.6589 7.51148 29.6536C7.03717 29.6318 6.55763 29.6452 6.07571 29.7129C6.03187 29.7191 5.98801 29.7257 5.94413 29.7328C5.92851 29.7353 5.9129 29.7379 5.89728 29.7405C5.72555 29.7696 5.55356 29.8058 5.38144 29.8501C5.30455 29.8698 5.22762 29.8912 5.15069 29.9143C5.12389 29.9224 5.09709 29.9306 5.07029 29.9391C5.05743 29.9431 5.04456 29.9472 5.0317 29.9514C5.02123 29.9018 5.01077 29.8522 5.0003 29.8038Z" fill="white"/>
<path d="M8.81538 35.2045C9.13418 34.7808 9.01624 34.4439 8.66124 34.1244L8.66001 34.1242L8.65992 34.1241C8.65026 34.1229 8.6406 34.1216 8.63093 34.1204C8.37347 34.5045 8.12123 34.9077 7.8843 35.3183C7.97037 35.3103 8.05679 35.3052 8.14296 35.3002C8.37273 35.2866 8.60071 35.2732 8.81538 35.2045Z" fill="white"/>
<path fill-rule="evenodd" clip-rule="evenodd" d="M29.2506 29.0581L29.338 30.4391L32.0672 30.5979L32.0638 30.5987L32.0632 30.5989L32.0612 30.5993C32.0211 30.6088 31.9811 30.6201 31.941 30.6313L31.9409 30.6313C31.8402 30.6595 31.7393 30.6878 31.6378 30.6887C31.3396 30.6924 31.0414 30.6943 30.7431 30.6955C30.6022 30.696 30.4613 30.6965 30.3204 30.6969L30.3164 30.6969H30.3158H30.3152C29.995 30.6979 29.6748 30.6989 29.3546 30.7015L29.4374 32.0083C29.5921 32.0027 29.7467 31.9962 29.9014 31.9892L29.9018 31.9892C30.0496 31.9826 30.1974 31.9756 30.3452 31.9685L30.3457 31.9685L30.346 31.9685L30.346 31.9685L30.3461 31.9685L30.3462 31.9685L30.3486 31.9684L30.361 31.9678C30.4054 31.9657 30.4499 31.9635 30.4943 31.9614C30.743 31.9497 30.9917 31.9383 31.2403 31.9292C31.3177 31.9267 31.3952 31.9431 31.4722 31.9594L31.4722 31.9594L31.4724 31.9594C31.504 31.9661 31.5356 31.9728 31.5671 31.9781L31.5714 31.9789C31.573 32.0153 31.5736 32.0512 31.5741 32.0873C31.5744 32.1052 31.5747 32.1231 31.5751 32.1412L31.5436 32.1427C31.4454 32.1474 31.3471 32.1521 31.2488 32.1567L31.1037 32.1635C30.8852 32.1737 30.6668 32.184 30.4485 32.1947C30.2705 32.2035 30.0926 32.2126 29.9149 32.2224C29.7614 32.2311 29.6079 32.2403 29.4527 32.25L29.5256 33.4014L29.5535 33.4001L29.5536 33.4001C29.7757 33.3899 29.996 33.3799 30.2131 33.3926C30.416 33.4045 30.616 33.4363 30.812 33.5065C30.6003 33.5687 30.385 33.6028 30.168 33.6222C29.9601 33.6408 29.7507 33.6459 29.5413 33.6495L29.6253 34.9762C29.7142 34.9917 29.8023 35.0127 29.8889 35.0422C30.0453 35.0955 30.1967 35.1766 30.3395 35.3031C30.1758 35.2873 30.0124 35.2713 29.8471 35.2549C29.779 35.2482 29.7105 35.2414 29.6416 35.2346L29.6474 35.3259C29.6256 35.2932 29.6036 35.2607 29.5815 35.2286L29.5544 35.2259L29.5313 35.2235L29.45 35.2154C29.3253 35.2029 29.1987 35.1902 29.0694 35.1771C29.0743 35.2183 29.0807 35.2568 29.0885 35.2928C29.112 35.4014 29.148 35.4875 29.1929 35.5576C29.2971 35.7205 29.4494 35.7977 29.6063 35.8735L29.6227 35.8813L29.6229 35.8814C29.6434 35.8913 29.6639 35.9012 29.6845 35.9114C29.6894 35.9138 29.6942 35.9162 29.6991 35.9186C29.7044 35.9213 29.7098 35.924 29.7151 35.9267C29.7394 35.939 29.7637 35.9518 29.7876 35.9654L29.833 35.9789C29.9356 36.0093 30.0138 36.0325 30.0835 36.0486C30.1633 36.0669 30.232 36.076 30.3136 36.076C30.3411 36.0723 30.3674 36.0699 30.3927 36.0675L30.3927 36.0675L30.3928 36.0675C30.45 36.0622 30.5017 36.0573 30.5487 36.0397C30.7714 35.9555 30.983 35.8603 31.1816 35.7524C31.2269 35.7278 31.2716 35.7026 31.3156 35.6767C32.0689 35.2324 32.6172 34.592 32.8476 33.6737C33.1282 32.547 33.3645 31.4095 33.5922 30.2719C33.6328 30.072 33.6131 29.7825 33.4913 29.642C33.104 29.1927 32.6814 28.7715 32.2597 28.3511L32.2588 28.3502C32.1941 28.2857 32.1294 28.2212 32.0648 28.1567C32.041 28.1329 32.0173 28.109 31.9935 28.0852C31.9897 28.0813 31.9852 28.078 31.9802 28.0752L31.9791 28.0746L31.9786 28.0743L31.9776 28.0738C31.977 28.0735 31.9764 28.0732 31.9757 28.0729C31.9479 28.0596 31.9045 28.0592 31.8469 28.0587H31.8468C31.8208 28.0584 31.7919 28.0582 31.7603 28.0567C31.7574 28.0565 31.7546 28.0564 31.7516 28.0562C31.7418 28.0557 31.7318 28.055 31.7214 28.0542C31.715 28.0537 31.7085 28.0532 31.7018 28.0525L31.6982 28.0997L31.6958 28.1315L31.6929 28.1702L31.6909 28.196L31.6878 28.2357L31.6874 28.2412L31.6868 28.249L31.6842 28.2816L31.6795 28.3434L31.6794 28.3437L31.6794 28.3445L31.6737 28.4177C31.6653 28.5268 31.6569 28.6349 31.6489 28.7437L31.6477 28.76L31.6727 28.7732C31.956 28.9225 32.1975 29.0496 32.4403 29.1768C32.4292 29.2276 32.4181 29.2797 32.407 29.3318C32.4027 29.3304 32.3984 29.3291 32.3941 29.3277L32.383 29.3242L32.3822 29.3239L32.3803 29.3233L32.3801 29.3233L32.3794 29.323L32.3705 29.3202L32.3646 29.3184C32.26 29.2856 32.1555 29.2559 32.0509 29.2289C31.8811 29.1851 31.7114 29.1488 31.5419 29.1191C31.4754 29.1074 31.4089 29.0968 31.3425 29.0872C31.3363 29.0863 31.3301 29.0854 31.3239 29.0845C31.3177 29.0836 31.3116 29.0828 31.3055 29.0819C31.2256 29.0707 31.1458 29.061 31.066 29.0526C30.6388 29.0075 30.2136 29.0006 29.7924 29.0198C29.6743 29.0251 29.5566 29.0326 29.4393 29.0418C29.3763 29.0467 29.3134 29.0521 29.2506 29.0581ZM29.338 30.4391L32.0692 30.5975L32.0695 30.5974L32.0722 30.5968L32.0724 30.5968L32.0725 30.5967L32.0768 30.5957L32.0784 30.5954L32.0784 30.5953L32.0761 30.5758C32.0708 30.5302 32.0655 30.4846 32.0612 30.4391H29.338ZM28.4182 33.8652C28.7635 34.1938 29.083 34.5502 29.3784 34.9453C29.2952 34.938 29.2117 34.9332 29.1285 34.9283L29.1284 34.9283L29.1282 34.9283L29.0952 34.9263C28.949 34.9177 28.8037 34.9082 28.662 34.885C28.5798 34.8715 28.4988 34.8534 28.4196 34.8282C28.139 34.458 28.1794 34.1511 28.4182 33.8652ZM29.1716 22.6336C29.415 22.875 29.7008 23.0558 30.0047 23.1604L30.1909 23.2245L30.1907 23.401C30.1906 23.4981 30.1078 25.041 30.1078 25.041L29.8406 27.1062L29.836 27.1065C29.78 27.111 29.7239 27.1156 29.6675 27.1203C29.651 27.1217 29.6345 27.123 29.6179 27.1244L29.5577 27.1295L29.5533 27.1299L31.7067 27.6129L31.7105 27.5356L31.7118 27.5078C31.7167 27.4081 31.7217 27.3069 31.7278 27.1881C31.6334 27.1651 31.5396 27.1461 31.4463 27.1304L31.4438 27.13C31.4152 27.1252 31.3866 27.1208 31.358 27.1166L31.3547 27.1161L31.0862 25.041C31.0862 25.041 30.9785 23.5033 30.9784 23.4062L30.9783 23.2296L31.1678 23.1655C31.477 23.0608 31.7681 22.8799 32.0158 22.6383C32.391 22.2725 32.3927 22.2663 32.3905 21.2523C32.3901 21.046 32.3862 20.8162 32.3801 20.6023C32.3723 20.3313 32.361 20.0857 32.3487 19.9453C32.3343 19.7815 32.3061 19.4234 32.2724 18.9938L32.2656 18.9076L32.2656 18.9069L32.2656 18.9068L32.2655 18.9062L32.2655 18.9061C32.1902 17.9452 32.091 16.6811 32.0552 16.4048L32.0186 16.1214H31.6773V21.457H31.2642V16.1214H30.7876V21.457L30.5846 21.4529H30.3782V16.1201H29.9099V21.4529H29.5041V16.1201H29.1689L29.1329 16.4033C29.1102 16.5815 29.0616 17.1709 29.01 17.8247C28.9817 18.1839 28.9525 18.5625 28.9263 18.9031L28.9263 18.9032L28.9263 18.9034L28.926 18.9061C28.8901 19.3729 28.8596 19.7678 28.8446 19.9422C28.8229 20.1932 28.8044 20.781 28.8035 21.2484C28.8014 22.2617 28.803 22.268 29.1716 22.6336ZM31.3177 28.5382C31.3249 28.4295 31.3321 28.3204 31.3412 28.1903L31.3424 28.1721H29.7616L29.7674 28.2737C29.7726 28.3647 29.7775 28.4515 29.7823 28.5382C29.7845 28.5765 29.7866 28.6148 29.7887 28.6534L29.7904 28.6841L29.7924 28.721H31.3055L31.3061 28.7124C31.3097 28.6587 31.3131 28.6073 31.3165 28.556L31.3172 28.5456L31.3177 28.5382ZM9.24929 33.2475C9.12322 33.4158 8.99649 33.5907 8.87026 33.771C9.02767 33.7279 9.18473 33.6638 9.34088 33.5698C9.30924 33.4589 9.27883 33.3517 9.24929 33.2475ZM7.73337 35.5847C7.59282 35.8373 7.45879 36.0918 7.3336 36.3454C7.37525 36.3337 7.4213 36.3199 7.4742 36.3041L7.47671 36.3034L7.49548 36.2978L7.51733 36.2912C7.56865 36.262 7.62141 36.2364 7.67383 36.2109L7.67443 36.2106L7.6749 36.2104C7.68745 36.2043 7.69998 36.1982 7.71247 36.1921C7.78455 36.1567 7.85512 36.12 7.9194 36.0728C8.05638 35.9722 8.16486 35.8237 8.1988 35.538L8.19744 35.5381L8.19748 35.5377C8.06993 35.5507 7.94516 35.5633 7.82229 35.5757L7.77192 35.5808L7.73337 35.5847Z" fill="white"/>
<path d="M24.0408 36.7223C23.736 36.9088 22.1461 36.1159 22.1461 36.1159C22.1461 36.1159 18.6303 34.483 16.8555 33.6586L16.5778 33.5296C15.9556 33.2405 15.4846 33.0116 15.0124 32.7819L15.0123 32.7819L15.0122 32.7819L15.0122 32.7819L15.0121 32.7818C14.536 32.5503 14.0585 32.3182 13.4231 32.0231C12.2139 32.4772 11.8244 32.2642 11.4477 32.0583C11.1881 31.9163 10.9345 31.7777 10.4228 31.8632C10.2689 32.0175 10.1061 32.1939 9.93786 32.3886C9.93646 32.3973 9.93502 32.406 9.93355 32.4147L9.90949 32.5574L9.79428 32.6447C9.74314 32.6835 9.69133 32.7171 9.63917 32.7463C9.60131 32.7931 9.56329 32.8406 9.52512 32.889L9.52662 32.8942L9.5491 32.9735L9.5494 32.9746L9.55016 32.9772L9.56951 33.0455L9.56977 33.0464C9.60813 33.1817 9.64773 33.3215 9.68993 33.4695L9.76653 33.7382L9.52727 33.8822C9.48434 33.908 9.44139 33.9319 9.39845 33.9541L9.39803 33.9543C9.39466 33.956 9.39129 33.9577 9.38792 33.9594L9.38514 33.9609C9.31857 33.9946 9.25207 34.0241 9.18575 34.0498C9.16237 34.0589 9.13902 34.0675 9.11571 34.0757C9.14033 34.1066 9.16378 34.1387 9.18575 34.1717C9.26193 34.2865 9.3202 34.4142 9.34748 34.5563C9.39085 34.7822 9.34819 35.0006 9.2421 35.2071C9.21094 35.2678 9.17431 35.3274 9.13278 35.3859L9.13125 35.388L9.13109 35.3883C9.12263 35.4001 9.11397 35.412 9.10511 35.4237L9.03538 35.5164L8.92498 35.5517C8.81552 35.5868 8.70628 35.6095 8.60087 35.625C8.59491 35.6259 8.58897 35.6268 8.58303 35.6276C8.57855 35.6282 8.57408 35.6289 8.56961 35.6295L8.56811 35.6297L8.56393 35.6302L8.55921 35.6309L8.55245 35.6318C8.55004 35.6478 8.54741 35.6636 8.54458 35.6791C8.54115 35.698 8.53741 35.7165 8.53337 35.7347C8.5106 35.837 8.4783 35.928 8.43747 36.0093C8.36925 36.1452 8.27723 36.2538 8.16614 36.3418C8.14056 36.3621 8.11469 36.3807 8.08901 36.3978C8.02291 36.4419 7.95802 36.4762 7.90248 36.504L7.89658 36.507C7.86797 36.5212 7.84318 36.5333 7.82071 36.5442L7.82043 36.5443L7.82032 36.5443C7.77355 36.567 7.73679 36.5849 7.69643 36.6079L7.66006 36.6286L7.61993 36.6406C7.60159 36.6461 7.58366 36.6514 7.56608 36.6567L7.56462 36.6572L7.56454 36.6572L7.56195 36.658L7.56062 36.6584C7.53375 36.6664 7.50766 36.6743 7.48213 36.6818C7.36371 36.7165 7.25712 36.7441 7.1386 36.7556C6.84179 37.3408 12.0348 34.8156 17.4339 38.0801C22.8329 41.3447 30.8361 38.8462 30.2869 36.4419C30.0905 36.4381 29.9362 36.3921 29.7398 36.3335L29.7106 36.3248L29.7002 36.3217L29.6817 36.3162L29.6409 36.3042L29.6039 36.2832C29.561 36.2589 29.5217 36.2399 29.4721 36.2161L29.472 36.216C29.4628 36.2116 29.4533 36.207 29.4433 36.2022C29.4276 36.1946 29.4106 36.1863 29.3923 36.1772C29.3101 36.1366 29.2082 36.0828 29.1106 36.006C28.9016 35.8415 28.7575 35.6077 28.7075 35.2615C28.5782 35.2453 28.4425 35.2201 28.3066 35.1769L28.1944 35.1413L28.1237 35.048C27.913 34.7699 27.8104 34.4682 27.8713 34.1533C27.9092 33.9572 28.0051 33.7871 28.1268 33.6396C27.9768 33.589 27.8256 33.5213 27.6747 33.4311L27.4328 33.2866L27.4897 33.0881C26.2352 32.1581 24.6992 31.4237 22.8257 30.5279L22.7435 30.4886C23.2054 30.7095 23.3609 30.9475 23.5753 31.2757L23.5753 31.2758L23.5755 31.276C23.6236 31.3497 23.6748 31.4279 23.733 31.5116C24.148 32.5026 24.3395 33.046 24.3395 34.5165L24.3384 34.5477L24.3384 34.5479L24.3384 34.5482C24.3315 34.7526 24.3437 34.9207 24.4558 35.1239C24.5348 35.2672 24.6063 35.4463 24.6154 35.6673C24.6346 36.1362 24.3457 36.5358 24.0408 36.7223Z" fill="white"/>
<path fill-rule="evenodd" clip-rule="evenodd" d="M11.5965 9.31462C11.3946 9.1848 11.2348 9.10177 11.0915 9.06971C10.841 9.01368 10.6409 9.11335 10.3546 9.391C9.95392 9.57894 9.57311 9.78039 9.20771 9.99657C9.86412 9.03737 10.6711 8.17648 11.6746 7.44706C11.7923 7.36142 11.9106 7.27823 12.0292 7.19751C12.7248 6.97993 13.4457 6.78739 14.1785 6.6292C13.9709 6.75397 13.7754 6.91026 13.598 7.11168C13.6156 7.24302 13.6328 7.37476 13.6491 7.49984C13.6605 7.58696 13.6714 7.67085 13.6818 7.74913C13.2968 8.03781 12.9165 8.32341 12.5379 8.60779L12.5374 8.60822C12.2232 8.84416 11.9102 9.07927 11.5965 9.31462ZM21.6345 6.30556C22.1211 6.49048 22.6016 6.72409 23.0752 7.01061C23.1854 6.87393 23.2646 6.774 23.3552 6.65915C23.3189 6.61999 23.2819 6.58273 23.2442 6.54721C22.7129 6.44774 22.1755 6.36723 21.6345 6.30556Z" fill="white"/>
<path fill-rule="evenodd" clip-rule="evenodd" d="M32.9766 36.2621C35.9285 33.086 37.7904 28.9795 37.4643 23.9996C37.4643 18.548 35.6313 13.602 31.2067 10.0305C29.0096 8.25704 26.2207 7.10445 23.2442 6.54721C22.7129 6.44774 22.1755 6.36723 21.6345 6.30556C20.5215 6.17867 19.3929 6.13147 18.2687 6.16269C16.9206 6.16269 15.5293 6.3376 14.1785 6.6292C13.4457 6.78739 12.7248 6.97993 12.0292 7.19751C11.9106 7.27823 11.7923 7.36142 11.6746 7.44706C10.6711 8.17648 9.86412 9.03737 9.20771 9.99657C9.57311 9.78039 9.95392 9.57894 10.3546 9.391C10.6409 9.11335 10.841 9.01368 11.0915 9.06971C11.2413 9.0091 11.3938 8.95007 11.5493 8.89257C13.8147 8.05506 16.5814 7.56519 18.7551 7.56519C22.6218 7.56519 26.277 8.57653 29.9431 11.5473C33.3071 14.1653 34.9997 17.6592 34.9997 21.7871C34.9997 25.8936 33.0958 30.5475 29.627 33.4807C26.5495 36.0831 22.1389 37.21 18.2495 37.21C13.4496 37.21 7.14101 34.2887 4.60004 30.5648C2.9061 28.0823 2.51052 25.7683 2.51052 23.1145C2.51052 19.1173 3.61979 14.7468 6.80871 11.8002C7.37334 11.2784 7.9537 10.8126 8.57469 10.3958C8.98976 9.61999 9.48387 8.87217 10.0544 8.29676C10.2863 8.06287 10.5208 7.84138 10.7588 7.63224C10.5873 7.69607 10.4181 7.7612 10.2515 7.82747C9.36833 8.17864 8.5418 8.56767 7.76929 9.00153C5.67625 10.177 3.97985 11.6817 2.62856 13.6542C0.631282 16.5697 -6.87353e-05 19.8047 5.61261e-09 23.6428C8.7885e-05 28.5496 1.43963 32.8318 4.60004 35.8658C8.06728 39.4439 13.5556 42.3301 19.1971 42.3301C24.7771 42.3301 29.634 39.8585 32.9766 36.2621Z" fill="white"/>
<path d="M10.3546 9.391C10.6409 9.11335 10.841 9.01368 11.0915 9.06971C10.8382 9.1722 10.5929 9.27921 10.3546 9.391Z" fill="white"/>
<path d="M4.19902 2.98538C3.94308 2.48238 2.85166 1.71413 2.85166 1.71413C2.85166 1.71413 4.76463 0.223555 7.49176 1.21426C9.30321 1.87232 10.1253 5.49058 10.1253 5.49058C10.1253 5.49058 9.17777 4.51398 8.56067 4.65515C7.94357 4.79632 7.87911 4.7325 7.44395 4.70001C6.91182 4.66027 6.60676 4.60087 6.10943 4.40861C5.24089 4.07285 4.19902 2.98538 4.19902 2.98538Z" fill="white"/>
<path d="M5.03865 2.9125C2.77294 2.83611 1.72087 5.45452 1.72087 5.45452C1.72087 5.45452 2.38863 5.53955 2.87733 5.74941C4.046 6.25127 4.27053 6.28789 5.51184 6.05583C6.41887 5.88626 8.52641 5.21443 9.284 5.19292C9.63303 5.183 10.1249 5.49026 10.1249 5.49026C10.1249 5.49026 7.97702 3.01157 5.03865 2.9125Z" fill="white"/>
<path d="M7.42788 15.5145C7.16967 15.0976 7.14786 14.7312 7.2523 14.3625C8.03499 11.6163 9.30886 9.16645 11.6741 7.44706C14.8084 5.16832 18.2455 4.63079 21.934 5.84827C22.4367 6.01366 22.9428 6.21466 23.3548 6.65915C23.2642 6.774 23.185 6.87393 23.0748 7.01061C20.8289 5.65186 18.4292 5.48303 15.9468 6.05386C15.1136 6.24567 14.238 6.38464 13.5976 7.11168C13.6274 7.3345 13.6561 7.55847 13.6814 7.74913C12.9767 8.27747 12.2881 8.79547 11.5961 9.31462C11.012 8.93904 10.7801 8.95512 10.2809 9.46393C9.41215 10.3483 8.81538 11.4073 8.40223 12.5662C8.06597 13.5103 7.77103 14.4705 7.42788 15.5145Z" fill="white"/>
<path d="M25.2689 18.5817C25.2687 18.5854 25.2684 18.5891 25.2681 18.5928C25.2681 18.5929 25.2681 18.5931 25.2681 18.5933C25.249 18.8533 25.2331 19.0694 25.2127 19.3647C25.1211 19.3456 25.0331 19.3272 24.9455 19.3089C24.6779 19.2531 24.4144 19.198 24.0644 19.1255C24.0541 19.1233 24.0436 19.1212 24.0332 19.119C24.0358 19.1172 24.0384 19.1154 24.0411 19.1136C24.0487 19.1083 24.0564 19.1031 24.064 19.0979C24.5096 18.7948 24.8427 18.6592 25.2689 18.5817Z" fill="white"/>
<path fill-rule="evenodd" clip-rule="evenodd" d="M23.9133 36.3902C23.6486 36.5497 21.882 35.7156 21.882 35.7156C21.882 35.7156 18.7911 34.2786 17.2308 33.5531L17.2068 33.542C16.0356 32.9974 14.8577 32.4498 13.6706 31.8979C13.5353 31.8347 13.4779 31.6728 13.5444 31.5395L13.5823 31.4614C13.6465 31.3328 13.8014 31.2788 13.931 31.3385C15.2141 31.9315 16.4884 32.52 17.7643 33.1093L17.8119 33.1313L17.818 33.1341C19.1167 33.7339 20.4171 34.3345 21.7306 34.9415C21.7256 34.6654 21.5483 34.5888 21.3974 34.5236C21.375 34.5139 21.3532 34.5045 21.3326 34.4947C20.441 34.0645 19.5444 33.6475 18.6475 33.2303L18.6469 33.23L18.472 33.1486C17.5366 32.713 16.6012 32.2786 15.667 31.8448L15.6433 31.8338C15.0732 31.569 14.5035 31.3045 13.9344 31.0399C13.8048 30.9802 13.7452 30.8274 13.8014 30.6965C13.8493 30.5857 13.8986 30.476 13.9475 30.3671C14.295 29.5934 14.625 28.8587 14.3565 28.025C14.3255 27.9297 14.3439 27.824 14.4127 27.7517C14.4565 27.7062 14.5001 27.6618 14.543 27.6178C14.7217 27.4352 14.8911 27.262 15.0344 27.0695C15.0708 27.0209 15.1083 26.9721 15.1461 26.9229C15.3551 26.6509 15.5728 26.3677 15.6515 26.0565C15.7046 25.8445 15.7612 25.6329 15.8179 25.4211L15.8179 25.4209L15.818 25.4208C16.062 24.5085 16.3068 23.5935 16.2789 22.6315C16.2779 22.5951 16.2759 22.5584 16.274 22.5217L16.274 22.5216C16.2667 22.3858 16.2594 22.2498 16.3018 22.125C16.3603 21.9539 16.5794 21.9045 16.7182 22.0205L17.1505 22.3819L17.2226 22.4421L17.6794 22.8239L18.0648 23.1461C18.1061 23.1805 18.1359 23.2253 18.1508 23.277C18.3217 23.8903 18.636 24.6311 19.44 25.0492C19.3354 24.875 19.2139 24.71 19.0919 24.5444C18.8165 24.1707 18.5388 23.7938 18.449 23.3011C18.4284 23.1874 18.4777 23.0703 18.5798 23.014C18.5897 23.0085 18.5998 23.003 18.6098 22.9974C18.9152 22.8288 19.2496 22.6442 19.354 22.086C19.0913 22.3134 18.9113 22.4685 18.7403 22.6155C18.7025 22.6488 18.6555 22.6706 18.6061 22.6786C17.9443 22.7797 17.5234 22.5753 17.0623 21.8827C16.9659 21.7391 17.0313 21.5404 17.1953 21.4842L17.4752 21.3854C17.5543 21.3578 17.6438 21.3705 17.7138 21.4175C17.9168 21.5577 18.1072 21.6875 18.2988 21.8172L18.3962 21.7391L18.1428 21.3796C18.0751 21.2832 18.0762 21.1511 18.1531 21.0615C18.5603 20.5826 19.0741 20.3046 19.7417 20.2828C20.3645 20.2621 20.8371 20.0313 21.1571 19.426C21.3366 19.087 21.6405 18.8079 21.9362 18.5363C21.9882 18.4886 22.04 18.441 22.0907 18.3935C22.3983 18.1055 22.7221 17.835 23.0457 17.5646L23.046 17.5644C23.1857 17.4476 23.3254 17.3309 23.4637 17.2128C23.4505 17.1881 23.437 17.1637 23.4236 17.1393C23.4138 17.1217 23.4041 17.1041 23.3945 17.0864C23.3908 17.0795 23.3871 17.0726 23.3834 17.0658L23.3892 17.0641C24.4964 16.7488 25.6037 16.4335 26.72 16.1159C26.876 16.0711 27.0366 16.1779 27.0573 16.3387C27.089 16.5977 27.1188 16.8527 27.1482 17.1045L27.1483 17.1057L27.1484 17.1058C27.2388 17.8808 27.3258 18.6254 27.4564 19.3628C27.5403 19.8367 27.7021 20.2922 27.8619 20.742C28.043 21.2515 28.2214 21.7538 28.2811 22.2675C28.288 22.3375 28.2696 22.4099 28.2238 22.4627C27.9532 22.7778 27.6615 22.7141 27.388 22.6544L27.3879 22.6543C27.3554 22.6472 27.3232 22.6402 27.2913 22.6338C27.1983 22.6155 27.102 22.6476 27.0389 22.7177C26.8428 22.9336 26.86 23.184 26.9563 23.4481C27.0561 23.7272 27.0137 23.9546 26.696 24.1419C26.5094 24.1248 26.3165 24.1073 26.1196 24.0895L26.1022 24.0879L26.0973 24.0875L26.0911 24.0869C25.7656 24.0574 25.4296 24.0269 25.0936 23.996C25.3442 24.2739 25.652 24.2983 25.9566 24.3225C26.0284 24.3282 26.1 24.3339 26.1706 24.3429C26.3897 24.3716 26.587 24.4129 26.6937 24.5737C26.79 24.7184 26.6994 24.9183 26.5308 24.9619L26.3909 24.9987C26.2612 25.032 26.1775 25.1583 26.1947 25.2915C26.2044 25.366 26.2162 25.4405 26.228 25.5151C26.2969 25.9514 26.3665 26.3919 26.0296 26.8558C25.986 26.9156 25.9171 26.9512 25.8437 26.9581C25.6692 26.9734 25.4839 26.99 25.292 27.0071L25.2907 27.0072C24.981 27.0349 24.6538 27.0641 24.3263 27.0924C24.172 27.1051 24.0163 27.1114 23.8606 27.1177C23.5241 27.1313 23.1876 27.1448 22.8661 27.2234C22.093 27.4094 21.6308 27.9332 21.5 28.7406C21.297 29.9925 21.3245 31.2432 21.4564 32.4997C21.6173 32.2844 21.6081 32.0456 21.5984 31.7952C21.5956 31.7224 21.5928 31.6485 21.5941 31.574C21.5987 31.3604 21.8487 31.2352 22.0162 31.3673C22.8442 32.0234 22.9073 33.003 22.9755 34.0611C22.9843 34.1976 22.9931 34.3354 23.0038 34.474C23.4935 33.1061 22.9476 31.6521 21.7696 30.8676C21.6962 30.8183 21.6491 30.7367 21.6491 30.6471V30.3382C21.6824 30.3358 21.7124 30.332 21.7399 30.3284C21.7939 30.3214 21.8382 30.3156 21.8785 30.3255C22.6172 30.5093 23.1047 30.9768 23.3857 31.6762C23.7665 32.6237 23.9512 33.6069 23.9133 34.6291C23.913 34.6382 23.9127 34.6474 23.9124 34.6565L23.9124 34.6567L23.9124 34.657C23.902 34.9636 24.2051 35.2844 24.2712 35.5663C24.3372 35.8481 24.178 36.2308 23.9133 36.3902ZM25.8678 22.6247C25.7531 22.6017 25.6682 22.5041 25.6568 22.3881C25.6052 21.8528 25.6935 21.7701 26.314 21.4371C26.2682 21.5092 26.2259 21.5761 26.1858 21.6393L26.1846 21.6411C26.0976 21.7784 26.0214 21.8986 25.9447 22.0194C25.8736 22.1308 25.8965 22.2766 25.9963 22.3628L26.2555 22.5845C26.2498 22.6034 26.2443 22.6224 26.2389 22.6413C26.2334 22.6603 26.228 22.6792 26.2222 22.6982L25.8678 22.6247ZM23.3364 35.3756C23.2962 35.3377 23.2469 35.3125 23.193 35.3044C23.0875 35.289 22.9795 35.2731 22.8699 35.257L22.853 35.2546L22.8507 35.2542C22.672 35.2279 22.4892 35.2011 22.3064 35.1746C22.3064 35.1298 22.3075 35.0861 22.3086 35.0414V35.0412L22.3087 35.038C23.3742 34.9403 23.614 35.0529 23.8273 35.8454C23.7376 35.7593 23.6585 35.6837 23.5842 35.6129L23.5834 35.6121C23.4975 35.5301 23.4181 35.4544 23.3364 35.3756ZM25.6522 19.5707C25.1039 19.6523 24.5832 19.5385 24.0682 19.3789C23.5532 19.2193 23.5905 19.0979 23.5905 19.0979C23.5905 19.0979 23.846 18.8797 24.0682 18.7544C24.2904 18.629 24.5182 18.5639 24.7539 18.4798C25.2022 18.3199 25.668 18.1538 26.1672 17.9754C25.5739 17.6836 25.121 17.8982 24.6762 18.109C24.396 18.2417 24.1191 18.3729 23.8124 18.3751C24.7311 17.5229 25.5948 17.3414 26.4895 17.8284C26.6581 17.9203 26.6879 18.1638 26.5308 18.2729C26.3166 18.4217 26.2207 18.6652 26.1228 18.9138C26.0409 19.1218 25.9576 19.3333 25.8024 19.4961C25.7634 19.5374 25.7084 19.5627 25.6522 19.5707Z" fill="white"/>
<path d="M6.98417 14.4846C6.90497 14.3424 6.87284 14.2793 6.83381 14.2197C6.79823 14.1658 6.75577 14.1176 6.62837 13.9536C6.45851 14.5913 6.43733 14.6249 6.29731 15.1571C5.73509 15.6534 5.27731 16.0585 4.83301 16.4493C5.31583 13.9797 6.21319 10.6837 8.80215 7.65689C11.3911 4.63004 15.5052 3.61815 19.2383 3.89679C21.7367 4.08327 24.0232 4.95371 25.3369 5.89037C24.7586 6.01564 24.1607 6.14322 23.4275 6.30067C23.4275 6.30067 21.6866 5.11604 19.2383 4.98094C15.193 4.75773 12.4817 5.84827 10.054 8.29676C8.04554 10.3224 6.98417 14.4846 6.98417 14.4846Z" fill="white"/>
<path d="M19.8886 6.89135C21.2389 7.03267 22.2098 7.70252 23.2346 8.12304C23.8403 9.34939 22.881 10.4496 21.2523 11.6603C18.026 14.0585 14.7629 16.1651 11.5675 18.3314C9.74898 17.4527 8.89571 15.9667 9.11564 14.0528C9.16476 13.6253 9.25272 13.3939 9.38524 12.9846C9.81021 11.672 10.7791 10.5641 11.5961 9.73204C12.5692 8.87108 13.0652 8.45115 14.1611 7.88257C14.6903 7.60805 14.9974 7.46729 15.5621 7.2767C16.0251 7.12045 16.2922 7.0502 16.772 6.95783C17.9675 6.72766 18.5383 6.75003 19.8886 6.89135Z" fill="white"/>
<path d="M12.2189 19.362C12.9513 18.7881 13.4288 18.4692 14.3486 17.8418L14.3381 17.8987C13.9307 20.093 13.5359 22.2193 12.7933 24.3659C12.1943 24.1326 11.6618 23.9246 11.1029 23.7074C11.9006 22.2957 12.523 21.0597 12.2189 19.362Z" fill="white"/>
<path d="M18.3758 19.2258C18.0111 18.7061 17.7209 18.2175 17.3551 17.7955C17.1016 17.5046 16.7724 17.2413 16.4238 17.0792C15.8239 16.7998 15.4225 17.0079 15.2734 17.6564C15.0223 18.7521 14.8261 19.8617 14.5899 20.962C14.31 22.2681 14.0164 23.5708 13.7182 24.8735C13.6563 25.1426 13.5508 25.4024 13.4487 25.7186C12.2903 25.5404 11.2627 25.1587 10.1915 24.4458C10.4415 24.2435 10.6216 24.0997 10.8372 23.9261C11.5058 24.1641 12.1791 24.4044 12.9211 24.6689C13.8409 22.2405 14.1919 19.7651 14.7401 17.1792C13.9701 17.7358 13.8326 17.8418 13.3489 18.1611C12.9223 18.4428 12.5117 18.7487 12.0552 19.0718C11.921 18.8752 11.8224 18.7326 11.7031 18.5567C11.9703 18.3716 12.2009 18.2129 12.4303 18.0554C15.4409 15.9743 18.4526 13.8955 21.461 11.8109C21.7305 11.6247 21.9771 11.4051 22.2294 11.1947C22.9267 10.6129 24.0313 9.3175 23.5538 8.36088C24.3944 8.40572 26.9297 9.78398 27.9476 10.593C28.9655 11.402 29.8898 12.7613 29.8898 12.7613C30.516 13.1235 31.3037 13.5609 31.9379 13.9277C31.9368 13.9783 31.9356 14.0289 31.9345 14.0806C27.4925 14.6003 23.2375 15.7386 19.2383 17.9093C18.8552 16.855 18.2565 16.0306 17.3138 15.5132L17.1784 15.6397C17.4399 15.8662 17.7221 16.0743 17.9595 16.325C18.1992 16.5791 18.4251 16.8573 18.5994 17.1597C18.7841 17.4793 18.8999 17.8392 19.0628 18.2232C19.2084 18.1715 19.3667 18.1358 19.5032 18.0634C23.0552 16.1605 26.8457 15.02 30.83 14.4957L30.8811 14.4889C31.3516 14.4267 31.8243 14.3642 32.2969 14.3531C32.5217 14.3473 32.7488 14.4727 32.9747 14.5394L32.961 14.7256C32.4884 14.813 32.0136 14.8946 31.5422 14.9878C29.4985 15.3913 27.4409 15.734 25.4166 16.2203C23.0127 16.7975 20.7419 17.7392 18.651 19.0844C18.5754 19.1327 18.4905 19.1672 18.3758 19.2258Z" fill="white"/>
<path d="M14.1611 27.9079C14.162 28.2318 14.2452 28.4184 14.2567 28.6732C14.2681 28.928 14.1511 29.4439 14.0019 29.8211C13.8762 30.1392 13.7118 30.3402 13.5823 30.6965C13.4931 30.9418 13.4495 31.1237 13.3015 31.3385C13.1107 31.6155 12.7284 31.8619 12.7284 31.8619C12.7284 31.8619 12.3451 32.0339 12.0279 32.0214C11.7067 32.0087 11.6641 31.8619 11.4283 31.7663C10.6459 31.4489 10.0273 31.7458 9.3824 31.0677C9.53386 30.5747 9.48452 30.0839 9.10241 29.6851L7.81036 29.4438C7.79888 29.23 7.78856 29.0484 7.77823 28.8565C8.1569 28.4106 8.52867 27.9715 8.9716 27.4498L9.51867 26.8762C9.29599 26.2868 9.35797 26.0673 9.82054 25.7525C10.1178 25.5503 10.4671 25.2759 10.7862 25.0565C11.5828 25.4814 12.0796 25.6204 12.9944 25.8719C13.2274 25.9099 13.3607 25.9475 13.588 25.8719C13.7953 25.6986 15.4705 17.934 15.4666 17.6267C15.4627 17.3194 15.9236 17.0111 16.4238 17.3078C17.2319 17.7873 17.4614 18.1358 18.3321 19.4896C20.2589 18.2912 21.5816 17.569 23.1398 17.1393L23.2035 17.2575C23.2035 17.2575 22.4644 17.8339 22.3439 17.9271C22.1495 18.0774 21.9268 18.2705 21.7389 18.4692C21.5105 18.7108 21.2854 18.8262 21.1021 19.0751C20.6707 19.6607 20.4344 20.1939 19.2767 20.1277C18.9251 20.1277 18.6336 20.2957 18.3003 20.5419C18.0282 20.7428 17.9492 21.2619 17.7138 21.1796C17.3816 21.0636 16.8357 21.3391 16.8038 21.5623C16.772 21.7855 16.2434 21.8677 16.1033 22.086C15.9633 22.3043 16.0732 22.9902 15.997 23.5638C15.8979 24.3089 15.8782 24.75 15.5946 25.446C15.371 26.3135 15.3225 26.2915 14.989 26.8237C14.7263 27.2429 14.1604 27.6121 14.1611 27.9079Z" fill="white"/>
<path d="M43 32.4397V14.0616L51.664 14.0616C53.1693 14.0616 54.4032 14.2716 55.3659 14.6917C56.3286 15.1118 57.0374 15.7156 57.4925 16.5033C57.9651 17.2734 58.2014 18.1923 58.2014 19.26C58.2014 19.8901 58.0789 20.4502 57.8338 20.9403C57.6063 21.4128 57.3175 21.8067 56.9674 22.1217C56.6349 22.4368 56.3198 22.6643 56.0223 22.8043C56.6874 23.1194 57.2737 23.6357 57.7813 24.3533C58.3064 25.071 58.5689 25.9111 58.5689 26.8738C58.5689 28.029 58.3064 29.0266 57.7813 29.8668C57.2737 30.6894 56.5211 31.3283 55.5234 31.7833C54.5433 32.2209 53.3356 32.4397 51.9003 32.4397H43ZM47.6996 29.0266H51.3752C52.1278 29.0266 52.6967 28.8078 53.0818 28.3703C53.4668 27.9327 53.6594 27.4339 53.6594 26.8738C53.6594 26.2612 53.4581 25.7448 53.0555 25.3248C52.6704 24.9047 52.1103 24.6946 51.3752 24.6946H47.6996V29.0266ZM47.6996 21.3603H51.1389C51.8565 21.3603 52.3904 21.1765 52.7404 20.809C53.108 20.4414 53.2918 19.9688 53.2918 19.3912C53.2918 18.8311 53.108 18.3761 52.7404 18.026C52.3904 17.6584 51.8565 17.4747 51.1389 17.4747H47.6996V21.3603Z" fill="white"/>
<path d="M58.1765 32.4397C58.0365 32.4397 57.3625 32.4397 57.3625 32.4397L57.6514 31.6521L63.8212 14.7967L64.103 14.0616H64.8451H68.7308H69.4695L69.7547 14.7967L75.8982 31.6521C75.9332 31.7221 76.1722 32.4397 76.1722 32.4397H75.3731H72.1438H71.5176L71.3037 31.8884L70.2798 29.2104H63.2698C63.2698 29.2104 62.3072 31.7833 62.2722 31.8884C62.2372 31.9934 62.0808 32.4397 62.0808 32.4397H61.4058H58.1765ZM64.3463 25.4298H69.2296L66.7617 18.4986L64.3463 25.4298Z" fill="white"/>
<path d="M77.0137 32.4916L75.6537 28.6786V14.7698C75.6537 14.5773 75.6537 14.1134 75.6537 14.1134C75.6537 14.1134 76.1175 14.1134 76.3101 14.1134H79.093C79.3906 14.1134 79.684 14.1134 79.684 14.1134C79.684 14.1134 79.9507 14.5423 79.9857 14.6123L86.3918 24.7202V14.7698C86.3918 14.5773 86.3918 14.1134 86.3918 14.1134C86.3918 14.1134 86.8556 14.1134 87.0481 14.1134H90.1987C90.3912 14.1134 90.855 14.1134 90.855 14.1134C90.855 14.1134 90.855 14.5773 90.855 14.7698V31.8352C90.855 32.0102 90.855 32.4916 90.855 32.4916C90.855 32.4916 90.3912 32.4916 90.1987 32.4916H87.3894C87.1094 32.4916 86.8393 32.4916 86.8393 32.4916C86.8393 32.4916 86.558 32.0452 86.523 31.9927L80.117 22.2786V31.8352C80.117 32.0277 80.117 32.4916 80.117 32.4916H77.0137Z" fill="white"/>
<path d="M92.4513 32.4397C92.2588 32.4397 91.7949 32.4397 91.7949 32.4397C91.7949 32.4397 91.7949 31.9759 91.7949 31.7833V14.718C91.7949 14.5254 91.7949 14.0616 91.7949 14.0616C91.7949 14.0616 92.2588 14.0616 92.4513 14.0616H99.2775C100.993 14.0616 102.454 14.3416 103.662 14.9017C104.87 15.4443 105.797 16.2495 106.445 17.3171C107.093 18.3673 107.443 19.6713 107.495 21.2291C107.513 21.9992 107.521 22.6731 107.521 23.2507C107.521 23.8283 107.513 24.4934 107.495 25.246C107.425 26.8738 107.075 28.2215 106.445 29.2892C105.832 30.3569 104.931 31.1532 103.741 31.6783C102.568 32.1859 101.124 32.4397 99.4087 32.4397H92.4513ZM96.4945 28.6591H99.2775C100.03 28.6591 100.651 28.5453 101.142 28.3178C101.649 28.0727 102.025 27.6964 102.27 27.1888C102.533 26.6812 102.673 26.0161 102.691 25.1935C102.726 24.6859 102.743 24.2308 102.743 23.8283C102.761 23.4257 102.761 23.0231 102.743 22.6205C102.743 22.218 102.726 21.7717 102.691 21.2816C102.656 20.0914 102.34 19.225 101.745 18.6824C101.168 18.1223 100.301 17.8422 99.1462 17.8422H96.4945V28.6591Z" fill="white"/>
<path d="M108.982 32.4397C108.79 32.4397 108.326 32.4397 108.326 32.4397C108.326 32.4397 108.326 31.9759 108.326 31.7833V14.718C108.326 14.5254 108.326 14.0616 108.326 14.0616C108.326 14.0616 108.79 14.0616 108.982 14.0616L120.749 14.0615L121.899 15.6901V17.1859C121.899 17.3784 121.899 17.8422 121.899 17.8422C121.899 17.8422 121.436 17.8422 121.243 17.8422H112.868V21.3866H120.666C120.858 21.3866 121.322 21.3866 121.322 21.3866C121.322 21.3866 121.322 21.8767 121.322 22.0692V24.3533C121.322 24.5284 121.322 25.0097 121.322 25.0097C121.322 25.0097 120.858 25.0097 120.666 25.0097H112.868V28.6591H121.972V32.4397H108.982Z" fill="white"/>
<path d="M126.582 32.4397C125.69 32.4397 121.972 32.4397 121.972 32.4397V28.6591C121.972 28.6591 127.749 28.9638 128.632 28.0815C129.209 27.5039 129.612 26.6637 129.839 25.561L131.441 17.9735H127.201H126.582L123.775 14.0615L136.482 14.0616C136.674 14.0616 136.814 14.1228 136.902 14.2454C137.007 14.3679 137.042 14.5254 137.007 14.718L134.67 25.6923C134.373 27.2151 133.856 28.5015 133.121 29.5517C132.404 30.5844 131.458 31.372 130.286 31.9146C129.131 32.4397 128.263 32.4397 126.582 32.4397Z" fill="white"/>
<path d="M142.598 17.0263L136.3 32.3568C136.229 32.5712 136.103 32.7409 135.925 32.866C135.746 32.9911 135.559 33.0536 135.362 33.0536C135.023 33.0536 134.772 32.9643 134.612 32.7856C134.451 32.6069 134.37 32.3925 134.37 32.1424C134.352 32.0173 134.37 31.8833 134.424 31.7403L141.366 14.8554C141.455 14.6053 141.589 14.4266 141.768 14.3194C141.964 14.1943 142.178 14.1407 142.411 14.1586C142.643 14.1586 142.849 14.2211 143.027 14.3462C143.224 14.4713 143.358 14.641 143.429 14.8554L150.344 31.5795C150.398 31.7225 150.424 31.8654 150.424 32.0083C150.424 32.33 150.317 32.589 150.103 32.7856C149.888 32.9643 149.647 33.0536 149.379 33.0536C149.165 33.0536 148.968 32.9911 148.79 32.866C148.611 32.7409 148.477 32.5622 148.387 32.33L142.009 16.9995L142.598 17.0263ZM137.64 27.9881L138.551 25.8976H146.511L146.913 27.9881H137.64ZM158.48 18.9293C159.695 18.9293 160.785 19.233 161.749 19.8405C162.714 20.448 163.474 21.2878 164.028 22.3598C164.599 23.4319 164.885 24.6648 164.885 26.0584C164.885 27.4342 164.599 28.6671 164.028 29.757C163.474 30.8291 162.714 31.6778 161.749 32.3032C160.802 32.9107 159.73 33.2144 158.533 33.2144C157.872 33.2144 157.247 33.1161 156.657 32.9196C156.085 32.7052 155.558 32.4372 155.076 32.1156C154.611 31.7761 154.218 31.4008 153.897 30.9899C153.575 30.5611 153.343 30.1412 153.2 29.7302L153.789 29.355V37.2614C153.789 37.5652 153.691 37.8243 153.495 38.0387C153.298 38.2531 153.039 38.3603 152.717 38.3603C152.414 38.3603 152.155 38.2531 151.94 38.0387C151.744 37.8421 151.645 37.583 151.645 37.2614V20.1353C151.645 19.8316 151.744 19.5814 151.94 19.3849C152.155 19.1705 152.414 19.0633 152.717 19.0633C153.039 19.0633 153.298 19.1705 153.495 19.3849C153.691 19.5814 153.789 19.8316 153.789 20.1353V22.5206L153.387 22.3062C153.512 21.8595 153.727 21.4307 154.031 21.0198C154.352 20.6088 154.736 20.2515 155.183 19.9477C155.648 19.6261 156.157 19.3759 156.711 19.1973C157.283 19.0186 157.872 18.9293 158.48 18.9293ZM158.238 20.9126C157.345 20.9126 156.55 21.1359 155.853 21.5826C155.174 22.0293 154.638 22.6368 154.245 23.4051C153.87 24.1734 153.682 25.0578 153.682 26.0584C153.682 27.0411 153.87 27.9256 154.245 28.7118C154.638 29.4979 155.174 30.1144 155.853 30.5611C156.55 31.0078 157.345 31.2311 158.238 31.2311C159.132 31.2311 159.918 31.0078 160.597 30.5611C161.276 30.1144 161.812 29.4979 162.205 28.7118C162.598 27.9256 162.795 27.0411 162.795 26.0584C162.795 25.0578 162.598 24.1734 162.205 23.4051C161.812 22.6368 161.276 22.0293 160.597 21.5826C159.918 21.1359 159.132 20.9126 158.238 20.9126ZM173.603 18.9293C174.818 18.9293 175.908 19.233 176.872 19.8405C177.837 20.448 178.597 21.2878 179.15 22.3598C179.722 23.4319 180.008 24.6648 180.008 26.0584C180.008 27.4342 179.722 28.6671 179.15 29.757C178.597 30.8291 177.837 31.6778 176.872 32.3032C175.925 32.9107 174.853 33.2144 173.656 33.2144C172.995 33.2144 172.37 33.1161 171.78 32.9196C171.208 32.7052 170.681 32.4372 170.199 32.1156C169.734 31.7761 169.341 31.4008 169.02 30.9899C168.698 30.5611 168.466 30.1412 168.323 29.7302L168.912 29.355V37.2614C168.912 37.5652 168.814 37.8243 168.618 38.0387C168.421 38.2531 168.162 38.3603 167.84 38.3603C167.537 38.3603 167.277 38.2531 167.063 38.0387C166.867 37.8421 166.768 37.583 166.768 37.2614V20.1353C166.768 19.8316 166.867 19.5814 167.063 19.3849C167.277 19.1705 167.537 19.0633 167.84 19.0633C168.162 19.0633 168.421 19.1705 168.618 19.3849C168.814 19.5814 168.912 19.8316 168.912 20.1353V22.5206L168.51 22.3062C168.635 21.8595 168.85 21.4307 169.154 21.0198C169.475 20.6088 169.859 20.2515 170.306 19.9477C170.771 19.6261 171.28 19.3759 171.834 19.1973C172.405 19.0186 172.995 18.9293 173.603 18.9293ZM173.361 20.9126C172.468 20.9126 171.673 21.1359 170.976 21.5826C170.297 22.0293 169.761 22.6368 169.368 23.4051C168.993 24.1734 168.805 25.0578 168.805 26.0584C168.805 27.0411 168.993 27.9256 169.368 28.7118C169.761 29.4979 170.297 30.1144 170.976 30.5611C171.673 31.0078 172.468 31.2311 173.361 31.2311C174.255 31.2311 175.041 31.0078 175.72 30.5611C176.399 30.1144 176.935 29.4979 177.328 28.7118C177.721 27.9256 177.918 27.0411 177.918 26.0584C177.918 25.0578 177.721 24.1734 177.328 23.4051C176.935 22.6368 176.399 22.0293 175.72 21.5826C175.041 21.1359 174.255 20.9126 173.361 20.9126Z" fill="white"/>
</svg>
