<svg width="200" height="433" viewBox="0 0 200 433" fill="none" xmlns="http://www.w3.org/2000/svg">
<g clip-path="url(#clip0_471_2)">
<rect width="200" height="432.71" rx="22" fill="white"/>
<g filter="url(#filter0_d_471_2)">
<rect y="400.935" width="200" height="31.7757" fill="white"/>
</g>
<line x1="100" y1="400.869" x2="200" y2="400.869" stroke="#CCCCCC" stroke-width="2"/>
<path d="M156.511 422.871C158.159 422.094 159.412 420.912 160.248 419.532C160.592 418.963 160.196 418.212 159.523 418.21C158.244 418.204 156.981 417.913 155.827 417.359C154.673 416.805 153.658 416 152.854 415.004C152.047 414.011 151.471 412.85 151.169 411.606C150.866 410.362 150.845 409.067 151.105 407.814C151.235 407.161 150.597 406.607 149.968 406.837C149.059 407.149 148.183 407.624 147.394 408.263C143.315 411.566 143.016 417.813 147.073 421.472C149.624 423.781 153.402 424.339 156.511 422.871V422.871Z" fill="#CCCCCC"/>
<path d="M49.7665 409.898C49.4956 409.898 49.2688 409.806 49.0859 409.623C48.9024 409.44 48.8106 409.213 48.8106 408.942V407.031C48.8106 406.76 48.9024 406.533 49.0859 406.349C49.2688 406.166 49.4956 406.075 49.7665 406.075C50.0373 406.075 50.2644 406.166 50.448 406.349C50.6308 406.533 50.7223 406.76 50.7223 407.031V408.942C50.7223 409.213 50.6308 409.44 50.448 409.623C50.2644 409.806 50.0373 409.898 49.7665 409.898ZM54.4978 411.857C54.3225 411.682 54.2349 411.463 54.2349 411.2C54.2349 410.937 54.3225 410.71 54.4978 410.519L55.8359 409.157C56.0271 408.966 56.2539 408.871 56.5165 408.871C56.7796 408.871 57.0068 408.966 57.198 409.157C57.3732 409.333 57.4608 409.556 57.4608 409.826C57.4608 410.097 57.3732 410.32 57.198 410.495L55.8359 411.857C55.6607 412.033 55.4377 412.12 55.1668 412.12C54.896 412.12 54.673 412.033 54.4978 411.857V411.857ZM57.413 417.545C57.1422 417.545 56.9154 417.453 56.7325 417.269C56.549 417.086 56.4572 416.86 56.4572 416.589C56.4572 416.318 56.549 416.091 56.7325 415.907C56.9154 415.724 57.1422 415.633 57.413 415.633H59.3247C59.5955 415.633 59.8223 415.724 60.0052 415.907C60.1887 416.091 60.2805 416.318 60.2805 416.589C60.2805 416.86 60.1887 417.086 60.0052 417.269C59.8223 417.453 59.5955 417.545 59.3247 417.545H57.413ZM49.7665 427.103C49.4956 427.103 49.2688 427.011 49.0859 426.828C48.9024 426.645 48.8106 426.418 48.8106 426.147V424.235C48.8106 423.965 48.9024 423.738 49.0859 423.555C49.2688 423.371 49.4956 423.28 49.7665 423.28C50.0373 423.28 50.2644 423.371 50.448 423.555C50.6308 423.738 50.7223 423.965 50.7223 424.235V426.147C50.7223 426.418 50.6308 426.645 50.448 426.828C50.2644 427.011 50.0373 427.103 49.7665 427.103ZM43.697 411.857L42.335 410.519C42.1438 410.328 42.0482 410.097 42.0482 409.826C42.0482 409.556 42.1438 409.333 42.335 409.157C42.5102 408.982 42.7332 408.894 43.004 408.894C43.2749 408.894 43.4979 408.982 43.6731 409.157L45.0352 410.519C45.2104 410.695 45.298 410.918 45.298 411.188C45.298 411.459 45.2104 411.682 45.0352 411.857C44.844 412.033 44.621 412.12 44.3661 412.12C44.1112 412.12 43.8882 412.033 43.697 411.857V411.857ZM55.8359 424.02L54.4978 422.658C54.3225 422.467 54.2349 422.24 54.2349 421.978C54.2349 421.715 54.3225 421.495 54.4978 421.32C54.673 421.145 54.8922 421.057 55.1554 421.057C55.4179 421.057 55.6448 421.145 55.8359 421.32L57.198 422.658C57.3891 422.833 57.4806 423.056 57.4723 423.327C57.4646 423.598 57.3732 423.829 57.198 424.02C57.0068 424.211 56.7758 424.307 56.505 424.307C56.2342 424.307 56.0112 424.211 55.8359 424.02ZM40.2083 417.545C39.9374 417.545 39.7106 417.453 39.5277 417.269C39.3442 417.086 39.2524 416.86 39.2524 416.589C39.2524 416.318 39.3442 416.091 39.5277 415.907C39.7106 415.724 39.9374 415.633 40.2083 415.633H42.1199C42.3907 415.633 42.6179 415.724 42.8014 415.907C42.9843 416.091 43.0757 416.318 43.0757 416.589C43.0757 416.86 42.9843 417.086 42.8014 417.269C42.6179 417.453 42.3907 417.545 42.1199 417.545H40.2083ZM42.335 424.02C42.1597 423.845 42.0721 423.622 42.0721 423.351C42.0721 423.08 42.1597 422.857 42.335 422.682L43.697 421.32C43.8722 421.145 44.0914 421.057 44.3546 421.057C44.6171 421.057 44.844 421.145 45.0352 421.32C45.2263 421.511 45.3219 421.738 45.3219 422.002C45.3219 422.264 45.2263 422.491 45.0352 422.682L43.697 424.02C43.5058 424.211 43.2749 424.307 43.004 424.307C42.7332 424.307 42.5102 424.211 42.335 424.02V424.02ZM49.7665 422.324C48.1734 422.324 46.8193 421.766 45.7042 420.651C44.5891 419.536 44.0315 418.182 44.0315 416.589C44.0315 414.996 44.5891 413.642 45.7042 412.527C46.8193 411.411 48.1734 410.854 49.7665 410.854C51.3595 410.854 52.7136 411.411 53.8287 412.527C54.9438 413.642 55.5014 414.996 55.5014 416.589C55.5014 418.182 54.9438 419.536 53.8287 420.651C52.7136 421.766 51.3595 422.324 49.7665 422.324ZM49.7665 420.412C50.8179 420.412 51.7179 420.038 52.4667 419.289C53.2154 418.54 53.5897 417.64 53.5897 416.589C53.5897 415.537 53.2154 414.637 52.4667 413.889C51.7179 413.14 50.8179 412.766 49.7665 412.766C48.7151 412.766 47.815 413.14 47.0663 413.889C46.3175 414.637 45.9432 415.537 45.9432 416.589C45.9432 417.64 46.3175 418.54 47.0663 419.289C47.815 420.038 48.7151 420.412 49.7665 420.412ZM49.7665 420.412C48.7151 420.412 47.815 420.038 47.0663 419.289C46.3175 418.54 45.9432 417.64 45.9432 416.589C45.9432 415.537 46.3175 414.637 47.0663 413.889C47.815 413.14 48.7151 412.766 49.7665 412.766C50.8179 412.766 51.7179 413.14 52.4667 413.889C53.2154 414.637 53.5897 415.537 53.5897 416.589C53.5897 417.64 53.2154 418.54 52.4667 419.289C51.7179 420.038 50.8179 420.412 49.7665 420.412Z" fill="#CCCCCC"/>
<g filter="url(#filter1_d_471_2)">
<rect x="21.0278" y="327.103" width="157.477" height="30.3738" rx="15.1869" fill="#F4F4F4"/>
</g>
<path d="M44.2688 335.572C44.3929 335.525 44.4942 335.432 44.5512 335.313C44.6083 335.193 44.6167 335.056 44.5748 334.93C44.5328 334.804 44.4438 334.7 44.3263 334.638C44.2088 334.576 44.0721 334.563 43.9448 334.6C42.9828 334.92 42.3829 335.71 42.0312 336.556C41.9835 336.67 41.9397 336.786 41.8999 336.903C41.7081 336.539 41.4627 336.206 41.1718 335.916C40.7777 335.521 40.3069 335.21 39.7884 335.004C39.2699 334.798 38.7147 334.7 38.1569 334.716C37.8712 334.724 37.5994 334.84 37.3972 335.042C37.195 335.244 37.0779 335.516 37.0699 335.802C37.0537 336.36 37.1518 336.915 37.3581 337.433C37.5645 337.952 37.8747 338.423 38.2697 338.817L38.3025 338.848C37.4411 339.034 36.6626 339.493 36.0823 340.156C35.502 340.82 35.1507 341.653 35.0804 342.531L35.0743 342.607C34.9389 344.296 35.2988 345.988 36.11 347.476L36.4782 348.151C36.4884 348.168 36.4987 348.186 36.511 348.202L37.5365 349.64C37.7689 349.965 38.0694 350.236 38.4172 350.434C38.7649 350.631 39.1516 350.751 39.5502 350.784C39.9488 350.817 40.3498 350.763 40.7253 350.625C41.1008 350.487 41.4418 350.269 41.7246 349.986C41.768 349.943 41.8195 349.909 41.8763 349.885C41.933 349.861 41.9939 349.849 42.0553 349.849C42.1167 349.849 42.1775 349.861 42.2343 349.885C42.291 349.909 42.3426 349.943 42.386 349.986C42.6688 350.269 43.0098 350.487 43.3853 350.625C43.7608 350.763 44.1618 350.817 44.5604 350.784C44.959 350.751 45.3456 350.631 45.6934 350.434C46.0411 350.236 46.3417 349.965 46.5741 349.64L47.5996 348.203C47.6119 348.186 47.6232 348.169 47.6334 348.151L48.0006 347.476C48.8121 345.988 49.1724 344.296 49.0373 342.607L49.0312 342.531C48.9858 341.965 48.8233 341.414 48.554 340.914C48.2847 340.414 47.9145 339.975 47.4668 339.626C47.0191 339.276 46.5037 339.023 45.9532 338.883C45.4027 338.744 44.8291 338.719 44.2688 338.813L42.5685 339.096C42.5788 338.397 42.7019 337.612 42.9767 336.949C43.2649 336.257 43.6915 335.765 44.2688 335.572ZM38.885 341.725C38.7277 341.775 38.5819 341.855 38.4559 341.962C38.3299 342.068 38.2262 342.199 38.1507 342.345C37.96 342.702 37.8308 343.291 37.9508 344.252C37.9676 344.387 37.9301 344.523 37.8466 344.631C37.763 344.738 37.6402 344.808 37.5052 344.825C37.3701 344.841 37.2339 344.804 37.1265 344.72C37.0191 344.637 36.9493 344.514 36.9324 344.379C36.7971 343.288 36.9232 342.466 37.2462 341.862C37.5744 341.247 38.0738 340.915 38.5609 340.752C38.69 340.709 38.8309 340.719 38.9526 340.779C39.0743 340.84 39.167 340.947 39.2101 341.076C39.2532 341.205 39.2432 341.346 39.1825 341.468C39.1217 341.589 39.0151 341.682 38.886 341.725H38.885Z" fill="#CCCCCC"/>
<line x1="61.6494" y1="353.238" x2="61.6494" y2="331.808" stroke="black" stroke-opacity="0.15" stroke-linecap="round"/>
<g filter="url(#filter2_d_471_2)">
<rect x="21.0278" y="283.178" width="157.477" height="30.3738" rx="15.1869" fill="#F4F4F4"/>
</g>
<line x1="61.6494" y1="309.313" x2="61.6494" y2="287.883" stroke="black" stroke-opacity="0.15" stroke-linecap="round"/>
<g filter="url(#filter3_d_471_2)">
<rect x="21.0278" y="239.252" width="157.477" height="30.3738" rx="15.1869" fill="#F4F4F4"/>
</g>
<path d="M45.3857 251.446C45.1732 250.814 44.849 250.587 44.4741 250.587C44.0171 250.587 43.484 250.923 42.9828 251.27C42.6845 251.478 41.5298 252.753 40.9001 252.753C40.8279 252.755 40.757 252.734 40.6975 252.693C40.0827 252.258 40.853 250.362 40.853 249.452C40.853 248.572 40.6931 248.236 40.4481 248.236C39.7709 248.236 38.4443 250.814 38.0744 251.558C37.97 251.768 37.8244 251.851 37.6553 251.851C37.0643 251.851 36.1852 250.835 35.7814 250.679C35.7212 250.654 35.657 250.641 35.592 250.64C34.9173 250.64 34.9319 252.318 34.9421 252.764C35.3109 252.663 35.6566 252.601 35.9589 252.601C36.7208 252.601 37.2052 252.995 37.0789 254.154C37.0504 254.414 36.8858 255.243 37.1552 255.426C37.1984 255.455 37.2493 255.469 37.3009 255.467C37.6115 255.467 38.1036 255.084 38.2865 254.967C38.5326 254.809 38.7907 254.694 39.009 254.694C39.2719 254.694 39.477 254.861 39.5358 255.323C39.5709 255.596 39.4369 256.637 39.7048 256.803C39.7442 256.826 39.7893 256.839 39.8352 256.838C40.3298 256.838 41.1743 255.602 41.5565 255.46C41.7359 255.394 41.9259 255.36 42.1172 255.361C42.6258 255.361 43.1095 255.585 43.6042 255.775C43.6874 255.807 43.7553 255.821 43.8104 255.821C44.1094 255.821 44.0225 255.406 43.7666 255.141C43.3939 254.752 42.8025 254.923 42.3877 254.644C41.8609 254.291 42.5944 253.581 42.8791 253.37C43.219 253.118 43.9725 252.714 44.5738 252.714C44.8523 252.714 45.098 252.8 45.2543 253.029C45.5496 253.461 45.0582 254.006 45.1824 254.491C45.2346 254.692 45.3609 254.762 45.5106 254.762C45.8293 254.762 46.2516 254.447 46.2809 254.417C46.4751 254.215 46.6841 254.028 46.9062 253.857C45.7964 253.612 45.7022 252.39 45.3857 251.446" fill="#CCCCCC"/>
<path d="M36.2864 250.536C36.2864 250.536 37.2462 251.383 37.6562 251.383C37.7347 251.383 37.7935 251.352 37.8208 251.277C38.4108 249.661 39.6582 247.815 40.4727 247.815C40.8279 247.815 41.1006 248.167 41.1999 249.043C41.3284 250.177 40.5439 251.896 40.921 252.288C40.9292 252.296 40.9391 252.303 40.95 252.307C40.9608 252.311 40.9725 252.313 40.9842 252.313C41.408 252.313 43.0826 250.168 44.5159 250.168C44.6262 250.168 44.7361 250.182 44.843 250.209C46.1342 250.54 45.5746 252.742 46.6227 253.371C46.7962 253.476 46.9952 253.533 47.1984 253.535C47.5846 253.535 47.9373 253.314 48.0216 252.859C48.2345 251.71 44.5845 249.482 46.5592 249.482C46.8424 249.482 47.2415 249.528 47.784 249.629C48.1071 247.416 47.9942 246.802 47.7051 246.802C47.3755 246.802 46.8162 247.599 46.4091 247.736C46.3973 247.74 46.385 247.742 46.3726 247.742C46.1401 247.742 46.1481 246.905 45.7502 246.905C45.4931 246.905 45.0671 247.254 44.2983 248.403C43.9018 248.995 43.605 249.23 43.3706 249.23C42.4791 249.23 42.5043 245.82 41.4347 245.82C41.2185 245.82 40.9579 245.959 40.6359 246.293C40.1416 246.806 39.6801 246.988 39.2483 246.988C38.1965 246.988 37.3251 245.908 36.6106 245.908C36.3288 245.908 36.0707 246.076 35.8363 246.546C35.3511 247.521 36.994 247.471 36.2864 250.536M37.5434 250.975C37.3514 250.889 37.0104 250.658 36.6906 250.395C36.7497 250.106 36.7862 249.846 36.8074 249.606C36.8976 249.455 37.0086 249.306 37.144 249.168C37.6956 248.606 38.4024 248.428 38.7488 248.753C38.2549 249.434 37.8201 250.267 37.5434 250.975M45.652 249.524C45.4716 249.951 45.8224 250.402 46.3595 250.99C46.322 251.031 46.2784 251.066 46.2302 251.094C46.1791 251.122 46.1236 251.142 46.0659 251.152C45.8951 250.575 45.6085 250.021 44.932 249.848C44.8326 249.823 44.7312 249.808 44.629 249.803C44.4458 249.207 44.5308 248.647 44.878 248.454C45.2606 248.24 45.8184 248.546 46.1992 249.139C45.9871 249.18 45.7564 249.278 45.652 249.524" fill="#CCCCCC"/>
<path d="M48.3665 252.867C48.2866 253.39 49.0459 253.483 48.683 254.339C48.4968 254.777 46.9201 255.786 47.0362 256.006C47.2082 256.33 47.4148 256.455 47.624 256.455C48.038 256.455 48.4596 255.964 48.6294 255.538C48.8517 254.981 48.909 253.52 49.4508 253.249C49.5424 253.203 49.6329 253.182 49.7224 253.182C50.2572 253.182 50.757 253.906 51.2389 254.003C51.3564 253.48 51.2725 252.937 51.3922 252.41C49.358 252.385 52.5225 249.605 50.7143 248.47C50.6168 248.409 50.535 248.382 50.4635 248.382C49.8943 248.382 50.0269 250.125 48.5888 250.125C48.4742 250.125 48.349 250.114 48.2128 250.09C47.6868 249.997 47.3235 249.954 47.0859 249.954C45.7008 249.955 48.591 251.412 48.3665 252.867" fill="#CCCCCC"/>
<path d="M51.9698 250.136C52.0217 249.823 52.0244 249.503 51.9779 249.188C51.8472 248.313 51.1627 247.6 50.4522 247.6C50.2095 247.6 49.6283 247.701 49.3534 248.563C49.1685 248.486 48.9819 248.413 48.7937 248.344C48.9562 247.251 48.8952 246.502 48.6035 246.119C48.5332 246.023 48.4412 245.945 48.335 245.891C48.2289 245.838 48.1116 245.81 47.9927 245.81C47.6109 245.81 47.1819 246.066 46.6489 246.613L46.6296 246.561C46.5164 246.255 46.3273 245.743 45.8199 245.743C45.473 245.743 45.0138 245.957 44.0485 247.364C43.7686 247.343 43.4883 247.328 43.2078 247.319L43.1559 247.131C42.8548 246.025 42.513 244.772 41.5504 244.771H41.55C41.1575 244.771 40.7446 245.003 40.2872 245.478C39.9466 245.832 39.6096 246.004 39.2566 246.004C38.8262 246.004 38.3856 245.757 37.9592 245.518C37.528 245.277 37.0826 245.028 36.6219 245.028C36.0758 245.028 35.6318 245.363 35.2646 246.052C34.8451 246.839 35.0784 247.359 35.304 247.862C35.4026 248.081 35.5059 248.314 35.5793 248.599C33.1344 249.649 31.5708 251.239 31.5708 253.022C31.5708 257.962 36.4744 263.756 42.5229 263.756C48.5717 263.756 53.475 257.962 53.475 253.022C53.475 251.968 52.9208 250.984 51.9698 250.136ZM42.5229 263.011C37.919 263.011 34.0478 259.399 32.7602 255.616C34.5706 257.473 38.2611 258.746 42.5229 258.746C46.7847 258.746 50.4745 257.473 52.2849 255.616C50.9973 259.398 47.1264 263.011 42.5229 263.011ZM46.588 256.628C46.5 256.905 46.2265 257.325 45.8874 257.621C45.3639 258.078 44.7257 258.176 44.4216 257.857C44.1661 257.588 44.2081 257.087 44.5016 256.619C45.1025 255.659 45.9641 255.449 46.3379 255.639C46.3306 255.665 46.3204 255.69 46.3153 255.718C46.2634 256.01 46.3572 256.316 46.588 256.628M52.1984 251.937C51.841 251.937 51.669 252.927 51.6434 253.55C51.6208 254.099 51.4624 254.282 51.2357 254.282C50.9093 254.282 50.4413 253.903 50.0328 253.689C49.9021 253.621 49.8017 253.59 49.7228 253.59C49.4888 253.59 49.4461 253.864 49.3658 254.251C49.2303 254.904 49.069 255.582 48.7149 256.145C48.4549 256.558 48.053 256.846 47.6503 256.846C47.3856 256.846 47.1206 256.722 46.895 256.428C46.0079 255.275 47.9566 255.039 48.345 254.249C48.5699 253.792 48.498 253.633 48.2921 253.633C47.8869 253.633 46.9629 254.251 46.7723 254.426C46.4357 254.734 46.0491 255.187 45.576 255.187C45.496 255.187 45.4132 255.174 45.3277 255.145C44.8258 254.976 44.7553 254.344 44.8615 253.875C44.9499 253.483 45.1532 253.131 44.629 253.111C44.6105 253.11 44.592 253.11 44.5735 253.11C44.2358 253.11 43.8908 253.221 43.5845 253.359C43.2129 253.528 42.6989 253.83 42.5642 254.272C42.5222 254.409 43.4235 254.551 43.5637 254.605C44.2661 254.879 44.6096 256.201 43.8748 256.201C43.7798 256.201 43.667 256.179 43.5345 256.131C43.0738 255.959 42.6105 255.716 42.1283 255.716C41.9698 255.716 41.8096 255.742 41.6471 255.806C41.3105 255.938 41.1265 256.315 40.8615 256.551C40.4694 256.903 40.1226 257.092 39.8502 257.092C39.4749 257.092 39.2413 256.733 39.2263 255.944C39.2132 255.303 39.0901 255.095 38.8912 255.095C38.5363 255.095 37.9405 255.758 37.3006 255.807C37.282 255.808 37.2641 255.809 37.2469 255.809C36.393 255.809 36.7252 254.185 36.7917 253.685C36.8643 253.139 36.535 252.945 36.0279 252.945C35.4581 252.945 34.6655 253.19 33.9675 253.455C34.0011 253.485 34.0361 253.511 34.0682 253.544C34.7071 254.182 34.917 255.022 34.5385 255.421C34.1591 255.818 33.3345 255.624 32.6963 254.985C32.0582 254.347 31.8475 253.506 32.2268 253.109C32.5506 252.766 33.0541 252.881 33.4823 253.11C34.042 252.922 34.6096 252.758 34.5965 252.493C34.4968 250.494 35.0638 250.121 35.5015 250.122C35.6684 250.126 35.8316 250.171 35.9765 250.254C36.3715 247.71 34.8897 247.537 35.5858 246.231C35.9155 245.613 36.2598 245.402 36.6226 245.402C37.4028 245.402 38.2684 246.377 39.2574 246.377C39.6659 246.377 40.0956 246.21 40.5486 245.739C40.9549 245.317 41.282 245.145 41.5511 245.145C42.7547 245.145 42.7868 248.602 43.475 248.602C43.6072 248.602 43.7638 248.474 43.9569 248.171C44.9663 246.585 45.5033 246.116 45.8202 246.116C46.2824 246.116 46.2762 247.115 46.5818 247.115C46.6445 247.115 46.7212 247.072 46.8176 246.97C47.3247 246.43 47.7149 246.183 47.9931 246.183C48.6491 246.183 48.6816 247.556 48.1472 249.695C48.1472 249.695 48.2666 249.725 48.4414 249.725C48.8142 249.725 49.4373 249.588 49.6812 248.732C49.8349 248.194 50.1339 247.972 50.453 247.972C50.9568 247.972 51.5098 248.524 51.6175 249.245C51.8136 250.561 50.9451 251.494 51.013 251.891C51.0247 251.962 51.0593 251.99 51.1112 251.99C51.3058 251.99 51.7427 251.594 52.1242 251.594C52.4086 251.594 52.6627 251.814 52.7606 252.586C52.5371 252.118 52.351 251.937 52.1984 251.937" fill="#CCCCCC"/>
<line x1="61.6494" y1="265.388" x2="61.6494" y2="243.958" stroke="black" stroke-opacity="0.15" stroke-linecap="round"/>
<g filter="url(#filter4_d_471_2)">
<rect x="21.0278" y="192.056" width="157.477" height="30.3738" rx="15.1869" fill="#F4F4F4"/>
</g>
<line x1="61.6494" y1="218.192" x2="61.6494" y2="196.762" stroke="black" stroke-opacity="0.15" stroke-linecap="round"/>
<path d="M33.8483 198.131C33.4799 198.69 33.389 199.376 33.5314 200.168C33.7011 201.113 34.2147 202.178 34.9571 203.181C36.4418 205.187 38.8385 206.92 40.9707 207.183L41.1197 207.202L41.2157 207.316L49.0615 216.731C49.8436 216.917 50.3485 216.801 50.611 216.543C50.8756 216.282 50.9976 215.779 50.8016 214.981L33.8484 198.131L33.8483 198.131ZM49.0048 198.224L44.6203 202.582C44.1354 203.064 44.1312 203.595 44.3815 204.174L44.4851 204.414L44.2957 204.595L42.8232 205.991L44.0191 207.179L45.4171 205.712L45.5989 205.521L45.8401 205.625C46.4529 205.888 47.0341 205.877 47.4843 205.429L51.8688 201.071L51.2993 200.505L48.4478 203.338L47.9149 202.807L50.7651 199.974L50.1577 199.37L47.3076 202.203L46.7733 201.672L49.6235 198.839L49.0048 198.224ZM40.7597 207.948L33.2674 215.054C33.0825 215.815 33.201 216.291 33.4505 216.537C33.7002 216.782 34.1831 216.895 34.9394 216.714L41.9393 209.364L40.7597 207.948Z" fill="#CCCCCC"/>
<g filter="url(#filter5_d_471_2)">
<rect x="21.0278" y="144.86" width="157.477" height="30.3738" rx="15.1869" fill="#F4F4F4"/>
</g>
<line x1="61.6494" y1="170.995" x2="61.6494" y2="149.565" stroke="black" stroke-opacity="0.15" stroke-linecap="round"/>
<path d="M51.8688 152.897V151.215L50.2743 151.028C50.1857 151.028 49.6542 150.935 48.7683 150.935C45.1363 150.935 42.4787 152.056 40.9728 154.019C39.8212 153.271 38.2266 152.804 36.3663 152.804C35.4805 152.804 34.8604 152.897 34.8604 152.897L33.1772 153.178L33.2658 154.766C33.3544 157.57 34.6832 162.897 39.2897 162.897H39.4668V166.075C36.1006 166.542 33.2658 167.757 33.2658 167.757V169.626H50.983V167.757C50.983 167.757 48.1482 166.542 44.782 166.075V163.084C50.3629 162.991 51.8688 156.355 51.8688 152.897ZM42.1244 165.888H41.2385V160.654C41.2385 160.654 41.0614 157.477 38.581 157.477C38.581 157.477 39.9098 158.224 40.2641 160.935C39.9098 161.028 39.5554 161.028 39.2897 161.028C35.2147 161.028 35.0375 154.766 35.0375 154.766C35.0375 154.766 35.5691 154.673 36.3663 154.673C38.0495 154.673 40.7956 155.047 41.5929 157.57C42.0358 153.364 46.5537 152.804 48.7683 152.804C49.5656 152.804 50.0971 152.897 50.0971 152.897C50.0971 152.897 50.0971 161.308 44.5162 161.308H43.8961C43.8961 159.439 45.6678 156.636 45.6678 156.636C43.0103 157.57 43.0103 161.215 43.0103 161.215V165.888H42.1244Z" fill="#CCCCCC"/>
<g filter="url(#filter6_d_471_2)">
<rect x="21.0278" y="97.6636" width="157.477" height="30.3738" rx="15.1869" fill="#F4F4F4"/>
</g>
<line x1="61.6494" y1="123.799" x2="61.6494" y2="102.369" stroke="black" stroke-opacity="0.15" stroke-linecap="round"/>
<path d="M45.5246 105.607C46.3002 105.607 47.0384 105.813 47.6644 106.224C48.7296 106.915 49.3837 107.971 49.5332 109.195C49.5867 109.788 49.5098 110.386 49.308 110.946C49.1063 111.506 48.7845 112.015 48.3652 112.438C47.7111 113.082 46.8795 113.493 45.9638 113.587C44.1791 113.774 42.6093 114.484 41.4413 115.671C41.3001 115.808 41.1106 115.886 40.9134 115.886C40.7161 115.886 40.5266 115.808 40.3854 115.671L39.4604 114.746C39.395 114.681 39.3431 114.604 39.3079 114.519C39.2726 114.434 39.2545 114.342 39.2548 114.25C39.2548 114.017 39.3576 113.811 39.5538 113.615C40.6844 112.475 41.3759 110.961 41.5441 109.223C41.6656 107.98 42.329 106.915 43.4129 106.214C44.0296 105.813 44.7584 105.607 45.5246 105.607M45.5246 103.738C44.4314 103.738 43.3381 104.037 42.3944 104.645C40.7499 105.701 39.8435 107.345 39.6846 109.046C39.5632 110.279 39.096 111.428 38.2363 112.288L38.2083 112.316C37.1244 113.4 37.1244 115.054 38.1429 116.063L39.0679 116.988C39.5819 117.502 40.2453 117.754 40.9087 117.754C41.5721 117.754 42.2449 117.502 42.7588 116.988C43.6652 116.082 44.8612 115.587 46.16 115.446C47.4402 115.306 48.6923 114.746 49.6827 113.764C50.3041 113.144 50.7781 112.392 51.0695 111.563C51.361 110.735 51.4624 109.851 51.3664 108.978C51.2704 108.106 50.9794 107.265 50.5149 106.52C50.0504 105.775 49.4243 105.143 48.6829 104.673C47.7392 104.047 46.6366 103.738 45.5246 103.738M36.6946 120.427C36.9468 120.95 36.8627 121.585 36.4236 122.015C36.2334 122.208 35.991 122.342 35.7261 122.399C35.4612 122.456 35.1853 122.435 34.9323 122.338C34.6793 122.24 34.4602 122.072 34.3019 121.852C34.1435 121.632 34.0528 121.37 34.0409 121.099C33.7701 121.088 33.5087 120.997 33.2888 120.838C33.0688 120.68 32.8999 120.461 32.8026 120.208C32.7054 119.955 32.6841 119.679 32.7414 119.414C32.7987 119.149 32.9321 118.907 33.1251 118.717C33.555 118.287 34.1997 118.193 34.7136 118.446L37.0309 116.175C37.1618 116.353 37.3113 116.558 37.4794 116.726L38.4045 117.652C38.6007 117.838 38.7876 117.997 39.0306 118.137L36.6946 120.427V120.427Z" fill="#CCCCCC"/>
<rect x="34.1123" y="51.4019" width="14.0187" height="14.0187" rx="4" fill="#CCCCCC"/>
<rect x="54.6729" y="51.4019" width="14.0187" height="14.0187" rx="4" fill="#CCCCCC"/>
<rect x="75.2339" y="51.4019" width="14.0187" height="14.0187" rx="4" fill="#CCCCCC"/>
<rect x="95.7944" y="51.4019" width="14.0187" height="14.0187" rx="4" fill="#CCCCCC"/>
<path d="M105.164 65.5292C104.336 65.5292 103.592 65.3852 102.932 65.0972C102.284 64.7972 101.774 64.3892 101.402 63.8732C101.03 63.3452 100.838 62.7392 100.826 62.0552H102.572C102.632 62.6432 102.872 63.1412 103.292 63.5492C103.724 63.9452 104.348 64.1432 105.164 64.1432C105.944 64.1432 106.556 63.9512 107 63.5672C107.456 63.1712 107.684 62.6672 107.684 62.0552C107.684 61.5752 107.552 61.1852 107.288 60.8852C107.024 60.5852 106.694 60.3572 106.298 60.2012C105.902 60.0452 105.368 59.8772 104.696 59.6972C103.868 59.4812 103.202 59.2652 102.698 59.0492C102.206 58.8332 101.78 58.4972 101.42 58.0412C101.072 57.5732 100.898 56.9492 100.898 56.1692C100.898 55.4852 101.072 54.8792 101.42 54.3512C101.768 53.8232 102.254 53.4152 102.878 53.1272C103.514 52.8392 104.24 52.6952 105.056 52.6952C106.232 52.6952 107.192 52.9892 107.936 53.5772C108.692 54.1652 109.118 54.9452 109.214 55.9172H107.414C107.354 55.4372 107.102 55.0172 106.658 54.6572C106.214 54.2852 105.626 54.0992 104.894 54.0992C104.21 54.0992 103.652 54.2792 103.22 54.6392C102.788 54.9872 102.572 55.4792 102.572 56.1152C102.572 56.5712 102.698 56.9432 102.95 57.2312C103.214 57.5192 103.532 57.7412 103.904 57.8972C104.288 58.0412 104.822 58.2092 105.506 58.4012C106.334 58.6292 107 58.8572 107.504 59.0852C108.008 59.3012 108.44 59.6432 108.8 60.1112C109.16 60.5672 109.34 61.1912 109.34 61.9832C109.34 62.5952 109.178 63.1712 108.854 63.7112C108.53 64.2512 108.05 64.6892 107.414 65.0252C106.778 65.3612 106.028 65.5292 105.164 65.5292Z" fill="white"/>
<rect x="95.7944" y="51.4019" width="14.0187" height="14.0187" rx="4" fill="#CCCCCC"/>
<rect x="116.355" y="51.4019" width="14.0187" height="14.0187" rx="4" fill="#CCCCCC"/>
<rect x="136.916" y="51.4019" width="14.0187" height="14.0187" rx="4" fill="#CCCCCC"/>
<rect x="157.477" y="51.4019" width="14.0187" height="14.0187" rx="4" fill="#CCCCCC"/>
<path d="M35.397 299.835V302.716C36.2769 303.795 37.3861 304.664 38.644 305.261C39.902 305.857 41.277 306.166 42.6693 306.165C45.9178 306.165 48.7816 304.515 50.4674 302.008V297.971C49.8905 301.759 46.6187 304.662 42.6693 304.662C39.3982 304.662 36.5922 302.672 35.397 299.835ZM49.0776 292.173V290.88C49.0754 290.594 49.1221 290.311 49.2158 290.041C47.4647 288.334 45.1149 287.38 42.6693 287.383C40.4807 287.38 38.3603 288.144 36.6771 289.543L36.6809 289.589L36.6816 289.609V291.638C37.4215 290.773 38.3399 290.08 39.3736 289.605C40.4073 289.13 41.5316 288.884 42.6693 288.886C45.3092 288.886 47.6457 290.182 49.0776 292.173Z" fill="#CCCCCC"/>
<path d="M48.6794 296.774C48.6794 298.368 48.0462 299.897 46.9191 301.024C45.792 302.151 44.2633 302.784 42.6693 302.784C41.0753 302.784 39.5466 302.151 38.4195 301.024C37.2923 299.897 36.6591 298.368 36.6591 296.774C36.6591 295.18 37.2923 293.651 38.4195 292.524C39.5466 291.397 41.0753 290.764 42.6693 290.764C44.2633 290.764 45.792 291.397 46.9191 292.524C48.0462 293.651 48.6794 295.18 48.6794 296.774ZM42.6693 302.033C43.3599 302.033 44.0437 301.897 44.6818 301.633C45.3198 301.368 45.8996 300.981 46.3879 300.493C46.8762 300.004 47.2636 299.425 47.5279 298.787C47.7922 298.149 47.9282 297.465 47.9282 296.774C47.9282 296.084 47.7922 295.4 47.5279 294.762C47.2636 294.124 46.8762 293.544 46.3879 293.056C45.8996 292.567 45.3198 292.18 44.6818 291.916C44.0437 291.651 43.3599 291.515 42.6693 291.515C41.2745 291.515 39.9369 292.069 38.9507 293.056C37.9645 294.042 37.4104 295.379 37.4104 296.774C37.4104 298.169 37.9645 299.506 38.9507 300.493C39.9369 301.479 41.2745 302.033 42.6693 302.033ZM52.8039 290.343C52.8039 289.667 52.2555 289.119 51.5793 289.119C50.6027 289.119 49.8214 289.908 49.8289 290.877V295.046C49.8289 295.988 50.3743 296.83 51.2187 297.212V303.686C51.2187 304.076 51.5343 304.392 51.9249 304.392H52.0977C52.4884 304.392 52.8039 304.076 52.8039 303.686V290.343ZM35.397 289.119C35.2615 289.119 35.1316 289.172 35.0358 289.268C34.94 289.364 34.8861 289.494 34.8861 289.63V291.65C34.8861 291.801 34.7659 291.913 34.6232 291.913C34.4729 291.913 34.3602 291.793 34.3602 291.65V289.652C34.3602 289.374 34.1424 289.126 33.8644 289.119C33.5714 289.111 33.331 289.344 33.331 289.63V291.65C33.331 291.801 33.2108 291.913 33.0681 291.913C32.9178 291.913 32.8051 291.793 32.8051 291.65V289.652C32.8051 289.374 32.5873 289.126 32.3093 289.119C32.0163 289.111 31.7759 289.344 31.7759 289.63V293.07C31.7759 293.748 32.1042 294.353 32.609 294.73C33.0606 294.985 33.0606 296.151 33.0606 296.151V303.678C33.0606 304.069 33.3761 304.384 33.7667 304.384H33.9395C34.3302 304.384 34.6457 304.069 34.6457 303.678V296.151C34.6457 296.151 34.6457 295.03 35.0972 294.73C35.3557 294.537 35.5656 294.287 35.7102 293.999C35.8549 293.711 35.9303 293.393 35.9304 293.07V289.63C35.9228 289.493 35.8635 289.364 35.7645 289.269C35.6654 289.174 35.5341 289.12 35.397 289.119Z" fill="#CCCCCC"/>
</g>
<defs>
<filter id="filter0_d_471_2" x="-15" y="384.935" width="230" height="61.7757" filterUnits="userSpaceOnUse" color-interpolation-filters="sRGB">
<feFlood flood-opacity="0" result="BackgroundImageFix"/>
<feColorMatrix in="SourceAlpha" type="matrix" values="0 0 0 0 0 0 0 0 0 0 0 0 0 0 0 0 0 0 127 0" result="hardAlpha"/>
<feMorphology radius="1" operator="dilate" in="SourceAlpha" result="effect1_dropShadow_471_2"/>
<feOffset dy="-1"/>
<feGaussianBlur stdDeviation="7"/>
<feComposite in2="hardAlpha" operator="out"/>
<feColorMatrix type="matrix" values="0 0 0 0 0 0 0 0 0 0 0 0 0 0 0 0 0 0 0.15 0"/>
<feBlend mode="normal" in2="BackgroundImageFix" result="effect1_dropShadow_471_2"/>
<feBlend mode="normal" in="SourceGraphic" in2="effect1_dropShadow_471_2" result="shape"/>
</filter>
<filter id="filter1_d_471_2" x="20.0278" y="327.103" width="159.477" height="45.3738" filterUnits="userSpaceOnUse" color-interpolation-filters="sRGB">
<feFlood flood-opacity="0" result="BackgroundImageFix"/>
<feColorMatrix in="SourceAlpha" type="matrix" values="0 0 0 0 0 0 0 0 0 0 0 0 0 0 0 0 0 0 127 0" result="hardAlpha"/>
<feMorphology radius="10" operator="erode" in="SourceAlpha" result="effect1_dropShadow_471_2"/>
<feOffset dy="14"/>
<feGaussianBlur stdDeviation="5.5"/>
<feComposite in2="hardAlpha" operator="out"/>
<feColorMatrix type="matrix" values="0 0 0 0 0 0 0 0 0 0 0 0 0 0 0 0 0 0 0.25 0"/>
<feBlend mode="normal" in2="BackgroundImageFix" result="effect1_dropShadow_471_2"/>
<feBlend mode="normal" in="SourceGraphic" in2="effect1_dropShadow_471_2" result="shape"/>
</filter>
<filter id="filter2_d_471_2" x="20.0278" y="283.178" width="159.477" height="45.3738" filterUnits="userSpaceOnUse" color-interpolation-filters="sRGB">
<feFlood flood-opacity="0" result="BackgroundImageFix"/>
<feColorMatrix in="SourceAlpha" type="matrix" values="0 0 0 0 0 0 0 0 0 0 0 0 0 0 0 0 0 0 127 0" result="hardAlpha"/>
<feMorphology radius="10" operator="erode" in="SourceAlpha" result="effect1_dropShadow_471_2"/>
<feOffset dy="14"/>
<feGaussianBlur stdDeviation="5.5"/>
<feComposite in2="hardAlpha" operator="out"/>
<feColorMatrix type="matrix" values="0 0 0 0 0 0 0 0 0 0 0 0 0 0 0 0 0 0 0.25 0"/>
<feBlend mode="normal" in2="BackgroundImageFix" result="effect1_dropShadow_471_2"/>
<feBlend mode="normal" in="SourceGraphic" in2="effect1_dropShadow_471_2" result="shape"/>
</filter>
<filter id="filter3_d_471_2" x="20.0278" y="239.252" width="159.477" height="45.3738" filterUnits="userSpaceOnUse" color-interpolation-filters="sRGB">
<feFlood flood-opacity="0" result="BackgroundImageFix"/>
<feColorMatrix in="SourceAlpha" type="matrix" values="0 0 0 0 0 0 0 0 0 0 0 0 0 0 0 0 0 0 127 0" result="hardAlpha"/>
<feMorphology radius="10" operator="erode" in="SourceAlpha" result="effect1_dropShadow_471_2"/>
<feOffset dy="14"/>
<feGaussianBlur stdDeviation="5.5"/>
<feComposite in2="hardAlpha" operator="out"/>
<feColorMatrix type="matrix" values="0 0 0 0 0 0 0 0 0 0 0 0 0 0 0 0 0 0 0.25 0"/>
<feBlend mode="normal" in2="BackgroundImageFix" result="effect1_dropShadow_471_2"/>
<feBlend mode="normal" in="SourceGraphic" in2="effect1_dropShadow_471_2" result="shape"/>
</filter>
<filter id="filter4_d_471_2" x="20.0278" y="192.056" width="159.477" height="45.3738" filterUnits="userSpaceOnUse" color-interpolation-filters="sRGB">
<feFlood flood-opacity="0" result="BackgroundImageFix"/>
<feColorMatrix in="SourceAlpha" type="matrix" values="0 0 0 0 0 0 0 0 0 0 0 0 0 0 0 0 0 0 127 0" result="hardAlpha"/>
<feMorphology radius="10" operator="erode" in="SourceAlpha" result="effect1_dropShadow_471_2"/>
<feOffset dy="14"/>
<feGaussianBlur stdDeviation="5.5"/>
<feComposite in2="hardAlpha" operator="out"/>
<feColorMatrix type="matrix" values="0 0 0 0 0 0 0 0 0 0 0 0 0 0 0 0 0 0 0.25 0"/>
<feBlend mode="normal" in2="BackgroundImageFix" result="effect1_dropShadow_471_2"/>
<feBlend mode="normal" in="SourceGraphic" in2="effect1_dropShadow_471_2" result="shape"/>
</filter>
<filter id="filter5_d_471_2" x="20.0278" y="144.86" width="159.477" height="45.3738" filterUnits="userSpaceOnUse" color-interpolation-filters="sRGB">
<feFlood flood-opacity="0" result="BackgroundImageFix"/>
<feColorMatrix in="SourceAlpha" type="matrix" values="0 0 0 0 0 0 0 0 0 0 0 0 0 0 0 0 0 0 127 0" result="hardAlpha"/>
<feMorphology radius="10" operator="erode" in="SourceAlpha" result="effect1_dropShadow_471_2"/>
<feOffset dy="14"/>
<feGaussianBlur stdDeviation="5.5"/>
<feComposite in2="hardAlpha" operator="out"/>
<feColorMatrix type="matrix" values="0 0 0 0 0 0 0 0 0 0 0 0 0 0 0 0 0 0 0.25 0"/>
<feBlend mode="normal" in2="BackgroundImageFix" result="effect1_dropShadow_471_2"/>
<feBlend mode="normal" in="SourceGraphic" in2="effect1_dropShadow_471_2" result="shape"/>
</filter>
<filter id="filter6_d_471_2" x="20.0278" y="97.6636" width="159.477" height="45.3738" filterUnits="userSpaceOnUse" color-interpolation-filters="sRGB">
<feFlood flood-opacity="0" result="BackgroundImageFix"/>
<feColorMatrix in="SourceAlpha" type="matrix" values="0 0 0 0 0 0 0 0 0 0 0 0 0 0 0 0 0 0 127 0" result="hardAlpha"/>
<feMorphology radius="10" operator="erode" in="SourceAlpha" result="effect1_dropShadow_471_2"/>
<feOffset dy="14"/>
<feGaussianBlur stdDeviation="5.5"/>
<feComposite in2="hardAlpha" operator="out"/>
<feColorMatrix type="matrix" values="0 0 0 0 0 0 0 0 0 0 0 0 0 0 0 0 0 0 0.25 0"/>
<feBlend mode="normal" in2="BackgroundImageFix" result="effect1_dropShadow_471_2"/>
<feBlend mode="normal" in="SourceGraphic" in2="effect1_dropShadow_471_2" result="shape"/>
</filter>
<clipPath id="clip0_471_2">
<rect width="200" height="432.71" rx="22" fill="white"/>
</clipPath>
</defs>
</svg>
