<svg width="18" height="18" viewBox="0 0 18 18" fill="none" xmlns="http://www.w3.org/2000/svg">
<path d="M9 0L17.0156 6V18H0.984375V6L9 0ZM9.51562 9.51562V6.51562H8.48438V9.51562H8.01562V6.51562H6.98438V9.51562H6.51562V6.51562H5.48438V9.51562C5.48438 9.92188 5.625 10.2812 5.90625 10.5938C6.21875 10.875 6.57812 11.0156 6.98438 11.0156V15H8.01562V11.0156C8.42188 11.0156 8.76562 10.875 9.04688 10.5938C9.35938 10.2812 9.51562 9.92188 9.51562 9.51562ZM12 15V6.51562C11.4375 6.51562 10.9531 6.71875 10.5469 7.125C10.1719 7.5 9.98438 7.95313 9.98438 8.48438V11.4844H11.0156V15H12Z" fill="#3E3E3E"/>
</svg>
