<svg id="svg" xmlns="http://www.w3.org/2000/svg" xmlns:xlink="http://www.w3.org/1999/xlink" width="400" height="400" viewBox="0, 0, 400,400" version="1.1"><g id="svgg"><path id="path0" d="M150.952 12.073 C 149.816 12.496,149.253 12.928,148.650 13.840 L 148.100 14.671 148.101 33.186 C 148.102 49.880,148.137 51.946,148.458 54.200 C 150.645 69.529,156.818 78.155,171.500 86.399 C 190.115 96.852,193.290 101.242,193.581 116.933 L 193.700 123.366 194.300 124.215 C 195.995 126.614,199.927 126.496,201.196 124.008 C 201.955 122.519,201.741 110.360,200.878 106.000 C 198.648 94.732,193.928 89.750,175.700 79.429 C 163.657 72.610,158.683 65.583,156.782 52.700 C 156.622 51.615,156.507 45.204,156.423 32.767 L 156.300 14.434 155.700 13.585 C 154.672 12.129,152.585 11.465,150.952 12.073 M120.500 33.698 C 119.546 34.033,118.478 35.188,118.201 36.183 C 117.845 37.465,117.940 53.270,118.310 54.154 C 119.746 57.592,125.191 57.319,126.212 53.758 C 126.599 52.408,126.438 36.802,126.027 35.898 C 125.101 33.860,122.729 32.916,120.500 33.698 M188.900 35.931 C 186.705 37.083,186.331 38.102,186.606 42.190 C 187.219 51.320,189.868 57.095,195.786 62.200 C 198.686 64.702,200.425 65.738,211.321 71.458 C 226.531 79.441,231.195 87.235,232.111 106.199 C 232.255 109.165,232.534 110.052,233.545 110.748 C 235.834 112.325,238.601 111.736,239.739 109.429 L 240.267 108.359 240.029 103.829 C 239.124 86.659,234.587 76.813,224.100 69.263 C 221.688 67.527,218.898 65.954,212.700 62.835 C 198.986 55.936,195.654 51.837,195.014 41.085 C 194.806 37.585,194.463 36.834,192.660 35.923 C 191.829 35.503,189.707 35.508,188.900 35.931 M121.100 67.387 C 118.169 68.101,117.660 69.832,118.186 77.300 C 119.298 93.056,124.303 102.984,134.743 110.144 C 137.370 111.947,140.022 113.415,146.309 116.549 C 159.610 123.179,162.868 127.247,163.572 138.100 C 163.870 142.694,165.715 144.589,168.822 143.492 C 171.559 142.526,172.248 139.270,171.126 132.600 C 169.242 121.396,164.952 116.670,149.873 109.187 C 132.262 100.447,127.241 92.934,126.493 74.200 C 126.330 70.115,126.205 69.595,125.126 68.516 C 124.004 67.394,122.641 67.012,121.100 67.387 M234.731 122.492 C 233.741 122.845,233.040 123.498,232.578 124.500 C 231.948 125.865,232.010 142.138,232.650 143.408 C 234.022 146.129,238.318 146.070,239.703 143.311 L 240.200 142.321 240.199 134.111 C 240.198 128.798,240.121 125.618,239.979 125.100 C 239.353 122.807,237.053 121.664,234.731 122.492 M191.400 143.936 C 184.574 145.201,179.316 149.855,176.978 156.700 C 176.320 158.628,176.239 169.978,176.868 172.200 C 177.317 173.788,178.365 176.094,179.199 177.329 C 179.953 178.447,180.197 178.288,177.100 178.690 C 96.263 189.173,32.799 253.062,23.220 333.600 C 22.551 339.224,22.007 346.688,22.002 350.300 L 22.000 351.900 20.478 352.584 C 4.910 359.584,7.076 382.616,23.700 386.842 L 25.500 387.300 199.800 387.300 L 374.100 387.300 375.888 386.845 C 384.450 384.665,389.656 377.967,389.680 369.100 C 389.703 361.016,386.201 355.473,379.258 352.599 C 378.401 352.244,377.678 351.935,377.652 351.912 C 377.625 351.889,377.512 349.897,377.401 347.485 C 373.378 260.476,308.395 189.524,222.800 178.683 C 221.315 178.495,220.075 178.322,220.044 178.298 C 220.014 178.274,220.348 177.631,220.788 176.869 C 222.900 173.205,223.254 171.265,223.158 163.860 L 223.083 158.100 222.445 156.200 C 220.445 150.243,216.077 146.025,210.100 144.279 C 208.937 143.939,192.963 143.646,191.400 143.936 M208.273 152.221 C 210.734 153.029,213.286 155.413,214.245 157.800 C 215.297 160.420,214.954 170.129,213.723 172.552 C 211.687 176.560,209.810 177.200,200.085 177.200 C 190.080 177.200,188.020 176.560,186.033 172.832 C 184.338 169.652,184.214 159.915,185.828 156.744 C 186.785 154.863,189.619 152.718,192.000 152.071 C 193.756 151.595,206.729 151.714,208.273 152.221 M212.100 186.098 C 293.409 192.649,357.708 253.239,367.781 332.800 C 368.533 338.742,369.346 350.523,369.027 350.850 C 368.946 350.933,292.744 350.978,199.690 350.950 L 30.500 350.900 30.558 348.400 C 31.341 314.436,44.921 277.561,66.869 249.800 C 101.334 206.208,157.256 181.679,212.100 186.098 M248.854 246.611 C 244.258 247.518,241.989 250.713,240.908 257.800 C 240.199 262.449,238.649 270.993,238.420 271.519 C 237.889 272.736,230.373 273.278,227.601 272.300 C 227.133 272.135,226.595 272.000,226.407 272.000 C 226.186 272.000,225.973 271.724,225.807 271.222 C 224.966 268.673,223.296 268.830,221.897 271.591 C 221.330 272.711,221.324 274.412,221.869 278.900 C 222.796 286.532,222.884 287.664,222.874 291.800 C 222.859 297.736,222.107 300.905,220.299 302.662 C 218.421 304.486,214.975 304.135,212.400 301.858 C 210.203 299.915,208.875 300.987,210.574 303.333 C 213.465 307.324,221.194 307.458,224.683 303.577 C 228.239 299.622,230.061 286.108,228.007 278.926 L 227.644 277.656 228.741 278.316 C 230.190 279.189,232.094 279.600,234.689 279.600 C 236.245 279.600,236.800 279.666,236.799 279.850 C 236.793 281.829,233.183 293.894,230.924 299.485 C 230.099 301.528,230.103 301.551,231.249 301.213 C 236.965 299.525,241.111 293.021,244.610 280.253 C 245.055 278.629,245.071 278.605,245.780 278.485 C 250.939 277.616,255.156 276.531,257.004 275.598 C 257.655 275.269,258.227 275.000,258.274 275.000 C 258.321 275.000,258.510 275.697,258.693 276.550 C 260.280 283.940,263.871 292.799,265.656 293.727 C 267.865 294.876,268.644 291.586,267.912 284.197 C 266.703 271.996,263.668 261.052,258.983 252.000 C 256.920 248.014,252.814 245.829,248.854 246.611 M311.292 247.614 C 311.219 247.731,311.029 247.777,310.869 247.716 C 309.165 247.062,305.765 251.180,303.197 257.008 C 301.912 259.921,301.983 259.918,301.433 257.095 C 300.516 252.391,299.631 250.786,298.137 251.114 C 296.694 251.431,296.473 251.872,296.787 253.808 C 297.097 255.714,297.045 260.486,296.676 264.115 C 295.608 274.623,297.515 290.016,300.054 291.375 C 302.730 292.808,304.066 285.158,303.429 272.039 C 303.303 269.439,303.309 269.382,303.700 269.515 C 309.702 271.560,319.574 257.366,316.509 251.100 C 315.234 248.494,312.059 246.372,311.292 247.614 M312.846 251.850 C 313.382 252.265,311.604 258.348,310.292 260.586 C 308.833 263.075,303.600 266.334,303.600 264.753 C 303.600 261.934,307.350 255.830,310.999 252.710 C 312.437 251.480,312.394 251.500,312.846 251.850 M285.700 253.200 C 285.480 253.296,284.985 253.427,284.600 253.492 C 282.305 253.879,278.910 258.651,276.571 264.778 C 276.306 265.474,276.231 265.294,275.697 262.674 C 274.613 257.357,273.650 256.040,271.615 257.092 C 270.914 257.455,270.803 257.856,271.029 259.223 C 271.361 261.232,271.306 266.737,270.918 270.439 C 269.953 279.634,271.618 294.294,273.902 296.716 C 276.533 299.506,277.953 293.820,277.758 281.282 C 277.695 277.263,277.729 275.056,277.853 275.133 C 281.925 277.649,290.896 267.629,291.344 260.066 C 291.570 256.253,288.178 252.127,285.700 253.200 M252.702 257.707 C 254.931 263.483,256.636 268.654,256.365 268.821 C 255.783 269.181,247.470 270.736,247.258 270.525 C 247.206 270.473,247.482 269.051,247.871 267.365 C 248.544 264.452,250.085 257.186,250.620 254.408 L 250.869 253.116 251.208 253.916 C 251.395 254.355,252.067 256.061,252.702 257.707 M287.194 257.592 C 287.560 257.824,286.149 263.015,285.085 265.352 C 283.948 267.849,281.919 269.630,279.109 270.597 L 278.000 270.978 278.000 270.206 C 278.000 267.795,280.623 263.182,283.831 259.950 C 286.334 257.429,286.619 257.229,287.194 257.592 M221.980 260.057 C 219.779 261.539,220.277 266.857,222.588 266.547 C 224.919 266.234,225.886 265.051,225.745 262.682 C 225.582 259.950,223.891 258.771,221.980 260.057 M174.718 261.180 C 173.017 263.060,172.299 271.544,172.857 283.166 L 173.014 286.432 172.562 286.116 C 170.011 284.329,164.219 288.408,160.732 294.448 C 157.486 300.070,156.695 303.892,158.089 307.228 C 158.243 307.596,156.502 308.757,155.142 309.193 C 153.487 309.724,153.304 309.304,152.511 303.140 C 152.216 300.852,151.843 298.557,151.682 298.040 C 151.521 297.523,151.305 296.678,151.202 296.162 C 150.943 294.864,148.888 291.137,147.800 289.992 C 143.996 285.990,138.668 288.054,134.674 295.077 C 133.410 297.298,133.400 297.289,133.400 293.988 C 133.400 287.772,132.711 286.300,129.801 286.300 C 128.939 286.300,128.173 286.361,128.098 286.435 C 127.580 286.954,126.935 293.439,126.581 301.700 C 126.458 304.560,126.283 306.928,126.191 306.963 C 126.100 306.997,125.361 307.501,124.550 308.083 C 118.447 312.462,118.102 312.284,117.803 304.600 C 117.496 296.700,115.636 294.750,111.052 297.524 C 104.405 301.545,99.429 310.420,101.395 314.750 C 101.984 316.049,104.117 318.118,105.146 318.390 C 108.391 319.247,110.637 316.571,113.508 308.430 C 113.560 308.281,113.958 308.866,114.393 309.730 C 117.043 315.000,121.472 315.026,125.873 309.796 L 126.400 309.169 126.403 309.935 C 126.416 313.380,127.832 315.394,130.057 315.131 C 131.627 314.945,132.102 313.831,133.203 307.762 C 134.572 300.217,137.095 296.101,142.421 292.722 L 142.943 292.392 143.180 294.846 C 143.984 303.166,144.463 305.918,145.450 307.900 C 148.996 315.021,154.439 315.713,158.355 309.539 L 158.929 308.634 159.757 309.596 C 163.768 314.252,169.453 310.069,173.701 299.336 C 174.583 297.109,174.630 297.072,174.970 298.350 C 176.420 303.788,179.663 306.033,183.966 304.580 C 187.267 303.465,191.599 299.368,191.600 297.360 L 191.601 296.700 193.555 296.700 C 195.358 296.700,195.613 296.649,196.832 296.049 C 199.198 294.883,203.536 290.262,203.259 289.203 C 203.058 288.437,202.760 288.550,201.470 289.878 C 197.273 294.201,193.833 295.252,191.504 292.922 C 190.714 292.132,190.850 291.607,192.055 290.800 C 198.129 286.730,201.067 279.826,197.320 278.425 L 196.277 278.034 194.005 278.525 C 186.034 280.246,182.444 292.771,189.037 295.857 C 190.300 296.448,190.343 296.379,187.550 298.230 C 179.986 303.243,180.337 303.753,180.177 287.536 C 180.058 275.532,179.947 273.139,179.299 268.595 C 178.466 262.748,176.369 259.355,174.718 261.180 M206.917 273.450 C 205.277 275.976,205.918 279.362,207.933 278.817 C 209.931 278.277,210.766 276.228,209.903 273.980 C 209.562 273.092,207.399 272.708,206.917 273.450 M205.414 280.850 C 204.956 282.014,203.927 288.220,203.914 289.900 C 203.881 294.104,207.053 296.694,210.251 295.074 C 213.062 293.649,218.087 286.800,216.321 286.800 C 216.161 286.800,215.314 287.813,214.439 289.050 C 208.291 297.750,205.805 295.883,209.110 285.047 C 209.703 283.106,209.657 282.336,208.895 281.430 C 208.059 280.437,205.730 280.049,205.414 280.850 M195.760 281.440 C 196.813 282.493,192.262 288.600,190.425 288.600 C 190.027 288.600,190.166 286.669,190.634 285.672 C 191.530 283.766,195.121 280.801,195.760 281.440 M79.800 283.742 C 72.984 284.506,66.291 286.770,59.762 290.522 C 53.842 293.924,53.091 295.186,55.959 296.921 C 58.756 298.614,61.792 298.255,68.151 295.482 C 69.515 294.887,70.728 294.400,70.846 294.400 C 71.082 294.400,70.967 300.482,70.616 306.500 C 69.885 319.045,69.576 333.122,70.007 334.262 C 71.998 339.530,77.362 338.579,89.536 330.800 C 101.382 323.231,104.704 315.441,97.937 311.098 C 95.022 309.227,91.269 307.816,89.128 307.785 C 88.562 307.777,87.697 307.710,87.204 307.635 L 86.307 307.500 87.780 306.626 C 95.097 302.280,98.902 295.219,96.488 290.464 C 94.142 285.842,86.943 282.942,79.800 283.742 M88.514 288.494 C 92.875 289.795,93.190 294.787,89.248 300.125 C 84.452 306.620,83.374 307.557,80.100 308.086 C 79.000 308.264,77.911 308.459,77.681 308.520 C 77.264 308.630,77.261 308.598,77.134 302.365 C 77.021 296.786,76.882 294.626,76.498 292.458 C 76.360 291.675,76.534 291.572,81.400 289.570 C 85.053 288.067,86.399 287.863,88.514 288.494 M172.665 291.907 C 172.629 292.725,171.325 296.170,170.238 298.325 C 168.520 301.729,163.448 306.961,162.406 306.403 C 161.878 306.121,161.920 305.863,163.233 301.318 C 164.931 295.444,166.966 292.860,171.041 291.403 C 172.504 290.880,172.708 290.943,172.665 291.907 M111.600 303.650 C 111.599 306.541,109.483 310.956,106.853 313.552 C 104.508 315.867,104.248 315.232,105.506 310.259 C 106.232 307.391,107.828 305.187,110.307 303.631 C 111.546 302.853,111.600 302.854,111.600 303.650 M90.600 311.810 C 94.273 312.396,95.780 314.307,95.304 317.773 C 94.792 321.493,89.302 327.157,82.219 331.272 C 77.888 333.788,77.096 333.913,77.266 332.050 C 77.914 324.978,77.931 318.415,77.313 314.508 C 77.046 312.822,77.039 312.475,77.271 312.243 C 77.785 311.729,88.012 311.398,90.600 311.810 " stroke="none" fill="#fc4c04" fill-rule="evenodd"></path></g></svg>