<svg width="21" height="20" viewBox="0 0 21 20" fill="none" xmlns="http://www.w3.org/2000/svg">
<path d="M12.8594 9.53125L11.4062 10.9844L18.2969 17.875L16.8906 19.2812L10 12.3906L3.10938 19.2812L1.70312 17.875L11.4531 8.125C11.0781 7.375 11.0156 6.5 11.2656 5.5C11.5469 4.5 12.0781 3.60938 12.8594 2.82812C13.8281 1.85937 14.9062 1.3125 16.0938 1.1875C17.2812 1.03125 18.2344 1.3125 18.9531 2.03125C19.6719 2.75 19.9531 3.71875 19.7969 4.9375C19.6719 6.125 19.125 7.20312 18.1562 8.17188C17.375 8.95312 16.4844 9.46875 15.4844 9.71875C14.4844 9.96875 13.6094 9.90625 12.8594 9.53125ZM6.10938 11.3594L1.89062 7.14062C1.10938 6.35938 0.71875 5.42187 0.71875 4.32812C0.71875 3.23438 1.10938 2.29688 1.89062 1.51562L8.92188 8.5L6.10938 11.3594Z" fill="#353637"/>
</svg>
