<svg width="20" height="18" viewBox="0 0 20 18" fill="none" xmlns="http://www.w3.org/2000/svg">
<path d="M16 8.01562V9.98438H19.9844V8.01562H16ZM13.9844 14.625C14.4844 14.9688 15.0156 15.3594 15.5781 15.7969C16.1719 16.2344 16.7188 16.6406 17.2188 17.0156C17.4062 16.7344 17.5938 16.4688 17.7812 16.2188C18 15.9375 18.2031 15.6719 18.3906 15.4219C17.8906 15.0469 17.3438 14.6406 16.75 14.2031C16.1875 13.7656 15.6719 13.3594 15.2031 12.9844C15.0156 13.2656 14.8125 13.5469 14.5938 13.8281C14.4062 14.0781 14.2031 14.3438 13.9844 14.625ZM18.3906 2.57812C18.2031 2.32813 18 2.07812 17.7812 1.82812C17.5938 1.54688 17.4062 1.26562 17.2188 0.984375C16.7188 1.35938 16.1719 1.76563 15.5781 2.20312C15.0156 2.64062 14.4844 3.04688 13.9844 3.42188C14.2031 3.67187 14.4062 3.9375 14.5938 4.21875C14.8125 4.46875 15.0156 4.73438 15.2031 5.01562C15.6719 4.64062 16.1875 4.23437 16.75 3.79688C17.3438 3.35938 17.8906 2.95312 18.3906 2.57812ZM1.98438 6C1.45312 6 0.984375 6.20312 0.578125 6.60938C0.203125 6.98438 0.015625 7.45312 0.015625 8.01562V9.98438C0.015625 10.5469 0.203125 11.0312 0.578125 11.4375C0.984375 11.8125 1.45312 12 1.98438 12H3.01562V15.9844H4.98438V12H6.01562L10.9844 15V3L6.01562 6H1.98438ZM13.5156 9C13.5156 8.34375 13.375 7.73438 13.0938 7.17188C12.8125 6.57812 12.4531 6.07812 12.0156 5.67188V12.3281C12.4531 11.9219 12.8125 11.4375 13.0938 10.875C13.375 10.2812 13.5156 9.65625 13.5156 9Z" fill="#353637"/>
</svg>
