<svg width="19" height="24" viewBox="0 0 19 24" fill="none" xmlns="http://www.w3.org/2000/svg">
<path d="M16.9844 21V6.98438H6.01562V21H16.9844ZM16.9844 5.01562C17.5156 5.01562 17.9844 5.21875 18.3906 5.625C18.7969 6 19 6.45313 19 6.98438V21C19 21.5312 18.7969 22 18.3906 22.4062C17.9844 22.8125 17.5156 23.0156 16.9844 23.0156H6.01562C5.48438 23.0156 5.01562 22.8125 4.60938 22.4062C4.20312 22 4 21.5312 4 21V6.98438C4 6.45313 4.20312 6 4.60938 5.625C5.01562 5.21875 5.48438 5.01562 6.01562 5.01562H16.9844ZM13.9844 0.984375V3H1.98438V17.0156H0.015625V3C0.015625 2.46875 0.203125 2 0.578125 1.59375C0.984375 1.1875 1.45312 0.984375 1.98438 0.984375H13.9844Z" fill="#FD720F"/>
</svg>
