<svg width="18" height="21" viewBox="0 0 18 21" fill="none" xmlns="http://www.w3.org/2000/svg">
<path d="M15.9844 18.9844V8.01562H2.01562V18.9844H15.9844ZM12.9844 0.984375H15V3H15.9844C16.5156 3 16.9844 3.20312 17.3906 3.60938C17.7969 4.01562 18 4.48438 18 5.01562V18.9844C18 19.5156 17.7969 19.9844 17.3906 20.3906C16.9844 20.7969 16.5156 21 15.9844 21H2.01562C1.45312 21 0.96875 20.8125 0.5625 20.4375C0.1875 20.0312 0 19.5469 0 18.9844V5.01562C0 4.48438 0.1875 4.01562 0.5625 3.60938C0.96875 3.20312 1.45312 3 2.01562 3H3V0.984375H5.01562V3H12.9844V0.984375ZM14.0156 12V17.0156H9V12H14.0156Z" fill="#3E3E3E"/>
</svg>
