<svg width="328" height="104" viewBox="0 0 328 104" fill="none" xmlns="http://www.w3.org/2000/svg">
<g clip-path="url(#clip0_1051_514)">
<rect width="328" height="104" fill="white"/>
<path d="M0 0H328V104H0V0Z" fill="#0E5AA0"/>
<path d="M0 0H328V104H0V0Z" fill="url(#paint0_linear_1051_514)" fill-opacity="0.2"/>
<path fill-rule="evenodd" clip-rule="evenodd" d="M147.758 76.6089H141.756L139.089 72.7542H137.643V76.6089H132.141V61.0221H140.945C140.945 61.0221 143.444 61.1661 145.231 62.4749C146.564 63.4516 147.316 64.7584 147.316 66.7766C147.316 68.3967 147.047 69.3214 146.447 70.1844C145.589 71.4193 144.304 71.7484 144.304 71.7484L147.758 76.6089ZM140.018 65.1562C140.397 65.1562 140.972 65.3911 141.234 65.6592L141.237 65.6623C141.359 65.7864 141.533 65.9641 141.64 66.2179C141.765 66.5145 141.814 66.8958 141.814 67.1117C141.814 67.3081 141.748 67.6074 141.64 67.838C141.527 68.0798 141.311 68.2518 141.176 68.3967C140.914 68.6648 140.397 68.7319 140.018 68.7319H137.643V65.1562H140.018Z" fill="white"/>
<path d="M160 70.3296C160 72.2514 159.341 74.5828 158.262 75.4916C157.198 76.4003 155.698 76.6089 153.687 76.6089H151.081L148.185 72.419H153.339C153.339 72.419 153.876 72.3378 154.15 71.9162C154.405 71.5245 154.541 70.6445 154.541 70.3072V65.1564H150.675L147.779 61.0222H154.541H160V70.3296Z" fill="white"/>
<path d="M112.676 75.2346C114.031 74.1322 114.824 72.5307 114.824 70.4302V61.0223H109.321V70.3631C109.321 70.3631 109.271 71.4268 108.858 71.9162C108.322 72.551 107.005 72.6425 107.005 72.6425C106.635 72.6411 105.58 72.4913 105.093 71.9162C104.606 71.3411 104.501 70.3408 104.501 70.3408V61H98.9538H96L98.9538 65.1006V70.4078C98.9538 72.5084 99.7471 74.1322 101.102 75.2346C102.471 76.337 104.509 77 107.005 77C109.501 77 111.321 76.337 112.676 75.2346Z" fill="white"/>
<path d="M117.262 61.0221H130.447V65.1562L122.789 65.1562V67.5942H129.535V71.7484H122.789V76.6221L117.262 76.6221V61.0221Z" fill="white"/>
<path d="M101.85 40.425C102.683 40.425 103.5 40.5417 104.3 40.775C105.1 40.9917 105.825 41.3583 106.475 41.875L106.275 43.4C105.625 43.2167 105.042 43.0583 104.525 42.925C104.008 42.7917 103.433 42.725 102.8 42.725C102.2 42.725 101.717 42.8333 101.35 43.05C101 43.25 100.733 43.6417 100.55 44.225C100.383 44.8083 100.3 45.6583 100.3 46.775C100.3 47.8417 100.383 48.6667 100.55 49.25C100.717 49.8167 100.975 50.2167 101.325 50.45C101.675 50.6667 102.133 50.775 102.7 50.775C103.15 50.775 103.55 50.725 103.9 50.625C104.25 50.5083 104.608 50.3417 104.975 50.125C105.342 49.8917 105.767 49.6 106.25 49.25L106.5 50.95C105.933 51.6 105.233 52.1583 104.4 52.625C103.583 53.075 102.633 53.3 101.55 53.3C99.9833 53.3 98.8667 52.75 98.2 51.65C97.5333 50.5333 97.2 48.9167 97.2 46.8C97.2 45.1833 97.3667 43.9167 97.7 43C98.05 42.0667 98.5667 41.4083 99.25 41.025C99.95 40.625 100.817 40.425 101.85 40.425ZM108.95 35.5V53H106.575L106.25 50.8L105.925 50.55V42.35L106.075 42C106.008 41.5167 105.967 41.0333 105.95 40.55C105.933 40.05 105.925 39.5417 105.925 39.025V35.5H108.95ZM117.848 40.425C119.831 40.425 121.256 40.775 122.123 41.475C122.99 42.1583 123.431 43.175 123.448 44.525C123.465 45.6417 123.198 46.4917 122.648 47.075C122.115 47.6417 121.223 47.925 119.973 47.925H112.973V46.05H119.148C119.715 46.05 120.073 45.9 120.223 45.6C120.39 45.3 120.473 44.9333 120.473 44.5C120.456 43.8167 120.256 43.3417 119.873 43.075C119.506 42.8083 118.873 42.675 117.973 42.675C117.19 42.675 116.581 42.7833 116.148 43C115.715 43.2167 115.406 43.6083 115.223 44.175C115.056 44.7417 114.973 45.5583 114.973 46.625C114.973 47.7583 115.081 48.6333 115.298 49.25C115.515 49.8667 115.873 50.2917 116.373 50.525C116.873 50.7417 117.54 50.85 118.373 50.85C118.99 50.85 119.698 50.825 120.498 50.775C121.315 50.725 122.098 50.6583 122.848 50.575L123.148 52.5C122.698 52.6833 122.181 52.8333 121.598 52.95C121.015 53.0667 120.406 53.15 119.773 53.2C119.156 53.2667 118.573 53.3 118.023 53.3C116.523 53.3 115.315 53.0833 114.398 52.65C113.498 52.2 112.84 51.5 112.423 50.55C112.023 49.6 111.823 48.375 111.823 46.875C111.823 45.2583 112.023 43.9833 112.423 43.05C112.84 42.1 113.49 41.425 114.373 41.025C115.273 40.625 116.431 40.425 117.848 40.425ZM137.819 40.725L133.594 52.275C133.511 52.4917 133.377 52.6667 133.194 52.8C133.027 52.9333 132.819 53 132.569 53H129.919C129.686 53 129.477 52.9333 129.294 52.8C129.111 52.6667 128.977 52.4917 128.894 52.275L124.669 40.725H127.894L130.469 48.775C130.586 49.1417 130.694 49.5167 130.794 49.9C130.894 50.2667 130.986 50.625 131.069 50.975H131.394C131.511 50.6083 131.619 50.2417 131.719 49.875C131.836 49.5083 131.944 49.1417 132.044 48.775L134.619 40.725H137.819ZM155.139 40.425C156.222 40.425 157.047 40.7167 157.614 41.3C158.197 41.8667 158.489 42.7 158.489 43.8V53H155.489V44.725C155.472 44.1083 155.347 43.6667 155.114 43.4C154.88 43.1167 154.472 42.975 153.889 42.975C153.539 42.975 153.197 43.0333 152.864 43.15C152.547 43.25 152.189 43.4167 151.789 43.65C151.389 43.8833 150.905 44.1917 150.339 44.575L150.164 42.75C151.014 41.9667 151.83 41.3833 152.614 41C153.414 40.6167 154.255 40.425 155.139 40.425ZM142.264 40.725L142.564 43.125L142.864 43.475V53H139.839V40.725H142.264ZM147.314 40.425C148.38 40.425 149.197 40.7083 149.764 41.275C150.33 41.8417 150.614 42.6833 150.614 43.8V53H147.714V44.725C147.714 44.075 147.58 43.625 147.314 43.375C147.047 43.1083 146.647 42.975 146.114 42.975C145.78 42.975 145.447 43.025 145.114 43.125C144.78 43.225 144.414 43.3917 144.014 43.625C143.614 43.8583 143.114 44.175 142.514 44.575L142.339 42.75C143.172 41.9667 143.989 41.3833 144.789 41C145.589 40.6167 146.43 40.425 147.314 40.425ZM167.361 40.425C168.861 40.425 170.053 40.6333 170.936 41.05C171.836 41.4667 172.478 42.15 172.861 43.1C173.261 44.05 173.461 45.3083 173.461 46.875C173.461 48.4417 173.261 49.7 172.861 50.65C172.478 51.5833 171.836 52.2667 170.936 52.7C170.053 53.1167 168.861 53.325 167.361 53.325C165.895 53.325 164.711 53.1167 163.811 52.7C162.928 52.2667 162.286 51.5833 161.886 50.65C161.486 49.7 161.286 48.4417 161.286 46.875C161.286 45.3083 161.486 44.05 161.886 43.1C162.286 42.15 162.928 41.4667 163.811 41.05C164.711 40.6333 165.895 40.425 167.361 40.425ZM167.361 42.725C166.628 42.725 166.045 42.85 165.611 43.1C165.195 43.3333 164.895 43.75 164.711 44.35C164.528 44.95 164.436 45.7917 164.436 46.875C164.436 47.9583 164.528 48.8 164.711 49.4C164.895 50 165.195 50.4167 165.611 50.65C166.045 50.8833 166.628 51 167.361 51C168.111 51 168.703 50.8833 169.136 50.65C169.57 50.4167 169.87 50 170.036 49.4C170.22 48.8 170.311 47.9583 170.311 46.875C170.311 45.7917 170.22 44.95 170.036 44.35C169.87 43.75 169.57 43.3333 169.136 43.1C168.703 42.85 168.111 42.725 167.361 42.725ZM183.563 40.425C185.13 40.425 186.272 40.9167 186.988 41.9C187.705 42.8833 188.063 44.5167 188.063 46.8C188.063 47.7833 187.972 48.675 187.788 49.475C187.622 50.275 187.322 50.9667 186.888 51.55C186.472 52.1167 185.888 52.55 185.138 52.85C184.388 53.15 183.43 53.3 182.263 53.3C181.847 53.3 181.372 53.2833 180.838 53.25C180.305 53.2167 179.763 53.1583 179.213 53.075C178.663 52.9917 178.13 52.9 177.613 52.8C177.113 52.6833 176.663 52.5417 176.263 52.375L178.688 50.525C179.055 50.6417 179.438 50.7417 179.838 50.825C180.255 50.8917 180.663 50.9417 181.063 50.975C181.48 50.9917 181.863 51 182.213 51C182.88 50.9833 183.405 50.85 183.788 50.6C184.188 50.35 184.48 49.925 184.663 49.325C184.847 48.7083 184.938 47.8667 184.938 46.8C184.938 45.8 184.863 45.0167 184.713 44.45C184.58 43.8667 184.33 43.4583 183.963 43.225C183.597 42.9917 183.072 42.875 182.388 42.875C181.788 42.875 181.23 43.0167 180.713 43.3C180.213 43.5833 179.63 43.9667 178.963 44.45L178.763 42.825C179.213 42.3417 179.688 41.9167 180.188 41.55C180.705 41.1833 181.247 40.9083 181.813 40.725C182.397 40.525 182.98 40.425 183.563 40.425ZM179.288 35.5L179.313 39.75C179.313 40.2833 179.288 40.8 179.238 41.3C179.205 41.7833 179.122 42.2583 178.988 42.725L179.288 43.075V52.525L176.263 52.375V35.5H179.288Z" fill="white"/>
<path fill-rule="evenodd" clip-rule="evenodd" d="M219.714 40.9793L218.651 84H215.199L199 59.5685V20H202.187L219.714 40.9793ZM216.261 41.5104L202.718 24.7801L202.452 59.5685L215.199 78.6888L216.261 41.5104Z" fill="white"/>
<path fill-rule="evenodd" clip-rule="evenodd" d="M232.992 37.527L232.461 66.7386H229.009L217.855 50V22.9211H220.485L232.992 37.527ZM229.275 37.7925L221 28V48.5L229.275 61.1618V37.7925Z" fill="white"/>
<path fill-rule="evenodd" clip-rule="evenodd" d="M226.619 39.6514L226.088 76.0331H222.533L208.826 55.0538V21.5933H211.972L226.619 39.6514ZM223.432 40.0668L212.278 26.6389V55.0538L222.533 69L223.432 40.0668Z" fill="white"/>
<path fill-rule="evenodd" clip-rule="evenodd" d="M219.714 40.9793L218.651 84H215.199L199 59.5685V20H202.187L219.714 40.9793ZM216.261 41.5104L202.718 24.7801L202.452 59.5685L215.199 78.6888L216.261 41.5104Z" stroke="white" stroke-width="0.5" stroke-miterlimit="16" stroke-linejoin="round"/>
<path fill-rule="evenodd" clip-rule="evenodd" d="M232.992 37.527L232.461 66.7386H229.009L217.855 50V22.9211H220.485L232.992 37.527ZM229.275 37.7925L221 28V48.5L229.275 61.1618V37.7925Z" stroke="white" stroke-width="0.5" stroke-miterlimit="16" stroke-linejoin="round"/>
<path fill-rule="evenodd" clip-rule="evenodd" d="M226.619 39.6514L226.088 76.0331H222.533L208.826 55.0538V21.5933H211.972L226.619 39.6514ZM223.432 40.0668L212.278 26.6389V55.0538L222.533 69L223.432 40.0668Z" stroke="white" stroke-width="0.5" stroke-miterlimit="16" stroke-linejoin="round"/>
</g>
<defs>
<linearGradient id="paint0_linear_1051_514" x1="0" y1="0" x2="59.9265" y2="188.999" gradientUnits="userSpaceOnUse">
<stop stop-color="white"/>
<stop offset="1" stop-color="white" stop-opacity="0"/>
</linearGradient>
<clipPath id="clip0_1051_514">
<rect width="328" height="104" fill="white"/>
</clipPath>
</defs>
</svg>
