<svg id="svg" xmlns="http://www.w3.org/2000/svg" xmlns:xlink="http://www.w3.org/1999/xlink" width="400" height="400" viewBox="0, 0, 400,400" version="1.1"><g id="svgg"><path id="path0" d="M148.607 2.435 C 147.317 2.805,146.425 3.586,145.793 4.900 C 145.344 5.835,145.189 38.202,145.608 43.610 C 146.975 61.241,153.723 71.338,170.400 80.709 C 189.645 91.522,193.046 96.291,193.371 112.915 L 193.500 119.530 194.050 120.361 C 195.689 122.836,199.877 122.713,201.246 120.150 C 201.691 119.317,201.700 119.177,201.686 113.100 C 201.641 92.704,197.004 85.728,175.700 74.009 C 162.281 66.627,156.864 59.462,154.675 46.200 C 154.370 44.348,154.315 41.804,154.214 24.700 L 154.100 5.300 153.652 4.462 C 152.706 2.692,150.625 1.856,148.607 2.435 M116.099 25.478 C 113.819 26.637,113.752 27.007,113.836 38.016 L 113.900 46.332 114.500 47.301 C 116.361 50.305,121.410 49.636,122.403 46.253 C 122.554 45.738,122.605 42.713,122.562 36.685 L 122.500 27.870 121.948 27.037 C 120.677 25.117,118.140 24.441,116.099 25.478 M188.292 27.661 C 186.021 28.747,185.647 29.808,185.973 34.253 C 187.022 48.582,191.543 54.285,209.000 63.295 C 215.979 66.898,217.763 67.933,220.361 69.890 C 228.999 76.397,233.161 85.796,233.713 100.039 C 233.925 105.519,234.861 107.002,238.100 106.994 C 241.255 106.986,242.316 105.298,242.117 100.600 C 241.068 75.777,234.960 66.520,212.200 55.257 C 198.995 48.723,195.273 43.930,194.672 32.691 C 194.514 29.724,194.178 28.837,192.868 27.927 C 191.666 27.093,189.717 26.979,188.292 27.661 M115.981 61.065 C 113.949 62.137,113.675 63.219,113.972 69.000 C 114.740 83.970,118.169 93.197,125.790 100.805 C 130.026 105.033,133.163 107.060,143.100 111.992 C 157.535 119.158,161.012 123.426,161.774 134.920 C 162.063 139.275,163.333 140.988,166.104 140.758 C 169.687 140.461,170.662 137.821,169.804 130.737 C 168.274 118.108,163.601 112.660,147.445 104.671 C 135.144 98.589,130.617 94.810,127.008 87.611 C 124.273 82.156,122.618 73.963,122.601 65.800 C 122.592 61.628,119.333 59.297,115.981 61.065 M236.048 118.822 C 235.050 119.316,234.459 120.072,234.076 121.346 C 233.742 122.455,233.671 138.453,233.995 139.581 C 234.976 143.004,239.895 143.654,241.690 140.597 C 242.188 139.749,242.448 123.510,241.997 121.437 C 241.432 118.842,238.559 117.579,236.048 118.822 M190.327 141.305 C 185.287 142.327,181.170 145.183,178.123 149.771 C 175.692 153.431,175.208 155.561,175.203 162.628 C 175.199 169.853,175.686 172.229,177.886 175.697 C 178.947 177.372,179.083 177.198,176.454 177.535 C 96.692 187.750,32.539 247.182,16.627 325.600 C 14.521 335.979,13.010 349.364,13.002 357.711 L 13.000 359.721 11.450 360.357 C -4.658 366.964,-2.997 390.836,13.941 396.148 L 15.700 396.700 199.700 396.700 L 383.700 396.700 385.277 396.243 C 398.106 392.527,403.644 378.055,396.507 366.897 C 394.702 364.076,388.870 359.800,386.827 359.800 C 386.702 359.800,386.599 359.553,386.599 359.250 C 386.588 354.980,385.729 343.726,384.983 338.100 C 373.879 254.360,307.725 188.405,224.000 177.602 C 223.065 177.481,222.019 177.339,221.675 177.287 L 221.050 177.191 222.227 174.846 C 224.204 170.904,224.286 170.421,224.289 162.800 L 224.291 156.300 223.744 154.542 C 221.696 147.958,217.286 143.540,210.798 141.574 C 208.892 140.997,192.885 140.786,190.327 141.305 M208.700 149.682 C 211.994 150.872,214.826 153.974,215.405 157.024 C 215.736 158.773,215.652 167.514,215.291 168.908 C 214.403 172.328,212.275 174.658,209.153 175.630 C 207.530 176.135,192.825 176.193,190.939 175.702 C 185.581 174.306,184.008 171.356,184.003 162.692 C 183.998 154.669,185.352 151.990,190.422 149.991 C 192.649 149.114,206.478 148.880,208.700 149.682 M207.100 184.998 C 300.665 189.395,374.110 262.683,377.724 355.256 L 377.862 358.800 199.800 358.800 L 21.737 358.800 21.864 355.050 C 22.968 322.258,34.955 287.309,54.602 259.600 C 89.113 210.927,147.811 182.211,207.100 184.998 M250.098 249.268 C 246.080 250.762,243.876 254.086,243.198 259.674 C 242.995 261.350,241.074 272.323,240.600 274.518 L 240.381 275.536 238.840 275.866 C 232.922 277.135,227.774 276.580,226.996 274.590 C 226.061 272.199,224.398 272.430,223.074 275.135 C 222.434 276.443,222.470 278.329,223.262 285.000 C 224.521 295.601,224.441 301.403,222.983 305.299 C 221.331 309.715,217.137 310.396,212.925 306.931 C 211.429 305.701,210.616 305.465,210.578 306.250 C 210.356 310.765,217.942 313.323,223.500 310.608 C 227.766 308.523,230.200 301.363,230.200 290.896 C 230.200 286.667,229.971 284.810,229.071 281.736 C 228.986 281.446,229.135 281.495,229.796 281.974 C 231.275 283.045,233.705 283.588,237.054 283.596 C 238.769 283.600,238.805 283.610,238.704 284.050 C 238.647 284.298,238.294 285.850,237.920 287.500 C 236.855 292.193,234.565 299.460,232.578 304.454 C 232.150 305.529,231.800 306.446,231.800 306.493 C 231.800 306.540,232.297 306.407,232.905 306.198 C 238.919 304.129,242.643 298.536,246.287 286.100 C 246.803 284.340,247.257 282.799,247.297 282.675 C 247.336 282.551,247.803 282.389,248.334 282.314 C 252.572 281.715,258.082 280.264,260.231 279.183 L 261.363 278.613 261.694 280.157 C 263.335 287.803,267.134 297.363,268.914 298.321 C 271.899 299.929,272.334 294.127,270.290 279.926 C 268.979 270.813,263.130 254.965,259.850 251.639 C 257.427 249.181,253.136 248.138,250.098 249.268 M316.948 250.017 C 316.755 250.130,316.512 250.169,316.408 250.105 C 314.858 249.147,310.092 255.390,307.902 261.247 C 307.365 262.684,307.075 262.803,306.909 261.655 C 306.050 255.694,304.732 253.197,302.758 253.789 C 301.670 254.115,301.492 254.603,301.774 256.495 C 302.097 258.666,302.053 263.405,301.677 267.115 C 300.594 277.770,302.426 293.818,304.951 295.805 C 307.534 297.836,308.706 293.113,308.688 280.743 C 308.677 273.599,308.708 272.802,308.988 272.943 C 313.561 275.239,322.975 264.181,323.050 256.426 C 323.086 252.750,319.223 248.692,316.948 250.017 M318.762 254.372 C 319.337 254.737,317.075 261.895,315.725 263.983 C 314.041 266.586,308.800 269.641,308.800 268.020 C 308.800 265.123,312.480 259.035,316.276 255.653 C 317.873 254.231,318.240 254.041,318.762 254.372 M255.072 259.706 C 256.817 264.140,259.106 270.594,259.299 271.624 L 259.434 272.342 257.767 272.760 C 254.709 273.525,249.271 274.371,249.469 274.050 C 249.609 273.821,251.689 264.362,252.491 260.300 C 253.355 255.927,253.399 255.732,253.499 255.833 C 253.544 255.877,254.251 257.620,255.072 259.706 M289.948 256.017 C 289.755 256.130,289.512 256.169,289.408 256.105 C 289.065 255.893,287.315 256.873,286.391 257.794 C 284.758 259.422,283.034 262.263,281.398 266.024 C 280.214 268.747,280.083 268.899,279.903 267.769 C 278.931 261.677,277.782 259.360,275.908 259.712 C 274.634 259.951,274.502 260.301,274.768 262.752 C 275.097 265.788,275.051 269.117,274.620 273.400 C 273.718 282.368,275.074 297.210,277.119 300.741 C 278.849 303.728,280.430 302.177,281.340 296.600 C 281.707 294.356,281.848 281.182,281.524 279.523 C 281.377 278.774,281.389 278.752,281.836 278.900 C 286.980 280.607,295.528 270.957,295.950 262.965 C 296.166 258.863,292.450 254.560,289.948 256.017 M291.766 260.767 C 291.872 261.511,290.247 266.941,289.373 268.763 C 288.075 271.471,285.061 273.931,282.550 274.332 C 281.393 274.517,281.633 273.212,283.519 269.072 C 285.592 264.520,291.461 258.610,291.766 260.767 M223.197 262.966 C 220.631 264.313,221.462 270.422,224.115 269.722 C 226.915 268.984,227.730 267.077,226.677 263.732 C 226.391 262.823,224.332 262.370,223.197 262.966 M173.423 264.317 C 171.670 266.545,170.944 273.609,171.373 284.254 C 171.658 291.317,171.742 290.671,170.592 290.274 C 164.376 288.128,152.622 305.311,155.722 312.013 L 156.145 312.926 155.022 313.640 C 151.369 315.966,150.902 315.517,150.087 308.900 C 149.790 306.480,149.422 304.050,149.270 303.500 C 149.119 302.950,148.870 301.941,148.717 301.259 C 148.343 299.588,146.191 295.648,144.982 294.420 C 140.994 290.369,135.391 292.620,131.294 299.921 C 130.773 300.850,130.278 301.652,130.194 301.703 C 130.111 301.755,129.987 300.290,129.918 298.449 C 129.713 292.910,129.367 291.610,127.917 290.921 C 127.250 290.605,125.333 290.485,124.719 290.721 C 123.930 291.023,123.222 297.137,122.902 306.400 C 122.756 310.643,122.603 312.600,122.423 312.544 C 122.344 312.520,121.568 312.995,120.700 313.600 C 114.224 318.111,113.831 317.934,113.602 310.400 C 113.341 301.827,111.311 299.454,106.679 302.309 C 98.469 307.368,93.628 317.260,97.170 321.738 C 101.206 326.839,105.383 324.570,108.409 315.631 C 109.226 313.217,109.134 313.250,109.966 315.074 C 112.538 320.716,116.047 320.972,121.316 315.900 L 122.563 314.700 122.790 316.484 C 123.289 320.388,124.766 321.722,127.450 320.691 C 128.126 320.432,128.802 318.141,129.780 312.796 C 131.122 305.460,133.685 301.182,138.802 297.736 C 140.129 296.842,140.077 296.761,140.386 300.200 C 141.126 308.436,141.720 311.569,142.996 313.962 C 146.562 320.653,151.919 321.247,155.918 315.394 L 156.857 314.020 157.633 314.994 C 161.821 320.254,167.798 315.678,172.647 303.500 C 173.252 301.981,173.340 301.996,173.886 303.700 C 175.706 309.383,178.463 311.218,183.054 309.800 C 186.520 308.729,191.201 304.297,191.200 302.087 L 191.199 301.500 192.903 301.565 C 195.643 301.669,197.718 300.705,200.216 298.167 C 201.631 296.730,203.400 294.300,203.400 293.793 C 203.400 293.072,202.895 292.973,202.430 293.602 C 199.404 297.695,194.270 299.877,191.748 298.142 C 190.637 297.377,190.027 296.224,190.628 296.024 C 191.242 295.819,195.027 292.524,196.060 291.295 C 199.213 287.544,199.766 283.603,197.299 282.474 L 196.197 281.969 193.779 282.488 C 188.517 283.618,185.493 287.725,185.072 294.312 C 184.873 297.428,186.023 299.504,188.651 300.776 C 189.173 301.029,189.556 301.309,189.502 301.397 C 189.029 302.162,181.810 306.400,180.979 306.400 C 179.257 306.400,179.235 306.228,179.123 292.100 C 179.012 278.113,178.716 273.631,177.588 268.823 C 176.650 264.824,174.691 262.705,173.423 264.317 M207.678 276.753 C 207.321 276.990,206.856 278.025,206.512 279.354 C 205.687 282.537,207.730 283.910,209.965 281.675 L 210.651 280.989 210.559 279.397 C 210.454 277.583,210.218 277.188,209.024 276.831 C 208.129 276.563,207.979 276.554,207.678 276.753 M205.875 284.633 C 205.639 284.945,204.514 290.531,204.191 292.996 C 203.510 298.191,207.039 301.788,210.833 299.766 C 212.725 298.758,216.900 293.891,217.503 291.991 C 217.695 291.384,217.075 290.727,216.788 291.234 C 215.607 293.313,212.075 297.649,210.829 298.550 C 207.688 300.820,207.075 297.957,209.139 290.649 C 210.058 287.395,210.115 286.873,209.642 286.010 C 209.034 284.902,206.400 283.939,205.875 284.633 M195.560 285.440 C 196.558 286.438,193.788 290.686,190.923 292.554 C 189.690 293.357,189.525 293.249,189.648 291.714 C 189.811 289.688,190.992 288.066,193.681 286.172 C 195.202 285.102,195.216 285.096,195.560 285.440 M73.700 287.940 C 68.579 288.627,60.714 290.833,57.336 292.530 C 48.853 296.793,45.953 299.163,47.283 300.744 C 49.636 303.540,54.888 303.326,61.600 300.162 C 62.535 299.721,63.561 299.282,63.880 299.186 L 64.460 299.011 64.335 303.955 C 64.266 306.675,64.122 310.385,64.015 312.200 C 63.341 323.576,62.941 339.781,63.307 340.823 C 65.357 346.652,71.981 345.307,85.400 336.336 C 96.337 329.025,99.362 321.047,92.800 316.820 C 89.171 314.482,86.200 313.480,81.723 313.084 L 80.346 312.962 81.157 312.502 C 84.169 310.791,86.752 308.524,89.530 305.153 C 92.629 301.393,92.599 295.063,89.472 292.530 C 84.918 288.841,79.260 287.195,73.700 287.940 M83.126 292.921 C 88.777 295.262,87.324 301.993,79.325 310.531 C 77.265 312.731,76.444 313.169,73.448 313.670 L 70.852 314.104 70.738 307.302 C 70.636 301.268,70.481 298.791,70.089 296.961 C 69.946 296.296,70.227 296.138,75.200 294.079 C 79.113 292.458,81.254 292.146,83.126 292.921 M171.400 296.221 C 171.400 296.953,170.256 300.072,169.092 302.514 C 166.560 307.827,159.420 314.455,160.093 310.868 C 161.723 302.178,164.716 297.653,170.052 295.813 C 171.279 295.389,171.400 295.426,171.400 296.221 M107.143 308.540 C 107.460 309.367,105.851 314.294,104.641 316.200 C 103.143 318.560,100.742 320.919,100.092 320.669 C 99.391 320.400,100.562 314.808,101.726 312.865 C 103.219 310.373,106.761 307.545,107.143 308.540 M86.600 317.669 C 89.302 318.700,89.884 319.606,89.894 322.800 C 89.906 326.503,87.781 329.348,80.900 334.842 C 78.224 336.978,72.959 339.907,71.507 340.067 C 70.683 340.158,70.688 340.182,71.000 337.695 C 71.624 332.718,71.580 323.960,70.911 319.900 C 70.659 318.374,70.656 318.058,70.889 317.826 C 71.561 317.153,84.898 317.020,86.600 317.669 " stroke="none" fill="#fc740c" fill-rule="evenodd"></path><path id="path1" d="M145.295 22.400 C 145.295 31.365,145.320 35.033,145.350 30.550 C 145.380 26.068,145.380 18.733,145.350 14.250 C 145.320 9.768,145.295 13.435,145.295 22.400 M122.692 37.100 C 122.692 41.720,122.718 43.581,122.750 41.237 C 122.782 38.892,122.782 35.112,122.750 32.837 C 122.718 30.561,122.691 32.480,122.692 37.100 M154.262 39.700 C 154.263 40.360,154.300 40.606,154.345 40.246 C 154.389 39.887,154.389 39.347,154.343 39.046 C 154.297 38.746,154.261 39.040,154.262 39.700 M200.700 48.000 C 201.130 48.440,201.526 48.800,201.581 48.800 C 201.636 48.800,201.330 48.440,200.900 48.000 C 200.470 47.560,200.074 47.200,200.019 47.200 C 199.964 47.200,200.270 47.560,200.700 48.000 M122.650 65.300 C 122.653 65.740,122.694 65.896,122.741 65.648 C 122.789 65.399,122.787 65.039,122.737 64.848 C 122.687 64.656,122.648 64.860,122.650 65.300 M113.846 70.000 C 113.846 70.385,113.888 70.543,113.938 70.350 C 113.988 70.158,113.988 69.843,113.938 69.650 C 113.888 69.458,113.846 69.615,113.846 70.000 M242.046 98.400 C 242.046 98.785,242.088 98.942,242.138 98.750 C 242.188 98.558,242.188 98.243,242.138 98.050 C 242.088 97.858,242.046 98.015,242.046 98.400 M233.650 101.100 C 233.653 101.540,233.694 101.696,233.741 101.448 C 233.789 101.199,233.787 100.839,233.737 100.648 C 233.687 100.456,233.648 100.660,233.650 101.100 M162.200 113.900 C 162.797 114.505,163.331 115.000,163.386 115.000 C 163.441 115.000,162.997 114.505,162.400 113.900 C 161.803 113.295,161.269 112.800,161.214 112.800 C 161.159 112.800,161.603 113.295,162.200 113.900 M242.291 130.700 C 242.291 135.210,242.318 137.084,242.350 134.863 C 242.382 132.643,242.382 128.953,242.350 126.663 C 242.318 124.374,242.291 126.190,242.291 130.700 M186.687 152.450 L 186.100 153.100 186.750 152.513 C 187.108 152.190,187.400 151.897,187.400 151.863 C 187.400 151.708,187.235 151.844,186.687 152.450 M212.200 151.863 C 212.200 151.897,212.493 152.190,212.850 152.513 L 213.500 153.100 212.913 152.450 C 212.365 151.844,212.200 151.708,212.200 151.863 M175.086 162.600 C 175.086 165.185,175.115 166.243,175.149 164.950 C 175.184 163.658,175.184 161.543,175.149 160.250 C 175.115 158.958,175.086 160.015,175.086 162.600 M224.485 162.800 C 224.485 165.165,224.514 166.133,224.549 164.950 C 224.585 163.768,224.585 161.833,224.549 160.650 C 224.514 159.468,224.485 160.435,224.485 162.800 M192.250 185.138 C 192.442 185.188,192.758 185.188,192.950 185.138 C 193.143 185.088,192.985 185.046,192.600 185.046 C 192.215 185.046,192.058 185.088,192.250 185.138 M76.389 234.350 L 75.700 235.100 76.450 234.411 C 77.148 233.769,77.292 233.600,77.139 233.600 C 77.106 233.600,76.768 233.938,76.389 234.350 M323.800 235.100 C 324.173 235.485,324.523 235.800,324.578 235.800 C 324.633 235.800,324.373 235.485,324.000 235.100 C 323.627 234.715,323.277 234.400,323.222 234.400 C 323.167 234.400,323.427 234.715,323.800 235.100 M70.687 240.050 L 70.100 240.700 70.750 240.113 C 71.356 239.565,71.492 239.400,71.337 239.400 C 71.303 239.400,71.010 239.693,70.687 240.050 M317.650 249.738 C 317.843 249.788,318.158 249.788,318.350 249.738 C 318.543 249.688,318.385 249.646,318.000 249.646 C 317.615 249.646,317.457 249.688,317.650 249.738 M301.846 259.400 C 301.846 259.785,301.888 259.943,301.938 259.750 C 301.988 259.558,301.988 259.243,301.938 259.050 C 301.888 258.858,301.846 259.015,301.846 259.400 M274.846 266.200 C 274.846 266.585,274.888 266.743,274.938 266.550 C 274.988 266.358,274.988 266.043,274.938 265.850 C 274.888 265.657,274.846 265.815,274.846 266.200 M301.254 274.800 C 301.254 275.295,301.293 275.498,301.341 275.250 C 301.389 275.002,301.389 274.598,301.341 274.350 C 301.293 274.103,301.254 274.305,301.254 274.800 M289.593 275.750 L 288.500 276.900 289.650 275.807 C 290.282 275.206,290.800 274.688,290.800 274.657 C 290.800 274.508,290.609 274.682,289.593 275.750 M232.450 276.543 C 232.753 276.589,233.248 276.589,233.550 276.543 C 233.853 276.497,233.605 276.460,233.000 276.460 C 232.395 276.460,232.148 276.497,232.450 276.543 M308.877 282.200 C 308.877 283.575,308.909 284.137,308.948 283.450 C 308.987 282.762,308.987 281.637,308.948 280.950 C 308.909 280.262,308.877 280.825,308.877 282.200 M274.257 281.900 C 274.259 282.450,274.298 282.651,274.344 282.347 C 274.389 282.043,274.388 281.593,274.341 281.347 C 274.293 281.101,274.256 281.350,274.257 281.900 M281.646 281.600 C 281.646 281.985,281.688 282.143,281.738 281.950 C 281.788 281.757,281.788 281.443,281.738 281.250 C 281.688 281.058,281.646 281.215,281.646 281.600 M171.250 284.900 C 171.253 285.340,171.294 285.496,171.341 285.248 C 171.389 284.999,171.387 284.639,171.337 284.448 C 171.287 284.256,171.248 284.460,171.250 284.900 M188.789 284.950 L 188.100 285.700 188.850 285.011 C 189.548 284.369,189.692 284.200,189.539 284.200 C 189.506 284.200,189.168 284.538,188.789 284.950 M75.350 287.741 C 75.598 287.789,76.002 287.789,76.250 287.741 C 76.498 287.693,76.295 287.654,75.800 287.654 C 75.305 287.654,75.103 287.693,75.350 287.741 M77.152 287.741 C 77.401 287.789,77.761 287.787,77.952 287.737 C 78.144 287.687,77.940 287.648,77.500 287.650 C 77.060 287.653,76.904 287.694,77.152 287.741 M179.278 290.500 C 179.278 291.930,179.310 292.489,179.348 291.742 C 179.387 290.995,179.387 289.825,179.348 289.142 C 179.309 288.459,179.277 289.070,179.278 290.500 M230.246 288.600 C 230.246 288.985,230.288 289.143,230.338 288.950 C 230.388 288.757,230.388 288.443,230.338 288.250 C 230.288 288.058,230.246 288.215,230.246 288.600 M230.246 293.000 C 230.246 293.385,230.288 293.543,230.338 293.350 C 230.388 293.157,230.388 292.843,230.338 292.650 C 230.288 292.457,230.246 292.615,230.246 293.000 M162.589 293.950 L 161.900 294.700 162.650 294.011 C 163.348 293.369,163.492 293.200,163.339 293.200 C 163.306 293.200,162.968 293.538,162.589 293.950 M224.073 296.300 C 224.074 297.400,224.107 297.824,224.148 297.243 C 224.188 296.662,224.188 295.762,224.147 295.243 C 224.106 294.724,224.073 295.200,224.073 296.300 M184.854 295.400 C 184.854 295.895,184.893 296.098,184.941 295.850 C 184.989 295.603,184.989 295.197,184.941 294.950 C 184.893 294.703,184.854 294.905,184.854 295.400 M129.846 295.400 C 129.846 295.785,129.888 295.943,129.938 295.750 C 129.988 295.558,129.988 295.243,129.938 295.050 C 129.888 294.858,129.846 295.015,129.846 295.400 M86.450 297.700 C 86.453 298.140,86.494 298.296,86.541 298.048 C 86.589 297.799,86.587 297.439,86.537 297.248 C 86.487 297.056,86.448 297.260,86.450 297.700 M70.883 309.100 C 70.883 311.080,70.913 311.863,70.949 310.840 C 70.986 309.817,70.985 308.197,70.949 307.240 C 70.912 306.283,70.882 307.120,70.883 309.100 M122.650 308.900 C 122.653 309.340,122.694 309.496,122.741 309.248 C 122.789 308.999,122.787 308.639,122.737 308.448 C 122.687 308.256,122.648 308.460,122.650 308.900 M225.487 309.250 L 224.900 309.900 225.550 309.313 C 226.156 308.765,226.292 308.600,226.137 308.600 C 226.103 308.600,225.810 308.893,225.487 309.250 M113.646 312.200 C 113.646 312.585,113.688 312.743,113.738 312.550 C 113.788 312.358,113.788 312.043,113.738 311.850 C 113.688 311.658,113.646 311.815,113.646 312.200 M63.646 316.600 C 63.646 316.985,63.688 317.143,63.738 316.950 C 63.788 316.757,63.788 316.443,63.738 316.250 C 63.688 316.058,63.646 316.215,63.646 316.600 M78.860 317.349 C 79.939 317.385,81.649 317.385,82.660 317.349 C 83.672 317.313,82.790 317.283,80.700 317.283 C 78.610 317.284,77.782 317.313,78.860 317.349 M63.446 321.600 C 63.446 321.985,63.488 322.143,63.538 321.950 C 63.588 321.757,63.588 321.443,63.538 321.250 C 63.488 321.058,63.446 321.215,63.446 321.600 M63.250 327.300 C 63.253 327.740,63.294 327.896,63.341 327.648 C 63.389 327.399,63.387 327.039,63.337 326.848 C 63.287 326.656,63.248 326.860,63.250 327.300 M63.057 334.100 C 63.059 334.650,63.098 334.851,63.144 334.547 C 63.189 334.243,63.188 333.793,63.141 333.547 C 63.093 333.301,63.056 333.550,63.057 334.100 M386.450 354.700 C 386.453 355.140,386.494 355.296,386.541 355.048 C 386.589 354.799,386.587 354.439,386.537 354.248 C 386.487 354.056,386.448 354.260,386.450 354.700 M21.857 355.500 C 21.859 356.050,21.898 356.251,21.944 355.947 C 21.989 355.643,21.988 355.193,21.941 354.947 C 21.893 354.701,21.856 354.950,21.857 355.500 M377.650 356.500 C 377.653 356.940,377.694 357.096,377.741 356.848 C 377.789 356.599,377.787 356.239,377.737 356.048 C 377.687 355.856,377.648 356.060,377.650 356.500 M12.862 357.700 C 12.863 358.360,12.900 358.606,12.945 358.246 C 12.989 357.887,12.989 357.347,12.943 357.046 C 12.897 356.746,12.861 357.040,12.862 357.700 M5.589 364.150 L 4.900 364.900 5.650 364.211 C 6.063 363.832,6.400 363.494,6.400 363.461 C 6.400 363.308,6.231 363.452,5.589 364.150 " stroke="none" fill="#fcc294" fill-rule="evenodd"></path><path id="path2" d="M194.646 32.800 C 194.646 33.185,194.688 33.343,194.738 33.150 C 194.788 32.958,194.788 32.643,194.738 32.450 C 194.688 32.258,194.646 32.415,194.646 32.800 M117.850 60.538 C 118.043 60.588,118.358 60.588,118.550 60.538 C 118.743 60.488,118.585 60.446,118.200 60.446 C 117.815 60.446,117.658 60.488,117.850 60.538 M230.000 66.463 C 230.000 66.497,230.293 66.790,230.650 67.113 L 231.300 67.700 230.713 67.050 C 230.165 66.444,230.000 66.308,230.000 66.463 M122.654 67.600 C 122.654 68.095,122.693 68.297,122.741 68.050 C 122.789 67.802,122.789 67.398,122.741 67.150 C 122.693 66.903,122.654 67.105,122.654 67.600 M192.500 85.400 C 193.153 86.060,193.732 86.600,193.787 86.600 C 193.842 86.600,193.353 86.060,192.700 85.400 C 192.047 84.740,191.468 84.200,191.413 84.200 C 191.358 84.200,191.847 84.740,192.500 85.400 M242.046 99.800 C 242.046 100.185,242.088 100.343,242.138 100.150 C 242.188 99.958,242.188 99.642,242.138 99.450 C 242.088 99.258,242.046 99.415,242.046 99.800 M125.400 100.700 C 125.997 101.305,126.531 101.800,126.586 101.800 C 126.641 101.800,126.197 101.305,125.600 100.700 C 125.003 100.095,124.469 99.600,124.414 99.600 C 124.359 99.600,124.803 100.095,125.400 100.700 M201.646 108.600 C 201.646 108.985,201.688 109.142,201.738 108.950 C 201.788 108.758,201.788 108.442,201.738 108.250 C 201.688 108.058,201.646 108.215,201.646 108.600 M237.850 118.338 C 238.043 118.388,238.357 118.388,238.550 118.338 C 238.743 118.288,238.585 118.246,238.200 118.246 C 237.815 118.246,237.657 118.288,237.850 118.338 M181.091 146.050 L 180.300 146.900 181.150 146.109 C 181.940 145.374,182.092 145.200,181.941 145.200 C 181.908 145.200,181.525 145.583,181.091 146.050 M196.750 149.350 C 198.538 149.383,201.463 149.383,203.250 149.350 C 205.038 149.316,203.575 149.289,200.000 149.289 C 196.425 149.289,194.963 149.316,196.750 149.350 M196.457 184.948 C 197.094 184.988,198.084 184.987,198.657 184.947 C 199.231 184.907,198.710 184.874,197.500 184.875 C 196.290 184.875,195.821 184.908,196.457 184.948 M201.457 184.948 C 202.094 184.988,203.084 184.987,203.657 184.947 C 204.231 184.907,203.710 184.874,202.500 184.875 C 201.290 184.875,200.821 184.908,201.457 184.948 M329.000 227.900 C 329.373 228.285,329.723 228.600,329.778 228.600 C 329.833 228.600,329.573 228.285,329.200 227.900 C 328.827 227.515,328.477 227.200,328.422 227.200 C 328.367 227.200,328.627 227.515,329.000 227.900 M330.400 241.663 C 330.400 241.697,330.693 241.990,331.050 242.313 L 331.700 242.900 331.113 242.250 C 330.565 241.644,330.400 241.508,330.400 241.663 M296.046 262.400 C 296.046 262.785,296.088 262.943,296.138 262.750 C 296.188 262.558,296.188 262.243,296.138 262.050 C 296.088 261.858,296.046 262.015,296.046 262.400 M287.800 262.900 C 287.314 263.395,286.962 263.800,287.017 263.800 C 287.072 263.800,287.514 263.395,288.000 262.900 C 288.486 262.405,288.838 262.000,288.783 262.000 C 288.728 262.000,288.286 262.405,287.800 262.900 M274.850 264.700 C 274.853 265.140,274.894 265.296,274.941 265.048 C 274.989 264.799,274.987 264.439,274.937 264.248 C 274.887 264.056,274.848 264.260,274.850 264.700 M221.646 266.600 C 221.646 266.985,221.688 267.143,221.738 266.950 C 221.788 266.757,221.788 266.443,221.738 266.250 C 221.688 266.058,221.646 266.215,221.646 266.600 M316.589 269.750 L 315.900 270.500 316.650 269.811 C 317.063 269.432,317.400 269.094,317.400 269.061 C 317.400 268.908,317.231 269.052,316.589 269.750 M301.267 271.800 C 301.267 272.625,301.303 272.963,301.346 272.550 C 301.389 272.137,301.389 271.463,301.346 271.050 C 301.303 270.637,301.267 270.975,301.267 271.800 M171.246 274.400 C 171.246 274.785,171.288 274.943,171.338 274.750 C 171.388 274.558,171.388 274.243,171.338 274.050 C 171.288 273.858,171.246 274.015,171.246 274.400 M308.646 276.200 C 308.646 276.585,308.688 276.743,308.738 276.550 C 308.788 276.358,308.788 276.043,308.738 275.850 C 308.688 275.657,308.646 275.815,308.646 276.200 M301.446 278.800 C 301.446 279.185,301.488 279.343,301.538 279.150 C 301.588 278.957,301.588 278.643,301.538 278.450 C 301.488 278.257,301.446 278.415,301.446 278.800 M274.264 279.600 C 274.264 280.315,274.300 280.608,274.345 280.250 C 274.389 279.893,274.389 279.308,274.345 278.950 C 274.300 278.593,274.264 278.885,274.264 279.600 M179.054 283.000 C 179.054 283.495,179.093 283.697,179.141 283.450 C 179.189 283.203,179.189 282.798,179.141 282.550 C 179.093 282.303,179.054 282.505,179.054 283.000 M281.650 283.100 C 281.653 283.540,281.694 283.696,281.741 283.448 C 281.789 283.199,281.787 282.839,281.737 282.648 C 281.687 282.456,281.648 282.660,281.650 283.100 M171.246 283.400 C 171.246 283.785,171.288 283.943,171.338 283.750 C 171.388 283.558,171.388 283.243,171.338 283.050 C 171.288 282.858,171.246 283.015,171.246 283.400 M230.266 290.700 C 230.267 291.470,230.303 291.760,230.346 291.346 C 230.389 290.931,230.389 290.301,230.344 289.946 C 230.300 289.590,230.265 289.930,230.266 290.700 M271.654 294.000 C 271.654 294.495,271.693 294.697,271.741 294.450 C 271.789 294.203,271.789 293.798,271.741 293.550 C 271.693 293.303,271.654 293.505,271.654 294.000 M201.393 294.550 L 200.300 295.700 201.450 294.607 C 202.083 294.006,202.600 293.488,202.600 293.457 C 202.600 293.308,202.409 293.482,201.393 294.550 M129.862 297.500 C 129.863 298.160,129.900 298.406,129.945 298.046 C 129.989 297.687,129.989 297.147,129.943 296.846 C 129.897 296.546,129.861 296.840,129.862 297.500 M207.857 297.300 C 207.859 297.850,207.898 298.051,207.944 297.747 C 207.989 297.443,207.988 296.993,207.941 296.747 C 207.893 296.501,207.856 296.750,207.857 297.300 M122.846 305.400 C 122.846 305.785,122.888 305.943,122.938 305.750 C 122.988 305.558,122.988 305.243,122.938 305.050 C 122.888 304.858,122.846 305.015,122.846 305.400 M87.887 307.050 L 87.300 307.700 87.950 307.113 C 88.556 306.565,88.692 306.400,88.537 306.400 C 88.503 306.400,88.210 306.693,87.887 307.050 M164.287 309.050 L 163.700 309.700 164.350 309.113 C 164.708 308.790,165.000 308.497,165.000 308.463 C 165.000 308.308,164.835 308.444,164.287 309.050 M122.650 310.500 C 122.653 310.940,122.694 311.096,122.741 310.848 C 122.789 310.599,122.787 310.239,122.737 310.048 C 122.687 309.856,122.648 310.060,122.650 310.500 M180.050 310.338 C 180.243 310.388,180.558 310.388,180.750 310.338 C 180.942 310.288,180.785 310.246,180.400 310.246 C 180.015 310.246,179.858 310.288,180.050 310.338 M75.450 317.338 C 75.642 317.388,75.958 317.388,76.150 317.338 C 76.343 317.288,76.185 317.246,75.800 317.246 C 75.415 317.246,75.258 317.288,75.450 317.338 M63.646 318.000 C 63.646 318.385,63.688 318.543,63.738 318.350 C 63.788 318.158,63.788 317.843,63.738 317.650 C 63.688 317.457,63.646 317.615,63.646 318.000 M102.091 319.250 L 101.300 320.100 102.150 319.309 C 102.940 318.574,103.092 318.400,102.941 318.400 C 102.908 318.400,102.525 318.783,102.091 319.250 M96.250 322.100 C 96.253 322.540,96.294 322.696,96.341 322.448 C 96.389 322.199,96.387 321.839,96.337 321.648 C 96.287 321.456,96.248 321.660,96.250 322.100 M63.446 323.200 C 63.446 323.585,63.488 323.743,63.538 323.550 C 63.588 323.358,63.588 323.043,63.538 322.850 C 63.488 322.658,63.446 322.815,63.446 323.200 M71.460 326.200 C 71.460 326.805,71.497 327.053,71.543 326.750 C 71.589 326.447,71.589 325.953,71.543 325.650 C 71.497 325.348,71.460 325.595,71.460 326.200 M63.254 329.200 C 63.254 329.695,63.293 329.898,63.341 329.650 C 63.389 329.403,63.389 328.998,63.341 328.750 C 63.293 328.503,63.254 328.705,63.254 329.200 M71.462 330.300 C 71.463 330.960,71.500 331.206,71.545 330.846 C 71.589 330.487,71.589 329.947,71.543 329.646 C 71.497 329.346,71.461 329.640,71.462 330.300 M86.091 330.250 L 85.300 331.100 86.150 330.309 C 86.940 329.574,87.092 329.400,86.941 329.400 C 86.908 329.400,86.525 329.783,86.091 330.250 M63.060 336.200 C 63.060 336.805,63.097 337.053,63.143 336.750 C 63.189 336.447,63.189 335.953,63.143 335.650 C 63.097 335.348,63.060 335.595,63.060 336.200 M68.352 344.541 C 68.601 344.589,68.961 344.587,69.152 344.537 C 69.344 344.487,69.140 344.448,68.700 344.450 C 68.260 344.453,68.104 344.494,68.352 344.541 M13.050 353.700 C 13.053 354.140,13.094 354.296,13.141 354.048 C 13.189 353.799,13.187 353.439,13.137 353.248 C 13.087 353.056,13.048 353.260,13.050 353.700 M377.646 355.000 C 377.646 355.385,377.688 355.543,377.738 355.350 C 377.788 355.158,377.788 354.843,377.738 354.650 C 377.688 354.457,377.646 354.615,377.646 355.000 M386.450 356.300 C 386.453 356.740,386.494 356.896,386.541 356.648 C 386.589 356.399,386.587 356.039,386.537 355.848 C 386.487 355.656,386.448 355.860,386.450 356.300 M110.750 358.750 C 159.728 358.778,239.873 358.778,288.850 358.750 C 337.828 358.722,297.755 358.700,199.800 358.700 C 101.845 358.700,61.773 358.722,110.750 358.750 " stroke="none" fill="#fcb47c" fill-rule="evenodd"></path><path id="path3" d="M196.963 140.950 C 198.757 140.983,201.637 140.983,203.363 140.950 C 205.088 140.916,203.620 140.889,200.100 140.889 C 196.580 140.889,195.168 140.917,196.963 140.950 M108.850 396.950 C 158.872 396.978,240.727 396.978,290.750 396.950 C 340.772 396.922,299.845 396.900,199.800 396.900 C 99.755 396.900,58.827 396.922,108.850 396.950 " stroke="none" fill="#fcb484" fill-rule="evenodd"></path></g></svg>