<svg width="37" height="46" viewBox="0 0 37 46" fill="none" xmlns="http://www.w3.org/2000/svg">
<path fill-rule="evenodd" clip-rule="evenodd" d="M31.854 39.3581C34.7053 36.2902 36.5039 32.3235 36.1889 27.5131C36.1889 22.2471 34.4183 17.4694 30.1443 14.0195C26.8637 11.3715 22.2172 10.1565 17.6468 10.2834C15.013 10.2834 12.2085 10.9745 9.90249 11.8915C6.73802 13.1498 4.32612 14.9113 2.53907 17.5199C0.609791 20.3361 -6.63953e-05 23.461 5.42154e-09 27.1685C8.48931e-05 31.9082 1.39062 36.0446 4.44344 38.9754C7.79265 42.4317 13.0941 45.2196 18.5436 45.2196C23.9336 45.2196 28.6252 42.8322 31.854 39.3581ZM6.57692 15.729C3.49656 18.5753 2.42506 22.797 2.42506 26.6581C2.42506 29.2216 2.80716 31.4568 4.44344 33.8548C6.89791 37.4519 12.9918 40.2738 17.6282 40.2738C21.3853 40.2738 25.6457 39.1852 28.6184 36.6715C31.9691 33.8381 33.8082 29.3427 33.8082 25.3759C33.8082 21.3886 32.1733 18.0136 28.9237 15.4847C25.3824 12.6151 21.8517 11.6382 18.1166 11.6382C16.0169 11.6382 13.3444 12.1114 11.1562 12.9204C9.31164 13.6023 7.8996 14.5068 6.57692 15.729Z" fill="#FD720F"/>
<path d="M6.46183 3.3344C6.2176 2.35756 4.63013 0.586841 4.63013 0.586841C4.63013 0.586841 8.53776 -1.24481 12.8728 1.56382C15.7523 3.4294 15.7425 10.0506 15.7425 10.0506C15.7425 10.0506 14.4871 7.97474 13.3612 7.97474C12.2354 7.97474 12.149 7.83807 11.4074 7.60837C10.5007 7.32749 9.99535 7.10276 9.20939 6.57041C7.8368 5.64071 6.46183 3.3344 6.46183 3.3344Z" fill="#9BAB49"/>
<path d="M7.92208 3.51891C4.01447 2.48043 1.14478 6.63242 1.14478 6.63242C1.14478 6.63242 2.27158 7.04766 3.03754 7.60933C4.86924 8.95252 5.24492 9.10616 7.49468 9.19681C9.1386 9.26305 13.0688 8.9318 14.3941 9.19687C15.0047 9.31898 15.7374 10.052 15.7374 10.052C15.7374 10.052 12.9898 4.8657 7.92208 3.51891Z" fill="#C1BF0A"/>
</svg>