<svg width="849" height="335" viewBox="0 0 849 335" fill="none" xmlns="http://www.w3.org/2000/svg">
<path d="M14.9438 183.589C13.3126 181.749 12.1158 180.403 10.1568 178.202C9.90269 172.98 9.50105 166.821 9.32891 160.646C8.64857 136.061 9.70597 111.501 17.7389 88.0985C31.5342 47.9448 57.6167 19.1228 98.5764 5.41799C113.823 0.318713 129.626 -0.822668 145.7 0.515787C162.742 1.93636 179.061 5.77929 194.422 13.3338C218.079 24.9693 235.39 43.1411 248.35 65.8456C259.186 84.8304 264.989 105.318 266.342 127.004C267.17 140.2 267.112 153.461 267.317 166.69C267.366 170.024 266.899 173.366 266.686 176.428C264.973 179.097 263.448 181.47 261.178 184.993C260.883 182.546 260.53 181.24 260.596 179.959C261.874 154.594 261.743 129.221 255.858 104.406C247.538 69.319 229.021 41.0472 197.406 22.4977C182.742 13.9004 166.619 9.71255 149.774 7.86498C133.421 6.08311 117.339 6.98636 101.552 11.7161C75.3875 19.5416 55.7068 35.9972 40.1 57.9545C28.5916 74.1473 22.1816 92.3109 18.9029 111.706C15.5749 131.438 14.4356 151.326 15.0913 171.321C15.2061 174.835 15.5012 178.342 15.6815 181.856C15.6897 182.135 15.4438 182.439 14.9438 183.589Z" fill="#003366"/>
<path d="M23.5341 179.53C21.161 179.776 19.5188 179.949 17.4989 180.154C17.1868 176.608 16.6613 173.144 16.6121 169.672C16.2836 147.172 17.2197 124.747 22.4091 102.756C31.7288 63.314 54.252 34.1737 91.3746 17.1657C108.971 9.09671 127.758 7.27441 146.989 9.11312C160.274 10.3854 173.117 13.2174 185.441 18.3805C207.398 27.5823 224.017 42.924 236.761 62.7558C248.675 81.2824 255.228 101.59 257.691 123.441C259.531 139.826 259.761 156.21 259.465 172.635C259.407 175.459 259.038 178.283 258.792 181.246C256.64 181.722 254.76 182.141 253.044 182.526C253.044 177.897 253.027 173.251 253.044 168.596C253.126 144.25 252.592 119.846 245.022 96.4846C235.193 66.1952 217.358 41.898 188.209 27.2786C170.136 18.2082 150.725 14.9576 130.632 15.6471C94.4619 16.8784 67.3816 34.1573 46.8455 63.0677C35.391 79.1893 29.7992 97.404 26.6707 116.628C23.5012 136.074 23.1071 155.652 23.5258 175.278C23.5587 176.583 23.5341 177.897 23.5341 179.53Z" fill="#003366"/>
<path d="M95.4811 275.173C93.6674 270.169 93.3966 264.547 86.2893 263.631C87.4465 261.958 88.2672 260.771 89.0222 259.683C91.55 259.435 93.8315 259.213 96.1213 258.99C97.2374 261.447 98.3208 263.829 99.3877 266.171C98.091 269.155 96.7861 272.164 95.4811 275.173ZM197.166 274.761C197.707 273.392 198.216 272.082 198.742 270.73C199.964 271.323 200.752 271.702 202.033 272.321C201.425 270.21 200.982 268.644 200.531 267.069C201.516 264.167 202.673 261.612 206.924 262.354C207.851 268.974 204.823 274.497 201.967 280.837C200.243 278.66 198.963 277.028 197.166 274.761Z" fill="#003366"/>
<path d="M209.896 291.483C216.912 284.337 224.034 277.273 230.91 269.995C234.348 266.352 237.368 262.307 240.535 258.418C241.093 257.729 241.429 256.851 242.127 255.596C239.493 255.809 238.902 257.548 237.95 258.73C228.826 270.11 219.234 281.096 207.779 290.187C202.979 293.994 197.441 296.882 192.198 300.115C191.541 300.525 190.614 300.501 189.802 300.681L189.9 300.796C190.696 299.877 191.336 298.72 192.312 298.08C208.78 287.315 222.491 273.482 234.906 258.484C246.672 244.265 252.876 227.273 256.043 209.181C256.511 206.547 256.872 203.872 257.011 201.206C257.315 195.544 257.659 189.859 254.033 183.59C256.798 183.984 258.275 184.197 259.579 184.378C262.098 189.251 261.516 193.936 260.925 198.572C259.333 211.257 255.903 223.482 251.514 235.469C251.128 236.511 250.874 237.611 250.439 239.079C252.515 238.899 252.777 237.561 253.114 236.405C255.789 227.256 258.373 218.083 261.122 208.968C262.23 205.292 263.51 201.657 265.044 198.154C265.701 196.66 267.21 195.536 268.326 194.248C268.695 194.437 269.065 194.617 269.434 194.798C269.27 196.004 269.27 197.276 268.901 198.416C264.88 210.65 260.728 222.834 256.773 235.084C255.69 238.456 254.328 241.565 252.342 244.535C247.395 251.912 242.939 259.616 237.909 266.935C231.419 276.378 224.133 285.133 213.523 290.335C212.383 290.901 211.037 291.032 209.79 291.369L209.896 291.483ZM159.344 282.704C165.588 283.845 168.55 277.166 174.638 280.235C172.218 282.261 170.158 283.992 167.803 285.978C169.313 286.692 170.56 287.283 172.858 288.374C166.367 289.309 160.927 289.317 155.586 288.472C153.805 288.193 151.975 286.626 150.687 285.182C146.699 280.678 141.825 280.981 136.836 282.401C134.293 283.123 131.88 284.427 129.558 285.74C124.643 288.513 119.318 289.925 113.804 290.491C103.646 291.516 96.2367 283.861 97.9106 274.212C99.8306 263.152 112.729 261.331 118.826 265.343C122.28 267.607 124.225 272.358 123.207 275.812C122.215 279.152 119.088 281.186 114.658 281.301C115.823 279.308 116.971 277.355 117.981 275.64C116.364 270.143 113.96 268.272 109.898 269.051C106.14 269.765 103.408 272.522 103.342 275.656C103.277 278.996 106.034 282.516 109.587 283.213C113.796 284.05 117.817 283.533 121.804 281.621C126.161 279.537 130.724 277.831 135.302 276.272C141.735 274.073 147.823 275.025 153.452 278.914C155.643 280.44 157.94 281.81 159.344 282.704ZM62.1273 120.446C60.2811 117.467 60.1252 114.85 60.8719 112.216C66.4679 92.5986 75.5758 75.0977 92.4869 62.8151C114.896 46.5367 139.47 42.6969 165.842 51.394C169.436 52.5755 173.055 54.0113 176 57.1866C175.352 58.0071 174.786 58.7209 173.998 59.6973C157.94 49.991 140.783 48.7849 123.035 52.8627C117.078 54.2329 110.817 55.2256 106.239 60.4193C106.452 62.011 106.657 63.611 106.838 64.973C101.8 68.7472 96.8767 72.4476 91.9289 76.1561C87.7524 73.4732 86.0949 73.588 82.5256 77.2228C76.3142 83.5405 72.0475 91.1053 69.0936 99.384C66.6894 106.128 64.5807 112.988 62.1273 120.446ZM233.339 295.249C230.032 294.782 227.341 294.396 224.641 294.011C224.559 294.421 224.477 294.831 224.403 295.241C226.775 295.922 229.154 296.595 232.33 297.498C230.951 298.663 230.254 299.721 229.359 299.926C226.455 300.607 223.271 301.904 220.58 301.296C210.635 299.057 201.757 301.977 192.756 305.497C186.076 308.115 179.151 310.141 172.316 312.373C171.397 312.668 170.38 312.652 168.993 311.872C171.34 310.724 173.645 309.468 176.05 308.443C187.906 303.397 199.869 298.605 211.619 293.33C216.625 291.081 221.203 287.857 225.987 285.092C229.663 282.967 233.396 281.072 238.254 282.877C238.845 283.861 239.608 285.108 240.248 286.167C239.583 290.819 236.498 293.067 233.339 295.249ZM56.3179 120.511V177.01C51.8543 176.107 47.8337 175.295 43.3208 174.384C47.3824 156.137 51.3455 138.308 55.3169 120.487C55.6451 120.495 55.9815 120.503 56.3179 120.511Z" fill="#003366"/>
<path d="M204.295 255.85C204.681 255.735 205.058 255.629 205.443 255.522C205.37 254.989 205.296 254.456 205.222 253.923C204.705 254.063 204.189 254.21 203.672 254.35C203.877 254.85 204.09 255.35 204.295 255.85ZM208.855 250.611C208.601 253.792 208.404 256.326 208.199 258.9C205.903 259.647 204.18 260.204 201.654 261.016C200.465 262.943 198.923 265.443 197.176 268.28C195.946 268.477 194.355 268.723 192.37 269.035C195.602 264.968 198.538 261.278 201.548 257.507C200.514 254.784 200.104 252.202 203.606 250.217C204.755 250.299 206.362 250.422 208.855 250.611ZM95.9934 221.323C99.1264 219.749 102.005 218.306 104.818 216.888V211.23C106.057 210.681 107.23 210.164 109.108 209.328C109.616 211.492 110.33 213.288 110.412 215.108C110.666 220.561 105.991 220.471 102.161 221.774C101.841 223.398 101.505 225.12 101.111 227.096C98.4703 226.169 96.2476 225.062 95.9934 221.323ZM117.646 148.801C117.916 147.333 118.088 146.423 118.285 145.333C123.288 144.111 127.914 142.324 131.17 137.298C133.056 139.79 134.623 141.856 136.435 144.259C130.719 148.949 123.944 146.702 117.646 148.801ZM131.334 269.281C130.555 271.298 129.792 273.938 126.183 273.503C124.879 270.978 123.961 268.215 122.222 266.14C120.623 264.222 118.138 263.033 115.735 261.311C117.818 261.311 119.77 261.532 121.648 261.245C123.419 260.967 125.109 260.155 126.758 259.597C128.111 262.467 129.513 265.427 131.334 269.281ZM99.4462 315.024C95.6079 317.623 92.0484 320.034 87.7426 322.953C86.6846 322.567 84.9787 321.944 83.2891 321.329C86.3483 311.876 90.5065 310.334 99.4462 315.024ZM196.061 313.048C197.496 315.508 198.448 317.566 196.266 319.14C189.803 317.222 183.726 315.426 177.279 313.515C183.791 310.014 189.975 310.178 196.061 313.048ZM98.0028 296.354C100.389 299.339 102.702 302.758 105.556 305.644C108.288 308.416 111.593 310.629 115.489 313.77C108.632 311.966 103.194 309.604 98.6589 305.562C97.2154 304.275 96.1246 302.447 95.3044 300.667C94.4187 298.74 94.9928 297.076 98.0028 296.354ZM109.214 305.587C107.205 303.734 104.9 302.11 103.285 299.97C101.472 297.568 99.9137 295.166 97.1826 293.567C94.6319 292.083 93.2376 289.705 94.2136 285.925C96.3296 286.999 98.0602 287.885 99.5693 288.647C100.488 290.361 101.251 291.779 102.251 293.649C102.866 292.419 103.26 291.64 103.744 290.664C104.523 291.05 105.228 291.394 105.081 291.328C106.565 296.592 107.836 301.135 109.116 305.677L109.214 305.587ZM90.6788 191.265C91.0724 191.429 91.9582 191.806 92.7291 192.142C93.861 194.315 92.9588 195.873 91.5645 197.209C90.3671 198.365 89.0877 199.456 87.7344 200.423C84.4538 202.768 82.3049 205.794 81.1075 210.189C80.2873 208.434 79.459 206.679 78.8931 205.482C79.3278 201.432 81.6898 199.612 84.0601 197.677C86.1925 195.93 88.046 193.84 90.6788 191.265ZM161.745 40.5057C159.195 42.8261 157.235 44.6053 155.053 46.5895C152.035 46.1468 148.943 45.704 145.195 45.1628C146.523 42.6293 147.565 40.6451 148.582 38.7182C153.273 37.8327 157.218 38.9724 161.745 40.5057ZM171.358 316C178.247 316.221 185.235 316.221 191.624 319.935C185.85 325.158 179.592 324.035 171.358 316ZM175.664 45.0153C172.547 46.7125 169.939 48.131 166.912 49.779C164.288 48.9673 161.319 48.049 158.202 47.0815C163.271 40.4729 167.782 39.9399 175.664 45.0153ZM126.618 38.833C127.881 41.3994 128.8 43.2606 129.964 45.6302C125.839 46.4911 122.353 47.2044 118.441 48.0162C117.473 45.868 116.555 43.8346 115.595 41.6864C119.081 39.0544 122.895 40.1285 126.618 38.833Z" fill="#003366"/>
<path d="M106.365 194.805C107.095 193.748 107.793 192.748 108.818 191.265C108.991 197.886 106.849 202.581 101.597 205.735C99.7345 206.849 98.1015 208.398 96.1814 209.381C90.3962 212.331 88.2544 217.222 88.2791 223.376C88.2873 224.703 88.2791 226.039 88.2791 228.062C91.2496 230.029 94.3679 232.094 97.9949 234.486C96.805 235.928 95.8367 237.108 94.2776 239.001C92.0456 232.847 86.0799 232.503 82.4693 229.652C81.304 226.26 82.9206 224.007 84.053 221.589C85.1772 219.205 86.3096 216.78 87.0072 214.248C88.2052 209.947 90.6588 206.825 94.5402 204.694C98.241 202.671 100.974 199.868 101.392 195.19C103.124 195.059 104.732 194.928 106.365 194.805ZM47.2823 111.772C49.7851 106.798 51.9925 102.39 54.8153 96.7612C57.1622 95.0979 60.9123 93.1233 66.0738 92.6726C63.9567 98.3589 62.0201 103.554 59.8291 109.445C59.2629 108.429 59.0332 107.978 58.7542 107.552C58.4998 107.167 58.1962 106.823 57.2853 105.651C56.0708 110.207 55.0451 114.09 54.044 117.892C46.4617 121.604 44.2789 121.629 41.6777 117.728C43.6963 116.401 45.715 115.074 48.0044 113.566C47.6762 112.747 47.389 112.026 47.2823 111.772ZM230.233 279.509C234.558 274.905 238.677 270.071 243.281 265.761C246.727 262.541 251.093 260.623 255.844 259.845C261.777 258.878 266.889 261.959 268.612 267.735C265.904 270.218 263.541 268.678 261.153 267.072C256.968 264.253 252.816 264.769 248.746 267.809C251.027 267.531 253.3 267.064 255.59 267.031C258.256 266.99 260.431 268.047 261.703 271.627C259.832 271.693 258.265 272.086 256.886 271.742C248.18 269.546 241.123 272.242 235.067 278.51C234.049 279.559 232.49 280.075 231.177 280.837C230.865 280.394 230.545 279.952 230.233 279.509ZM49.5553 135.467C49.4733 144.562 37.23 159.245 28.1953 161.638C25.4545 160.433 24.8637 158.327 25.7253 155.632C28.4825 154.493 31.1166 153.395 33.7507 152.305C33.6194 151.945 33.4881 151.584 33.3486 151.224C31.1084 151.797 28.8682 152.379 26.029 153.108C26.7757 149.249 28.343 146.725 31.3792 144.464C38.5758 144.865 44.4841 141.391 49.5553 135.467ZM58.8116 206.612V179.237C62.8243 178.401 66.6729 177.598 71.3092 176.632C68.7654 187.046 66.3939 196.796 63.9239 206.89C62.0776 206.792 60.5102 206.702 58.8116 206.612ZM219.369 272.545C219.697 271.316 219.869 270.013 220.362 268.866C222.019 265.032 223.997 261.336 225.441 257.436C226.418 254.806 227.008 251.955 227.23 249.161C227.739 242.655 226.976 241.262 221.945 237.411C225.351 236.133 228.157 237.198 229.363 241.172C230.282 244.187 229.987 247.555 230.307 251.668C231.76 249.742 233.048 248.333 234 246.727C237.914 240.148 238.546 232.872 238.357 225.424C238.308 223.564 238.579 221.704 238.702 219.836C239.202 219.795 239.695 219.746 240.195 219.697C240.597 221.475 241.295 223.245 241.352 225.039C241.607 232.88 239.531 240.263 236.371 247.342C232.194 256.723 226.696 265.253 219.254 272.43L219.369 272.545ZM243.773 261.549C248.852 254.183 252.726 246.006 258.872 239.369C262.991 234.929 267.48 234.699 270.59 238.345C272.625 240.721 272.362 242.106 269.277 244.286C268.186 243.392 267.053 242.458 265.814 241.442C260.201 240.771 258.659 245.482 255.754 248.374C256.016 248.718 256.287 249.054 256.55 249.398C259.003 247.178 261.465 244.949 263.82 242.819C266.684 243.909 267.275 245.498 266.274 248.464C264.436 249.275 262.236 250.431 259.914 251.234C255.663 252.7 252.192 255.076 249.369 258.608C248.139 260.14 246.276 261.189 244.709 262.459C244.397 262.156 244.085 261.852 243.773 261.549ZM114.563 243.097C119.741 245.515 124.533 247.743 129.456 250.046C128.39 254.798 126.65 258.501 121.849 259.386C118.411 260.017 115.047 259.329 112.995 256.101C110.172 251.668 111.592 247.555 114.563 243.097Z" fill="#003366"/>
<path d="M151.513 74.5056C154.193 73.217 156.709 72.0023 159.913 70.4592C157.07 66.6591 154.463 63.179 151.218 58.8454C160.872 59.8549 167.814 64.64 175.141 67.644C177.354 77.1075 173.78 83.928 163.315 90.3218C162.634 88.6557 161.987 87.0552 161.077 84.8473C163.577 85.0935 165.454 85.2823 167.912 85.5286C168.871 83.8624 169.871 82.1141 171.297 79.6354C163.995 78.2565 157.537 77.0336 150.783 75.745C149.472 77.5096 148.39 78.9706 147.325 80.3905C144.932 78.3468 142.908 76.6232 140.637 74.6862C141.006 73.2663 141.408 71.7232 141.809 70.1802C145.817 69.7862 148.276 72.2485 151.513 74.5056ZM250.114 212.518C250.647 212.419 250.901 212.428 250.917 212.37C253.032 203.851 249.868 192.795 241.861 189.659C239.534 188.74 236.665 188.198 235.395 184.858C239.534 182.174 243.853 181.575 248.205 183.446C252.261 185.186 255.081 188.461 255.277 193.049C255.761 204.548 253.663 215.686 249.745 226.487C249.655 226.75 249.262 226.898 248.467 227.538C248.287 223.467 248.172 219.782 247.934 216.105C247.672 211.968 245.836 208.767 242.017 206.879C240.853 206.305 239.673 205.763 238.673 205.287C238.017 203.35 238.788 202.398 240.279 201.996C243.549 201.117 244.869 203.908 246.934 206.214C247.746 203.522 246.402 202.332 245.082 201.249C243.664 200.083 242.082 199.115 240.615 197.998C239.025 196.792 238.017 195.372 239.296 193.345C243.59 192.647 245.344 193.476 247.393 197.145C249.598 201.085 249.622 205.476 249.958 209.801C250.024 210.696 250.065 211.59 250.114 212.518ZM71.7615 174.648C67.0573 175.567 63.1889 176.322 58.8863 177.151V120.731C59.1813 120.674 59.4681 120.625 59.755 120.567C63.7217 138.419 67.6883 156.279 71.7615 174.648ZM211.357 249.017C212.914 247.688 215.135 245.784 217.184 244.027C221.225 246.301 221.823 247.195 220.725 250.536C219.684 253.704 218.274 256.765 216.815 259.761C214.668 264.193 212.324 268.527 210.062 272.902C210.357 273.091 210.652 273.288 210.956 273.476C211.611 272.721 212.455 272.056 212.914 271.186C215.512 266.311 218.004 261.386 220.561 256.495C221.2 255.263 221.962 254.09 222.897 252.489C224.847 254.919 223.724 256.577 223.069 258.136C217.586 271.08 210.775 283.055 197.744 291.796C198.572 289.966 198.924 289.022 199.408 288.16C201.44 284.499 203.711 280.962 205.505 277.203C207.612 272.803 208.694 268.158 208.898 263.167C209.062 258.916 210.316 254.705 211.357 249.017ZM117.518 317.429H158.422V325.94H117.518V317.429ZM157.307 314.055C162.421 306.89 158.258 298.855 159.545 291.172H169.174C169.461 298.551 166.478 304.099 161.405 308.802C161.667 309.024 161.938 309.245 162.2 309.467C162.954 309.098 163.855 308.884 164.429 308.326C167.65 305.215 169.633 301.391 170.51 297C170.904 295.046 171.215 293.068 171.551 291.23C177.452 288.907 179.05 289.276 182.074 293.831C176.001 302.967 169.65 311.847 157.307 314.055ZM124.738 297.804C128.86 298.789 131.048 300.989 129.877 305.93C132.663 303.713 132.524 301.727 131.155 299.766C129.655 297.607 127.721 296.261 124.738 297.804ZM114.641 309.59C116.764 308.482 117.911 307.883 118.976 307.325C127.377 313.456 131.327 313.53 134.827 307.743C126.139 310.969 125.5 310.862 120.829 305.503V292.214C126.557 290.466 131.163 293.117 135.089 297.238C138.72 301.046 139.187 306.365 136.785 311.256C134.679 315.541 127.524 317.675 122.689 315.163C120.083 313.801 117.804 311.814 114.641 309.59ZM154.365 306.964C149.185 308.605 149.185 308.605 147.546 305.437C148.505 304.288 149.505 303.098 150.849 301.497C145.719 303.016 145.243 303.861 146.374 308.49C150.833 311.018 151.406 310.953 154.365 306.964ZM157.381 292.321C157.545 297.689 158.102 302.491 157.717 307.21C157.242 313.07 149.497 317.289 144.03 315.204C141.686 314.301 140.744 312.471 140.424 310.23C139.851 306.258 140.637 302.573 143.293 299.478C146.809 295.366 151.521 293.634 157.381 292.321ZM47.101 149.778C45.5438 156.755 44.2571 163.813 42.3557 170.692C40.9953 175.575 36.8565 178.046 31.89 180.073C31.2917 178.53 30.9311 176.929 30.0951 175.633C29.2182 174.278 27.8823 173.219 26.0629 171.307C28.0708 169.928 30.1033 168.541 32.2997 167.039C31.0868 165.48 30.4639 164.675 29.6362 163.608C37.1106 160.777 41.3805 154.687 46.2159 149.212C46.5109 149.401 46.8059 149.59 47.101 149.778ZM43.9867 177.159C44.8226 176.987 45.3225 176.724 45.7651 176.814C49.1991 177.487 52.6248 178.226 55.9277 178.924C57.0423 182.798 57.2471 200.535 56.2145 206.567C54.7885 206.682 53.2313 206.805 51.3709 206.953C48.8876 196.923 46.4863 187.238 43.9867 177.159ZM38.2825 123.875C42.8065 122.939 47.6583 121.946 52.5347 120.945C53.846 132.854 40.0036 145.157 29.9312 141.218C31.0048 135.53 31.0048 135.53 40.6511 129.686C40.5035 127.568 36.1271 127.265 38.2825 123.875ZM100.684 209.284C106.658 204.327 112.567 199.353 115.1 191.687C117.608 184.086 115.354 176.814 113.239 169.625C114.321 163.19 114.403 163.026 119.099 158.766C119.591 158.938 120.206 159.119 120.779 159.39C121.214 159.595 121.591 159.939 122.14 160.325C120.96 161.589 119.845 162.796 118.157 164.601C118.46 167.236 118.616 170.38 119.214 173.433C120.37 179.334 122.033 185.121 120.517 191.26C118.149 200.929 110.691 208.086 100.684 209.284Z" fill="#003366"/>
<path d="M236.08 253.514C236.572 251.954 236.957 250.345 237.587 248.843C240.478 241.848 242.566 234.698 242.877 227.055C243.172 220.003 240.797 214.659 234.099 211.662C232.789 211.079 231.601 210.234 229.865 209.224C233.264 206.449 236.449 207.213 239.618 208.042C242.811 208.871 245.12 211.005 245.62 214.158C247.88 228.541 246.455 242.119 235.966 253.399L236.08 253.514ZM131.572 251.166C136.534 253.473 141.144 255.624 145.787 257.783C145.32 262.454 143.764 265.935 139.457 267.454C136.583 268.472 132.505 267.15 130.982 264.687C128.206 260.213 129.32 255.862 131.572 251.166ZM106.286 143.745C104.656 144.829 103.06 145.995 101.365 146.98C99.8826 147.834 98.6953 149.574 96.4845 149.016C97.7619 146.315 104.01 141.364 111.608 137.071C108.669 152.891 105.844 168.209 100.489 183.676C96.2061 182.01 92.3985 180.524 88.4025 178.972C89.77 177.667 89.77 177.667 99.0065 179.924C102.953 168.357 105.434 156.437 107.481 144.402C107.088 144.189 106.687 143.967 106.286 143.745ZM121.778 156.437C123.645 156.1 125.521 155.427 127.371 155.493C133.128 155.69 138.376 154.828 141.742 150.05C152.673 148.679 152.673 148.679 156.497 142.218C157.529 142.268 158.684 142.268 159.822 142.399C160.272 142.448 160.69 142.776 161.189 143.006C160.919 143.532 160.69 143.959 160.477 144.41C157.799 150.239 153.574 153.252 146.843 153.268C144.329 153.268 141.529 155.173 139.375 156.872C132.702 162.118 129.345 162.381 121.778 156.437Z" fill="#003366"/>
<path d="M140.402 146.958C137.794 143.245 135.72 139.754 133.104 136.74C131.291 134.662 128.938 132.781 126.445 131.623C122.157 129.627 119.287 131.114 118.221 135.746C116.425 143.574 115.023 151.5 113.333 159.36C111.333 168.691 109.233 177.997 107.101 187.302C106.659 189.224 105.904 191.081 105.174 193.339C96.8924 192.066 89.5451 189.339 81.8863 184.247C83.6739 182.801 84.9613 181.775 86.5029 180.535C91.2836 182.235 96.097 183.951 101.402 185.84C107.979 168.494 110.488 150.81 114.408 132.338C109.914 134.284 107.52 137.332 104.461 139.352C101.411 141.364 98.475 143.549 95.2114 145.857C94.252 144.453 93.5468 143.434 92.694 142.177C94.6046 140.855 96.2528 139.722 97.8928 138.596C119.418 123.73 140.951 108.88 162.46 93.9888C164.387 92.6582 166.15 91.0895 167.954 89.5864C172.939 85.4304 177.105 80.724 177.991 73.9972C184.001 74.3175 207.978 84.4447 215.973 90.0299C215.752 90.7856 215.489 91.6316 215.211 92.5679C210.733 90.5145 206.699 88.1901 202.369 86.802C198.204 85.4714 193.718 85.1183 188.987 84.2641C189.102 83.6234 189.315 82.416 189.594 80.8308C186.896 79.5988 184.223 78.375 181.115 76.954C180.287 79.4345 179.426 81.414 178.975 83.4838C177.039 92.3626 172.382 99.0812 164.1 103.155C156.753 106.761 149.455 110.49 142.124 114.153C140.959 114.736 139.754 115.254 137.606 116.247C144.116 119.861 147.987 124.921 150.242 131.722C175.219 119.319 200.926 110.736 229.454 108.321C225.682 105.447 222.459 108.568 219.434 106.917C220.77 105.2 222.074 103.525 223.821 101.282C228.298 103.87 232.832 106.49 237.367 109.11C237.359 109.471 237.351 109.833 237.342 110.202C205.584 113.915 175.162 122.046 146.568 137.553C143.829 130.021 139.549 124.132 132.808 120.436L131.841 121.34C133.71 122.958 135.728 124.445 137.425 126.235C139.139 128.05 140.754 130.038 142.001 132.198C143.321 134.481 144.149 137.052 145.314 139.796C146.355 139.426 147.487 139.171 148.462 138.654C173.858 125.061 200.959 116.913 229.446 113.167C232.931 112.707 236.432 112.231 239.934 112.149C241.541 112.108 243.164 113.003 244.78 113.479C244.747 113.923 244.714 114.367 244.681 114.81C241.303 115.434 237.908 116.017 234.538 116.683C219.926 119.566 205.215 122.013 190.742 125.488C173.554 129.611 157.318 136.338 142.37 145.947C141.829 146.292 141.222 146.539 140.402 146.958ZM37.639 185.101C36.081 186.958 34.8756 188.461 33.5964 189.914C28.4057 195.812 25.4783 202.547 25.8391 210.53C25.8719 211.196 25.9703 211.869 26.1343 212.51C26.2081 212.781 26.5443 212.994 26.7903 213.274C27.7333 208.633 28.2417 203.951 29.685 199.565C31.12 195.204 33.908 191.516 38.2868 189.315C37.5898 195.697 31.2922 199.146 29.8818 205.569C32.2024 205.471 32.8994 201.536 35.999 204.066C34.4328 205.906 32.8912 207.713 31.1117 209.807C34.4738 210.547 35.261 206.793 38.4508 206.317C38.2294 207.491 38.3278 208.633 37.8112 209.265C36.8764 210.415 35.5316 211.212 34.4328 212.239C30.4886 215.968 29.4636 220.477 31.9154 225.963C32.1286 223.614 32.3418 221.265 32.5632 218.818C35.4578 216.28 38.3852 214.308 43.1494 216.633C41.5914 218.448 40.3286 220.083 38.8854 221.545C35.835 224.633 34.8674 228.025 35.6136 232.477C37.6226 244.411 40.5172 256.058 44.7484 267.392C47.2084 274.004 51.1608 279.483 56.376 284.123C57.8274 285.413 59.205 286.768 60.4187 288.394C51.4068 287.228 42.477 284.107 34.0802 291.055C32.4812 287.532 34.7526 286.136 36.6058 284.682C41.821 280.6 44.4286 280.698 52.2514 285.552C51.6446 284.181 51.4724 283.31 50.964 282.735C49.324 280.838 47.5774 279.023 45.839 277.208C37.2946 268.288 30.8002 258.177 26.0195 246.678C19.8449 231.853 12.6043 217.471 5.89667 202.867C4.67487 200.198 3.15786 197.528 3.60066 193.676C11.0545 196.97 10.7019 204.83 14.6953 210.662C16.1221 205.89 14.3017 201.873 14.6215 197.881C14.9413 193.881 15.0479 189.873 15.2283 186.284C19.5579 181.282 19.7793 181.216 23.5185 183.385C23.5759 183.697 23.7727 184.066 23.6907 184.337C18.2623 201.019 20.0827 217.454 25.7899 233.594C28.5779 241.462 32.1942 249.043 35.4906 256.731C35.835 257.536 36.5484 258.193 37.967 258.489C37.3438 256.863 36.8108 255.195 36.0728 253.627C31.0544 243.015 26.3311 232.28 24.0351 220.69C21.9687 210.251 21.1815 199.754 24.1827 189.339C26.1097 182.654 30.4722 181.093 37.639 185.101Z" fill="#003366"/>
<path d="M61.6679 267.092C60.9214 267.805 59.9699 268.716 59.0265 269.61C58.4277 269.528 57.9108 269.537 57.4597 269.364C49.8306 266.435 44.154 261.512 42.136 253.34C40.2657 245.709 38.6906 238.004 37.173 230.3C36.9023 228.946 37.0336 226.985 37.8457 226.033C40.9711 222.349 44.4411 218.944 47.8291 215.489C48.0916 215.218 48.7642 215.366 49.7732 215.268C49.8963 216.917 50.0193 218.476 50.1342 220.06C48.1736 221.11 46.5165 221.996 44.8513 222.882C44.9251 223.227 44.9989 223.58 45.0728 223.932C54.3588 220.905 63.6285 221.495 72.4716 222.907C75.0802 225.836 75.8678 228.273 72.7259 231.432H47.3779C47.3451 231.785 47.304 232.138 47.263 232.49C48.2392 232.712 49.2154 233.114 50.1998 233.122C57.2464 233.212 64.293 233.139 71.3396 233.294C76.3189 233.401 77.8857 235.608 76.9916 240.958C74.0958 243.173 70.6669 242.222 67.402 242.14C62.5457 242.017 57.6976 241.705 52.8494 241.524C52.1111 241.5 51.3729 241.738 50.6428 241.861C50.6264 242.23 50.6264 242.591 50.6182 242.96C54.3096 243.141 58.0011 243.305 61.6843 243.51C65.5235 243.731 69.3544 244.002 73.858 244.298C74.3255 245.955 74.8095 247.686 75.3427 249.573C68.7473 253.578 61.9222 249.943 55.7042 252.207C60.5441 253.651 65.6629 252.856 70.5685 253.504C73.0622 255.768 73.8908 258.156 71.6513 261.159C67.5333 262.488 62.7179 260.897 58.8542 264.376C61.6105 264.105 64.3586 263.826 67.32 263.522C66.8688 267.354 63.6777 265.935 61.6679 267.092ZM105.654 123.263C107.212 123.583 109.337 124.01 111.585 124.461C113.964 123.165 115.875 121.524 116.293 118.201C111.839 117.413 106.81 118.176 104.628 113.245C107.901 110.726 111.183 108.199 115.219 105.089C124.086 107.304 130.928 101.872 137.581 95.5955C140.017 97.2037 142.298 98.7216 144.882 100.437C148.786 95.899 149.779 90.2293 153.2 84.9206C154.209 87.7677 154.996 89.9913 155.89 92.5021C157.203 92.6088 158.581 92.7154 160.968 92.9124C137.901 110.045 114.571 125.093 91.7246 140.568C78.7225 134.291 71.8153 121.557 74.1943 110.004C78.624 105.499 82.4468 101.61 86.2449 97.7452C86.655 98.057 87.1636 98.3196 87.1308 98.4427C85.9988 103.087 85.3917 107.977 83.4065 112.236C82.3401 114.541 78.9194 115.756 76.2451 117.692C77.6725 121.253 80.9045 123.37 84.9077 125.052C85.0554 126.365 85.2195 127.825 85.4081 129.532C87.2785 130.484 89.1898 131.468 91.3227 132.56C93.1028 129.278 94.8091 126.135 96.9501 122.188C97.0321 121.499 97.2208 119.891 97.5079 117.495C100.395 119.538 102.799 121.245 105.654 123.263ZM228.473 210.706C231.524 212.921 235.7 213.758 238.792 217.992C235.782 217.721 233.698 217.541 231.098 217.303C230.581 219.674 230.146 221.709 229.638 224.039C226.701 223.957 224.002 220.24 220.384 222.899V227.149C219.835 227.346 219.384 227.649 218.916 227.658C206.529 228.043 194.142 228.576 181.755 228.634C178.203 228.65 174.643 227.28 170.82 226.484C176.349 219.288 185.102 215.514 192.51 217.467C197.054 218.665 200.122 217.18 202.427 213.701C205.299 209.385 207.776 204.814 210.508 200.408C212.009 197.996 213.526 195.51 216.685 195.058C222.755 197.553 227.874 204.314 228.473 210.706ZM107.114 313.845C101.019 314.107 95.4981 311.859 90.4941 308.954C82.2335 304.146 73.3904 301.553 64.1535 299.625C60.0929 298.78 56.7952 298.919 53.276 301.356C48.9611 304.351 46.0243 303.481 43.1286 298.919C44.2606 298.542 45.2943 298.14 46.3607 297.861C47.3122 297.615 48.2966 297.508 49.9373 297.229C47.222 295.178 44.7036 296.138 42.3985 296.006C39.9211 295.859 37.4355 295.974 34.8679 295.974C36.4594 290.804 38.6496 289.024 43.752 288.564C49.3631 288.064 54.8018 288.999 60.0273 290.977C64.2027 292.56 68.2633 294.456 73.1853 296.564C72.0122 293.094 69.3954 291.395 67.8696 289.024C66.2371 286.48 64.7359 283.814 62.7918 281.541C60.905 279.334 58.5179 277.561 55.4089 274.739C56.7296 273.705 57.5909 273.024 58.6245 272.212C60.2406 274.066 61.3726 275.371 62.4965 276.667C62.8 276.511 63.1035 276.355 63.3988 276.207C62.8656 275.042 62.234 273.918 61.832 272.712C60.9296 270.021 61.7992 269.003 65.8926 268.478C67.9188 275.682 69.7727 283.149 74.3009 289.483C78.7471 295.719 83.669 301.438 90.8305 305.738C90.6828 302.874 88.6894 302.234 87.4015 301.2C83.4804 298.05 80.56 294.185 79.4608 289.311C78.8537 286.628 78.7307 283.617 79.2885 280.942C80.035 277.414 82.7093 276.962 86.4089 279.654C85.121 284.142 82.5862 288.86 85.162 293.84C85.8757 295.211 86.7617 296.499 88.0824 297.639C87.3523 292.93 83.3573 288.45 87.7953 283.822C91.3965 284.24 92.5285 284.979 91.6426 287.358C89.6574 292.708 92.2989 297.213 93.677 301.881C94.809 305.721 98.0493 308.101 101.388 310.177C103.308 311.375 105.145 312.696 107.024 313.959L107.114 313.845ZM205.11 93.216C204.306 94.3811 203.871 95.0047 203.387 95.6939C205.955 96.4734 208.235 97.1627 210.516 97.8437L210.975 96.9903C209.179 95.8334 207.382 94.6765 205.11 93.216ZM205.208 89.2447C210.713 92.9042 215.971 96.3996 221.886 100.338C220.04 102.718 218.465 104.736 217.119 106.459C211.804 105.827 207.103 105.261 202.657 104.736C195.036 108.789 186.119 108.781 178.203 112.539C176.399 109.561 174.865 107.033 173.101 104.121C165.816 108.592 158.753 112.933 151.206 117.569C152.158 119.53 153.077 121.401 154.168 123.632C155.669 123.066 157.055 122.623 158.376 122.041C172.51 115.805 187.014 110.701 202.247 107.895C205.479 107.304 208.826 107.321 212.124 107.058C212.173 107.403 212.23 107.756 212.28 108.1C202.017 110.964 191.607 113.409 181.517 116.798C171.411 120.203 161.616 124.535 151.682 128.465C148.844 124.658 145.891 120.687 142.806 116.551C148.918 113.442 155.431 110.504 161.551 106.894C167.596 103.333 173.232 99.0909 179.335 94.9555C179.803 96.416 180.229 97.9421 180.779 99.4273C183.109 105.647 190.27 108.305 196.136 105.163C199.983 103.087 201.189 96.8837 198.457 92.7565C197.653 91.5421 196.529 90.5329 195.57 89.4498C197.965 86.898 197.965 86.898 201.591 88.6375C201.427 89.1544 201.205 89.7042 201.082 90.2867C200.984 90.7462 201.008 91.2303 200.951 92.2724C202.403 91.2385 203.527 90.4426 205.208 89.2447Z" fill="#003366"/>
<path d="M152.684 81.1145C149.937 86.9252 147.461 92.1853 144.846 97.7329C139.82 95.407 137.271 90.3771 131.941 89.1114C133.331 90.6319 134.721 92.1524 136.358 93.9359C130.321 99.1384 124.901 105.187 115.541 102.771C114.973 101.045 114.381 99.2617 113.756 97.3795C113.123 97.7576 112.621 97.9795 112.646 98.0617C114.143 103.535 110.943 106.642 106.855 109.067C104.873 110.242 102.505 110.768 100.341 111.639C98.68 112.313 97.0598 113.086 95.3655 113.834V120.984C93.6383 123.951 92.0426 126.68 90.299 129.671C89.164 129.063 88.0536 128.463 86.3347 127.543C89.6328 122.669 93.4409 118.214 92.7171 112.469C95.2997 109.634 97.5532 107.168 99.6752 104.834C99.19 101.818 98.7376 99.0726 98.2606 96.1056C94.7979 95.4481 93.3422 97.8727 92.6184 100.396C91.7466 103.412 91.5985 106.642 91.1379 109.782C90.7102 112.765 90.554 115.806 89.7808 118.699C89.1887 120.91 87.9878 123.129 84.5499 122.348C85.833 119.957 87.0173 117.754 88.2017 115.551L87.3628 114.951C85.652 116.924 83.9413 118.888 82.0331 121.091C80.8076 120.096 79.9687 119.422 79.2203 118.814C79.4259 118.222 79.4505 117.729 79.6315 117.664C83.9166 116.127 85.833 112.814 86.639 108.582C87.0173 106.617 87.5026 104.653 88.1359 102.755C90.0605 97.0426 94.0495 93.492 99.9384 92.2181C103.878 91.3716 107.859 90.7634 111.815 90.0237C113.106 89.7771 114.373 89.4484 116.084 89.0621C110.195 86.8348 95.8096 90.7716 88.7445 96.2536C87.8645 95.67 86.9515 95.0618 86.0221 94.4454C82.2799 97.7658 80.1085 102.286 75.3711 105.467C75.6918 103.913 75.6918 103.067 76.029 102.385C84.5252 85.1664 96.2866 71.1945 114.702 63.929C119.341 62.088 120.829 62.6469 123.264 66.8056C123.256 70.1507 119.563 73.2985 122.688 77.2846C124.3 63.2058 136.703 48.864 149.057 53.335C148.851 54.7733 148.645 56.2362 148.382 58.1019C151.047 61.6606 153.843 65.392 156.961 69.5589C155.159 70.5205 153.621 71.3424 152.421 71.9835C148.415 70.1342 144.788 68.4494 140.873 66.6412C140.059 65.1208 139.113 63.3619 138.134 61.5291C137.345 64.1016 137.345 64.1016 139.763 68.885C139.393 70.8821 138.973 73.1587 138.562 75.3778C140.996 77.5394 143.316 79.6023 145.627 81.6652C144.813 83.6213 144.212 85.0596 143.62 86.4978C143.933 86.7033 144.245 86.917 144.566 87.1225C146.902 84.0733 149.246 81.0324 151.853 77.6298C157.249 78.6653 162.595 79.7009 167.998 80.7365C168.048 83.0049 167.028 83.6048 165.482 83.3172C163.343 82.9144 161.254 82.2241 159.107 81.8378C157.158 81.4844 155.168 81.3858 152.684 81.1145Z" fill="#003366"/>
<path d="M105.079 148.17C102.765 157.874 100.46 167.57 97.9901 177.923C95.2746 176.921 93.1825 176.158 90.7131 175.255C94.208 167.628 98.3101 160.608 97.3584 151.906C99.5571 150.37 101.83 148.786 104.102 147.201C104.422 147.53 104.75 147.85 105.079 148.17ZM218.509 230.705C225.458 228.086 227.55 233.784 231.808 236.164C230.635 230.023 223.423 229.638 221.938 224.244C226.606 223.029 228.92 228.012 233.022 228.086C233.531 225.015 230.479 222.232 232.907 218.965C234.047 219.638 235.098 220.254 236.041 220.804C236.583 229.202 236.812 237.182 232.366 245.351C231.258 238.611 227.73 234.941 221.815 233.455C220.872 233.225 220.158 232.117 218.509 230.705ZM95.7176 240.187C97.7932 239.481 99.9837 238.734 102.42 237.905C105.464 239.284 108.598 240.705 111.658 242.084C109.829 249.555 105.349 252.543 99.5407 250.524C94.7085 248.849 93.4286 245.499 95.7176 240.187ZM36.1228 272.346C31.8402 272.551 27.7628 272.83 23.6771 272.912C22.4875 272.937 21.2897 272.395 19.7145 272.026C20.2724 270.293 20.6416 269.136 21.0108 267.986C17.0646 270.958 13.3727 273.783 8.72099 269.587C8.00723 265.704 8.62254 264.275 11.7893 263.651C13.8978 263.241 16.1785 263.011 18.2706 263.364C25.1867 264.53 30.8393 268.241 36.1228 272.346ZM193.429 88.2784C191.246 89.1815 189.056 90.0846 187.021 90.922C184.888 94.9695 184.88 97.7198 186.89 99.7805C188.834 101.767 191.263 101.71 195.053 99.5917C195.89 95.0106 195.685 94.7561 190.533 95.0845C191.903 96.0122 192.797 96.6197 194.052 97.4736C192.149 99.8544 190.278 100.002 187.604 98.04C187.53 96.6115 187.44 94.8792 187.366 93.3439C190.147 90.9877 192.756 90.2898 195.504 92.1781C198.015 93.9022 198.507 96.6361 197.843 99.3372C197.49 100.799 196.44 102.506 195.193 103.262C192.108 105.125 188.777 104.936 185.709 102.917C182.944 101.094 181.073 96.7429 181.787 93.7052C182.64 90.101 184.97 87.8597 188.597 87.1865C190.016 86.9237 191.517 87.1454 192.986 87.1454L193.429 88.2784ZM124.465 334.397C123.833 332.377 123.398 330.981 122.964 329.594C126.672 328.256 149.34 328.059 154.394 329.274C154.295 329.898 154.287 330.563 154.082 331.162C153.778 332.09 153.343 332.976 152.753 334.397H124.465ZM148.216 258.98C152.564 261.065 156.732 263.068 161.014 265.121C160.858 269.177 159.513 272.206 155.78 273.635C153.023 274.694 149.266 273.602 147.666 271.147C145.098 267.223 145.894 263.282 148.216 258.98ZM98.4578 232.495C95.3976 230.705 92.6903 229.12 90.3193 227.733C89.343 220.73 89.9829 217.922 93.7486 213.012C96.177 212.635 99.0895 212.191 102.092 211.732C102.609 213.045 102.954 213.915 103.569 215.475C100.714 216.822 98.0886 218.07 95.332 219.367C93.4615 223.324 93.8799 225.188 97.5471 227.552C99.754 228.981 102.117 230.163 104.348 231.427C104.061 234.654 102.109 235.68 99.5489 236.55C99.1715 235.138 98.8434 233.923 98.4578 232.495ZM97.4076 252.88C95.1187 257.51 92.0996 258.873 87.7022 257.042C82.9684 255.072 82.1808 252.281 84.5354 245.327C86.8325 244.949 89.2281 244.547 91.2792 244.202C93.3384 247.125 95.2007 249.752 97.4076 252.88ZM13.1758 257.363C14.7838 255.696 15.6617 254.785 16.7364 253.668C16.4247 253.315 15.6207 252.404 14.6444 251.304C15.4566 251 16.0063 250.581 16.2934 250.721C18.5249 251.763 21.1174 252.486 22.8075 254.128C27.4264 258.61 31.6515 263.487 35.6059 268.528C30.3799 266.246 25.1539 263.947 19.9196 261.673C19.4684 261.484 18.8613 261.566 18.4839 261.303C17.0318 260.302 15.6453 259.21 13.1758 257.363ZM101.017 264.275C97.8343 260.893 97.4651 257.313 99.7376 253.438C102.798 252.872 105.71 252.338 108.795 251.772C110.058 254.448 111.453 257.404 113.053 260.794C109.271 261.894 105.398 263.011 101.017 264.275ZM64.8619 219.818C64.7798 218.291 64.706 216.994 64.6321 215.623C67.3395 212.438 69.9976 209.301 73.1644 205.574C75.158 207.405 76.7414 208.866 78.0295 210.04C76.6594 218.3 73.066 220.919 64.8619 219.818ZM63.6476 78.4675C68.3896 68.1722 73.0332 65.6435 83.1489 67.7781C80.5235 70.8568 78.0869 73.7303 75.4944 76.7762C71.8108 77.3017 68.0697 77.8353 63.6476 78.4675ZM89.1707 236.074C83.0094 237.1 80.7122 236.263 76.1015 231.419C77.1845 227.897 76.8317 224.391 74.0997 221.543C76.2164 218.792 78.1854 216.222 80.4087 213.324C81.4916 214.646 82.5992 215.993 83.756 217.388C82.4105 221.469 79.0058 224.744 80.1872 229.317C81.3686 233.562 86.3157 232.848 89.1707 236.074ZM0.730166 175.493C5.98081 177.332 10.329 180.37 13.3809 185.542C13.1102 189.975 12.8313 194.515 12.5195 199.622C8.10568 191.387 4.05284 183.826 0 176.265C0.246125 176.002 0.492247 175.747 0.730166 175.493ZM67.3559 89.8137C63.3441 90.9548 59.8655 91.9482 56.387 92.9334C58.2493 83.3278 63.221 79.19 72.5737 79.4527C72.6558 79.7482 72.8937 80.1341 72.787 80.3311C70.9985 83.5166 69.169 86.6692 67.3559 89.8137ZM108.278 292.222C112.93 293.125 112.807 297.435 115.383 299.923C116.589 297.025 113.939 295.408 113.988 292.748C115.088 292.665 116.244 292.575 117.368 292.485C120.018 296.467 120.084 300.342 118.427 304.225C117.45 306.491 116.696 306.655 112.749 306.614C110.042 302.476 106.777 298.412 108.278 292.222ZM116.088 158.375C116.212 151.725 117.696 150.165 123.464 149.467C128.05 148.909 132.603 148.088 137.698 147.3C137.903 147.677 138.42 148.613 138.888 149.459C136.902 153.03 133.653 153.548 130.503 153.548C125.236 153.548 120.149 153.777 116.088 158.375ZM146.624 37.2535C145.09 40.6031 144.13 42.7049 143.08 45.0037H132.062C131.053 43.0661 129.863 40.792 128.518 38.1976C131.791 37.0975 134.581 36.1451 136.599 38.2469C139.987 37.9103 142.793 37.6311 146.624 37.2535ZM97.0056 284.899C93.0184 283.347 90.0896 281.492 88.4651 278.347C88.3175 275.589 88.1862 273.159 88.096 271.393C85.3558 268.38 81.1224 268.421 80.1379 264.267C83.5181 265.096 86.6766 265.868 89.3758 266.533C93.3138 270.228 90.6064 276.566 95.7012 278.807C96.136 280.827 96.5052 282.567 97.0056 284.899ZM169.883 50.6275C176.938 45.1268 186.152 45.8821 190.172 51.6948C186.037 52.5897 181.763 53.501 176.52 54.6257C175.109 53.7801 172.697 52.3269 169.883 50.6275Z" fill="#003366"/>
<path d="M95.8032 193.113C97.0588 193.54 97.9615 193.852 98.9627 194.196C99.8737 197.594 98.1585 199.958 95.7211 201.468C90.9695 204.423 86.7678 207.747 84.6833 214.42C82.9681 208.453 84.7407 205.014 88.3845 202.363C91.6507 199.991 94.8512 197.619 95.8032 193.113ZM46.8428 265.445C49.9202 267.341 52.9895 269.229 55.9685 271.067C55.5828 272.914 55.1971 274.785 54.8278 276.542C58.0119 280.432 63.379 282.114 63.7647 287.679L63.8796 287.564C56.6168 282.558 50.5193 276.542 47.2367 268.154C46.9084 267.3 47.0315 266.274 46.9495 265.33L46.8428 265.445ZM109.254 281.86C107.727 279.964 106.258 278.142 105.068 276.657C105.799 272.643 108.121 271.075 111.117 270.829C113.694 270.624 115.442 272.216 116.09 275.023C115.286 278.29 112.725 279.981 109.254 281.86ZM86.2507 56.681C89.0984 57.0422 91.5194 57.354 93.9403 57.6577C94.088 58.0188 94.2275 58.38 94.367 58.7411C91.6589 60.9817 88.9507 63.2306 86.4969 65.2578H75.9105C79.8414 61.9994 82.9107 59.4469 86.2507 56.681ZM80.6867 252.896C82.6152 255.005 84.4945 257.057 87.1945 260.012C86.0948 260.989 84.9213 262.039 83.5918 263.229C81.3842 261.645 79.8414 260.537 77.8882 259.142C77.4615 260.668 77.125 261.834 76.7065 263.336C75.853 262.958 75.0488 262.605 74.4989 262.359V253.544C76.5588 253.331 78.6597 253.109 80.6867 252.896ZM116.812 48.3423C113.529 49.5159 111.067 50.3941 108.318 51.379C106.201 49.8606 104.092 48.3423 101.449 46.4464C105.38 44.7228 108.655 43.2783 112.504 41.5794C113.841 43.6722 115.113 45.6749 116.812 48.3423ZM88.6306 54.4076C92.6929 52.0438 96.0658 50.0741 99.8162 47.8991C101.622 49.1548 103.452 50.4434 105.922 52.1669C102.656 54.0546 100.005 55.573 97.3625 57.0914C94.8102 56.3117 92.3236 55.5484 88.6306 54.4076ZM65.3732 213.09C59.7763 214.534 54.9345 214.313 49.7889 213.271C49.7233 211.941 49.674 210.874 49.6002 209.413C54.5816 208.182 59.3086 208.609 64.2899 209.036C64.6264 210.291 64.8972 211.325 65.3732 213.09ZM177.336 304.242C182.063 299.736 183.211 292.013 190.277 289.206C191.754 295.862 188.209 300.031 177.336 304.242ZM122.91 132.083C125.133 133.092 127.284 134.061 129.696 135.152C127.686 140.183 124.034 141.735 119.881 142.744C118.806 138.263 119.34 136.104 122.91 132.083ZM218.672 134.192C220.1 134.044 221.528 133.888 223.12 133.724C223.194 136.531 220.576 135.735 219.534 137.229C220.215 138.673 220.986 140.306 221.758 141.94C221.429 142.17 221.101 142.408 220.781 142.646C219.624 141.423 218.467 140.2 217.023 138.673C215.865 139.945 214.733 141.193 213.412 142.646C211.803 140.233 214.249 139.051 214.29 137.344C213.206 136.671 212.082 135.973 210.17 134.775C212.402 134.487 213.666 134.315 215.061 134.143C215.439 132.985 215.824 131.787 216.481 129.768C217.449 131.713 218.057 132.953 218.672 134.192ZM243.308 122.275C241.995 122.866 240.682 123.457 239.205 124.121C239.968 125.722 240.748 127.372 241.536 129.021L240.633 129.686C239.443 128.504 238.253 127.331 236.759 125.845C235.66 127.084 234.568 128.324 233.255 129.801C231.515 127.454 234.174 126.272 233.903 124.507C232.869 123.834 231.762 123.12 229.882 121.897C232.057 121.553 233.296 121.356 234.552 121.159C235.118 120.248 235.692 119.32 236.587 117.867C237.252 119.213 237.654 120.026 238.237 121.191H243.062C243.144 121.553 243.226 121.914 243.308 122.275ZM69.657 274.301C68.9841 271.683 68.4261 269.508 67.9008 267.44C72.2667 263.155 74.0476 263.295 76.6737 267.948C76.5506 272.028 73.1859 272.725 69.657 274.301ZM233.124 165.52C231.778 164.724 230.424 163.927 228.725 162.926C227.863 164.338 226.994 165.766 226.124 167.186C225.795 167.128 225.475 167.063 225.147 167.005C225.262 165.454 225.385 163.895 225.508 162.196C224.261 161.982 223.022 161.769 221.774 161.556C221.7 161.252 221.626 160.94 221.553 160.636C222.898 160.078 224.236 159.528 225.73 158.913V155.006C225.976 154.94 226.222 154.875 226.468 154.809C227.125 155.843 227.773 156.877 228.553 158.108C230.087 157.583 231.671 157.041 233.263 156.508C233.452 156.779 233.649 157.05 233.846 157.321C232.771 158.314 231.688 159.307 230.383 160.497C231.548 161.826 232.755 163.205 233.961 164.576C233.682 164.888 233.403 165.208 233.124 165.52ZM219.78 181.713C218.705 181.056 217.761 180.474 215.734 179.218C218.196 178.939 219.509 178.791 221.085 178.619C221.561 177.757 222.135 176.715 223.153 174.868C223.834 176.92 224.22 178.085 224.655 179.39C226.025 179.53 227.47 179.686 229.168 179.858C228.865 180.556 228.791 181.196 228.504 181.311C227.428 181.721 226.288 181.967 225.008 182.32C225.525 184.068 226.042 185.817 226.567 187.565C226.247 187.737 225.927 187.901 225.607 188.074C224.589 186.687 223.571 185.308 222.357 183.658C221.052 184.783 219.764 185.891 218.467 187.007C218.163 186.818 217.851 186.637 217.54 186.449C218.286 184.865 219.041 183.281 219.78 181.713ZM250.415 140.503C249.332 141.119 248.257 141.726 247.182 142.342C248.011 143.959 248.807 145.502 249.594 147.045C249.332 147.275 249.061 147.504 248.798 147.734C247.461 146.511 246.131 145.297 244.662 143.959C243.604 145.321 242.545 146.675 241.486 148.038C241.109 147.767 240.731 147.504 240.346 147.234C240.887 145.805 241.429 144.386 242.085 142.637C241.019 142.022 239.878 141.365 237.826 140.175C240.042 139.757 241.232 139.535 242.717 139.256C243.111 138.296 243.587 137.122 244.408 135.095C245.196 136.859 245.663 137.91 246.263 139.264C247.436 139.322 248.823 139.379 250.202 139.445C250.276 139.798 250.341 140.151 250.415 140.503ZM110.821 194.755C110.674 188.369 108.499 181.803 112.348 175.557C115.663 183.125 115.072 190.002 110.821 194.755ZM88.4665 310.98C87.0878 311.891 85.7501 312.769 84.9295 313.311C83.1487 316.11 81.6961 318.391 80.2517 320.673C79.9153 320.558 79.5788 320.427 79.2505 320.304C79.2505 317.62 78.9059 314.87 79.3244 312.252C80.0137 307.943 84.3796 307.311 88.4665 310.98ZM77.0758 201.476C75.4837 197.266 75.9269 195.698 79.2341 193.45C81.3596 192.005 83.4687 190.528 85.7501 188.96C87.769 189.65 87.7279 191.176 86.7267 192.768C86.1276 193.729 85.1757 194.476 84.314 195.239C81.9751 197.299 79.6034 199.31 77.0758 201.476ZM134.029 274.071C133.759 272.536 133.529 271.223 133.299 269.951C137.197 269.278 140.57 268.695 144.255 268.063C144.764 269.442 145.437 271.272 146.167 273.25C142.269 273.513 138.642 273.759 134.029 274.071ZM192.846 292.341C194.266 287.671 192.313 282.172 196.966 277.453C198.246 279.554 199.28 281.261 200.462 283.19C198.164 286.571 196.071 289.673 193.97 292.768C193.601 292.628 193.223 292.489 192.846 292.341ZM80.063 237.753C84.0596 238.073 87.6623 238.361 91.2485 238.648C91.2896 241.931 90.1242 243.047 86.6447 243.178C82.5085 243.343 80.4569 241.701 80.063 237.753ZM79.1767 266.914C81.4253 270.616 87.3504 269.664 86.5298 275.491C84.593 275.606 82.8204 275.713 80.4733 275.852C79.7593 274.982 78.8238 273.85 77.5928 272.348C77.9457 271.133 78.3888 269.606 79.1767 266.914ZM115.236 317.48V324.53H109.196V316.742C111.305 316.996 113.177 317.226 115.236 317.48ZM77.6503 274.917C79.4065 279.398 76.2059 281.031 73.2844 283.485C72.2421 281.294 71.3558 279.422 70.4449 277.518C72.2832 274.892 74.2117 273.464 77.6503 274.917ZM126.274 162.713C125.191 164.395 124.395 165.643 123.394 167.202V177.814C120.809 174.531 119.848 170.814 120.054 166.899C120.218 163.911 121.564 163.074 126.274 162.713ZM108.023 118.992C109.787 119.205 111.404 119.402 113.447 119.648C112.692 120.691 112.159 121.438 111.56 122.267C109.795 121.996 108.179 121.758 106.767 121.544C103.796 119.353 101.023 117.301 97.8877 114.987C99.1187 114.355 100.046 113.879 101.187 113.296C103.427 115.159 105.569 116.94 108.023 118.992ZM195.234 239.912C198.558 239.387 200.38 240.995 201.529 243.31C202.686 245.632 202.801 248.037 200.445 250.048C198.574 247.2 196.769 244.524 195.062 241.8C194.857 241.471 195.127 240.847 195.234 239.912ZM188.045 81.9681C184.812 85.7025 182.177 88.7474 179.543 91.7924C179.215 91.6529 178.887 91.5133 178.567 91.3738C179.666 87.7954 180.766 84.2169 182.087 79.908C183.852 80.5154 185.485 81.0817 188.045 81.9681ZM161.128 315.896H166.166V322.766C164.533 322.84 162.99 322.905 161.128 322.996V315.896ZM62.5009 219.795H52.415C52.333 218.556 52.2673 217.506 52.1688 216.077H62.7061C62.6322 217.399 62.5666 218.556 62.5009 219.795ZM197.688 250.368C195.185 250.163 193.273 250.007 191.418 249.851C190.113 248.242 188.899 246.749 187.651 245.214C192.247 243.211 195.538 244.787 197.688 250.368ZM76.9937 243.384C77.5682 243.063 78.1426 242.752 78.832 242.374C79.9153 243.113 80.9821 243.835 81.8356 244.426C83.0584 247.085 80.9985 250.048 76.9937 251.443V243.384ZM171.878 133.256C168.202 139.018 163.877 140.914 157.369 139.551C162.514 137.319 166.741 135.481 171.878 133.256ZM172.592 106.385C173.798 108.659 174.783 110.497 175.949 112.689C174.332 113.37 173.052 113.92 171.394 114.617C170.434 112.935 169.572 111.416 168.448 109.455C169.761 108.486 170.975 107.583 172.592 106.385ZM128.022 288.656C131.494 286.973 134.965 285.282 138.436 283.6C138.642 284.027 138.855 284.454 139.068 284.88C136.639 288.656 132.848 289.739 128.531 289.772C128.359 289.403 128.195 289.033 128.022 288.656ZM152.708 290.97C149.113 292.932 146.282 294.475 142.925 296.305C141.776 292.661 143.91 291.372 146.413 289.977C148.128 290.248 149.991 290.535 152.708 290.97ZM179.912 240.806C183.893 239.296 184.976 241.365 186.051 244.451C184.615 245.197 183.261 245.895 181.258 246.929C180.725 244.508 180.347 242.793 179.912 240.806ZM193.158 242.259C189.555 242.366 186.675 242.3 185.403 238.689C189.186 236.809 190.745 237.441 193.158 242.259ZM94.1455 108.158C93.3823 104.645 93.6941 101.535 96.4105 98.1039C96.9767 100.747 97.3378 102.421 97.7564 104.391C96.5664 105.63 95.3518 106.894 94.1455 108.158ZM160.569 90.0032C159.675 90.2084 158.78 90.4136 157.385 90.7336C156.696 88.3371 156.089 86.2113 155.457 84.0118C159.215 83.6506 159.24 83.6835 160.569 90.0032ZM161.128 281.548C158.764 280.03 156.401 278.511 153.233 276.484C155.744 275.655 157.229 275.155 158.953 274.58C159.921 276.648 160.849 278.643 161.776 280.645C161.562 280.941 161.349 281.244 161.128 281.548ZM145.075 146.495C147.702 144.993 150.336 143.491 153.495 141.677C151.895 146.955 150.516 147.8 145.075 146.495ZM150.065 288.007C144.567 287.4 144.542 287.392 141.826 283.953C146.208 282.402 148.013 285.578 150.065 288.007ZM102.984 223.333C105.167 222.964 106.398 222.758 108.811 222.356C107.457 224.769 106.603 226.296 105.75 227.814C105.356 227.773 104.962 227.724 104.568 227.675C104.116 226.443 103.665 225.204 102.984 223.333ZM137.649 296.625C135.548 294.836 133.988 293.506 132.084 291.881C133.537 291.282 134.538 290.872 135.515 290.47C137.558 291.931 139.52 293.153 137.649 296.625ZM166.027 116.702C165.198 115.225 164.517 114.002 163.713 112.574C164.615 111.86 165.338 111.293 166.437 110.423C167.373 111.909 168.193 113.197 169.195 114.79C168.046 115.479 167.176 116.013 166.027 116.702ZM143.902 289.23C142.687 290.379 141.859 291.167 140.833 292.136C139.831 291.225 139.044 290.494 137.443 289.033C138.691 288.13 139.692 287.416 140.783 286.637C141.785 287.474 142.523 288.089 143.902 289.23ZM179.166 238.238C178.878 237.458 178.673 237.015 178.567 236.547C178.501 236.26 178.583 235.931 178.616 235.414H183.753C183.359 238.648 181.472 238.476 179.166 238.238ZM175.317 229.447C177.812 230.309 179.707 230.949 182.21 231.811C177.926 233.715 177.877 233.691 175.317 229.447ZM204.032 248.062C204.212 246.601 204.327 245.673 204.417 244.943C206.444 243.769 207.306 244.516 208.143 248.062H204.032ZM163.737 116.973C163.204 117.449 162.884 117.835 162.482 118.056C162.079 118.286 161.587 118.335 160.832 118.549C160.315 117.441 159.798 116.349 159.355 115.405C159.806 114.863 159.954 114.502 160.208 114.396C162.999 113.189 162.752 115.758 163.737 116.973ZM157.188 116.497C157.664 117.276 158.157 118.073 158.879 119.246C157.664 119.845 156.639 120.346 155.81 120.756C153.684 119.246 154.086 118.245 157.188 116.497ZM121.408 61.4742C123.771 60.7437 125.15 60.3087 127.415 59.6029C126.537 61.5234 125.995 62.7135 125.257 64.3139C123.993 63.3865 123.033 62.6807 121.408 61.4742ZM76.7639 283.74C76.8788 285.644 76.9445 286.883 77.0183 288.163C76.4849 288.089 76.0828 288.147 75.9433 287.983C74.8928 286.752 73.7275 285.471 76.7639 283.74ZM125.092 276.23C126.176 275.992 127.259 275.762 128.342 275.524C128.416 275.745 128.482 275.967 128.556 276.189C127.554 276.64 126.545 277.1 125.544 277.551C125.388 277.108 125.24 276.673 125.092 276.23ZM188.02 235.849C187.093 235.422 185.969 234.905 184.853 234.38C185.025 233.961 185.206 233.551 185.386 233.132C186.535 233.658 187.692 234.191 188.833 234.741C188.874 234.758 188.849 235.02 188.784 235.135C188.71 235.266 188.562 235.357 188.02 235.849ZM138.904 312.687C139.503 313.877 139.914 314.706 140.513 315.896H136.196C137.279 314.616 137.969 313.803 138.904 312.687ZM139.035 299.941L139.905 297.118C140.348 297.224 140.783 297.339 141.227 297.454C140.972 298.406 140.718 299.358 140.463 300.31C139.987 300.187 139.511 300.064 139.035 299.941ZM194.069 238C193.429 237.696 192.797 237.392 192.157 237.088C192.23 236.859 192.304 236.629 192.378 236.407C193.076 236.547 193.782 236.695 194.487 236.834C194.348 237.22 194.208 237.614 194.069 238ZM130.525 274.728C130.903 274.596 131.28 274.473 131.666 274.342C131.748 274.613 131.83 274.875 131.912 275.138C131.51 275.228 131.1 275.319 130.698 275.409C130.64 275.179 130.583 274.958 130.525 274.728ZM93.7515 293.638C94.006 294.073 94.2604 294.508 94.5148 294.951C94.3014 295.066 94.0962 295.181 93.8829 295.296L93.1607 293.974C93.3576 293.859 93.5546 293.744 93.7515 293.638ZM204.614 241.857C204.286 241.685 203.958 241.52 204.614 241.857C204.237 241.939 203.851 242.021 204.614 241.857ZM107.12 313.885C107.588 313.91 108.056 313.935 107.399 313.902C107.941 314.246 107.571 314.009 107.21 313.77L107.12 313.885ZM189.908 300.745C189.604 300.983 189.309 301.221 189.736 300.885C189.219 300.926 189.604 300.893 189.998 300.86L189.908 300.745ZM210.424 245.911C210.941 245.862 210.679 245.887 210.424 245.911C210.843 245.673 210.63 245.797 210.424 245.911ZM217.917 273.497L217.786 273.767L218.057 273.636L217.917 273.497Z" fill="#003366"/>
<path d="M217.906 273.526C218.317 273.198 218.719 272.878 219.121 272.558L219.006 272.443C218.595 272.755 218.177 273.075 217.767 273.386L217.906 273.526ZM209.744 291.306L209.711 291.609L209.85 291.429L209.744 291.306ZM63.6691 287.558L64.0054 287.673L63.7839 287.443L63.6691 287.558ZM236.036 253.195L235.856 253.449L236.151 253.31L236.036 253.195ZM46.8597 265.226C46.7367 265.243 46.6136 265.259 46.4906 265.276C46.5808 265.3 46.671 265.317 46.7531 265.341L46.8597 265.226ZM109.076 305.625C109.249 305.756 109.413 305.88 109.372 305.847C109.396 305.896 109.29 305.715 109.175 305.535L109.076 305.625ZM189.686 142.356C189.684 142.383 189.682 142.409 189.68 142.435C189.68 142.437 189.68 142.438 189.68 142.439C189.543 144.296 189.429 145.84 189.284 147.95C188.629 147.813 187.999 147.682 187.373 147.551C185.46 147.152 183.576 146.759 181.073 146.241C181 146.226 180.925 146.21 180.85 146.195C180.869 146.182 180.888 146.169 180.907 146.156C180.962 146.118 181.016 146.081 181.071 146.044C184.257 143.878 186.638 142.91 189.686 142.356ZM263.708 196.304C261.985 186.11 265.036 178.934 272.436 174.39C275.947 172.241 276.965 172.241 280 174.489C279.672 177.441 277.367 179.048 275.242 180.508C271.493 183.092 269.179 186.553 267.473 190.661C266.71 192.507 265.242 194.057 263.708 196.304Z" fill="#003366"/>
<path fill-rule="evenodd" clip-rule="evenodd" d="M176.41 286.66L175.418 286.266C174.048 285.725 173.859 283.747 175.171 282.927L176.188 282.287C177.222 281.647 177.386 280.195 176.525 279.333C175.541 278.349 174.442 277.914 173.318 277.659C172.047 277.389 171.35 275.994 172.014 274.878C172.457 274.14 172.646 273.311 172.006 272.203C170.308 273.59 168.75 274.853 167.069 276.215C167.092 276.285 167.116 276.36 167.142 276.441C167.195 276.603 167.254 276.787 167.32 276.995C167.423 277.315 167.543 277.691 167.684 278.127L165.577 279.604C164.896 280.088 163.928 280.113 163.313 279.547C161.206 277.586 161.32 271.547 163.781 266.756C166.676 268.38 166.684 268.47 164.453 274.451C166.93 273.853 167.414 272.343 167.717 270.513C167.896 269.474 168.185 268.456 168.52 267.271C168.552 267.156 168.586 267.039 168.619 266.92C168.898 265.968 169.866 265.369 170.833 265.574L175.319 266.534C174.245 263.219 172.244 262.686 166.979 264.778C166.495 264.975 165.937 264.967 165.47 264.754C154.442 259.632 143.371 254.489 132.215 249.306C123.785 245.39 115.306 241.451 106.761 237.481C105.793 237.03 105.383 235.873 105.859 234.922L106.129 234.364C106.589 233.445 107.696 233.059 108.622 233.486C117.911 237.774 127.134 242.03 136.37 246.292L136.414 246.313C145.699 250.597 154.997 254.888 164.388 259.224C164.352 257.252 163.085 256.704 162.005 256.238C161.845 256.169 161.689 256.102 161.542 256.032C155.166 252.958 148.754 249.979 142.34 246.998L141.089 246.416C134.402 243.304 127.714 240.201 121.034 237.102C116.902 235.185 112.772 233.269 108.647 231.353C107.72 230.926 107.294 229.835 107.696 228.899C108.039 228.108 108.391 227.324 108.741 226.546C111.225 221.02 113.584 215.771 111.665 209.816C111.444 209.135 111.575 208.38 112.067 207.863C112.38 207.538 112.691 207.22 112.999 206.907C114.276 205.602 115.487 204.365 116.512 202.989C116.772 202.642 117.04 202.294 117.31 201.942C118.805 199.999 120.361 197.976 120.924 195.753C121.304 194.238 121.709 192.726 122.114 191.213L122.114 191.212C123.859 184.695 125.609 178.158 125.409 171.287C125.402 171.026 125.388 170.764 125.374 170.501C125.322 169.531 125.27 168.559 125.573 167.668C125.992 166.446 127.558 166.093 128.55 166.922L131.641 169.503L132.157 169.934L135.423 172.661L138.178 174.962C138.473 175.208 138.686 175.528 138.793 175.898C140.015 180.279 142.262 185.571 148.011 188.557C147.263 187.313 146.394 186.134 145.521 184.952C143.553 182.281 141.567 179.589 140.925 176.07C140.778 175.258 141.13 174.421 141.86 174.019C141.931 173.979 142.003 173.94 142.075 173.9C144.258 172.696 146.649 171.377 147.396 167.389C145.518 169.014 144.23 170.122 143.008 171.172C142.738 171.41 142.401 171.566 142.049 171.623C137.317 172.345 134.307 170.885 131.011 165.937C130.322 164.912 130.789 163.492 131.962 163.09L133.963 162.385C134.529 162.188 135.168 162.278 135.669 162.614C137.12 163.615 138.481 164.542 139.851 165.47L140.548 164.912L138.736 162.344C138.252 161.654 138.26 160.711 138.809 160.071C141.721 156.65 145.395 154.664 150.167 154.508C154.62 154.361 157.999 152.711 160.287 148.388C161.57 145.966 163.743 143.972 165.858 142.032C166.23 141.691 166.6 141.351 166.963 141.012C169.162 138.955 171.476 137.022 173.79 135.09C174.79 134.256 175.789 133.421 176.779 132.577C176.685 132.401 176.588 132.227 176.492 132.052C176.422 131.926 176.353 131.801 176.284 131.674C176.258 131.625 176.231 131.576 176.205 131.527C184.135 129.271 192.065 127.015 200.061 124.742C201.176 124.422 202.324 125.185 202.472 126.334C202.699 128.184 202.912 130.005 203.122 131.804L203.123 131.813L203.123 131.813C203.77 137.349 204.391 142.669 205.326 147.936C205.925 151.322 207.082 154.575 208.225 157.788C209.519 161.428 210.795 165.017 211.222 168.686C211.271 169.186 211.14 169.703 210.812 170.081C208.877 172.332 206.792 171.876 204.837 171.45L204.836 171.449C204.603 171.399 204.373 171.348 204.145 171.303C203.48 171.172 202.792 171.402 202.341 171.902C200.938 173.444 201.061 175.233 201.75 177.12C202.464 179.114 202.16 180.738 199.889 182.076C198.515 181.951 197.094 181.822 195.643 181.69L195.609 181.687C193.267 181.475 190.85 181.256 188.432 181.034C190.224 183.019 192.424 183.194 194.602 183.366C195.116 183.407 195.627 183.447 196.133 183.512C197.699 183.717 199.109 184.012 199.872 185.161C200.561 186.194 199.913 187.622 198.708 187.934L197.707 188.196C196.78 188.434 196.182 189.337 196.305 190.289C196.374 190.82 196.458 191.352 196.543 191.885C197.036 195.002 197.533 198.149 195.124 201.463C194.812 201.89 194.32 202.144 193.795 202.193C192.548 202.303 191.223 202.421 189.851 202.544C187.633 202.742 185.291 202.951 182.946 203.153C181.843 203.244 180.73 203.289 179.616 203.334C177.211 203.431 174.805 203.528 172.506 204.089C166.979 205.418 163.674 209.159 162.739 214.927C161.288 223.87 161.484 232.805 162.428 241.781C163.577 240.243 163.512 238.537 163.443 236.748C163.423 236.228 163.402 235.7 163.412 235.168C163.444 233.642 165.232 232.747 166.43 233.691C172.349 238.378 172.801 245.376 173.288 252.935C173.351 253.91 173.414 254.894 173.49 255.884C176.992 246.113 173.088 235.726 164.666 230.122C164.141 229.769 163.805 229.187 163.805 228.547V226.34C164.043 226.323 164.257 226.295 164.454 226.27C164.84 226.22 165.157 226.179 165.445 226.249C170.727 227.562 174.212 230.901 176.221 235.898C178.944 242.667 180.264 249.69 179.994 256.992C179.991 257.058 179.989 257.124 179.987 257.189L179.987 257.191C179.913 259.382 179.838 261.585 182.552 263.687C182.415 262.797 182.293 262.006 182.18 261.271C182.023 260.252 181.883 259.34 181.74 258.42C181.642 257.78 181.872 257.132 182.364 256.713C182.874 256.265 183.398 255.804 183.977 255.293C184.386 254.933 184.822 254.549 185.299 254.129L183.29 253.653C182.495 253.472 181.913 252.791 181.839 251.979L181.683 250.174C181.617 249.362 182.118 248.558 182.921 248.262L184.684 247.614C185.242 247.409 185.873 247.475 186.366 247.803C190.064 250.231 190.023 251.339 187.374 256.688C189.654 255.958 189.867 255.884 191.229 253.308C191.532 252.75 192.098 252.373 192.729 252.307C196.551 251.922 197.281 252.324 199.027 256.016C199.331 256.656 199.273 257.402 198.855 257.968C198.55 258.378 198.24 258.796 197.926 259.22L197.925 259.221C196.782 260.764 195.584 262.379 194.337 263.95C193.798 264.62 193.105 265.166 192.397 265.723C191.554 266.387 190.69 267.067 190.039 267.994C189.211 269.168 189.982 270.809 191.409 270.956C192.202 271.04 192.978 271.119 193.746 271.197L193.753 271.198C194.411 271.265 195.064 271.331 195.714 271.399L195.69 272.556C195.322 272.646 194.954 272.735 194.576 272.827L194.571 272.828C193.215 273.158 191.723 273.52 189.597 274.033L192.893 275.067C194.009 275.411 194.542 276.667 194.025 277.709L192.491 280.802C192.172 281.442 191.516 281.852 190.794 281.852H188.186C188.302 282.083 188.391 282.282 188.469 282.456C188.618 282.787 188.724 283.025 188.891 283.214C189.244 283.608 189.597 284.002 189.99 284.42C191.032 285.544 190.384 287.382 188.867 287.587C188.129 287.685 187.399 287.349 187.005 286.717L185.463 284.248C185.25 285.774 185.07 287.037 184.881 288.342C184.684 289.72 183.118 290.418 181.962 289.646L180.871 288.924C179.912 288.284 179.862 287.005 180.592 286.11C181.306 285.249 180.814 284.289 179.182 282.558L178.985 285.044C178.886 286.307 177.591 287.119 176.41 286.66ZM181.306 273.016L180.715 274.402C179.362 272.737 178.28 271.399 177.197 270.062C177.304 269.84 177.419 269.611 177.525 269.397L180.281 270.521C181.256 270.923 181.716 272.039 181.306 273.016ZM192.295 261.07C192.27 261.299 192.245 261.537 192.221 261.775C190.367 262.382 188.514 262.99 186.382 263.687L186.431 262.506C186.48 261.423 187.423 260.602 188.498 260.709L192.295 261.07ZM193.968 171.237C193.148 171.073 192.541 170.376 192.459 169.547C192.09 165.724 192.721 165.133 197.158 162.754C196.831 163.269 196.528 163.747 196.241 164.198L196.233 164.212C195.611 165.192 195.066 166.051 194.517 166.914C194.009 167.709 194.173 168.751 194.886 169.367L196.739 170.95C196.698 171.086 196.659 171.221 196.621 171.356C196.582 171.492 196.543 171.627 196.502 171.763L193.968 171.237ZM168.504 260.889C168.504 260.569 168.512 260.256 168.52 259.936L168.521 259.913C176.139 259.215 177.853 260.02 179.378 265.681C178.737 265.066 178.171 264.526 177.64 264.02L177.635 264.015C177.021 263.429 176.453 262.888 175.869 262.325C175.582 262.054 175.229 261.874 174.843 261.816C174.051 261.701 173.238 261.581 172.412 261.46L172.396 261.458C171.118 261.27 169.811 261.078 168.504 260.889ZM184.625 280.979L183.282 281.598L183.346 281.433L183.347 281.429C183.637 280.679 183.871 280.072 184.069 279.53C184.438 278.587 183.987 277.528 183.052 277.126C182.909 277.065 182.76 277.002 182.604 276.936C182.172 276.753 181.69 276.549 181.142 276.314L184.16 275.28C185.217 274.919 185.734 273.713 185.258 272.687L184.389 270.825C184.094 270.185 184.176 269.438 184.602 268.881L185.759 267.363C186.312 268.897 186.809 270.294 187.328 271.753L187.507 272.257C187.646 272.648 187.787 273.044 187.932 273.451C188.129 274 188.063 274.624 187.751 275.116L187.596 275.354C187.013 276.273 187.317 277.487 188.26 278.02L189.506 278.726C187.926 279.457 186.539 280.096 184.68 280.953L184.625 280.979ZM192.426 149.421C188.506 150.004 184.783 149.192 181.101 148.051C177.419 146.911 177.686 146.044 177.686 146.044C177.686 146.044 179.512 144.485 181.101 143.59C182.689 142.694 184.318 142.229 186.003 141.629C189.209 140.486 192.539 139.3 196.108 138.025C191.866 135.941 188.628 137.474 185.448 138.979C183.445 139.927 181.465 140.864 179.272 140.88C185.841 134.793 192.016 133.496 198.412 136.975C199.618 137.631 199.831 139.371 198.708 140.15C197.176 141.213 196.491 142.953 195.791 144.729C195.205 146.214 194.61 147.726 193.5 148.888C193.221 149.183 192.828 149.364 192.426 149.421ZM189.686 142.356L189.68 142.435L189.68 142.439C189.543 144.296 189.429 145.84 189.284 147.95C188.629 147.813 187.999 147.682 187.373 147.551C185.46 147.152 183.576 146.759 181.073 146.241L180.85 146.195L180.907 146.156C180.962 146.118 181.016 146.081 181.071 146.044C184.257 143.878 186.638 142.91 189.686 142.356Z" fill="#003366"/>
<path fill-rule="evenodd" clip-rule="evenodd" d="M617.4 151.77H580.827L564.572 128.683H555.765V151.77H522.235V58.4172H575.882C575.882 58.4172 591.111 59.2795 602 67.1179C610.126 72.9675 614.706 80.7945 614.706 92.8816C614.706 102.585 613.065 108.123 609.412 113.292C604.184 120.688 596.353 122.659 596.353 122.659L617.4 151.77ZM570.235 83.1771C572.545 83.1771 576.048 84.5837 577.647 86.1897L577.665 86.2082C578.405 86.9512 579.465 88.0157 580.118 89.5357C580.88 91.3121 581.176 93.5958 581.176 94.8891C581.176 96.0652 580.775 97.8575 580.118 99.2388C579.429 100.687 578.112 101.717 577.294 102.585C575.695 104.191 572.545 104.592 570.235 104.592H555.765V83.1771H570.235Z" fill="#003366"/>
<path d="M692 114.162C692 125.672 687.985 139.635 681.412 145.078C674.928 150.521 665.787 151.77 653.529 151.77H637.647L620 126.675H651.412C651.412 126.675 654.679 126.189 656.353 123.664C657.908 121.318 658.735 116.047 658.735 114.028V83.1784H635.176L617.529 58.4173H658.735H692V114.162Z" fill="#003366"/>
<path d="M403.619 143.539C411.874 136.936 416.706 127.345 416.706 114.764V58.4184H383.177V114.362C383.177 114.362 382.871 120.733 380.354 123.664C377.089 127.466 369.06 128.014 369.06 128.014C366.804 128.005 360.38 127.108 357.413 123.664C354.445 120.22 353.806 114.228 353.806 114.228V58.2845H320H302L320 82.8438V114.63C320 127.211 324.834 136.936 333.088 143.539C341.435 150.141 353.85 154.112 369.06 154.112C384.27 154.112 395.365 150.141 403.619 143.539Z" fill="#003366"/>
<path d="M431.568 58.4172H511.909V83.1771L465.248 83.1768V97.7786H506.353V122.659H465.248V151.849L431.568 151.849V58.4172Z" fill="#003366"/>
<path d="M340.8 217.32C337.12 217.32 334.227 216.267 332.12 214.16C330.013 212.053 328.96 208.973 328.96 204.92V189H332.96V204.76C332.96 207.88 333.64 210.16 335 211.6C336.387 213.04 338.333 213.76 340.84 213.76C343.373 213.76 345.32 213.04 346.68 211.6C348.067 210.16 348.76 207.88 348.76 204.76V189H352.64V204.92C352.64 208.973 351.587 212.053 349.48 214.16C347.4 216.267 344.507 217.32 340.8 217.32ZM360.841 217V189H364.121L382.641 212H380.921V189H384.921V217H381.641L363.121 194H364.841V217H360.841ZM393.302 217V189H397.302V217H393.302ZM413.491 217L401.171 189H405.491L416.811 214.84H414.331L425.731 189H429.731L417.451 217H413.491ZM436.942 201.08H451.342V204.48H436.942V201.08ZM437.302 213.52H453.622V217H433.302V189H453.062V192.48H437.302V213.52ZM460.098 217V189H471.018C473.472 189 475.565 189.387 477.298 190.16C479.032 190.933 480.365 192.053 481.298 193.52C482.232 194.987 482.698 196.733 482.698 198.76C482.698 200.787 482.232 202.533 481.298 204C480.365 205.44 479.032 206.547 477.298 207.32C475.565 208.093 473.472 208.48 471.018 208.48H462.298L464.098 206.64V217H460.098ZM478.818 217L471.698 206.84H475.978L483.178 217H478.818ZM464.098 207.04L462.298 205.08H470.898C473.458 205.08 475.392 204.533 476.698 203.44C478.032 202.32 478.698 200.76 478.698 198.76C478.698 196.76 478.032 195.213 476.698 194.12C475.392 193.027 473.458 192.48 470.898 192.48H462.298L464.098 190.48V207.04ZM497.321 217.32C495.188 217.32 493.148 217 491.201 216.36C489.254 215.693 487.721 214.84 486.601 213.8L488.081 210.68C489.148 211.613 490.508 212.387 492.161 213C493.814 213.613 495.534 213.92 497.321 213.92C498.948 213.92 500.268 213.733 501.281 213.36C502.294 212.987 503.041 212.48 503.521 211.84C504.001 211.173 504.241 210.427 504.241 209.6C504.241 208.64 503.921 207.867 503.281 207.28C502.668 206.693 501.854 206.227 500.841 205.88C499.854 205.507 498.761 205.187 497.561 204.92C496.361 204.653 495.148 204.347 493.921 204C492.721 203.627 491.614 203.16 490.601 202.6C489.614 202.04 488.814 201.293 488.201 200.36C487.588 199.4 487.281 198.173 487.281 196.68C487.281 195.24 487.654 193.92 488.401 192.72C489.174 191.493 490.348 190.52 491.921 189.8C493.521 189.053 495.548 188.68 498.001 188.68C499.628 188.68 501.241 188.893 502.841 189.32C504.441 189.747 505.828 190.36 507.001 191.16L505.681 194.36C504.481 193.56 503.214 192.987 501.881 192.64C500.548 192.267 499.254 192.08 498.001 192.08C496.428 192.08 495.134 192.28 494.121 192.68C493.108 193.08 492.361 193.613 491.881 194.28C491.428 194.947 491.201 195.693 491.201 196.52C491.201 197.507 491.508 198.293 492.121 198.88C492.761 199.467 493.574 199.933 494.561 200.28C495.574 200.627 496.681 200.947 497.881 201.24C499.081 201.507 500.281 201.813 501.481 202.16C502.708 202.507 503.814 202.96 504.801 203.52C505.814 204.08 506.628 204.827 507.241 205.76C507.854 206.693 508.161 207.893 508.161 209.36C508.161 210.773 507.774 212.093 507.001 213.32C506.228 214.52 505.028 215.493 503.401 216.24C501.801 216.96 499.774 217.32 497.321 217.32ZM514.005 217V189H518.005V217H514.005ZM526.388 217V189H538.188C541.174 189 543.801 189.587 546.068 190.76C548.361 191.933 550.134 193.573 551.388 195.68C552.668 197.787 553.308 200.227 553.308 203C553.308 205.773 552.668 208.213 551.388 210.32C550.134 212.427 548.361 214.067 546.068 215.24C543.801 216.413 541.174 217 538.188 217H526.388ZM530.388 213.52H537.948C540.268 213.52 542.268 213.08 543.948 212.2C545.654 211.32 546.974 210.093 547.908 208.52C548.841 206.92 549.308 205.08 549.308 203C549.308 200.893 548.841 199.053 547.908 197.48C546.974 195.907 545.654 194.68 543.948 193.8C542.268 192.92 540.268 192.48 537.948 192.48H530.388V213.52ZM554.804 217L567.484 189H571.444L584.164 217H579.964L568.644 191.24H570.244L558.924 217H554.804ZM560.204 210L561.284 206.8H577.044L578.204 210H560.204ZM588.341 217V189H600.141C603.127 189 605.754 189.587 608.021 190.76C610.314 191.933 612.087 193.573 613.341 195.68C614.621 197.787 615.261 200.227 615.261 203C615.261 205.773 614.621 208.213 613.341 210.32C612.087 212.427 610.314 214.067 608.021 215.24C605.754 216.413 603.127 217 600.141 217H588.341ZM592.341 213.52H599.901C602.221 213.52 604.221 213.08 605.901 212.2C607.607 211.32 608.927 210.093 609.861 208.52C610.794 206.92 611.261 205.08 611.261 203C611.261 200.893 610.794 199.053 609.861 197.48C608.927 195.907 607.607 194.68 605.901 193.8C604.221 192.92 602.221 192.48 599.901 192.48H592.341V213.52ZM625.028 201.08H639.428V204.48H625.028V201.08ZM625.388 213.52H641.708V217H621.388V189H641.148V192.48H625.388V213.52ZM662.527 202.24H676.967V205.68H662.527V202.24ZM662.927 217H658.927V189H678.687V192.48H662.927V217ZM687.957 201.08H702.357V204.48H687.957V201.08ZM688.317 213.52H704.637V217H684.317V189H704.077V192.48H688.317V213.52ZM711.114 217V189H722.914C725.901 189 728.527 189.587 730.794 190.76C733.087 191.933 734.861 193.573 736.114 195.68C737.394 197.787 738.034 200.227 738.034 203C738.034 205.773 737.394 208.213 736.114 210.32C734.861 212.427 733.087 214.067 730.794 215.24C728.527 216.413 725.901 217 722.914 217H711.114ZM715.114 213.52H722.674C724.994 213.52 726.994 213.08 728.674 212.2C730.381 211.32 731.701 210.093 732.634 208.52C733.567 206.92 734.034 205.08 734.034 203C734.034 200.893 733.567 199.053 732.634 197.48C731.701 195.907 730.381 194.68 728.674 193.8C726.994 192.92 724.994 192.48 722.674 192.48H715.114V213.52ZM747.801 201.08H762.201V204.48H747.801V201.08ZM748.161 213.52H764.481V217H744.161V189H763.921V192.48H748.161V213.52ZM770.958 217V189H781.878C784.331 189 786.424 189.387 788.158 190.16C789.891 190.933 791.224 192.053 792.158 193.52C793.091 194.987 793.558 196.733 793.558 198.76C793.558 200.787 793.091 202.533 792.158 204C791.224 205.44 789.891 206.547 788.158 207.32C786.424 208.093 784.331 208.48 781.878 208.48H773.158L774.958 206.64V217H770.958ZM789.678 217L782.558 206.84H786.838L794.038 217H789.678ZM774.958 207.04L773.158 205.08H781.758C784.318 205.08 786.251 204.533 787.558 203.44C788.891 202.32 789.558 200.76 789.558 198.76C789.558 196.76 788.891 195.213 787.558 194.12C786.251 193.027 784.318 192.48 781.758 192.48H773.158L774.958 190.48V207.04ZM795.78 217L808.46 189H812.42L825.14 217H820.94L809.62 191.24H811.22L799.9 217H795.78ZM801.18 210L802.26 206.8H818.02L819.18 210H801.18ZM829.317 217V189H833.317V213.52H848.477V217H829.317ZM329.2 266V238H341C343.987 238 346.613 238.587 348.88 239.76C351.173 240.933 352.947 242.573 354.2 244.68C355.48 246.787 356.12 249.227 356.12 252C356.12 254.773 355.48 257.213 354.2 259.32C352.947 261.427 351.173 263.067 348.88 264.24C346.613 265.413 343.987 266 341 266H329.2ZM333.2 262.52H340.76C343.08 262.52 345.08 262.08 346.76 261.2C348.467 260.32 349.787 259.093 350.72 257.52C351.653 255.92 352.12 254.08 352.12 252C352.12 249.893 351.653 248.053 350.72 246.48C349.787 244.907 348.467 243.68 346.76 242.8C345.08 241.92 343.08 241.48 340.76 241.48H333.2V262.52ZM374.887 266.32C372.754 266.32 370.767 265.96 368.927 265.24C367.114 264.52 365.54 263.52 364.207 262.24C362.874 260.933 361.834 259.413 361.087 257.68C360.34 255.947 359.967 254.053 359.967 252C359.967 249.947 360.34 248.053 361.087 246.32C361.834 244.587 362.874 243.08 364.207 241.8C365.54 240.493 367.114 239.48 368.927 238.76C370.74 238.04 372.727 237.68 374.887 237.68C377.02 237.68 378.98 238.04 380.767 238.76C382.58 239.453 384.154 240.453 385.487 241.76C386.847 243.04 387.887 244.547 388.607 246.28C389.354 248.013 389.727 249.92 389.727 252C389.727 254.08 389.354 255.987 388.607 257.72C387.887 259.453 386.847 260.973 385.487 262.28C384.154 263.56 382.58 264.56 380.767 265.28C378.98 265.973 377.02 266.32 374.887 266.32ZM374.887 262.76C376.434 262.76 377.86 262.493 379.167 261.96C380.5 261.427 381.647 260.68 382.607 259.72C383.594 258.733 384.354 257.587 384.887 256.28C385.447 254.973 385.727 253.547 385.727 252C385.727 250.453 385.447 249.027 384.887 247.72C384.354 246.413 383.594 245.28 382.607 244.32C381.647 243.333 380.5 242.573 379.167 242.04C377.86 241.507 376.434 241.24 374.887 241.24C373.314 241.24 371.86 241.507 370.527 242.04C369.22 242.573 368.074 243.333 367.087 244.32C366.1 245.28 365.327 246.413 364.767 247.72C364.234 249.027 363.967 250.453 363.967 252C363.967 253.547 364.234 254.973 364.767 256.28C365.327 257.587 366.1 258.733 367.087 259.72C368.074 260.68 369.22 261.427 370.527 261.96C371.86 262.493 373.314 262.76 374.887 262.76ZM406.583 266V238H417.503C419.956 238 422.049 238.387 423.783 239.16C425.516 239.933 426.849 241.053 427.783 242.52C428.716 243.987 429.183 245.733 429.183 247.76C429.183 249.787 428.716 251.533 427.783 253C426.849 254.44 425.516 255.547 423.783 256.32C422.049 257.093 419.956 257.48 417.503 257.48H408.783L410.583 255.64V266H406.583ZM425.303 266L418.183 255.84H422.463L429.663 266H425.303ZM410.583 256.04L408.783 254.08H417.383C419.943 254.08 421.876 253.533 423.183 252.44C424.516 251.32 425.183 249.76 425.183 247.76C425.183 245.76 424.516 244.213 423.183 243.12C421.876 242.027 419.943 241.48 417.383 241.48H408.783L410.583 239.48V256.04ZM435.645 266V238H439.645V266H435.645ZM460.668 266.32C458.535 266.32 456.548 265.96 454.708 265.24C452.895 264.52 451.321 263.52 449.988 262.24C448.655 260.933 447.615 259.413 446.868 257.68C446.121 255.947 445.748 254.053 445.748 252C445.748 249.947 446.121 248.053 446.868 246.32C447.615 244.587 448.655 243.08 449.988 241.8C451.321 240.493 452.895 239.48 454.708 238.76C456.521 238.04 458.508 237.68 460.668 237.68C462.801 237.68 464.761 238.04 466.548 238.76C468.361 239.453 469.935 240.453 471.268 241.76C472.628 243.04 473.668 244.547 474.388 246.28C475.135 248.013 475.508 249.92 475.508 252C475.508 254.08 475.135 255.987 474.388 257.72C473.668 259.453 472.628 260.973 471.268 262.28C469.935 263.56 468.361 264.56 466.548 265.28C464.761 265.973 462.801 266.32 460.668 266.32ZM460.668 262.76C462.215 262.76 463.641 262.493 464.948 261.96C466.281 261.427 467.428 260.68 468.388 259.72C469.375 258.733 470.135 257.587 470.668 256.28C471.228 254.973 471.508 253.547 471.508 252C471.508 250.453 471.228 249.027 470.668 247.72C470.135 246.413 469.375 245.28 468.388 244.32C467.428 243.333 466.281 242.573 464.948 242.04C463.641 241.507 462.215 241.24 460.668 241.24C459.095 241.24 457.641 241.507 456.308 242.04C455.001 242.573 453.855 243.333 452.868 244.32C451.881 245.28 451.108 246.413 450.548 247.72C450.015 249.027 449.748 250.453 449.748 252C449.748 253.547 450.015 254.973 450.548 256.28C451.108 257.587 451.881 258.733 452.868 259.72C453.855 260.68 455.001 261.427 456.308 261.96C457.641 262.493 459.095 262.76 460.668 262.76ZM492.364 266V238H504.164C507.151 238 509.777 238.587 512.044 239.76C514.337 240.933 516.111 242.573 517.364 244.68C518.644 246.787 519.284 249.227 519.284 252C519.284 254.773 518.644 257.213 517.364 259.32C516.111 261.427 514.337 263.067 512.044 264.24C509.777 265.413 507.151 266 504.164 266H492.364ZM496.364 262.52H503.924C506.244 262.52 508.244 262.08 509.924 261.2C511.631 260.32 512.951 259.093 513.884 257.52C514.817 255.92 515.284 254.08 515.284 252C515.284 249.893 514.817 248.053 513.884 246.48C512.951 244.907 511.631 243.68 509.924 242.8C508.244 241.92 506.244 241.48 503.924 241.48H496.364V262.52ZM529.051 250.08H543.451V253.48H529.051V250.08ZM529.411 262.52H545.731V266H525.411V238H545.171V241.48H529.411V262.52ZM566.55 266.32C564.897 266.32 563.35 265.973 561.91 265.28C560.47 264.587 559.297 263.587 558.39 262.28L560.71 259.56C561.483 260.627 562.35 261.453 563.31 262.04C564.297 262.6 565.377 262.88 566.55 262.88C569.75 262.88 571.35 260.987 571.35 257.2V241.48H561.23V238H575.31V257C575.31 260.12 574.563 262.453 573.07 264C571.603 265.547 569.43 266.32 566.55 266.32ZM578.632 266L591.312 238H595.272L607.992 266H603.792L592.472 240.24H594.072L582.752 266H578.632ZM584.032 259L585.112 255.8H600.872L602.032 259H584.032ZM612.169 266V238H615.449L633.969 261H632.249V238H636.249V266H632.969L614.449 243H616.169V266H612.169ZM648.27 250.08H662.67V253.48H648.27V250.08ZM648.63 262.52H664.95V266H644.63V238H664.39V241.48H648.63V262.52ZM671.427 266V238H675.427V266H671.427ZM683.809 266V238H694.729C697.183 238 699.276 238.387 701.009 239.16C702.743 239.933 704.076 241.053 705.009 242.52C705.943 243.987 706.409 245.733 706.409 247.76C706.409 249.787 705.943 251.533 705.009 253C704.076 254.44 702.743 255.547 701.009 256.32C699.276 257.093 697.183 257.48 694.729 257.48H686.009L687.809 255.64V266H683.809ZM702.529 266L695.409 255.84H699.689L706.889 266H702.529ZM687.809 256.04L686.009 254.08H694.609C697.169 254.08 699.103 253.533 700.409 252.44C701.743 251.32 702.409 249.76 702.409 247.76C702.409 245.76 701.743 244.213 700.409 243.12C699.103 242.027 697.169 241.48 694.609 241.48H686.009L687.809 239.48V256.04ZM725.512 266.32C723.379 266.32 721.392 265.96 719.552 265.24C717.739 264.52 716.165 263.52 714.832 262.24C713.499 260.933 712.459 259.413 711.712 257.68C710.965 255.947 710.592 254.053 710.592 252C710.592 249.947 710.965 248.053 711.712 246.32C712.459 244.587 713.499 243.08 714.832 241.8C716.165 240.493 717.739 239.48 719.552 238.76C721.365 238.04 723.352 237.68 725.512 237.68C727.645 237.68 729.605 238.04 731.392 238.76C733.205 239.453 734.779 240.453 736.112 241.76C737.472 243.04 738.512 244.547 739.232 246.28C739.979 248.013 740.352 249.92 740.352 252C740.352 254.08 739.979 255.987 739.232 257.72C738.512 259.453 737.472 260.973 736.112 262.28C734.779 263.56 733.205 264.56 731.392 265.28C729.605 265.973 727.645 266.32 725.512 266.32ZM725.512 262.76C727.059 262.76 728.485 262.493 729.792 261.96C731.125 261.427 732.272 260.68 733.232 259.72C734.219 258.733 734.979 257.587 735.512 256.28C736.072 254.973 736.352 253.547 736.352 252C736.352 250.453 736.072 249.027 735.512 247.72C734.979 246.413 734.219 245.28 733.232 244.32C732.272 243.333 731.125 242.573 729.792 242.04C728.485 241.507 727.059 241.24 725.512 241.24C723.939 241.24 722.485 241.507 721.152 242.04C719.845 242.573 718.699 243.333 717.712 244.32C716.725 245.28 715.952 246.413 715.392 247.72C714.859 249.027 714.592 250.453 714.592 252C714.592 253.547 714.859 254.973 715.392 256.28C715.952 257.587 716.725 258.733 717.712 259.72C718.699 260.68 719.845 261.427 721.152 261.96C722.485 262.493 723.939 262.76 725.512 262.76Z" fill="#003366"/>
</svg>
