<svg width="2003" height="860" viewBox="0 0 2003 860" fill="none" xmlns="http://www.w3.org/2000/svg">
<g clip-path="url(#clip0_1324_5)">
<path d="M330.536 777.303C385.202 737.396 429.675 685.149 460.339 624.811C491.002 564.473 506.989 497.749 507 430.067C507.011 362.385 491.044 295.656 460.4 235.309C429.755 174.961 385.298 122.7 330.645 82.7762L238.06 209.518C272.764 234.869 300.994 268.054 320.453 306.374C339.912 344.694 350.05 387.066 350.043 430.043C350.037 473.02 339.885 515.389 320.414 553.702C300.943 592.016 272.704 625.192 237.992 650.532L330.536 777.303Z" fill="url(#paint0_linear_1324_5)"/>
<path d="M168.438 601.827C190.492 579.262 207.986 552.474 219.921 522.992C231.857 493.51 238 461.911 238 430C238 398.089 231.857 366.49 219.921 337.008C207.986 307.526 190.492 280.738 168.438 258.173L0.499976 430L168.438 601.827Z" fill="url(#paint1_linear_1324_5)"/>
</g>
<g clip-path="url(#clip1_1324_5)">
<path d="M683.464 82.697C628.798 122.604 584.325 174.851 553.661 235.189C522.998 295.527 507.011 362.251 507 429.933C506.989 497.615 522.956 564.344 553.6 624.692C584.245 685.039 628.702 737.3 683.355 777.224L775.94 650.482C741.236 625.131 713.006 591.946 693.547 553.626C674.088 515.307 663.95 472.935 663.957 429.958C663.963 386.98 674.115 344.612 693.586 306.298C713.057 267.984 741.296 234.808 776.008 209.468L683.464 82.697Z" fill="url(#paint2_linear_1324_5)"/>
<path d="M845.562 258.173C823.508 280.738 806.014 307.526 794.079 337.008C782.143 366.49 776 398.089 776 430C776 461.912 782.143 493.51 794.079 522.992C806.014 552.475 823.508 579.263 845.562 601.827L1013.5 430L845.562 258.173Z" fill="url(#paint3_linear_1324_5)"/>
</g>
<path d="M1154.05 307.048H1158.96C1160.06 307.048 1161.07 307.029 1161.99 306.993C1162.95 306.956 1163.83 306.809 1164.64 306.551C1165.23 304.933 1165.52 302.707 1165.52 299.875V248.506C1165.52 247.072 1165.45 245.876 1165.3 244.92C1165.16 243.964 1164.93 243.062 1164.64 242.216C1163.83 241.922 1162.95 241.757 1161.99 241.72C1161.07 241.646 1160.06 241.609 1158.96 241.609H1153.99V235.54C1156.53 235.246 1159.2 235.043 1161.99 234.933C1164.79 234.786 1167.91 234.712 1171.37 234.712C1174.94 234.712 1178.23 234.749 1181.25 234.823C1184.26 234.896 1186.88 235.135 1189.08 235.54V241.609H1184.01C1182.94 241.609 1181.93 241.646 1180.97 241.72C1180.05 241.757 1179.17 241.922 1178.32 242.216C1178.1 243.062 1177.92 243.964 1177.77 244.92C1177.63 245.876 1177.55 247.072 1177.55 248.506V299.709C1177.55 301.254 1177.63 302.579 1177.77 303.682C1177.92 304.749 1178.1 305.705 1178.32 306.551C1179.17 306.772 1180.05 306.919 1180.97 306.993C1181.93 307.029 1182.94 307.048 1184.01 307.048H1188.97V314.772C1186.1 314.405 1183.4 314.184 1180.86 314.11C1178.36 314.037 1175.9 314 1173.47 314C1170.12 314 1166.88 314.037 1163.76 314.11C1160.63 314.184 1157.39 314.405 1154.05 314.772V307.048ZM1210.38 248.837C1210.38 245.931 1210.09 243.724 1209.5 242.216C1208.69 241.922 1207.81 241.757 1206.85 241.72C1205.89 241.646 1204.88 241.609 1203.82 241.609H1197.69V235.54C1199.05 235.43 1200.32 235.338 1201.5 235.264C1202.71 235.154 1203.91 235.062 1205.08 234.988C1206.26 234.878 1207.46 234.804 1208.67 234.768C1209.92 234.731 1211.3 234.712 1212.81 234.712C1214.8 234.712 1216.58 234.749 1218.16 234.823C1219.78 234.86 1221.29 235.062 1222.69 235.43C1225.89 240.359 1229.18 245.49 1232.56 250.824C1235.98 256.121 1239.4 261.509 1242.82 266.99C1246.28 272.434 1249.68 277.897 1253.03 283.377C1256.38 288.821 1259.6 294.155 1262.69 299.378C1262.69 297.429 1262.67 295.038 1262.63 292.206C1262.6 289.373 1262.54 286.339 1262.47 283.102C1262.43 279.865 1262.38 276.554 1262.3 273.17C1262.23 269.749 1262.15 266.494 1262.08 263.404C1262.04 260.277 1262.01 257.445 1261.97 254.907C1261.93 252.369 1261.92 250.346 1261.92 248.837C1261.92 245.931 1261.62 243.724 1261.03 242.216C1260.22 241.959 1259.34 241.793 1258.38 241.72C1257.43 241.646 1256.42 241.609 1255.35 241.609H1249.78V235.54C1252.24 235.209 1254.82 234.988 1257.5 234.878C1260.19 234.768 1263.15 234.712 1266.38 234.712C1269.36 234.712 1272.23 234.749 1274.99 234.823C1277.75 234.896 1280.12 235.135 1282.11 235.54V241.609H1277.7C1276.63 241.609 1275.62 241.646 1274.66 241.72C1273.7 241.793 1272.82 241.959 1272.01 242.216C1271.72 243.062 1271.5 244.019 1271.35 245.085C1271.24 246.152 1271.19 247.403 1271.19 248.837C1271.19 253.803 1271.13 259.118 1271.02 264.783C1270.91 270.448 1270.76 276.186 1270.58 281.998C1270.43 287.773 1270.27 293.475 1270.08 299.103C1269.9 304.694 1269.73 309.917 1269.58 314.772H1263.85C1262.74 314.772 1261.81 314.681 1261.03 314.497C1260.26 314.313 1259.52 314.018 1258.83 313.614L1218.77 249.886C1218.84 251.946 1218.92 254.76 1218.99 258.328C1219.06 261.859 1219.14 265.85 1219.21 270.301C1219.28 274.752 1219.34 279.515 1219.38 284.591C1219.45 289.631 1219.5 294.67 1219.54 299.709C1219.54 301.254 1219.6 302.579 1219.71 303.682C1219.85 304.749 1220.06 305.705 1220.31 306.551C1221.12 306.772 1222.01 306.919 1222.96 306.993C1223.92 307.029 1224.93 307.048 1226 307.048H1231.02V314.772C1228.37 314.405 1225.87 314.184 1223.51 314.11C1221.2 314.037 1218.9 314 1216.62 314C1213.49 314 1210.53 314.037 1207.73 314.11C1204.94 314.184 1202.01 314.405 1198.96 314.772V307.048H1203.87C1204.94 307.048 1205.95 307.029 1206.91 306.993C1207.86 306.956 1208.74 306.809 1209.55 306.551C1210.14 305.043 1210.44 302.818 1210.44 299.875L1210.38 248.837ZM1304.18 252.865C1304.18 254.557 1304.51 256.084 1305.17 257.445C1305.87 258.806 1306.85 260.056 1308.1 261.197C1309.39 262.3 1310.93 263.33 1312.73 264.287C1314.53 265.206 1316.56 266.107 1318.8 266.99C1323.03 268.682 1326.89 270.356 1330.39 272.011C1333.88 273.667 1336.86 275.487 1339.33 277.474C1341.83 279.423 1343.76 281.63 1345.12 284.095C1346.48 286.522 1347.16 289.373 1347.16 292.647C1347.16 296.509 1346.43 299.893 1344.96 302.799C1343.48 305.705 1341.48 308.151 1338.94 310.138C1336.4 312.087 1333.42 313.559 1330 314.552C1326.62 315.545 1323.01 316.042 1319.19 316.042C1316.47 316.042 1313.8 315.876 1311.19 315.545C1308.58 315.214 1306.06 314.681 1303.63 313.945C1301.2 313.209 1298.9 312.253 1296.73 311.076C1294.56 309.899 1292.56 308.446 1290.72 306.717L1293.31 291.93L1301.59 292.261C1301.59 295.24 1301.79 297.76 1302.19 299.82C1302.6 301.88 1303.17 303.609 1303.9 305.006C1304.82 305.852 1305.87 306.57 1307.05 307.158C1308.26 307.71 1309.53 308.151 1310.86 308.482C1312.22 308.813 1313.6 309.053 1314.99 309.2C1316.43 309.31 1317.83 309.365 1319.19 309.365C1321.4 309.365 1323.45 309.034 1325.37 308.372C1327.28 307.673 1328.94 306.735 1330.33 305.558C1331.77 304.381 1332.89 302.983 1333.7 301.365C1334.51 299.709 1334.91 297.907 1334.91 295.958C1334.91 293.64 1334.38 291.599 1333.31 289.833C1332.25 288.031 1330.74 286.394 1328.79 284.922C1326.88 283.451 1324.56 282.072 1321.84 280.784C1319.11 279.497 1316.1 278.191 1312.79 276.867C1309.7 275.653 1306.88 274.347 1304.35 272.949C1301.81 271.515 1299.64 269.915 1297.83 268.149C1296.07 266.383 1294.69 264.397 1293.7 262.19C1292.7 259.983 1292.21 257.463 1292.21 254.631C1292.21 251.615 1292.85 248.819 1294.14 246.244C1295.43 243.669 1297.36 241.444 1299.93 239.568C1302.51 237.692 1305.69 236.221 1309.48 235.154C1313.27 234.087 1317.68 233.554 1322.72 233.554C1325 233.554 1327.24 233.664 1329.45 233.885C1331.69 234.105 1333.75 234.437 1335.63 234.878C1337.54 235.319 1339.2 235.889 1340.6 236.588C1341.99 237.25 1343.01 238.041 1343.63 238.961C1343.59 239.292 1343.56 239.678 1343.52 240.12C1343.48 240.561 1343.41 241.315 1343.3 242.382C1343.19 243.412 1343.02 244.883 1342.8 246.796C1342.58 248.672 1342.27 251.228 1341.87 254.465L1334.64 253.969C1334.64 251.284 1334.4 249.058 1333.92 247.292C1333.48 245.527 1332.71 244.129 1331.6 243.099C1330.5 242.032 1329.01 241.297 1327.13 240.892C1325.26 240.451 1322.88 240.23 1320.02 240.23C1317.59 240.23 1315.4 240.543 1313.45 241.168C1311.5 241.757 1309.83 242.603 1308.43 243.706C1307.07 244.81 1306.02 246.152 1305.28 247.734C1304.55 249.279 1304.18 250.989 1304.18 252.865ZM1419.88 255.072C1419.88 251.946 1419.72 249.242 1419.39 246.961C1419.06 244.644 1418.6 242.86 1418.01 241.609H1397.7V299.709C1397.7 301.254 1397.76 302.579 1397.87 303.682C1398.02 304.749 1398.24 305.705 1398.53 306.551C1399.34 306.772 1400.2 306.919 1401.12 306.993C1402.08 307.029 1403.11 307.048 1404.21 307.048H1409.18V314.772C1406.31 314.405 1403.61 314.184 1401.07 314.11C1398.53 314.037 1396.05 314 1393.62 314C1390.24 314 1386.98 314.037 1383.85 314.11C1380.73 314.184 1377.51 314.405 1374.2 314.772V307.048H1379.11C1380.21 307.048 1381.24 307.029 1382.2 306.993C1383.16 306.956 1384.02 306.809 1384.79 306.551C1385.34 305.117 1385.62 303.13 1385.62 300.592V241.609H1365.31C1364.73 242.86 1364.27 244.644 1363.94 246.961C1363.6 249.242 1363.44 251.946 1363.44 255.072H1355.82C1355.82 253.822 1355.79 252.387 1355.71 250.769C1355.68 249.113 1355.6 247.421 1355.49 245.692C1355.42 243.927 1355.35 242.18 1355.27 240.451C1355.24 238.685 1355.22 237.048 1355.22 235.54C1356.03 235.135 1357.57 234.896 1359.85 234.823C1362.17 234.749 1364.97 234.712 1368.24 234.712C1368.64 234.712 1369.43 234.731 1370.61 234.768C1371.83 234.768 1373.22 234.786 1374.81 234.823C1376.42 234.86 1378.15 234.896 1379.99 234.933C1381.83 234.933 1383.56 234.951 1385.18 234.988C1386.83 235.025 1388.29 235.062 1389.54 235.099C1390.82 235.099 1391.73 235.099 1392.24 235.099C1393.2 235.099 1394.39 235.099 1395.83 235.099C1397.26 235.062 1398.77 235.025 1400.35 234.988C1401.93 234.951 1403.51 234.933 1405.1 234.933C1406.72 234.896 1408.17 234.86 1409.46 234.823C1410.78 234.786 1411.86 234.768 1412.71 234.768C1413.56 234.731 1414.04 234.712 1414.15 234.712C1417.49 234.712 1420.33 234.768 1422.64 234.878C1424.96 234.951 1426.52 235.172 1427.33 235.54C1427.33 237.048 1427.3 238.685 1427.22 240.451C1427.19 242.18 1427.13 243.927 1427.06 245.692C1426.98 247.421 1426.91 249.113 1426.84 250.769C1426.8 252.387 1426.78 253.822 1426.78 255.072H1419.88ZM1434.01 307.048H1438.92C1440.02 307.048 1441.03 307.029 1441.95 306.993C1442.91 306.956 1443.79 306.809 1444.6 306.551C1445.19 304.933 1445.49 302.707 1445.49 299.875V248.506C1445.49 247.072 1445.41 245.876 1445.26 244.92C1445.12 243.964 1444.9 243.062 1444.6 242.216C1443.79 241.922 1442.91 241.757 1441.95 241.72C1441.03 241.646 1440.02 241.609 1438.92 241.609H1433.95V235.54C1436.49 235.246 1439.16 235.043 1441.95 234.933C1444.75 234.786 1447.88 234.712 1451.33 234.712C1454.9 234.712 1458.19 234.749 1461.21 234.823C1464.23 234.896 1466.84 235.135 1469.05 235.54V241.609H1463.97C1462.9 241.609 1461.89 241.646 1460.93 241.72C1460.01 241.757 1459.13 241.922 1458.29 242.216C1458.07 243.062 1457.88 243.964 1457.73 244.92C1457.59 245.876 1457.51 247.072 1457.51 248.506V299.709C1457.51 301.254 1457.59 302.579 1457.73 303.682C1457.88 304.749 1458.07 305.705 1458.29 306.551C1459.13 306.772 1460.01 306.919 1460.93 306.993C1461.89 307.029 1462.9 307.048 1463.97 307.048H1468.94V314.772C1466.07 314.405 1463.36 314.184 1460.82 314.11C1458.32 314.037 1455.86 314 1453.43 314C1450.08 314 1446.85 314.037 1443.72 314.11C1440.59 314.184 1437.36 314.405 1434.01 314.772V307.048ZM1540.28 255.072C1540.28 251.946 1540.11 249.242 1539.78 246.961C1539.45 244.644 1538.99 242.86 1538.4 241.609H1518.1V299.709C1518.1 301.254 1518.15 302.579 1518.26 303.682C1518.41 304.749 1518.63 305.705 1518.92 306.551C1519.73 306.772 1520.6 306.919 1521.52 306.993C1522.47 307.029 1523.5 307.048 1524.61 307.048H1529.57V314.772C1526.7 314.405 1524 314.184 1521.46 314.11C1518.92 314.037 1516.44 314 1514.01 314C1510.63 314 1507.37 314.037 1504.25 314.11C1501.12 314.184 1497.9 314.405 1494.59 314.772V307.048H1499.5C1500.61 307.048 1501.64 307.029 1502.59 306.993C1503.55 306.956 1504.41 306.809 1505.19 306.551C1505.74 305.117 1506.01 303.13 1506.01 300.592V241.609H1485.71C1485.12 242.86 1484.66 244.644 1484.33 246.961C1484 249.242 1483.83 251.946 1483.83 255.072H1476.22C1476.22 253.822 1476.18 252.387 1476.11 250.769C1476.07 249.113 1476 247.421 1475.89 245.692C1475.81 243.927 1475.74 242.18 1475.67 240.451C1475.63 238.685 1475.61 237.048 1475.61 235.54C1476.42 235.135 1477.97 234.896 1480.25 234.823C1482.56 234.749 1485.36 234.712 1488.63 234.712C1489.04 234.712 1489.83 234.731 1491.01 234.768C1492.22 234.768 1493.62 234.786 1495.2 234.823C1496.82 234.86 1498.55 234.896 1500.39 234.933C1502.22 234.933 1503.95 234.951 1505.57 234.988C1507.23 235.025 1508.68 235.062 1509.93 235.099C1511.22 235.099 1512.12 235.099 1512.63 235.099C1513.59 235.099 1514.79 235.099 1516.22 235.099C1517.66 235.062 1519.16 235.025 1520.75 234.988C1522.33 234.951 1523.91 234.933 1525.49 234.933C1527.11 234.896 1528.56 234.86 1529.85 234.823C1531.17 234.786 1532.26 234.768 1533.1 234.768C1533.95 234.731 1534.43 234.712 1534.54 234.712C1537.89 234.712 1540.72 234.768 1543.04 234.878C1545.35 234.951 1546.92 235.172 1547.73 235.54C1547.73 237.048 1547.69 238.685 1547.62 240.451C1547.58 242.18 1547.52 243.927 1547.45 245.692C1547.38 247.421 1547.3 249.113 1547.23 250.769C1547.19 252.387 1547.17 253.822 1547.17 255.072H1540.28ZM1625.36 285.529C1625.36 290.569 1624.57 294.983 1622.99 298.771C1621.44 302.56 1619.27 305.742 1616.48 308.317C1613.72 310.892 1610.41 312.823 1606.54 314.11C1602.68 315.398 1598.45 316.042 1593.85 316.042C1588.34 316.042 1583.63 315.232 1579.73 313.614C1575.87 311.995 1572.72 309.696 1570.29 306.717C1567.87 303.701 1566.08 300.077 1564.94 295.847C1563.84 291.617 1563.29 286.89 1563.29 281.667V248.837C1563.29 245.931 1562.99 243.724 1562.4 242.216C1561.59 241.922 1560.71 241.757 1559.75 241.72C1558.83 241.646 1557.82 241.609 1556.72 241.609H1551.75V235.485C1554.29 235.191 1556.96 234.988 1559.75 234.878C1562.55 234.768 1565.68 234.712 1569.13 234.712C1572.7 234.712 1575.99 234.749 1579.01 234.823C1582.06 234.896 1584.71 235.135 1586.96 235.54V241.609H1581.82C1580.76 241.609 1579.75 241.646 1578.79 241.72C1577.87 241.757 1576.99 241.922 1576.14 242.216C1575.63 243.835 1575.37 246.042 1575.37 248.837V286.357C1575.37 290.219 1575.85 293.585 1576.8 296.454C1577.76 299.323 1579.12 301.714 1580.89 303.627C1582.65 305.503 1584.77 306.919 1587.23 307.875C1589.73 308.832 1592.49 309.31 1595.51 309.31C1602.5 309.31 1607.65 307.103 1610.96 302.689C1614.3 298.275 1615.98 291.433 1615.98 282.164V248.837C1615.98 245.931 1615.68 243.724 1615.1 242.216C1614.29 241.922 1613.4 241.757 1612.45 241.72C1611.49 241.646 1610.48 241.609 1609.41 241.609H1604.45V235.485C1606.87 235.191 1609.38 234.988 1611.95 234.878C1614.56 234.768 1617.47 234.712 1620.67 234.712C1623.91 234.712 1626.9 234.749 1629.66 234.823C1632.42 234.896 1634.85 235.135 1636.95 235.54V241.609H1631.87C1630.77 241.609 1629.74 241.646 1628.78 241.72C1627.82 241.757 1626.96 241.922 1626.19 242.216C1625.89 243.062 1625.67 244.019 1625.52 245.085C1625.41 246.152 1625.36 247.403 1625.36 248.837V285.529ZM1705.58 255.072C1705.58 251.946 1705.42 249.242 1705.09 246.961C1704.76 244.644 1704.3 242.86 1703.71 241.609H1683.4V299.709C1683.4 301.254 1683.46 302.579 1683.57 303.682C1683.72 304.749 1683.94 305.705 1684.23 306.551C1685.04 306.772 1685.9 306.919 1686.82 306.993C1687.78 307.029 1688.81 307.048 1689.91 307.048H1694.88V314.772C1692.01 314.405 1689.31 314.184 1686.77 314.11C1684.23 314.037 1681.75 314 1679.32 314C1675.94 314 1672.68 314.037 1669.55 314.11C1666.43 314.184 1663.21 314.405 1659.9 314.772V307.048H1664.81C1665.91 307.048 1666.94 307.029 1667.9 306.993C1668.86 306.956 1669.72 306.809 1670.49 306.551C1671.04 305.117 1671.32 303.13 1671.32 300.592V241.609H1651.02C1650.43 242.86 1649.97 244.644 1649.64 246.961C1649.3 249.242 1649.14 251.946 1649.14 255.072H1641.52C1641.52 253.822 1641.49 252.387 1641.41 250.769C1641.38 249.113 1641.3 247.421 1641.19 245.692C1641.12 243.927 1641.05 242.18 1640.97 240.451C1640.94 238.685 1640.92 237.048 1640.92 235.54C1641.73 235.135 1643.27 234.896 1645.55 234.823C1647.87 234.749 1650.67 234.712 1653.94 234.712C1654.34 234.712 1655.13 234.731 1656.31 234.768C1657.53 234.768 1658.92 234.786 1660.51 234.823C1662.12 234.86 1663.85 234.896 1665.69 234.933C1667.53 234.933 1669.26 234.951 1670.88 234.988C1672.53 235.025 1673.99 235.062 1675.24 235.099C1676.52 235.099 1677.43 235.099 1677.94 235.099C1678.9 235.099 1680.09 235.099 1681.53 235.099C1682.96 235.062 1684.47 235.025 1686.05 234.988C1687.63 234.951 1689.22 234.933 1690.8 234.933C1692.42 234.896 1693.87 234.86 1695.16 234.823C1696.48 234.786 1697.57 234.768 1698.41 234.768C1699.26 234.731 1699.74 234.712 1699.85 234.712C1703.19 234.712 1706.03 234.768 1708.34 234.878C1710.66 234.951 1712.22 235.172 1713.03 235.54C1713.03 237.048 1713 238.685 1712.92 240.451C1712.89 242.18 1712.83 243.927 1712.76 245.692C1712.68 247.421 1712.61 249.113 1712.54 250.769C1712.5 252.387 1712.48 253.822 1712.48 255.072H1705.58ZM1734.99 274.77C1734.99 285.916 1736.94 294.449 1740.84 300.372C1744.78 306.257 1750.7 309.2 1758.61 309.2C1762.36 309.2 1765.69 308.501 1768.59 307.103C1771.54 305.705 1774 303.59 1775.99 300.758C1777.97 297.889 1779.48 294.284 1780.51 289.943C1781.58 285.603 1782.11 280.49 1782.11 274.604C1782.11 263.165 1780.07 254.576 1775.99 248.837C1771.94 243.099 1766.15 240.23 1758.61 240.23C1754.86 240.23 1751.51 240.947 1748.57 242.382C1745.66 243.78 1743.2 245.913 1741.17 248.782C1739.19 251.651 1737.66 255.256 1736.59 259.597C1735.53 263.9 1734.99 268.958 1734.99 274.77ZM1795.35 274.604C1795.35 281.078 1794.49 286.89 1792.76 292.04C1791.07 297.153 1788.62 301.493 1785.42 305.062C1782.26 308.593 1778.4 311.315 1773.84 313.228C1769.31 315.104 1764.24 316.042 1758.61 316.042C1752.91 316.042 1747.78 315.104 1743.21 313.228C1738.69 311.315 1734.83 308.593 1731.63 305.062C1728.43 301.493 1725.96 297.153 1724.23 292.04C1722.54 286.89 1721.7 281.078 1721.7 274.604C1721.7 268.057 1722.54 262.245 1724.23 257.169C1725.96 252.056 1728.43 247.752 1731.63 244.258C1734.83 240.763 1738.69 238.115 1743.21 236.312C1747.78 234.473 1752.91 233.554 1758.61 233.554C1764.24 233.554 1769.31 234.473 1773.84 236.312C1778.36 238.115 1782.22 240.763 1785.42 244.258C1788.62 247.752 1791.07 252.056 1792.76 257.169C1794.49 262.245 1795.35 268.057 1795.35 274.604ZM1853.84 314C1850.9 314 1847.97 314.074 1845.07 314.221C1842.16 314.368 1839.22 314.552 1836.24 314.772V306.993H1841.21C1842.27 306.993 1843.28 306.974 1844.24 306.938C1845.2 306.901 1846.08 306.754 1846.89 306.496C1847.44 304.841 1847.72 302.615 1847.72 299.82V250.824C1847.72 249.168 1847.64 247.715 1847.5 246.465C1847.35 245.177 1847.15 244 1846.89 242.934C1846.08 242.639 1845.2 242.474 1844.24 242.437C1843.28 242.363 1842.27 242.327 1841.21 242.327H1835.52V235.871C1840.53 235.246 1846.21 234.749 1852.57 234.381C1858.94 234.014 1866.18 233.83 1874.31 233.83C1878.03 233.83 1881.59 234.105 1885.02 234.657C1888.44 235.172 1891.62 236.055 1894.56 237.306C1897.5 238.556 1900.17 240.212 1902.56 242.271C1904.95 244.331 1906.99 246.888 1908.69 249.941C1910.41 252.957 1911.74 256.525 1912.66 260.645C1913.58 264.728 1914.04 269.455 1914.04 274.825C1914.04 281.078 1913.34 286.394 1911.94 290.771C1910.54 295.111 1908.56 298.735 1905.98 301.641C1903.44 304.547 1900.35 306.827 1896.71 308.482C1893.11 310.138 1889.06 311.37 1884.57 312.179C1880.12 312.988 1875.3 313.503 1870.12 313.724C1864.93 313.908 1859.51 314 1853.84 314ZM1859.63 307.048C1860.22 307.121 1860.79 307.158 1861.35 307.158C1861.9 307.158 1862.45 307.158 1863 307.158C1867.19 307.158 1871.04 306.974 1874.53 306.606C1878.03 306.202 1881.17 305.54 1883.97 304.62C1886.76 303.664 1889.21 302.395 1891.31 300.813C1893.44 299.194 1895.2 297.171 1896.6 294.744C1898 292.316 1899.05 289.447 1899.75 286.136C1900.45 282.789 1900.8 278.908 1900.8 274.494C1900.8 268.278 1900.23 263.073 1899.09 258.879C1897.98 254.649 1896.27 251.247 1893.95 248.672C1891.64 246.097 1888.71 244.258 1885.18 243.154C1881.69 242.051 1877.55 241.499 1872.77 241.499C1870.19 241.499 1867.73 241.536 1865.37 241.609C1863.02 241.683 1861.11 241.72 1859.63 241.72V307.048ZM1986.93 234.712L1988.42 241.83C1988.6 242.75 1988.78 243.688 1988.97 244.644C1989.15 245.564 1989.3 246.446 1989.41 247.292C1989.56 248.102 1989.67 248.819 1989.74 249.444C1989.85 250.07 1989.9 250.548 1989.9 250.879L1981.79 251.21L1981.35 248.451C1981.21 247.642 1981.02 246.796 1980.8 245.913C1980.62 244.993 1980.38 244.111 1980.08 243.265C1978.8 242.676 1977.03 242.271 1974.79 242.051C1972.54 241.83 1969.58 241.72 1965.9 241.72C1965.46 241.72 1964.87 241.738 1964.14 241.775C1963.44 241.775 1962.45 241.793 1961.16 241.83C1959.87 241.83 1958.23 241.867 1956.25 241.94C1954.3 241.977 1951.85 242.032 1948.91 242.106V269.915H1967.67C1968.4 269.915 1969.09 269.878 1969.71 269.804C1970.37 269.694 1970.98 269.455 1971.53 269.087C1972.08 268.682 1972.58 268.075 1973.02 267.266C1973.5 266.42 1973.94 265.261 1974.35 263.79H1977.21C1977.21 267.137 1977.14 270.503 1976.99 273.887C1976.88 277.235 1976.72 280.398 1976.5 283.377H1973.02C1972.58 282.016 1972.14 280.895 1971.7 280.012C1971.29 279.129 1970.81 278.43 1970.26 277.915C1969.71 277.4 1969.09 277.051 1968.39 276.867C1967.69 276.646 1966.84 276.536 1965.85 276.536H1948.91V307.048H1974.07C1975.95 307.048 1977.62 306.864 1979.09 306.496C1980.6 306.128 1981.65 305.687 1982.24 305.172C1982.53 304.326 1982.81 303.186 1983.06 301.751C1983.32 300.316 1983.54 298.385 1983.73 295.958C1984.64 295.958 1985.73 295.976 1986.98 296.013C1988.27 296.049 1989.46 296.068 1990.57 296.068V302.468C1990.57 304.234 1990.49 306.073 1990.35 307.986C1990.24 309.899 1990.13 311.517 1990.02 312.841C1988.91 313.172 1987.73 313.467 1986.48 313.724C1985.27 313.945 1983.84 314.129 1982.18 314.276C1980.52 314.46 1978.58 314.589 1976.33 314.662C1974.12 314.736 1971.49 314.772 1968.44 314.772C1966.16 314.772 1963.97 314.736 1961.88 314.662C1959.78 314.589 1957.7 314.497 1955.64 314.386C1953.58 314.276 1951.5 314.184 1949.41 314.11C1947.35 314.037 1945.19 314 1942.95 314C1939.93 314 1936.99 314.037 1934.12 314.11C1931.29 314.184 1928.38 314.405 1925.4 314.772V307.048H1930.31C1931.42 307.048 1932.45 307.029 1933.4 306.993C1934.36 306.956 1935.23 306.809 1936 306.551C1936.59 305.006 1936.88 302.781 1936.88 299.875V249.224C1936.88 247.826 1936.79 246.612 1936.6 245.582C1936.46 244.552 1936.24 243.651 1935.94 242.878C1935.24 242.584 1934.47 242.419 1933.63 242.382C1932.78 242.345 1931.88 242.327 1930.92 242.327H1924.8V236.368C1928.37 235.706 1932.6 235.264 1937.49 235.043C1942.38 234.823 1947.6 234.712 1953.16 234.712H1986.93Z" fill="#155C77"/>
<path d="M1214.24 461.476C1210.68 463.572 1206.67 465.191 1202.22 466.331C1197.8 467.471 1192.76 468.042 1187.1 468.042C1181.54 468.042 1176.41 467.232 1171.7 465.614C1167.03 463.958 1162.99 461.494 1159.56 458.22C1156.14 454.91 1153.46 450.771 1151.51 445.806C1149.6 440.803 1148.64 434.936 1148.64 428.205C1148.64 421.4 1149.52 415.349 1151.29 410.052C1153.05 404.755 1155.63 400.304 1159.01 396.699C1162.4 393.058 1166.55 390.299 1171.48 388.423C1176.45 386.51 1182.11 385.554 1188.48 385.554C1191.27 385.554 1193.94 385.738 1196.48 386.105C1199.02 386.473 1201.33 386.951 1203.43 387.54C1205.56 388.092 1207.44 388.699 1209.06 389.361C1210.71 390.023 1212.02 390.648 1212.97 391.237L1211.65 406.631H1204.86C1203.94 404.166 1203.01 402.033 1202.05 400.23C1201.09 398.391 1199.99 396.883 1198.74 395.706C1197.49 394.529 1196.02 393.665 1194.33 393.113C1192.63 392.524 1190.59 392.23 1188.2 392.23C1183.57 392.23 1179.59 393.094 1176.28 394.823C1172.97 396.552 1170.25 398.925 1168.12 401.941C1166.02 404.92 1164.46 408.47 1163.43 412.59C1162.43 416.673 1161.94 421.087 1161.94 425.832C1161.94 431.791 1162.54 436.959 1163.76 441.336C1165.01 445.677 1166.76 449.282 1169 452.151C1171.28 455.02 1174.02 457.153 1177.22 458.551C1180.46 459.912 1184.06 460.593 1188.04 460.593C1191.82 460.593 1195.8 460.023 1199.95 458.882C1204.11 457.742 1208.6 456.05 1213.42 453.806L1214.24 461.476ZM1237.75 426.77C1237.75 437.916 1239.7 446.449 1243.6 452.372C1247.53 458.257 1253.46 461.2 1261.36 461.2C1265.12 461.2 1268.44 460.501 1271.35 459.103C1274.29 457.705 1276.76 455.59 1278.74 452.758C1280.73 449.889 1282.24 446.284 1283.27 441.943C1284.34 437.603 1284.87 432.49 1284.87 426.604C1284.87 415.165 1282.83 406.576 1278.74 400.837C1274.7 395.099 1268.9 392.23 1261.36 392.23C1257.61 392.23 1254.26 392.947 1251.32 394.382C1248.42 395.78 1245.95 397.913 1243.93 400.782C1241.94 403.651 1240.42 407.256 1239.35 411.597C1238.28 415.9 1237.75 420.958 1237.75 426.77ZM1298.11 426.604C1298.11 433.078 1297.25 438.89 1295.52 444.04C1293.83 449.153 1291.38 453.493 1288.18 457.062C1285.02 460.593 1281.15 463.315 1276.59 465.228C1272.07 467.104 1266.99 468.042 1261.36 468.042C1255.66 468.042 1250.53 467.104 1245.97 465.228C1241.45 463.315 1237.58 460.593 1234.38 457.062C1231.18 453.493 1228.72 449.153 1226.99 444.04C1225.3 438.89 1224.45 433.078 1224.45 426.604C1224.45 420.057 1225.3 414.245 1226.99 409.169C1228.72 404.056 1231.18 399.752 1234.38 396.258C1237.58 392.763 1241.45 390.115 1245.97 388.312C1250.53 386.473 1255.66 385.554 1261.36 385.554C1266.99 385.554 1272.07 386.473 1276.59 388.312C1281.12 390.115 1284.98 392.763 1288.18 396.258C1291.38 399.752 1293.83 404.056 1295.52 409.169C1297.25 414.245 1298.11 420.057 1298.11 426.604ZM1397.15 455.02C1397.15 453.806 1397.1 452.096 1396.99 449.889C1396.88 447.645 1396.73 445.125 1396.54 442.33C1396.4 439.534 1396.19 436.555 1395.94 433.391C1395.72 430.191 1395.5 427.028 1395.28 423.901C1394.72 416.544 1394.12 408.617 1393.45 400.12C1389.74 410.567 1386.28 420.222 1383.08 429.087C1381.72 432.876 1380.34 436.683 1378.94 440.509C1377.58 444.334 1376.29 447.921 1375.08 451.268C1373.87 454.579 1372.76 457.54 1371.77 460.151C1370.81 462.726 1370.08 464.676 1369.56 466H1359.19C1358.2 463.352 1357.11 460.39 1355.94 457.117C1354.79 453.843 1353.6 450.422 1352.35 446.854C1351.13 443.286 1349.88 439.681 1348.6 436.04C1347.35 432.361 1346.15 428.812 1345.01 425.391C1342.29 417.372 1339.51 409.132 1336.68 400.672C1336.02 410.493 1335.45 419.266 1334.97 426.991C1334.75 430.301 1334.53 433.538 1334.31 436.702C1334.12 439.865 1333.94 442.716 1333.75 445.254C1333.61 447.755 1333.48 449.797 1333.37 451.378C1333.29 452.923 1333.26 453.733 1333.26 453.806C1333.26 454.91 1333.33 455.811 1333.48 456.51C1333.66 457.172 1333.96 457.705 1334.36 458.11C1334.8 458.478 1335.39 458.735 1336.13 458.882C1336.86 458.993 1337.8 459.048 1338.94 459.048H1343.41L1342.75 466.772C1339.69 466.405 1336.84 466.184 1334.2 466.11C1331.55 466.037 1328.95 466 1326.42 466C1323.33 466 1320.38 466.037 1317.59 466.11C1314.83 466.184 1311.94 466.405 1308.93 466.772L1310.14 459.048H1315.66C1316.72 459.048 1317.74 459.029 1318.69 458.993C1319.65 458.956 1320.57 458.809 1321.45 458.551C1321.93 457.705 1322.39 456.749 1322.83 455.682C1323.31 454.579 1323.64 453.31 1323.82 451.875C1324.08 449.925 1324.36 447.516 1324.65 444.647C1324.94 441.778 1325.24 438.706 1325.53 435.433C1325.83 432.159 1326.1 428.812 1326.36 425.391C1326.62 421.97 1326.86 418.751 1327.08 415.735C1327.34 412.682 1327.54 409.96 1327.69 407.569C1327.87 405.178 1328 403.357 1328.07 402.106C1328.18 400.672 1328.24 399.476 1328.24 398.52C1328.24 397.564 1328.18 396.791 1328.07 396.203C1328 395.577 1327.87 395.007 1327.69 394.492C1326.91 394.198 1326.05 393.977 1325.09 393.83C1324.14 393.683 1323.01 393.609 1321.73 393.609H1315.99V387.54C1317.05 387.393 1318.12 387.264 1319.19 387.154C1320.29 387.043 1321.45 386.951 1322.66 386.878C1323.88 386.804 1325.17 386.768 1326.53 386.768C1327.92 386.731 1329.43 386.712 1331.05 386.712C1333.7 386.712 1336.02 386.804 1338 386.988C1340.03 387.135 1341.74 387.319 1343.13 387.54C1344.02 389.6 1344.99 392.12 1346.06 395.099C1347.16 398.042 1348.32 401.242 1349.53 404.7C1350.75 408.157 1351.98 411.762 1353.23 415.514C1354.48 419.229 1355.7 422.889 1356.87 426.494C1358.09 430.062 1359.21 433.483 1360.24 436.757C1361.31 439.994 1362.24 442.845 1363.05 445.309C1363.9 447.774 1364.58 449.76 1365.09 451.268C1365.61 452.739 1365.9 453.53 1365.98 453.641C1368.96 444.592 1371.66 436.481 1374.09 429.308C1376.55 422.135 1378.74 415.827 1380.65 410.383C1382.6 404.939 1384.26 400.341 1385.62 396.589C1387.02 392.8 1388.16 389.784 1389.04 387.54C1389.78 387.43 1390.68 387.338 1391.74 387.264C1392.85 387.154 1393.97 387.062 1395.11 386.988C1396.25 386.878 1397.35 386.804 1398.42 386.768C1399.52 386.731 1400.46 386.712 1401.23 386.712C1403.92 386.712 1406.33 386.804 1408.46 386.988C1410.63 387.135 1412.69 387.301 1414.64 387.485C1414.72 387.485 1414.79 387.503 1414.86 387.54C1414.94 387.54 1415.01 387.54 1415.08 387.54L1415.64 393.609H1410.89C1409.71 393.609 1408.57 393.701 1407.47 393.885C1406.4 394.032 1405.61 394.308 1405.1 394.713C1404.95 395.412 1404.88 396.258 1404.88 397.251C1404.88 397.876 1404.89 398.557 1404.93 399.292C1405 399.991 1405.08 400.764 1405.15 401.61L1409.01 451.875C1409.12 453.31 1409.33 454.542 1409.62 455.572C1409.92 456.602 1410.19 457.54 1410.45 458.386C1411.55 458.643 1412.69 458.827 1413.87 458.938C1415.05 459.011 1416.35 459.048 1417.79 459.048H1420.71L1421.93 466.772C1418.84 466.405 1415.84 466.184 1412.93 466.11C1410.06 466.037 1407.05 466 1403.88 466C1401.34 466 1398.73 466.037 1396.05 466.11C1393.36 466.184 1390.53 466.405 1387.55 466.772L1386.89 459.048H1391.36C1392.57 459.048 1393.55 458.993 1394.28 458.882C1395.05 458.772 1395.64 458.57 1396.05 458.275C1396.49 457.944 1396.78 457.521 1396.93 457.006C1397.08 456.491 1397.15 455.829 1397.15 455.02ZM1455.14 393.609V426.88C1456.28 426.917 1457.51 426.954 1458.84 426.991C1460.2 426.991 1461.71 426.991 1463.36 426.991C1467.26 426.991 1470.5 426.586 1473.07 425.777C1475.68 424.968 1477.76 423.846 1479.31 422.411C1480.89 420.94 1482.01 419.174 1482.67 417.114C1483.34 415.054 1483.67 412.755 1483.67 410.217C1483.67 407.127 1483.28 404.516 1482.51 402.382C1481.77 400.249 1480.61 398.538 1479.03 397.251C1477.45 395.964 1475.46 395.044 1473.07 394.492C1470.68 393.904 1467.85 393.609 1464.58 393.609H1455.14ZM1443.11 400.562C1443.11 397.619 1442.82 395.43 1442.23 393.996C1441.64 393.848 1440.81 393.757 1439.75 393.72C1438.72 393.646 1437.67 393.609 1436.6 393.609H1430.53V387.54C1434.65 386.988 1439.31 386.62 1444.49 386.437C1449.72 386.216 1455.53 386.105 1461.93 386.105C1467.48 386.105 1472.37 386.473 1476.6 387.209C1480.87 387.945 1484.44 389.232 1487.31 391.071C1490.18 392.91 1492.35 395.375 1493.82 398.465C1495.29 401.555 1496.03 405.454 1496.03 410.162C1496.03 413.84 1495.42 417.151 1494.21 420.094C1492.99 423 1491.1 425.483 1488.52 427.542C1485.98 429.566 1482.69 431.129 1478.65 432.232C1474.64 433.299 1469.82 433.833 1464.19 433.833C1462.9 433.833 1461.5 433.814 1460 433.777C1458.53 433.741 1456.91 433.667 1455.14 433.557V451.709C1455.14 453.254 1455.21 454.579 1455.36 455.682C1455.51 456.749 1455.71 457.705 1455.97 458.551C1456.78 458.772 1457.66 458.919 1458.62 458.993C1459.57 459.029 1460.59 459.048 1461.65 459.048H1466.62V466.772C1463.75 466.405 1461.04 466.184 1458.51 466.11C1456.01 466.037 1453.52 466 1451.06 466C1447.67 466 1444.42 466.037 1441.29 466.11C1438.2 466.184 1435 466.405 1431.69 466.772V459.048H1436.6C1437.67 459.048 1438.68 459.029 1439.64 458.993C1440.59 458.956 1441.48 458.809 1442.29 458.551C1442.87 457.043 1443.17 454.818 1443.17 451.875L1443.11 400.562ZM1575.81 437.529C1575.81 442.569 1575.02 446.983 1573.44 450.771C1571.89 454.56 1569.72 457.742 1566.93 460.317C1564.17 462.892 1560.86 464.823 1557 466.11C1553.13 467.398 1548.9 468.042 1544.31 468.042C1538.79 468.042 1534.08 467.232 1530.18 465.614C1526.32 463.995 1523.17 461.696 1520.75 458.717C1518.32 455.701 1516.53 452.077 1515.39 447.847C1514.29 443.617 1513.74 438.89 1513.74 433.667V400.837C1513.74 397.931 1513.44 395.724 1512.85 394.216C1512.05 393.922 1511.16 393.757 1510.21 393.72C1509.29 393.646 1508.28 393.609 1507.17 393.609H1502.21V387.485C1504.74 387.191 1507.41 386.988 1510.21 386.878C1513 386.768 1516.13 386.712 1519.59 386.712C1523.15 386.712 1526.45 386.749 1529.46 386.823C1532.52 386.896 1535.16 387.135 1537.41 387.54V393.609H1532.28C1531.21 393.609 1530.2 393.646 1529.24 393.72C1528.32 393.757 1527.44 393.922 1526.59 394.216C1526.08 395.835 1525.82 398.042 1525.82 400.837V438.357C1525.82 442.219 1526.3 445.585 1527.26 448.454C1528.21 451.323 1529.57 453.714 1531.34 455.627C1533.1 457.503 1535.22 458.919 1537.68 459.875C1540.19 460.832 1542.94 461.31 1545.96 461.31C1552.95 461.31 1558.1 459.103 1561.41 454.689C1564.76 450.275 1566.43 443.433 1566.43 434.164V400.837C1566.43 397.931 1566.14 395.724 1565.55 394.216C1564.74 393.922 1563.86 393.757 1562.9 393.72C1561.94 393.646 1560.93 393.609 1559.86 393.609H1554.9V387.485C1557.33 387.191 1559.83 386.988 1562.4 386.878C1565.01 386.768 1567.92 386.712 1571.12 386.712C1574.36 386.712 1577.36 386.749 1580.11 386.823C1582.87 386.896 1585.3 387.135 1587.4 387.54V393.609H1582.32C1581.22 393.609 1580.19 393.646 1579.23 393.72C1578.28 393.757 1577.41 393.922 1576.64 394.216C1576.34 395.062 1576.12 396.019 1575.98 397.085C1575.87 398.152 1575.81 399.403 1575.81 400.837V437.529ZM1656.04 407.072C1656.04 403.946 1655.87 401.242 1655.54 398.961C1655.21 396.644 1654.75 394.86 1654.16 393.609H1633.86V451.709C1633.86 453.254 1633.91 454.579 1634.02 455.682C1634.17 456.749 1634.39 457.705 1634.68 458.551C1635.49 458.772 1636.36 458.919 1637.28 458.993C1638.23 459.029 1639.26 459.048 1640.37 459.048H1645.33V466.772C1642.46 466.405 1639.76 466.184 1637.22 466.11C1634.68 466.037 1632.2 466 1629.77 466C1626.39 466 1623.13 466.037 1620.01 466.11C1616.88 466.184 1613.66 466.405 1610.35 466.772V459.048H1615.26C1616.36 459.048 1617.39 459.029 1618.35 458.993C1619.31 458.956 1620.17 458.809 1620.94 458.551C1621.5 457.117 1621.77 455.13 1621.77 452.592V393.609H1601.47C1600.88 394.86 1600.42 396.644 1600.09 398.961C1599.76 401.242 1599.59 403.946 1599.59 407.072H1591.98C1591.98 405.822 1591.94 404.387 1591.87 402.769C1591.83 401.113 1591.76 399.421 1591.65 397.692C1591.57 395.927 1591.5 394.18 1591.43 392.451C1591.39 390.685 1591.37 389.048 1591.37 387.54C1592.18 387.135 1593.72 386.896 1596 386.823C1598.32 386.749 1601.12 386.712 1604.39 386.712C1604.8 386.712 1605.59 386.731 1606.76 386.768C1607.98 386.768 1609.38 386.786 1610.96 386.823C1612.58 386.86 1614.3 386.896 1616.14 386.933C1617.98 386.933 1619.71 386.951 1621.33 386.988C1622.99 387.025 1624.44 387.062 1625.69 387.099C1626.98 387.099 1627.88 387.099 1628.39 387.099C1629.35 387.099 1630.54 387.099 1631.98 387.099C1633.41 387.062 1634.92 387.025 1636.5 386.988C1638.09 386.951 1639.67 386.933 1641.25 386.933C1642.87 386.896 1644.32 386.86 1645.61 386.823C1646.93 386.786 1648.02 386.768 1648.86 386.768C1649.71 386.731 1650.19 386.712 1650.3 386.712C1653.65 386.712 1656.48 386.768 1658.79 386.878C1661.11 386.951 1662.68 387.172 1663.48 387.54C1663.48 389.048 1663.45 390.685 1663.37 392.451C1663.34 394.18 1663.28 395.927 1663.21 397.692C1663.14 399.421 1663.06 401.113 1662.99 402.769C1662.95 404.387 1662.93 405.822 1662.93 407.072H1656.04ZM1707.18 396.534L1693.33 436.978H1721.25L1707.68 396.534H1707.18ZM1740.4 451.709C1740.99 453.254 1741.54 454.579 1742.06 455.682C1742.61 456.749 1743.16 457.705 1743.71 458.551C1744.56 458.772 1745.4 458.919 1746.25 458.993C1747.13 459.029 1748.05 459.048 1749.01 459.048H1751.44L1753.04 466.772C1750.57 466.405 1748.23 466.184 1746.03 466.11C1743.86 466.037 1741.74 466 1739.68 466C1738.17 466 1736.72 466 1735.32 466C1733.96 466.037 1732.62 466.074 1731.3 466.11C1729.97 466.184 1728.65 466.257 1727.32 466.331C1726 466.441 1724.64 466.589 1723.24 466.772L1722.19 459.048H1723.13C1724.2 459.048 1725.19 459.029 1726.11 458.993C1727.03 458.956 1727.86 458.809 1728.59 458.551C1728.56 457.705 1728.41 456.73 1728.15 455.627C1727.93 454.523 1727.54 453.273 1726.99 451.875L1723.35 442.661H1691.51L1688.53 451.709C1688.09 453.034 1687.76 454.192 1687.54 455.186C1687.36 456.142 1687.27 457.043 1687.27 457.889C1687.27 458.183 1687.39 458.404 1687.65 458.551C1687.91 458.698 1688.22 458.809 1688.59 458.882C1688.99 458.956 1689.42 459.011 1689.86 459.048C1690.34 459.048 1690.8 459.048 1691.24 459.048H1693.78L1693.28 466.772C1691.22 466.405 1689.22 466.184 1687.27 466.11C1685.35 466.037 1683.46 466 1681.58 466C1678.79 466 1676.16 466.037 1673.69 466.11C1671.23 466.184 1668.6 466.405 1665.8 466.772L1667.46 459.048H1670C1670.99 459.048 1671.91 459.029 1672.75 458.993C1673.64 458.956 1674.48 458.809 1675.29 458.551C1675.92 457.705 1676.51 456.73 1677.06 455.627C1677.61 454.523 1678.14 453.273 1678.66 451.875C1679.1 450.661 1679.8 448.804 1680.75 446.302C1681.71 443.801 1682.83 440.913 1684.12 437.64C1685.41 434.329 1686.79 430.779 1688.26 426.991C1689.77 423.202 1691.28 419.413 1692.78 415.625L1704.26 386.712H1709.34C1710.99 386.712 1712.3 386.786 1713.25 386.933C1714.25 387.08 1715.18 387.301 1716.07 387.595L1740.4 451.709ZM1786.14 487.905C1787.35 488.273 1788.61 488.585 1789.89 488.843C1791.18 489.1 1792.39 489.229 1793.53 489.229C1795.85 489.229 1797.65 488.732 1798.94 487.739C1800.27 486.783 1800.93 485.459 1800.93 483.767C1800.93 481.78 1800.41 480.309 1799.38 479.353C1798.39 478.396 1797.07 477.789 1795.41 477.532C1795.12 477.532 1794.8 477.569 1794.47 477.642C1794.14 477.752 1793.77 477.863 1793.37 477.973C1792.93 477.679 1792.47 477.44 1791.99 477.256C1791.51 477.109 1791.03 476.925 1790.55 476.704L1795.24 467.104H1800.82L1797.73 473.007C1799.64 473.118 1801.35 473.357 1802.86 473.725C1804.4 474.092 1805.71 474.644 1806.78 475.38C1807.84 476.116 1808.67 477.072 1809.26 478.249C1809.85 479.463 1810.14 480.953 1810.14 482.718C1810.14 484.852 1809.77 486.691 1809.04 488.236C1808.34 489.818 1807.35 491.123 1806.06 492.153C1804.81 493.183 1803.3 493.937 1801.53 494.416C1799.81 494.931 1797.93 495.188 1795.91 495.188C1793.59 495.188 1791.62 494.967 1790 494.526C1788.38 494.084 1787.1 493.551 1786.14 492.926C1785.92 492.337 1785.81 491.602 1785.81 490.719C1785.81 489.836 1785.92 488.898 1786.14 487.905ZM1825.15 461.476C1821.58 463.572 1817.57 465.191 1813.12 466.331C1808.71 467.471 1803.67 468.042 1798 468.042C1792.45 468.042 1787.32 467.232 1782.61 465.614C1777.94 463.958 1773.89 461.494 1770.47 458.22C1767.05 454.91 1764.36 450.771 1762.42 445.806C1760.5 440.803 1759.55 434.936 1759.55 428.205C1759.55 421.4 1760.43 415.349 1762.19 410.052C1763.96 404.755 1766.53 400.304 1769.92 396.699C1773.3 393.058 1777.46 390.299 1782.39 388.423C1787.35 386.51 1793.02 385.554 1799.38 385.554C1802.18 385.554 1804.85 385.738 1807.38 386.105C1809.92 386.473 1812.24 386.951 1814.34 387.54C1816.47 388.092 1818.34 388.699 1819.96 389.361C1821.62 390.023 1822.92 390.648 1823.88 391.237L1822.56 406.631H1815.77C1814.85 404.166 1813.91 402.033 1812.96 400.23C1812 398.391 1810.9 396.883 1809.65 395.706C1808.39 394.529 1806.92 393.665 1805.23 393.113C1803.54 392.524 1801.5 392.23 1799.11 392.23C1794.47 392.23 1790.5 393.094 1787.19 394.823C1783.88 396.552 1781.16 398.925 1779.02 401.941C1776.93 404.92 1775.36 408.47 1774.33 412.59C1773.34 416.673 1772.84 421.087 1772.84 425.832C1772.84 431.791 1773.45 436.959 1774.66 441.336C1775.91 445.677 1777.66 449.282 1779.91 452.151C1782.19 455.02 1784.93 457.153 1788.13 458.551C1791.36 459.912 1794.97 460.593 1798.94 460.593C1802.73 460.593 1806.7 460.023 1810.86 458.882C1815.02 457.742 1819.5 456.05 1824.32 453.806L1825.15 461.476ZM1861.95 365.249C1863.64 365.249 1865.21 365.562 1866.64 366.187C1868.11 366.776 1869.53 367.456 1870.89 368.229C1872.25 368.964 1873.59 369.645 1874.92 370.27C1876.24 370.859 1877.62 371.153 1879.06 371.153C1879.9 371.153 1880.69 370.951 1881.43 370.546C1882.16 370.141 1882.83 369.663 1883.42 369.111C1884 368.56 1884.5 368.008 1884.91 367.456C1885.31 366.868 1885.6 366.426 1885.79 366.132C1887.74 366.132 1889.61 366.647 1891.42 367.677C1889.54 371.245 1887.55 374.004 1885.46 375.953C1883.36 377.866 1881.04 378.822 1878.5 378.822C1876.7 378.822 1874.99 378.51 1873.37 377.884C1871.79 377.259 1870.27 376.578 1868.79 375.843C1867.36 375.107 1865.98 374.427 1864.66 373.801C1863.33 373.176 1862.04 372.863 1860.79 372.863C1859.95 372.863 1859.16 373.084 1858.42 373.525C1857.72 373.93 1857.08 374.408 1856.49 374.96C1855.9 375.512 1855.39 376.063 1854.94 376.615C1854.54 377.167 1854.23 377.572 1854.01 377.829C1853.05 377.829 1852.13 377.719 1851.25 377.498C1850.37 377.277 1849.48 376.891 1848.6 376.339C1849.63 374.059 1850.71 372.201 1851.85 370.767C1853.03 369.295 1854.19 368.155 1855.33 367.346C1856.51 366.536 1857.65 365.985 1858.75 365.69C1859.89 365.396 1860.96 365.249 1861.95 365.249ZM1870.39 396.534L1856.54 436.978H1884.46L1870.89 396.534H1870.39ZM1903.61 451.709C1904.2 453.254 1904.75 454.579 1905.27 455.682C1905.82 456.749 1906.37 457.705 1906.92 458.551C1907.77 458.772 1908.61 458.919 1909.46 458.993C1910.34 459.029 1911.26 459.048 1912.22 459.048H1914.65L1916.25 466.772C1913.78 466.405 1911.44 466.184 1909.24 466.11C1907.07 466.037 1904.95 466 1902.89 466C1901.38 466 1899.93 466 1898.53 466C1897.17 466.037 1895.83 466.074 1894.51 466.11C1893.18 466.184 1891.86 466.257 1890.53 466.331C1889.21 466.441 1887.85 466.589 1886.45 466.772L1885.4 459.048H1886.34C1887.41 459.048 1888.4 459.029 1889.32 458.993C1890.24 458.956 1891.07 458.809 1891.8 458.551C1891.77 457.705 1891.62 456.73 1891.36 455.627C1891.14 454.523 1890.75 453.273 1890.2 451.875L1886.56 442.661H1854.72L1851.74 451.709C1851.3 453.034 1850.97 454.192 1850.75 455.186C1850.57 456.142 1850.48 457.043 1850.48 457.889C1850.48 458.183 1850.6 458.404 1850.86 458.551C1851.12 458.698 1851.43 458.809 1851.8 458.882C1852.2 458.956 1852.63 459.011 1853.07 459.048C1853.55 459.048 1854.01 459.048 1854.45 459.048H1856.99L1856.49 466.772C1854.43 466.405 1852.43 466.184 1850.48 466.11C1848.56 466.037 1846.67 466 1844.79 466C1842 466 1839.37 466.037 1836.9 466.11C1834.44 466.184 1831.81 466.405 1829.01 466.772L1830.67 459.048H1833.21C1834.2 459.048 1835.12 459.029 1835.96 458.993C1836.85 458.956 1837.69 458.809 1838.5 458.551C1839.13 457.705 1839.72 456.73 1840.27 455.627C1840.82 454.523 1841.35 453.273 1841.87 451.875C1842.31 450.661 1843.01 448.804 1843.96 446.302C1844.92 443.801 1846.04 440.913 1847.33 437.64C1848.62 434.329 1850 430.779 1851.47 426.991C1852.98 423.202 1854.49 419.413 1855.99 415.625L1867.47 386.712H1872.55C1874.2 386.712 1875.51 386.786 1876.46 386.933C1877.46 387.08 1878.39 387.301 1879.28 387.595L1903.61 451.709ZM1935.94 426.77C1935.94 437.916 1937.89 446.449 1941.79 452.372C1945.73 458.257 1951.65 461.2 1959.56 461.2C1963.31 461.2 1966.64 460.501 1969.54 459.103C1972.49 457.705 1974.95 455.59 1976.94 452.758C1978.92 449.889 1980.43 446.284 1981.46 441.943C1982.53 437.603 1983.06 432.49 1983.06 426.604C1983.06 415.165 1981.02 406.576 1976.94 400.837C1972.89 395.099 1967.1 392.23 1959.56 392.23C1955.81 392.23 1952.46 392.947 1949.52 394.382C1946.61 395.78 1944.15 397.913 1942.12 400.782C1940.14 403.651 1938.61 407.256 1937.54 411.597C1936.48 415.9 1935.94 420.958 1935.94 426.77ZM1996.31 426.604C1996.31 433.078 1995.44 438.89 1993.71 444.04C1992.02 449.153 1989.57 453.493 1986.37 457.062C1983.21 460.593 1979.35 463.315 1974.79 465.228C1970.26 467.104 1965.19 468.042 1959.56 468.042C1953.86 468.042 1948.73 467.104 1944.16 465.228C1939.64 463.315 1935.78 460.593 1932.58 457.062C1929.38 453.493 1926.91 449.153 1925.18 444.04C1923.49 438.89 1922.65 433.078 1922.65 426.604C1922.65 420.057 1923.49 414.245 1925.18 409.169C1926.91 404.056 1929.38 399.752 1932.58 396.258C1935.78 392.763 1939.64 390.115 1944.16 388.312C1948.73 386.473 1953.86 385.554 1959.56 385.554C1965.19 385.554 1970.26 386.473 1974.79 388.312C1979.31 390.115 1983.17 392.763 1986.37 396.258C1989.57 399.752 1992.02 404.056 1993.71 409.169C1995.44 414.245 1996.31 420.057 1996.31 426.604Z" fill="#355975"/>
<path d="M1498.45 589.529C1498.45 594.569 1497.66 598.983 1496.08 602.771C1494.54 606.56 1492.37 609.742 1489.57 612.317C1486.81 614.892 1483.5 616.823 1479.64 618.11C1475.78 619.398 1471.55 620.042 1466.95 620.042C1461.43 620.042 1456.72 619.232 1452.82 617.614C1448.96 615.995 1445.82 613.696 1443.39 610.717C1440.96 607.701 1439.18 604.077 1438.04 599.847C1436.93 595.617 1436.38 590.89 1436.38 585.667V552.837C1436.38 549.931 1436.09 547.724 1435.5 546.216C1434.69 545.922 1433.81 545.757 1432.85 545.72C1431.93 545.646 1430.92 545.609 1429.82 545.609H1424.85V539.485C1427.39 539.191 1430.05 538.988 1432.85 538.878C1435.65 538.768 1438.77 538.712 1442.23 538.712C1445.8 538.712 1449.09 538.749 1452.11 538.823C1455.16 538.896 1457.81 539.135 1460.05 539.54V545.609H1454.92C1453.85 545.609 1452.84 545.646 1451.89 545.72C1450.97 545.757 1450.08 545.922 1449.24 546.216C1448.72 547.835 1448.46 550.042 1448.46 552.837V590.357C1448.46 594.219 1448.94 597.585 1449.9 600.454C1450.86 603.323 1452.22 605.714 1453.98 607.627C1455.75 609.503 1457.86 610.919 1460.33 611.875C1462.83 612.832 1465.59 613.31 1468.6 613.31C1475.59 613.31 1480.74 611.103 1484.05 606.689C1487.4 602.275 1489.07 595.433 1489.07 586.164V552.837C1489.07 549.931 1488.78 547.724 1488.19 546.216C1487.38 545.922 1486.5 545.757 1485.54 545.72C1484.59 545.646 1483.58 545.609 1482.51 545.609H1477.54V539.485C1479.97 539.191 1482.47 538.988 1485.05 538.878C1487.66 538.768 1490.56 538.712 1493.76 538.712C1497 538.712 1500 538.749 1502.76 538.823C1505.52 538.896 1507.94 539.135 1510.04 539.54V545.609H1504.96C1503.86 545.609 1502.83 545.646 1501.88 545.72C1500.92 545.757 1500.05 545.922 1499.28 546.216C1498.99 547.062 1498.77 548.019 1498.62 549.085C1498.51 550.152 1498.45 551.403 1498.45 552.837V589.529ZM1540.61 573.694H1557C1557.73 573.694 1558.41 573.639 1559.04 573.528C1559.66 573.418 1560.25 573.16 1560.8 572.756C1561.35 572.351 1561.85 571.763 1562.29 570.99C1562.77 570.218 1563.21 569.151 1563.62 567.79H1566.49C1566.49 571.137 1566.43 574.503 1566.32 577.887C1566.21 581.235 1566.04 584.398 1565.82 587.377H1562.35C1561.91 586.053 1561.46 584.968 1561.02 584.122C1560.58 583.276 1560.09 582.614 1559.53 582.136C1559.02 581.658 1558.41 581.345 1557.71 581.198C1557.01 581.014 1556.17 580.922 1555.17 580.922H1540.61V603.709C1540.61 605.254 1540.68 606.579 1540.83 607.682C1540.98 608.749 1541.18 609.705 1541.44 610.551C1542.25 610.809 1543.13 610.956 1544.08 610.993C1545.04 611.029 1546.05 611.048 1547.12 611.048H1552.08V618.772C1548.85 618.589 1545.81 618.405 1542.98 618.221C1540.15 618.074 1537.35 618 1534.59 618C1531.8 618 1529.08 618.074 1526.43 618.221C1523.78 618.368 1521.08 618.533 1518.32 618.717C1518.13 618.717 1517.93 618.717 1517.71 618.717C1517.53 618.754 1517.34 618.772 1517.16 618.772V611.048H1522.07C1523.14 611.048 1524.15 611.029 1525.1 610.993C1526.06 610.956 1526.94 610.809 1527.75 610.551C1528.3 609.117 1528.58 607.13 1528.58 604.592V553.003C1528.58 550.318 1528.29 548.276 1527.7 546.878C1526.96 546.584 1526.17 546.419 1525.32 546.382C1524.48 546.345 1523.58 546.327 1522.62 546.327H1516.06V540.368C1520.51 539.853 1525.93 539.448 1532.33 539.154C1538.77 538.86 1546.11 538.712 1554.35 538.712H1578.62C1579.07 541.434 1579.42 543.752 1579.67 545.665C1579.93 547.541 1580.13 549.122 1580.28 550.41C1580.46 551.66 1580.57 552.635 1580.61 553.334C1580.68 554.033 1580.74 554.548 1580.78 554.879L1572.72 555.21C1572.72 554.474 1572.61 553.389 1572.39 551.955C1572.21 550.483 1571.82 548.92 1571.23 547.265C1570.02 546.676 1568.33 546.271 1566.15 546.051C1564.02 545.83 1561.17 545.72 1557.6 545.72C1557.16 545.72 1556.57 545.738 1555.84 545.775C1555.14 545.775 1554.14 545.793 1552.86 545.83C1551.61 545.83 1549.99 545.867 1548 545.94C1546.02 545.977 1543.55 546.032 1540.61 546.106V573.694ZM1614.6 545.609V577.777C1616 577.814 1617.51 577.85 1619.12 577.887C1620.74 577.887 1622.54 577.887 1624.53 577.887C1631.23 577.887 1636.14 576.489 1639.26 573.694C1642.39 570.861 1643.95 566.815 1643.95 561.555C1643.95 558.539 1643.57 556.019 1642.79 553.996C1642.02 551.936 1640.79 550.299 1639.1 549.085C1637.44 547.835 1635.29 546.952 1632.64 546.437C1630.03 545.885 1626.87 545.609 1623.15 545.609H1614.6ZM1602.57 552.065C1602.57 549.343 1602.28 547.338 1601.69 546.051C1600.95 545.83 1600.14 545.701 1599.26 545.665C1598.41 545.628 1597.53 545.609 1596.61 545.609H1589.99V539.54C1591.2 539.356 1592.64 539.191 1594.29 539.043C1595.95 538.896 1597.72 538.786 1599.59 538.712C1601.47 538.602 1603.42 538.51 1605.44 538.437C1607.5 538.363 1609.5 538.308 1611.45 538.271C1613.44 538.234 1615.35 538.216 1617.19 538.216C1619.03 538.179 1620.69 538.161 1622.16 538.161C1627.71 538.161 1632.62 538.547 1636.89 539.319C1641.16 540.092 1644.73 541.379 1647.59 543.182C1650.5 544.947 1652.69 547.301 1654.16 550.244C1655.63 553.15 1656.37 556.755 1656.37 561.059C1656.37 564.001 1655.94 566.631 1655.1 568.949C1654.29 571.229 1653.17 573.252 1651.73 575.018C1650.33 576.784 1648.66 578.273 1646.71 579.487C1644.8 580.701 1642.74 581.694 1640.53 582.467C1641.01 584.858 1641.73 587.23 1642.68 589.584C1643.64 591.902 1644.74 594.127 1645.99 596.261C1647.24 598.357 1648.59 600.325 1650.02 602.165C1651.49 603.967 1652.95 605.53 1654.38 606.854C1655.85 608.142 1657.25 609.172 1658.57 609.944C1659.94 610.68 1661.15 611.048 1662.22 611.048H1665.31V618.772H1656.97C1653.63 618.772 1650.68 618.184 1648.15 617.007C1645.61 615.793 1643.38 614.23 1641.47 612.317C1639.59 610.367 1637.99 608.16 1636.67 605.696C1635.38 603.194 1634.28 600.675 1633.36 598.137C1632.48 595.599 1631.76 593.134 1631.21 590.743C1630.66 588.352 1630.2 586.256 1629.83 584.453C1627.29 584.453 1624.75 584.435 1622.21 584.398C1619.68 584.361 1617.14 584.288 1614.6 584.177V603.709C1614.6 605.254 1614.67 606.579 1614.82 607.682C1614.97 608.749 1615.17 609.705 1615.43 610.551C1616.24 610.772 1617.12 610.919 1618.08 610.993C1619.03 611.029 1620.04 611.048 1621.11 611.048H1626.08V618.772C1623.21 618.405 1620.5 618.184 1617.96 618.11C1615.46 618.037 1612.98 618 1610.52 618C1607.13 618 1603.88 618.037 1600.75 618.11C1597.66 618.184 1594.46 618.405 1591.15 618.772V611.048H1596.06C1597.13 611.048 1598.14 611.029 1599.09 610.993C1600.05 610.956 1600.93 610.809 1601.74 610.551C1602.33 609.043 1602.63 606.818 1602.63 603.875L1602.57 552.065ZM1707.02 600.564C1707.02 605.089 1706.56 609.062 1705.64 612.482C1704.72 615.867 1703.41 618.681 1701.72 620.924C1700.03 623.205 1697.97 624.915 1695.54 626.056C1693.11 627.196 1690.39 627.766 1687.38 627.766C1686.35 627.766 1684.93 627.674 1683.13 627.49C1681.36 627.343 1679.52 627.104 1677.61 626.773C1675.7 626.479 1673.86 626.074 1672.09 625.559C1670.33 625.081 1668.95 624.511 1667.95 623.849C1667.95 623.701 1667.97 623.278 1668.01 622.58C1668.05 621.917 1668.1 620.888 1668.17 619.49C1668.25 618.129 1668.36 616.363 1668.51 614.193C1668.65 612.023 1668.84 609.356 1669.06 606.192L1676.84 606.523C1676.98 607.995 1677.19 609.521 1677.44 611.103C1677.7 612.648 1677.96 614.083 1678.22 615.407C1678.51 616.952 1678.82 618.478 1679.15 619.986C1679.89 620.133 1680.64 620.281 1681.42 620.428C1682.08 620.538 1682.78 620.63 1683.51 620.704C1684.29 620.777 1685.04 620.814 1685.78 620.814C1687.8 620.814 1689.42 620.299 1690.63 619.269C1691.88 618.239 1692.82 616.768 1693.45 614.855C1694.07 612.942 1694.48 610.625 1694.66 607.903C1694.88 605.144 1694.99 602.054 1694.99 598.633V552.837C1694.99 549.931 1694.7 547.724 1694.11 546.216C1693.33 545.922 1692.47 545.757 1691.51 545.72C1690.56 545.646 1689.53 545.609 1688.42 545.609H1683.46V539.54C1686 539.246 1688.65 539.043 1691.4 538.933C1694.2 538.786 1697.27 538.712 1700.62 538.712C1704.19 538.712 1707.5 538.749 1710.55 538.823C1713.64 538.896 1716.34 539.135 1718.66 539.54V545.609H1713.58C1712.48 545.609 1711.45 545.646 1710.49 545.72C1709.54 545.757 1708.67 545.922 1707.9 546.216C1707.31 547.835 1707.02 550.06 1707.02 552.893V600.564Z" fill="white"/>
<defs>
<linearGradient id="paint0_linear_1324_5" x1="405.5" y1="195.996" x2="405.5" y2="732.496" gradientUnits="userSpaceOnUse">
<stop stop-color="#24608E"/>
<stop offset="1" stop-color="#1C425F"/>
</linearGradient>
<linearGradient id="paint1_linear_1324_5" x1="181.939" y1="297.761" x2="181.939" y2="600.945" gradientUnits="userSpaceOnUse">
<stop stop-color="#24608E"/>
<stop offset="1" stop-color="#1C425F"/>
</linearGradient>
<linearGradient id="paint2_linear_1324_5" x1="608.5" y1="664.004" x2="608.5" y2="127.504" gradientUnits="userSpaceOnUse">
<stop stop-color="#2F77AE"/>
<stop offset="1" stop-color="#669ECA"/>
</linearGradient>
<linearGradient id="paint3_linear_1324_5" x1="832.061" y1="562.24" x2="832.061" y2="259.055" gradientUnits="userSpaceOnUse">
<stop stop-color="#2F77AE"/>
<stop offset="1" stop-color="#669ECA"/>
</linearGradient>
<clipPath id="clip0_1324_5">
<rect width="860" height="507" fill="white" transform="matrix(0 1 -1 0 507 0)"/>
</clipPath>
<clipPath id="clip1_1324_5">
<rect width="860" height="508" fill="white" transform="matrix(0 -1 1 0 507 860)"/>
</clipPath>
</defs>
</svg>
