<svg width="649" height="148" viewBox="0 0 649 148" fill="none" xmlns="http://www.w3.org/2000/svg">
<path d="M49.4723 74.7114C48.8375 74.9067 48.3004 75.102 47.861 75.2973C47.6656 89.4575 43.9059 106.987 36.5817 127.885C37.7047 127.885 38.2662 128.007 38.2662 128.251C41.6842 128.251 46.982 126.884 54.1598 124.15C57.1383 123.759 64.1451 120.488 75.1803 114.335C86.2643 108.183 91.8063 101.201 91.8063 93.3882V89.2866C91.8063 87.9682 90.2193 86.0884 87.0455 83.647C83.8229 81.645 80.6979 80.4243 77.6705 79.9848C64.4381 76.9575 55.0387 75.1997 49.4723 74.7114ZM50.3512 65.9956C55.0875 66.0444 59.2623 66.2641 62.8756 66.6548C65.1705 66.1665 68.0514 64.8725 71.5182 62.7729C73.7154 61.4057 75.9371 59.6235 78.1832 57.4263C90.6344 48.6372 96.86 40.0434 96.86 31.645C95.8346 26.8598 93.3932 23.4419 89.5358 21.3911C86.3131 20.3657 83.5543 19.6089 81.2594 19.1206C68.6617 21.0737 60.8492 22.5386 57.8219 23.5151C57.8219 31.5229 55.3317 45.6831 50.3512 65.9956ZM18.0514 123.71V123.271C26.8893 87.5288 34.2623 59.5747 40.1705 39.4087L43.1002 26.8843H41.2692C33.652 28.5932 28.9889 29.4477 27.2799 29.4477C21.7623 30.1313 18.3199 30.4731 16.9527 30.4731C11.4352 29.643 7.43126 28.1538 4.94103 26.0054C2.40197 23.8569 0.937122 21.9526 0.546497 20.2925C0.155872 18.5835 2.03575 16.7768 6.18615 14.8725C10.2877 12.9682 19.0524 10.2095 32.4801 6.59617C40.5856 5.37547 48.0807 4.76512 54.9654 4.76512H59.2867C71.4938 4.76512 79.8678 5.98582 84.4088 8.42723C92.026 10.2827 99.6188 16.0444 107.187 25.7124C108.896 30.4487 109.751 33.6714 109.751 35.3804C109.751 39.4331 107.553 44.9263 103.159 51.8598C95.0533 59.1352 86.3375 64.311 77.0113 67.3872L73.7887 68.3393C75.2535 68.6811 76.5475 69.1206 77.6705 69.6577C86.6061 71.5132 95.4684 77.2993 104.257 87.0161C106.211 91.7036 107.187 94.9018 107.187 96.6108C106.699 102.324 102.939 108.33 95.9078 114.628C88.9254 120.878 74.7164 127.202 53.2809 133.598C45.0289 135.991 38.4615 137.407 33.5787 137.846C23.1783 137.358 18.0026 132.646 18.0514 123.71Z" fill="white"/>
<path d="M146.225 55.4487C153.354 54.6675 156.626 59.8188 156.04 70.9028C153.647 81.8403 152.451 88.5298 152.451 90.9712C152.451 93.852 153.305 95.3657 155.014 95.5122C158.09 95.5122 164.438 93.3149 174.057 88.9204L174.497 89.9458V92.5093C173.715 95.0483 170.151 97.6118 163.803 100.2C161.704 101.909 158.945 102.763 155.527 102.763C150.009 102.226 146.396 99.687 144.687 95.146C143.027 90.605 142.197 87.3091 142.197 85.2583H141.684C133.628 99.6626 126.596 106.865 120.59 106.865C119.174 106.865 118.32 106.865 118.027 106.865C114.316 106.865 111.069 103.544 108.286 96.9038C105.503 90.2632 109.067 81.4009 118.979 70.3169C130.356 62.1138 136.899 58.0122 138.608 58.0122C143.344 56.3032 145.883 55.4487 146.225 55.4487ZM115.976 96.5376L117.441 97.563C125.498 93.4614 131.211 88.4809 134.58 82.6216C137.949 76.7622 139.633 73.3442 139.633 72.3677V70.9028H139.047C129.965 73.686 123.838 78.4468 120.664 85.185C117.539 91.9233 115.976 95.7075 115.976 96.5376Z" fill="white"/>
<path d="M190.463 38.6763H191.049C197.934 38.6763 201.377 41.5571 201.377 47.3188L201.084 51.7866C200.058 56.8647 199.008 62.187 197.934 67.7534H198.52C208.774 55.5952 217.856 49.9311 225.766 50.7612C233.725 51.5913 238.779 57.0845 240.927 67.2407C242.002 70.6098 242.5 75 242.5 75L242.539 76L243.051 82.4751C243.051 85.063 242.343 93.5591 240.927 107.963H241.44C241.587 111.381 244.956 111.772 251.547 109.135C258.188 106.45 258.847 107.768 253.525 113.09C248.252 118.364 243.344 121 238.803 121C234.262 121 230.258 118.828 226.792 114.482C222.788 107.695 220.786 101.176 220.786 94.9263C220.786 91.4106 221.86 80.7417 224.008 62.9194V61.8208C218.588 63.6763 212.876 66.8501 206.87 71.3423C200.913 75.7856 195.883 83.1831 191.782 93.5347C187.729 103.837 184.58 109.892 182.334 111.699H180.136C173.105 112.626 170.932 106.45 173.618 93.1684C179.282 70.9028 183.286 56.4253 185.63 49.7358C188.022 42.9975 189.633 39.311 190.463 38.6763Z" fill="white"/>
<path d="M321.787 0.736799C331.455 -0.33742 330.966 22.8804 320.322 70.3901C316.416 86.6499 314.267 96.3911 313.877 99.6138C313.535 103.471 314.511 105.546 316.806 105.839C320.908 105.839 329.721 102.861 343.247 96.9038L343.686 98.2954L343.393 101.665C341.928 105.131 337.485 108.671 330.063 112.285C325.62 114.384 321.079 115.434 316.44 115.434C309.116 114.75 304.624 111.357 302.964 105.253C301.303 99.1499 300.644 94.7309 300.986 91.9966H300.327C287.583 111.333 277.158 121 269.052 121L267.661 121.147C266.733 121.049 266.025 121 265.537 121C260.556 121 256.674 116.557 253.891 107.67C251.108 98.7837 257.163 86.9184 272.055 72.0747C286.948 60.2583 297.202 57.4263 302.817 63.5786C308.383 26.7622 314.707 5.81492 321.787 0.736799ZM264.145 107.158L266.196 108.623C277.524 103.154 285.8 96.8061 291.025 89.5796C296.25 82.353 298.96 78.105 299.155 76.8354L299.375 74.7847H298.569C286.85 75.2241 278.232 80.4487 272.714 90.4585C267.197 100.419 264.34 105.986 264.145 107.158Z" fill="white"/>
<path d="M355.112 55.522H365.512C369.223 57.5239 371.079 59.0132 371.079 59.9897V63.5786C369.516 72.3188 360.971 79.9116 345.444 86.3569H344.785V89.2866C347.373 93.1929 350.376 95.146 353.794 95.146H354.453C359.677 95.3901 366.977 92.1186 376.352 85.3315L376.938 86.8696V88.3345C368.149 97.27 359.726 101.738 351.67 101.738C338.291 99.6382 331.601 93.5347 331.601 83.4272C333.896 73.0757 337.851 65.727 343.466 61.3813C348.789 57.4751 352.671 55.522 355.112 55.522ZM344.785 78.227V79.0327C352.451 76.8843 358.237 72.7339 362.143 66.5815L362.729 65.0434V64.3843L362.143 62.8462C350.571 66.5571 344.785 71.6841 344.785 78.227Z" fill="white"/>
<path d="M380.38 138.872C371.884 139.995 364.975 138.383 359.653 134.038C354.282 129.741 352.011 125.786 352.841 122.172C353.672 118.608 355.698 119.243 358.921 124.077C362.094 128.911 366.464 131.596 372.031 132.133C377.548 132.67 382.089 129.008 385.654 121.147C389.218 113.286 391.684 103.789 393.051 92.6557C394.419 81.5229 395.297 73.4419 395.688 68.4126C396.079 63.3345 396.714 59.4526 397.592 56.7671C398.52 54.0815 400.62 51.6889 403.891 49.5893L407.187 49.5161C408.164 49.5161 408.969 51.4692 409.604 55.3755L410.849 78.4468C410.361 90.1655 407.285 102.885 401.621 116.606C395.957 130.327 388.877 137.749 380.38 138.872ZM404.917 25.0532C407.212 23.9302 409.36 23.979 411.362 25.1997C413.413 26.4204 414.438 27.519 414.438 28.4956V31.1323C414.438 38.0659 411.264 41.5327 404.917 41.5327H403.159C402.329 41.5327 401.45 40.6538 400.522 38.896V33.769C401.206 29.0815 402.671 26.1763 404.917 25.0532Z" fill="white"/>
<path d="M487.9 65.8491C486.875 53.2026 484.995 39.0913 482.26 23.5151C475.62 38.9448 469.248 52.8852 463.144 65.3364C476.523 66.2641 484.775 66.435 487.9 65.8491ZM453.696 84.0864C449.839 91.313 446.079 97.9292 442.417 103.935C430.454 123.564 417.588 133.305 403.818 133.159L403.745 132.792C410.971 122.49 418.125 110.747 425.205 97.563C427.402 93.1196 429.868 87.9194 432.602 81.9624C421.518 80.3999 414.316 77.1772 410.996 72.2944C407.675 67.4116 406.381 63.3345 407.114 60.063C407.797 56.7427 409.629 56.1079 412.607 58.1587C415.634 60.1606 419.297 61.6011 423.593 62.48C427.939 63.3589 433.652 63.7007 440.732 63.5054C445.224 53.2514 450.107 41.5571 455.38 28.4223C458.213 18.3149 463.413 11.5522 470.981 8.13426C478.598 4.66746 486.045 5.44871 493.32 10.478C497.617 13.0659 500.669 17.0698 502.475 22.4897L504.16 28.935C509.189 55.5952 511.118 75.1509 509.946 87.602C507.895 114.604 505.38 129.545 502.402 132.426C499.472 135.356 496.884 134.843 494.638 130.888C492.441 126.982 490.512 113.872 488.852 91.5571C488.901 88.5786 488.901 85.478 488.852 82.2554L487.461 82.6948C481.552 84.7456 470.297 85.2095 453.696 84.0864Z" fill="white"/>
<path d="M519.834 147.807C511.338 148.637 511.606 127.592 520.639 84.6723C524.985 71.9282 527.329 64.1157 527.671 61.2348C528.354 57.4263 528.794 55.0337 528.989 54.0571C529.184 53.0805 529.331 51.2007 529.428 48.4175C529.575 45.5854 531.235 44.3403 534.409 44.6821C537.583 45.0239 539.194 48.4175 539.243 54.8628C539.292 61.2593 539.194 65.6294 538.95 67.9731H539.536C550.913 51.2251 560.141 42.8999 567.221 42.9975H568.5C569.5 42.9951 569.834 42.9975 570.224 42.9975C574.619 43.0464 577.988 46.977 580.332 54.7895C582.675 62.602 577.28 72.978 564.145 85.9175C550.962 96.0249 541.928 98.3686 537.046 92.9487C531.87 125.175 526.132 143.461 519.834 147.807ZM571.25 55.0825L569.565 53.9106C559.653 58.5493 552.353 64.0181 547.666 70.3169C542.978 76.5669 540.586 80.2778 540.488 81.4497L540.195 83.1343H540.854C551.059 82.8413 558.652 78.3491 563.632 69.6577C568.613 60.9663 571.152 56.1079 571.25 55.0825Z" fill="white"/>
<path d="M587.363 147.807C578.867 148.637 579.135 127.592 588.169 84.6723C592.514 71.9282 594.858 64.1157 595.2 61.2348C595.883 57.4263 596.323 55.0337 596.518 54.0571C596.714 53.0805 596.86 51.2007 596.958 48.4175C597.104 45.5854 598.764 44.3403 601.938 44.6821C605.112 45.0239 606.723 48.4175 606.772 54.8628C606.821 61.2593 606.723 65.6294 606.479 67.9731H607.065C618.442 51.2251 627.671 42.8999 634.751 42.9975L636 43C636 43 637.363 42.9975 637.754 42.9975C642.148 43.0464 645.517 46.977 647.861 54.7895C650.205 62.602 644.809 72.978 631.674 85.9175C618.491 96.0249 609.458 98.3686 604.575 92.9487C599.399 125.175 593.662 143.461 587.363 147.807ZM638.779 55.0825L637.094 53.9106C627.182 58.5493 619.882 64.0181 615.195 70.3169C610.507 76.5669 608.115 80.2778 608.017 81.4497L607.724 83.1343H608.383C618.589 82.8413 626.181 78.3491 631.162 69.6577C636.142 60.9663 638.681 56.1079 638.779 55.0825Z" fill="white"/>
</svg>
