<svg width="122" height="29" viewBox="0 0 122 29" fill="none" xmlns="http://www.w3.org/2000/svg">
<g clip-path="url(#clip0_1409_198)">
<path d="M28.8486 21.8322V9.58016L34.6246 9.58012C35.6281 9.58012 36.4508 9.72015 37.0926 10.0002C37.7343 10.2802 38.2069 10.6828 38.5103 11.2079C38.8254 11.7213 38.9829 12.3339 38.9829 13.0457C38.9829 13.4658 38.9012 13.8392 38.7378 14.1659C38.5861 14.481 38.3936 14.7435 38.1602 14.9535C37.9385 15.1636 37.7285 15.3153 37.5301 15.4086C37.9735 15.6186 38.3644 15.9629 38.7028 16.4413C39.0529 16.9197 39.2279 17.4798 39.2279 18.1216C39.2279 18.8917 39.0529 19.5568 38.7028 20.1169C38.3644 20.6653 37.8627 21.0912 37.1976 21.3946C36.5441 21.6863 35.739 21.8322 34.7822 21.8322H28.8486ZM31.9817 19.5568H34.4321C34.9339 19.5568 35.3131 19.411 35.5698 19.1192C35.8265 18.8275 35.9549 18.495 35.9549 18.1216C35.9549 17.7132 35.8207 17.3689 35.5523 17.0889C35.2956 16.8089 34.9222 16.6688 34.4321 16.6688H31.9817V19.5568ZM31.9817 14.4459H34.2746C34.753 14.4459 35.1089 14.3234 35.3423 14.0784C35.5873 13.8333 35.7098 13.5183 35.7098 13.1332C35.7098 12.7598 35.5873 12.4564 35.3423 12.2231C35.1089 11.978 34.753 11.8555 34.2746 11.8555H31.9817V14.4459Z" fill="#FD720F"/>
<path d="M38.9663 21.8322C38.8729 21.8322 38.4236 21.8322 38.4236 21.8322L38.6162 21.3071L42.7294 10.0702L42.9173 9.58012H43.412H46.0025H46.495L46.6851 10.0702L50.7808 21.3071C50.8041 21.3538 50.9634 21.8322 50.9634 21.8322H50.4307H48.2779H47.8603L47.7178 21.4646L47.0352 19.6793H42.3619C42.3619 19.6793 41.7201 21.3946 41.6967 21.4646C41.6734 21.5347 41.5692 21.8322 41.5692 21.8322H41.1192H38.9663ZM43.0795 17.1589H46.335L44.6898 12.5381L43.0795 17.1589Z" fill="#FD720F"/>
<path d="M51.5244 21.8668L50.6178 19.3248V10.0523C50.6178 9.92391 50.6178 9.61469 50.6178 9.61469C50.6178 9.61469 50.927 9.61469 51.0553 9.61469H52.9107C53.109 9.61469 53.3046 9.61469 53.3046 9.61469C53.3046 9.61469 53.4824 9.90057 53.5058 9.94724L57.7765 16.6859V10.0523C57.7765 9.92391 57.7765 9.61469 57.7765 9.61469C57.7765 9.61469 58.0857 9.61469 58.2141 9.61469H60.3144C60.4428 9.61469 60.752 9.61469 60.752 9.61469C60.752 9.61469 60.752 9.92391 60.752 10.0523V21.4292C60.752 21.5459 60.752 21.8668 60.752 21.8668C60.752 21.8668 60.4428 21.8668 60.3144 21.8668H58.4416C58.2549 21.8668 58.0748 21.8668 58.0748 21.8668C58.0748 21.8668 57.8873 21.5692 57.864 21.5342L53.5933 15.0581V21.4292C53.5933 21.5575 53.5933 21.8668 53.5933 21.8668H51.5244Z" fill="#FD720F"/>
<path d="M61.8162 21.8322C61.6878 21.8322 61.3786 21.8322 61.3786 21.8322C61.3786 21.8322 61.3786 21.523 61.3786 21.3946V10.0177C61.3786 9.88934 61.3786 9.58012 61.3786 9.58012C61.3786 9.58012 61.6878 9.58012 61.8162 9.58012H66.3669C67.5105 9.58012 68.4848 9.76682 69.2899 10.1402C70.0951 10.5019 70.7135 11.0387 71.1453 11.7505C71.577 12.4506 71.8104 13.3199 71.8454 14.3584C71.857 14.8719 71.8629 15.3211 71.8629 15.7062C71.8629 16.0912 71.857 16.5346 71.8454 17.0364C71.7987 18.1216 71.5653 19.0201 71.1453 19.7318C70.7368 20.4436 70.1359 20.9746 69.3424 21.3246C68.5606 21.663 67.598 21.8322 66.4545 21.8322H61.8162ZM64.5116 19.3118H66.3669C66.8687 19.3118 67.2829 19.2359 67.6097 19.0842C67.948 18.9209 68.1989 18.67 68.3623 18.3316C68.5373 17.9932 68.6307 17.5498 68.6423 17.0014C68.6657 16.663 68.6773 16.3596 68.6773 16.0912C68.689 15.8229 68.689 15.5545 68.6773 15.2861C68.6773 15.0177 68.6657 14.7202 68.6423 14.3934C68.619 13.6 68.409 13.0224 68.0122 12.6606C67.6272 12.2872 67.0496 12.1005 66.2794 12.1005H64.5116V19.3118Z" fill="#FD720F"/>
<path d="M72.8368 21.8322C72.7085 21.8322 72.3992 21.8322 72.3992 21.8322C72.3992 21.8322 72.3992 21.523 72.3992 21.3946V10.0177C72.3992 9.88934 72.3992 9.58012 72.3992 9.58012C72.3992 9.58012 72.7085 9.58012 72.8368 9.58012L80.6815 9.58008L81.4483 10.6658V11.663C81.4483 11.7913 81.4483 12.1005 81.4483 12.1005C81.4483 12.1005 81.1391 12.1005 81.0107 12.1005H75.4273V14.4635H80.6256C80.754 14.4635 81.0632 14.4635 81.0632 14.4635C81.0632 14.4635 81.0632 14.7902 81.0632 14.9185V16.4413C81.0632 16.558 81.0632 16.8789 81.0632 16.8789C81.0632 16.8789 80.754 16.8789 80.6256 16.8789H75.4273V19.3118H81.4964V21.8322H72.8368Z" fill="#FD720F"/>
<path d="M84.5702 21.8322C83.9751 21.8322 81.4964 21.8322 81.4964 21.8322V19.3118C81.4964 19.3118 85.3483 19.5149 85.9365 18.9267C86.3215 18.5416 86.5899 17.9815 86.7416 17.2464L87.8093 12.1881H84.9826H84.5702L82.6984 9.58008L91.1699 9.58012C91.2982 9.58012 91.3916 9.62096 91.4499 9.70264C91.5199 9.78432 91.5433 9.88934 91.5199 10.0177L89.9622 17.3339C89.7638 18.3491 89.4196 19.2068 88.9295 19.9069C88.4511 20.5953 87.821 21.1204 87.0392 21.4821C86.269 21.8322 85.6904 21.8322 84.5702 21.8322Z" fill="#FD720F"/>
<path d="M95.2479 11.5565L91.049 21.7767C91.0013 21.9197 90.918 22.0328 90.7988 22.1162C90.6797 22.1996 90.5546 22.2413 90.4236 22.2413C90.1973 22.2413 90.0305 22.1817 89.9233 22.0626C89.8161 21.9435 89.7625 21.8006 89.7625 21.6338C89.7506 21.5504 89.7625 21.4611 89.7983 21.3658L94.426 10.1092C94.4855 9.94242 94.5749 9.82331 94.694 9.75184C94.825 9.66845 94.968 9.63272 95.1228 9.64463C95.2777 9.64463 95.4146 9.68632 95.5338 9.7697C95.6648 9.85309 95.7541 9.96625 95.8018 10.1092L100.412 21.2586C100.447 21.3539 100.465 21.4492 100.465 21.5445C100.465 21.7589 100.394 21.9316 100.251 22.0626C100.108 22.1817 99.9471 22.2413 99.7684 22.2413C99.6254 22.2413 99.4944 22.1996 99.3753 22.1162C99.2562 22.0328 99.1668 21.9137 99.1073 21.7589L94.8548 11.5386L95.2479 11.5565ZM91.9424 18.8643L92.5499 17.4706H97.8565L98.1246 18.8643H91.9424ZM105.835 12.8251C106.645 12.8251 107.372 13.0276 108.015 13.4326C108.658 13.8376 109.165 14.3974 109.534 15.1121C109.915 15.8268 110.106 16.6487 110.106 17.5779C110.106 18.4951 109.915 19.317 109.534 20.0436C109.165 20.7583 108.658 21.3241 108.015 21.741C107.384 22.146 106.669 22.3485 105.871 22.3485C105.43 22.3485 105.014 22.283 104.62 22.152C104.239 22.009 103.888 21.8303 103.566 21.6159C103.257 21.3896 102.994 21.1395 102.78 20.8655C102.566 20.5796 102.411 20.2997 102.315 20.0257L102.709 19.7756V25.0465C102.709 25.249 102.643 25.4217 102.512 25.5647C102.381 25.7076 102.208 25.7791 101.994 25.7791C101.791 25.7791 101.619 25.7076 101.476 25.5647C101.345 25.4336 101.279 25.2609 101.279 25.0465V13.6291C101.279 13.4266 101.345 13.2598 101.476 13.1288C101.619 12.9859 101.791 12.9144 101.994 12.9144C102.208 12.9144 102.381 12.9859 102.512 13.1288C102.643 13.2598 102.709 13.4266 102.709 13.6291V15.2193L102.441 15.0764C102.524 14.7786 102.667 14.4927 102.869 14.2187C103.084 13.9448 103.34 13.7065 103.638 13.504C103.947 13.2896 104.287 13.1229 104.656 13.0037C105.037 12.8846 105.43 12.8251 105.835 12.8251ZM105.675 14.1473C105.079 14.1473 104.549 14.2962 104.084 14.594C103.632 14.8918 103.274 15.2968 103.012 15.809C102.762 16.3212 102.637 16.9108 102.637 17.5779C102.637 18.233 102.762 18.8226 103.012 19.3467C103.274 19.8709 103.632 20.2818 104.084 20.5796C104.549 20.8774 105.079 21.0263 105.675 21.0263C106.27 21.0263 106.794 20.8774 107.247 20.5796C107.7 20.2818 108.057 19.8709 108.319 19.3467C108.581 18.8226 108.712 18.233 108.712 17.5779C108.712 16.9108 108.581 16.3212 108.319 15.809C108.057 15.2968 107.7 14.8918 107.247 14.594C106.794 14.2962 106.27 14.1473 105.675 14.1473ZM115.917 12.8251C116.727 12.8251 117.454 13.0276 118.097 13.4326C118.74 13.8376 119.247 14.3974 119.616 15.1121C119.997 15.8268 120.188 16.6487 120.188 17.5779C120.188 18.4951 119.997 19.317 119.616 20.0436C119.247 20.7583 118.74 21.3241 118.097 21.741C117.466 22.146 116.751 22.3485 115.953 22.3485C115.512 22.3485 115.095 22.283 114.702 22.152C114.321 22.009 113.97 21.8303 113.648 21.6159C113.338 21.3896 113.076 21.1395 112.862 20.8655C112.648 20.5796 112.493 20.2997 112.397 20.0257L112.791 19.7756V25.0465C112.791 25.249 112.725 25.4217 112.594 25.5647C112.463 25.7076 112.29 25.7791 112.076 25.7791C111.873 25.7791 111.701 25.7076 111.558 25.5647C111.427 25.4336 111.361 25.2609 111.361 25.0465V13.6291C111.361 13.4266 111.427 13.2598 111.558 13.1288C111.701 12.9859 111.873 12.9144 112.076 12.9144C112.29 12.9144 112.463 12.9859 112.594 13.1288C112.725 13.2598 112.791 13.4266 112.791 13.6291V15.2193L112.523 15.0764C112.606 14.7786 112.749 14.4927 112.951 14.2187C113.166 13.9448 113.422 13.7065 113.72 13.504C114.029 13.2896 114.369 13.1229 114.738 13.0037C115.119 12.8846 115.512 12.8251 115.917 12.8251ZM115.757 14.1473C115.161 14.1473 114.631 14.2962 114.166 14.594C113.714 14.8918 113.356 15.2968 113.094 15.809C112.844 16.3212 112.719 16.9108 112.719 17.5779C112.719 18.233 112.844 18.8226 113.094 19.3467C113.356 19.8709 113.714 20.2818 114.166 20.5796C114.631 20.8774 115.161 21.0263 115.757 21.0263C116.352 21.0263 116.876 20.8774 117.329 20.5796C117.782 20.2818 118.139 19.8709 118.401 19.3467C118.663 18.8226 118.794 18.233 118.794 17.5779C118.794 16.9108 118.663 16.3212 118.401 15.809C118.139 15.2968 117.782 14.8918 117.329 14.594C116.876 14.2962 116.352 14.1473 115.757 14.1473Z" fill="#FD720F"/>
<path d="M5.03375 10.5421C4.86322 10.267 4.84882 10.0253 4.91779 9.78206C5.43469 7.97026 6.27597 6.35397 7.83803 5.21961C9.90789 3.71623 12.1778 3.36159 14.6138 4.16482C14.9457 4.27393 15.28 4.40654 15.5521 4.69979C15.4922 4.77557 15.4399 4.84149 15.3671 4.93166C13.8839 4.03524 12.2991 3.92385 10.6597 4.30045C10.1095 4.427 9.5312 4.51869 9.10829 4.99835C9.128 5.14535 9.14694 5.29311 9.16362 5.4189C8.69826 5.76747 8.24351 6.10922 7.78649 6.45172C7.40071 6.20394 7.24761 6.21455 6.91792 6.55023C6.34418 7.1337 5.95007 7.83235 5.67722 8.59693C5.45515 9.2198 5.26037 9.85329 5.03375 10.5421Z" fill="#FD720F"/>
<path d="M16.8162 12.5656C16.816 12.5681 16.8158 12.5705 16.8156 12.5729C16.8156 12.573 16.8156 12.5732 16.8156 12.5733C16.803 12.7448 16.7925 12.8874 16.779 13.0822C16.7185 13.0696 16.6604 13.0575 16.6026 13.0454C16.4258 13.0086 16.2518 12.9723 16.0207 12.9244C16.0138 12.923 16.007 12.9216 16 12.9201C16.0018 12.9189 16.0035 12.9177 16.0053 12.9165C16.0103 12.9131 16.0154 12.9096 16.0204 12.9062C16.3147 12.7062 16.5347 12.6167 16.8162 12.5656Z" fill="#FD720F"/>
<path fill-rule="evenodd" clip-rule="evenodd" d="M15.9209 24.3147C15.7461 24.4199 14.5794 23.8696 14.5794 23.8696C14.5794 23.8696 12.5381 22.9216 11.5077 22.443L11.4919 22.4356C10.7184 22.0764 9.9405 21.715 9.15651 21.3509C9.06712 21.3092 9.02925 21.2024 9.07318 21.1145L9.09818 21.063C9.1406 20.9781 9.24286 20.9425 9.32846 20.9819C10.1759 21.3731 11.0174 21.7614 11.86 22.1502L11.8914 22.1647L11.8955 22.1665C12.7531 22.5622 13.612 22.9585 14.4794 23.3589C14.4761 23.1768 14.359 23.1263 14.2593 23.0832C14.2445 23.0768 14.2301 23.0706 14.2165 23.0642C13.6278 22.7803 13.0356 22.5052 12.4433 22.23L12.4429 22.2298L12.3274 22.1761C11.7096 21.8887 11.0919 21.6021 10.4749 21.3159L10.4593 21.3086C10.0828 21.134 9.70654 20.9594 9.33073 20.7849C9.24513 20.7455 9.20574 20.6447 9.24286 20.5583C9.27455 20.4852 9.30708 20.4128 9.33938 20.341C9.56884 19.8306 9.78678 19.3458 9.60949 18.7958C9.58903 18.7329 9.60115 18.6632 9.6466 18.6155C9.67554 18.5855 9.70429 18.5562 9.73267 18.5272C9.85066 18.4067 9.96252 18.2924 10.0572 18.1654C10.0812 18.1334 10.106 18.1011 10.1309 18.0687C10.269 17.8893 10.4127 17.7024 10.4647 17.4971C10.4998 17.3572 10.5372 17.2176 10.5746 17.0779L10.5746 17.0778L10.5746 17.0777C10.7358 16.4758 10.8975 15.8721 10.879 15.2375C10.8784 15.2135 10.8771 15.1893 10.8758 15.165L10.8758 15.1649C10.871 15.0754 10.8662 14.9856 10.8942 14.9033C10.9328 14.7904 11.0775 14.7579 11.1692 14.8344L11.4547 15.0728L11.5023 15.1125L11.8039 15.3644L12.0585 15.577C12.0857 15.5997 12.1054 15.6293 12.1153 15.6633C12.2281 16.068 12.4357 16.5567 12.9667 16.8325C12.8976 16.7176 12.8173 16.6088 12.7368 16.4995C12.5549 16.2529 12.3715 16.0043 12.3122 15.6793C12.2986 15.6042 12.3312 15.527 12.3986 15.4898C12.4052 15.4862 12.4118 15.4825 12.4184 15.4789C12.6201 15.3677 12.8409 15.2458 12.9099 14.8776C12.7364 15.0276 12.6175 15.1299 12.5046 15.2269C12.4796 15.2489 12.4486 15.2633 12.416 15.2686C11.9789 15.3352 11.7009 15.2004 11.3964 14.7435C11.3328 14.6487 11.376 14.5176 11.4843 14.4805L11.6691 14.4154C11.7214 14.3972 11.7805 14.4055 11.8267 14.4366C11.9607 14.529 12.0865 14.6146 12.213 14.7003L12.2774 14.6487L12.11 14.4116C12.0653 14.3479 12.066 14.2608 12.1168 14.2017C12.3857 13.8857 12.725 13.7023 13.1659 13.6879C13.5772 13.6743 13.8893 13.522 14.1007 13.1227C14.2192 12.899 14.4199 12.7149 14.6152 12.5357C14.6495 12.5042 14.6837 12.4728 14.7172 12.4414C14.9204 12.2515 15.1342 12.073 15.3479 11.8946L15.3481 11.8944C15.4404 11.8174 15.5326 11.7404 15.624 11.6625C15.6153 11.6462 15.6064 11.6301 15.5975 11.614C15.591 11.6024 15.5846 11.5908 15.5783 11.5791C15.5758 11.5746 15.5734 11.57 15.5709 11.5655L15.5748 11.5644C16.306 11.3564 17.0372 11.1484 17.7745 10.9389C17.8775 10.9093 17.9836 10.9798 17.9972 11.0859C18.0182 11.2567 18.0378 11.4249 18.0572 11.591L18.0573 11.5919L18.0573 11.5919C18.1171 12.1032 18.1745 12.5945 18.2608 13.081C18.3162 13.3936 18.4231 13.6941 18.5286 13.9909C18.6482 14.327 18.766 14.6584 18.8054 14.9973C18.81 15.0435 18.7979 15.0913 18.7676 15.1261C18.5889 15.334 18.3962 15.292 18.2156 15.2525L18.2155 15.2525C18.1941 15.2478 18.1728 15.2432 18.1517 15.239C18.0904 15.2269 18.0267 15.2481 17.9851 15.2943C17.8555 15.4368 17.8669 15.602 17.9305 15.7763C17.9964 15.9604 17.9684 16.1104 17.7586 16.2339C17.6354 16.2227 17.508 16.2111 17.3779 16.1994L17.3665 16.1983L17.3633 16.198L17.3592 16.1977C17.1442 16.1782 16.9223 16.1581 16.7004 16.1377C16.8659 16.3211 17.0691 16.3372 17.2703 16.3531C17.3177 16.3569 17.365 16.3606 17.4117 16.3665C17.5563 16.3855 17.6866 16.4127 17.7571 16.5188C17.8207 16.6143 17.7609 16.7462 17.6495 16.7749L17.5571 16.7992C17.4715 16.8212 17.4162 16.9045 17.4276 16.9924C17.434 17.0415 17.4417 17.0907 17.4495 17.1399C17.4951 17.4278 17.541 17.7184 17.3185 18.0245C17.2897 18.0639 17.2442 18.0873 17.1958 18.0919C17.0805 18.102 16.9582 18.1129 16.8314 18.1243L16.8305 18.1243C16.626 18.1426 16.4099 18.1619 16.1936 18.1805C16.0917 18.1889 15.9889 18.1931 15.8861 18.1972C15.6639 18.2062 15.4416 18.2151 15.2293 18.2669C14.7188 18.3897 14.4135 18.7352 14.3271 19.2679C14.1931 20.0938 14.2112 20.919 14.2984 21.748C14.4046 21.6059 14.3985 21.4484 14.3921 21.2832C14.3903 21.2351 14.3884 21.1864 14.3893 21.1372C14.3923 20.9963 14.5574 20.9137 14.668 21.0008C15.2148 21.4337 15.2565 22.08 15.3015 22.7781C15.3073 22.8682 15.3132 22.9591 15.3202 23.0505C15.6437 22.1481 15.2831 21.1888 14.5052 20.6712C14.4567 20.6386 14.4256 20.5848 14.4256 20.5257V20.3219C14.4476 20.3204 14.4674 20.3178 14.4855 20.3155C14.5212 20.3108 14.5505 20.307 14.5771 20.3136C15.0649 20.4348 15.3869 20.7432 15.5725 21.2047C15.8239 21.8298 15.9459 22.4784 15.9209 23.1528C15.9207 23.1588 15.9205 23.1649 15.9203 23.1709L15.9203 23.171L15.9203 23.1712C15.9134 23.3735 16.1136 23.5852 16.1572 23.7711C16.2009 23.9571 16.0957 24.2095 15.9209 24.3147ZM17.2117 15.233C17.1359 15.2178 17.0799 15.1534 17.0723 15.0769C17.0382 14.7238 17.0965 14.6692 17.5063 14.4495C17.4761 14.4971 17.4481 14.5411 17.4217 14.5829L17.4209 14.5841C17.3634 14.6746 17.3131 14.754 17.2624 14.8336C17.2155 14.9071 17.2306 15.0034 17.2965 15.0602L17.4677 15.2064C17.4639 15.2189 17.4603 15.2314 17.4567 15.2439C17.4531 15.2564 17.4495 15.2689 17.4457 15.2814L17.2117 15.233ZM15.5399 23.6453C15.5134 23.6203 15.4808 23.6037 15.4452 23.5984C15.3755 23.5882 15.3042 23.5777 15.2318 23.5671L15.2206 23.5655L15.2191 23.5652C15.1011 23.5479 14.9804 23.5302 14.8597 23.5127C14.8597 23.4832 14.8604 23.4544 14.8611 23.4249V23.4247L14.8612 23.4226C15.5649 23.3582 15.7232 23.4324 15.8641 23.9553C15.8049 23.8985 15.7526 23.8486 15.7036 23.8019L15.703 23.8014C15.6463 23.7473 15.5939 23.6973 15.5399 23.6453ZM17.0693 13.2181C16.7072 13.2719 16.3633 13.1969 16.0232 13.0916C15.6831 12.9863 15.7077 12.9062 15.7077 12.9062C15.7077 12.9062 15.8764 12.7622 16.0232 12.6795C16.1699 12.5969 16.3204 12.5539 16.476 12.4984C16.7721 12.3929 17.0797 12.2833 17.4094 12.1656C17.0176 11.9732 16.7184 12.1147 16.4247 12.2537C16.2397 12.3413 16.0568 12.4279 15.8542 12.4293C16.461 11.8671 17.0314 11.7474 17.6222 12.0686C17.7336 12.1293 17.7533 12.2899 17.6495 12.3619C17.508 12.4601 17.4447 12.6207 17.3801 12.7847C17.326 12.922 17.271 13.0615 17.1685 13.1689C17.1427 13.1962 17.1064 13.2128 17.0693 13.2181Z" fill="#FD720F"/>
<path d="M4.74071 9.8626C4.68841 9.76877 4.66719 9.72715 4.64142 9.6878C4.61792 9.65224 4.58988 9.62045 4.50574 9.51224C4.39356 9.93298 4.37958 9.95515 4.28711 10.3063C3.91581 10.6337 3.61349 10.901 3.32007 11.1588C3.63893 9.52947 4.23155 7.35499 5.94133 5.35805C7.65111 3.3611 10.3681 2.69351 12.8334 2.87734C14.4834 3.00037 15.9935 3.57464 16.8611 4.1926C16.4791 4.27524 16.0843 4.35941 15.6001 4.46328C15.6001 4.46328 14.4504 3.68173 12.8334 3.5926C10.1619 3.44534 8.37134 4.16482 6.76806 5.7802C5.44166 7.11661 4.74071 9.8626 4.74071 9.8626Z" fill="#FD720F"/>
<path d="M13.2629 4.85299C14.1547 4.94622 14.7959 5.38815 15.4727 5.66559C15.8727 6.47466 15.2391 7.20053 14.1636 7.99924C12.0328 9.5815 9.87788 10.9713 7.76762 12.4005C6.56663 11.8208 6.00312 10.8404 6.14836 9.57771C6.1808 9.29569 6.23889 9.14299 6.32641 8.87295C6.60706 8.00698 7.24693 7.27605 7.78649 6.72711C8.42911 6.1591 8.75666 5.88206 9.48047 5.50693C9.82992 5.32582 10.0327 5.23296 10.4057 5.10722C10.7114 5.00413 10.8878 4.95779 11.2047 4.89684C11.9942 4.74499 12.3712 4.75975 13.2629 4.85299Z" fill="#FD720F"/>
<path d="M8.19782 13.0805C8.68144 12.7018 8.99684 12.4914 9.60427 12.0775L9.5973 12.115C9.32825 13.5627 9.06756 14.9655 8.57714 16.3817C8.18157 16.2278 7.82986 16.0906 7.46076 15.9473C7.98755 15.0159 8.39862 14.2005 8.19782 13.0805Z" fill="#FD720F"/>
<path d="M12.2639 12.9906C12.023 12.6477 11.8314 12.3253 11.5898 12.047C11.4224 11.855 11.205 11.6813 10.9747 11.5744C10.5786 11.39 10.3135 11.5273 10.215 11.9552C10.0492 12.6781 9.91963 13.4101 9.7636 14.136C9.57879 14.9977 9.38489 15.8572 9.18795 16.7166C9.14705 16.8941 9.07737 17.0656 9.00996 17.2742C8.24496 17.1566 7.5663 16.9048 6.85887 16.4345C7.02399 16.301 7.1429 16.2061 7.2853 16.0916C7.72688 16.2486 8.17149 16.4071 8.66154 16.5816C9.269 14.9795 9.50077 13.3464 9.86282 11.6404C9.3543 12.0076 9.26346 12.0775 8.94406 12.2882C8.6623 12.474 8.39114 12.6758 8.08969 12.889C8.00107 12.7592 7.93593 12.6652 7.85716 12.5491C8.03364 12.427 8.18588 12.3223 8.33737 12.2184C10.3256 10.8454 12.3146 9.47393 14.3013 8.09866C14.4793 7.97577 14.6422 7.83089 14.8088 7.69207C15.2693 7.30824 15.9988 6.45363 15.6834 5.8225C16.2386 5.85208 17.913 6.76138 18.5852 7.29513C19.2574 7.82888 19.8678 8.72569 19.8678 8.72569C20.2814 8.96463 20.8016 9.25319 21.2204 9.49517C21.2197 9.52854 21.2189 9.56192 21.2182 9.59605C18.2846 9.93892 15.4746 10.6899 12.8334 12.1221C12.5805 11.4265 12.1851 10.8826 11.5625 10.5412L11.4731 10.6247C11.6458 10.7741 11.8321 10.9114 11.9889 11.0768C12.1472 11.2444 12.2964 11.428 12.4116 11.6275C12.5335 11.8383 12.61 12.0758 12.7176 12.3291C12.8138 12.295 12.9183 12.2715 13.0084 12.2237C15.3542 10.9683 17.8575 10.2158 20.4888 9.86989L20.5225 9.86544C20.8332 9.82439 21.1454 9.78315 21.4575 9.77583C21.606 9.77204 21.7559 9.85472 21.9051 9.89872L21.896 10.0216C21.584 10.0793 21.2704 10.1331 20.9591 10.1946C19.6094 10.4608 18.2506 10.6869 16.9137 11.0077C15.3261 11.3885 13.8264 12.0098 12.4456 12.8973C12.3957 12.9292 12.3396 12.9519 12.2639 12.9906Z" fill="#FD720F"/>
<path d="M9.48047 18.7185C9.48104 18.9323 9.53597 19.0553 9.54355 19.2234C9.55112 19.3916 9.47386 19.7319 9.37533 19.9808C9.29226 20.1907 9.18371 20.3232 9.09818 20.5583C9.03931 20.7201 9.01045 20.8402 8.91274 20.9819C8.78676 21.1646 8.53425 21.3272 8.53425 21.3272C8.53425 21.3272 8.28116 21.4407 8.07165 21.4324C7.85953 21.424 7.83141 21.3272 7.67568 21.2641C7.15897 21.0547 6.75042 21.2506 6.32453 20.8032C6.42456 20.4779 6.39198 20.1542 6.13963 19.8911L5.28634 19.7318C5.27876 19.5908 5.27194 19.471 5.26512 19.3444C5.5152 19.0502 5.76072 18.7605 6.05324 18.4163L6.41452 18.0379C6.26747 17.649 6.3084 17.5042 6.61389 17.2965C6.81022 17.1631 7.04087 16.9821 7.2516 16.8373C7.77772 17.1177 8.10576 17.2094 8.70994 17.3753C8.86384 17.4004 8.95184 17.4252 9.10198 17.3753C9.23883 17.2609 10.3451 12.1383 10.3426 11.9356C10.34 11.7328 10.6444 11.5294 10.9747 11.7252C11.5084 12.0415 11.66 12.2715 12.235 13.1646C13.5075 12.374 14.381 11.8975 15.4101 11.614L15.4521 11.692C15.4521 11.692 14.964 12.0723 14.8844 12.1338C14.7561 12.2329 14.609 12.3603 14.4849 12.4914C14.334 12.6508 14.1854 12.7269 14.0644 12.8911C13.7795 13.2775 13.6234 13.6293 12.8588 13.5856C12.6266 13.5856 12.4341 13.6965 12.214 13.8589C12.0343 13.9914 11.9822 14.3339 11.8267 14.2796C11.6073 14.2031 11.2467 14.3848 11.2257 14.5321C11.2047 14.6793 10.8556 14.7336 10.7631 14.8776C10.6706 15.0216 10.7432 15.4742 10.6929 15.8526C10.6274 16.3441 10.6144 16.6351 10.4272 17.0943C10.2795 17.6667 10.2474 17.6521 10.0272 18.0033C9.85369 18.2798 9.47995 18.5234 9.48047 18.7185Z" fill="#FD720F"/>
<path d="M19.9282 15.5858C19.7278 15.5168 19.5392 15.3975 19.3787 15.2383C19.1355 14.9971 19.1344 14.993 19.1358 14.3244C19.1364 14.0161 19.1486 13.6283 19.1629 13.4627C19.1728 13.3477 19.1929 13.0872 19.2167 12.7792C19.2167 12.7786 19.2168 12.778 19.2168 12.7774L19.2168 12.7773L19.2168 12.7772C19.2341 12.5526 19.2534 12.3028 19.2721 12.0658C19.3061 11.6345 19.3381 11.2457 19.3531 11.1281L19.3769 10.9413H19.598V14.4594H19.8657V10.9413H20.1746V14.4594H20.3108L20.4447 14.4621V10.9422H20.7592V14.4621H21.0317V10.9422H21.2568L21.281 11.1291C21.3046 11.3114 21.37 12.1453 21.4197 12.7792L21.4197 12.7793L21.4198 12.7797L21.4198 12.7798C21.4198 12.7799 21.4198 12.7801 21.4198 12.7802C21.4213 12.7994 21.4228 12.8183 21.4243 12.8371C21.4465 13.1205 21.4651 13.3567 21.4746 13.4648C21.4827 13.5574 21.4902 13.7194 21.4953 13.8982C21.4993 14.0393 21.5019 14.1909 21.5022 14.327C21.5036 14.9959 21.5025 15.0001 21.255 15.2414C21.0915 15.4008 20.8996 15.5201 20.6955 15.5892L20.5705 15.6315L20.5706 15.748C20.5707 15.812 20.6417 16.8265 20.6417 16.8265L20.8189 18.1954L20.821 18.1957C20.8399 18.1985 20.8588 18.2014 20.8777 18.2046L20.8793 18.2048C20.9409 18.2152 21.0027 18.2277 21.065 18.2429C21.061 18.3213 21.0577 18.388 21.0544 18.4538L21.0535 18.4721C21.0527 18.4891 21.0519 18.506 21.051 18.5231C21.0506 18.5329 21.0501 18.5427 21.0496 18.5526C21.0493 18.5585 21.049 18.5645 21.0487 18.5705C21.0479 18.5862 21.0471 18.6022 21.0463 18.6186C20.9875 18.6303 20.9291 18.641 20.8709 18.6505C20.8522 18.6535 20.8335 18.6564 20.8149 18.6592L20.8108 18.6598C20.803 18.661 20.7953 18.6621 20.7875 18.6632C20.4526 18.7111 20.1231 18.7172 19.7679 18.657C19.7595 18.6556 19.751 18.6541 19.7426 18.6526C19.7386 18.6519 19.7346 18.6512 19.7305 18.6505C19.6563 18.637 19.5808 18.6206 19.5039 18.601C19.5191 18.5456 19.5322 18.4975 19.5441 18.4538C19.5463 18.4455 19.5485 18.4374 19.5507 18.4293C19.5511 18.4277 19.5516 18.4261 19.552 18.4245C19.5547 18.4147 19.5573 18.4051 19.5598 18.3956C19.5624 18.3862 19.5649 18.3769 19.5673 18.3678L19.5744 18.3416L19.5744 18.3416L19.5748 18.34L19.5749 18.3397C19.575 18.3396 19.575 18.3394 19.575 18.3393C19.5752 18.3386 19.5754 18.3379 19.5756 18.3372C19.5874 18.2934 19.5988 18.2512 19.6111 18.2061L19.6301 18.2045L19.6304 18.2045C19.6314 18.2044 19.6324 18.2043 19.6334 18.2042C19.6466 18.2031 19.6599 18.202 19.6731 18.2009C19.684 18.2 19.6949 18.1991 19.7058 18.1981C19.743 18.195 19.78 18.192 19.817 18.1891L19.82 18.1888L19.9963 16.8265C19.9963 16.8265 20.0509 15.8086 20.051 15.7445L20.0511 15.6281L19.9282 15.5858Z" fill="#FD720F"/>
<path d="M20.8099 18.9041C20.8039 18.9898 20.7992 19.0618 20.7944 19.1336L20.7941 19.1384C20.7939 19.1407 20.7938 19.143 20.7936 19.1453C20.7914 19.1791 20.7892 19.213 20.7868 19.2485L20.7864 19.2542H19.7882C19.7877 19.246 19.7873 19.2379 19.7869 19.2298C19.7865 19.223 19.7861 19.2163 19.7858 19.2095C19.7844 19.1841 19.783 19.1588 19.7816 19.1336C19.7784 19.0763 19.7751 19.0191 19.7717 18.9591L19.7679 18.892H20.8108L20.8099 18.9041Z" fill="#FD720F"/>
<path d="M22.2283 19.8617C22.3087 19.9544 22.3217 20.1454 22.2949 20.2773C22.1447 21.0277 21.9888 21.7782 21.8037 22.5215C21.6517 23.1272 21.29 23.5497 20.793 23.8428C20.764 23.8599 20.7346 23.8766 20.7047 23.8928C20.5736 23.9639 20.434 24.0268 20.2871 24.0823C20.2561 24.0939 20.2221 24.0971 20.1843 24.1007L20.1842 24.1007L20.1842 24.1007C20.1675 24.1022 20.1502 24.1038 20.1321 24.1063C20.0782 24.1063 20.0329 24.1003 19.9802 24.0882C19.9342 24.0775 19.8827 24.0623 19.815 24.0422L19.785 24.0333C19.7692 24.0244 19.7533 24.0159 19.7372 24.0077C19.7337 24.006 19.7302 24.0042 19.7267 24.0024C19.7234 24.0008 19.7202 23.9992 19.717 23.9976C19.7035 23.991 19.6899 23.9844 19.6764 23.9779L19.6762 23.9778L19.6655 23.9726C19.562 23.9227 19.4614 23.8717 19.3927 23.7643C19.3631 23.718 19.3394 23.6612 19.3238 23.5896C19.3187 23.5658 19.3145 23.5404 19.3112 23.5133C19.3965 23.5219 19.48 23.5303 19.5623 23.5385C19.5802 23.5403 19.5981 23.5421 19.616 23.5439C19.6211 23.5444 19.6261 23.5449 19.6312 23.5454C19.6372 23.546 19.6431 23.5466 19.6491 23.5472C19.6623 23.5485 19.6755 23.5498 19.6887 23.5512C19.7342 23.5557 19.7793 23.5602 19.8243 23.5646C19.9333 23.5754 20.0412 23.586 20.1491 23.5964C20.0549 23.5129 19.955 23.4594 19.8519 23.4243C19.7947 23.4048 19.7366 23.3909 19.6779 23.3807C19.6578 23.3772 19.6375 23.3742 19.6173 23.3714C19.5833 23.3669 19.5493 23.3633 19.5151 23.3603C19.4602 23.3555 19.4051 23.3523 19.3502 23.3491L19.3501 23.3491L19.3501 23.3491L19.3283 23.3478C19.2318 23.3421 19.136 23.3359 19.0425 23.3205C18.9883 23.3116 18.9348 23.2997 18.8826 23.2831C18.6975 23.0389 18.7241 22.8364 18.8816 22.6478C18.9049 22.6199 18.9311 22.5923 18.9598 22.565C18.9695 22.5558 18.9795 22.5466 18.9897 22.5374C19.1736 22.5135 19.3606 22.5098 19.5479 22.5067L19.5676 22.5064C19.5859 22.5061 19.6042 22.5058 19.6225 22.5055C19.7607 22.5031 19.8988 22.4997 20.036 22.4875C20.1791 22.4747 20.3212 22.4522 20.4609 22.4112C20.3315 22.3648 20.1996 22.3438 20.0657 22.336C19.9225 22.3276 19.7772 22.3343 19.6307 22.341L19.6306 22.341C19.6245 22.3412 19.6183 22.3415 19.6122 22.3418C19.5865 22.343 19.5607 22.3441 19.535 22.3452C19.3446 22.353 19.1526 22.3554 18.9609 22.32C18.9388 22.3159 18.9167 22.3113 18.8946 22.3062C18.7683 22.2768 18.6423 22.2294 18.5172 22.1546C18.5465 22.0527 18.5742 21.9554 18.6011 21.8615L18.6011 21.8612L18.6012 21.861L18.6012 21.8608L18.6019 21.8586L18.6021 21.8578C18.6022 21.8574 18.6023 21.8569 18.6025 21.8565C18.619 21.7988 18.6351 21.7422 18.651 21.6867C18.6554 21.6713 18.6598 21.656 18.6642 21.6407C18.7935 21.6324 18.9173 21.6242 19.037 21.6163L19.0374 21.6163C19.1295 21.6103 19.2192 21.6044 19.3074 21.5986L19.3074 21.5986C19.3636 21.595 19.4191 21.5914 19.4742 21.5879C19.5043 21.586 19.5343 21.5841 19.5641 21.5822C19.6665 21.5759 19.7677 21.5698 19.869 21.564C19.9863 21.5576 20.1036 21.5516 20.221 21.5458C20.365 21.5387 20.5091 21.5319 20.6533 21.5252L20.749 21.5207C20.8138 21.5176 20.8787 21.5146 20.9435 21.5115L20.9642 21.5105C20.964 21.4985 20.9638 21.4867 20.9636 21.4749C20.9632 21.4511 20.9629 21.4274 20.9618 21.4034L20.959 21.4029C20.9382 21.3994 20.9174 21.395 20.8965 21.3905L20.8964 21.3905L20.8963 21.3905C20.8455 21.3797 20.7945 21.3689 20.7434 21.3706C20.5794 21.3766 20.4153 21.3841 20.2513 21.3919C20.222 21.3933 20.1926 21.3947 20.1633 21.3961L20.1552 21.3964L20.1535 21.3965L20.1535 21.3965L20.1534 21.3965L20.1534 21.3965L20.1532 21.3965L20.1529 21.3965C20.0554 21.4012 19.9579 21.4058 19.8604 21.4102L19.8601 21.4102C19.7581 21.4148 19.656 21.4191 19.554 21.4228C19.5231 21.4239 19.4922 21.425 19.4613 21.426C19.4086 21.4277 19.3558 21.4292 19.3031 21.4305C19.2336 21.4323 19.1633 21.4379 19.093 21.4436C18.9438 21.4555 18.7943 21.4675 18.6511 21.4422C18.6077 21.4345 18.5648 21.4234 18.5227 21.4078C18.4649 21.3864 18.4085 21.3565 18.354 21.3155C18.2839 20.9028 18.3666 20.6821 18.6487 20.603C18.6874 20.5921 18.7299 20.5839 18.7762 20.5783C18.8186 20.5731 18.8644 20.57 18.9134 20.569C19.0729 20.5655 19.2324 20.5632 19.392 20.5616C19.4278 20.5613 19.4636 20.561 19.4994 20.5607C19.7106 20.5589 19.9219 20.5583 20.1331 20.5577C20.1332 20.5577 20.1334 20.5577 20.1335 20.5577H20.1339C20.1348 20.5577 20.1356 20.5577 20.1365 20.5576C20.2295 20.5574 20.3224 20.5571 20.4154 20.5567C20.6122 20.5559 20.8089 20.5547 21.0056 20.5522C21.0726 20.5517 21.1391 20.533 21.2056 20.5144L21.2056 20.5144C21.2321 20.507 21.2585 20.4996 21.2849 20.4933C21.2854 20.4932 21.2858 20.4931 21.2863 20.493C21.2864 20.493 21.2865 20.4929 21.2866 20.4929C21.2874 20.4927 21.2881 20.4925 21.2889 20.4924C21.2891 20.4923 21.2893 20.4923 21.2896 20.4922C21.2896 20.4922 21.2897 20.4922 21.2898 20.4922C21.2899 20.4921 21.2901 20.4921 21.2902 20.4921C21.2903 20.492 21.2903 20.492 21.2904 20.492C21.291 20.4919 21.2916 20.4917 21.2922 20.4916L21.2923 20.4916L21.2924 20.4916C21.2933 20.4913 21.2943 20.4911 21.2952 20.4909C21.2956 20.4908 21.2959 20.4908 21.2963 20.4907L21.2963 20.4906C21.2958 20.4863 21.2953 20.482 21.2948 20.4777C21.2912 20.4477 21.2878 20.4176 21.2849 20.3876H19.4885H18.7762C18.7602 20.3717 18.7452 20.3561 18.7312 20.3406C18.4738 20.0553 18.5565 19.8278 18.8014 19.5572C18.9681 19.531 19.1364 19.5077 19.306 19.4892C19.3475 19.4847 19.3891 19.4804 19.4308 19.4765C19.4722 19.4726 19.5137 19.469 19.5552 19.4658C19.6327 19.4597 19.7103 19.4548 19.7882 19.4512C20.0661 19.4386 20.3465 19.4431 20.6284 19.4729C20.681 19.4784 20.7337 19.4849 20.7864 19.4922C20.7904 19.4928 20.7945 19.4934 20.7985 19.4939C20.8026 19.4945 20.8067 19.4951 20.8108 19.4957C20.8546 19.5021 20.8985 19.5091 20.9423 19.5168C21.0542 19.5363 21.1661 19.5603 21.2782 19.5892C21.3471 19.607 21.4161 19.6266 21.4851 19.6482C21.4864 19.6486 21.4877 19.6491 21.489 19.6495C21.491 19.6501 21.4929 19.6507 21.4948 19.6513C21.495 19.6514 21.4952 19.6514 21.4953 19.6515L21.4955 19.6515C21.4959 19.6516 21.4963 19.6518 21.4967 19.6519C21.4969 19.6519 21.497 19.652 21.4972 19.6521C21.4978 19.6522 21.4984 19.6524 21.499 19.6526C21.5009 19.6532 21.5027 19.6538 21.5045 19.6544C21.5074 19.6553 21.5102 19.6562 21.5131 19.6571C21.5204 19.6227 21.5277 19.5884 21.535 19.5548C21.3749 19.4709 21.2155 19.3871 21.0286 19.2886L21.0121 19.2799L21.0129 19.2691C21.0182 19.1973 21.0237 19.126 21.0293 19.054L21.033 19.0058L21.0331 19.0053L21.0331 19.005L21.0363 18.9643C21.0368 18.9571 21.0374 18.9499 21.0379 18.9427C21.0381 18.941 21.0382 18.9393 21.0383 18.9376C21.0384 18.9364 21.0385 18.9352 21.0386 18.934C21.0393 18.9253 21.0399 18.9165 21.0406 18.9078C21.0411 18.9021 21.0415 18.8964 21.0419 18.8908C21.0426 18.8823 21.0432 18.8738 21.0439 18.8653L21.0455 18.8443C21.0463 18.834 21.0471 18.8236 21.0479 18.8131C21.0522 18.8136 21.0565 18.8139 21.0608 18.8143C21.0676 18.8148 21.0742 18.8152 21.0807 18.8156C21.0826 18.8157 21.0845 18.8158 21.0864 18.8159C21.1073 18.8169 21.1264 18.817 21.1435 18.8172H21.1436C21.1815 18.8176 21.2102 18.8178 21.2286 18.8266C21.229 18.8268 21.2294 18.827 21.2298 18.8272C21.23 18.8273 21.2302 18.8274 21.2304 18.8275C21.2306 18.8276 21.2307 18.8276 21.2308 18.8277C21.231 18.8278 21.2313 18.828 21.2315 18.8281C21.2348 18.83 21.2377 18.8321 21.2403 18.8347C21.2559 18.8504 21.2716 18.8661 21.2873 18.8818C21.3299 18.9244 21.3726 18.967 21.4153 19.0096L21.4159 19.0101C21.6941 19.2875 21.9729 19.5653 22.2283 19.8617Z" fill="#FD720F"/>
<path fill-rule="evenodd" clip-rule="evenodd" d="M21.2972 18.4855L21.2971 18.4875C21.2969 18.4912 21.2967 18.4949 21.2965 18.4986C21.2967 18.4942 21.297 18.4899 21.2972 18.4855ZM21.4198 12.7798C21.4198 12.7799 21.4198 12.7801 21.4198 12.7802L21.4198 12.7798Z" fill="#FD720F"/>
<path d="M5.09029 19.6812H4.14311L4.1431 19.681H4.14224L4.14123 19.6658C4.13917 19.635 4.13722 19.6052 4.13527 19.5756L4.13488 19.5696C4.13048 19.5026 4.12607 19.4356 4.12061 19.3564L4.11912 19.3349H5.10868L5.10867 19.3351H5.10955L5.10594 19.399C5.10044 19.4964 5.09536 19.5862 5.09029 19.6812Z" fill="#FD720F"/>
<path d="M5.58866 15.702C5.6232 15.4735 5.60137 15.1106 5.60137 15.1106C5.60137 15.1106 5.59299 14.6115 5.56249 14.3479C5.47188 13.5646 5.39489 12.9841 5.15147 12.1426C5.02019 11.6887 4.98321 11.5892 4.75487 10.9996C4.69728 10.851 4.65988 10.7776 4.62958 10.7727C4.59587 10.7657 4.57102 10.8428 4.53727 10.9943C4.53351 11.0112 4.52965 11.0289 4.52565 11.0476C4.52475 11.0518 4.52356 11.0581 4.5221 11.0665C4.48696 11.2693 4.2973 12.6771 4.2973 14.5486C4.2973 16.6828 4.26609 17.2616 4.2361 17.8177C4.22799 17.968 4.21997 18.1166 4.21269 18.2939L4.19323 18.6586L4.18914 18.6591C4.11004 18.6683 4.03055 18.681 3.95042 18.698C3.92631 18.7032 3.90213 18.7087 3.87789 18.7146C3.88205 18.7961 3.88537 18.8643 3.88869 18.9326L3.8887 18.9327L3.88871 18.933L3.88873 18.9333C3.89009 18.9612 3.89145 18.9892 3.89286 19.018L3.89467 19.0546L3.89562 19.0737C3.92486 19.0795 3.95399 19.0851 3.98304 19.0904C3.98637 19.091 3.9897 19.0916 3.99302 19.0922C4.44081 19.1729 4.86955 19.1825 5.36003 19.057C5.33236 18.9554 5.31207 18.8798 5.29314 18.8092L5.2931 18.809C5.28146 18.7656 5.27032 18.7241 5.25829 18.6796L5.25745 18.6796L5.25743 18.6795L5.23931 18.6779L5.23836 18.6779C5.15885 18.6711 5.08001 18.6644 5.00161 18.6585L4.99672 18.6582L4.9709 18.3114C4.96495 18.1877 4.95927 18.0736 4.95403 17.9682C4.91407 17.1649 4.89948 16.8716 4.97979 16.6792C5.00374 16.6218 5.06662 16.5687 5.1379 16.5086C5.20245 16.4541 5.2739 16.3938 5.32957 16.3192C5.33678 16.3095 5.34376 16.3002 5.35054 16.2912C5.42631 16.1901 5.47623 16.1235 5.52389 15.9977C5.55945 15.9039 5.56858 15.8405 5.58132 15.7521L5.58135 15.7519C5.58361 15.7362 5.58599 15.7197 5.58866 15.702Z" fill="#FD720F"/>
<path d="M3.43279 19.9685C3.58917 19.886 3.74479 19.8035 3.92891 19.7058C3.92251 19.6183 3.91583 19.5316 3.90905 19.4434L3.90903 19.4432L3.90901 19.443L3.90899 19.4427L3.90727 19.4204C3.90321 19.3676 3.89911 19.3142 3.89501 19.2597L3.89416 19.2598C3.85992 19.2631 3.82982 19.2634 3.8042 19.2636C3.75927 19.2641 3.72809 19.2644 3.71243 19.2804C3.65715 19.3362 3.60163 19.392 3.54609 19.4477L3.54584 19.448L3.5458 19.448C3.35796 19.6366 3.16986 19.8254 2.98965 20.0207L2.98418 20.0266C2.913 20.1038 2.84307 20.1821 2.77489 20.2618C2.7515 20.2889 2.73412 20.3249 2.722 20.3654L2.72192 20.3627C2.69375 20.4547 2.69305 20.5706 2.71085 20.6587C2.81563 21.186 2.92332 21.7132 3.04281 22.2378C3.07097 22.3614 3.09979 22.4849 3.12938 22.6082C3.14501 22.6733 3.16085 22.7383 3.17692 22.8033C3.20671 22.9229 3.24499 23.035 3.29113 23.1401C3.45596 23.5154 3.72116 23.8012 4.05836 24.0181C4.08109 24.0327 4.10414 24.047 4.12752 24.061C4.16268 24.0821 4.19856 24.1025 4.23514 24.1222C4.34398 24.1808 4.45894 24.2334 4.57923 24.2807C4.59143 24.2855 4.60368 24.2903 4.61599 24.2949C4.62828 24.2996 4.6411 24.3028 4.65447 24.3053C4.66155 24.3066 4.66879 24.3077 4.67618 24.3086C4.6854 24.3098 4.69486 24.3108 4.70459 24.3117C4.70782 24.312 4.71108 24.3123 4.71437 24.3126L4.71443 24.3126C4.73026 24.3141 4.74677 24.3157 4.764 24.318C4.83549 24.318 4.89118 24.3068 4.97207 24.284C5.05466 24.1167 5.14308 23.9488 5.2358 23.7821L5.19311 23.7864C5.13632 23.7921 5.08004 23.7977 5.02407 23.8033C4.93156 23.8125 4.83989 23.8215 4.74813 23.8305C4.92819 23.6699 5.13024 23.6255 5.33537 23.6064C5.49168 23.3355 5.65807 23.0695 5.82792 22.8162C5.72802 22.8039 5.6272 22.7977 5.52595 22.7941C5.45513 22.7916 5.38408 22.7903 5.31299 22.7892L5.29875 22.789L5.2982 22.7889C5.09744 22.7857 4.89629 22.7824 4.69845 22.7522C4.67854 22.7491 4.65868 22.7458 4.63884 22.7422L4.63623 22.7417C4.57442 22.7304 4.51297 22.7161 4.452 22.6981C4.51926 22.6738 4.58727 22.6568 4.65593 22.6452C4.66828 22.6431 4.68066 22.6412 4.69305 22.6394C4.87185 22.614 5.05482 22.6225 5.23979 22.631C5.32391 22.6349 5.40844 22.6388 5.4932 22.6395C5.65704 22.6409 5.82172 22.6306 5.98581 22.5857C6.06908 22.4667 6.15269 22.3513 6.23586 22.2403L6.21658 22.1723L6.21632 22.1714C6.19601 22.0998 6.17627 22.0301 6.15684 21.9618L6.156 21.9618L6.15597 21.9617C6.03322 21.9537 5.91579 21.9459 5.80212 21.9384L5.80181 21.9384L5.80173 21.9383L5.79623 21.938C5.71083 21.9323 5.62754 21.9268 5.54569 21.9214C5.36332 21.9095 5.1881 21.8984 5.01273 21.8884C4.98946 21.8871 4.96619 21.8858 4.94292 21.8846C4.91055 21.8828 4.87818 21.8811 4.84581 21.8794C4.65356 21.8694 4.46112 21.8603 4.26861 21.8512L4.26814 21.8512L4.26788 21.8512L4.1783 21.847L4.17775 21.847C4.11849 21.8441 4.05922 21.8413 3.99994 21.8385L3.99303 21.8381L3.97436 21.8372C3.97462 21.8259 3.97479 21.8146 3.97496 21.8033C3.9753 21.7806 3.97564 21.758 3.97667 21.735C3.99728 21.7316 4.01796 21.7272 4.03869 21.7227L4.03879 21.7227C4.08699 21.7124 4.13544 21.7021 4.1839 21.7037C4.37046 21.7106 4.55701 21.7195 4.74362 21.7285C5.01244 21.7413 5.28136 21.7542 5.55055 21.761C5.61651 21.7626 5.68319 21.768 5.74992 21.7734L5.74995 21.7734C5.99341 21.7931 6.23769 21.8128 6.45112 21.651C6.52287 21.2255 6.42589 21.0136 6.10442 20.9547C6.08684 20.9515 6.06859 20.9487 6.04966 20.9464C6.00937 20.9414 5.96601 20.9385 5.91946 20.9375C5.53344 20.929 5.14742 20.9279 4.76139 20.9267C4.63215 20.9263 4.5029 20.9259 4.37365 20.9252L4.37003 20.9252C4.22475 20.9244 4.07948 20.9233 3.9342 20.9215C3.90926 20.9213 3.88437 20.9184 3.85952 20.9139C3.82139 20.9069 3.78337 20.8962 3.74538 20.8855C3.71666 20.8774 3.68797 20.8693 3.65928 20.8628C3.66313 20.83 3.66698 20.7971 3.67006 20.7643H6.05053C6.34558 20.4703 6.27162 20.2434 6.02664 19.9708C6.02645 19.9707 6.02624 19.9707 6.02603 19.9707L6.02577 19.9706C5.79314 19.9338 5.55736 19.903 5.31928 19.8839C5.24289 19.8778 5.16626 19.8729 5.08942 19.8694C4.77652 19.855 4.46016 19.8638 4.14224 19.9085C4.11332 19.9126 4.08438 19.917 4.05543 19.9216C4.04513 19.9233 4.03483 19.925 4.02453 19.9267C3.91123 19.9459 3.79777 19.9698 3.68423 19.999C3.6335 20.012 3.58275 20.0262 3.532 20.0414C3.51432 20.0467 3.49664 20.0521 3.47896 20.0577C3.47047 20.0604 3.46199 20.0631 3.4535 20.0658C3.4466 20.0331 3.43969 20.0004 3.43279 19.9685Z" fill="#FD720F"/>
<path d="M5.94961 23.5314C6.15992 23.2518 6.08211 23.0296 5.84792 22.8188L5.84711 22.8187L5.84705 22.8186C5.84068 22.8178 5.8343 22.817 5.82792 22.8162C5.65807 23.0695 5.49168 23.3355 5.33537 23.6064C5.39215 23.6011 5.44916 23.5978 5.50601 23.5944C5.65759 23.5855 5.80799 23.5767 5.94961 23.5314Z" fill="#FD720F"/>
<path fill-rule="evenodd" clip-rule="evenodd" d="M19.4308 19.4765L19.4885 20.3876L21.2889 20.4924L21.2866 20.4929L21.2863 20.493L21.2849 20.4933C21.2585 20.4996 21.2321 20.507 21.2056 20.5144L21.2056 20.5144C21.1391 20.533 21.0726 20.5517 21.0056 20.5522C20.8089 20.5547 20.6122 20.5559 20.4154 20.5567C20.3224 20.5571 20.2295 20.5574 20.1365 20.5576L20.1339 20.5577H20.1335H20.1331C19.9219 20.5583 19.7106 20.5589 19.4994 20.5607L19.554 21.4228C19.656 21.4191 19.7581 21.4148 19.8601 21.4102L19.8604 21.4102C19.9579 21.4058 20.0554 21.4012 20.1529 21.3965L20.1532 21.3965L20.1534 21.3965L20.1534 21.3965L20.1535 21.3965L20.1535 21.3965L20.1552 21.3964L20.1633 21.3961C20.1926 21.3947 20.222 21.3933 20.2513 21.3919C20.4153 21.3841 20.5794 21.3766 20.7434 21.3706C20.7945 21.3689 20.8455 21.3797 20.8963 21.3905L20.8964 21.3905L20.8965 21.3905C20.9174 21.395 20.9382 21.3994 20.959 21.4029L20.9618 21.4034C20.9629 21.4274 20.9632 21.4511 20.9636 21.4749C20.9638 21.4867 20.964 21.4985 20.9642 21.5105L20.9435 21.5115C20.8787 21.5146 20.8138 21.5176 20.749 21.5207L20.6533 21.5252C20.5091 21.5319 20.365 21.5387 20.221 21.5458C20.1036 21.5516 19.9863 21.5576 19.869 21.564C19.7677 21.5698 19.6665 21.5759 19.5641 21.5822L19.6122 22.3418L19.6306 22.341L19.6307 22.341C19.7772 22.3343 19.9225 22.3276 20.0657 22.336C20.1996 22.3438 20.3315 22.3648 20.4609 22.4112C20.3212 22.4522 20.1791 22.4747 20.036 22.4875C19.8988 22.4997 19.7607 22.5031 19.6225 22.5055L19.6779 23.3807C19.7366 23.3909 19.7947 23.4048 19.8519 23.4243C19.955 23.4594 20.0549 23.5129 20.1491 23.5964C20.0412 23.586 19.9333 23.5754 19.8243 23.5646C19.7793 23.5602 19.7342 23.5557 19.6887 23.5512L19.6925 23.6114C19.6781 23.5898 19.6637 23.5684 19.6491 23.5472L19.6312 23.5454L19.616 23.5439L19.5623 23.5385C19.48 23.5303 19.3965 23.5219 19.3112 23.5133C19.3145 23.5404 19.3187 23.5658 19.3238 23.5896C19.3394 23.6612 19.3631 23.718 19.3927 23.7643C19.4614 23.8717 19.562 23.9227 19.6655 23.9726L19.6762 23.9778L19.6764 23.9779C19.6899 23.9844 19.7035 23.991 19.717 23.9976C19.7202 23.9992 19.7234 24.0008 19.7267 24.0024C19.7302 24.0042 19.7337 24.006 19.7372 24.0077C19.7533 24.0159 19.7692 24.0244 19.785 24.0333L19.815 24.0422C19.8827 24.0623 19.9342 24.0775 19.9802 24.0882C20.0329 24.1003 20.0782 24.1063 20.1321 24.1063C20.1502 24.1038 20.1675 24.1022 20.1842 24.1007L20.1842 24.1007L20.1843 24.1007C20.2221 24.0971 20.2561 24.0939 20.2871 24.0823C20.434 24.0268 20.5736 23.9639 20.7047 23.8928C20.7346 23.8766 20.764 23.8599 20.793 23.8428C21.29 23.5497 21.6517 23.1272 21.8037 22.5215C21.9888 21.7782 22.1447 21.0277 22.2949 20.2773C22.3217 20.1454 22.3087 19.9544 22.2283 19.8617C21.9729 19.5653 21.6941 19.2875 21.4159 19.0101L21.4153 19.0096C21.3726 18.967 21.3299 18.9244 21.2873 18.8818C21.2716 18.8661 21.2559 18.8504 21.2403 18.8347C21.2377 18.8321 21.2348 18.83 21.2315 18.8281L21.2308 18.8277L21.2304 18.8275L21.2298 18.8272C21.2294 18.827 21.229 18.8268 21.2286 18.8266C21.2102 18.8178 21.1815 18.8176 21.1436 18.8172H21.1435C21.1264 18.817 21.1073 18.8169 21.0864 18.8159C21.0845 18.8158 21.0826 18.8157 21.0807 18.8156C21.0742 18.8152 21.0676 18.8148 21.0608 18.8143C21.0565 18.8139 21.0522 18.8136 21.0479 18.8131L21.0455 18.8443L21.0439 18.8653L21.0419 18.8908L21.0406 18.9078L21.0386 18.934L21.0383 18.9376L21.0379 18.9427L21.0363 18.9643L21.0331 19.005L21.0331 19.0053L21.033 19.0058L21.0293 19.054C21.0237 19.126 21.0182 19.1973 21.0129 19.2691L21.0121 19.2799L21.0286 19.2886C21.2155 19.3871 21.3749 19.4709 21.535 19.5548C21.5277 19.5884 21.5204 19.6227 21.5131 19.6571C21.5102 19.6562 21.5074 19.6553 21.5045 19.6544L21.4972 19.6521L21.4967 19.6519L21.4955 19.6515L21.4953 19.6515L21.4948 19.6513L21.489 19.6495L21.4851 19.6482C21.4161 19.6266 21.3471 19.607 21.2782 19.5892C21.1661 19.5603 21.0542 19.5363 20.9423 19.5168C20.8985 19.5091 20.8546 19.5021 20.8108 19.4957C20.8067 19.4951 20.8026 19.4945 20.7985 19.4939C20.7945 19.4934 20.7904 19.4928 20.7864 19.4922C20.7337 19.4849 20.681 19.4784 20.6284 19.4729C20.3465 19.4431 20.0661 19.4386 19.7882 19.4512C19.7103 19.4548 19.6327 19.4597 19.5552 19.4658C19.5137 19.469 19.4722 19.4726 19.4308 19.4765ZM19.4885 20.3876L21.2902 20.4921L21.2904 20.492L21.2922 20.4916L21.2923 20.4916L21.2924 20.4916L21.2952 20.4909L21.2963 20.4907L21.2963 20.4906L21.2948 20.4777C21.2912 20.4477 21.2878 20.4176 21.2849 20.3876H19.4885ZM18.8816 22.6478C19.1094 22.8645 19.3202 23.0997 19.5151 23.3603C19.4602 23.3555 19.4051 23.3523 19.3502 23.3491L19.3501 23.3491L19.3501 23.3491L19.3283 23.3478C19.2318 23.3421 19.136 23.3359 19.0425 23.3205C18.9883 23.3116 18.9348 23.2997 18.8826 23.2831C18.6975 23.0389 18.7241 22.8364 18.8816 22.6478ZM19.3787 15.2383C19.5392 15.3975 19.7278 15.5168 19.9282 15.5858L20.0511 15.6281L20.051 15.7445C20.0509 15.8086 19.9963 16.8265 19.9963 16.8265L19.82 18.1888L19.817 18.1891C19.78 18.192 19.743 18.195 19.7058 18.1981C19.6949 18.1991 19.684 18.2 19.6731 18.2009L19.6334 18.2042L19.6304 18.2045L21.051 18.5231L21.0535 18.4721L21.0544 18.4538C21.0577 18.388 21.061 18.3213 21.065 18.2429C21.0027 18.2277 20.9409 18.2152 20.8793 18.2048L20.8777 18.2046C20.8588 18.2014 20.8399 18.1985 20.821 18.1957L20.8189 18.1954L20.6417 16.8265C20.6417 16.8265 20.5707 15.812 20.5706 15.748L20.5705 15.6315L20.6955 15.5892C20.8996 15.5201 21.0915 15.4008 21.255 15.2414C21.5025 15.0001 21.5036 14.9959 21.5022 14.327C21.5019 14.1909 21.4993 14.0393 21.4953 13.8982C21.4902 13.7194 21.4827 13.5574 21.4746 13.4648C21.4651 13.3567 21.4465 13.1205 21.4243 12.8371L21.4198 12.7802L21.4198 12.7798L21.4198 12.7797L21.4197 12.7793L21.4197 12.7792C21.37 12.1453 21.3046 11.3114 21.281 11.1291L21.2568 10.9422H21.0317V14.4621H20.7592V10.9422H20.4447V14.4621L20.3108 14.4594H20.1746V10.9413H19.8657V14.4594H19.598V10.9413H19.3769L19.3531 11.1281C19.3381 11.2457 19.3061 11.6345 19.2721 12.0658C19.2534 12.3028 19.2341 12.5526 19.2168 12.7772L19.2168 12.7773L19.2168 12.7774L19.2167 12.7792C19.1929 13.0872 19.1728 13.3477 19.1629 13.4627C19.1486 13.6283 19.1364 14.0161 19.1358 14.3244C19.1344 14.993 19.1355 14.9971 19.3787 15.2383ZM20.7944 19.1336C20.7992 19.0618 20.8039 18.9898 20.8099 18.9041L20.8108 18.892H19.7679L19.7717 18.9591C19.7751 19.0191 19.7784 19.0763 19.7816 19.1336C19.783 19.1588 19.7844 19.1841 19.7858 19.2095L19.7869 19.2298L19.7882 19.2542H20.7864L20.7868 19.2485C20.7892 19.213 20.7914 19.1791 20.7936 19.1453L20.7941 19.1384L20.7944 19.1336ZM6.23586 22.2403C6.15269 22.3513 6.06908 22.4667 5.98581 22.5857C6.08966 22.5572 6.19326 22.5149 6.29628 22.4529C6.27541 22.3797 6.25534 22.309 6.23586 22.2403ZM5.2358 23.7821C5.14308 23.9488 5.05466 24.1167 4.97207 24.284C4.99954 24.2763 5.02993 24.2672 5.06483 24.2567L5.06648 24.2563L5.07886 24.2526L5.09327 24.2483C5.12713 24.2289 5.16194 24.212 5.19652 24.1953L5.19692 24.1951L5.19723 24.1949C5.20551 24.1909 5.21377 24.1869 5.22201 24.1828C5.26956 24.1595 5.31612 24.1353 5.35853 24.1042C5.44889 24.0378 5.52046 23.9398 5.54285 23.7513L5.54195 23.7514L5.54198 23.7512C5.45783 23.7597 5.37552 23.768 5.29446 23.7762L5.26123 23.7796L5.2358 23.7821Z" fill="#FD720F"/>
<path d="M15.9939 24.5326C15.7927 24.6556 14.7439 24.1326 14.7439 24.1326C14.7439 24.1326 12.4245 23.0553 11.2537 22.5115L11.0705 22.4264C10.66 22.2357 10.3493 22.0847 10.0378 21.9332L10.0377 21.9331L10.0377 21.9331L10.0376 21.9331L10.0376 21.9331C9.7235 21.7804 9.40847 21.6272 8.98932 21.4325C8.19165 21.7321 7.93467 21.5916 7.68618 21.4558C7.51488 21.3621 7.34762 21.2706 7.01005 21.3271C6.90847 21.4289 6.80112 21.5452 6.69011 21.6736C6.68918 21.6794 6.68823 21.6851 6.68726 21.6909L6.67139 21.785L6.59539 21.8426C6.56165 21.8682 6.52747 21.8904 6.49306 21.9096C6.46809 21.9405 6.443 21.9719 6.41782 22.0038L6.41881 22.0072L6.43364 22.0595L6.43384 22.0602L6.43434 22.062L6.44711 22.107L6.44728 22.1076C6.47258 22.1969 6.49871 22.2891 6.52655 22.3867L6.57708 22.564L6.41924 22.659C6.39092 22.676 6.36258 22.6918 6.33426 22.7064L6.33398 22.7065C6.33176 22.7077 6.32954 22.7088 6.32731 22.71L6.32547 22.7109C6.28156 22.7332 6.23769 22.7526 6.19394 22.7696C6.17852 22.7756 6.16311 22.7812 6.14773 22.7866C6.16398 22.8071 6.17945 22.8282 6.19394 22.85C6.24419 22.9257 6.28263 23.01 6.30063 23.1037C6.32925 23.2528 6.3011 23.3968 6.23111 23.5331C6.21056 23.5731 6.18639 23.6124 6.15899 23.651L6.15799 23.6524L6.15788 23.6526C6.1523 23.6604 6.14658 23.6682 6.14074 23.676L6.09474 23.7371L6.02191 23.7604C5.9497 23.7835 5.87763 23.7985 5.80809 23.8088C5.80416 23.8093 5.80024 23.8099 5.79633 23.8105C5.79337 23.8109 5.79042 23.8113 5.78747 23.8117L5.78648 23.8118L5.78372 23.8122L5.78061 23.8126L5.77615 23.8132C5.77456 23.8238 5.77283 23.8342 5.77096 23.8444C5.76869 23.8569 5.76623 23.8691 5.76356 23.8811C5.74854 23.9486 5.72723 24.0086 5.7003 24.0623C5.65529 24.1519 5.59458 24.2235 5.5213 24.2816C5.50443 24.295 5.48736 24.3073 5.47042 24.3186C5.42681 24.3477 5.384 24.3703 5.34736 24.3886L5.34347 24.3906C5.3246 24.4 5.30824 24.4079 5.29342 24.4151L5.29324 24.4152L5.29316 24.4152C5.26231 24.4302 5.23806 24.442 5.21143 24.4571L5.18743 24.4708L5.16096 24.4787C5.14887 24.4823 5.13704 24.4859 5.12544 24.4894L5.12448 24.4897L5.12443 24.4897L5.12271 24.4902L5.12184 24.4904C5.10411 24.4958 5.0869 24.5009 5.07005 24.5059C4.99193 24.5288 4.92162 24.547 4.84343 24.5546C4.64763 24.9406 8.07345 23.2747 11.6352 25.4284C15.197 27.582 20.4767 25.9338 20.1145 24.3477C19.9848 24.3451 19.883 24.3148 19.7535 24.2761L19.7343 24.2704L19.7273 24.2684L19.7152 24.2647L19.6882 24.2568L19.6638 24.243C19.6355 24.2269 19.6096 24.2144 19.5769 24.1987L19.5768 24.1986C19.5708 24.1957 19.5645 24.1927 19.5579 24.1895C19.5475 24.1845 19.5364 24.179 19.5242 24.173C19.4701 24.1462 19.4028 24.1107 19.3384 24.0601C19.2006 23.9516 19.1055 23.7973 19.0725 23.5689C18.9872 23.5582 18.8977 23.5416 18.808 23.5131L18.734 23.4896L18.6874 23.4281C18.5484 23.2446 18.4807 23.0456 18.5208 22.8379C18.5458 22.7085 18.6091 22.5963 18.6894 22.499C18.5905 22.4656 18.4907 22.4209 18.3911 22.3614L18.2315 22.2661L18.2691 22.1352C17.4415 21.5216 16.4282 21.0371 15.1923 20.4462L15.138 20.4203C15.4427 20.566 15.5453 20.723 15.6868 20.9395L15.6868 20.9395L15.6869 20.9397C15.7186 20.9883 15.7524 21.0399 15.7908 21.0951C16.0645 21.7489 16.1909 22.1074 16.1909 23.0775L16.1902 23.098L16.1902 23.0982L16.1902 23.0984C16.1856 23.2332 16.1937 23.3441 16.2676 23.4782C16.3198 23.5727 16.3669 23.6909 16.3729 23.8367C16.3856 24.146 16.195 24.4096 15.9939 24.5326Z" fill="#FD720F"/>
<path fill-rule="evenodd" clip-rule="evenodd" d="M21.9837 24.1738C23.9515 22.0566 25.1928 19.319 24.9754 15.9991C24.9754 12.3648 23.7534 9.06761 20.8038 6.68671C18.5397 4.85919 15.333 4.02065 12.1788 4.10826C10.3611 4.10826 8.42558 4.58524 6.8341 5.21808C4.65017 6.08648 2.98562 7.30214 1.75231 9.10243C0.420841 11.046 -4.5822e-05 13.2026 3.74162e-09 15.7613C5.85881e-05 19.0323 0.959719 21.8871 3.06659 23.9097C5.37801 26.295 9.03674 28.2191 12.7977 28.2191C16.5175 28.2191 19.7553 26.5714 21.9837 24.1738ZM4.53899 7.86645C2.41311 9.83081 1.67363 12.7444 1.67363 15.4091C1.67363 17.1782 1.93733 18.7209 3.06659 20.3758C4.76052 22.8583 8.96613 24.8058 12.1659 24.8058C14.7588 24.8058 17.6991 24.0545 19.7507 22.3197C22.0631 20.3643 23.3324 17.2618 23.3324 14.5242C23.3324 11.7724 22.204 9.44314 19.9614 7.6979C17.5174 5.71743 15.0807 5.04323 12.503 5.04323C11.0539 5.04323 9.20947 5.3698 7.69931 5.92812C6.42632 6.39875 5.45182 7.02297 4.53899 7.86645Z" fill="#FD720F"/>
<path d="M2.79915 1.98989C2.62853 1.65457 1.90094 1.14242 1.90094 1.14242C1.90094 1.14242 3.17621 0.148737 4.99424 0.809187C6.20183 1.24788 6.74987 3.65997 6.74987 3.65997C6.74987 3.65997 6.11821 3.00893 5.70682 3.10304C5.29543 3.19715 5.25247 3.1546 4.96237 3.13294C4.60762 3.10645 4.40426 3.06685 4.07272 2.93868C3.49371 2.71485 2.79915 1.98989 2.79915 1.98989Z" fill="#FD720F"/>
<path d="M3.35902 1.94168C1.84859 1.89076 1.14724 3.63631 1.14724 3.63631C1.14724 3.63631 1.5924 3.693 1.91818 3.8329C2.69728 4.16746 2.84695 4.19187 3.67447 4.03717C4.27913 3.92413 5.68412 3.47625 6.18916 3.46191C6.42183 3.4553 6.74971 3.66013 6.74971 3.66013C6.74971 3.66013 5.31787 2.00773 3.35902 1.94168Z" fill="#FD720F"/>
<path d="M5.03163 10.546C4.86121 10.2708 4.84682 10.0291 4.91574 9.78575C5.43229 7.9735 6.27301 6.35681 7.83402 5.22216C9.90249 3.7184 12.1709 3.36368 14.6052 4.1671C14.937 4.27624 15.271 4.40888 15.5429 4.70221C15.483 4.778 15.4308 4.84395 15.3581 4.93414C13.8758 4.03749 12.2921 3.92607 10.6538 4.30277C10.104 4.42935 9.52606 4.52106 9.10343 5.00084C9.12312 5.14788 9.14206 5.29568 9.15872 5.4215C8.69368 5.77016 8.23923 6.11199 7.78252 6.45458C7.397 6.20673 7.244 6.21735 6.91453 6.55312C6.34117 7.13673 5.94733 7.83556 5.67466 8.60033C5.45274 9.22336 5.25809 9.857 5.03163 10.546Z" fill="#FD720F"/>
<path d="M16.8061 12.57C16.806 12.5725 16.8058 12.5749 16.8056 12.5773C16.8056 12.5774 16.8056 12.5776 16.8056 12.5777C16.7929 12.7493 16.7825 12.8919 16.769 13.0867C16.7086 13.0741 16.6505 13.062 16.5927 13.0499C16.4161 13.0131 16.2421 12.9768 16.0112 12.9289C16.0043 12.9275 15.9975 12.926 15.9906 12.9246C15.9923 12.9234 15.994 12.9222 15.9958 12.921C16.0008 12.9175 16.0059 12.9141 16.0109 12.9107C16.305 12.7106 16.5248 12.6211 16.8061 12.57Z" fill="#FD720F"/>
<path fill-rule="evenodd" clip-rule="evenodd" d="M15.9115 24.3221C15.7368 24.4273 14.5709 23.8769 14.5709 23.8769C14.5709 23.8769 12.531 22.9286 11.5012 22.4498L11.4854 22.4425C10.7125 22.0831 9.93508 21.7217 9.15161 21.3575C9.06229 21.3158 9.02444 21.209 9.06834 21.121L9.09333 21.0695C9.13572 20.9846 9.23791 20.949 9.32345 20.9884C10.1703 21.3797 11.0113 21.7681 11.8533 22.157L11.8847 22.1715L11.8888 22.1733C12.7458 22.5691 13.6041 22.9655 14.4709 23.366C14.4676 23.1838 14.3507 23.1333 14.251 23.0903C14.2362 23.0839 14.2218 23.0777 14.2083 23.0712C13.6199 22.7873 13.0281 22.5121 12.4362 22.2368L12.4358 22.2366L12.3203 22.1829C11.703 21.8954 11.0857 21.6088 10.4691 21.3225L10.4535 21.3152C10.0773 21.1405 9.70128 20.9659 9.32572 20.7914C9.24018 20.7519 9.20082 20.6511 9.23791 20.5647C9.26958 20.4916 9.30209 20.4192 9.33437 20.3473C9.56368 19.8368 9.78146 19.3519 9.60429 18.8018C9.58385 18.7389 9.59596 18.6692 9.64138 18.6214C9.6703 18.5914 9.69903 18.5621 9.72739 18.5331C9.8453 18.4125 9.95709 18.2983 10.0517 18.1712C10.0757 18.1392 10.1004 18.1069 10.1254 18.0745C10.2633 17.895 10.407 17.7081 10.4589 17.5027C10.494 17.3628 10.5314 17.2232 10.5687 17.0834L10.5688 17.0833L10.5688 17.0833C10.7299 16.4812 10.8914 15.8774 10.873 15.2426C10.8723 15.2185 10.8711 15.1943 10.8698 15.1701L10.8698 15.17C10.865 15.0804 10.8601 14.9906 10.8881 14.9083C10.9267 14.7954 11.0713 14.7628 11.1629 14.8393L11.4483 15.0778L11.4958 15.1176L11.7973 15.3695L12.0516 15.5821C12.0789 15.6049 12.0985 15.6344 12.1084 15.6685C12.2212 16.0733 12.4286 16.5621 12.9592 16.838C12.8902 16.7231 12.81 16.6142 12.7295 16.5049C12.5477 16.2582 12.3645 16.0096 12.3052 15.6844C12.2916 15.6094 12.3241 15.5321 12.3915 15.495C12.3981 15.4913 12.4047 15.4877 12.4113 15.484C12.6128 15.3728 12.8336 15.2509 12.9025 14.8826C12.7291 15.0326 12.6103 15.1349 12.4975 15.232C12.4725 15.2539 12.4415 15.2683 12.4089 15.2736C11.9721 15.3403 11.6943 15.2054 11.39 14.7484C11.3264 14.6537 11.3696 14.5225 11.4778 14.4854L11.6625 14.4202C11.7148 14.402 11.7738 14.4104 11.82 14.4414C11.954 14.5339 12.0796 14.6196 12.206 14.7052L12.2704 14.6537L12.1031 14.4164C12.0584 14.3528 12.0592 14.2656 12.1099 14.2065C12.3786 13.8904 12.7178 13.707 13.1583 13.6926C13.5694 13.679 13.8812 13.5266 14.0924 13.1272C14.2109 12.9035 14.4115 12.7193 14.6067 12.5401C14.641 12.5086 14.6751 12.4772 14.7086 12.4458C14.9116 12.2558 15.1253 12.0773 15.3389 11.8988L15.339 11.8987C15.4313 11.8216 15.5234 11.7446 15.6147 11.6667C15.606 11.6504 15.5971 11.6343 15.5882 11.6182C15.5818 11.6065 15.5754 11.5949 15.5691 11.5832C15.5666 11.5787 15.5642 11.5742 15.5618 11.5696L15.5656 11.5686C16.2963 11.3605 17.027 11.1524 17.7638 10.9428C17.8668 10.9133 17.9727 10.9838 17.9864 11.0899C18.0073 11.2608 18.027 11.429 18.0464 11.5952L18.0465 11.596L18.0465 11.5961C18.1062 12.1075 18.1636 12.5989 18.2498 13.0855C18.3052 13.3982 18.412 13.6988 18.5174 13.9956C18.6369 14.3319 18.7547 14.6634 18.7941 15.0023C18.7986 15.0485 18.7865 15.0963 18.7562 15.1312C18.5776 15.3391 18.3851 15.297 18.2047 15.2576L18.2046 15.2576C18.1831 15.2529 18.1619 15.2483 18.1408 15.2441C18.0795 15.232 18.0159 15.2532 17.9743 15.2994C17.8448 15.4419 17.8562 15.6071 17.9198 15.7815C17.9856 15.9656 17.9576 16.1157 17.7479 16.2392C17.6248 16.228 17.4975 16.2165 17.3675 16.2047L17.3561 16.2036L17.3529 16.2033L17.3488 16.203C17.1339 16.1835 16.9122 16.1634 16.6904 16.143C16.8558 16.3264 17.0589 16.3425 17.26 16.3584C17.3073 16.3622 17.3546 16.366 17.4012 16.3719C17.5458 16.3908 17.676 16.4181 17.7464 16.5242C17.81 16.6197 17.7502 16.7516 17.6389 16.7804L17.5466 16.8047C17.461 16.8266 17.4058 16.91 17.4171 16.9979C17.4235 17.0471 17.4313 17.0962 17.4391 17.1454C17.4846 17.4334 17.5305 17.7241 17.3081 18.0302C17.2793 18.0696 17.2339 18.0931 17.1855 18.0977C17.0703 18.1078 16.948 18.1187 16.8213 18.1301L16.8205 18.1301C16.6161 18.1484 16.4002 18.1677 16.184 18.1864C16.0822 18.1947 15.9794 18.1989 15.8767 18.203C15.6546 18.212 15.4325 18.2209 15.2204 18.2728C14.7101 18.3955 14.4051 18.7412 14.3188 19.274C14.1848 20.1001 14.203 20.9255 14.29 21.7547C14.3962 21.6126 14.3901 21.455 14.3837 21.2898C14.3819 21.2417 14.38 21.193 14.3809 21.1438C14.3839 21.0028 14.5489 20.9202 14.6594 21.0074C15.2059 21.4404 15.2475 22.0868 15.2925 22.7851C15.2983 22.8752 15.3042 22.9661 15.3112 23.0576C15.6344 22.1549 15.2741 21.1953 14.4967 20.6777C14.4482 20.6451 14.4172 20.5913 14.4172 20.5321V20.3283C14.4391 20.3267 14.4589 20.3242 14.4771 20.3218C14.5127 20.3172 14.542 20.3134 14.5686 20.3199C15.0561 20.4412 15.3778 20.7497 15.5633 21.2112C15.8146 21.8365 15.9365 22.4853 15.9115 23.1599C15.9113 23.1659 15.9111 23.1719 15.9109 23.178L15.9109 23.1781L15.9109 23.1783C15.904 23.3807 16.1041 23.5923 16.1477 23.7783C16.1912 23.9643 16.0862 24.2168 15.9115 24.3221ZM17.2014 15.238C17.1257 15.2229 17.0697 15.1584 17.0621 15.0819C17.028 14.7287 17.0863 14.6741 17.4958 14.4543C17.4656 14.5019 17.4377 14.546 17.4112 14.5878L17.4105 14.589C17.353 14.6796 17.3027 14.7589 17.2521 14.8386C17.2052 14.9121 17.2203 15.0084 17.2862 15.0652L17.4572 15.2115C17.4535 15.224 17.4499 15.2365 17.4463 15.249C17.4427 15.2615 17.4391 15.274 17.4353 15.2865L17.2014 15.238ZM15.5307 23.6525C15.5042 23.6275 15.4717 23.6108 15.4361 23.6055C15.3665 23.5954 15.2952 23.5849 15.2229 23.5743L15.2117 23.5726L15.2102 23.5724C15.0922 23.5551 14.9716 23.5373 14.8509 23.5199C14.8509 23.4903 14.8517 23.4615 14.8524 23.432V23.4319L14.8525 23.4297C15.5557 23.3653 15.7139 23.4395 15.8547 23.9625C15.7955 23.9057 15.7433 23.8559 15.6943 23.8091L15.6938 23.8086C15.6371 23.7545 15.5846 23.7045 15.5307 23.6525ZM17.0591 13.2227C16.6972 13.2765 16.3536 13.2015 16.0137 13.0961C15.6738 12.9908 15.6984 12.9107 15.6984 12.9107C15.6984 12.9107 15.867 12.7667 16.0137 12.684C16.1603 12.6013 16.3107 12.5583 16.4662 12.5028C16.7621 12.3973 17.0695 12.2877 17.399 12.1699C17.0074 11.9774 16.7085 12.119 16.4149 12.2581C16.23 12.3456 16.0473 12.4322 15.8449 12.4337C16.4512 11.8713 17.0212 11.7516 17.6117 12.0729C17.7229 12.1335 17.7426 12.2942 17.6389 12.3662C17.4975 12.4644 17.4343 12.6251 17.3697 12.7892C17.3156 12.9264 17.2606 13.0661 17.1582 13.1734C17.1325 13.2007 17.0962 13.2174 17.0591 13.2227Z" fill="#FD720F"/>
<path d="M4.73879 9.86632C4.68652 9.77246 4.66531 9.73083 4.63956 9.69147C4.61608 9.6559 4.58805 9.62411 4.50397 9.51587C4.39187 9.93671 4.37789 9.95889 4.28548 10.3101C3.91444 10.6376 3.61232 10.905 3.31909 11.1628C3.63774 9.53311 4.22996 7.35808 5.9386 5.36063C7.64723 3.36318 10.3624 2.69542 12.8261 2.8793C14.4749 3.00236 15.984 3.57677 16.851 4.19489C16.4693 4.27755 16.0748 4.36174 15.5909 4.46564C15.5909 4.46564 14.4419 3.68389 12.8261 3.59474C10.1563 3.44744 8.36697 4.1671 6.76477 5.78289C5.43926 7.11963 4.73879 9.86632 4.73879 9.86632Z" fill="#FD720F"/>
<path d="M13.2553 4.85544C14.1465 4.9487 14.7872 5.39074 15.4635 5.66825C15.8633 6.47753 15.2302 7.20358 14.1553 8.00249C12.026 9.58515 9.87251 10.9753 7.76366 12.4048C6.56347 11.825 6.00034 10.8444 6.14549 9.58136C6.17791 9.29927 6.23596 9.14653 6.32342 8.87642C6.60388 8.01023 7.24332 7.27912 7.78252 6.73004C8.42471 6.16189 8.75204 5.88477 9.47536 5.50956C9.82458 5.3284 10.0272 5.23551 10.3999 5.10974C10.7055 5.00663 10.8818 4.96027 11.1984 4.89931C11.9874 4.74742 12.3641 4.76218 13.2553 4.85544Z" fill="#FD720F"/>
<path d="M8.19357 13.085C8.67686 12.7062 8.99206 12.4958 9.59907 12.0818L9.59211 12.1193C9.32325 13.5674 9.06273 14.9705 8.57264 16.3871C8.17733 16.2331 7.82586 16.0959 7.45701 15.9525C7.98344 15.0209 8.39424 14.2053 8.19357 13.085Z" fill="#FD720F"/>
<path d="M12.2569 12.9951C12.0162 12.6521 11.8247 12.3297 11.5832 12.0512C11.416 11.8593 11.1987 11.6855 10.9686 11.5785C10.5727 11.3941 10.3078 11.5315 10.2094 11.9594C10.0437 12.6825 9.91423 13.4147 9.7583 14.1408C9.57361 15.0028 9.37984 15.8624 9.18304 16.7221C9.14217 16.8996 9.07253 17.0711 9.00517 17.2798C8.24068 17.1622 7.56248 16.9103 6.85552 16.4398C7.02053 16.3063 7.13936 16.2114 7.28166 16.0969C7.72295 16.2539 8.16726 16.4125 8.65698 16.587C9.26403 14.9845 9.49565 13.351 9.85746 11.6445C9.34928 12.0118 9.2585 12.0818 8.93932 12.2925C8.65774 12.4784 8.38676 12.6802 8.08551 12.8934C7.99695 12.7637 7.93186 12.6696 7.85314 12.5535C8.0295 12.4314 8.18164 12.3266 8.33302 12.2227C10.3199 10.8494 12.3076 9.47754 14.293 8.10193C14.4709 7.97902 14.6336 7.8341 14.8001 7.69524C15.2603 7.31132 15.9894 6.45649 15.6742 5.8252C16.229 5.85479 17.9022 6.76432 18.574 7.2982C19.2457 7.83208 19.8557 8.72912 19.8557 8.72912C20.269 8.96812 20.7889 9.25675 21.2074 9.49879C21.2067 9.53217 21.2059 9.56556 21.2052 9.5997C18.2736 9.94266 15.4655 10.6938 12.8261 12.1263C12.5733 11.4306 12.1782 10.8865 11.556 10.5451L11.4667 10.6286C11.6392 10.778 11.8254 10.9154 11.9821 11.0808C12.1403 11.2485 12.2894 11.4321 12.4045 11.6316C12.5263 11.8426 12.6028 12.0801 12.7103 12.3335C12.8064 12.2993 12.9109 12.2758 13.0009 12.228C15.3451 10.9723 17.8467 10.2196 20.4763 9.87361L20.51 9.86916C20.8205 9.82809 21.1324 9.78685 21.4444 9.77953C21.5927 9.77573 21.7426 9.85844 21.8917 9.90245L21.8826 10.0254C21.5708 10.083 21.2574 10.1369 20.9463 10.1984C19.5975 10.4647 18.2396 10.6908 16.9036 11.0117C15.3171 11.3926 13.8184 12.014 12.4385 12.9018C12.3886 12.9336 12.3326 12.9564 12.2569 12.9951Z" fill="#FD720F"/>
<path d="M9.47536 18.7245C9.47593 18.9383 9.53082 19.0614 9.5384 19.2295C9.54597 19.3977 9.46875 19.7381 9.37029 19.9871C9.28727 20.197 9.1788 20.3296 9.09333 20.5647C9.0345 20.7266 9.00566 20.8466 8.90801 20.9884C8.78212 21.1712 8.52977 21.3338 8.52977 21.3338C8.52977 21.3338 8.27685 21.4473 8.06749 21.439C7.85551 21.4307 7.82741 21.3338 7.67179 21.2707C7.15542 21.0613 6.74714 21.2571 6.32154 20.8097C6.4215 20.4843 6.38894 20.1605 6.13676 19.8973L5.28404 19.738C5.27647 19.597 5.26966 19.4771 5.26284 19.3505C5.51275 19.0562 5.75811 18.7665 6.05043 18.4222L6.41147 18.0436C6.26451 17.6547 6.30542 17.5099 6.6107 17.3021C6.8069 17.1687 7.03739 16.9876 7.24799 16.8428C7.77375 17.1232 8.10158 17.2149 8.70535 17.3809C8.85914 17.406 8.94709 17.4308 9.09712 17.3809C9.23388 17.2665 10.3395 12.1426 10.3369 11.9398C10.3343 11.737 10.6385 11.5336 10.9686 11.7294C11.5019 12.0458 11.6534 12.2758 12.2281 13.1692C13.4997 12.3783 14.3726 11.9018 15.401 11.6182L15.443 11.6962C15.443 11.6962 14.9552 12.0765 14.8757 12.1381C14.7474 12.2372 14.6004 12.3647 14.4764 12.4958C14.3257 12.6552 14.1772 12.7314 14.0562 12.8956C13.7715 13.2821 13.6155 13.6339 12.8515 13.5902C12.6194 13.5902 12.427 13.7011 12.207 13.8636C12.0275 13.9962 11.9754 14.3387 11.82 14.2844C11.6007 14.2079 11.2404 14.3897 11.2194 14.537C11.1984 14.6843 10.8496 14.7385 10.7571 14.8826C10.6647 15.0266 10.7373 15.4793 10.6869 15.8578C10.6215 16.3495 10.6085 16.6406 10.4214 17.0998C10.2738 17.6723 10.2418 17.6578 10.0217 18.009C9.84833 18.2856 9.47484 18.5293 9.47536 18.7245Z" fill="#FD720F"/>
</g>
<defs>
<clipPath id="clip0_1409_198">
<rect width="121.352" height="29" fill="white"/>
</clipPath>
</defs>
</svg>
