<svg width="67" height="17" viewBox="0 0 67 17" fill="none" xmlns="http://www.w3.org/2000/svg">
<path fill-rule="evenodd" clip-rule="evenodd" d="M54.184 16.5845H47.9011L45.1086 12.4888H43.5955V16.5845H37.8353V0.0235343H47.0516C47.0516 0.0235343 49.6678 0.176511 51.5385 1.56706C52.9345 2.60478 53.7213 3.99331 53.7213 6.13758C53.7213 7.85895 53.4393 8.84146 52.8118 9.75839C51.9137 11.0705 50.5683 11.4202 50.5683 11.4202L54.184 16.5845ZM46.0814 4.41599C46.4782 4.41599 47.0801 4.66552 47.3548 4.95044L47.3579 4.95372C47.485 5.08553 47.6671 5.27437 47.7792 5.54401C47.9102 5.85916 47.9611 6.26429 47.9611 6.49373C47.9611 6.70236 47.892 7.02032 47.7792 7.26538C47.6609 7.52232 47.4347 7.70502 47.2941 7.85895C47.0194 8.14387 46.4782 8.2151 46.0814 8.2151H43.5955V4.41599H46.0814Z" fill="#FD720F"/>
<path d="M67 9.91269C67 11.9546 66.3102 14.4318 65.181 15.3973C64.067 16.3629 62.4968 16.5845 60.3909 16.5845H57.6624L54.6308 12.1327H60.0271C60.0271 12.1327 60.5884 12.0464 60.876 11.5984C61.1432 11.1823 61.2852 10.2472 61.2852 9.88895V4.41622H57.238L54.2063 0.0235591H61.2852H67V9.91269Z" fill="#FD720F"/>
<path d="M17.4577 15.1243C18.8757 13.9529 19.7059 12.2514 19.7059 10.0195V0.0237444H13.9458V9.94831C13.9458 9.94831 13.8932 11.0784 13.4608 11.5985C12.8999 12.273 11.5205 12.3701 11.5205 12.3701C11.133 12.3686 10.0294 12.2095 9.51959 11.5985C9.00977 10.9874 8.89998 9.92456 8.89998 9.92456V0H3.09231H0L3.09231 4.35686V9.99579C3.09231 12.2276 3.92272 13.9529 5.34075 15.1243C6.77471 16.2956 8.9075 17 11.5205 17C14.1335 17 16.0397 16.2956 17.4577 15.1243Z" fill="#FD720F"/>
<path d="M22.2591 0.0235343H36.0613V4.41599L28.0452 4.41594V7.00633H35.1068V11.4202H28.0452V16.5984L22.2591 16.5985V0.0235343Z" fill="#FD720F"/>
</svg>