<svg width="193" height="41" viewBox="0 0 193 41" fill="none" xmlns="http://www.w3.org/2000/svg">
<path d="M36.9624 30.535V14.8371L44.3629 14.837C45.6487 14.837 46.7027 15.0164 47.5249 15.3752C48.3472 15.7341 48.9527 16.2498 49.3414 16.9226C49.7451 17.5804 49.9469 18.3653 49.9469 19.2773C49.9469 19.8155 49.8423 20.2939 49.633 20.7126C49.4386 21.1162 49.1919 21.4526 48.8929 21.7217C48.6088 21.9908 48.3397 22.1852 48.0856 22.3048C48.6537 22.5739 49.1545 23.0149 49.5881 23.6279C50.0366 24.2409 50.2609 24.9585 50.2609 25.7808C50.2609 26.7675 50.0366 27.6197 49.5881 28.3373C49.1545 29.04 48.5117 29.5857 47.6595 29.9744C46.8223 30.3481 45.7907 30.535 44.5647 30.535H36.9624ZM40.9766 27.6197H44.1162C44.7591 27.6197 45.245 27.4328 45.5739 27.059C45.9028 26.6853 46.0673 26.2592 46.0673 25.7808C46.0673 25.2575 45.8953 24.8165 45.5515 24.4577C45.2226 24.0988 44.7442 23.9194 44.1162 23.9194H40.9766V27.6197ZM40.9766 21.0714H43.9144C44.5274 21.0714 44.9834 20.9144 45.2824 20.6004C45.5963 20.2865 45.7533 19.8828 45.7533 19.3894C45.7533 18.911 45.5963 18.5223 45.2824 18.2233C44.9834 17.9093 44.5274 17.7524 43.9144 17.7524H40.9766V21.0714Z" fill="#FD750F"/>
<path d="M49.9256 30.535C49.806 30.535 49.2304 30.535 49.2304 30.535L49.4771 29.8622L54.7472 15.4649L54.9879 14.837H55.6218H58.9408H59.5718L59.8154 15.4649L65.063 29.8622C65.0929 29.922 65.297 30.535 65.297 30.535H64.6145H61.8561H61.3212L61.1385 30.0641L60.2639 27.7767H54.2762C54.2762 27.7767 53.4539 29.9744 53.424 30.0641C53.3941 30.1538 53.2606 30.535 53.2606 30.535H52.684H49.9256ZM55.1957 24.5474H59.3669L57.2588 18.627L55.1957 24.5474Z" fill="#FD750F"/>
<path d="M66.0157 30.5793L64.8541 27.3224V15.442C64.8541 15.2775 64.8541 14.8813 64.8541 14.8813C64.8541 14.8813 65.2503 14.8813 65.4147 14.8813H67.7919C68.046 14.8813 68.2966 14.8813 68.2966 14.8813C68.2966 14.8813 68.5244 15.2476 68.5543 15.3074L74.0262 23.9413V15.442C74.0262 15.2775 74.0262 14.8813 74.0262 14.8813C74.0262 14.8813 74.4224 14.8813 74.5868 14.8813H77.2779C77.4424 14.8813 77.8386 14.8813 77.8386 14.8813C77.8386 14.8813 77.8386 15.2775 77.8386 15.442V30.0187C77.8386 30.1682 77.8386 30.5793 77.8386 30.5793C77.8386 30.5793 77.4424 30.5793 77.2779 30.5793H74.8784C74.6392 30.5793 74.4084 30.5793 74.4084 30.5793C74.4084 30.5793 74.1682 30.1981 74.1383 30.1532L68.6665 21.8557V30.0187C68.6665 30.1831 68.6665 30.5793 68.6665 30.5793H66.0157Z" fill="#FD750F"/>
<path d="M79.2021 30.535C79.0376 30.535 78.6414 30.535 78.6414 30.535C78.6414 30.535 78.6414 30.1388 78.6414 29.9744V15.3977C78.6414 15.2332 78.6414 14.837 78.6414 14.837C78.6414 14.837 79.0376 14.837 79.2021 14.837H85.0327C86.4979 14.837 87.7462 15.0762 88.7778 15.5547C89.8094 16.0181 90.6018 16.7058 91.1549 17.6178C91.7081 18.5148 92.0071 19.6287 92.052 20.9592C92.0669 21.6171 92.0744 22.1927 92.0744 22.686C92.0744 23.1794 92.0669 23.7475 92.052 24.3904C91.9922 25.7808 91.6932 26.9319 91.1549 27.8439C90.6317 28.7559 89.8617 29.4362 88.8451 29.8847C87.8434 30.3182 86.61 30.535 85.1449 30.535H79.2021ZM82.6556 27.3057H85.0327C85.6756 27.3057 86.2063 27.2085 86.625 27.0142C87.0585 26.8049 87.38 26.4834 87.5893 26.0499C87.8135 25.6163 87.9331 25.0482 87.9481 24.3455C87.978 23.912 87.9929 23.5232 87.9929 23.1794C88.0079 22.8355 88.0079 22.4917 87.9929 22.1478C87.9929 21.8039 87.978 21.4227 87.9481 21.0041C87.9182 19.9875 87.6491 19.2474 87.1407 18.784C86.6474 18.3055 85.9073 18.0663 84.9206 18.0663H82.6556V27.3057Z" fill="#FD750F"/>
<path d="M93.3223 30.535C93.1578 30.535 92.7616 30.535 92.7616 30.535C92.7616 30.535 92.7616 30.1388 92.7616 29.9744V15.3977C92.7616 15.2332 92.7616 14.837 92.7616 14.837C92.7616 14.837 93.1578 14.837 93.3223 14.837L103.373 14.837L104.356 16.2281V17.5057C104.356 17.6701 104.356 18.0663 104.356 18.0663C104.356 18.0663 103.96 18.0663 103.795 18.0663H96.6413V21.0938H103.302C103.466 21.0938 103.862 21.0938 103.862 21.0938C103.862 21.0938 103.862 21.5124 103.862 21.6769V23.6279C103.862 23.7774 103.862 24.1885 103.862 24.1885C103.862 24.1885 103.466 24.1885 103.302 24.1885H96.6413V27.3057H104.417V30.535H93.3223Z" fill="#FD750F"/>
<path d="M108.356 30.535C107.593 30.535 104.417 30.535 104.417 30.535V27.3057C104.417 27.3057 109.353 27.566 110.106 26.8123C110.6 26.319 110.943 25.6014 111.138 24.6595L112.506 18.1785H108.884H108.356L105.957 14.837L116.811 14.837C116.976 14.837 117.096 14.8894 117.17 14.994C117.26 15.0987 117.29 15.2332 117.26 15.3977L115.264 24.7716C115.01 26.0723 114.569 27.1712 113.941 28.0682C113.328 28.9503 112.521 29.623 111.519 30.0865C110.532 30.535 109.791 30.535 108.356 30.535Z" fill="#FD750F"/>
<path d="M122.036 17.3067L116.656 30.4014C116.595 30.5846 116.488 30.7296 116.336 30.8364C116.183 30.9432 116.023 30.9967 115.855 30.9967C115.565 30.9967 115.351 30.9203 115.214 30.7677C115.077 30.6151 115.008 30.432 115.008 30.2183C114.993 30.1115 115.008 29.997 115.054 29.8749L120.983 15.4524C121.059 15.2387 121.174 15.0861 121.326 14.9945C121.494 14.8877 121.677 14.8419 121.876 14.8572C122.074 14.8572 122.25 14.9106 122.402 15.0174C122.57 15.1243 122.685 15.2692 122.746 15.4524L128.652 29.7375C128.698 29.8596 128.721 29.9817 128.721 30.1038C128.721 30.3785 128.629 30.5998 128.446 30.7677C128.263 30.9203 128.057 30.9967 127.828 30.9967C127.645 30.9967 127.477 30.9432 127.324 30.8364C127.172 30.7296 127.057 30.5769 126.981 30.3785L121.532 17.2838L122.036 17.3067ZM117.801 26.6699L118.579 24.8843H125.378L125.722 26.6699H117.801ZM135.601 18.9321C136.639 18.9321 137.57 19.1916 138.394 19.7105C139.218 20.2294 139.867 20.9467 140.34 21.8624C140.829 22.7781 141.073 23.8312 141.073 25.0216C141.073 26.1968 140.829 27.2499 140.34 28.1808C139.867 29.0965 139.218 29.8215 138.394 30.3557C137.585 30.8746 136.67 31.134 135.647 31.134C135.082 31.134 134.548 31.0501 134.045 30.8822C133.556 30.699 133.106 30.4701 132.694 30.1954C132.297 29.9054 131.961 29.5849 131.687 29.2339C131.412 28.8676 131.214 28.509 131.091 28.1579L131.595 27.8374V34.5908C131.595 34.8503 131.511 35.0716 131.343 35.2547C131.175 35.4379 130.954 35.5294 130.679 35.5294C130.42 35.5294 130.199 35.4379 130.016 35.2547C129.848 35.0868 129.764 34.8655 129.764 34.5908V19.9623C129.764 19.7028 129.848 19.4892 130.016 19.3213C130.199 19.1381 130.42 19.0466 130.679 19.0466C130.954 19.0466 131.175 19.1381 131.343 19.3213C131.511 19.4892 131.595 19.7028 131.595 19.9623V21.9997L131.252 21.8166C131.359 21.4351 131.542 21.0688 131.801 20.7177C132.076 20.3667 132.404 20.0615 132.786 19.802C133.182 19.5273 133.617 19.3137 134.09 19.161C134.579 19.0084 135.082 18.9321 135.601 18.9321ZM135.395 20.6262C134.632 20.6262 133.953 20.8169 133.358 21.1985C132.778 21.58 132.32 22.099 131.984 22.7552C131.664 23.4115 131.504 24.1669 131.504 25.0216C131.504 25.861 131.664 26.6165 131.984 27.288C132.32 27.9595 132.778 28.4861 133.358 28.8676C133.953 29.2492 134.632 29.4399 135.395 29.4399C136.158 29.4399 136.83 29.2492 137.41 28.8676C137.99 28.4861 138.448 27.9595 138.783 27.288C139.119 26.6165 139.287 25.861 139.287 25.0216C139.287 24.1669 139.119 23.4115 138.783 22.7552C138.448 22.099 137.99 21.58 137.41 21.1985C136.83 20.8169 136.158 20.6262 135.395 20.6262ZM148.519 18.9321C149.557 18.9321 150.488 19.1916 151.312 19.7105C152.136 20.2294 152.785 20.9467 153.258 21.8624C153.746 22.7781 153.99 23.8312 153.99 25.0216C153.99 26.1968 153.746 27.2499 153.258 28.1808C152.785 29.0965 152.136 29.8215 151.312 30.3557C150.503 30.8746 149.587 31.134 148.565 31.134C148 31.134 147.466 31.0501 146.962 30.8822C146.474 30.699 146.024 30.4701 145.611 30.1954C145.215 29.9054 144.879 29.5849 144.604 29.2339C144.329 28.8676 144.131 28.509 144.009 28.1579L144.513 27.8374V34.5908C144.513 34.8503 144.429 35.0716 144.261 35.2547C144.093 35.4379 143.872 35.5294 143.597 35.5294C143.337 35.5294 143.116 35.4379 142.933 35.2547C142.765 35.0868 142.681 34.8655 142.681 34.5908V19.9623C142.681 19.7028 142.765 19.4892 142.933 19.3213C143.116 19.1381 143.337 19.0466 143.597 19.0466C143.872 19.0466 144.093 19.1381 144.261 19.3213C144.429 19.4892 144.513 19.7028 144.513 19.9623V21.9997L144.169 21.8166C144.276 21.4351 144.459 21.0688 144.719 20.7177C144.993 20.3667 145.321 20.0615 145.703 19.802C146.1 19.5273 146.535 19.3137 147.008 19.161C147.496 19.0084 148 18.9321 148.519 18.9321ZM148.313 20.6262C147.55 20.6262 146.871 20.8169 146.275 21.1985C145.695 21.58 145.238 22.099 144.902 22.7552C144.581 23.4115 144.421 24.1669 144.421 25.0216C144.421 25.861 144.581 26.6165 144.902 27.288C145.238 27.9595 145.695 28.4861 146.275 28.8676C146.871 29.2492 147.55 29.4399 148.313 29.4399C149.076 29.4399 149.747 29.2492 150.327 28.8676C150.907 28.4861 151.365 27.9595 151.701 27.288C152.037 26.6165 152.205 25.861 152.205 25.0216C152.205 24.1669 152.037 23.4115 151.701 22.7552C151.365 22.099 150.907 21.58 150.327 21.1985C149.747 20.8169 149.076 20.6262 148.313 20.6262Z" fill="#FD750F"/>
<path fill-rule="evenodd" clip-rule="evenodd" d="M28.1666 33.5352C30.6879 30.8225 32.2783 27.3149 31.9997 23.0614C31.9997 18.4049 30.434 14.1804 26.6548 11.1298C23.754 8.78832 19.6454 7.71394 15.604 7.82619C13.2751 7.82619 10.7953 8.43732 8.75619 9.24814C5.95803 10.3608 3.82533 11.9183 2.24515 14.225C0.539202 16.7152 -5.87095e-05 19.4784 4.79395e-09 22.7567C7.50659e-05 26.9477 1.22964 30.6053 3.92907 33.1968C6.89058 36.253 11.5783 38.7182 16.397 38.7182C21.1631 38.7182 25.3115 36.6071 28.1666 33.5352ZM5.81558 12.6414C3.0918 15.1582 2.14433 18.8912 2.14433 22.3054C2.14433 24.5721 2.48221 26.5486 3.92907 28.669C6.09942 31.8497 11.4879 34.3449 15.5876 34.3449C18.9097 34.3449 22.677 33.3824 25.3056 31.1596C28.2684 28.6542 29.8946 24.6792 29.8946 21.1716C29.8946 17.6458 28.4489 14.6615 25.5755 12.4254C22.4442 9.88795 19.3221 9.02412 16.0195 9.02412C14.1628 9.02412 11.7996 9.44254 9.86474 10.1579C8.23373 10.7609 6.98515 11.5607 5.81558 12.6414Z" fill="#F86F0E"/>
<path d="M3.58652 5.1122C3.36791 4.68257 2.43569 4.02638 2.43569 4.02638C2.43569 4.02638 4.06963 2.75322 6.39898 3.59942C7.9462 4.1615 8.64838 7.25199 8.64838 7.25199C8.64838 7.25199 7.83906 6.41784 7.31197 6.53842C6.78488 6.659 6.72983 6.60448 6.35814 6.57673C5.90363 6.54279 5.64307 6.49206 5.21827 6.32784C4.47643 6.04105 3.58652 5.1122 3.58652 5.1122Z" fill="#9BAB49"/>
<path d="M4.30374 5.05037C2.36851 4.98513 1.4699 7.22161 1.4699 7.22161C1.4699 7.22161 2.04026 7.29424 2.45767 7.47349C3.45588 7.90214 3.64766 7.93342 4.70791 7.73521C5.48264 7.59038 7.28278 7.01654 7.92986 6.99816C8.22797 6.9897 8.64807 7.25214 8.64807 7.25214C8.64807 7.25214 6.81352 5.13499 4.30374 5.05037Z" fill="#C1BF0A"/>
<path d="M6.44956 16.0695C6.23107 15.7171 6.21262 15.4074 6.30099 15.0957C6.96326 12.7744 8.04115 10.7035 10.0425 9.25011C12.6945 7.3239 15.6029 6.86953 18.724 7.89865C19.1493 8.03846 19.5775 8.20836 19.9261 8.58409C19.8494 8.68118 19.7824 8.76565 19.6892 8.88118C17.7888 7.73264 15.7583 7.58992 13.6579 8.07244C12.9529 8.23458 12.2119 8.35205 11.6701 8.96662C11.6953 9.15497 11.7196 9.34429 11.741 9.50545C11.1447 9.95206 10.5621 10.3899 9.97651 10.8288C9.48223 10.5113 9.28607 10.5249 8.86365 10.955C8.12855 11.7025 7.62359 12.5977 7.27401 13.5773C6.98948 14.3754 6.73991 15.187 6.44956 16.0695Z" fill="#FD750F"/>
<path d="M21.5458 18.6622C21.5455 18.6653 21.5453 18.6684 21.5451 18.6716C21.5451 18.6717 21.5451 18.6718 21.5451 18.672C21.5289 18.8918 21.5154 19.0745 21.4982 19.3241C21.4207 19.3079 21.3462 19.2924 21.2721 19.2769C21.0457 19.2297 20.8227 19.1832 20.5265 19.1219C20.5178 19.12 20.509 19.1182 20.5001 19.1164C20.5024 19.1149 20.5046 19.1133 20.5068 19.1118C20.5133 19.1073 20.5198 19.1029 20.5262 19.0986C20.9033 18.8423 21.1851 18.7277 21.5458 18.6622Z" fill="#FD750F"/>
<path fill-rule="evenodd" clip-rule="evenodd" d="M20.3987 33.7157C20.1747 33.8505 18.6799 33.1455 18.6799 33.1455C18.6799 33.1455 16.0645 31.9308 14.7443 31.3175L14.724 31.3081C13.733 30.8478 12.7363 30.3849 11.7318 29.9183C11.6173 29.8649 11.5688 29.7281 11.6251 29.6154L11.6571 29.5494C11.7115 29.4407 11.8425 29.3951 11.9522 29.4455C13.0379 29.9468 14.1161 30.4443 15.1958 30.9424L15.236 30.9609L15.2412 30.9633C16.34 31.4703 17.4404 31.978 18.5518 32.4911C18.5476 32.2577 18.3976 32.193 18.2698 32.1379C18.2509 32.1297 18.2324 32.1217 18.215 32.1134C17.4606 31.7498 16.702 31.3973 15.9431 31.0446L15.9426 31.0444L15.7945 30.9756C15.003 30.6073 14.2116 30.2402 13.4211 29.8735L13.401 29.8642C12.9186 29.6404 12.4366 29.4168 11.9551 29.1931C11.8454 29.1426 11.7949 29.0135 11.8425 28.9028C11.8831 28.8091 11.9248 28.7164 11.9662 28.6244C12.2601 27.9704 12.5394 27.3493 12.3122 26.6446C12.286 26.5641 12.3015 26.4747 12.3598 26.4136C12.3969 26.3752 12.4337 26.3376 12.4701 26.3004C12.6212 26.146 12.7645 25.9997 12.8858 25.8369C12.9166 25.7958 12.9483 25.7546 12.9803 25.713C13.1572 25.4831 13.3414 25.2437 13.408 24.9806C13.4529 24.8014 13.5008 24.6225 13.5488 24.4436L13.5488 24.4434L13.5488 24.4433C13.7553 23.6721 13.9625 22.8987 13.9388 22.0855C13.938 22.0547 13.9364 22.0237 13.9347 21.9927L13.9347 21.9926C13.9285 21.8778 13.9224 21.7628 13.9583 21.6574C14.0078 21.5127 14.1931 21.471 14.3106 21.569L14.6764 21.8745L14.7373 21.9254L15.1239 22.2482L15.45 22.5205C15.4849 22.5496 15.5101 22.5875 15.5228 22.6312C15.6674 23.1496 15.9333 23.7758 16.6136 24.1292C16.5251 23.9819 16.4223 23.8425 16.319 23.7025C16.086 23.3865 15.8511 23.068 15.7751 22.6515C15.7576 22.5554 15.7994 22.4564 15.8857 22.4088C15.8942 22.4042 15.9026 22.3995 15.9111 22.3948C16.1695 22.2523 16.4525 22.0962 16.5408 21.6244C16.3186 21.8166 16.1662 21.9477 16.0216 22.0719C15.9896 22.1001 15.9498 22.1185 15.9081 22.1253C15.3481 22.2108 14.9919 22.038 14.6017 21.4525C14.5202 21.3312 14.5755 21.1632 14.7143 21.1157L14.9511 21.0322C15.0181 21.0089 15.0938 21.0195 15.153 21.0593C15.3248 21.1778 15.4859 21.2875 15.648 21.3972L15.7304 21.3312L15.516 21.0273C15.4587 20.9458 15.4597 20.8341 15.5247 20.7584C15.8692 20.3535 16.304 20.1186 16.8689 20.1001C17.3959 20.0827 17.7957 19.8875 18.0665 19.3759C18.2184 19.0894 18.4756 18.8534 18.7258 18.6238C18.7698 18.5835 18.8136 18.5433 18.8565 18.5031C19.1168 18.2597 19.3908 18.031 19.6646 17.8024L19.6648 17.8022C19.783 17.7035 19.9012 17.6049 20.0183 17.5051C20.0071 17.4842 19.9957 17.4636 19.9843 17.4429C19.9761 17.428 19.9679 17.4132 19.9597 17.3982C19.9566 17.3924 19.9535 17.3866 19.9503 17.3808L19.9553 17.3794C20.8921 17.1129 21.829 16.8464 22.7736 16.5779C22.9056 16.54 23.0415 16.6303 23.059 16.7662C23.0859 16.9852 23.111 17.2007 23.1359 17.4135L23.136 17.4146L23.136 17.4146C23.2126 18.0697 23.2862 18.6991 23.3967 19.3225C23.4677 19.7231 23.6046 20.1081 23.7398 20.4883C23.893 20.919 24.044 21.3436 24.0945 21.7778C24.1004 21.837 24.0848 21.8982 24.046 21.9428C23.817 22.2092 23.5702 22.1553 23.3388 22.1048L23.3387 22.1048C23.3112 22.0988 23.284 22.0928 23.257 22.0875C23.1783 22.0719 23.0968 22.0991 23.0434 22.1583C22.8775 22.3409 22.892 22.5525 22.9736 22.7758C23.058 23.0117 23.0221 23.204 22.7533 23.3622C22.5954 23.3478 22.4321 23.333 22.2656 23.3179L22.2508 23.3166L22.2467 23.3162L22.2415 23.3157C21.9661 23.2908 21.6817 23.265 21.3974 23.2389C21.6095 23.4738 21.8699 23.4945 22.1276 23.5149C22.1884 23.5197 22.249 23.5245 22.3087 23.5321C22.4941 23.5564 22.6611 23.5913 22.7513 23.7272C22.8328 23.8496 22.7562 24.0185 22.6135 24.0554L22.4951 24.0865C22.3854 24.1146 22.3146 24.2214 22.3291 24.334C22.3373 24.397 22.3473 24.4599 22.3573 24.523C22.4156 24.8918 22.4745 25.2641 22.1894 25.6563C22.1525 25.7068 22.0943 25.7369 22.0321 25.7427C21.8845 25.7557 21.7277 25.7697 21.5653 25.7842L21.5642 25.7843C21.3021 25.8077 21.0253 25.8324 20.7481 25.8563C20.6176 25.8671 20.4859 25.8724 20.3541 25.8777C20.0694 25.8892 19.7847 25.9006 19.5126 25.967C18.8585 26.1243 18.4674 26.567 18.3567 27.2495C18.1849 28.3077 18.2082 29.365 18.3198 30.4271C18.4559 30.2451 18.4481 30.0433 18.44 29.8316C18.4376 29.77 18.4352 29.7076 18.4363 29.6446C18.4402 29.464 18.6518 29.3582 18.7935 29.4698C19.4941 30.0245 19.5475 30.8525 19.6052 31.7469C19.6126 31.8623 19.6201 31.9788 19.6291 32.096C20.0435 30.9397 19.5815 29.7106 18.5848 29.0475C18.5227 29.0057 18.4829 28.9368 18.4829 28.8611V28.5999C18.511 28.598 18.5364 28.5947 18.5597 28.5917C18.6054 28.5857 18.6429 28.5809 18.677 28.5893C19.302 28.7446 19.7145 29.1397 19.9523 29.731C20.2745 30.5319 20.4308 31.363 20.3987 32.227C20.3985 32.2348 20.3982 32.2425 20.398 32.2502L20.3979 32.2504L20.3979 32.2506C20.3892 32.5098 20.6457 32.781 20.7015 33.0192C20.7574 33.2575 20.6227 33.5809 20.3987 33.7157ZM22.0525 22.0797C21.9555 22.0603 21.8837 21.9778 21.8739 21.8797C21.8303 21.4273 21.905 21.3574 22.4301 21.0758C22.3913 21.1368 22.3555 21.1933 22.3216 21.2468L22.3206 21.2484C22.247 21.3644 22.1825 21.466 22.1176 21.5681C22.0574 21.6622 22.0768 21.7855 22.1612 21.8584L22.3806 22.0457C22.3757 22.0617 22.3711 22.0778 22.3665 22.0938C22.3619 22.1098 22.3573 22.1258 22.3524 22.1418L22.0525 22.0797ZM19.9106 32.8581C19.8766 32.826 19.8348 32.8047 19.7892 32.7979C19.7 32.7849 19.6086 32.7715 19.5158 32.7578L19.5015 32.7557L19.4996 32.7555C19.3484 32.7333 19.1937 32.7105 19.039 32.6882C19.039 32.6503 19.0399 32.6134 19.0409 32.5756V32.5754L19.0409 32.5727C19.9426 32.4901 20.1454 32.5853 20.3259 33.2552C20.25 33.1824 20.1831 33.1185 20.1202 33.0586L20.1196 33.058C20.0469 32.9887 19.9797 32.9246 19.9106 32.8581ZM21.8701 19.4982C21.4061 19.5671 20.9655 19.471 20.5298 19.3361C20.094 19.2011 20.1256 19.0986 20.1256 19.0986C20.1256 19.0986 20.3418 18.9141 20.5298 18.8082C20.7177 18.7022 20.9106 18.6471 21.1099 18.5761C21.4893 18.4409 21.8834 18.3005 22.3058 18.1497C21.8038 17.9031 21.4206 18.0845 21.0442 18.2626C20.8072 18.3748 20.5728 18.4857 20.3133 18.4876C21.0907 17.7672 21.8215 17.6138 22.5786 18.0254C22.7212 18.1031 22.7465 18.3089 22.6135 18.4012C22.4322 18.527 22.3511 18.7328 22.2683 18.9429C22.199 19.1187 22.1285 19.2976 21.9972 19.4351C21.9642 19.4701 21.9176 19.4914 21.8701 19.4982Z" fill="#FD750F"/>
<path d="M6.07411 15.1989C6.0071 15.0787 5.97991 15.0254 5.94689 14.975C5.91678 14.9294 5.88085 14.8887 5.77305 14.75C5.62932 15.2891 5.6114 15.3175 5.49292 15.7674C5.01721 16.1869 4.62986 16.5294 4.25391 16.8597C4.66244 14.7721 5.42174 11.9861 7.6124 9.42748C9.80306 6.86889 13.2842 6.01354 16.4429 6.24907C18.5569 6.40671 20.4917 7.14249 21.6033 7.93425C21.1139 8.04014 20.6081 8.14798 19.9877 8.28107C19.9877 8.28107 18.5146 7.2797 16.4429 7.16551C13.02 6.97682 10.7258 7.89865 8.67164 9.96836C6.97219 11.6806 6.07411 15.1989 6.07411 15.1989Z" fill="#FD750F"/>
<path d="M16.9932 8.78037C18.1358 8.89983 18.9573 9.46605 19.8244 9.82152C20.3369 10.8581 19.5252 11.7882 18.1471 12.8115C15.4171 14.8388 12.6561 16.6194 9.95233 18.4506C8.41356 17.7078 7.69156 16.4517 7.87766 14.8339C7.91922 14.4726 7.99365 14.2769 8.10578 13.931C8.46537 12.8214 9.2852 11.8849 9.97651 11.1816C10.7999 10.4538 11.2195 10.0989 12.1469 9.61824C12.5947 9.3862 12.8545 9.26721 13.3323 9.10611C13.7241 8.97403 13.9501 8.91465 14.3561 8.83657C15.3676 8.64201 15.8506 8.66091 16.9932 8.78037Z" fill="#FD750F"/>
<path d="M10.5035 19.3218C11.1232 18.8367 11.5273 18.5671 12.3055 18.0368L12.2966 18.0848C11.9519 19.9397 11.6179 21.7371 10.9895 23.5516C10.4827 23.3544 10.0321 23.1785 9.55917 22.9949C10.2341 21.8016 10.7608 20.7568 10.5035 19.3218Z" fill="#FD750F"/>
<path d="M15.7131 19.2067C15.4045 18.7674 15.159 18.3543 14.8494 17.9976C14.635 17.7518 14.3565 17.5292 14.0614 17.3921C13.5539 17.156 13.2142 17.3319 13.0881 17.88C12.8755 18.8063 12.7096 19.7442 12.5097 20.6743C12.2729 21.7783 12.0245 22.8795 11.7721 23.9807C11.7197 24.2081 11.6305 24.4278 11.5441 24.695C10.5639 24.5444 9.6944 24.2217 8.78799 23.6191C8.99955 23.4481 9.15191 23.3266 9.33436 23.1798C9.90013 23.381 10.4698 23.5841 11.0977 23.8077C11.876 21.755 12.1729 19.6625 12.6368 17.4767C11.9853 17.9472 11.8689 18.0368 11.4597 18.3067C11.0986 18.5448 10.7512 18.8034 10.365 19.0765C10.2514 18.9103 10.168 18.7897 10.067 18.641C10.2932 18.4846 10.4882 18.3504 10.6823 18.2173C13.2298 16.4582 15.7782 14.701 18.3237 12.9389C18.5517 12.7814 18.7604 12.5958 18.9739 12.418C19.5639 11.9262 20.4986 10.8312 20.0945 10.0226C20.8058 10.0605 22.9511 11.2255 23.8123 11.9094C24.6736 12.5932 25.4557 13.7423 25.4557 13.7423C25.9856 14.0484 26.6521 14.4181 27.1887 14.7282C27.1878 14.7709 27.1868 14.8137 27.1858 14.8574C23.4273 15.2967 19.8269 16.2589 16.4429 18.0939C16.1188 17.2026 15.6122 16.5058 14.8145 16.0684L14.7 16.1753C14.9213 16.3668 15.16 16.5427 15.3609 16.7546C15.5637 16.9694 15.7549 17.2046 15.9024 17.4602C16.0586 17.7304 16.1566 18.0346 16.2944 18.3592C16.4177 18.3155 16.5516 18.2853 16.6671 18.2241C19.6726 16.6156 22.8799 15.6515 26.2513 15.2083L26.2945 15.2026C26.6927 15.15 27.0926 15.0971 27.4925 15.0878C27.6827 15.0829 27.8748 15.1888 28.066 15.2452L28.0544 15.4027C27.6546 15.4765 27.2528 15.5455 26.8539 15.6243C25.1246 15.9654 23.3836 16.255 21.6707 16.6661C19.6367 17.154 17.7152 17.95 15.946 19.0871C15.882 19.128 15.8102 19.1571 15.7131 19.2067Z" fill="#FD750F"/>
<path d="M12.1469 26.5456C12.1476 26.8195 12.218 26.9771 12.2277 27.1925C12.2374 27.4079 12.1384 27.844 12.0122 28.1629C11.9058 28.4318 11.7667 28.6016 11.6571 28.9028C11.5817 29.1101 11.5447 29.2639 11.4195 29.4455C11.2581 29.6797 10.9346 29.888 10.9346 29.888C10.9346 29.888 10.6103 30.0333 10.3419 30.0227C10.0701 30.012 10.0341 29.8879 9.83454 29.8071C9.1725 29.5389 8.64904 29.7898 8.10337 29.2166C8.23154 28.7998 8.18979 28.385 7.86647 28.0479L6.77319 27.8439C6.76348 27.6632 6.75474 27.5097 6.74601 27.3475C7.06642 26.9705 7.381 26.5994 7.75578 26.1584L8.21868 25.6735C8.03026 25.1753 8.08271 24.9898 8.47411 24.7237C8.72566 24.5527 9.02118 24.3208 9.29118 24.1353C9.96527 24.4945 10.3856 24.612 11.1597 24.8246C11.3569 24.8567 11.4696 24.8885 11.662 24.8246C11.8373 24.6781 13.2548 18.1147 13.2515 17.855C13.2482 17.5952 13.6382 17.3346 14.0614 17.5854C14.7452 17.9907 14.9394 18.2853 15.6762 19.4297C17.3065 18.4166 18.4257 17.8062 19.7442 17.4429L19.7981 17.5428C19.7981 17.5428 19.1727 18.0301 19.0707 18.1089C18.9063 18.2359 18.7178 18.3992 18.5588 18.5671C18.3656 18.7713 18.1751 18.8689 18.02 19.0792C17.655 19.5743 17.455 20.025 16.4755 19.969C16.178 19.969 15.9313 20.1111 15.6492 20.3191C15.419 20.489 15.3522 20.9278 15.153 20.8582C14.8719 20.7601 14.41 20.993 14.383 21.1817C14.3561 21.3704 13.9088 21.4399 13.7903 21.6244C13.6718 21.8089 13.7648 22.3887 13.7003 22.8736C13.6165 23.5034 13.5998 23.8763 13.3599 24.4646C13.1707 25.1979 13.1296 25.1793 12.8474 25.6292C12.6251 25.9835 12.1462 26.2956 12.1469 26.5456Z" fill="#FD750F"/>
<path d="M25.533 22.5318C25.2762 22.4434 25.0346 22.2906 24.8289 22.0865C24.5173 21.7775 24.5159 21.7722 24.5177 20.9157C24.5185 20.5206 24.5341 20.0238 24.5524 19.8116C24.5652 19.6642 24.5909 19.3305 24.6213 18.9359C24.6214 18.9351 24.6214 18.9344 24.6215 18.9336L24.6215 18.9334L24.6215 18.9333C24.6437 18.6455 24.6684 18.3254 24.6923 18.0218C24.7359 17.4692 24.7769 16.9711 24.7961 16.8204L24.8266 16.581H25.1099V21.0886H25.4529V16.581H25.8487V21.0886H26.0232L26.1948 21.092V16.5821H26.5977V21.092H26.9468V16.5821H27.2352L27.2662 16.8216C27.2965 17.0552 27.3803 18.1237 27.444 18.9359L27.444 18.9359L27.444 18.9365L27.444 18.9366C27.4441 18.9368 27.4441 18.937 27.4441 18.9372C27.446 18.9617 27.4479 18.986 27.4498 19.01C27.4783 19.3731 27.5021 19.6758 27.5143 19.8143C27.5247 19.9329 27.5343 20.1405 27.5408 20.3696C27.546 20.5504 27.5493 20.7446 27.5496 20.919C27.5514 21.7761 27.55 21.7813 27.2329 22.0905C27.0235 22.2947 26.7775 22.4476 26.5161 22.5361L26.3559 22.5903L26.3561 22.7396C26.3561 22.8217 26.4472 24.1214 26.4472 24.1214L26.6741 25.8754L26.6769 25.8758C26.7011 25.8793 26.7252 25.8831 26.7495 25.8871L26.7515 25.8875C26.8304 25.9007 26.9097 25.9168 26.9895 25.9362C26.9843 26.0366 26.9801 26.1221 26.976 26.2064L26.9748 26.2299C26.9737 26.2516 26.9727 26.2733 26.9716 26.2952C26.971 26.3077 26.9704 26.3203 26.9697 26.333C26.9694 26.3406 26.969 26.3483 26.9686 26.356C26.9676 26.3761 26.9666 26.3966 26.9655 26.4176C26.8902 26.4326 26.8154 26.4463 26.7408 26.4584C26.7169 26.4623 26.6929 26.466 26.669 26.4696L26.6637 26.4704C26.6538 26.4719 26.6439 26.4733 26.634 26.4748C26.2049 26.5361 25.7827 26.5439 25.3275 26.4668C25.3168 26.465 25.306 26.4631 25.2951 26.4612C25.29 26.4603 25.2849 26.4593 25.2797 26.4584C25.1845 26.4411 25.0879 26.4201 24.9893 26.3951C25.0088 26.324 25.0256 26.2625 25.0408 26.2064C25.0437 26.1958 25.0465 26.1854 25.0493 26.1751C25.0498 26.173 25.0504 26.1709 25.0509 26.1689C25.0544 26.1563 25.0577 26.144 25.061 26.1319C25.0642 26.1198 25.0674 26.1079 25.0706 26.0962L25.0797 26.0627L25.0797 26.0627L25.0802 26.0607L25.0803 26.0603C25.0804 26.0601 25.0804 26.0599 25.0805 26.0597C25.0807 26.0588 25.0809 26.058 25.0812 26.0571C25.0964 26.0009 25.111 25.9468 25.1267 25.8891L25.151 25.887L25.1515 25.887C25.1527 25.8869 25.154 25.8868 25.1552 25.8867C25.1722 25.8852 25.1892 25.8838 25.2061 25.8824C25.2201 25.8812 25.2341 25.88 25.248 25.8789C25.2956 25.8749 25.3431 25.871 25.3904 25.8673L25.3943 25.867L25.6202 24.1214C25.6202 24.1214 25.6902 22.8172 25.6903 22.7352L25.6904 22.586L25.533 22.5318Z" fill="#FD750F"/>
<path d="M26.6627 26.7833C26.655 26.8932 26.6489 26.9855 26.6428 27.0774L26.6424 27.0836C26.6422 27.0865 26.642 27.0895 26.6418 27.0924C26.6389 27.1358 26.6361 27.1792 26.633 27.2246L26.6325 27.2319H25.3536C25.353 27.2215 25.3524 27.2111 25.3519 27.2007C25.3514 27.192 25.3509 27.1834 25.3505 27.1747C25.3487 27.1421 25.3469 27.1097 25.3451 27.0774C25.341 27.0041 25.3368 26.9307 25.3324 26.8538L25.3275 26.7679H26.6637L26.6627 26.7833Z" fill="#FD750F"/>
<path d="M28.48 28.0103C28.583 28.1291 28.5997 28.3738 28.5653 28.5428C28.3729 29.5043 28.1732 30.4658 27.936 31.4181C27.7412 32.1943 27.2778 32.7356 26.641 33.1111C26.6039 33.133 26.5661 33.1544 26.5278 33.1752C26.3599 33.2663 26.1811 33.3468 25.9928 33.418C25.9531 33.4329 25.9095 33.4369 25.8611 33.4415L25.861 33.4415L25.861 33.4415C25.8396 33.4435 25.8174 33.4455 25.7941 33.4487C25.7251 33.4487 25.6671 33.441 25.5996 33.4254C25.5407 33.4119 25.4746 33.3923 25.3879 33.3665L25.3495 33.3552C25.3293 33.3437 25.3088 33.3329 25.2882 33.3224C25.2837 33.3201 25.2792 33.3179 25.2747 33.3156C25.2706 33.3136 25.2665 33.3115 25.2624 33.3095C25.245 33.3009 25.2276 33.2925 25.2103 33.2842L25.2101 33.2841L25.1963 33.2775C25.0637 33.2134 24.9349 33.1481 24.8468 33.0105C24.8089 32.9512 24.7785 32.8785 24.7586 32.7866C24.7521 32.7562 24.7466 32.7237 24.7425 32.6889C24.8518 32.6999 24.9587 32.7107 25.0641 32.7212C25.0871 32.7235 25.1101 32.7258 25.1329 32.7281C25.1394 32.7288 25.1459 32.7294 25.1524 32.7301C25.1601 32.7308 25.1677 32.7316 25.1753 32.7323C25.1923 32.734 25.2092 32.7357 25.2261 32.7374C25.2844 32.7432 25.3422 32.749 25.3998 32.7547C25.5395 32.7685 25.6777 32.782 25.816 32.7954C25.6953 32.6884 25.5673 32.6199 25.4351 32.5748C25.362 32.5499 25.2875 32.5322 25.2123 32.5191C25.1865 32.5146 25.1606 32.5106 25.1346 32.5071C25.0911 32.5013 25.0474 32.4967 25.0037 32.4929C24.9334 32.4868 24.8628 32.4827 24.7924 32.4786L24.7923 32.4785L24.7922 32.4785L24.7643 32.4769C24.6407 32.4696 24.5179 32.4616 24.3981 32.4419C24.3287 32.4305 24.2602 32.4153 24.1932 32.394C23.9561 32.081 23.9902 31.8216 24.1921 31.58C24.2219 31.5443 24.2554 31.5089 24.2923 31.4739C24.3046 31.4621 24.3174 31.4503 24.3305 31.4386C24.5662 31.408 24.8057 31.4032 25.0457 31.3993L25.0709 31.3989C25.0944 31.3985 25.1179 31.3981 25.1413 31.3977C25.3183 31.3947 25.4953 31.3903 25.671 31.3746C25.8545 31.3582 26.0365 31.3294 26.2154 31.2768C26.0498 31.2174 25.8807 31.1905 25.7092 31.1805C25.5257 31.1698 25.3395 31.1783 25.1517 31.1869L25.1517 31.1869C25.1438 31.1872 25.1359 31.1876 25.128 31.1879C25.0951 31.1894 25.0621 31.1909 25.0291 31.1923C24.7852 31.2023 24.5392 31.2054 24.2936 31.16C24.2652 31.1548 24.2369 31.1489 24.2086 31.1423C24.0469 31.1047 23.8855 31.0439 23.7251 30.9481C23.7626 30.8175 23.7982 30.6929 23.8326 30.5725L23.8326 30.5722L23.8327 30.5719L23.8328 30.5716L23.8336 30.5688L23.8339 30.5679C23.834 30.5673 23.8342 30.5667 23.8344 30.5661C23.8555 30.4922 23.8762 30.4198 23.8965 30.3485C23.9022 30.3288 23.9078 30.3092 23.9134 30.2897C24.0791 30.279 24.2377 30.2686 24.3912 30.2584L24.3916 30.2584C24.5096 30.2507 24.6246 30.2431 24.7375 30.2357L24.7375 30.2357C24.8096 30.2311 24.8807 30.2265 24.9513 30.222C24.9899 30.2195 25.0282 30.2171 25.0664 30.2147C25.1977 30.2066 25.3274 30.1988 25.4571 30.1914C25.6074 30.1832 25.7577 30.1755 25.9081 30.168C26.0927 30.1589 26.2773 30.1503 26.462 30.1416L26.5846 30.1359C26.6677 30.132 26.7508 30.128 26.8338 30.1241L26.8604 30.1228C26.86 30.1075 26.8598 30.0923 26.8596 30.0772C26.8591 30.0467 26.8587 30.0164 26.8573 29.9856L26.8536 29.985C26.827 29.9804 26.8003 29.9748 26.7736 29.9691L26.7734 29.9691L26.7734 29.9691C26.7083 29.9553 26.6429 29.9414 26.5774 29.9436C26.3673 29.9513 26.1571 29.9609 25.9469 29.9708C25.9093 29.9726 25.8718 29.9744 25.8342 29.9762L25.8237 29.9767L25.8217 29.9768L25.8216 29.9768L25.8215 29.9768L25.8215 29.9768L25.8212 29.9768L25.8208 29.9768C25.6959 29.9828 25.571 29.9887 25.4461 29.9943L25.4457 29.9943C25.315 30.0002 25.1843 30.0057 25.0535 30.0104C25.0139 30.0119 24.9743 30.0132 24.9347 30.0145C24.8672 30.0167 24.7996 30.0187 24.7321 30.0204C24.643 30.0226 24.5529 30.0298 24.4628 30.037C24.2717 30.0524 24.0801 30.0678 23.8966 30.0353C23.841 30.0254 23.7861 30.0112 23.7322 29.9912C23.6581 29.9638 23.5858 29.9255 23.516 29.8729C23.4262 29.3442 23.5321 29.0615 23.8936 28.9601C23.9432 28.9462 23.9976 28.9357 24.057 28.9284C24.1113 28.9218 24.1699 28.9179 24.2328 28.9165C24.4371 28.9121 24.6415 28.9091 24.8459 28.9071C24.8918 28.9066 24.9377 28.9062 24.9836 28.9059C25.2542 28.9037 25.5249 28.9028 25.7955 28.902C25.7957 28.902 25.7958 28.902 25.796 28.902H25.7965C25.7976 28.902 25.7987 28.902 25.7998 28.902C25.919 28.9016 26.0381 28.9013 26.1572 28.9008C26.4093 28.8998 26.6614 28.8982 26.9134 28.895C26.9992 28.8943 27.0845 28.8704 27.1696 28.8466L27.1696 28.8465C27.2035 28.837 27.2374 28.8276 27.2713 28.8195C27.2718 28.8194 27.2724 28.8193 27.273 28.8191C27.2731 28.8191 27.2733 28.8191 27.2735 28.819C27.2744 28.8188 27.2754 28.8186 27.2763 28.8183C27.2766 28.8183 27.2769 28.8182 27.2772 28.8181C27.2773 28.8181 27.2774 28.8181 27.2775 28.8181C27.2777 28.818 27.2778 28.818 27.278 28.818C27.2781 28.8179 27.2782 28.8179 27.2783 28.8179C27.2791 28.8177 27.2798 28.8175 27.2806 28.8174L27.2807 28.8173L27.2808 28.8173C27.282 28.817 27.2833 28.8168 27.2845 28.8165C27.2849 28.8164 27.2854 28.8163 27.2858 28.8162L27.2858 28.8161C27.2852 28.8106 27.2845 28.8051 27.2839 28.7996C27.2793 28.7611 27.2749 28.7226 27.2713 28.6841H24.9695H24.057C24.0364 28.6638 24.0172 28.6437 23.9993 28.6238C23.6694 28.2583 23.7755 27.9669 24.0892 27.6202C24.3029 27.5866 24.5185 27.5568 24.7357 27.5331C24.7889 27.5273 24.8422 27.5218 24.8956 27.5168C24.9487 27.5118 25.0019 27.5072 25.0551 27.503C25.1543 27.4952 25.2538 27.4889 25.3536 27.4844C25.7096 27.4682 26.069 27.474 26.4301 27.5121C26.4975 27.5193 26.565 27.5275 26.6325 27.5369C26.6377 27.5377 26.6429 27.5384 26.6481 27.5391C26.6533 27.5399 26.6586 27.5406 26.6638 27.5414C26.72 27.5495 26.7761 27.5585 26.8323 27.5683C26.9756 27.5934 27.1191 27.6242 27.2626 27.6612C27.3509 27.684 27.4393 27.7091 27.5277 27.7368C27.5294 27.7373 27.5311 27.7378 27.5327 27.7384C27.5352 27.7392 27.5377 27.7399 27.5402 27.7407C27.5404 27.7408 27.5406 27.7409 27.5409 27.7409L27.541 27.741C27.5415 27.7411 27.542 27.7413 27.5426 27.7415C27.5428 27.7415 27.543 27.7416 27.5433 27.7417C27.5441 27.7419 27.5448 27.7422 27.5456 27.7424C27.5479 27.7432 27.5503 27.7439 27.5526 27.7447C27.5563 27.7458 27.5599 27.747 27.5636 27.7482C27.5729 27.7041 27.5823 27.6601 27.5917 27.6171C27.3865 27.5096 27.1823 27.4022 26.9429 27.276L26.9218 27.2648L26.9228 27.251C26.9296 27.1591 26.9366 27.0677 26.9437 26.9755L26.9485 26.9136L26.9486 26.913L26.9486 26.9127L26.9527 26.8605C26.9534 26.8513 26.9541 26.8421 26.9548 26.8329C26.955 26.8307 26.9551 26.8285 26.9553 26.8263C26.9554 26.8247 26.9555 26.8232 26.9557 26.8216C26.9565 26.8105 26.9574 26.7993 26.9582 26.7881C26.9588 26.7809 26.9594 26.7736 26.9599 26.7663C26.9608 26.7554 26.9616 26.7445 26.9624 26.7336L26.9645 26.7068C26.9655 26.6935 26.9665 26.6802 26.9675 26.6668C26.9731 26.6674 26.9787 26.6679 26.9841 26.6683C26.9928 26.669 27.0013 26.6695 27.0096 26.67C27.0121 26.6701 27.0145 26.6702 27.0169 26.6703C27.0437 26.6716 27.0681 26.6718 27.0901 26.6721H27.0901C27.1388 26.6725 27.1755 26.6729 27.199 26.684C27.1996 26.6843 27.2001 26.6845 27.2006 26.6848C27.2009 26.685 27.2012 26.6851 27.2015 26.6853C27.2016 26.6853 27.2017 26.6854 27.2019 26.6855C27.2022 26.6857 27.2025 26.6858 27.2028 26.686C27.2071 26.6884 27.2108 26.6912 27.2141 26.6945C27.2341 26.7146 27.2542 26.7347 27.2743 26.7549C27.3289 26.8094 27.3836 26.864 27.4383 26.9185L27.4391 26.9193C27.7955 27.2746 28.1527 27.6306 28.48 28.0103Z" fill="#FD750F"/>
<path fill-rule="evenodd" clip-rule="evenodd" d="M27.287 26.2471L27.2868 26.2496C27.2866 26.2543 27.2864 26.2591 27.2861 26.2639C27.2864 26.2583 27.2867 26.2527 27.287 26.2471ZM27.444 18.9366C27.4441 18.9368 27.4441 18.937 27.4441 18.9372L27.444 18.9366Z" fill="#D9D9D9"/>
<path d="M6.52188 27.779H5.30831L5.3083 27.7788H5.3072L5.3059 27.7593C5.30327 27.7198 5.30076 27.6817 5.29827 27.6437L5.29777 27.6361C5.29213 27.5502 5.28648 27.4643 5.27948 27.3629L5.27757 27.3354H6.54545L6.54544 27.3356H6.54657L6.54194 27.4175C6.53489 27.5423 6.52839 27.6573 6.52188 27.779Z" fill="#FD750F"/>
<path d="M7.16042 22.6807C7.20467 22.388 7.17671 21.9229 7.17671 21.9229C7.17671 21.9229 7.16597 21.2835 7.12689 20.9458C7.01081 19.9422 6.91216 19.1984 6.60028 18.1202C6.43207 17.5387 6.3847 17.4111 6.09213 16.6558C6.01834 16.4653 5.97042 16.3713 5.9316 16.365C5.88841 16.3561 5.85658 16.4548 5.81333 16.649C5.80852 16.6705 5.80357 16.6933 5.79845 16.7172C5.79729 16.7226 5.79577 16.7307 5.7939 16.7415C5.74887 17.0013 5.50587 18.8051 5.50587 21.2029C5.50587 23.9374 5.46588 24.6789 5.42745 25.3915C5.41707 25.584 5.4068 25.7744 5.39746 26.0015L5.37253 26.4689L5.36729 26.4695C5.26594 26.4812 5.16409 26.4975 5.06143 26.5194C5.03053 26.5259 4.99956 26.533 4.9685 26.5406C4.97383 26.645 4.97809 26.7324 4.98234 26.8199L4.98235 26.82L4.98237 26.8204L4.98239 26.8208C4.98413 26.8566 4.98587 26.8924 4.98769 26.9293L4.99 26.9762L4.99122 27.0007C5.02868 27.0082 5.066 27.0153 5.10322 27.0221C5.10749 27.0229 5.11175 27.0237 5.11602 27.0244C5.68974 27.1278 6.23906 27.1401 6.86749 26.9793C6.83204 26.8491 6.80605 26.7522 6.78179 26.6618L6.78174 26.6616C6.76682 26.606 6.75255 26.5528 6.73714 26.4958L6.73606 26.4957L6.73603 26.4956L6.71282 26.4936L6.7116 26.4935C6.60973 26.4849 6.50872 26.4763 6.40827 26.4688L6.402 26.4683L6.36892 26.024C6.36129 25.8654 6.35402 25.7193 6.34731 25.5843C6.2961 24.555 6.27741 24.1792 6.38031 23.9327C6.411 23.8592 6.49156 23.7912 6.58289 23.7141C6.6656 23.6443 6.75714 23.567 6.82846 23.4715C6.8377 23.4591 6.84665 23.4471 6.85533 23.4356C6.95241 23.3061 7.01638 23.2208 7.07743 23.0596C7.123 22.9393 7.13469 22.8582 7.15102 22.7449L7.15105 22.7446C7.15396 22.7245 7.15701 22.7033 7.16042 22.6807Z" fill="#FD750F"/>
<path d="M4.39821 28.1471C4.59858 28.0414 4.79797 27.9358 5.03387 27.8105C5.02567 27.6984 5.01711 27.5873 5.00842 27.4744L5.0084 27.4741L5.00838 27.4738L5.00835 27.4734L5.00615 27.4449C5.00094 27.3772 4.99569 27.3088 4.99044 27.239L4.98935 27.2391C4.94548 27.2433 4.90692 27.2437 4.87408 27.244C4.81651 27.2446 4.77656 27.245 4.75651 27.2655C4.68568 27.337 4.61455 27.4084 4.54339 27.4799L4.54306 27.4802L4.54301 27.4803C4.30234 27.7219 4.06134 27.9638 3.83044 28.214L3.82343 28.2216C3.73224 28.3205 3.64264 28.4208 3.55528 28.5229C3.52531 28.5577 3.50304 28.6038 3.48752 28.6557L3.48741 28.6522C3.45132 28.7701 3.45043 28.9185 3.47323 29.0315C3.60748 29.7071 3.74546 30.3826 3.89855 31.0546C3.93464 31.213 3.97156 31.3712 4.00948 31.5292C4.0295 31.6126 4.04979 31.696 4.07039 31.7793C4.10856 31.9325 4.1576 32.0761 4.21672 32.2107C4.4279 32.6916 4.76769 33.0578 5.19973 33.3357C5.22885 33.3544 5.25839 33.3728 5.28833 33.3907C5.33339 33.4177 5.37937 33.4438 5.42623 33.469C5.56568 33.5441 5.71297 33.6116 5.8671 33.6722C5.88272 33.6783 5.89842 33.6844 5.91419 33.6904C5.92994 33.6964 5.94636 33.7005 5.9635 33.7036C5.97257 33.7053 5.98184 33.7067 5.99132 33.7079C6.00312 33.7094 6.01524 33.7107 6.02771 33.7119C6.03185 33.7123 6.03602 33.7127 6.04024 33.713L6.04032 33.7131C6.0606 33.715 6.08175 33.717 6.10383 33.7199C6.19543 33.7199 6.26678 33.7056 6.37042 33.6764C6.47624 33.462 6.58952 33.2469 6.70832 33.0334L6.65362 33.0388C6.58086 33.0461 6.50875 33.0534 6.43704 33.0605C6.31852 33.0723 6.20106 33.0838 6.08349 33.0953C6.31419 32.8896 6.57307 32.8327 6.83589 32.8082C7.03616 32.4612 7.24936 32.1203 7.46698 31.7957C7.33898 31.78 7.20981 31.7721 7.08008 31.7675C6.98933 31.7642 6.89831 31.7626 6.80722 31.7611L6.78898 31.7608L6.78827 31.7608C6.53105 31.7566 6.27332 31.7524 6.01984 31.7137C5.99433 31.7098 5.96889 31.7056 5.94347 31.701L5.94013 31.7004C5.86093 31.6858 5.7822 31.6675 5.70407 31.6444C5.79025 31.6133 5.8774 31.5915 5.96536 31.5766C5.98119 31.5739 5.99705 31.5715 6.01293 31.5692C6.24201 31.5367 6.47644 31.5475 6.71344 31.5585C6.82121 31.5634 6.92952 31.5684 7.03812 31.5694C7.24804 31.5712 7.45903 31.558 7.66927 31.5004C7.77597 31.348 7.88308 31.2001 7.98965 31.0579L7.96495 30.9708L7.96461 30.9696C7.93859 30.8778 7.9133 30.7886 7.8884 30.7011L7.88733 30.701L7.88729 30.7009C7.73002 30.6907 7.57956 30.6807 7.43392 30.671L7.43353 30.671L7.43343 30.671L7.42637 30.6705C7.31695 30.6633 7.21023 30.6562 7.10537 30.6494C6.87171 30.6341 6.64721 30.6198 6.42251 30.607C6.3927 30.6053 6.36289 30.6037 6.33307 30.6021C6.2916 30.5999 6.25013 30.5977 6.20864 30.5955C5.96233 30.5827 5.71576 30.5711 5.46911 30.5594L5.46851 30.5594L5.46818 30.5594L5.35341 30.5539L5.3527 30.5539C5.27677 30.5503 5.20082 30.5467 5.12488 30.543L5.11602 30.5426L5.09211 30.5415C5.09243 30.5269 5.09265 30.5125 5.09287 30.498C5.09331 30.4689 5.09375 30.4399 5.09507 30.4105C5.12147 30.4061 5.14796 30.4004 5.17452 30.3948L5.17465 30.3947C5.2364 30.3816 5.29849 30.3683 5.36058 30.3704C5.5996 30.3792 5.83863 30.3906 6.07772 30.4021C6.42214 30.4186 6.7667 30.4351 7.1116 30.4437C7.19611 30.4459 7.28154 30.4528 7.36704 30.4597L7.36708 30.4597C7.67902 30.4849 7.99199 30.5102 8.26545 30.3028C8.35738 29.7577 8.23312 29.4862 7.82125 29.4107C7.79872 29.4066 7.77534 29.403 7.75108 29.4C7.69946 29.3937 7.6439 29.3899 7.58427 29.3887C7.08967 29.3778 6.59508 29.3763 6.10049 29.3748C5.93489 29.3743 5.76929 29.3738 5.60369 29.3729L5.59905 29.3729C5.41292 29.3719 5.22679 29.3705 5.04065 29.3681C5.00869 29.3679 4.9768 29.3642 4.94496 29.3584C4.89612 29.3495 4.84739 29.3358 4.79872 29.322C4.76193 29.3116 4.72517 29.3013 4.6884 29.293C4.69334 29.2509 4.69827 29.2088 4.70222 29.1668H7.75219C8.13023 28.79 8.03547 28.4994 7.72159 28.1501C7.72134 28.15 7.72107 28.15 7.72081 28.1499L7.72048 28.1499C7.42241 28.1027 7.12032 28.0632 6.81528 28.0388C6.7174 28.0309 6.61922 28.0246 6.52077 28.0201C6.11987 28.0017 5.71454 28.013 5.3072 28.0703C5.27014 28.0755 5.23306 28.0811 5.19597 28.0871C5.18278 28.0892 5.16958 28.0914 5.15638 28.0936C5.01122 28.1182 4.86585 28.1488 4.72037 28.1862C4.65537 28.2029 4.59035 28.221 4.52532 28.2405C4.50267 28.2473 4.48002 28.2543 4.45737 28.2614C4.4465 28.2649 4.43563 28.2683 4.42475 28.2718C4.41591 28.2299 4.40706 28.188 4.39821 28.1471Z" fill="#FD750F"/>
<path d="M7.62289 32.7121C7.89235 32.3539 7.79266 32.0691 7.4926 31.799L7.49156 31.7989L7.49148 31.7988C7.48332 31.7978 7.47515 31.7967 7.46698 31.7957C7.24936 32.1203 7.03616 32.4612 6.83589 32.8082C6.90864 32.8014 6.98169 32.7971 7.05453 32.7929C7.24874 32.7814 7.44144 32.7701 7.62289 32.7121Z" fill="#FD750F"/>
<path fill-rule="evenodd" clip-rule="evenodd" d="M24.8956 27.5168L24.9695 28.6841L27.2763 28.8183L27.2735 28.819L27.273 28.8191L27.2713 28.8195C27.2374 28.8276 27.2035 28.837 27.1696 28.8465L27.1696 28.8466C27.0845 28.8704 26.9992 28.8943 26.9134 28.895C26.6614 28.8982 26.4093 28.8998 26.1572 28.9008C26.0381 28.9013 25.919 28.9016 25.7998 28.902L25.7965 28.902H25.796H25.7955C25.5249 28.9028 25.2542 28.9037 24.9836 28.9059L25.0535 30.0104C25.1843 30.0057 25.315 30.0002 25.4457 29.9943L25.4461 29.9943C25.571 29.9887 25.6959 29.9828 25.8208 29.9768L25.8212 29.9768L25.8215 29.9768L25.8215 29.9768L25.8216 29.9768L25.8217 29.9768L25.8237 29.9767L25.8342 29.9762C25.8718 29.9744 25.9093 29.9726 25.9469 29.9708C26.1571 29.9609 26.3673 29.9513 26.5774 29.9436C26.6429 29.9414 26.7083 29.9553 26.7734 29.9691L26.7734 29.9691L26.7736 29.9691C26.8003 29.9748 26.827 29.9804 26.8536 29.985L26.8573 29.9856C26.8587 30.0164 26.8591 30.0467 26.8596 30.0772C26.8598 30.0923 26.86 30.1075 26.8604 30.1228L26.8338 30.1241C26.7508 30.128 26.6677 30.132 26.5846 30.1359L26.462 30.1416C26.2773 30.1503 26.0927 30.1589 25.9081 30.168C25.7577 30.1755 25.6074 30.1832 25.4571 30.1914C25.3274 30.1988 25.1977 30.2066 25.0664 30.2147L25.128 31.1879L25.1517 31.1869L25.1517 31.1869C25.3395 31.1783 25.5257 31.1698 25.7092 31.1805C25.8807 31.1905 26.0498 31.2174 26.2154 31.2768C26.0365 31.3294 25.8545 31.3582 25.671 31.3746C25.4953 31.3903 25.3183 31.3947 25.1413 31.3977L25.2123 32.5191C25.2875 32.5322 25.362 32.5499 25.4351 32.5748C25.5673 32.6199 25.6953 32.6884 25.816 32.7954C25.6777 32.782 25.5395 32.7685 25.3998 32.7547C25.3422 32.749 25.2844 32.7432 25.2261 32.7374L25.231 32.8146C25.2126 32.787 25.194 32.7595 25.1753 32.7323L25.1524 32.7301L25.1329 32.7281L25.0641 32.7212C24.9587 32.7107 24.8518 32.6999 24.7425 32.6889C24.7466 32.7237 24.7521 32.7562 24.7586 32.7866C24.7785 32.8785 24.8089 32.9512 24.8468 33.0105C24.9349 33.1481 25.0637 33.2134 25.1963 33.2775L25.2101 33.2841L25.2103 33.2842C25.2276 33.2925 25.245 33.3009 25.2624 33.3095C25.2665 33.3115 25.2706 33.3136 25.2747 33.3156C25.2792 33.3179 25.2837 33.3201 25.2882 33.3224C25.3088 33.3329 25.3293 33.3437 25.3495 33.3552L25.3879 33.3665C25.4746 33.3923 25.5407 33.4119 25.5996 33.4254C25.6671 33.441 25.7251 33.4487 25.7941 33.4487C25.8174 33.4455 25.8396 33.4435 25.861 33.4415L25.861 33.4415L25.8611 33.4415C25.9095 33.4369 25.9531 33.4329 25.9928 33.418C26.1811 33.3468 26.3599 33.2663 26.5278 33.1752C26.5661 33.1544 26.6039 33.133 26.641 33.1111C27.2778 32.7356 27.7412 32.1943 27.936 31.4181C28.1732 30.4658 28.3729 29.5043 28.5653 28.5428C28.5997 28.3738 28.583 28.1291 28.48 28.0103C28.1527 27.6306 27.7955 27.2746 27.4391 26.9193L27.4383 26.9185C27.3836 26.864 27.3289 26.8094 27.2743 26.7549C27.2542 26.7347 27.2341 26.7146 27.2141 26.6945C27.2108 26.6912 27.2071 26.6884 27.2028 26.686L27.2019 26.6855L27.2015 26.6853L27.2006 26.6848C27.2001 26.6845 27.1996 26.6843 27.199 26.684C27.1755 26.6729 27.1388 26.6725 27.0901 26.6721H27.0901C27.0681 26.6718 27.0437 26.6716 27.0169 26.6703C27.0145 26.6702 27.0121 26.6701 27.0096 26.67C27.0013 26.6695 26.9928 26.669 26.9841 26.6683C26.9787 26.6679 26.9731 26.6674 26.9675 26.6668L26.9645 26.7068L26.9624 26.7336L26.9599 26.7663L26.9582 26.7881L26.9557 26.8216L26.9553 26.8263L26.9548 26.8329L26.9527 26.8605L26.9486 26.9127L26.9486 26.913L26.9485 26.9136L26.9437 26.9755C26.9366 27.0677 26.9296 27.1591 26.9228 27.251L26.9218 27.2648L26.9429 27.276C27.1823 27.4022 27.3865 27.5096 27.5917 27.6171C27.5823 27.6601 27.5729 27.7041 27.5636 27.7482C27.5599 27.747 27.5563 27.7458 27.5526 27.7447L27.5433 27.7417L27.5426 27.7415L27.541 27.741L27.5409 27.7409L27.5402 27.7407L27.5327 27.7384L27.5277 27.7368C27.4393 27.7091 27.3509 27.684 27.2626 27.6612C27.1191 27.6242 26.9756 27.5934 26.8323 27.5683C26.7761 27.5585 26.72 27.5495 26.6638 27.5414C26.6586 27.5406 26.6533 27.5399 26.6481 27.5391C26.6429 27.5384 26.6377 27.5377 26.6325 27.5369C26.565 27.5275 26.4975 27.5193 26.4301 27.5121C26.069 27.474 25.7096 27.4682 25.3536 27.4844C25.2538 27.4889 25.1543 27.4952 25.0551 27.503C25.0019 27.5072 24.9487 27.5118 24.8956 27.5168ZM24.9695 28.6841L27.278 28.818L27.2783 28.8179L27.2806 28.8174L27.2807 28.8173L27.2808 28.8173L27.2845 28.8165L27.2858 28.8162L27.2858 28.8161L27.2839 28.7996C27.2793 28.7611 27.2749 28.7226 27.2713 28.6841H24.9695ZM24.1921 31.58C24.4839 31.8577 24.754 32.159 25.0037 32.4929C24.9334 32.4868 24.8628 32.4827 24.7924 32.4786L24.7923 32.4785L24.7922 32.4785L24.7643 32.4769C24.6407 32.4696 24.5179 32.4616 24.3981 32.4419C24.3287 32.4305 24.2602 32.4153 24.1932 32.394C23.9561 32.081 23.9902 31.8216 24.1921 31.58ZM24.8289 22.0865C25.0346 22.2906 25.2762 22.4434 25.533 22.5318L25.6904 22.586L25.6903 22.7352C25.6902 22.8172 25.6202 24.1214 25.6202 24.1214L25.3943 25.867L25.3904 25.8673C25.3431 25.871 25.2956 25.8749 25.248 25.8789C25.2341 25.88 25.2201 25.8812 25.2061 25.8824L25.1552 25.8867L25.1515 25.887L26.9716 26.2952L26.9748 26.2299L26.976 26.2064C26.9801 26.1221 26.9843 26.0366 26.9895 25.9362C26.9097 25.9168 26.8304 25.9007 26.7515 25.8875L26.7495 25.8871C26.7252 25.8831 26.7011 25.8793 26.6769 25.8758L26.6741 25.8754L26.4472 24.1214C26.4472 24.1214 26.3561 22.8217 26.3561 22.7396L26.3559 22.5903L26.5161 22.5361C26.7775 22.4476 27.0235 22.2947 27.2329 22.0905C27.55 21.7813 27.5514 21.7761 27.5496 20.919C27.5493 20.7446 27.546 20.5504 27.5408 20.3696C27.5343 20.1405 27.5247 19.9329 27.5143 19.8143C27.5021 19.6758 27.4783 19.3731 27.4498 19.01L27.4441 18.9372L27.444 18.9366L27.444 18.9365L27.444 18.9359L27.444 18.9359C27.3803 18.1237 27.2965 17.0552 27.2662 16.8216L27.2352 16.5821H26.9468V21.092H26.5977V16.5821H26.1948V21.092L26.0232 21.0886H25.8487V16.581H25.4529V21.0886H25.1099V16.581H24.8266L24.7961 16.8204C24.7769 16.9711 24.7359 17.4692 24.6923 18.0218C24.6684 18.3254 24.6437 18.6455 24.6215 18.9333L24.6215 18.9334L24.6215 18.9336L24.6213 18.9359C24.5909 19.3305 24.5652 19.6642 24.5524 19.8116C24.5341 20.0238 24.5185 20.5206 24.5177 20.9157C24.5159 21.7722 24.5173 21.7775 24.8289 22.0865ZM26.6428 27.0774C26.6489 26.9855 26.655 26.8932 26.6627 26.7833L26.6637 26.7679H25.3275L25.3324 26.8538C25.3368 26.9307 25.341 27.0041 25.3451 27.0774C25.3469 27.1097 25.3487 27.1421 25.3505 27.1747L25.3519 27.2007L25.3536 27.2319H26.6325L26.633 27.2246C26.6361 27.1792 26.6389 27.1358 26.6418 27.0924L26.6424 27.0836L26.6428 27.0774ZM7.98965 31.0579C7.88308 31.2001 7.77597 31.348 7.66927 31.5004C7.80232 31.4639 7.93507 31.4097 8.06706 31.3303C8.04032 31.2365 8.01461 31.146 7.98965 31.0579ZM6.70832 33.0334C6.58952 33.2469 6.47624 33.462 6.37042 33.6764C6.40562 33.6664 6.44455 33.6548 6.48926 33.6415L6.49138 33.6408L6.50725 33.6361L6.52571 33.6306C6.56909 33.6058 6.61369 33.5842 6.658 33.5627L6.65851 33.5624L6.6589 33.5622C6.66951 33.5571 6.6801 33.5519 6.69065 33.5468C6.75158 33.5169 6.81123 33.4859 6.86557 33.446C6.98135 33.3609 7.07304 33.2354 7.10173 32.9939L7.10057 32.994L7.10061 32.9937C6.9928 33.0046 6.88733 33.0153 6.78348 33.0258L6.74091 33.0301L6.70832 33.0334Z" fill="#FD750F"/>
<path d="M20.4921 33.9949C20.2344 34.1525 18.8906 33.4824 18.8906 33.4824C18.8906 33.4824 15.9189 32.1022 14.4187 31.4053L14.184 31.2963C13.6581 31.052 13.26 30.8585 12.8608 30.6644L12.8608 30.6643L12.8607 30.6643L12.8607 30.6643L12.8606 30.6643C12.4582 30.4686 12.0546 30.2723 11.5175 30.0229C10.4955 30.4068 10.1663 30.2268 9.84787 30.0527C9.6284 29.9327 9.41409 29.8155 8.98158 29.8878C8.85143 30.0182 8.71388 30.1673 8.57165 30.3319C8.57047 30.3392 8.56925 30.3466 8.56801 30.354L8.54768 30.4745L8.45029 30.5484C8.40707 30.5812 8.36328 30.6096 8.31918 30.6342C8.28719 30.6738 8.25505 30.714 8.22279 30.7548L8.22406 30.7593L8.24306 30.8263L8.24331 30.8272L8.24395 30.8294L8.26031 30.8871L8.26053 30.8879C8.29295 31.0023 8.32643 31.1204 8.36209 31.2455L8.42684 31.4726L8.22461 31.5943C8.18832 31.6162 8.15202 31.6364 8.11572 31.6551L8.11537 31.6553C8.11252 31.6567 8.10967 31.6582 8.10682 31.6596L8.10447 31.6608C8.04821 31.6894 7.99199 31.7143 7.93594 31.736C7.91618 31.7437 7.89644 31.751 7.87673 31.7579C7.89755 31.7841 7.91737 31.8111 7.93594 31.8391C8.00033 31.9361 8.04958 32.044 8.07264 32.1641C8.1093 32.3551 8.07324 32.5397 7.98357 32.7143C7.95723 32.7655 7.92627 32.8159 7.89117 32.8653L7.88987 32.8671L7.88974 32.8673C7.88259 32.8774 7.87526 32.8874 7.86777 32.8973L7.80884 32.9757L7.71553 33.0055C7.623 33.0351 7.53067 33.0543 7.44157 33.0675C7.43653 33.0682 7.43151 33.0689 7.4265 33.0696C7.42271 33.0702 7.41892 33.0707 7.41515 33.0712L7.41388 33.0714L7.41034 33.0719L7.40636 33.0724L7.40064 33.0731C7.3986 33.0867 7.39639 33.1001 7.394 33.1132C7.39109 33.1291 7.38793 33.1448 7.38452 33.1601C7.36527 33.2466 7.33797 33.3236 7.30346 33.3923C7.24579 33.5071 7.16802 33.5989 7.07412 33.6733C7.0525 33.6905 7.03063 33.7062 7.00892 33.7207C6.95305 33.7579 6.89821 33.7869 6.85126 33.8104L6.84627 33.8129C6.82209 33.825 6.80114 33.8351 6.78214 33.8443L6.78191 33.8445L6.78182 33.8445C6.74229 33.8637 6.71121 33.8788 6.6771 33.8982L6.64635 33.9158L6.61244 33.9259C6.59694 33.9305 6.58178 33.935 6.56692 33.9395L6.56569 33.9399L6.56562 33.9399L6.56343 33.9406L6.56231 33.9409C6.53959 33.9477 6.51754 33.9543 6.49596 33.9607C6.39587 33.99 6.30578 34.0134 6.2056 34.0231C5.95472 34.5177 10.3441 32.3833 14.9076 35.1426C19.4711 37.902 26.2357 35.7902 25.7716 33.758C25.6055 33.7547 25.4751 33.7158 25.3091 33.6663L25.2845 33.659L25.2756 33.6563L25.26 33.6517L25.2255 33.6415L25.1943 33.6238C25.158 33.6032 25.1247 33.5872 25.0828 33.567L25.0828 33.567C25.075 33.5633 25.067 33.5594 25.0586 33.5553C25.0452 33.5489 25.0309 33.5419 25.0154 33.5342C24.946 33.4998 24.8598 33.4544 24.7773 33.3895C24.6007 33.2504 24.4788 33.0528 24.4366 32.7602C24.3273 32.7465 24.2126 32.7252 24.0977 32.6887L24.0029 32.6586L23.9431 32.5797C23.7651 32.3447 23.6783 32.0896 23.7298 31.8235C23.7618 31.6577 23.8429 31.514 23.9458 31.3893C23.819 31.3466 23.6911 31.2893 23.5636 31.2131L23.3591 31.0909L23.4073 30.9232C22.3469 30.1371 21.0486 29.5163 19.465 28.7592L19.3956 28.726C19.786 28.9126 19.9174 29.1138 20.0986 29.3912L20.0987 29.3913L20.0988 29.3914C20.1395 29.4537 20.1827 29.5199 20.2319 29.5906C20.5826 30.4282 20.7445 30.8876 20.7445 32.1305L20.7436 32.1569L20.7436 32.157L20.7436 32.1573C20.7378 32.33 20.7481 32.4721 20.8428 32.6439C20.9096 32.765 20.9701 32.9164 20.9777 33.1032C20.994 33.4995 20.7498 33.8373 20.4921 33.9949Z" fill="#FD750F"/>
<path d="M6.44711 16.0745C6.22877 15.722 6.21033 15.4122 6.29864 15.1005C6.96047 12.7785 8.03764 10.7071 10.0377 9.25338C12.6879 7.32668 15.5943 6.8722 18.7133 7.90158C19.1383 8.04142 19.5663 8.21137 19.9147 8.58719C19.838 8.6843 19.771 8.76879 19.6779 8.88435C17.7788 7.73552 15.7496 7.59277 13.6506 8.07541C12.946 8.23759 12.2056 8.35509 11.6641 8.96981C11.6893 9.15821 11.7136 9.34758 11.735 9.50878C11.1391 9.9555 10.5569 10.3935 9.97169 10.8324C9.47775 10.5149 9.28172 10.5285 8.85958 10.9587C8.12497 11.7064 7.62036 12.6018 7.271 13.5817C6.98667 14.3799 6.73727 15.1918 6.44711 16.0745Z" fill="#FD750F"/>
<path d="M21.5332 18.6679C21.533 18.671 21.5327 18.6741 21.5325 18.6772C21.5325 18.6773 21.5325 18.6775 21.5325 18.6776C21.5163 18.8975 21.5029 19.0802 21.4857 19.3299C21.4082 19.3137 21.3338 19.2982 21.2597 19.2827C21.0334 19.2355 20.8106 19.189 20.5146 19.1276C20.5059 19.1258 20.4971 19.124 20.4883 19.1221C20.4905 19.1206 20.4927 19.1191 20.4949 19.1175C20.5014 19.1131 20.5079 19.1087 20.5143 19.1043C20.8912 18.848 21.1728 18.7333 21.5332 18.6679Z" fill="#FD750F"/>
<path fill-rule="evenodd" clip-rule="evenodd" d="M20.3869 33.7251C20.1631 33.8599 18.6693 33.1547 18.6693 33.1547C18.6693 33.1547 16.0556 31.9398 14.7363 31.3264L14.716 31.3169C13.7257 30.8565 12.7297 30.3934 11.7258 29.9268C11.6114 29.8734 11.5629 29.7365 11.6192 29.6238L11.6512 29.5578C11.7055 29.449 11.8364 29.4034 11.946 29.4539C13.031 29.9553 14.1085 30.4529 15.1874 30.9511L15.2276 30.9697L15.2328 30.9721C16.3309 31.4792 17.4306 31.987 18.5412 32.5002C18.537 32.2668 18.3871 32.202 18.2595 32.1469C18.2405 32.1387 18.2221 32.1307 18.2047 32.1224C17.4508 31.7587 16.6927 31.4061 15.9342 31.0534L15.9338 31.0532L15.7858 30.9843C14.9949 30.616 14.2039 30.2487 13.4139 29.8819L13.3939 29.8726C12.9118 29.6488 12.4301 29.4251 11.9489 29.2014C11.8393 29.1509 11.7889 29.0217 11.8364 28.911C11.877 28.8173 11.9186 28.7246 11.96 28.6325C12.2538 27.9784 12.5328 27.3571 12.3058 26.6523C12.2797 26.5717 12.2952 26.4823 12.3534 26.4212C12.3904 26.3827 12.4272 26.3451 12.4636 26.308C12.6146 26.1536 12.7579 26.0071 12.879 25.8443C12.9098 25.8033 12.9415 25.762 12.9735 25.7204C13.1503 25.4904 13.3343 25.251 13.4008 24.9878C13.4458 24.8086 13.4936 24.6297 13.5415 24.4506L13.5416 24.4505L13.5416 24.4504C13.748 23.679 13.955 22.9053 13.9314 22.092C13.9305 22.0612 13.9289 22.0302 13.9272 21.9992L13.9272 21.999C13.9211 21.8843 13.9149 21.7692 13.9508 21.6638C14.0002 21.5191 14.1855 21.4773 14.3028 21.5754L14.6684 21.8809L14.7293 21.9319L15.1156 22.2547L15.4415 22.5271C15.4764 22.5562 15.5016 22.5941 15.5142 22.6378C15.6587 23.1563 15.9245 23.7827 16.6044 24.1362C16.5159 23.9889 16.4131 23.8494 16.31 23.7094C16.0771 23.3934 15.8423 23.0747 15.7664 22.6582C15.7489 22.562 15.7906 22.463 15.877 22.4154C15.8854 22.4107 15.8939 22.4061 15.9023 22.4014C16.1606 22.2588 16.4434 22.1027 16.5316 21.6308C16.3095 21.823 16.1573 21.9541 16.0127 22.0784C15.9807 22.1066 15.941 22.125 15.8993 22.1318C15.3396 22.2173 14.9837 22.0444 14.5938 21.4589C14.5123 21.3375 14.5676 21.1695 14.7063 21.1219L14.943 21.0384C15.0099 21.0151 15.0855 21.0258 15.1447 21.0656C15.3164 21.184 15.4774 21.2938 15.6393 21.4035L15.7218 21.3375L15.5074 21.0335C15.4502 20.952 15.4512 20.8403 15.5162 20.7645C15.8605 20.3596 16.295 20.1246 16.8594 20.1061C17.3861 20.0887 17.7857 19.8935 18.0563 19.3817C18.2081 19.0951 18.4651 18.8591 18.7151 18.6295C18.7591 18.5891 18.8028 18.5489 18.8458 18.5087C19.1058 18.2652 19.3796 18.0365 19.6533 17.8078L19.6535 17.8077C19.7716 17.7089 19.8898 17.6102 20.0067 17.5104C19.9956 17.4895 19.9842 17.4689 19.9728 17.4482C19.9646 17.4334 19.9563 17.4185 19.9482 17.4035C19.9451 17.3977 19.9419 17.3919 19.9388 17.3861L19.9438 17.3847C20.88 17.1181 21.8163 16.8515 22.7602 16.583C22.8921 16.5451 23.0279 16.6354 23.0454 16.7714C23.0722 16.9904 23.0974 17.206 23.1223 17.4188L23.1224 17.4199L23.1224 17.42C23.1989 18.0752 23.2724 18.7048 23.3829 19.3283C23.4538 19.729 23.5907 20.1141 23.7258 20.4944C23.8789 20.9252 24.0298 21.3499 24.0803 21.7842C24.0861 21.8434 24.0706 21.9046 24.0318 21.9493C23.8029 22.2157 23.5563 22.1618 23.3251 22.1113L23.325 22.1113C23.2975 22.1053 23.2702 22.0993 23.2432 22.094C23.1647 22.0784 23.0832 22.1056 23.0299 22.1649C22.864 22.3474 22.8786 22.5591 22.96 22.7825C23.0444 23.0184 23.0085 23.2107 22.7399 23.369C22.5821 23.3546 22.419 23.3398 22.2525 23.3247L22.2378 23.3234L22.2337 23.323L22.2285 23.3225C21.9532 23.2976 21.6691 23.2718 21.3849 23.2457C21.5969 23.4807 21.8571 23.5013 22.1147 23.5217C22.1754 23.5266 22.2359 23.5314 22.2957 23.539C22.4809 23.5632 22.6477 23.5982 22.7379 23.7341C22.8194 23.8565 22.7428 24.0255 22.6002 24.0624L22.4819 24.0934C22.3723 24.1216 22.3015 24.2284 22.316 24.3411C22.3242 24.404 22.3342 24.467 22.3442 24.5301C22.4024 24.899 22.4613 25.2714 22.1764 25.6637C22.1395 25.7142 22.0813 25.7443 22.0192 25.7501C21.8717 25.7631 21.715 25.7771 21.5527 25.7916L21.5516 25.7917C21.2897 25.8151 21.0131 25.8398 20.7361 25.8638C20.6057 25.8745 20.474 25.8798 20.3423 25.8851C20.0578 25.8966 19.7733 25.9081 19.5014 25.9745C18.8477 26.1318 18.4568 26.5746 18.3463 27.2573C18.1746 28.3158 18.1979 29.3733 18.3094 30.4357C18.4454 30.2536 18.4377 30.0517 18.4295 29.84C18.4271 29.7784 18.4247 29.716 18.4258 29.653C18.4297 29.4723 18.6411 29.3665 18.7827 29.4782C19.4829 30.0329 19.5362 30.8612 19.5939 31.7559C19.6013 31.8713 19.6088 31.9878 19.6178 32.105C20.0319 30.9484 19.5703 29.719 18.5742 29.0557C18.5121 29.014 18.4724 28.945 18.4724 28.8693V28.6081C18.5005 28.6061 18.5258 28.6028 18.5491 28.5998C18.5948 28.5939 18.6323 28.589 18.6663 28.5974C19.291 28.7528 19.7032 29.148 19.9408 29.7394C20.2628 30.5405 20.4189 31.3718 20.3869 32.2361C20.3867 32.2438 20.3864 32.2515 20.3861 32.2593L20.3861 32.2594L20.3861 32.2597C20.3774 32.5189 20.6337 32.7902 20.6895 33.0285C20.7454 33.2668 20.6108 33.5903 20.3869 33.7251ZM22.0396 22.0862C21.9426 22.0668 21.8709 21.9842 21.8612 21.8861C21.8175 21.4336 21.8922 21.3637 22.4169 21.0821C22.3782 21.1431 22.3424 21.1996 22.3085 21.253L22.3075 21.2546C22.2339 21.3707 22.1695 21.4723 22.1046 21.5744C22.0445 21.6686 22.0639 21.792 22.1482 21.8648L22.3674 22.0522C22.3626 22.0682 22.358 22.0843 22.3534 22.1003C22.3488 22.1163 22.3442 22.1323 22.3393 22.1483L22.0396 22.0862ZM19.8991 32.8673C19.8651 32.8352 19.8234 32.8139 19.7778 32.8071C19.6886 32.7941 19.5973 32.7806 19.5046 32.767L19.4903 32.7649L19.4884 32.7646C19.3373 32.7424 19.1827 32.7197 19.0281 32.6973C19.0281 32.6595 19.029 32.6225 19.03 32.5847V32.5846L19.0301 32.5818C19.9311 32.4992 20.1338 32.5944 20.3142 33.2645C20.2383 33.1917 20.1714 33.1278 20.1086 33.0679L20.108 33.0673C20.0353 32.9979 19.9682 32.9339 19.8991 32.8673ZM21.8573 19.5041C21.3937 19.573 20.9533 19.4769 20.5179 19.3419C20.0824 19.2069 20.114 19.1043 20.114 19.1043C20.114 19.1043 20.33 18.9198 20.5179 18.8138C20.7057 18.7079 20.8984 18.6528 21.0977 18.5817C21.4768 18.4465 21.8706 18.3061 22.2928 18.1552C21.7911 17.9085 21.4081 18.09 21.032 18.2681C20.7951 18.3803 20.5609 18.4913 20.3016 18.4931C21.0785 17.7726 21.8088 17.6192 22.5653 18.0309C22.7079 18.1086 22.7331 18.3145 22.6002 18.4067C22.4191 18.5326 22.338 18.7384 22.2552 18.9486C22.186 19.1245 22.1155 19.3034 21.9843 19.4409C21.9514 19.4759 21.9048 19.4973 21.8573 19.5041Z" fill="#FD750F"/>
<path d="M6.07191 15.2037C6.00495 15.0835 5.97777 15.0301 5.94478 14.9797C5.91469 14.9341 5.87878 14.8934 5.77106 14.7547C5.62742 15.2939 5.60952 15.3223 5.49112 15.7723C5.01572 16.1919 4.62863 16.5345 4.25293 16.8649C4.66119 14.7768 5.41998 11.99 7.60917 9.43079C9.79836 6.87156 13.2771 6.01599 16.4338 6.25159C18.5464 6.40926 20.4798 7.14523 21.5907 7.93718C21.1017 8.0431 20.5961 8.15096 19.9761 8.28409C19.9761 8.28409 18.5041 7.28247 16.4338 7.16825C13.0131 6.97952 10.7205 7.90158 8.6677 9.97181C6.96939 11.6845 6.07191 15.2037 6.07191 15.2037Z" fill="#FD750F"/>
<path d="M16.9837 8.78352C18.1255 8.90301 18.9465 9.46937 19.813 9.82493C20.3252 10.8618 19.514 11.7921 18.1368 12.8157C15.4087 14.8435 12.6495 16.6246 9.94753 18.4562C8.40979 17.7132 7.68828 16.4568 7.87425 14.8386C7.91579 14.4772 7.99016 14.2815 8.10222 13.9354C8.46157 12.8256 9.28085 11.8889 9.97169 11.1854C10.7945 10.4574 11.2139 10.1023 12.1406 9.6216C12.5881 9.3895 12.8477 9.27048 13.3252 9.10934C13.7168 8.97723 13.9426 8.91783 14.3483 8.83973C15.3592 8.64512 15.8419 8.66403 16.9837 8.78352Z" fill="#FD750F"/>
<path d="M10.4984 19.3276C11.1176 18.8423 11.5214 18.5727 12.2992 18.0423L12.2902 18.0903C11.9458 19.9457 11.612 21.7435 10.984 23.5584C10.4775 23.3612 10.0272 23.1853 9.55463 23.0017C10.2291 21.8081 10.7555 20.763 10.4984 19.3276Z" fill="#FD750F"/>
<path d="M15.7045 19.2125C15.3961 18.773 15.1507 18.3599 14.8414 18.0031C14.627 17.7572 14.3487 17.5345 14.0539 17.3975C13.5467 17.1612 13.2072 17.3372 13.0812 17.8855C12.8688 18.8119 12.7029 19.7501 12.5032 20.6804C12.2665 21.7848 12.0183 22.8862 11.7661 23.9877C11.7137 24.2151 11.6245 24.4348 11.5382 24.7022C10.5587 24.5515 9.68977 24.2287 8.78398 23.626C8.99539 23.4549 9.14765 23.3334 9.32997 23.1866C9.89537 23.3878 10.4646 23.591 11.0921 23.8146C11.8699 21.7614 12.1666 19.6684 12.6302 17.482C11.9791 17.9526 11.8628 18.0423 11.4538 18.3123C11.0931 18.5504 10.7459 18.809 10.3599 19.0822C10.2464 18.916 10.163 18.7954 10.0622 18.6467C10.2881 18.4902 10.4831 18.356 10.677 18.2228C13.2228 16.4632 15.7695 14.7056 18.3132 12.9431C18.5411 12.7856 18.7497 12.5999 18.963 12.422C19.5526 11.9301 20.4867 10.8349 20.0829 10.026C20.7937 10.0639 22.9375 11.2293 23.7982 11.9133C24.6589 12.5973 25.4405 13.7467 25.4405 13.7467C25.97 14.0529 26.6361 14.4227 27.1724 14.7328C27.1714 14.7756 27.1704 14.8184 27.1695 14.8621C23.4134 15.3015 19.8155 16.2639 16.4338 18.0994C16.1099 17.2079 15.6036 16.5109 14.8064 16.0734L14.692 16.1803C14.9131 16.3718 15.1517 16.5478 15.3524 16.7597C15.5551 16.9746 15.7462 17.2098 15.8936 17.4655C16.0497 17.7358 16.1477 18.04 16.2854 18.3647C16.4086 18.321 16.5424 18.2909 16.6578 18.2296C19.6613 16.6207 22.8665 15.6563 26.2356 15.213L26.2787 15.2073C26.6766 15.1547 27.0763 15.1019 27.4759 15.0925C27.666 15.0876 27.858 15.1936 28.0491 15.25L28.0374 15.4075C27.6379 15.4814 27.2364 15.5504 26.8378 15.6291C25.1096 15.9704 23.3698 16.2601 21.6581 16.6713C19.6254 17.1593 17.7052 17.9555 15.9372 19.0929C15.8732 19.1337 15.8015 19.1629 15.7045 19.2125Z" fill="#FD750F"/>
<path d="M12.1406 26.5532C12.1414 26.8271 12.2117 26.9849 12.2214 27.2003C12.2311 27.4157 12.1322 27.8519 12.006 28.1709C11.8997 28.4399 11.7607 28.6098 11.6512 28.911C11.5758 29.1184 11.5388 29.2722 11.4137 29.4539C11.2524 29.6881 10.9291 29.8964 10.9291 29.8964C10.9291 29.8964 10.6051 30.0418 10.3368 30.0312C10.0652 30.0205 10.0292 29.8964 9.82982 29.8155C9.16822 29.5472 8.64512 29.7982 8.09982 29.2249C8.22789 28.808 8.18617 28.3931 7.86307 28.0559L6.77053 27.8518C6.76082 27.6711 6.75209 27.5176 6.74336 27.3553C7.06355 26.9782 7.37792 26.607 7.75245 26.1659L8.21504 25.6809C8.02675 25.1825 8.07916 24.997 8.4703 24.7308C8.72168 24.5599 9.017 24.3279 9.28682 24.1423C9.96047 24.5016 10.3805 24.6191 11.1541 24.8318C11.3511 24.8639 11.4638 24.8957 11.656 24.8318C11.8313 24.6852 13.2478 18.1202 13.2445 17.8604C13.2412 17.6005 13.631 17.3399 14.0539 17.5908C14.7372 17.9962 14.9313 18.2908 15.6675 19.4355C17.2968 18.4222 18.4153 17.8116 19.7329 17.4482L19.7867 17.5482C19.7867 17.5482 19.1617 18.0356 19.0598 18.1144C18.8955 18.2414 18.7071 18.4047 18.5483 18.5727C18.3551 18.777 18.1648 18.8746 18.0098 19.085C17.645 19.5802 17.4452 20.031 16.4663 19.975C16.169 19.975 15.9224 20.1171 15.6406 20.3252C15.4105 20.4951 15.3438 20.934 15.1447 20.8644C14.8638 20.7663 14.4022 20.9992 14.3752 21.188C14.3483 21.3767 13.9013 21.4462 13.7829 21.6308C13.6645 21.8153 13.7575 22.3953 13.693 22.8803C13.6092 23.5103 13.5925 23.8832 13.3528 24.4717C13.1637 25.2052 13.1227 25.1866 12.8406 25.6366C12.6185 25.9909 12.14 26.3032 12.1406 26.5532Z" fill="#FD750F"/>
</svg>
