<svg width="35" height="26" viewBox="0 0 35 26" fill="none" xmlns="http://www.w3.org/2000/svg">
<path d="M0 3.625C0 1.62297 1.62297 0 3.625 0H31.375C33.377 0 35 1.62297 35 3.625V3.625C35 5.62703 33.377 7.25 31.375 7.25H3.625C1.62297 7.25 0 5.62703 0 3.625V3.625Z" fill="#FD720F"/>
<path d="M0 13C0 10.998 1.62297 9.375 3.625 9.375H31.375C33.377 9.375 35 10.998 35 13V13C35 15.002 33.377 16.625 31.375 16.625H3.625C1.62297 16.625 0 15.002 0 13V13Z" fill="#FD720F"/>
<path d="M0 22.375C0 20.373 1.62297 18.75 3.625 18.75H31.375C33.377 18.75 35 20.373 35 22.375V22.375C35 24.377 33.377 26 31.375 26H3.625C1.62297 26 0 24.377 0 22.375V22.375Z" fill="#FD720F"/>
</svg>
