<svg width="21" height="21" viewBox="0 0 21 21" fill="none" xmlns="http://www.w3.org/2000/svg">
<path d="M10.5 21C11.6585 21 12.6063 20.0308 12.6063 18.8462H8.39368C8.39368 20.0308 9.34153 21 10.5 21ZM16.819 14.5385V9.15385C16.819 5.84769 15.1023 3.08 12.0797 2.34769V1.61538C12.0797 0.721539 11.3741 0 10.5 0C9.62588 0 8.92026 0.721539 8.92026 1.61538V2.34769C5.90823 3.08 4.18104 5.83692 4.18104 9.15385V14.5385L2.07472 16.6923V17.7692H18.9253V16.6923L16.819 14.5385ZM14.7126 15.6154H6.28736V9.15385C6.28736 6.48308 7.87763 4.30769 10.5 4.30769C13.1224 4.30769 14.7126 6.48308 14.7126 9.15385V15.6154ZM5.84504 1.70154L4.33902 0.161539C1.81143 2.13231 0.147442 5.16923 0 8.61539H2.10632C2.26429 5.76154 3.69659 3.26308 5.84504 1.70154ZM18.8937 8.61539H21C20.842 5.16923 19.178 2.13231 16.661 0.161539L15.1655 1.70154C17.2929 3.26308 18.7357 5.76154 18.8937 8.61539Z" fill="white"/>
</svg>


