<svg width="328" height="104" viewBox="0 0 328 104" fill="none" xmlns="http://www.w3.org/2000/svg">
<g clip-path="url(#clip0_1051_513)">
<rect width="328" height="104" fill="white"/>
<path d="M0 0H328V104H0V0Z" fill="#FD720F"/>
<path d="M0 0H328V104H0V0Z" fill="url(#paint0_linear_1051_513)" fill-opacity="0.2"/>
<path d="M92.974 41C92.75 41 92.554 40.9347 92.386 40.804C92.218 40.664 92.134 40.4913 92.134 40.286V31.914C92.134 31.7087 92.204 31.5407 92.344 31.41C92.484 31.27 92.652 31.2 92.848 31.2H96.796C97.3 31.2 97.762 31.326 98.182 31.578C98.602 31.8207 98.938 32.1613 99.19 32.6C99.4513 33.0293 99.582 33.524 99.582 34.084C99.582 34.4573 99.5073 34.8167 99.358 35.162C99.2087 35.498 99.008 35.7967 98.756 36.058C98.504 36.3193 98.2193 36.5153 97.902 36.646L97.748 36.38C98.0373 36.4827 98.2893 36.632 98.504 36.828C98.7187 37.0147 98.8867 37.2387 99.008 37.5C99.1387 37.752 99.2087 38.0413 99.218 38.368C99.246 38.6573 99.2693 38.9 99.288 39.096C99.316 39.2827 99.3533 39.4367 99.4 39.558C99.4467 39.6793 99.5307 39.7727 99.652 39.838C99.82 39.9313 99.9227 40.0713 99.96 40.258C100.007 40.4447 99.9693 40.6127 99.848 40.762C99.764 40.874 99.6567 40.9487 99.526 40.986C99.4047 41.014 99.2787 41.0187 99.148 41C99.0173 40.972 98.9053 40.9347 98.812 40.888C98.6627 40.7947 98.5087 40.664 98.35 40.496C98.2007 40.3187 98.0793 40.076 97.986 39.768C97.8927 39.46 97.846 39.054 97.846 38.55C97.846 38.3167 97.8087 38.116 97.734 37.948C97.6593 37.78 97.5567 37.6447 97.426 37.542C97.2953 37.43 97.1413 37.3507 96.964 37.304C96.7867 37.248 96.5907 37.22 96.376 37.22H93.408L93.604 36.94V40.286C93.604 40.4913 93.548 40.664 93.436 40.804C93.324 40.9347 93.17 41 92.974 41ZM93.422 36.002H96.768C96.9827 35.9927 97.188 35.9087 97.384 35.75C97.5893 35.582 97.7527 35.358 97.874 35.078C98.0047 34.798 98.07 34.4807 98.07 34.126C98.07 33.678 97.9347 33.3047 97.664 33.006C97.4027 32.698 97.09 32.544 96.726 32.544H93.45L93.604 32.18V36.296L93.422 36.002ZM104.871 41.14C104.096 41.14 103.424 40.9813 102.855 40.664C102.286 40.3373 101.842 39.894 101.525 39.334C101.217 38.7647 101.063 38.116 101.063 37.388C101.063 36.5667 101.226 35.8667 101.553 35.288C101.889 34.7 102.323 34.252 102.855 33.944C103.387 33.6267 103.952 33.468 104.549 33.468C105.006 33.468 105.44 33.5613 105.851 33.748C106.262 33.9253 106.626 34.1773 106.943 34.504C107.27 34.8213 107.526 35.1993 107.713 35.638C107.9 36.0673 107.998 36.5387 108.007 37.052C107.998 37.2387 107.923 37.3927 107.783 37.514C107.643 37.6353 107.48 37.696 107.293 37.696H101.847L101.511 36.506H106.775L106.509 36.758V36.408C106.49 36.0813 106.383 35.7967 106.187 35.554C105.991 35.302 105.748 35.1107 105.459 34.98C105.17 34.84 104.866 34.77 104.549 34.77C104.269 34.77 103.998 34.8167 103.737 34.91C103.485 34.994 103.256 35.134 103.051 35.33C102.855 35.526 102.696 35.7873 102.575 36.114C102.463 36.4313 102.407 36.828 102.407 37.304C102.407 37.8173 102.514 38.2653 102.729 38.648C102.944 39.0307 103.233 39.3293 103.597 39.544C103.961 39.7493 104.362 39.852 104.801 39.852C105.146 39.852 105.431 39.8193 105.655 39.754C105.879 39.6793 106.066 39.5907 106.215 39.488C106.364 39.3853 106.495 39.2873 106.607 39.194C106.747 39.11 106.887 39.068 107.027 39.068C107.195 39.068 107.335 39.1287 107.447 39.25C107.559 39.362 107.615 39.4973 107.615 39.656C107.615 39.8613 107.512 40.048 107.307 40.216C107.055 40.4587 106.705 40.6733 106.257 40.86C105.818 41.0467 105.356 41.14 104.871 41.14ZM109.155 39.852C109.071 39.7213 109.034 39.572 109.043 39.404C109.053 39.2267 109.151 39.0773 109.337 38.956C109.468 38.872 109.603 38.8393 109.743 38.858C109.893 38.8673 110.033 38.9373 110.163 39.068C110.425 39.3573 110.714 39.586 111.031 39.754C111.358 39.922 111.75 40.006 112.207 40.006C112.394 39.9967 112.585 39.9687 112.781 39.922C112.977 39.866 113.145 39.7727 113.285 39.642C113.425 39.502 113.495 39.3013 113.495 39.04C113.495 38.8067 113.421 38.62 113.271 38.48C113.122 38.34 112.926 38.228 112.683 38.144C112.441 38.0507 112.179 37.9667 111.899 37.892C111.601 37.808 111.297 37.7147 110.989 37.612C110.691 37.5093 110.42 37.3787 110.177 37.22C109.935 37.052 109.734 36.8373 109.575 36.576C109.426 36.3147 109.351 35.9927 109.351 35.61C109.351 35.1713 109.473 34.7933 109.715 34.476C109.967 34.1587 110.289 33.9113 110.681 33.734C111.083 33.5567 111.517 33.468 111.983 33.468C112.254 33.468 112.539 33.5053 112.837 33.58C113.136 33.6453 113.425 33.7527 113.705 33.902C113.985 34.0513 114.228 34.2473 114.433 34.49C114.527 34.6113 114.578 34.756 114.587 34.924C114.606 35.092 114.531 35.2413 114.363 35.372C114.251 35.4653 114.116 35.5073 113.957 35.498C113.799 35.4887 113.668 35.4373 113.565 35.344C113.388 35.12 113.159 34.9473 112.879 34.826C112.599 34.6953 112.282 34.63 111.927 34.63C111.75 34.63 111.563 34.658 111.367 34.714C111.181 34.7607 111.022 34.8493 110.891 34.98C110.761 35.1107 110.695 35.302 110.695 35.554C110.695 35.7873 110.77 35.974 110.919 36.114C111.078 36.254 111.283 36.3707 111.535 36.464C111.787 36.5573 112.063 36.6413 112.361 36.716C112.651 36.7907 112.935 36.8793 113.215 36.982C113.505 37.0847 113.761 37.22 113.985 37.388C114.219 37.5467 114.405 37.7567 114.545 38.018C114.695 38.27 114.769 38.592 114.769 38.984C114.769 39.4413 114.634 39.8333 114.363 40.16C114.102 40.4773 113.766 40.72 113.355 40.888C112.954 41.056 112.529 41.14 112.081 41.14C111.549 41.14 111.017 41.0467 110.485 40.86C109.963 40.664 109.519 40.328 109.155 39.852ZM116.177 33.72H119.467C119.654 33.72 119.808 33.7853 119.929 33.916C120.06 34.0373 120.125 34.1913 120.125 34.378C120.125 34.5553 120.06 34.7047 119.929 34.826C119.808 34.9473 119.654 35.008 119.467 35.008H116.177C115.99 35.008 115.832 34.9473 115.701 34.826C115.58 34.6953 115.519 34.5413 115.519 34.364C115.519 34.1773 115.58 34.0233 115.701 33.902C115.832 33.7807 115.99 33.72 116.177 33.72ZM117.647 31.9C117.852 31.9 118.02 31.97 118.151 32.11C118.282 32.2407 118.347 32.4087 118.347 32.614V39.11C118.347 39.278 118.375 39.4133 118.431 39.516C118.487 39.6187 118.562 39.6887 118.655 39.726C118.758 39.7633 118.86 39.782 118.963 39.782C119.066 39.782 119.154 39.7633 119.229 39.726C119.313 39.6887 119.411 39.67 119.523 39.67C119.635 39.67 119.738 39.7213 119.831 39.824C119.924 39.9267 119.971 40.0667 119.971 40.244C119.971 40.468 119.85 40.65 119.607 40.79C119.364 40.93 119.103 41 118.823 41C118.664 41 118.478 40.986 118.263 40.958C118.048 40.93 117.838 40.86 117.633 40.748C117.437 40.636 117.274 40.4587 117.143 40.216C117.012 39.964 116.947 39.614 116.947 39.166V32.614C116.947 32.4087 117.012 32.2407 117.143 32.11C117.283 31.97 117.451 31.9 117.647 31.9ZM127.709 33.524C127.915 33.524 128.083 33.594 128.213 33.734C128.344 33.8647 128.409 34.0327 128.409 34.238V40.286C128.409 40.4913 128.344 40.664 128.213 40.804C128.083 40.9347 127.915 41 127.709 41C127.513 41 127.345 40.9347 127.205 40.804C127.075 40.664 127.009 40.4913 127.009 40.286V39.278L127.303 39.32C127.303 39.488 127.233 39.6747 127.093 39.88C126.963 40.0853 126.781 40.286 126.547 40.482C126.314 40.6687 126.039 40.8273 125.721 40.958C125.404 41.0793 125.063 41.14 124.699 41.14C124.055 41.14 123.477 40.9767 122.963 40.65C122.45 40.314 122.044 39.8567 121.745 39.278C121.447 38.6993 121.297 38.0413 121.297 37.304C121.297 36.548 121.447 35.8853 121.745 35.316C122.044 34.7373 122.445 34.2847 122.949 33.958C123.463 33.6313 124.032 33.468 124.657 33.468C125.059 33.468 125.427 33.5333 125.763 33.664C126.109 33.7947 126.407 33.9627 126.659 34.168C126.911 34.3733 127.103 34.5927 127.233 34.826C127.373 35.05 127.443 35.2647 127.443 35.47L127.009 35.512V34.238C127.009 34.042 127.075 33.874 127.205 33.734C127.345 33.594 127.513 33.524 127.709 33.524ZM124.853 39.852C125.292 39.852 125.679 39.74 126.015 39.516C126.351 39.292 126.613 38.9887 126.799 38.606C126.986 38.214 127.079 37.78 127.079 37.304C127.079 36.8187 126.986 36.3847 126.799 36.002C126.613 35.6193 126.351 35.316 126.015 35.092C125.679 34.868 125.292 34.756 124.853 34.756C124.424 34.756 124.041 34.868 123.705 35.092C123.379 35.316 123.117 35.6193 122.921 36.002C122.735 36.3847 122.641 36.8187 122.641 37.304C122.641 37.78 122.735 38.214 122.921 38.606C123.117 38.9887 123.379 39.292 123.705 39.516C124.041 39.74 124.424 39.852 124.853 39.852ZM135.722 33.636C135.918 33.636 136.081 33.706 136.212 33.846C136.352 33.9767 136.422 34.1447 136.422 34.35V38.032C136.422 39.0027 136.151 39.7633 135.61 40.314C135.069 40.8553 134.303 41.126 133.314 41.126C132.334 41.126 131.573 40.8553 131.032 40.314C130.5 39.7633 130.234 39.0027 130.234 38.032V34.35C130.234 34.1447 130.299 33.9767 130.43 33.846C130.561 33.706 130.729 33.636 130.934 33.636C131.13 33.636 131.293 33.706 131.424 33.846C131.564 33.9767 131.634 34.1447 131.634 34.35V38.032C131.634 38.6387 131.774 39.0913 132.054 39.39C132.343 39.6887 132.763 39.838 133.314 39.838C133.874 39.838 134.299 39.6887 134.588 39.39C134.877 39.0913 135.022 38.6387 135.022 38.032V34.35C135.022 34.1447 135.087 33.9767 135.218 33.846C135.349 33.706 135.517 33.636 135.722 33.636ZM139.069 41C138.863 41 138.695 40.9347 138.565 40.804C138.434 40.664 138.369 40.4913 138.369 40.286V34.35C138.369 34.1447 138.434 33.9767 138.565 33.846C138.695 33.706 138.863 33.636 139.069 33.636C139.265 33.636 139.428 33.706 139.559 33.846C139.699 33.9767 139.769 34.1447 139.769 34.35V35.918L139.629 35.316C139.703 35.0547 139.815 34.812 139.965 34.588C140.123 34.364 140.31 34.168 140.525 34C140.739 33.832 140.977 33.7013 141.239 33.608C141.509 33.5147 141.789 33.468 142.079 33.468C142.321 33.468 142.531 33.5333 142.709 33.664C142.886 33.7947 142.975 33.958 142.975 34.154C142.975 34.406 142.909 34.5927 142.779 34.714C142.648 34.826 142.503 34.882 142.345 34.882C142.205 34.882 142.069 34.854 141.939 34.798C141.808 34.7327 141.654 34.7 141.477 34.7C141.281 34.7 141.08 34.7513 140.875 34.854C140.669 34.9567 140.483 35.1107 140.315 35.316C140.147 35.512 140.011 35.7453 139.909 36.016C139.815 36.2867 139.769 36.59 139.769 36.926V40.286C139.769 40.4913 139.699 40.664 139.559 40.804C139.428 40.9347 139.265 41 139.069 41ZM150.09 33.524C150.296 33.524 150.464 33.594 150.594 33.734C150.725 33.8647 150.79 34.0327 150.79 34.238V40.286C150.79 40.4913 150.725 40.664 150.594 40.804C150.464 40.9347 150.296 41 150.09 41C149.894 41 149.726 40.9347 149.586 40.804C149.456 40.664 149.39 40.4913 149.39 40.286V39.278L149.684 39.32C149.684 39.488 149.614 39.6747 149.474 39.88C149.344 40.0853 149.162 40.286 148.928 40.482C148.695 40.6687 148.42 40.8273 148.102 40.958C147.785 41.0793 147.444 41.14 147.08 41.14C146.436 41.14 145.858 40.9767 145.344 40.65C144.831 40.314 144.425 39.8567 144.126 39.278C143.828 38.6993 143.678 38.0413 143.678 37.304C143.678 36.548 143.828 35.8853 144.126 35.316C144.425 34.7373 144.826 34.2847 145.33 33.958C145.844 33.6313 146.413 33.468 147.038 33.468C147.44 33.468 147.808 33.5333 148.144 33.664C148.49 33.7947 148.788 33.9627 149.04 34.168C149.292 34.3733 149.484 34.5927 149.614 34.826C149.754 35.05 149.824 35.2647 149.824 35.47L149.39 35.512V34.238C149.39 34.042 149.456 33.874 149.586 33.734C149.726 33.594 149.894 33.524 150.09 33.524ZM147.234 39.852C147.673 39.852 148.06 39.74 148.396 39.516C148.732 39.292 148.994 38.9887 149.18 38.606C149.367 38.214 149.46 37.78 149.46 37.304C149.46 36.8187 149.367 36.3847 149.18 36.002C148.994 35.6193 148.732 35.316 148.396 35.092C148.06 34.868 147.673 34.756 147.234 34.756C146.805 34.756 146.422 34.868 146.086 35.092C145.76 35.316 145.498 35.6193 145.302 36.002C145.116 36.3847 145.022 36.8187 145.022 37.304C145.022 37.78 145.116 38.214 145.302 38.606C145.498 38.9887 145.76 39.292 146.086 39.516C146.422 39.74 146.805 39.852 147.234 39.852ZM156.545 33.468C157.208 33.468 157.721 33.608 158.085 33.888C158.449 34.1587 158.701 34.5273 158.841 34.994C158.991 35.4513 159.065 35.9647 159.065 36.534V40.286C159.065 40.4913 158.995 40.664 158.855 40.804C158.725 40.9347 158.561 41 158.365 41C158.16 41 157.992 40.9347 157.861 40.804C157.731 40.664 157.665 40.4913 157.665 40.286V36.548C157.665 36.212 157.619 35.9133 157.525 35.652C157.432 35.3813 157.269 35.1667 157.035 35.008C156.811 34.84 156.494 34.756 156.083 34.756C155.701 34.756 155.365 34.84 155.075 35.008C154.786 35.1667 154.557 35.3813 154.389 35.652C154.231 35.9133 154.151 36.212 154.151 36.548V40.286C154.151 40.4913 154.081 40.664 153.941 40.804C153.811 40.9347 153.647 41 153.451 41C153.246 41 153.078 40.9347 152.947 40.804C152.817 40.664 152.751 40.4913 152.751 40.286V34.35C152.751 34.1447 152.817 33.9767 152.947 33.846C153.078 33.706 153.246 33.636 153.451 33.636C153.647 33.636 153.811 33.706 153.941 33.846C154.081 33.9767 154.151 34.1447 154.151 34.35V35.134L153.899 35.274C153.965 35.0687 154.077 34.8633 154.235 34.658C154.403 34.4433 154.604 34.2473 154.837 34.07C155.071 33.8833 155.332 33.7387 155.621 33.636C155.911 33.524 156.219 33.468 156.545 33.468ZM160.911 33.72H164.201C164.388 33.72 164.542 33.7853 164.663 33.916C164.794 34.0373 164.859 34.1913 164.859 34.378C164.859 34.5553 164.794 34.7047 164.663 34.826C164.542 34.9473 164.388 35.008 164.201 35.008H160.911C160.725 35.008 160.566 34.9473 160.435 34.826C160.314 34.6953 160.253 34.5413 160.253 34.364C160.253 34.1773 160.314 34.0233 160.435 33.902C160.566 33.7807 160.725 33.72 160.911 33.72ZM162.381 31.9C162.587 31.9 162.755 31.97 162.885 32.11C163.016 32.2407 163.081 32.4087 163.081 32.614V39.11C163.081 39.278 163.109 39.4133 163.165 39.516C163.221 39.6187 163.296 39.6887 163.389 39.726C163.492 39.7633 163.595 39.782 163.697 39.782C163.8 39.782 163.889 39.7633 163.963 39.726C164.047 39.6887 164.145 39.67 164.257 39.67C164.369 39.67 164.472 39.7213 164.565 39.824C164.659 39.9267 164.705 40.0667 164.705 40.244C164.705 40.468 164.584 40.65 164.341 40.79C164.099 40.93 163.837 41 163.557 41C163.399 41 163.212 40.986 162.997 40.958C162.783 40.93 162.573 40.86 162.367 40.748C162.171 40.636 162.008 40.4587 161.877 40.216C161.747 39.964 161.681 39.614 161.681 39.166V32.614C161.681 32.4087 161.747 32.2407 161.877 32.11C162.017 31.97 162.185 31.9 162.381 31.9ZM169.771 41.14C168.997 41.14 168.325 40.9813 167.755 40.664C167.186 40.3373 166.743 39.894 166.425 39.334C166.117 38.7647 165.963 38.116 165.963 37.388C165.963 36.5667 166.127 35.8667 166.453 35.288C166.789 34.7 167.223 34.252 167.755 33.944C168.287 33.6267 168.852 33.468 169.449 33.468C169.907 33.468 170.341 33.5613 170.751 33.748C171.162 33.9253 171.526 34.1773 171.843 34.504C172.17 34.8213 172.427 35.1993 172.613 35.638C172.8 36.0673 172.898 36.5387 172.907 37.052C172.898 37.2387 172.823 37.3927 172.683 37.514C172.543 37.6353 172.38 37.696 172.193 37.696H166.747L166.411 36.506H171.675L171.409 36.758V36.408C171.391 36.0813 171.283 35.7967 171.087 35.554C170.891 35.302 170.649 35.1107 170.359 34.98C170.07 34.84 169.767 34.77 169.449 34.77C169.169 34.77 168.899 34.8167 168.637 34.91C168.385 34.994 168.157 35.134 167.951 35.33C167.755 35.526 167.597 35.7873 167.475 36.114C167.363 36.4313 167.307 36.828 167.307 37.304C167.307 37.8173 167.415 38.2653 167.629 38.648C167.844 39.0307 168.133 39.3293 168.497 39.544C168.861 39.7493 169.263 39.852 169.701 39.852C170.047 39.852 170.331 39.8193 170.555 39.754C170.779 39.6793 170.966 39.5907 171.115 39.488C171.265 39.3853 171.395 39.2873 171.507 39.194C171.647 39.11 171.787 39.068 171.927 39.068C172.095 39.068 172.235 39.1287 172.347 39.25C172.459 39.362 172.515 39.4973 172.515 39.656C172.515 39.8613 172.413 40.048 172.207 40.216C171.955 40.4587 171.605 40.6733 171.157 40.86C170.719 41.0467 170.257 41.14 169.771 41.14Z" fill="white"/>
<path d="M99.092 46.186C99.2973 46.186 99.4607 46.256 99.582 46.396C99.7033 46.5267 99.764 46.6947 99.764 46.9V52.206C99.764 52.9527 99.6007 53.62 99.274 54.208C98.9473 54.796 98.4993 55.258 97.93 55.594C97.3607 55.9207 96.7027 56.084 95.956 56.084C95.2187 56.084 94.5607 55.9207 93.982 55.594C93.4127 55.258 92.96 54.796 92.624 54.208C92.2973 53.62 92.134 52.9527 92.134 52.206V46.9C92.134 46.6947 92.204 46.5267 92.344 46.396C92.484 46.256 92.666 46.186 92.89 46.186C93.0673 46.186 93.226 46.256 93.366 46.396C93.5153 46.5267 93.59 46.6947 93.59 46.9V52.206C93.59 52.7007 93.6973 53.1347 93.912 53.508C94.136 53.872 94.43 54.1613 94.794 54.376C95.158 54.5813 95.5453 54.684 95.956 54.684C96.404 54.684 96.8147 54.5813 97.188 54.376C97.5613 54.1613 97.86 53.872 98.084 53.508C98.3173 53.1347 98.434 52.7007 98.434 52.206V46.9C98.434 46.6947 98.49 46.5267 98.602 46.396C98.7233 46.256 98.8867 46.186 99.092 46.186ZM105.686 48.468C106.349 48.468 106.862 48.608 107.226 48.888C107.59 49.1587 107.842 49.5273 107.982 49.994C108.131 50.4513 108.206 50.9647 108.206 51.534V55.286C108.206 55.4913 108.136 55.664 107.996 55.804C107.865 55.9347 107.702 56 107.506 56C107.301 56 107.133 55.9347 107.002 55.804C106.871 55.664 106.806 55.4913 106.806 55.286V51.548C106.806 51.212 106.759 50.9133 106.666 50.652C106.573 50.3813 106.409 50.1667 106.176 50.008C105.952 49.84 105.635 49.756 105.224 49.756C104.841 49.756 104.505 49.84 104.216 50.008C103.927 50.1667 103.698 50.3813 103.53 50.652C103.371 50.9133 103.292 51.212 103.292 51.548V55.286C103.292 55.4913 103.222 55.664 103.082 55.804C102.951 55.9347 102.788 56 102.592 56C102.387 56 102.219 55.9347 102.088 55.804C101.957 55.664 101.892 55.4913 101.892 55.286V49.35C101.892 49.1447 101.957 48.9767 102.088 48.846C102.219 48.706 102.387 48.636 102.592 48.636C102.788 48.636 102.951 48.706 103.082 48.846C103.222 48.9767 103.292 49.1447 103.292 49.35V50.134L103.04 50.274C103.105 50.0687 103.217 49.8633 103.376 49.658C103.544 49.4433 103.745 49.2473 103.978 49.07C104.211 48.8833 104.473 48.7387 104.762 48.636C105.051 48.524 105.359 48.468 105.686 48.468ZM111.466 55.286C111.466 55.4913 111.401 55.664 111.27 55.804C111.139 55.9347 110.971 56 110.766 56C110.57 56 110.402 55.9347 110.262 55.804C110.131 55.664 110.066 55.4913 110.066 55.286V49.294C110.066 49.0887 110.131 48.9207 110.262 48.79C110.402 48.65 110.57 48.58 110.766 48.58C110.971 48.58 111.139 48.65 111.27 48.79C111.401 48.9207 111.466 49.0887 111.466 49.294V55.286ZM110.752 47.656C110.481 47.656 110.285 47.6093 110.164 47.516C110.043 47.4133 109.982 47.2453 109.982 47.012V46.788C109.982 46.5547 110.047 46.3913 110.178 46.298C110.309 46.2047 110.505 46.158 110.766 46.158C111.046 46.158 111.247 46.2093 111.368 46.312C111.489 46.4053 111.55 46.564 111.55 46.788V47.012C111.55 47.2547 111.485 47.4227 111.354 47.516C111.233 47.6093 111.032 47.656 110.752 47.656ZM113.517 48.566C113.657 48.566 113.788 48.6033 113.909 48.678C114.04 48.7527 114.133 48.8647 114.189 49.014L116.387 54.096L116.121 54.222L118.347 49.028C118.478 48.72 118.688 48.5707 118.977 48.58C119.164 48.58 119.318 48.6407 119.439 48.762C119.57 48.874 119.635 49.0233 119.635 49.21C119.635 49.266 119.626 49.3267 119.607 49.392C119.588 49.448 119.565 49.504 119.537 49.56L116.877 55.552C116.756 55.832 116.555 55.9813 116.275 56C116.135 56.0187 115.995 55.9907 115.855 55.916C115.724 55.832 115.622 55.7107 115.547 55.552L112.901 49.56C112.882 49.5227 112.864 49.476 112.845 49.42C112.826 49.3547 112.817 49.28 112.817 49.196C112.817 49.056 112.878 48.916 112.999 48.776C113.13 48.636 113.302 48.566 113.517 48.566ZM124.422 56.14C123.647 56.14 122.975 55.9813 122.406 55.664C121.836 55.3373 121.393 54.894 121.076 54.334C120.768 53.7647 120.614 53.116 120.614 52.388C120.614 51.5667 120.777 50.8667 121.104 50.288C121.44 49.7 121.874 49.252 122.406 48.944C122.938 48.6267 123.502 48.468 124.1 48.468C124.557 48.468 124.991 48.5613 125.402 48.748C125.812 48.9253 126.176 49.1773 126.494 49.504C126.82 49.8213 127.077 50.1993 127.264 50.638C127.45 51.0673 127.548 51.5387 127.558 52.052C127.548 52.2387 127.474 52.3927 127.334 52.514C127.194 52.6353 127.03 52.696 126.844 52.696H121.398L121.062 51.506H126.326L126.06 51.758V51.408C126.041 51.0813 125.934 50.7967 125.738 50.554C125.542 50.302 125.299 50.1107 125.01 49.98C124.72 49.84 124.417 49.77 124.1 49.77C123.82 49.77 123.549 49.8167 123.288 49.91C123.036 49.994 122.807 50.134 122.602 50.33C122.406 50.526 122.247 50.7873 122.126 51.114C122.014 51.4313 121.958 51.828 121.958 52.304C121.958 52.8173 122.065 53.2653 122.28 53.648C122.494 54.0307 122.784 54.3293 123.148 54.544C123.512 54.7493 123.913 54.852 124.352 54.852C124.697 54.852 124.982 54.8193 125.206 54.754C125.43 54.6793 125.616 54.5907 125.766 54.488C125.915 54.3853 126.046 54.2873 126.158 54.194C126.298 54.11 126.438 54.068 126.578 54.068C126.746 54.068 126.886 54.1287 126.998 54.25C127.11 54.362 127.166 54.4973 127.166 54.656C127.166 54.8613 127.063 55.048 126.858 55.216C126.606 55.4587 126.256 55.6733 125.808 55.86C125.369 56.0467 124.907 56.14 124.422 56.14ZM129.84 56C129.635 56 129.467 55.9347 129.336 55.804C129.205 55.664 129.14 55.4913 129.14 55.286V49.35C129.14 49.1447 129.205 48.9767 129.336 48.846C129.467 48.706 129.635 48.636 129.84 48.636C130.036 48.636 130.199 48.706 130.33 48.846C130.47 48.9767 130.54 49.1447 130.54 49.35V50.918L130.4 50.316C130.475 50.0547 130.587 49.812 130.736 49.588C130.895 49.364 131.081 49.168 131.296 49C131.511 48.832 131.749 48.7013 132.01 48.608C132.281 48.5147 132.561 48.468 132.85 48.468C133.093 48.468 133.303 48.5333 133.48 48.664C133.657 48.7947 133.746 48.958 133.746 49.154C133.746 49.406 133.681 49.5927 133.55 49.714C133.419 49.826 133.275 49.882 133.116 49.882C132.976 49.882 132.841 49.854 132.71 49.798C132.579 49.7327 132.425 49.7 132.248 49.7C132.052 49.7 131.851 49.7513 131.646 49.854C131.441 49.9567 131.254 50.1107 131.086 50.316C130.918 50.512 130.783 50.7453 130.68 51.016C130.587 51.2867 130.54 51.59 130.54 51.926V55.286C130.54 55.4913 130.47 55.664 130.33 55.804C130.199 55.9347 130.036 56 129.84 56ZM134.558 54.852C134.474 54.7213 134.436 54.572 134.446 54.404C134.455 54.2267 134.553 54.0773 134.74 53.956C134.87 53.872 135.006 53.8393 135.146 53.858C135.295 53.8673 135.435 53.9373 135.566 54.068C135.827 54.3573 136.116 54.586 136.434 54.754C136.76 54.922 137.152 55.006 137.61 55.006C137.796 54.9967 137.988 54.9687 138.184 54.922C138.38 54.866 138.548 54.7727 138.688 54.642C138.828 54.502 138.898 54.3013 138.898 54.04C138.898 53.8067 138.823 53.62 138.674 53.48C138.524 53.34 138.328 53.228 138.086 53.144C137.843 53.0507 137.582 52.9667 137.302 52.892C137.003 52.808 136.7 52.7147 136.392 52.612C136.093 52.5093 135.822 52.3787 135.58 52.22C135.337 52.052 135.136 51.8373 134.978 51.576C134.828 51.3147 134.754 50.9927 134.754 50.61C134.754 50.1713 134.875 49.7933 135.118 49.476C135.37 49.1587 135.692 48.9113 136.084 48.734C136.485 48.5567 136.919 48.468 137.386 48.468C137.656 48.468 137.941 48.5053 138.24 48.58C138.538 48.6453 138.828 48.7527 139.108 48.902C139.388 49.0513 139.63 49.2473 139.836 49.49C139.929 49.6113 139.98 49.756 139.99 49.924C140.008 50.092 139.934 50.2413 139.766 50.372C139.654 50.4653 139.518 50.5073 139.36 50.498C139.201 50.4887 139.07 50.4373 138.968 50.344C138.79 50.12 138.562 49.9473 138.282 49.826C138.002 49.6953 137.684 49.63 137.33 49.63C137.152 49.63 136.966 49.658 136.77 49.714C136.583 49.7607 136.424 49.8493 136.294 49.98C136.163 50.1107 136.098 50.302 136.098 50.554C136.098 50.7873 136.172 50.974 136.322 51.114C136.48 51.254 136.686 51.3707 136.938 51.464C137.19 51.5573 137.465 51.6413 137.764 51.716C138.053 51.7907 138.338 51.8793 138.618 51.982C138.907 52.0847 139.164 52.22 139.388 52.388C139.621 52.5467 139.808 52.7567 139.948 53.018C140.097 53.27 140.172 53.592 140.172 53.984C140.172 54.4413 140.036 54.8333 139.766 55.16C139.504 55.4773 139.168 55.72 138.758 55.888C138.356 56.056 137.932 56.14 137.484 56.14C136.952 56.14 136.42 56.0467 135.888 55.86C135.365 55.664 134.922 55.328 134.558 54.852ZM142.993 55.286C142.993 55.4913 142.928 55.664 142.797 55.804C142.667 55.9347 142.499 56 142.293 56C142.097 56 141.929 55.9347 141.789 55.804C141.659 55.664 141.593 55.4913 141.593 55.286V49.294C141.593 49.0887 141.659 48.9207 141.789 48.79C141.929 48.65 142.097 48.58 142.293 48.58C142.499 48.58 142.667 48.65 142.797 48.79C142.928 48.9207 142.993 49.0887 142.993 49.294V55.286ZM142.279 47.656C142.009 47.656 141.813 47.6093 141.691 47.516C141.57 47.4133 141.509 47.2453 141.509 47.012V46.788C141.509 46.5547 141.575 46.3913 141.705 46.298C141.836 46.2047 142.032 46.158 142.293 46.158C142.573 46.158 142.774 46.2093 142.895 46.312C143.017 46.4053 143.077 46.564 143.077 46.788V47.012C143.077 47.2547 143.012 47.4227 142.881 47.516C142.76 47.6093 142.559 47.656 142.279 47.656ZM144.778 48.72H148.068C148.255 48.72 148.409 48.7853 148.53 48.916C148.661 49.0373 148.726 49.1913 148.726 49.378C148.726 49.5553 148.661 49.7047 148.53 49.826C148.409 49.9473 148.255 50.008 148.068 50.008H144.778C144.592 50.008 144.433 49.9473 144.302 49.826C144.181 49.6953 144.12 49.5413 144.12 49.364C144.12 49.1773 144.181 49.0233 144.302 48.902C144.433 48.7807 144.592 48.72 144.778 48.72ZM146.248 46.9C146.454 46.9 146.622 46.97 146.752 47.11C146.883 47.2407 146.948 47.4087 146.948 47.614V54.11C146.948 54.278 146.976 54.4133 147.032 54.516C147.088 54.6187 147.163 54.6887 147.256 54.726C147.359 54.7633 147.462 54.782 147.564 54.782C147.667 54.782 147.756 54.7633 147.83 54.726C147.914 54.6887 148.012 54.67 148.124 54.67C148.236 54.67 148.339 54.7213 148.432 54.824C148.526 54.9267 148.572 55.0667 148.572 55.244C148.572 55.468 148.451 55.65 148.208 55.79C147.966 55.93 147.704 56 147.424 56C147.266 56 147.079 55.986 146.864 55.958C146.65 55.93 146.44 55.86 146.234 55.748C146.038 55.636 145.875 55.4587 145.744 55.216C145.614 54.964 145.548 54.614 145.548 54.166V47.614C145.548 47.4087 145.614 47.2407 145.744 47.11C145.884 46.97 146.052 46.9 146.248 46.9ZM156.311 48.524C156.516 48.524 156.684 48.594 156.815 48.734C156.946 48.8647 157.011 49.0327 157.011 49.238V55.286C157.011 55.4913 156.946 55.664 156.815 55.804C156.684 55.9347 156.516 56 156.311 56C156.115 56 155.947 55.9347 155.807 55.804C155.676 55.664 155.611 55.4913 155.611 55.286V54.278L155.905 54.32C155.905 54.488 155.835 54.6747 155.695 54.88C155.564 55.0853 155.382 55.286 155.149 55.482C154.916 55.6687 154.64 55.8273 154.323 55.958C154.006 56.0793 153.665 56.14 153.301 56.14C152.657 56.14 152.078 55.9767 151.565 55.65C151.052 55.314 150.646 54.8567 150.347 54.278C150.048 53.6993 149.899 53.0413 149.899 52.304C149.899 51.548 150.048 50.8853 150.347 50.316C150.646 49.7373 151.047 49.2847 151.551 48.958C152.064 48.6313 152.634 48.468 153.259 48.468C153.66 48.468 154.029 48.5333 154.365 48.664C154.71 48.7947 155.009 48.9627 155.261 49.168C155.513 49.3733 155.704 49.5927 155.835 49.826C155.975 50.05 156.045 50.2647 156.045 50.47L155.611 50.512V49.238C155.611 49.042 155.676 48.874 155.807 48.734C155.947 48.594 156.115 48.524 156.311 48.524ZM153.455 54.852C153.894 54.852 154.281 54.74 154.617 54.516C154.953 54.292 155.214 53.9887 155.401 53.606C155.588 53.214 155.681 52.78 155.681 52.304C155.681 51.8187 155.588 51.3847 155.401 51.002C155.214 50.6193 154.953 50.316 154.617 50.092C154.281 49.868 153.894 49.756 153.455 49.756C153.026 49.756 152.643 49.868 152.307 50.092C151.98 50.316 151.719 50.6193 151.523 51.002C151.336 51.3847 151.243 51.8187 151.243 52.304C151.243 52.78 151.336 53.214 151.523 53.606C151.719 53.9887 151.98 54.292 152.307 54.516C152.643 54.74 153.026 54.852 153.455 54.852ZM153.539 48.104C153.474 48.104 153.39 48.0713 153.287 48.006C153.194 47.9313 153.152 47.8333 153.161 47.712C153.161 47.6373 153.189 47.558 153.245 47.474L154.071 46.074C154.136 45.9527 154.225 45.8453 154.337 45.752C154.458 45.6493 154.594 45.598 154.743 45.598C154.958 45.598 155.121 45.6587 155.233 45.78C155.345 45.892 155.396 46.0367 155.387 46.214C155.378 46.298 155.354 46.382 155.317 46.466C155.28 46.55 155.228 46.634 155.163 46.718L154.099 47.88C154.015 47.964 153.922 48.0247 153.819 48.062C153.726 48.09 153.632 48.104 153.539 48.104ZM159.672 56C159.467 56 159.299 55.9347 159.168 55.804C159.038 55.664 158.972 55.4913 158.972 55.286V49.35C158.972 49.1447 159.038 48.9767 159.168 48.846C159.299 48.706 159.467 48.636 159.672 48.636C159.868 48.636 160.032 48.706 160.162 48.846C160.302 48.9767 160.372 49.1447 160.372 49.35V50.918L160.232 50.316C160.307 50.0547 160.419 49.812 160.568 49.588C160.727 49.364 160.914 49.168 161.128 49C161.343 48.832 161.581 48.7013 161.842 48.608C162.113 48.5147 162.393 48.468 162.682 48.468C162.925 48.468 163.135 48.5333 163.312 48.664C163.49 48.7947 163.578 48.958 163.578 49.154C163.578 49.406 163.513 49.5927 163.382 49.714C163.252 49.826 163.107 49.882 162.948 49.882C162.808 49.882 162.673 49.854 162.542 49.798C162.412 49.7327 162.258 49.7 162.08 49.7C161.884 49.7 161.684 49.7513 161.478 49.854C161.273 49.9567 161.086 50.1107 160.918 50.316C160.75 50.512 160.615 50.7453 160.512 51.016C160.419 51.2867 160.372 51.59 160.372 51.926V55.286C160.372 55.4913 160.302 55.664 160.162 55.804C160.032 55.9347 159.868 56 159.672 56ZM166.14 55.286C166.14 55.4913 166.074 55.664 165.944 55.804C165.813 55.9347 165.645 56 165.44 56C165.244 56 165.076 55.9347 164.936 55.804C164.805 55.664 164.74 55.4913 164.74 55.286V49.294C164.74 49.0887 164.805 48.9207 164.936 48.79C165.076 48.65 165.244 48.58 165.44 48.58C165.645 48.58 165.813 48.65 165.944 48.79C166.074 48.9207 166.14 49.0887 166.14 49.294V55.286ZM165.426 47.656C165.155 47.656 164.959 47.6093 164.838 47.516C164.716 47.4133 164.656 47.2453 164.656 47.012V46.788C164.656 46.5547 164.721 46.3913 164.852 46.298C164.982 46.2047 165.178 46.158 165.44 46.158C165.72 46.158 165.92 46.2093 166.042 46.312C166.163 46.4053 166.224 46.564 166.224 46.788V47.012C166.224 47.2547 166.158 47.4227 166.028 47.516C165.906 47.6093 165.706 47.656 165.426 47.656ZM175.079 52.318C175.079 53.0647 174.916 53.7273 174.589 54.306C174.262 54.8753 173.819 55.3233 173.259 55.65C172.699 55.9767 172.069 56.14 171.369 56.14C170.669 56.14 170.039 55.9767 169.479 55.65C168.919 55.3233 168.471 54.8753 168.135 54.306C167.808 53.7273 167.645 53.0647 167.645 52.318C167.645 51.562 167.808 50.8993 168.135 50.33C168.471 49.7513 168.919 49.2987 169.479 48.972C170.039 48.636 170.669 48.468 171.369 48.468C172.069 48.468 172.699 48.636 173.259 48.972C173.819 49.2987 174.262 49.7513 174.589 50.33C174.916 50.8993 175.079 51.562 175.079 52.318ZM173.679 52.318C173.679 51.8047 173.576 51.3613 173.371 50.988C173.166 50.6053 172.886 50.3067 172.531 50.092C172.186 49.868 171.798 49.756 171.369 49.756C170.94 49.756 170.548 49.868 170.193 50.092C169.838 50.3067 169.558 50.6053 169.353 50.988C169.148 51.3613 169.045 51.8047 169.045 52.318C169.045 52.8127 169.148 53.2513 169.353 53.634C169.558 54.0167 169.838 54.3153 170.193 54.53C170.548 54.7447 170.94 54.852 171.369 54.852C171.798 54.852 172.186 54.7447 172.531 54.53C172.886 54.3153 173.166 54.0167 173.371 53.634C173.576 53.2513 173.679 52.8127 173.679 52.318Z" fill="white"/>
<path fill-rule="evenodd" clip-rule="evenodd" d="M230.084 75.7042C234.119 71.3621 236.665 65.7479 236.219 58.9397C236.219 51.4866 233.713 44.7247 227.664 39.8421C223.021 36.0942 216.444 34.3746 209.976 34.5542C206.248 34.5542 202.279 35.5324 199.015 36.8302C194.536 38.6111 191.123 41.1042 188.594 44.7961C185.863 48.782 185 53.2048 185 58.452C185 65.1601 186.968 71.0146 191.289 75.1625C196.029 80.0543 203.532 84 211.245 84C218.874 84 225.514 80.6211 230.084 75.7042ZM194.308 42.2614C189.949 46.2899 188.432 52.2649 188.432 57.7297C188.432 61.3578 188.973 64.5214 191.289 67.9153C194.763 73.0063 203.388 77.0002 209.95 77.0002C215.267 77.0002 221.297 75.4595 225.504 71.9017C230.246 67.8916 232.849 61.5292 232.849 55.915C232.849 50.2716 230.535 45.4949 225.936 41.9158C220.924 37.8543 215.927 36.4716 210.641 36.4716C207.669 36.4716 203.887 37.1414 200.79 38.2864C198.179 39.2515 196.18 40.5317 194.308 42.2614Z" fill="white"/>
<path d="M194.145 24.7192C193.8 23.3367 191.553 20.8306 191.553 20.8306C191.553 20.8306 197.083 18.2382 203.219 22.2133C207.294 24.8537 207.28 34.2249 207.28 34.2249C207.28 34.2249 205.503 31.2868 203.91 31.2868C202.317 31.2868 202.194 31.0934 201.145 30.7683C199.861 30.3707 199.146 30.0527 198.034 29.2992C196.091 27.9834 194.145 24.7192 194.145 24.7192Z" fill="#9BAB49"/>
<path d="M196.211 24.9806C190.681 23.5108 186.619 29.3872 186.619 29.3872C186.619 29.3872 188.214 29.9749 189.298 30.7699C191.89 32.6709 192.422 32.8884 195.606 33.0166C197.933 33.1104 203.495 32.6416 205.371 33.0167C206.235 33.1896 207.272 34.227 207.272 34.227C207.272 34.227 203.384 26.8867 196.211 24.9806Z" fill="#C1BF0A"/>
<path fill-rule="evenodd" clip-rule="evenodd" d="M142.758 78.6089H136.756L134.089 74.7542H132.643V78.6089H127.141V63.0221H135.945C135.945 63.0221 138.444 63.1661 140.231 64.4749C141.564 65.4516 142.316 66.7584 142.316 68.7766C142.316 70.3967 142.047 71.3214 141.447 72.1844C140.589 73.4193 139.304 73.7484 139.304 73.7484L142.758 78.6089ZM135.018 67.1562C135.397 67.1562 135.972 67.3911 136.234 67.6592L136.237 67.6623C136.359 67.7864 136.533 67.9641 136.64 68.2179C136.765 68.5145 136.814 68.8958 136.814 69.1117C136.814 69.3081 136.748 69.6074 136.64 69.838C136.527 70.0798 136.311 70.2518 136.176 70.3967C135.914 70.6648 135.397 70.7319 135.018 70.7319H132.643V67.1562H135.018Z" fill="white"/>
<path d="M155 72.3296C155 74.2514 154.341 76.5828 153.262 77.4916C152.198 78.4003 150.698 78.6089 148.687 78.6089H146.081L143.185 74.419H148.339C148.339 74.419 148.876 74.3378 149.15 73.9162C149.405 73.5245 149.541 72.6445 149.541 72.3072V67.1564H145.675L142.779 63.0222H149.541H155V72.3296Z" fill="white"/>
<path d="M107.676 77.2346C109.031 76.1322 109.824 74.5307 109.824 72.4302V63.0223H104.321V72.3631C104.321 72.3631 104.271 73.4268 103.858 73.9162C103.322 74.551 102.005 74.6425 102.005 74.6425C101.635 74.6411 100.58 74.4913 100.093 73.9162C99.6063 73.3411 99.5015 72.3408 99.5015 72.3408V63H93.9538H91L93.9538 67.1006V72.4078C93.9538 74.5084 94.7471 76.1322 96.1016 77.2346C97.4714 78.337 99.5087 79 102.005 79C104.501 79 106.321 78.337 107.676 77.2346Z" fill="white"/>
<path d="M112.262 63.0221H125.447V67.1562L117.789 67.1562V69.5942H124.535V73.7484H117.789V78.6221L112.262 78.6221V63.0221Z" fill="white"/>
</g>
<defs>
<linearGradient id="paint0_linear_1051_513" x1="0" y1="0" x2="59.9265" y2="188.999" gradientUnits="userSpaceOnUse">
<stop stop-color="white"/>
<stop offset="1" stop-color="white" stop-opacity="0"/>
</linearGradient>
<clipPath id="clip0_1051_513">
<rect width="328" height="104" fill="white"/>
</clipPath>
</defs>
</svg>
