<svg width="328" height="104" viewBox="0 0 328 104" fill="none" xmlns="http://www.w3.org/2000/svg">
<path d="M0 0H328V104H0V0Z" fill="#FD720F"/>
<path d="M92.974 46C92.75 46 92.554 45.9347 92.386 45.804C92.218 45.664 92.134 45.4913 92.134 45.286V36.914C92.134 36.7087 92.204 36.5407 92.344 36.41C92.484 36.27 92.652 36.2 92.848 36.2H96.796C97.3 36.2 97.762 36.326 98.182 36.578C98.602 36.8207 98.938 37.1613 99.19 37.6C99.4513 38.0293 99.582 38.524 99.582 39.084C99.582 39.4573 99.5073 39.8167 99.358 40.162C99.2087 40.498 99.008 40.7967 98.756 41.058C98.504 41.3193 98.2193 41.5153 97.902 41.646L97.748 41.38C98.0373 41.4827 98.2893 41.632 98.504 41.828C98.7187 42.0147 98.8867 42.2387 99.008 42.5C99.1387 42.752 99.2087 43.0413 99.218 43.368C99.246 43.6573 99.2693 43.9 99.288 44.096C99.316 44.2827 99.3533 44.4367 99.4 44.558C99.4467 44.6793 99.5307 44.7727 99.652 44.838C99.82 44.9313 99.9227 45.0713 99.96 45.258C100.007 45.4447 99.9693 45.6127 99.848 45.762C99.764 45.874 99.6567 45.9487 99.526 45.986C99.4047 46.014 99.2787 46.0187 99.148 46C99.0173 45.972 98.9053 45.9347 98.812 45.888C98.6627 45.7947 98.5087 45.664 98.35 45.496C98.2007 45.3187 98.0793 45.076 97.986 44.768C97.8927 44.46 97.846 44.054 97.846 43.55C97.846 43.3167 97.8087 43.116 97.734 42.948C97.6593 42.78 97.5567 42.6447 97.426 42.542C97.2953 42.43 97.1413 42.3507 96.964 42.304C96.7867 42.248 96.5907 42.22 96.376 42.22H93.408L93.604 41.94V45.286C93.604 45.4913 93.548 45.664 93.436 45.804C93.324 45.9347 93.17 46 92.974 46ZM93.422 41.002H96.768C96.9827 40.9927 97.188 40.9087 97.384 40.75C97.5893 40.582 97.7527 40.358 97.874 40.078C98.0047 39.798 98.07 39.4807 98.07 39.126C98.07 38.678 97.9347 38.3047 97.664 38.006C97.4027 37.698 97.09 37.544 96.726 37.544H93.45L93.604 37.18V41.296L93.422 41.002ZM104.871 46.14C104.096 46.14 103.424 45.9813 102.855 45.664C102.286 45.3373 101.842 44.894 101.525 44.334C101.217 43.7647 101.063 43.116 101.063 42.388C101.063 41.5667 101.226 40.8667 101.553 40.288C101.889 39.7 102.323 39.252 102.855 38.944C103.387 38.6267 103.952 38.468 104.549 38.468C105.006 38.468 105.44 38.5613 105.851 38.748C106.262 38.9253 106.626 39.1773 106.943 39.504C107.27 39.8213 107.526 40.1993 107.713 40.638C107.9 41.0673 107.998 41.5387 108.007 42.052C107.998 42.2387 107.923 42.3927 107.783 42.514C107.643 42.6353 107.48 42.696 107.293 42.696H101.847L101.511 41.506H106.775L106.509 41.758V41.408C106.49 41.0813 106.383 40.7967 106.187 40.554C105.991 40.302 105.748 40.1107 105.459 39.98C105.17 39.84 104.866 39.77 104.549 39.77C104.269 39.77 103.998 39.8167 103.737 39.91C103.485 39.994 103.256 40.134 103.051 40.33C102.855 40.526 102.696 40.7873 102.575 41.114C102.463 41.4313 102.407 41.828 102.407 42.304C102.407 42.8173 102.514 43.2653 102.729 43.648C102.944 44.0307 103.233 44.3293 103.597 44.544C103.961 44.7493 104.362 44.852 104.801 44.852C105.146 44.852 105.431 44.8193 105.655 44.754C105.879 44.6793 106.066 44.5907 106.215 44.488C106.364 44.3853 106.495 44.2873 106.607 44.194C106.747 44.11 106.887 44.068 107.027 44.068C107.195 44.068 107.335 44.1287 107.447 44.25C107.559 44.362 107.615 44.4973 107.615 44.656C107.615 44.8613 107.512 45.048 107.307 45.216C107.055 45.4587 106.705 45.6733 106.257 45.86C105.818 46.0467 105.356 46.14 104.871 46.14ZM109.155 44.852C109.071 44.7213 109.034 44.572 109.043 44.404C109.053 44.2267 109.151 44.0773 109.337 43.956C109.468 43.872 109.603 43.8393 109.743 43.858C109.893 43.8673 110.033 43.9373 110.163 44.068C110.425 44.3573 110.714 44.586 111.031 44.754C111.358 44.922 111.75 45.006 112.207 45.006C112.394 44.9967 112.585 44.9687 112.781 44.922C112.977 44.866 113.145 44.7727 113.285 44.642C113.425 44.502 113.495 44.3013 113.495 44.04C113.495 43.8067 113.421 43.62 113.271 43.48C113.122 43.34 112.926 43.228 112.683 43.144C112.441 43.0507 112.179 42.9667 111.899 42.892C111.601 42.808 111.297 42.7147 110.989 42.612C110.691 42.5093 110.42 42.3787 110.177 42.22C109.935 42.052 109.734 41.8373 109.575 41.576C109.426 41.3147 109.351 40.9927 109.351 40.61C109.351 40.1713 109.473 39.7933 109.715 39.476C109.967 39.1587 110.289 38.9113 110.681 38.734C111.083 38.5567 111.517 38.468 111.983 38.468C112.254 38.468 112.539 38.5053 112.837 38.58C113.136 38.6453 113.425 38.7527 113.705 38.902C113.985 39.0513 114.228 39.2473 114.433 39.49C114.527 39.6113 114.578 39.756 114.587 39.924C114.606 40.092 114.531 40.2413 114.363 40.372C114.251 40.4653 114.116 40.5073 113.957 40.498C113.799 40.4887 113.668 40.4373 113.565 40.344C113.388 40.12 113.159 39.9473 112.879 39.826C112.599 39.6953 112.282 39.63 111.927 39.63C111.75 39.63 111.563 39.658 111.367 39.714C111.181 39.7607 111.022 39.8493 110.891 39.98C110.761 40.1107 110.695 40.302 110.695 40.554C110.695 40.7873 110.77 40.974 110.919 41.114C111.078 41.254 111.283 41.3707 111.535 41.464C111.787 41.5573 112.063 41.6413 112.361 41.716C112.651 41.7907 112.935 41.8793 113.215 41.982C113.505 42.0847 113.761 42.22 113.985 42.388C114.219 42.5467 114.405 42.7567 114.545 43.018C114.695 43.27 114.769 43.592 114.769 43.984C114.769 44.4413 114.634 44.8333 114.363 45.16C114.102 45.4773 113.766 45.72 113.355 45.888C112.954 46.056 112.529 46.14 112.081 46.14C111.549 46.14 111.017 46.0467 110.485 45.86C109.963 45.664 109.519 45.328 109.155 44.852ZM116.177 38.72H119.467C119.654 38.72 119.808 38.7853 119.929 38.916C120.06 39.0373 120.125 39.1913 120.125 39.378C120.125 39.5553 120.06 39.7047 119.929 39.826C119.808 39.9473 119.654 40.008 119.467 40.008H116.177C115.99 40.008 115.832 39.9473 115.701 39.826C115.58 39.6953 115.519 39.5413 115.519 39.364C115.519 39.1773 115.58 39.0233 115.701 38.902C115.832 38.7807 115.99 38.72 116.177 38.72ZM117.647 36.9C117.852 36.9 118.02 36.97 118.151 37.11C118.282 37.2407 118.347 37.4087 118.347 37.614V44.11C118.347 44.278 118.375 44.4133 118.431 44.516C118.487 44.6187 118.562 44.6887 118.655 44.726C118.758 44.7633 118.86 44.782 118.963 44.782C119.066 44.782 119.154 44.7633 119.229 44.726C119.313 44.6887 119.411 44.67 119.523 44.67C119.635 44.67 119.738 44.7213 119.831 44.824C119.924 44.9267 119.971 45.0667 119.971 45.244C119.971 45.468 119.85 45.65 119.607 45.79C119.364 45.93 119.103 46 118.823 46C118.664 46 118.478 45.986 118.263 45.958C118.048 45.93 117.838 45.86 117.633 45.748C117.437 45.636 117.274 45.4587 117.143 45.216C117.012 44.964 116.947 44.614 116.947 44.166V37.614C116.947 37.4087 117.012 37.2407 117.143 37.11C117.283 36.97 117.451 36.9 117.647 36.9ZM127.709 38.524C127.915 38.524 128.083 38.594 128.213 38.734C128.344 38.8647 128.409 39.0327 128.409 39.238V45.286C128.409 45.4913 128.344 45.664 128.213 45.804C128.083 45.9347 127.915 46 127.709 46C127.513 46 127.345 45.9347 127.205 45.804C127.075 45.664 127.009 45.4913 127.009 45.286V44.278L127.303 44.32C127.303 44.488 127.233 44.6747 127.093 44.88C126.963 45.0853 126.781 45.286 126.547 45.482C126.314 45.6687 126.039 45.8273 125.721 45.958C125.404 46.0793 125.063 46.14 124.699 46.14C124.055 46.14 123.477 45.9767 122.963 45.65C122.45 45.314 122.044 44.8567 121.745 44.278C121.447 43.6993 121.297 43.0413 121.297 42.304C121.297 41.548 121.447 40.8853 121.745 40.316C122.044 39.7373 122.445 39.2847 122.949 38.958C123.463 38.6313 124.032 38.468 124.657 38.468C125.059 38.468 125.427 38.5333 125.763 38.664C126.109 38.7947 126.407 38.9627 126.659 39.168C126.911 39.3733 127.103 39.5927 127.233 39.826C127.373 40.05 127.443 40.2647 127.443 40.47L127.009 40.512V39.238C127.009 39.042 127.075 38.874 127.205 38.734C127.345 38.594 127.513 38.524 127.709 38.524ZM124.853 44.852C125.292 44.852 125.679 44.74 126.015 44.516C126.351 44.292 126.613 43.9887 126.799 43.606C126.986 43.214 127.079 42.78 127.079 42.304C127.079 41.8187 126.986 41.3847 126.799 41.002C126.613 40.6193 126.351 40.316 126.015 40.092C125.679 39.868 125.292 39.756 124.853 39.756C124.424 39.756 124.041 39.868 123.705 40.092C123.379 40.316 123.117 40.6193 122.921 41.002C122.735 41.3847 122.641 41.8187 122.641 42.304C122.641 42.78 122.735 43.214 122.921 43.606C123.117 43.9887 123.379 44.292 123.705 44.516C124.041 44.74 124.424 44.852 124.853 44.852ZM135.722 38.636C135.918 38.636 136.081 38.706 136.212 38.846C136.352 38.9767 136.422 39.1447 136.422 39.35V43.032C136.422 44.0027 136.151 44.7633 135.61 45.314C135.069 45.8553 134.303 46.126 133.314 46.126C132.334 46.126 131.573 45.8553 131.032 45.314C130.5 44.7633 130.234 44.0027 130.234 43.032V39.35C130.234 39.1447 130.299 38.9767 130.43 38.846C130.561 38.706 130.729 38.636 130.934 38.636C131.13 38.636 131.293 38.706 131.424 38.846C131.564 38.9767 131.634 39.1447 131.634 39.35V43.032C131.634 43.6387 131.774 44.0913 132.054 44.39C132.343 44.6887 132.763 44.838 133.314 44.838C133.874 44.838 134.299 44.6887 134.588 44.39C134.877 44.0913 135.022 43.6387 135.022 43.032V39.35C135.022 39.1447 135.087 38.9767 135.218 38.846C135.349 38.706 135.517 38.636 135.722 38.636ZM139.069 46C138.863 46 138.695 45.9347 138.565 45.804C138.434 45.664 138.369 45.4913 138.369 45.286V39.35C138.369 39.1447 138.434 38.9767 138.565 38.846C138.695 38.706 138.863 38.636 139.069 38.636C139.265 38.636 139.428 38.706 139.559 38.846C139.699 38.9767 139.769 39.1447 139.769 39.35V40.918L139.629 40.316C139.703 40.0547 139.815 39.812 139.965 39.588C140.123 39.364 140.31 39.168 140.525 39C140.739 38.832 140.977 38.7013 141.239 38.608C141.509 38.5147 141.789 38.468 142.079 38.468C142.321 38.468 142.531 38.5333 142.709 38.664C142.886 38.7947 142.975 38.958 142.975 39.154C142.975 39.406 142.909 39.5927 142.779 39.714C142.648 39.826 142.503 39.882 142.345 39.882C142.205 39.882 142.069 39.854 141.939 39.798C141.808 39.7327 141.654 39.7 141.477 39.7C141.281 39.7 141.08 39.7513 140.875 39.854C140.669 39.9567 140.483 40.1107 140.315 40.316C140.147 40.512 140.011 40.7453 139.909 41.016C139.815 41.2867 139.769 41.59 139.769 41.926V45.286C139.769 45.4913 139.699 45.664 139.559 45.804C139.428 45.9347 139.265 46 139.069 46ZM150.09 38.524C150.296 38.524 150.464 38.594 150.594 38.734C150.725 38.8647 150.79 39.0327 150.79 39.238V45.286C150.79 45.4913 150.725 45.664 150.594 45.804C150.464 45.9347 150.296 46 150.09 46C149.894 46 149.726 45.9347 149.586 45.804C149.456 45.664 149.39 45.4913 149.39 45.286V44.278L149.684 44.32C149.684 44.488 149.614 44.6747 149.474 44.88C149.344 45.0853 149.162 45.286 148.928 45.482C148.695 45.6687 148.42 45.8273 148.102 45.958C147.785 46.0793 147.444 46.14 147.08 46.14C146.436 46.14 145.858 45.9767 145.344 45.65C144.831 45.314 144.425 44.8567 144.126 44.278C143.828 43.6993 143.678 43.0413 143.678 42.304C143.678 41.548 143.828 40.8853 144.126 40.316C144.425 39.7373 144.826 39.2847 145.33 38.958C145.844 38.6313 146.413 38.468 147.038 38.468C147.44 38.468 147.808 38.5333 148.144 38.664C148.49 38.7947 148.788 38.9627 149.04 39.168C149.292 39.3733 149.484 39.5927 149.614 39.826C149.754 40.05 149.824 40.2647 149.824 40.47L149.39 40.512V39.238C149.39 39.042 149.456 38.874 149.586 38.734C149.726 38.594 149.894 38.524 150.09 38.524ZM147.234 44.852C147.673 44.852 148.06 44.74 148.396 44.516C148.732 44.292 148.994 43.9887 149.18 43.606C149.367 43.214 149.46 42.78 149.46 42.304C149.46 41.8187 149.367 41.3847 149.18 41.002C148.994 40.6193 148.732 40.316 148.396 40.092C148.06 39.868 147.673 39.756 147.234 39.756C146.805 39.756 146.422 39.868 146.086 40.092C145.76 40.316 145.498 40.6193 145.302 41.002C145.116 41.3847 145.022 41.8187 145.022 42.304C145.022 42.78 145.116 43.214 145.302 43.606C145.498 43.9887 145.76 44.292 146.086 44.516C146.422 44.74 146.805 44.852 147.234 44.852ZM156.545 38.468C157.208 38.468 157.721 38.608 158.085 38.888C158.449 39.1587 158.701 39.5273 158.841 39.994C158.991 40.4513 159.065 40.9647 159.065 41.534V45.286C159.065 45.4913 158.995 45.664 158.855 45.804C158.725 45.9347 158.561 46 158.365 46C158.16 46 157.992 45.9347 157.861 45.804C157.731 45.664 157.665 45.4913 157.665 45.286V41.548C157.665 41.212 157.619 40.9133 157.525 40.652C157.432 40.3813 157.269 40.1667 157.035 40.008C156.811 39.84 156.494 39.756 156.083 39.756C155.701 39.756 155.365 39.84 155.075 40.008C154.786 40.1667 154.557 40.3813 154.389 40.652C154.231 40.9133 154.151 41.212 154.151 41.548V45.286C154.151 45.4913 154.081 45.664 153.941 45.804C153.811 45.9347 153.647 46 153.451 46C153.246 46 153.078 45.9347 152.947 45.804C152.817 45.664 152.751 45.4913 152.751 45.286V39.35C152.751 39.1447 152.817 38.9767 152.947 38.846C153.078 38.706 153.246 38.636 153.451 38.636C153.647 38.636 153.811 38.706 153.941 38.846C154.081 38.9767 154.151 39.1447 154.151 39.35V40.134L153.899 40.274C153.965 40.0687 154.077 39.8633 154.235 39.658C154.403 39.4433 154.604 39.2473 154.837 39.07C155.071 38.8833 155.332 38.7387 155.621 38.636C155.911 38.524 156.219 38.468 156.545 38.468ZM160.911 38.72H164.201C164.388 38.72 164.542 38.7853 164.663 38.916C164.794 39.0373 164.859 39.1913 164.859 39.378C164.859 39.5553 164.794 39.7047 164.663 39.826C164.542 39.9473 164.388 40.008 164.201 40.008H160.911C160.725 40.008 160.566 39.9473 160.435 39.826C160.314 39.6953 160.253 39.5413 160.253 39.364C160.253 39.1773 160.314 39.0233 160.435 38.902C160.566 38.7807 160.725 38.72 160.911 38.72ZM162.381 36.9C162.587 36.9 162.755 36.97 162.885 37.11C163.016 37.2407 163.081 37.4087 163.081 37.614V44.11C163.081 44.278 163.109 44.4133 163.165 44.516C163.221 44.6187 163.296 44.6887 163.389 44.726C163.492 44.7633 163.595 44.782 163.697 44.782C163.8 44.782 163.889 44.7633 163.963 44.726C164.047 44.6887 164.145 44.67 164.257 44.67C164.369 44.67 164.472 44.7213 164.565 44.824C164.659 44.9267 164.705 45.0667 164.705 45.244C164.705 45.468 164.584 45.65 164.341 45.79C164.099 45.93 163.837 46 163.557 46C163.399 46 163.212 45.986 162.997 45.958C162.783 45.93 162.573 45.86 162.367 45.748C162.171 45.636 162.008 45.4587 161.877 45.216C161.747 44.964 161.681 44.614 161.681 44.166V37.614C161.681 37.4087 161.747 37.2407 161.877 37.11C162.017 36.97 162.185 36.9 162.381 36.9ZM169.771 46.14C168.997 46.14 168.325 45.9813 167.755 45.664C167.186 45.3373 166.743 44.894 166.425 44.334C166.117 43.7647 165.963 43.116 165.963 42.388C165.963 41.5667 166.127 40.8667 166.453 40.288C166.789 39.7 167.223 39.252 167.755 38.944C168.287 38.6267 168.852 38.468 169.449 38.468C169.907 38.468 170.341 38.5613 170.751 38.748C171.162 38.9253 171.526 39.1773 171.843 39.504C172.17 39.8213 172.427 40.1993 172.613 40.638C172.8 41.0673 172.898 41.5387 172.907 42.052C172.898 42.2387 172.823 42.3927 172.683 42.514C172.543 42.6353 172.38 42.696 172.193 42.696H166.747L166.411 41.506H171.675L171.409 41.758V41.408C171.391 41.0813 171.283 40.7967 171.087 40.554C170.891 40.302 170.649 40.1107 170.359 39.98C170.07 39.84 169.767 39.77 169.449 39.77C169.169 39.77 168.899 39.8167 168.637 39.91C168.385 39.994 168.157 40.134 167.951 40.33C167.755 40.526 167.597 40.7873 167.475 41.114C167.363 41.4313 167.307 41.828 167.307 42.304C167.307 42.8173 167.415 43.2653 167.629 43.648C167.844 44.0307 168.133 44.3293 168.497 44.544C168.861 44.7493 169.263 44.852 169.701 44.852C170.047 44.852 170.331 44.8193 170.555 44.754C170.779 44.6793 170.966 44.5907 171.115 44.488C171.265 44.3853 171.395 44.2873 171.507 44.194C171.647 44.11 171.787 44.068 171.927 44.068C172.095 44.068 172.235 44.1287 172.347 44.25C172.459 44.362 172.515 44.4973 172.515 44.656C172.515 44.8613 172.413 45.048 172.207 45.216C171.955 45.4587 171.605 45.6733 171.157 45.86C170.719 46.0467 170.257 46.14 169.771 46.14Z" fill="white"/>
<path d="M99.092 51.186C99.2973 51.186 99.4607 51.256 99.582 51.396C99.7033 51.5267 99.764 51.6947 99.764 51.9V57.206C99.764 57.9527 99.6007 58.62 99.274 59.208C98.9473 59.796 98.4993 60.258 97.93 60.594C97.3607 60.9207 96.7027 61.084 95.956 61.084C95.2187 61.084 94.5607 60.9207 93.982 60.594C93.4127 60.258 92.96 59.796 92.624 59.208C92.2973 58.62 92.134 57.9527 92.134 57.206V51.9C92.134 51.6947 92.204 51.5267 92.344 51.396C92.484 51.256 92.666 51.186 92.89 51.186C93.0673 51.186 93.226 51.256 93.366 51.396C93.5153 51.5267 93.59 51.6947 93.59 51.9V57.206C93.59 57.7007 93.6973 58.1347 93.912 58.508C94.136 58.872 94.43 59.1613 94.794 59.376C95.158 59.5813 95.5453 59.684 95.956 59.684C96.404 59.684 96.8147 59.5813 97.188 59.376C97.5613 59.1613 97.86 58.872 98.084 58.508C98.3173 58.1347 98.434 57.7007 98.434 57.206V51.9C98.434 51.6947 98.49 51.5267 98.602 51.396C98.7233 51.256 98.8867 51.186 99.092 51.186ZM105.686 53.468C106.349 53.468 106.862 53.608 107.226 53.888C107.59 54.1587 107.842 54.5273 107.982 54.994C108.131 55.4513 108.206 55.9647 108.206 56.534V60.286C108.206 60.4913 108.136 60.664 107.996 60.804C107.865 60.9347 107.702 61 107.506 61C107.301 61 107.133 60.9347 107.002 60.804C106.871 60.664 106.806 60.4913 106.806 60.286V56.548C106.806 56.212 106.759 55.9133 106.666 55.652C106.573 55.3813 106.409 55.1667 106.176 55.008C105.952 54.84 105.635 54.756 105.224 54.756C104.841 54.756 104.505 54.84 104.216 55.008C103.927 55.1667 103.698 55.3813 103.53 55.652C103.371 55.9133 103.292 56.212 103.292 56.548V60.286C103.292 60.4913 103.222 60.664 103.082 60.804C102.951 60.9347 102.788 61 102.592 61C102.387 61 102.219 60.9347 102.088 60.804C101.957 60.664 101.892 60.4913 101.892 60.286V54.35C101.892 54.1447 101.957 53.9767 102.088 53.846C102.219 53.706 102.387 53.636 102.592 53.636C102.788 53.636 102.951 53.706 103.082 53.846C103.222 53.9767 103.292 54.1447 103.292 54.35V55.134L103.04 55.274C103.105 55.0687 103.217 54.8633 103.376 54.658C103.544 54.4433 103.745 54.2473 103.978 54.07C104.211 53.8833 104.473 53.7387 104.762 53.636C105.051 53.524 105.359 53.468 105.686 53.468ZM111.466 60.286C111.466 60.4913 111.401 60.664 111.27 60.804C111.139 60.9347 110.971 61 110.766 61C110.57 61 110.402 60.9347 110.262 60.804C110.131 60.664 110.066 60.4913 110.066 60.286V54.294C110.066 54.0887 110.131 53.9207 110.262 53.79C110.402 53.65 110.57 53.58 110.766 53.58C110.971 53.58 111.139 53.65 111.27 53.79C111.401 53.9207 111.466 54.0887 111.466 54.294V60.286ZM110.752 52.656C110.481 52.656 110.285 52.6093 110.164 52.516C110.043 52.4133 109.982 52.2453 109.982 52.012V51.788C109.982 51.5547 110.047 51.3913 110.178 51.298C110.309 51.2047 110.505 51.158 110.766 51.158C111.046 51.158 111.247 51.2093 111.368 51.312C111.489 51.4053 111.55 51.564 111.55 51.788V52.012C111.55 52.2547 111.485 52.4227 111.354 52.516C111.233 52.6093 111.032 52.656 110.752 52.656ZM113.517 53.566C113.657 53.566 113.788 53.6033 113.909 53.678C114.04 53.7527 114.133 53.8647 114.189 54.014L116.387 59.096L116.121 59.222L118.347 54.028C118.478 53.72 118.688 53.5707 118.977 53.58C119.164 53.58 119.318 53.6407 119.439 53.762C119.57 53.874 119.635 54.0233 119.635 54.21C119.635 54.266 119.626 54.3267 119.607 54.392C119.588 54.448 119.565 54.504 119.537 54.56L116.877 60.552C116.756 60.832 116.555 60.9813 116.275 61C116.135 61.0187 115.995 60.9907 115.855 60.916C115.724 60.832 115.622 60.7107 115.547 60.552L112.901 54.56C112.882 54.5227 112.864 54.476 112.845 54.42C112.826 54.3547 112.817 54.28 112.817 54.196C112.817 54.056 112.878 53.916 112.999 53.776C113.13 53.636 113.302 53.566 113.517 53.566ZM124.422 61.14C123.647 61.14 122.975 60.9813 122.406 60.664C121.836 60.3373 121.393 59.894 121.076 59.334C120.768 58.7647 120.614 58.116 120.614 57.388C120.614 56.5667 120.777 55.8667 121.104 55.288C121.44 54.7 121.874 54.252 122.406 53.944C122.938 53.6267 123.502 53.468 124.1 53.468C124.557 53.468 124.991 53.5613 125.402 53.748C125.812 53.9253 126.176 54.1773 126.494 54.504C126.82 54.8213 127.077 55.1993 127.264 55.638C127.45 56.0673 127.548 56.5387 127.558 57.052C127.548 57.2387 127.474 57.3927 127.334 57.514C127.194 57.6353 127.03 57.696 126.844 57.696H121.398L121.062 56.506H126.326L126.06 56.758V56.408C126.041 56.0813 125.934 55.7967 125.738 55.554C125.542 55.302 125.299 55.1107 125.01 54.98C124.72 54.84 124.417 54.77 124.1 54.77C123.82 54.77 123.549 54.8167 123.288 54.91C123.036 54.994 122.807 55.134 122.602 55.33C122.406 55.526 122.247 55.7873 122.126 56.114C122.014 56.4313 121.958 56.828 121.958 57.304C121.958 57.8173 122.065 58.2653 122.28 58.648C122.494 59.0307 122.784 59.3293 123.148 59.544C123.512 59.7493 123.913 59.852 124.352 59.852C124.697 59.852 124.982 59.8193 125.206 59.754C125.43 59.6793 125.616 59.5907 125.766 59.488C125.915 59.3853 126.046 59.2873 126.158 59.194C126.298 59.11 126.438 59.068 126.578 59.068C126.746 59.068 126.886 59.1287 126.998 59.25C127.11 59.362 127.166 59.4973 127.166 59.656C127.166 59.8613 127.063 60.048 126.858 60.216C126.606 60.4587 126.256 60.6733 125.808 60.86C125.369 61.0467 124.907 61.14 124.422 61.14ZM129.84 61C129.635 61 129.467 60.9347 129.336 60.804C129.205 60.664 129.14 60.4913 129.14 60.286V54.35C129.14 54.1447 129.205 53.9767 129.336 53.846C129.467 53.706 129.635 53.636 129.84 53.636C130.036 53.636 130.199 53.706 130.33 53.846C130.47 53.9767 130.54 54.1447 130.54 54.35V55.918L130.4 55.316C130.475 55.0547 130.587 54.812 130.736 54.588C130.895 54.364 131.081 54.168 131.296 54C131.511 53.832 131.749 53.7013 132.01 53.608C132.281 53.5147 132.561 53.468 132.85 53.468C133.093 53.468 133.303 53.5333 133.48 53.664C133.657 53.7947 133.746 53.958 133.746 54.154C133.746 54.406 133.681 54.5927 133.55 54.714C133.419 54.826 133.275 54.882 133.116 54.882C132.976 54.882 132.841 54.854 132.71 54.798C132.579 54.7327 132.425 54.7 132.248 54.7C132.052 54.7 131.851 54.7513 131.646 54.854C131.441 54.9567 131.254 55.1107 131.086 55.316C130.918 55.512 130.783 55.7453 130.68 56.016C130.587 56.2867 130.54 56.59 130.54 56.926V60.286C130.54 60.4913 130.47 60.664 130.33 60.804C130.199 60.9347 130.036 61 129.84 61ZM134.558 59.852C134.474 59.7213 134.436 59.572 134.446 59.404C134.455 59.2267 134.553 59.0773 134.74 58.956C134.87 58.872 135.006 58.8393 135.146 58.858C135.295 58.8673 135.435 58.9373 135.566 59.068C135.827 59.3573 136.116 59.586 136.434 59.754C136.76 59.922 137.152 60.006 137.61 60.006C137.796 59.9967 137.988 59.9687 138.184 59.922C138.38 59.866 138.548 59.7727 138.688 59.642C138.828 59.502 138.898 59.3013 138.898 59.04C138.898 58.8067 138.823 58.62 138.674 58.48C138.524 58.34 138.328 58.228 138.086 58.144C137.843 58.0507 137.582 57.9667 137.302 57.892C137.003 57.808 136.7 57.7147 136.392 57.612C136.093 57.5093 135.822 57.3787 135.58 57.22C135.337 57.052 135.136 56.8373 134.978 56.576C134.828 56.3147 134.754 55.9927 134.754 55.61C134.754 55.1713 134.875 54.7933 135.118 54.476C135.37 54.1587 135.692 53.9113 136.084 53.734C136.485 53.5567 136.919 53.468 137.386 53.468C137.656 53.468 137.941 53.5053 138.24 53.58C138.538 53.6453 138.828 53.7527 139.108 53.902C139.388 54.0513 139.63 54.2473 139.836 54.49C139.929 54.6113 139.98 54.756 139.99 54.924C140.008 55.092 139.934 55.2413 139.766 55.372C139.654 55.4653 139.518 55.5073 139.36 55.498C139.201 55.4887 139.07 55.4373 138.968 55.344C138.79 55.12 138.562 54.9473 138.282 54.826C138.002 54.6953 137.684 54.63 137.33 54.63C137.152 54.63 136.966 54.658 136.77 54.714C136.583 54.7607 136.424 54.8493 136.294 54.98C136.163 55.1107 136.098 55.302 136.098 55.554C136.098 55.7873 136.172 55.974 136.322 56.114C136.48 56.254 136.686 56.3707 136.938 56.464C137.19 56.5573 137.465 56.6413 137.764 56.716C138.053 56.7907 138.338 56.8793 138.618 56.982C138.907 57.0847 139.164 57.22 139.388 57.388C139.621 57.5467 139.808 57.7567 139.948 58.018C140.097 58.27 140.172 58.592 140.172 58.984C140.172 59.4413 140.036 59.8333 139.766 60.16C139.504 60.4773 139.168 60.72 138.758 60.888C138.356 61.056 137.932 61.14 137.484 61.14C136.952 61.14 136.42 61.0467 135.888 60.86C135.365 60.664 134.922 60.328 134.558 59.852ZM142.993 60.286C142.993 60.4913 142.928 60.664 142.797 60.804C142.667 60.9347 142.499 61 142.293 61C142.097 61 141.929 60.9347 141.789 60.804C141.659 60.664 141.593 60.4913 141.593 60.286V54.294C141.593 54.0887 141.659 53.9207 141.789 53.79C141.929 53.65 142.097 53.58 142.293 53.58C142.499 53.58 142.667 53.65 142.797 53.79C142.928 53.9207 142.993 54.0887 142.993 54.294V60.286ZM142.279 52.656C142.009 52.656 141.813 52.6093 141.691 52.516C141.57 52.4133 141.509 52.2453 141.509 52.012V51.788C141.509 51.5547 141.575 51.3913 141.705 51.298C141.836 51.2047 142.032 51.158 142.293 51.158C142.573 51.158 142.774 51.2093 142.895 51.312C143.017 51.4053 143.077 51.564 143.077 51.788V52.012C143.077 52.2547 143.012 52.4227 142.881 52.516C142.76 52.6093 142.559 52.656 142.279 52.656ZM144.778 53.72H148.068C148.255 53.72 148.409 53.7853 148.53 53.916C148.661 54.0373 148.726 54.1913 148.726 54.378C148.726 54.5553 148.661 54.7047 148.53 54.826C148.409 54.9473 148.255 55.008 148.068 55.008H144.778C144.592 55.008 144.433 54.9473 144.302 54.826C144.181 54.6953 144.12 54.5413 144.12 54.364C144.12 54.1773 144.181 54.0233 144.302 53.902C144.433 53.7807 144.592 53.72 144.778 53.72ZM146.248 51.9C146.454 51.9 146.622 51.97 146.752 52.11C146.883 52.2407 146.948 52.4087 146.948 52.614V59.11C146.948 59.278 146.976 59.4133 147.032 59.516C147.088 59.6187 147.163 59.6887 147.256 59.726C147.359 59.7633 147.462 59.782 147.564 59.782C147.667 59.782 147.756 59.7633 147.83 59.726C147.914 59.6887 148.012 59.67 148.124 59.67C148.236 59.67 148.339 59.7213 148.432 59.824C148.526 59.9267 148.572 60.0667 148.572 60.244C148.572 60.468 148.451 60.65 148.208 60.79C147.966 60.93 147.704 61 147.424 61C147.266 61 147.079 60.986 146.864 60.958C146.65 60.93 146.44 60.86 146.234 60.748C146.038 60.636 145.875 60.4587 145.744 60.216C145.614 59.964 145.548 59.614 145.548 59.166V52.614C145.548 52.4087 145.614 52.2407 145.744 52.11C145.884 51.97 146.052 51.9 146.248 51.9ZM156.311 53.524C156.516 53.524 156.684 53.594 156.815 53.734C156.946 53.8647 157.011 54.0327 157.011 54.238V60.286C157.011 60.4913 156.946 60.664 156.815 60.804C156.684 60.9347 156.516 61 156.311 61C156.115 61 155.947 60.9347 155.807 60.804C155.676 60.664 155.611 60.4913 155.611 60.286V59.278L155.905 59.32C155.905 59.488 155.835 59.6747 155.695 59.88C155.564 60.0853 155.382 60.286 155.149 60.482C154.916 60.6687 154.64 60.8273 154.323 60.958C154.006 61.0793 153.665 61.14 153.301 61.14C152.657 61.14 152.078 60.9767 151.565 60.65C151.052 60.314 150.646 59.8567 150.347 59.278C150.048 58.6993 149.899 58.0413 149.899 57.304C149.899 56.548 150.048 55.8853 150.347 55.316C150.646 54.7373 151.047 54.2847 151.551 53.958C152.064 53.6313 152.634 53.468 153.259 53.468C153.66 53.468 154.029 53.5333 154.365 53.664C154.71 53.7947 155.009 53.9627 155.261 54.168C155.513 54.3733 155.704 54.5927 155.835 54.826C155.975 55.05 156.045 55.2647 156.045 55.47L155.611 55.512V54.238C155.611 54.042 155.676 53.874 155.807 53.734C155.947 53.594 156.115 53.524 156.311 53.524ZM153.455 59.852C153.894 59.852 154.281 59.74 154.617 59.516C154.953 59.292 155.214 58.9887 155.401 58.606C155.588 58.214 155.681 57.78 155.681 57.304C155.681 56.8187 155.588 56.3847 155.401 56.002C155.214 55.6193 154.953 55.316 154.617 55.092C154.281 54.868 153.894 54.756 153.455 54.756C153.026 54.756 152.643 54.868 152.307 55.092C151.98 55.316 151.719 55.6193 151.523 56.002C151.336 56.3847 151.243 56.8187 151.243 57.304C151.243 57.78 151.336 58.214 151.523 58.606C151.719 58.9887 151.98 59.292 152.307 59.516C152.643 59.74 153.026 59.852 153.455 59.852ZM153.539 53.104C153.474 53.104 153.39 53.0713 153.287 53.006C153.194 52.9313 153.152 52.8333 153.161 52.712C153.161 52.6373 153.189 52.558 153.245 52.474L154.071 51.074C154.136 50.9527 154.225 50.8453 154.337 50.752C154.458 50.6493 154.594 50.598 154.743 50.598C154.958 50.598 155.121 50.6587 155.233 50.78C155.345 50.892 155.396 51.0367 155.387 51.214C155.378 51.298 155.354 51.382 155.317 51.466C155.28 51.55 155.228 51.634 155.163 51.718L154.099 52.88C154.015 52.964 153.922 53.0247 153.819 53.062C153.726 53.09 153.632 53.104 153.539 53.104ZM159.672 61C159.467 61 159.299 60.9347 159.168 60.804C159.038 60.664 158.972 60.4913 158.972 60.286V54.35C158.972 54.1447 159.038 53.9767 159.168 53.846C159.299 53.706 159.467 53.636 159.672 53.636C159.868 53.636 160.032 53.706 160.162 53.846C160.302 53.9767 160.372 54.1447 160.372 54.35V55.918L160.232 55.316C160.307 55.0547 160.419 54.812 160.568 54.588C160.727 54.364 160.914 54.168 161.128 54C161.343 53.832 161.581 53.7013 161.842 53.608C162.113 53.5147 162.393 53.468 162.682 53.468C162.925 53.468 163.135 53.5333 163.312 53.664C163.49 53.7947 163.578 53.958 163.578 54.154C163.578 54.406 163.513 54.5927 163.382 54.714C163.252 54.826 163.107 54.882 162.948 54.882C162.808 54.882 162.673 54.854 162.542 54.798C162.412 54.7327 162.258 54.7 162.08 54.7C161.884 54.7 161.684 54.7513 161.478 54.854C161.273 54.9567 161.086 55.1107 160.918 55.316C160.75 55.512 160.615 55.7453 160.512 56.016C160.419 56.2867 160.372 56.59 160.372 56.926V60.286C160.372 60.4913 160.302 60.664 160.162 60.804C160.032 60.9347 159.868 61 159.672 61ZM166.14 60.286C166.14 60.4913 166.074 60.664 165.944 60.804C165.813 60.9347 165.645 61 165.44 61C165.244 61 165.076 60.9347 164.936 60.804C164.805 60.664 164.74 60.4913 164.74 60.286V54.294C164.74 54.0887 164.805 53.9207 164.936 53.79C165.076 53.65 165.244 53.58 165.44 53.58C165.645 53.58 165.813 53.65 165.944 53.79C166.074 53.9207 166.14 54.0887 166.14 54.294V60.286ZM165.426 52.656C165.155 52.656 164.959 52.6093 164.838 52.516C164.716 52.4133 164.656 52.2453 164.656 52.012V51.788C164.656 51.5547 164.721 51.3913 164.852 51.298C164.982 51.2047 165.178 51.158 165.44 51.158C165.72 51.158 165.92 51.2093 166.042 51.312C166.163 51.4053 166.224 51.564 166.224 51.788V52.012C166.224 52.2547 166.158 52.4227 166.028 52.516C165.906 52.6093 165.706 52.656 165.426 52.656ZM175.079 57.318C175.079 58.0647 174.916 58.7273 174.589 59.306C174.262 59.8753 173.819 60.3233 173.259 60.65C172.699 60.9767 172.069 61.14 171.369 61.14C170.669 61.14 170.039 60.9767 169.479 60.65C168.919 60.3233 168.471 59.8753 168.135 59.306C167.808 58.7273 167.645 58.0647 167.645 57.318C167.645 56.562 167.808 55.8993 168.135 55.33C168.471 54.7513 168.919 54.2987 169.479 53.972C170.039 53.636 170.669 53.468 171.369 53.468C172.069 53.468 172.699 53.636 173.259 53.972C173.819 54.2987 174.262 54.7513 174.589 55.33C174.916 55.8993 175.079 56.562 175.079 57.318ZM173.679 57.318C173.679 56.8047 173.576 56.3613 173.371 55.988C173.166 55.6053 172.886 55.3067 172.531 55.092C172.186 54.868 171.798 54.756 171.369 54.756C170.94 54.756 170.548 54.868 170.193 55.092C169.838 55.3067 169.558 55.6053 169.353 55.988C169.148 56.3613 169.045 56.8047 169.045 57.318C169.045 57.8127 169.148 58.2513 169.353 58.634C169.558 59.0167 169.838 59.3153 170.193 59.53C170.548 59.7447 170.94 59.852 171.369 59.852C171.798 59.852 172.186 59.7447 172.531 59.53C172.886 59.3153 173.166 59.0167 173.371 58.634C173.576 58.2513 173.679 57.8127 173.679 57.318Z" fill="white"/>
<path fill-rule="evenodd" clip-rule="evenodd" d="M230.084 74.7042C234.119 70.3621 236.665 64.7479 236.219 57.9397C236.219 50.4866 233.713 43.7247 227.664 38.8421C223.021 35.0942 216.444 33.3746 209.976 33.5542C206.248 33.5542 202.279 34.5324 199.015 35.8302C194.536 37.6111 191.123 40.1042 188.594 43.7961C185.863 47.782 185 52.2048 185 57.452C185 64.1601 186.968 70.0146 191.289 74.1625C196.029 79.0543 203.532 83 211.245 83C218.874 83 225.514 79.6211 230.084 74.7042ZM194.308 41.2614C189.949 45.2899 188.432 51.2649 188.432 56.7297C188.432 60.3578 188.973 63.5214 191.289 66.9153C194.763 72.0063 203.388 76.0002 209.95 76.0002C215.267 76.0002 221.297 74.4595 225.504 70.9017C230.246 66.8916 232.849 60.5292 232.849 54.915C232.849 49.2716 230.535 44.4949 225.936 40.9158C220.924 36.8543 215.927 35.4716 210.641 35.4716C207.669 35.4716 203.887 36.1414 200.79 37.2864C198.179 38.2515 196.18 39.5317 194.308 41.2614Z" fill="white"/>
<path d="M194.146 23.7192C193.8 22.3367 191.554 19.8306 191.554 19.8306C191.554 19.8306 197.084 17.2382 203.22 21.2133C207.295 23.8537 207.281 33.2249 207.281 33.2249C207.281 33.2249 205.504 30.2868 203.911 30.2868C202.318 30.2868 202.195 30.0934 201.146 29.7683C199.862 29.3707 199.147 29.0527 198.035 28.2992C196.092 26.9834 194.146 23.7192 194.146 23.7192Z" fill="#9BAB49"/>
<path d="M196.211 23.9806C190.681 22.5108 186.619 28.3872 186.619 28.3872C186.619 28.3872 188.214 28.9749 189.298 29.7699C191.89 31.6709 192.422 31.8884 195.606 32.0166C197.933 32.1104 203.495 31.6416 205.371 32.0167C206.235 32.1896 207.272 33.227 207.272 33.227C207.272 33.227 203.384 25.8867 196.211 23.9806Z" fill="#C1BF0A"/>
<path fill-rule="evenodd" clip-rule="evenodd" d="M142.758 83.6089H136.756L134.089 79.7542H132.643V83.6089H127.141V68.0221H135.945C135.945 68.0221 138.444 68.1661 140.231 69.4749C141.564 70.4516 142.316 71.7584 142.316 73.7766C142.316 75.3967 142.047 76.3214 141.447 77.1844C140.589 78.4193 139.304 78.7484 139.304 78.7484L142.758 83.6089ZM135.018 72.1562C135.397 72.1562 135.972 72.3911 136.234 72.6592L136.237 72.6623C136.359 72.7864 136.533 72.9641 136.64 73.2179C136.765 73.5145 136.814 73.8958 136.814 74.1117C136.814 74.3081 136.748 74.6074 136.64 74.838C136.527 75.0798 136.311 75.2518 136.176 75.3967C135.914 75.6648 135.397 75.7319 135.018 75.7319H132.643V72.1562H135.018Z" fill="white"/>
<path d="M155 77.3296C155 79.2514 154.341 81.5828 153.262 82.4916C152.198 83.4003 150.698 83.6089 148.687 83.6089H146.081L143.185 79.419H148.339C148.339 79.419 148.876 79.3378 149.15 78.9162C149.405 78.5245 149.541 77.6445 149.541 77.3072V72.1564H145.675L142.779 68.0222H149.541H155V77.3296Z" fill="white"/>
<path d="M107.676 82.2346C109.031 81.1322 109.824 79.5307 109.824 77.4302V68.0223H104.321V77.3631C104.321 77.3631 104.271 78.4268 103.858 78.9162C103.322 79.551 102.005 79.6425 102.005 79.6425C101.635 79.6411 100.58 79.4913 100.093 78.9162C99.6063 78.3411 99.5015 77.3408 99.5015 77.3408V68H93.9538H91L93.9538 72.1006V77.4078C93.9538 79.5084 94.7471 81.1322 96.1016 82.2346C97.4714 83.337 99.5087 84 102.005 84C104.501 84 106.321 83.337 107.676 82.2346Z" fill="white"/>
<path d="M112.262 68.0221H125.447V72.1562L117.789 72.1562V74.5942H124.535V78.7484H117.789V83.6221L112.262 83.6221V68.0221Z" fill="white"/>
</svg>
