<svg width="40" height="40" viewBox="0 0 40 40" fill="none" xmlns="http://www.w3.org/2000/svg">
<path d="M18.0313 18.0312L18.0313 30.0312L21.9688 30.0312L21.9688 18.0312L18.0313 18.0312ZM18.0313 9.96875L18.0313 14L21.9688 14L21.9688 9.96875L18.0313 9.96875ZM34.1563 34.0625C30.2188 38 25.5 39.9687 20 39.9687C14.5 39.9687 9.8125 38 5.9375 34.0625C2 30.1875 0.0312516 25.5 0.0312521 20C0.0312526 14.5 2 9.78125 5.9375 5.84375C9.8125 1.96875 14.5 0.0312474 20 0.0312479C25.5 0.0312484 30.2188 1.96875 34.1563 5.84375C38.0313 9.78125 39.9688 14.5 39.9688 20C39.9688 25.5 38.0313 30.1875 34.1563 34.0625Z" fill="#3E3E3E"/>
</svg>
