<svg width="182" height="394" viewBox="0 0 182 394" fill="none" xmlns="http://www.w3.org/2000/svg">
<rect width="182" height="394" rx="22" fill="white"/>
<rect x="13.6501" y="180.287" width="154.785" height="60.0956" rx="20" fill="#D9D9D9" fill-opacity="0.38"/>
<rect x="30.9402" y="228.546" width="26.39" height="3.64216" rx="1.82108" fill="#CCCCCC"/>
<rect x="30.9402" y="193.035" width="119.21" height="6.37378" rx="3.18689" fill="#CCCCCC"/>
<rect x="30.9402" y="206.692" width="119.21" height="6.37378" rx="3.18689" fill="#CCCCCC"/>
<rect x="13.6501" y="96.5176" width="154.785" height="66.8013" rx="20" fill="#D9D9D9" fill-opacity="0.38"/>
<rect x="30.9402" y="133.85" width="119.21" height="6.37378" rx="3.18689" fill="#CCCCCC"/>
<rect x="30.9402" y="121.103" width="119.21" height="6.37378" rx="3.18689" fill="#CCCCCC"/>
<rect x="30.9402" y="152.061" width="26.39" height="3.64216" rx="1.82108" fill="#CCCCCC"/>
<rect x="30.9402" y="108.354" width="119.21" height="6.37378" rx="3.18689" fill="#CCCCCC"/>
<rect x="30.9402" y="270.431" width="119.21" height="6.37378" rx="3.18689" fill="#CCCCCC"/>
<rect x="13.6501" y="255.862" width="154.785" height="51.9008" rx="20" fill="#D9D9D9" fill-opacity="0.38"/>
<rect x="30.9402" y="293.194" width="26.39" height="3.64216" rx="1.82108" fill="#CCCCCC"/>
</svg>
