<svg width="182" height="394" viewBox="0 0 182 394" fill="none" xmlns="http://www.w3.org/2000/svg">
<rect width="182" height="394" rx="18" fill="white"/>
<path d="M112.811 145.882H105.429V122.647C105.429 120.091 103.339 118 100.786 118H82.2143C79.6607 118 77.5714 120.091 77.5714 122.647V145.882H70.1893C66.0571 145.882 63.9679 150.901 66.8929 153.829L88.2036 175.159C90.0143 176.971 92.9393 176.971 94.75 175.159L116.061 153.829C118.986 150.901 116.943 145.882 112.811 145.882ZM59 192.353C59 194.909 61.0893 197 63.6429 197H119.357C121.911 197 124 194.909 124 192.353C124 189.797 121.911 187.706 119.357 187.706H63.6429C61.0893 187.706 59 189.797 59 192.353Z" fill="#CCCCCC"/>
<rect x="25" y="245" width="53.494" height="53.4574" rx="7" fill="#D9D9D9"/>
<path d="M45.1916 286.242C44.4974 286.239 43.8319 285.965 43.3368 285.478L31.1176 273.268C30.6257 272.776 30.3494 272.109 30.3494 271.414C30.3494 270.719 30.6257 270.052 31.1176 269.561C31.6095 269.069 32.2767 268.793 32.9723 268.793C33.668 268.793 34.3351 269.069 34.827 269.561L45.1916 279.918L67.7753 257.35C68.0189 257.106 68.308 256.913 68.6263 256.782C68.9445 256.65 69.2856 256.582 69.63 256.582C69.9745 256.582 70.3156 256.65 70.6338 256.782C70.952 256.913 71.2412 257.106 71.4847 257.35C71.7283 257.593 71.9215 257.882 72.0533 258.2C72.1851 258.518 72.253 258.859 72.253 259.203C72.253 259.547 72.1851 259.888 72.0533 260.206C71.9215 260.524 71.7283 260.813 71.4847 261.057L47.0463 285.478C46.5512 285.965 45.8857 286.239 45.1916 286.242V286.242Z" fill="#F4F4F4"/>
<rect x="104" y="245" width="53.494" height="53.4574" rx="7" fill="#D9D9D9"/>
<path d="M152.921 287.108C153.273 287.462 153.47 287.941 153.47 288.44C153.47 288.939 153.273 289.418 152.921 289.772C152.564 290.118 152.086 290.311 151.588 290.311C151.091 290.311 150.613 290.118 150.255 289.772L134.747 274.252L119.239 289.772C118.882 290.118 118.403 290.311 117.906 290.311C117.408 290.311 116.93 290.118 116.573 289.772C116.221 289.418 116.024 288.939 116.024 288.44C116.024 287.941 116.221 287.462 116.573 287.108L132.104 271.61L116.573 256.113C116.274 255.75 116.122 255.288 116.145 254.819C116.168 254.35 116.365 253.905 116.698 253.573C117.03 253.241 117.474 253.044 117.944 253.021C118.414 252.998 118.876 253.15 119.239 253.448L134.747 268.969L150.255 253.448C150.619 253.15 151.08 252.998 151.55 253.021C152.02 253.044 152.464 253.241 152.797 253.573C153.129 253.905 153.326 254.35 153.349 254.819C153.372 255.288 153.22 255.75 152.921 256.113L137.39 271.61L152.921 287.108Z" fill="#F4F4F4"/>
</svg>
